/* XPM */
static char *_1672937679[] = {
/* columns rows colors chars-per-pixel */
"80 80 253 2 ",
"   c #1F2C3D",
".  c #3B362D",
"X  c #3C3D2D",
"o  c #373A28",
"O  c #3D3534",
"+  c #353D35",
"@  c #3C3C35",
"#  c #3D363B",
"$  c #353C3C",
"%  c #3D3D3D",
"&  c #35343B",
"*  c #2E3B38",
"=  c #2D1F30",
"-  c #433C2C",
";  c #47372B",
":  c #433534",
">  c #433B34",
",  c #42363D",
"<  c #433C3C",
"1  c #493A3A",
"2  c #493836",
"3  c #4D3729",
"4  c #37412B",
"5  c #354235",
"6  c #3A4234",
"7  c #35413C",
"8  c #3D413B",
"9  c #37483D",
"0  c #424134",
"q  c #41413C",
"w  c #48413B",
"e  c #45422D",
"r  c #122A59",
"t  c #2D3A4B",
"y  c #353D43",
"u  c #3C3C43",
"i  c #353C4C",
"p  c #3C3C4A",
"a  c #393547",
"s  c #283C5A",
"d  c #343C52",
"f  c #383B59",
"g  c #253B78",
"h  c #2E3969",
"j  c #13306C",
"k  c #423B43",
"l  c #443C4A",
"z  c #473844",
"x  c #2A4349",
"c  c #354242",
"v  c #3B4243",
"b  c #37434A",
"n  c #2A435A",
"m  c #35455A",
"M  c #1D476F",
"N  c #2B4364",
"B  c #27466A",
"V  c #324362",
"C  c #334468",
"Z  c #284777",
"A  c #374A76",
"S  c #2D5577",
"D  c #424244",
"F  c #40404A",
"G  c #293D86",
"H  c #143BB4",
"J  c #1B4995",
"K  c #184992",
"L  c #234387",
"P  c #285A89",
"I  c #235996",
"U  c #27499A",
"Y  c #1C649F",
"T  c #246A9C",
"R  c #1958A8",
"E  c #1758B7",
"W  c #144DB1",
"Q  c #2455A4",
"!  c #2B57AF",
"~  c #1969A9",
"^  c #1967B6",
"/  c #1973BA",
"(  c #0D71BF",
")  c #2766A7",
"_  c #2766B9",
"`  c #2378B4",
"'  c #1759C5",
"]  c #1252CE",
"[  c #235EC6",
"{  c #1767C7",
"}  c #1878C8",
"|  c #086AD8",
" . c #126CD8",
".. c #0B75DC",
"X. c #1878D8",
"o. c #2473C2",
"O. c #2269C1",
"+. c #176AE4",
"@. c #0D75E2",
"#. c #0C7CE5",
"$. c #1779E8",
"%. c #126EF2",
"&. c #1479F5",
"*. c #096BED",
"=. c #247DF8",
"-. c #2274F3",
";. c #1C59E9",
":. c #128CBD",
">. c #1A89CA",
",. c #0985DC",
"<. c #1988DD",
"1. c #199CC8",
"2. c #0C85E7",
"3. c #1687EA",
"4. c #0D96EA",
"5. c #1396ED",
"6. c #1498E8",
"7. c #0D89F8",
"8. c #1788F7",
"9. c #0E98F5",
"0. c #1493F3",
"q. c #159AFC",
"w. c #1C9BFC",
"e. c #1796F6",
"r. c #2686FC",
"t. c #2598FF",
"y. c #2594ED",
"u. c #0AA5EB",
"i. c #15A5ED",
"p. c #0EBAEC",
"a. c #18B8EB",
"s. c #0CABFC",
"d. c #0CA7F4",
"f. c #13A4F4",
"g. c #14ADF4",
"h. c #15A3FD",
"j. c #1AA4FA",
"k. c #14ABFD",
"l. c #1CAAFC",
"z. c #1AA6F4",
"x. c #0EBBFB",
"c. c #0BBAF6",
"v. c #13BCF5",
"b. c #14B4FC",
"n. c #1BB3FD",
"m. c #14BBFD",
"M. c #1ABBFE",
"N. c #19B7F4",
"B. c #24A4FC",
"V. c #22B9FE",
"C. c #35BFED",
"Z. c #51B9F0",
"A. c #12CDED",
"S. c #18D8ED",
"D. c #0BC5F5",
"F. c #0BCDF3",
"G. c #0CC5FC",
"H. c #0CCBFE",
"J. c #05C9FB",
"K. c #13CBF4",
"L. c #1BCCF5",
"P. c #14C3FD",
"I. c #1BC2FF",
"U. c #13CBFC",
"Y. c #1ACCFD",
"T. c #15C3F5",
"R. c #0ED4F3",
"E. c #0DD2FE",
"W. c #0CDCFD",
"Q. c #07D8F8",
"!. c #15D4F5",
"~. c #14DCF5",
"^. c #14D3FD",
"/. c #1BD4FE",
"(. c #13DBFD",
"). c #1BDCFE",
"_. c #1CD7F4",
"`. c #0EC0E6",
"'. c #27D5EA",
"]. c #22CBFC",
"[. c #28C6FA",
"{. c #34C6F7",
"}. c #25D5F9",
"|. c #38DAF5",
" X c #29C8EC",
".X c #0CE2FF",
"XX c #0AE9F6",
"oX c #13EBF4",
"OX c #14E3FD",
"+X c #1AE3FE",
"@X c #12EBFE",
"#X c #1BEAFF",
"$X c #18E6F5",
"%X c #0BF4FB",
"&X c #12F5FD",
"*X c #16F8FB",
"=X c #08EBEC",
"-X c #24EDEB",
";X c #24E7FD",
":X c #38E8FA",
">X c #38FAFC",
",X c #20F0FC",
"<X c #49CBF3",
"1X c #45DAFA",
"2X c #52D3F1",
"3X c #7DDEF7",
"4X c #70D7F2",
"5X c #46E9FB",
"6X c #57EAF3",
"7X c #49FAFC",
"8X c #55FDFE",
"9X c #5CFCFC",
"0X c #4EECE6",
"qX c #6AE8F6",
"wX c #76EAFB",
"eX c #63FDFD",
"rX c #6DFEFE",
"tX c #6BFAF6",
"yX c #72FCFD",
"uX c #7AFEFE",
"iX c #7BF8F7",
"pX c #77F1EE",
"aX c #95D9E6",
"sX c #88E9F8",
"dX c #97E9F4",
"fX c #83FDFC",
"gX c #8CFDFD",
"hX c #87F9FA",
"jX c #94FDFD",
"kX c #9BFDFD",
"lX c #96FAF7",
"zX c #8FFDEE",
"xX c #A4FDFD",
"cX c #ACFDFE",
"vX c #A9FAF7",
"bX c #B4FEFE",
"nX c #BBFDFC",
"mX c #B6F9F9",
"MX c #B4EBF7",
"NX c #C3FEFD",
"BX c #CCFEFC",
"VX c #CAF8F7",
"CX c #D4FDFC",
"ZX c #DCFEFD",
"AX c #D4FAFA",
"SX c #E3FEFD",
"DX c #ECFEFE",
"FX c #E8FDF6",
"GX c #F3FFF3",
"HX c #FDFCF4",
"JX c #F3FEFD",
"KX c #FDFDFE",
"LX c #FDF5FC",
/* pixels */
"% % % % % % u % % % % % % % % % % % % % % % % % % % % % 8 % % % % % % % % % % % % % % % % % % % % % % % % % % % % % % % % % % % % % % % % % % % % % % % % % % % ",
"% % % % % % % % % % % < % % % % % % % % % % % % % % % % < % % % % % % % % % % % % % % % % % % % % % % % % % % % % % % % % % % % % % % % % % % % % % % % % u % % ",
"% % % % % % % % % % % % % % % % % % % % < % % % % % % % % % % % % u % % % % % % % % % % % % % % % % % % % % % % % % % % % % % % % % % % % % % % % % % % % % % % ",
"% % % % % % % % % % % % % % % % % % % % 8 u % % % % % % % % % % % % % % % % % % % % % % % % % % % % % % u % % % % % % % % % % % < u % % % % % % % % % % % % % % ",
"% % % % % % % % % % % % % % % % % % % % % % % % % % % % % % % % % % % % % % % % % % % % % % % % % % % % % 8 % % u % % % % % % % % % % % % % 8 % % % % % % % % % ",
"% % % % % % % % % % % % % % % % % % % % % % % % % % % % % % % % % % % % % % % % % % < u % % % % % % % % % < % % q % % % % % % % % % % % % % % % % % % % % % % % ",
"% % % % % % % % % % % % % % % % % % % % % % u % % % % % % u % % % % % % % % % % % % % % % % % % % % % % % % % % % % % % % % % % % % % % % % % % % % u % % % % % ",
"% % % % % % % % % % 8 u % % % % % % % % % % % % % % % % % % % % % % % % % % % % % % % % % % % % u % % % % % % % % % % % % % % % % % % % % % % % % % 8 % % % % < ",
"% % % % % % % % % % % % % % % % % % % % % % % % % % % % % % % % < 8 u v % 8 8 7 % < < < 7 < z y % 9 e < p i d < % % % % % % % % % % % % % % % % % % % % % % % % ",
"% % < % % % % % % % % % % % % % % % % % % % % % % % % % % % % % k % < k u # # k $ c % k 7 $ 8 8 z i X < o I Q + % % % % % % % % % % % % u % % % % % % % % % % % ",
"% % % % % % % % % % % % % % % % % % u % % % % % % % % % % u % % u + @ % % u u k 0 8 % u $ % 1 - z # < b # { ) # % % % % % % % % % % % % % % % % % % % % % % % % ",
"% % % % % % % % % % % % % % % % % 8 < % % % % % % % % % % % % % : % u p u < > > @ % # # % 5 % c + @ @ G h E C - % % % % % % % % % % % % % % % % % % % % % % % % ",
"% % % u % % % % % % % % % % % % % % % % % % % % % % % % % % % % 8 8 < @ X 7 V A A m v X 1 l & F k 5 8 t K U , y % % % % % % % % % % % % % % % % % % % % % % % % ",
"% % % % % % % % % % % % u < % % % % % % % % % % % % % % % % % % u O : m ) <.d.p.T.^.a.T d < + # @ , k u Z 7 : p % % 8 % % % % % % % % % % % % % % % % % < % % u ",
"% % % % % % % u % 8 % % % % % % % % % % % % % % % % % % % % % % e C _ 8.8.9.0.0.4.c.@X+X>.~ I L Q V - k : # 8 @ % % < % % % % % % % % % % % 8 u % % % % % % % % ",
"% % % % % % % % % % % % % % % % % % % % % % % % % % % % % % % % L J I S m N ) y.t.X.4.#X^.,.&.%.h...h 5 f 6 , v % % % u % % % % % % % % % < % % % % % % % % % % ",
"% 8 % % % % % % % % % % % % % % % % % u < % % % p @ > 2 u % - s M k ; $ @ 3 m X.<.&.%.T.oXi.3.q.3.v...i u k < < % % % % % % % % % % % % % % % % % % % % % % % % ",
"% % % % % % % % 8 % % % % % % % % % % % % % % % @ D * b v @ 1 d # < % c 8 < y B f b L X.OXU.7.f.z.g.n.S > % % 7 % % % % % % % % % % % % % % % % % % % % % % % % ",
"% % % % % % % % % % % % % % % % % % % % % % % % @ y D @ % p # < : 8 y @ < 8 % . : 6 > Z a.*Xi.w.n.9.^.~ : 7 % $ % % % % % % % % % % % % % % % < % % % % % % % % ",
"% % % % % % % % % % % % % % % % % % % % % % % % v # l > @ # > c b % @ > < % % k 9 b 2 @ >.OX`.9.I.5.P.} a 5 k > % % % % % % % % % % % % % % % u % % % % % % % % ",
"% % % % % % % u % % % u % % % % % % % % % % % % 6 > y - p I N % p @ < l i % @ < @ u z : ~ OXU.3.M.g.P.$.h 4 z < % % % % % u % % % % % % % u % % % % % % % % u 8 ",
"% % % % % % % % % % % % % % < % % % % % % % % % @ c 1 u _ ..N > @ @ < q y u u @ k D $ @ ) (.^.0.m.H.^.#.I 1 p 5 % % % % % % % % % % % 8 % % % % % % % % % % % % ",
"% % % % % % % % % % % % % % % % % % % % % % % % l a O ) 8.M > 7 % 8 % @ > q v % % k $ . _ !.R.u.P.^.U.| { z v 7 % % % % % % % % % % % % % % % % % % % % % % % % ",
"% % % % % < % % % % % % % % % % % % % % % % % % % 6 @ { K = d : % % u u u > > v 6 p 8 > ^ ^.I.4.G./.`.+.{ a v < % % % % % % % % % % % % % % % % % % % % % % % % ",
"% % % % % % % % % < u % % % % % % % u 8 % % % % k u @ E j r { + % % % % % % % % 4 l : O } W.a.h.Y.(.d.#.X.y 1 c % % % % % % % % % % % % % % % % % % % % % % % % ",
"% % % % % % % % % % % % % % % % % % % % % % % % % c > Z r ^ _ ; 8 % % % % % # % p 5 l d <.).i.b.!.L.@.8.! 8 8 , % % % % % % % % % % % < % % % % % % % % % % % % ",
"% % % % % % % % % % % % % % % % % % % % % % % % @ 7 1 t s  .Z 2 % % % % % % % % k $ e G b.Y.9.F.(.g.&.7.W d o v % % % % % % % % % % % % % % % % % % % % % % % % ",
"% % % % % % % % % % % % % % % % % % % % % % % % 8 5 1 a N R # v % u % % % % 8 % @ k u | !.c.b.W.P.8.8. .&.' p v % % % % % % % % % % % % % % % % % % % % % k % % ",
"% % % % % % % % % % % % % % % % % % % % % % % % % @ k % Z N - y u % % % % % u u v > J k.K.k.D._.5.,. .$.s.+.f : % % % % % % % % 8 u % % % % % % % % % % % % % % ",
"% % % % % % % % % % % % % % % % % % % % < % % % % u < ; n b > @ % % % % % % % u ; s  .K.N.M.(.N.3.%.$.q.j.@.c , % % % % % % % % % % % % % % % % % % % % % % % % ",
"% % % 8 % % % % % % % % % % % % % % % % u % % % % u % > a y $ < < % % % % % u u $ E n.G.T.U.m. .] H J E %.{ $ < % % % % % % u < % % % % % % % % % % % % % % % % ",
"% % % u % % % % % % % % 8 % % u % % % % % % % % 5 , 8 c 1 % < u % % % % % u u u ] q.S.Y.R.P. .M x x   r J h 6 p % % % % % % % % % % % % % % % % % % % % % % % % ",
"% < % % % % % % % % % % % % % % % % % % % % % % u @ % % u u 8 5 , q + @ 1 p L ] f.K.U.H.M.+.n - + e g E Q $ # v u % % % % % % % % % % % % % % % % % % % % % % % ",
"% % % % % % % % % % % % % % % % % % % % % % % % % p u X < < < a 7 p D 8 B W @.l.Y.P.P.K.2.Z @ a k i  .l.^ 4 w % % % % % % % % % % % % % % % % % % % % % % % % % ",
"% % % % % % % % % % < 8 % % % % % % % % % % % % # e u p u # @ > O c B W $.B.x.G.G.x.b.9.W - w p k t R <.J # k < % % % % % % % % % 8 % % % % % % % % < % % % % % ",
"% % % % % % % % % % u % % % % % % % % % % % % % v 6 u # - 8 x Z _ $.h.m.M.f.u.b.n.b.l.| Z ; u @ $ 0 $ + # w u @ % % % % % % % % % % % % % % u % % % % % % % % % ",
"% % % u % % % % % % % % % % % % % % % % % % % % @ + v 8 # L } l.P.m.h.4.4.z.n.c.n.M.6.] m % 7 < q % k z z k y 5 % % % % % % % % % % % % % % % % % % % % % % 8 % ",
"% % % 8 % % % % % % % % % % % % % v % % % % % % - l 5 s ] 8.B.s.2.2.7.h.b.b.k.l.x.g.| ;.m > v v u % % 6 X $ $ < % % % % % % % % % % % % % u % % % % % % % % u % ",
"% % % % % % % u % % % % % % % % < % % % % % < u k # p ! %.@.#.X.f.g.m.m.b.b.M.m.m.5.*.-.N : v # + v < @ v b u z % % % % u 8 % % % % % % % % % < % % % % % % % % ",
"% % % % % % % % % % % % % % % % % % % % % % % # @ X i ] ] ,.h.V.I.b.m.c.b.m.m.m.n.&.$.&.B < 8 0 @ u u k 8 + 8 % % % % % % % % % % % % % % % % % % % % % % % % % ",
"% % % % % % % % % % % % % % % % % % % % % % % % u 4 C ] 5.M.m.w.2...$.l.P.M.v.m.n...e.7.U > $ < % % 8 % p y @ < % < u % % % % % % % % % % % % % % % % % % % % % ",
"% % % % % % % % % % % % % % % % % % % % % % % % 1 q W 9.[.j.2.| $.=.+.2.m.b.m.m.M.2.e.t.' x - v $ u D > > < v u % % % % % % % % % % % % % % % % % % % % % % % % ",
"% % % % % % % % % % % % % % % % % % % % % % % % ; s &.P.f...@.r.8.w.&.$.M.c.I.g.5.7.n.l.-.[ L + 1 @ @ % # u F 5 % % % % % % % % % % % % % % % % % % % % % % % % ",
"% % % % % % % % % % % % % % % % % % % % % % % % % E n.g.*.3.t.t.w.e.r.2.P.c.P.g.e.9.k.b.3.+.=.I n # , D 5 $ u < % % % % % % % % u 8 % % % % % % % % % % % % % % ",
"% % % % % % % % % % % % % % % % % % % % % % % % f 8.N...8.B.t.0.t.t.-.5.U.v.x.P.M.k.z.m.n.| 8.w.<.P k @ @ u l > % % % % % % % % % % % % % % % % % % u < % % % % ",
"% % % % % % % u % % < v % % % % % % % % % % u % Z j.4.2.j.e.q.l.t.r.@.k.P.M.P.P.D.k.M.p.M.h.| 8.B.q.X.A 2 @ $ , % % % % % % % % % % % % % % % % % % % % % % % % ",
"% % % % < % % % % % % % % % % % % % % % % % % % R N.0.8.l.j.k.f.k.7.4.P.x.T.U.T.U.v.G.U.v.G.l. .8.l.V.e.) b o % % % % % % % % % % % % % % % % % % % % % % % % % ",
"% % % % % % % % % % % % % % % % % % % % % % % % [ m.7.z.k.l.s.B.j.4.M.J./.$XXX,X#X%X$X$XOXE.U.v.2.8.f.v.l.o.m ; % u 8 % % % % % % % % % % % % % % % % % % 8 u % ",
"% % % % % % % % % % % % % % % % v # D % % $ 8 l { M.5.s.M.k.k.l.q.s.).XX&X*X&X%X&X&X%X%X*X*X+X(.F.5.q.N.m.M.~ > w % % < $ 5 8 u % % % % % % % 8 % % % % % % % % ",
"% % u 8 % % % % % % % % % % % % k @ k % 8 u q @ { x.i.b.m.c.M.M.v.;X&X&X$X0X0XyXtXqX7X:X$XoX&X&XOX(.k.m.m.x.i.C % % < < % 5 @ k % % % % % % % % % % % % % % % % ",
"% % % % % % % % % % % % % % % % % + u % @ p @ 4 ' m.M.M.x.m.m.c.U.=X-XwXmXDXJXKXSXZXCXnXlXwX5X+X&X*X/.J.m.M.U.} y @ < u u @ # v % % % % % % % % % % % % % % % % ",
"% % % % % % % % < u % 8 % % % % 8 < u % 8 < , n ' k.].v.G.P.I.G.).$XmXLXKXKXJXKXGXSXCXCXBXnXlXpX:X$XOXW.x.[.T.s.N @ < u k u @ 8 % % % % % % % % u % % % % % % % ",
"% % % % % % % % % % % % % % % % v < % % v > z Q ..9.I.P.H.P.Y.).%XqXLXHXJXKXKXGXLXKXSXCXBXBXcXkXfX5XoX#XU.G.].x.P # @ % k # > c % % % % % % % % % % % % % % % % ",
"% % % % % % % % % % % % % % % % 8 < $ % u - p +.&.9.P.F.H.P.Q.%X|.AXGXJXLXLXLXKXJXDXSXZXVXnXvXxXlXuX5XoX.XG.H.I.:.p # u q p < % % k % % % % % % % % % % % % % % ",
"% % % % % % % % % % % % % % % % y : % < u > f 8.r.5.^.D.I.^.XX-XsXKXGXLXKXJXKXKXHXKXDXZXBXNXmXvXzXgXyX-XOXU.J.Y.6.b < @ 8 y > u % % % % % % % % % % % % % < % % ",
"% % % % % % % % % % % % % % % u c > % % % u C 9.0.4.U.T.^.W.,X3XJXKXKXJXKXKXHXKXJXKXJXDXCXNXbXcXkXyXtXeX}.U.K.P.b.m < % 8 $ < u % % % % % % % % % % % % % % % % ",
"% % % % % % % % % % % % % % % % 8 p + # < 7 C q.5.h.Q.U.S.).wXKXLXJXLXFXKXKXKXHXKXHXDXSXCXBXmXcXjXgXtXeX1XD.H.I.m.A : v 8 7 , 8 % % % % % % % % % % % % % % % % ",
"% % % % % % % % % % % % % % % % % y 8 < < + m e.i.x.F.+XW.|.FXLXLXKXDXFXKXKXKXHXKXKXJXSXCXNXmXcXxXhXrXrX5XD.E.L.c.L : y @ % k 8 % 8 % % % % % % % % % % % % % % ",
"% % % % % % % % % % % % % % % % % u % k q + p <.I.c.U.L.v.4XKXKXGXKXVXGXKXJXKXKXKXKXDXSXCXNXbXcXzX7X>X7X:Xv.H.K.T.~ : 8 u % p @ % u % % % % % % % % % % % % % % ",
"u 8 % % % % % < % % < % u % % % @ u % u 8 8 a } H.K.U.<XZ.aXKXGXJXAXMXJXKXKXKXKXKXJXDXZXBXNXcXxXiX*X%X}.}.U.H.Y.U.>.: < u @ u @ % % % % % % % % % % % % % % % % ",
"% % % % % % % u % % % % 8 % % % < % % % % 8 # ^ k.^.D.3X<XaXKXLXJXqXsXKXJXKXHXKXKXDXSXZXBXnXcXkXhX5X}.p.U.F.G.P.^.>.: q y < u @ % % % % % % % % % u % % % % % % ",
"% % % % % % % % % % % % % % % % @ 8 v # 5 8 O ~ m.U.D.3XC.dXHXKXDX'.dXKXJXKXHXKXDXSXZXBXNXbXxXkXjXfX1Xa.L.!.K.U.^.} O 5 u k % u % % % % % % % % % % % % % % 8 % ",
"% % % % % % % % % % % % % % % % u % % % % % # ^ G.L.G.qXV.4XFXHXVXM.mXKXDXKXJXDXSXZXBXNXbXcXkXgXfXuX5XF.^.Y.P.F.Y.` : 5 k < 5 u % % % % % % % % % % % % % % u % ",
"% % % % % % % % % % % % % % % % D @ u < @ y < } Y.U.T.<X].C.VXGXMXV.AXLXDXJXJXSXZXCXBXnXbXxXjXhXiXrX:X^.^.E.H.L.H.T : 7 u , + u % % % % % % < % % % % % % % % % ",
"% % % % % % % % % % % % % % % % % < v 8 8 k & / Q.L.Y.N.v.(.sXFXwX<XBXDXFXSXNXBXBXBXnXbXxXkXjXfXtXyX|.Q.(.L.U.^.v.A X 7 % % z @ % % % % % % % % % % % % % % % % ",
"% % % % % % % % % % % % % % % % % < y > % v # ` ^.Y.U.A.^.K.hXZXwX!.dXSXVXVXsXvXNXnXbXxXkXgXfXuXrXeX'.W.OX/.H.R.6.n @ 8 8 $ l 5 % % % % % % % % % % % % % % % < ",
"% % % % % % % % % % % % % % % % % q y < # 8 > P I.^.E.~.^.}.lXVXpX%X|.MXVXbX2XxXbXcXxXkXgXfXuXrX9X9X X$X~.Y.^.R.T $ u p 0 $ z 8 % % % % % % % % % % % % % % % % ",
"% % % % % % % % % % % % % % % % @ 8 u < % 8 @ N h.R.F./.R.[.zXcXiXL..X|.cXsXC.xXxXkXjXgXfXuXrXeX9X7XN.~.OX^.).0.B @ k u 1 % % % % % % % % % % % % % % % % % % % ",
"% % % % % % % < % % % % % % % % @ u y , % 8 > i ( Y.R.Y.E.{.lXgXyX XOXQ.qX2X{.jXjXjXhXfXuXrXeX9X8X|.v.).*XE.b.R % , 8 u z @ % < % % % % % % % % % % % % % 8 % % ",
"% % % % % % % u u % % % % % % % % % % < % % q # V f.(.^.^.].iXgX|.K.!.OX'.'.~.qXgXfXuXrXrXeX8X8X>XL.W.W.$XE.8.n > k 8 # u 5 % u % % % % % % % % % % % % % % % % ",
"% % 8 % % % % % 8 % % % % % % % u % % % % % u % : Q p.L.Y.E.|.fX2XQ.+X_.#X.X@X:XrXyXrXeX9X8X7X7X;X/.(.R.$XT.! 6 % u % % % % < u % % % % % % % % % % % % % % % % ",
"% % % % % % % % % % % % % % % % u % % 7 % < % 7 6 %  .U.!.W.L.6XyXT.OX~..X.X+X~.6X9X9X8X8X7X>X>XK.S.E.].Y.:.# 8 % @ u 8 5 u u % % % % % % % % % % % % % % u % % ",
"% % % % % % % % % % % % < % % % % % % % % % % % p 3 f } x.).^.A.5X'.T.).(.~.OXOX'.8X8X7X7X7X>X}.L.(.Q.(.1.N 1 u % % % % 8 % % % % % % % % % % % % % % % % % % % ",
"% % % % % % % % % % % % u % % % % % % % % % % % % c o n X.G.~.OXE.F.~.).(.W.OX.X^.:X:X>X>X*XoX(.).+XF.>.m . u 1 % % % % u % % % % % % % % % u 8 % % % % % % % % ",
"% % % % % % % % % % % u % % % % % % % % % % % % X q v X m  .s.+X}.OXQ.R.R.(.)./.Q.oXoX&X%XOX(.F.p.7._ z X v q 6 % % % % % % % % % % % u % % % % % % % % % % % % ",
"% % % % % % % % % % % 8 % % % % % % % % % % % % u u u k - $ I 3.x.U.~.+XOX(.(.W.$XOXOXoXXX~.l.*.E g k , y 8 @ y % % % % % % % % % % % % % % % % % % % % % % % % ",
"% % % % % % % % % % % % % % % % % % % % % % % % % % z @ % k @ x Z ~ 3.h.m.F.^.^.(.(.^.^.m.3.^ L d O 6 7 @ @ u , % % % % % % % % % % % % % < % % % % % % % % u < ",
"% % % % % % % % % % % % % % % % % % % % % % % % $ l v 5 @ @ u > : @ t s Z I ~ ( o.{ } ~ Z i # 6 6 # : < v u q < % % % % % % % % % % % % % % % % % % % % % % % % ",
"u % % % % % % % % % % % % % % % % % % u % % % % < $ $ X y p z c % y v q > X > k $ y y @ + < v c p a k D % # % 7 % % % % % % % % % % % % % % % % % % % % % % % % ",
"% % % % % % % < % % % % % % % % % % % % % % % % @ % p z > 6 7 > 8 % @ v u k v $ 8 u < > > p u > % + 8 8 # v u < % % % % % % % % % % % % % % % % % % % % % % % % "
};
