/* XPM */
static char *_f05c9a9575644b5ec1d609cea516a0cDTlrB1wCO10lJtjw[] = {
/* columns rows colors chars-per-pixel */
"80 80 244 2 ",
"   c #2C2C3D",
".  c #312F3C",
"X  c #33343B",
"o  c #363B3D",
"O  c #3A3938",
"+  c #3D3D3D",
"@  c #1C2954",
"#  c #252846",
"$  c #2C3547",
"%  c #2D3B4C",
"&  c #343542",
"*  c #343B44",
"=  c #393B41",
"-  c #323C4A",
";  c #252B54",
":  c #263857",
">  c #2C3B53",
",  c #243A5C",
"<  c #2B3D5A",
"1  c #313D52",
"2  c #152769",
"3  c #1E3964",
"4  c #222F60",
"5  c #273765",
"6  c #223B63",
"7  c #303E6A",
"8  c #36404B",
"9  c #2C425B",
"0  c #334256",
"q  c #32455C",
"w  c #39495C",
"e  c #274268",
"r  c #324664",
"t  c #354A63",
"y  c #3B4C64",
"u  c #374B6A",
"i  c #3C526B",
"p  c #2A4976",
"a  c #314D73",
"s  c #2C517E",
"d  c #3A5576",
"f  c #40546F",
"g  c #445A77",
"h  c #4B617B",
"j  c #1F3C87",
"k  c #1F4682",
"l  c #254888",
"z  c #2D5283",
"x  c #365A86",
"c  c #234995",
"v  c #2A549A",
"b  c #39628D",
"n  c #386698",
"m  c #3B709F",
"M  c #1E45A3",
"N  c #2451AB",
"B  c #285BBB",
"V  c #3769A7",
"C  c #3C73AA",
"Z  c #2D66BB",
"A  c #346BB7",
"S  c #3973BA",
"D  c #496586",
"F  c #536E8B",
"G  c #4D6E94",
"H  c #577697",
"J  c #61748E",
"K  c #647A97",
"L  c #4B75A7",
"P  c #4479AE",
"I  c #447BB6",
"U  c #275CC7",
"Y  c #265BCC",
"T  c #285ED2",
"R  c #2D65C4",
"E  c #2B63CA",
"W  c #346DCA",
"Q  c #3A76C7",
"!  c #3674CC",
"~  c #2A63D3",
"^  c #2E6AD5",
"/  c #2A62D9",
"(  c #2E6BDA",
")  c #316CD3",
"_  c #3572D4",
"`  c #397AD6",
"'  c #3474DB",
"]  c #3678E4",
"[  c #367AE4",
"{  c #4379C8",
"}  c #417FD5",
"|  c #5685AF",
" . c #4884BB",
".. c #5A8ABB",
"X. c #6684A5",
"o. c #7489A7",
"O. c #6B92AD",
"+. c #6B8EB2",
"@. c #7092B2",
"#. c #779AB7",
"$. c #3F83D7",
"%. c #3D84E5",
"&. c #3C84EB",
"*. c #3D88EF",
"=. c #3F8BF1",
"-. c #4788C8",
";. c #558CC5",
":. c #4D92CC",
">. c #5A95C8",
",. c #4B8BD4",
"<. c #4587D9",
"1. c #4C93D3",
"2. c #4C94DB",
"3. c #549BD8",
"4. c #6799C6",
"5. c #749BC4",
"6. c #55A1DB",
"7. c #5CA6DA",
"8. c #6BA3C9",
"9. c #79A5C8",
"0. c #69A6D8",
"q. c #72AEDB",
"w. c #77B5DB",
"e. c #4288E4",
"r. c #428EEC",
"t. c #4995E9",
"y. c #4994EC",
"u. c #519CE4",
"i. c #549CEA",
"p. c #418EF1",
"a. c #4592F2",
"s. c #4B97F1",
"d. c #519FF1",
"f. c #5BA4E4",
"g. c #58A7E5",
"h. c #54A3ED",
"j. c #5DACED",
"k. c #5EB1E7",
"l. c #5DB1EC",
"z. c #54A4F2",
"x. c #55ABF3",
"c. c #5AACF2",
"v. c #5DB3F3",
"b. c #5FB9F4",
"n. c #64ABE3",
"m. c #64A9E6",
"M. c #6BACE4",
"N. c #72ADE3",
"B. c #68B4E9",
"V. c #73B3E4",
"C. c #79B5E5",
"Z. c #73BCEB",
"A. c #7ABCEB",
"S. c #63B4F3",
"D. c #6CB6F2",
"F. c #64BBF5",
"G. c #6BBCF3",
"H. c #65BCF8",
"J. c #68BEF8",
"K. c #72BCF3",
"L. c #7BBEF2",
"P. c #76C2EE",
"I. c #7CC3EE",
"U. c #6AC1F7",
"Y. c #6DC1F5",
"T. c #73C4F4",
"R. c #7AC4F3",
"E. c #7CCAF5",
"W. c #78C8F8",
"Q. c #8899B5",
"!. c #96A9BF",
"~. c #83A8C8",
"^. c #91B1C9",
"/. c #87B7D9",
"(. c #95BCD9",
"). c #A7BCCF",
"_. c #85BBE5",
"`. c #87BBE6",
"'. c #97BDE6",
"]. c #98C5D9",
"[. c #A9C6D8",
"{. c #83C3EC",
"}. c #89C6E8",
"|. c #8BCAEC",
" X c #96C9E9",
".X c #9AD2EE",
"XX c #82CAF6",
"oX c #83CDF4",
"OX c #8ACCF3",
"+X c #98CDF3",
"@X c #86D1F5",
"#X c #8CD2F5",
"$X c #86D2F9",
"%X c #8BD3F9",
"&X c #94D5F5",
"*X c #9BD5F4",
"=X c #94D9F6",
"-X c #9CDAF5",
";X c #93D6F9",
":X c #9CD6F9",
">X c #94D9F8",
",X c #9CDAF8",
"<X c #A4CBE7",
"1X c #B2CFE0",
"2X c #A9D7EE",
"3X c #B7D9EC",
"4X c #A4D4F2",
"5X c #A9D5F4",
"6X c #A3DCF5",
"7X c #ACDDF4",
"8X c #A4DDF8",
"9X c #AADEF9",
"0X c #B6DEF4",
"qX c #BCE0EE",
"wX c #A5E1F7",
"eX c #ADE1F6",
"rX c #ADE2F9",
"tX c #B4E1F5",
"yX c #BBE3F5",
"uX c #BCE9F6",
"iX c #B4E4F9",
"pX c #BBE6F9",
"aX c #BCE9F9",
"sX c #C2E4F3",
"dX c #C8E7F3",
"fX c #C7EBF4",
"gX c #C4EAF6",
"hX c #CBECF6",
"jX c #C3EAF9",
"kX c #CBEDF9",
"lX c #D3EDF5",
"zX c #D9EEF6",
"xX c #D2EEF9",
"cX c #D4F1F7",
"vX c #DBF2F6",
"bX c #D4F0F9",
"nX c #DCF2F9",
"mX c #E5F4F6",
"MX c #E3F4FA",
"NX c #E9F6F8",
"BX c #EBF6FA",
"VX c #ECF8FA",
"CX c #F3FAFA",
"ZX c #F6FAFA",
/* pixels */
"+ + + + + + + + + + + + + + + + + = + + + + + + + + + + + + + + + + + + + + + + + + + + + + + + + + + + + + + + + + + + + + + + + + + + + + + + + + + + + + + + ",
"+ + + + + + + + + + + + + + + + + + + + + + + + + + + + + + + + + + o + + + + + + + + + + + + + + O + + + + + + + + + + + + + + + + + + + + + + + + + + + w + + ",
"+ + + + + + + + + + + + + + + + + + + + + + + + + + + + + + + + + + + - = + O + + + + + O + + O O O + + + + + + + + + + + + + + + + + + + + + + + + + + + + + + ",
"+ + + + + + + + + + + + + + + + + + + + + + + + + + + + + + + + + + & K h * + O + + + o + o * r u r * O + + + + + + + + + + + + + + + + + + + + + + + + + + + + ",
"+ + + + + + + + + + + + + + + + + + + + + + + O + - & = * $ o + + + > o.).u & & $ & $ - * i J [.[.#.y * + + + + + + + + + + + + + + + + + + + + + + + + + + + + ",
"+ + + + + + + + + + + + + + + + + + + + + + + + + D o.o.o.H q - o % % x 8.b D X.o.o.X.H G ^.qX(.L 9 * o O O o + + + + + + + + + + + + + + + + + + + + + + + + + ",
"+ + + + + + + + + + + + + + + + + + + + + O + + - F  X3X0X2X~.H u @.~.(.5X(.q..XvXNXhXC.u.M.j.7.n e e < 8 O O + + + + + + + + + + + + + + + + + + + + + + + + + ",
"+ + + + + + + + + + + + + + + + + + + + + O & 1 g #.N.m.m.M.N./.[.2XhXmXCXNX0X0XeX0X8X_.5X+X}.@Xn.6.6.6.C s s 9 8 + + + + + + + + + + + + + + + + + + + + + + + ",
"+ + + + + + + + + + + + + + + + = + = + & - D +.3XzXsX0X9XyXdXhXjXXX&XpXpXbXMXvXtXR.R.OXMXvXuX.X@XW.E.Y.F.l.b.-.b 9 - + o + + + + + + + + + + + + + + + + + + + ",
"+ + + + + + + + + + + + + + + + + + X 1 g #.1XvXNXmXqX+XjXMXCXbXjXXXv.XX8XkXcXnXhX7X4XzXVXxXeXoX7.f.V.XXG.H.F.b.B.-.b 9 * + + + + + + + + + + + + + + + + + + + ",
"+ + + + + + + + + + + + + + + + > f a P '.pXMXCXNX0XR.&XkXNXVXbXhXtXc.T.&X9XjXpXwXtXhXhXyX-X#X*XV.V.}.M.D.S.v.v.U.U.k.:.d - + + + + + + + + + + + + + + + + + + ",
"+ + + + + + + + + + + + + + + + x ^.q.*X9XfXVXNXxX{.D.,XjXxXVXCXMXxX4XS.F.oX%X:XoX&X*X&X#XT.G.pXgX`._.3X Xq.j.v.T.=X@XU.6.d * O + + + + + + + + + + + + + + + + ",
"+ + + + + + + + + + + + + + 8 w +.`.5X7X8XhXBXxXkX+XS.OXiXkXkXMXMXMXhX4XI.c.S.J.T.#XoXT.S.R.*XhXnXyXV.{.yXdX_.m.@X=X=XT.U.6.z - O + + + + + + + + + + + + + + + ",
"+ + + + + + + + + + + + + + 0 #.4X*XfXOX%XiXjXkXhXOXS.%X-XaXjXkXjX2X XhXfX4X,X8X4XG.S.v.K.yXvXkXhXwX&XB.Z.*X3XV.I.=X=XT.b.U.6.x + + + O + + + + + + + + + + + + ",
"+ + + + + + + + + + + + O 8 #.qXR.9XkXI.S.R.{.pXlXA.F.oX@X%X&X6X2Xm.N.nXnXnXnXVXcX*XR.7XhXMXcXkXrX>X&XT.g.f.P.M.I.=X%XY.U.b.U.6.b 8 + + + + + + + + + + + + + + ",
"+ + + + + + + + + + + + 0 #.fXhXD.-XhXiX|.{.2XxXmX*Xv.G.D.v.K.A.`.N.{.hXMXCXCXZXmXNXVXMXMXcXiX8X&X%XW.S.b.I.M.R.#XE.U.b.b.v.b.U.:.q + + + + + + + + + + + + + + ",
"+ + + + + + + + O + + o d 3XnXcXK.E.wXaXhXhXfXnXMXjX+XS.I.4X{._.4Xn.oX8XjXzXMXnXkXhXzXcXtX,X=X$XT.U.H.b.K.%X&X=XW.F.z.x.v.b.S.H.l.n - O + + + + + + + + + + + + ",
"+ + + + + + + + + + o i 9.uXnXCX7X{.*X%X8XjXkXzXCXMXkXiXjX2X'.sXC. X@XR.:XpXpXpXiX*X&XoXY.U.T.P.G.v.v.{.yX9X;X>XT.F.v.S.@XoXU.H.U.k.V 8 O 8 o + + + + + + + + + ",
"+ + + + + + + + o O 8 | iXiXhXVXMXlXyXOXXX8XaXkXCXZXMXnX3X'.sX+XV.yXtXU.T.#X;X&X#XE.Y.J.|.T.P.0X6XL.|.hXxXrX>X;X%XY.F.v.8X>XXXU.U.b.g.p * h t + + + + + + + + + ",
"+ + + + + + + + O o 8  .#XE.eXcXCXNXzX9XY.XX8XjXxXVXCXCX'.3XsXB. XBXnX5XB.H.T.T.U.v.S.|.hX7XyXhXzXmXmXMXpX>X;X;X%XW.S.v.8X>X;XU.F.Y.U.I G X.w o + + + + + + + + ",
"+ + + + + + + + + O o e 3.%XaXaXxXkXMXpXS.E.=X8XjXkXnX3XC.tX{._.lXCXZXnX7XF.v.v.K.7XtXzXmXhX3XlXxXNXVXkX6X;X>X;X$XY.F.j.8X&X%XU.H.U.E.Y. .q + + + + + + + + + + ",
"+ + + + + + + + + + o d w.,X,X$X9XaXhXyXR.oX&X8XjXkXkX9XV.V.{.gXkXxXVXBXvX7XL.I.yXvXcXMXVX3XC.4XkXhXpXwX>X>X>XOXY.F.v.D.7X;XW.S.b.U.$X$XI % + + + + + + + + + + ",
"+ + + + + + + + O + 9 I oX#XY.S.oX-XiXhXyXT.oXiXkXkXkXkX2X XsXhXkXhXxXnXCXnXhXkXmXNXhXkXbXC._.N.sXrX>X%X%X;X%XJ.b.x.K.sXsXoXU.H.F.H.T.$X-.% + + + + + + + + + + ",
"+ + + + + + + + + O $ I U.0.g.G.oX&X0XkXsXK.#XkXkXkXjXjXpXjXgXsXwX,XrXkXVXCXCXVXMXpXwXyXhX`.C.w.eX&XoXT.J.Y.U.F.v.K.sXxX*Xb.H.F.F.U.U.D.C - + + + + + + + + + + ",
"+ + + + + + + + + + + G  .a n :.m.E.wXhX0XS.OXpXjXiX,X>X:X,XwX#XoX#XOXiXxXNXVXxXiX$XXX;XaXsX}.&X%XK.v.S.S.x.v.c.B. XhX0XXXx.6.k.T.7.:.I q + O + + + + + + + + + ",
"+ + + + + + + + + + + 8 > = * 9 P F.%XhXxXA.J.;X,X%XE.W.T.T.W.G.R.4XS.&XjXkXhXrXT.Y.$X%X,X9X6XP.I.+X:X7X8X+X8X2XsX'.N.XXT.6.s n X.J 0 % o o + + + + + + + + + + ",
"+ + + + + + + + + + + + + + + o z l.T.5XzXdXZ.G.G.G.D.#XR.S.c.I.gXjXOXS.@X,X-XR.K.0XyXR.T.@XT.l.|.hXjXrX8XpXbXMXCX3X0.C.G.>.> * + + + + + + + + + + + + + + + + ",
"+ + + + + + + + + o y g + + + o s g.m.0.sXVXgXP.D.A.yXNXnXdXyXhXVXMXhX|.Z.R.G.K.iXbXzX*XS.l.v.P.tX8X%XXX%X:X8XjXkXtXC.'.q...> = + + + + + + + + + + + + + + + + ",
"+ + + + + w + + o w @.h * + + O t ../._.dXvXcXhXlXzXmXxX7X/.3XnXMXVXCXbXyXOXOX0XxXnXiX,XE.l.l.oX&XZ.F.H.T.$X@X6XwX@Xm.C.w.b * = + + + + + + + + + + + + + + + + ",
"+ + + + + + + + + f #.0 + + + + - X.C.|.gXkXhXhXbXjXeX#X:.C .XkXkXnXCXMXkXxXnXCXMXxX8X&XOXY.F.6.I Q -.l.F.Y.F.E.%XY.F.u.).d + = + + + + + + + + + + + + + + + + ",
"+ + + + + + + + + 8 q o + + + - H (.g.E.wXaXaXuXpX6XE.:.R A |.pXpXjXnXMXbXnXCXZXMXrX>X@XG.b.g.R E Y B Q l.F.v.v.H.G.F.g.4X#.1 = + + + + + + + + + + + + + + + + ",
"+ + + + + + + + + + O o + + O r ]./.C g.W.q.>.A.E.7.{ R ~ A {.#X;X,XaXkXkXMXVXMXiX;X%XY.b.6.Q ~ / Y Y U Q l.b.1.g.F.3.S |.^.6 1 + + + + + + + + + + + + + + + + ",
"+ + + + + + + + + + + + + + + f 8.h % x n a < x V Z B ^ ! 1.I.G.oXOX:XiXjXjXiX8X>X#XE.F.6.` %.[ ~ U Y Y U A n s d n s 0 X.9.s G w + + + + + + + + + + + + + + + ",
"+ + + + + + + + + + + + + + + w q - O * o o O o # M Y ^ ! 6.7.:.n...OX,X,X,X;X$X$XE.U.g.S r.a.' U U Y T Y p $ o * % o X a | 9 a w + + + + + + + + + + + + + + + ",
"+ + + + + + + + + + + + + + + + o + + o * - + +   j ^ _ $.-.-.Q >.| OX>X&XoXY.U.U.F.b.1.$.x.y.~ Y Y Y T c - + o + + - D u - + * + + h + + + + + + + + + + + + + ",
"+ + + + + + + + + + + + + + + + + + O * , : O + + # S $.2.$._ ;./. .T.%XE.G.F.J.b.k.1.$.t.x.[ U Y Y ( B e O + + + o - h w O O + + + + + + + + + + + + + + + + + ",
"+ + + + + + + + + + + + + + + + + + + 0 s < + + o X p ,.,.v.-.4.>.1.U.U.H.2.:.g.1.A ` r.G.u.~ T Y ^ [ E x 8 o O + + + * o + + + + + + + + + + + + + + + + + + + ",
"+ + + + + + + + + + + + + + + + + + + i #.q + + + o 4 f._ 3.;./.C S 1.3.,.R B B B U %.h.B.>.Q ] Y ' ( c L H 8 o + + + o + o + + + + + + + + + + + + + + + + + + ",
"+ + + + + + + + + + + + + + + + o + + 0 D - O + + O ; P e.! V S R ' ! ! E ~ U Y Y ^ h.Y.B.4.{ ) ! %.U 6 r ~.X.% + + + o + + + + + + + + + + + + + + + + + + + + ",
"+ + + + + + + + + + + + + + + + + + + o * + + + + O . a u.R N R ^ %.=.*.&.( Y T U ) ,.q.XX<.] ~ $.-.V 3 8 F +.9 + + + + + + + + + + + + + + + + + + + + + + + + ",
"+ + + + + + + + + + + + + + + + + + + + + O + + + + + # P t.Z %.' 2.z.%.r.[ / ~ E <.4.8.Z.] ] ) t.Q @.L u % q + + + + + + + + + + + + + + + + + + + + + + + + + ",
"+ + + + + + + + + + + + + + + + + + + + + o + + + + + X 7 ` _ ` %.! 7.4.-.[ ~ ~ U z.w. XS.p./ _ h.(  .2X8.u O + + + + + + + + + + + + + + + + + + + + + + + + + ",
"+ + + + + + + + + + + + + + + + + + + + + + + + + + + + # -.` ` t._ :.5.-.' ( / W F.&X=Xs.r.~ e.%.B G 3X2Xx o + + + + + + + + + + + + + + + + + + + + + + + + + ",
"+ + + + + + + + + + + + + + + + + + + + + + + + + + + + # L r._ 2.e.-.3.<.*.[ T W P.-XE.a.] R i.) 2 * K ^.i + O + + + + + + + + + + + + + + + + + + + + + + + + ",
"+ + + + + + + + + + + + + + + + + + + + + + + + + + + + O : e.' 3.] } T.c.a.[ T W @X,XH.a.' R f.N   + * w 8 + + + + + + + + + + + + + + + + + + + + + + + + + + ",
"+ + + + + + + + + + + + + + + + + + + + + + + + + + + + O ; ,.e.} ] } K.K.a.[ / { *XoXz.=.~ 3.u.c   + + + + + + + + + + + + + + + + + + + + + + + + + + + + + + ",
"+ + + + + + + + + + + + + + + + + + + + + + + + + + + + + & l a.~ ] ` N.R.a.*.( { 9XXXa.] U m.Q ; O + + + + + + + + + + + + + + + + + + + + + + + + + + + + + + ",
"+ + + + + + + + + + + + + + + + + + + + + + + + + + + + + X : I ` s.` 0.E.d.=.( { 4XXXy./ U i.Z # + + + + + + + + + + + + + + + + + + + + + + + + + + + + + + + ",
"+ + + + + + + + + + + + + + + + + + + + + + + + + + + + + +   v d.S.` 3.&XS.r.' 3.6XOXy./ ,.s.N # O = O + + + + + + + + + + + + + + + + + + + + + + + + + + + + ",
"+ + + + + + + w + + + + + + + + + + + + + + + + + + + + + + X x i.S.] <.&XD.p.[ OX*XD.] Y } a.N # & + + + + + + + + + + + + + + + + + + + + + + + + + + + + + + ",
"+ + + + + + + + + + + + + + + + + + + + + + + + + + + + + + o # S c.d._ {.D.p.r.+X;Xd./ { } ( j # + + + + + + + + + + + + + + + + + + + h + + + + + + + + + + + ",
"+ + + + + + + + + + + + + + + + + + + + + + + + + + + + + + + # I c.j.! A.G.r.s.,X>Xi./ } c.Y @ + + + + + + + + + + + + + + + + + + + + + + + + + + + + + + + + ",
"+ + + + + + + + + + + + + + + + + + + + + + + + + + + + + + + # +.oXK.' C.I.:.,.:X%Xh./ _ i.U @ O + + + + + + + + + + + + + + + + + + + + + + + + + + + + + + + ",
"+ + + + + + + + + + + + + + + + + + + + + + + + + + O + + + o . H {.L.) V.w.9.@.{.E.d./ T [ M # + + + + + + + + + + + + + + + + + + + + + + + + + + + + + + + + ",
"+ + + + + + + + + + + + + + + + + + + + + + + + 8 % + + + + + O ; q.J.) M.}.>.;.OXW.u._ 2.' 2 X + + + + + + + + + + + + + + + + + + + + + + + + + + + + + + + + ",
"+ + + + + + + + + + + + + + + + + + + + + + + + 8 8 - O + + + O ; /.W.} t.%Xf.y.oXT.d.Q L.' 2 . + + + + + + + + + + + + + + + + + + + + + + + + + + + + + + + + ",
"+ + + + + + + + + + + + + + + + + + + + + + + + + % 3 = O + + O ; /.$Xz.s.oXc.y.OXT.t._ D._ 2 . + = * + + + + + + + + + + + + + + + + + + + + + + + + + + + + + ",
"+ + + + + + + + + + + + + + + + + + + + + + + + + o 3 > + + = O ; /.,Xz.s.#Xc.] XXS.*.W m.B ; O + 0 F 0 + + + + + + + + + + + + + + + + + + + + + + + + + + + + ",
"+ + + + + + h + + + + + + + + + + + + + + + + + + o 6 6 = + + O & D OXz.s.%Xc.] K.c.*.` c.c   + O - d = = + + + + + + + + + + + + + + + + + + + + + + + + + + + ",
"+ + + + + + + + + + + + + + + + + + o + + + + + + o $ 3 > + O + X 7 }.z.y.M.c.] D.c.a.D.S.c   O + + o + + + + + + + + + + + + + + + + + + + + + + + + + + + + + ",
"+ + + + + + + + + + + + + + + + + + O + + + + + + + & , 3 * * 1 X 7 |.z.} 4.,.] f.2.a.OXS.c   + + + + + + O + + + + + + + + + + + + + + + + + + + + + + + + + + ",
"+ + + + + + + + + + + + + + + + + + + + * + + + + + + % 7 1 d F $ 7 |.h.{ ~.Q ' S A j.#X>.; X + + + + + + = * + + + + + + + + + + + + + + + + + + + + + + + + + ",
"+ + + + + + + + + + + + + + + + + + o o > * + + + + + - G H r y & 7 |.h.e.>.u.{ ~.Q D.E.P # + + + + + + + & 1 + + + + + + + + + + + + + + + + + + + + + + + + + ",
"+ + + + + + + + + + + + + + + + + + + o - > & + o + + o q ^.g + X 5 R.S.z.OXz.I ~.Q L.T.A ; + O O + o + 1 5 = + + + + + w + + + + + + + + + + + + + + w + + + + ",
"+ + + + + + + + + + + + + + + + + + + + + 8 9 $ O + + + 8 J o.0 & 5 M.T.z.Z.x.Q 4.Q R.T.! e * 8 0 o + % G i * + + O + 0 H 0 + + + + + + + + + + + + + + + + + + ",
"+ + + + + + + + + + + + + + + + + + + + O + o : 8 + + O o y Q.f o $ G J.t.-.u.g.:.r.J.K.` k : d G o o t x 0 o + + + + - f 8 + + + + + + + + + + + + + + + + + + ",
"+ + + + + + + + + + + + + + + + + + + + + + O 8 , o o + O * K Q.- X x Y.<.N Q G.XXz.R.G.` s > 6 8 o t X.g * + + + + + + O + + + + + + + + + + + + + + + + + + + ",
"+ + + + + + + + + + + + + + + + + + + + + O o o , 3 * O o & D (.g # x Y.t.v S F.E.K.T.J.:.l > % o 9 X.D - O + + + + + + O + + + + + + + + + + + + + + + + + + + ",
"+ + + + + + + + + + + + + + + + Q.8 + + + O + + o < 5 f * + q 5.+.$ L $Xn...5.0.oX%XT.V.#.X.$ + + d d 8 + + o + + + + + + + + + + + + + + + + + + + + + + + + + ",
"+ + + + + + + + + + + + + + + + w + + + + + + O & & f o.g o * D ].O.8.=X}.4.~.w.%X=X#XI.| F o o g @.i O o + + + + * * + + + + + + + + + + + + + + + + + + + + + ",
"+ + + + + + + + + + + + + + + + + + + + + + O o g D & g #.g 1 < 9. X..&X*X8.9.9.|.rX-X8.X.> * f ^.K * = o + + o % < 8 + + + + + + + + + + + + + + + + + + + + + ",
"+ + + + + + + + + + + + + + + + + + + + + + + + y y O + g #.#.u D }.8.0.=X3.9.4.w.>XP.;.!.> * X.^.y + + O * % : 1 = + + + + + + + + + + + + + + + + + + + + + + ",
"+ + + + + + + + + + + + + + + + + + + + + + + + o o * - + i 9.~.-.E.]...G.$.8.1X;.D.2.;.X.9 F ].K & - % f p > = o + + + + + + + + + + + + + + + + + + + + + + + ",
"+ + + + + + + + + + + + + + + + + + + + + + + + + + * % > e P .X.X#X=X].>.Q >.3X..t.I /.n F  Xw.x u o.@.X.y o + + + + + + + + + + + + + + + + + + + + + + + + + ",
"+ + + + + + + + + + + + + + + + + + + + + + + + + + + o , | n.Z.6X2X@X-Xw....XtX/.S 8.OXV.].wXeX<X).).J y & + + + + + + + + + + + + + + + + + + + + + + + + + + ",
"+ + + + + + + + + + + + h + + + + + + + + + + + + O o + % z 3.G.E.=X=X@X-XtXwX-XlX'.{.wXwX=XwXtX].H y & = O + + + + + + + + + + + + + + + + + + + + + + + + + + ",
"+ + + + + + + + + + + + + + + + + + + + + + + + + o + o - e I l.1.B.@X|.E.,X@XP.iXpX8X9X#XT.E.B.n 6 $ * = O + + + + + + + + + + + + + + + + + + + + + + + + + + ",
"+ + + + + + + + + + + + + + + + + + + + + + + + + o 8 : : , p n a x  .Z.Y.E.E.U.E.OXXXZ.l.k.7.b > % % , , > O + + + + + + + + + + + + + + + + + + + + + + + + + ",
"+ + + + + + + + + + + + + + + + + + + + + + + + - , : - * 8 $ o o o 9 s  .6.6.6.k.6.G p s s p 9 * $ - - * * = + + + + + + + + + + + + + + + + + + + + + + + + + ",
"+ + + + + + + + + + + + + + + + + + + + + + + + + o + o + + + o + + o o 9 e e p m e > o o o , 9 , , > o + + + + + + + + + + + + + + + + + + + + + + w + + + + + "
};
