/* XPM */
static char *_db1e5f3f74b4d5ad6f32a5d387f532ey5fWMFkZ2vjHQcEE[] = {
/* columns rows colors chars-per-pixel */
"80 80 214 2 ",
"   c #0E040E",
".  c #0C080F",
"X  c #150407",
"o  c #12040D",
"O  c #1A060A",
"+  c #14090D",
"@  c #1C0C0D",
"#  c #1D100F",
"$  c #0E0315",
"%  c #0E021A",
"&  c #110314",
"*  c #150B14",
"=  c #10021A",
"-  c #13081C",
";  c #180D18",
":  c #1B1016",
">  c #1C1319",
",  c #210D09",
"<  c #28140B",
"1  c #301A0C",
"2  c #211315",
"3  c #2B1B11",
"4  c #271518",
"5  c #321E12",
"6  c #31191A",
"7  c #312217",
"8  c #3A2313",
"9  c #3B2818",
"0  c #0E0221",
"q  c #110421",
"w  c #160A21",
"e  c #1A0D24",
"r  c #1D0F28",
"t  c #1D1026",
"y  c #1E1229",
"u  c #221923",
"i  c #21142B",
"p  c #25192E",
"a  c #261B31",
"s  c #281D32",
"d  c #2D2522",
"f  c #38302A",
"g  c #2C2135",
"h  c #2E2339",
"j  c #312639",
"k  c #3F3230",
"l  c #422714",
"z  c #452E15",
"x  c #50361D",
"c  c #463929",
"v  c #543920",
"b  c #593E23",
"n  c #453B35",
"m  c #513F30",
"M  c #5C4527",
"N  c #4E4136",
"B  c #654B26",
"V  c #684B27",
"C  c #6B5429",
"Z  c #77562C",
"A  c #6A5737",
"S  c #766138",
"D  c #5F554A",
"F  c #675A46",
"G  c #715F4D",
"H  c #6A5E56",
"J  c #776245",
"K  c #6B6356",
"L  c #746855",
"P  c #84632B",
"I  c #846331",
"U  c #8A6C37",
"Y  c #9A7837",
"T  c #896D43",
"R  c #8B7042",
"E  c #977842",
"W  c #9C7E50",
"Q  c #84796A",
"!  c #A7823A",
"~  c #C6A03F",
"^  c #9C905E",
"/  c #B68E45",
"(  c #B69644",
")  c #BA9646",
"_  c #BC9847",
"`  c #BD9B4D",
"'  c #A98A50",
"]  c #B89858",
"[  c #968C72",
"{  c #958D7A",
"}  c #A39269",
"|  c #BBA56D",
" . c #ACA07D",
".. c #B8AA7B",
"X. c #C19647",
"o. c #C49C4B",
"O. c #CA9E4D",
"+. c #C69D52",
"@. c #CFA445",
"#. c #CCA54B",
"$. c #C9A54C",
"%. c #D1A549",
"&. c #D2A44E",
"*. c #C4A751",
"=. c #CBA453",
"-. c #CEAB54",
";. c #CAA55B",
":. c #C4AA5C",
">. c #CDAD5B",
",. c #D4A650",
"<. c #D3AD54",
"1. c #D9AC54",
"2. c #D1A759",
"3. c #D1AC5B",
"4. c #CEB158",
"5. c #DBB156",
"6. c #D6B358",
"7. c #D5B25A",
"8. c #DBB55B",
"9. c #DDBA5E",
"0. c #E0BC5F",
"q. c #C09E64",
"w. c #C5AC65",
"e. c #CDAE61",
"r. c #D9AF63",
"t. c #CCB168",
"y. c #D5B563",
"u. c #DAB563",
"i. c #D7B861",
"p. c #DCBB63",
"a. c #D6B76C",
"s. c #DCBD6A",
"d. c #C7AD75",
"f. c #D5BB72",
"g. c #DABD74",
"h. c #E2BD63",
"j. c #E1BE6B",
"k. c #DEC165",
"l. c #DEC26D",
"z. c #DEC375",
"x. c #DEC379",
"c. c #E3C364",
"v. c #E3C46C",
"b. c #E9C76D",
"n. c #E6C96B",
"m. c #E8CB6E",
"M. c #E3C673",
"N. c #E5CB75",
"B. c #EACC73",
"V. c #E2C67A",
"C. c #E5CD7B",
"Z. c #E9CD7B",
"A. c #ECD076",
"S. c #E7D17B",
"D. c #ECD27C",
"F. c #F1D57E",
"G. c #F0D87F",
"H. c #9E9783",
"J. c #A39A83",
"K. c #A99D86",
"L. c #ACA284",
"P. c #ABA389",
"I. c #CBB788",
"U. c #D3BB83",
"Y. c #C2B99A",
"T. c #DEC180",
"R. c #CEC597",
"E. c #D0C59D",
"W. c #DED190",
"Q. c #E4CB82",
"!. c #E8CA83",
"~. c #E6D384",
"^. c #EDD484",
"/. c #EFDA84",
"(. c #ECD38A",
"). c #EDDA8C",
"_. c #F0D582",
"`. c #F4DC85",
"'. c #F0D789",
"]. c #F4DD8A",
"[. c #F8DF8E",
"{. c #EDD695",
"}. c #EEDA94",
"|. c #E8D79A",
" X c #EED799",
".X c #F4DD93",
"XX c #F8DD90",
"oX c #F4DD9B",
"OX c #F6E086",
"+X c #F6E18B",
"@X c #F8E18D",
"#X c #EFE29B",
"$X c #F4E394",
"%X c #F8E394",
"&X c #F8E897",
"*X c #F5E39A",
"=X c #F9E49A",
"-X c #F5E898",
";X c #D5C9A2",
":X c #D9D2A8",
">X c #E9DCA9",
",X c #E8DEB3",
"<X c #EBE3A9",
"1X c #F5E5A2",
"2X c #F9E7A5",
"3X c #F5EAA5",
"4X c #F8E8A4",
"5X c #F5E5A9",
"6X c #F4EBAB",
"7X c #EAE4B5",
"8X c #F3E7B0",
"9X c #F3EBB2",
"0X c #F4ECBA",
"qX c #F7F0BC",
/* pixels */
"% % % % % % % % % % % % % % % % % % % % % % % % % % % % % % % % % % % % % % % % % % % % % % % % % % % % % % % % % % % % % % % % % % % % % % % % % % % % % % % % ",
"% % % % % % % % % % % % % % % % % % % % % % % % % % % % % % % % % % % % % % % % % % % % % % % % % % % % % % % % % % % % % % % % % % % % % % % % % % % % % % % % ",
"% % % % % % % % % % % % % % % % % % % % % % % % % % % % % % % % % % % % % % % % % % % % % % % % % % % % % % % % % % % % % % % % % % % % % % % % % % % % % 0 % % ",
"% % % % % % % % % % % % % % % % % % % % % % % % % % % % % % % % % % % % % % % % % % % % % % % % % % % % % % % % % % % % % % % % % % % % % % % % % % % % % % % % ",
"t - % % % % % % % % % % % % % % % % % % % % % % % % % % % % % % % % % % % % % % % % % % % % % % % % % % % % % % % % % % % % % % % % % % % % % % % % % % % % % % ",
"t y e - - % - % % % % % % % % % % % % % % % % % % % % % % % % % % % % % % % % % % % % % % % % % % % % % % % % % % % % % % % % % % % % % % % % % % % % % % % % % ",
"% w y y q - % % % % % % % % % % % % % % % % % % % % % % % % % % % % % % % % 0 % % % % % % % % % % % % % % % % % % % % % % 0 % % % % % % % % % % % % % % % % % % ",
"% % q y i w = % % % % % % % % % % % % % % % % % % % % % % % % % % % % % % % % % % % % % % % % % % % % % % % % % % % % % % % % % % % % % % % % % % % % % % % % % ",
"= = = - e i r = % % - % % = % = % % = % = % % % % = % % % = = = % % % % % = % = % % = % % = % % % % = % = % = % % % % - % % % % % % = % % = % = = % = % = % % % ",
"= = = = = - i i w % = = = = = % = = = = = = = = = = = = = = = = % % % % % = = = = = = = = = = = = = = = = = = % % % % % % - = = = = = = = = = = = = = = = = = = ",
"= = = = = = - r y r 0 % = % % % = = = = = = = = = = = = = = = = % % % % = = = = = = = = = = = = = = % = = = = = % % % % = = % = = = = % = = = % = = = % = = = = ",
"= = = = = = = = e y y w = = = = = = = = = = = = = = = = = = = = - % % % = = = = = = = = = % = = = = = = = = = = % % % % = = = = = = = = = = = = = = = = = = = = ",
"= = = = = = = = = - r r - = = = = = = = = $ = = = & % = = = = = % % = = % = = = = = = = = = = = = = = = = = = = = = = = = = % = = = = = = % = = = = = = = = = = ",
"= = = = = = = = = = = w i i = = = = = = = = % = = = = = = = & = % - = = = = = $ = = = % = = = = = = = = = % = = = = = = = = = = = = = = = = = = % = = = % = = = ",
"= = = = = = = = = = = = w i i - = = = = = = = = % = = = = & = = % = = = = = = = & = = = = = % = = = = = = = = = % = = = = = = = = = = = = = = = = % = = = = % % ",
"= = = = = = = = = = = = = - r i e - = = = = % = = = = = = = = = = = = = = = = = % = = = = = = = = = % = = = = = = = = % = = = = % = = = = = = = = = = = = = = - ",
"= = % % = % = = % % % % % % = e i r w % % = % = % % = % = % = = = = = = % = = = = % % - % % % % % = % = % % % = = = % = = = = = % % % % % % % % % % % % % % % % ",
"% % % % % % % = % % % % % = % % - r i e = = % = % - % = = = o = = % % % & $   % $ % % % % $ % $ = = = % % % % % % % % % % % % % % % % % % % % % % % % 0 % % % % ",
"% % % % % % % % % % % % % % % % % = w y r - % % % % % % = = O o = = % % & & o     $ $ % & $ $ $ - & & & % $ $ % % % % % % % % % % % % % % % % % % % % % % % % % ",
"% % % % % % % % % % % % % % % % % % % w r y - = % - % $ & & = = = - - & $ o & * @ : * + o   $ % % - $ . . $ $ $ % $ $ $ $ $ % % % % % % % % % % % % % % % % % % ",
"% % % % % % % % % % % % % % % % % - % % % e i e % % %   . $ % % = & X 2 f D Q { H.J.H.{ Q F f > $ * - . . % % . $     $ $ $ % % % % % % % % % % % % % % % % % % ",
"% % % % % % % % % % % % % % % % % - % % % % w y t - * $ $ $ - $ @ 7 G } E.,X7XqX0X0XqXqX7X<X:XK.K d ; - q 0 % % $ $   $ $ % % % % % % % % % % % % % % % % % % % ",
"% % % % % % % % % % % % % % % % % % % % % % % q t y ; % % . + 3 A ..|.3X1X1X3X3X3X6X6X3X1X3X6X6X<XP.L g % 0 w % - = % % % % % % % % % % % % % % % % % % % % % % ",
"% % % % % % % % % % % % % % % % % % % % % % % % % > t t * @ c ^ W.1X#X$X-X*X=X2X3X5X5X5X5X1X*X-X-X6XqXP.n * * - - - % % % % % % % % % % % % % % % % % % % % % % ",
"% % % % % % % % % % % % % % % % % % % % % % % % % $ * 2 7 A | ).$X$X#X+X#XoX*XoX{. X X XoXoX%X$X$X-X#X6XR.D @ $ $ % 0 0 % % % % % % % % % % % % % % % % % % % % ",
"% % % % % % % % % % % % % % % % % % % % % % % % % $ X < A w.^._./.+X+X+X/.C.z.f.a.e.>.;.e.g.Q..X$X*X*X}.3X:XK +   % 0 % % % % % % % % % % % % % % % % % % % % % ",
"% % % % % % % % % % % % % % % % % % % % % % % $ . . @ M ] z.N._./././.S.z.z.M.M.M.v.h.0.<.$._ :.x.$X.X-X-X6X:XF + $ % % $ % % % % % % % % % % % % % % % % % % % ",
"% % % % % % % % % % % % % % % % % % % % % $ - $ o @ v ' N.n.l.M.(./.S.S./.D.A.B.b.b.b.h.p.9.<.o.) a./.#X#X-X5XR.n $ % . . % % % % % % % % % % % % % % % % % % % ",
"% % % % % % % % % % % % % % % % % % % % % % $   X 9 R g.N.M.N.M.z.S./.`.F.G.D.A.A.m.m.h.0.0.8.5.$.( :.(.$X$X*X<XP.u $ $ * - % % % % % % % % % % % % % % % % % % ",
"% % % % % % % % % % % % % % % % % % % % 0 0 % X < V q.j.v.b.N.!.~.S.S.`.OX`.F.F.A.m.m.b.c.0.0.8.7.<.( :.(.*X*X#X7XK . - $ . % % % % % % % % % % % % % % % % % % ",
"% % % % % % % % % % % % % % % % $ $ % % 0 0 % X z E g.j.j.M.Z.'.].`.D.S._.`.`.F.F.A.A.n.n.c.c.0.8.6.-.( t.$X$X-X6XY.d $ $   % % % % % % % % % % % % % % % % % % ",
"% % % % % % % % % % % % % % % % $ $ % % 0 0 $ , V ` h.h.j.M.(.].@X+XOX/.C._.`.G.F.F.A.A.m.n.c.c.0.8.7.=._ x.-X$X*X,XK & $     % % % % % % % % % % % % % % % % % ",
"% % % % % % % % % % % % % % % % % = $ % % % o 8 U 3.0.u.s.Z..X%X.X].+X].].A.C./.`.^.D.B.B.m.n.c.c.0.9.5.$.:..X&X-X6XK.4 -   & % % % % % % % % % % % % % % % % % ",
"% % % % % % % % % % % % % % % % % % o $ % = X x Y 7.5.8.v.(.$X=X$X@X[.].].].D.C.D.`.G.F.D.B.m.n.c.c.9.8.4.` Q.*X*X5X;Xf $ $   % % % % % % % % % % % % % % % % % ",
"% % % % % % % % % % % % % % % % = =     $   @ B / 8.6.i.V.}.*X*X=X%XXX@X+X+X+X/.C.C.`._.F.A.B.n.n.c.c.9.8.*.f.oX*X1X>XF   & % % % % % % % % % % % % $ % % % % % ",
"% % % % % % % % % % % % % % % % = = %       3 Z o.1.<.i.Q..X=X=X=XXX%X@X+X+X].+X].S.C.^._.D.A.A.m.n.c.c.k.>.w.oX5X1X6XQ o $ % % % % % % % % % % % % % % % % % % ",
"% % % % % = % % % % % % % = % % = & % % $   1 Z +.1.1.y.Q.oX*X1X&X%X%X@X+X+X+XOXOX`.G.N.D.^.G.D.A.m.b.b.h.8.:.|.*X3X8X[ + & % % % = % = = % = % % % % = % = % = ",
"% % = = = = = = % % = = = = = & = & = % % X 5 P +.1.6.y.!.{..X1X=X&X=X%X@X@X+XOX`.OX`._.C.N.Z.G.F.B.b.m.c.p.w.{.5X3X8X .: $ % = = % = = = = = = % % = = = = = = ",
"= = = = = = = = = = = % = % = = $ $ % % $ X 8 I O.1.,.p.!.!.'.oX%X%X=X=X%X@X@X+X`.OXOXOX'.D.N.N.G.B.B.B.m.v.t.{.2X3X9XP.: $ % = = = = % = = = % % % = = = = % = ",
"= = = = % = = = = = = = = = = % % % $ $ % o 8 I o.,.#.9.g.Q.(.XX%X%X=X=X%X%X%X@X+XOXOXOX+XOXG.N.M.D.F.B.N.M.t.{.2X3X9XJ.: $ % = & = = = = = = = % % = % = = = = ",
"= % = = = = = = = = % = = = = = % % $ % $ o 5 Z X.,.,.7.z.V.!.(.].[.=X=X=X=X%X%X@X+XOXOXOXOX`._.Z.N.Z.Z.Z.V.f.|.3X3X0X{ ;   % = = % = = = = = = = = = % = = = = ",
"= = % = = = = = = = = = = = = % % % $ $ $ o 1 Z / ,.%.1.g.g.M.!._._..X=X=X=X=X%X%X+XOX+X+XOXOX`.`.^.M.N.^.Q.f.oX=X6X0XQ & $ & % = = = = = = = = = = = = = = = = ",
"= = = = = = = % = = = = = = % = % % $   $ = , V Y ,.@.,.j.a.s.N.Z.^.}..XoX=X=X=X%X@X+X+X+X+XOXOX`.`.G.N.M.V.T.1X*X3X7XH $ o $ = & = = = = % = = = = = = = % = = ",
"= = = = = = = = = = = = = = = % % % o $ $ = O v Y #.%.#.u.u.i.j.b.N.^.}..X=X=X=X%X%X%X@X@X@X+X+X[.`.`.`.C.f.Q.oX*X5XE.k & = & % % = = = = = = = = = = & = = % = ",
"% % % % % % = % = = = = = = = = = = o & % = & l P X.@.#.>.s.<.u.l.l.S.~.).$X*X=X=X%X%X%XXX@X+X+X`.`.`.`.D.x.Q.(.}.#X .4 = - $ % = % $ = = % = = = = = = = = = = ",
"% % % % % % % = = = = = = = = = = = = $ % q & < C ! @.#.*.y.7.>.9.k.l.S./.)..X%X=X=X=X=X$X%X+X+XOX].].`.C.^..X~.~.|.L ; q % $ % = % = % = = = = % = = = = = = = ",
"% % % % % % % % = q = = = = = = = = & % = q = , x I X.#.$.4.s.;.>.9.k.z.C.^.'.[.=X=X=X=X=X@X@X+X+X].+X^.S.`.+X/.)...c t - $ $ % % = = = $ = = = = % = = = = = = ",
"% % % % % % % = = = = = = = = = = = & % % q = O 1 C ! $.#.#.7.s.;.>.9.s.M.B._.].XX%X=X=X%X%X@X@X+X]./.D./._././.|.L * > u - % = = = $ = = = = = = = = = % = = = ",
"% % % % % % % % % = = = = = % q = = = $ $ % $ . + z P ( %.%.1.0.a.*.3.u.j.V.Z._.]..X%X$X%X%X%X%X@X/.S.S.D.D._.}.L.d . . - y t - = = = & = = = = = = = = = = = = ",
"% % % % % % % % = = = = = % = % = = &   $ % % % $ 2 M Y ! ~ ~ ,.u.p.>.3.u.j.M.C.(.)..X-X=X=X=X.X(.A.N.N.B.A./.I.N   . .   - y t w = = = = = = = = = = = % = = = ",
"% % % % % % % = = = = = = = = = % % %   $ $ $ % % - 6 B ! ~ @.@.#.3.a.u.u.y.s.V.C.(.}.-X-X*X X(.C.v.n.m.M.Z.U.J * . . $ $ & = w i r = = % = = = = $ = = = = = = ",
"% % % % % % % % = % = = = = = = % % % $ $ $ $ % % = & 5 C Y @.@.#.#.-.8.j.s.f.l.g.V.Q.~.~.~.!.g.s.c.v.M.Q.U.J 2 $ $ . $ = = & & - i i - % = = = = = % = = = = = ",
"% % % % % % % = = = = = q = = % % % % % % $ $ $ % % . + 3 V Y _ #.$.#.#.&.7.8.p.j.M.s.M.s.s.a.a.p.c.s.T.d.F #   $ $ $ % $ & & = = - r i e = - = % = = = = = = = ",
"% % % % % % % % = = = = % = = % $ $ % % % % & & $ $ . $ - 3 b U / O.#.#.%.&.#.,.,.<.<.<.1.1.8.h.p.p.a.^ m ; &   * - = & & $ = = = = = e i r - = = = = = = = = = ",
"% % % % % % % % = % = = = = = = % % % % = = & = % $   % = = @ 9 V E ] +.O.O.,.,.&.1.1.1.1.1.5.u.e.] S 7 o % % $ & - = = & $ = = = = = = w i i w = = = = % = % $ ",
"% % % = % % = = = = % = = = = = = = = & = % % % = = $ % % % = o , 5 V U ' ] +.=.=.;.2.2.r.e.] W A 9 @ & & - % = % % = % % = = = = = = = = = e i e - = = = = = = ",
"= = = = = = = = = = = = = = = % = = = = = = = = $ = $ % 0 % % $ O O , 1 z M C S U R R T G M 9 3 @ & = - q = = = % = % = = = = = = % = = = % = - i i - = % % - % ",
"= = % = % = = = = = = = = = = = = = % = = = = = = % % % % % % - = = = % o o o O @ @ @ @ &     $ = = - q q = % = = % = = = = = = = = & % = = = = = r i e = % % % ",
"= = = = = = = = = = = = = = = = = = = % = = = = % = % % % % $ % q q q % % % % % $ % = = % $ $ . o $ $ % q = % = = = = = = = = = = % = = = = % = = = w i r - % % ",
"= = = = = = = % = = % = = = = = = = = = = = % = % = 0 0 $ . $ $ = = % % % $   $ & $ = & o     $ $ % $ $ o = % = = = = = = = = % = = = = = = = = = = = = r i w - ",
"= % = = = = = = = = = = = = = = = = = = = = = = = = q % = $ $   $ $ & o $ o o & o & o & o O o & = % % % % % % = % & = = = = = = = = % $ % % = % = = = = % t y e ",
"= = = = = = = = = = = = % = = = = = = = = = = = = % % = % % $ & o $ & = = = = = = = = = = & = & & & % % 0 % = = = = = = = = = % = = = = = = = = = = = = % - e y ",
"= = = = = = = % = = % = = = = = = = % = = = = = = % % = % = = = % % % % = % = = % % % = = = = & = = % % = = = = = = = = = = % = = = = = = = & = = = = = $ % % 0 ",
"% % % % % % % % % % % % % % % % % % % % % % % % % % % % = % = = % = % % $ % $ % % $ $ & = = % % % % % = & $ % % % % % % % = % = % = % % $ % = % % = % = % - % % ",
"% % % % % % % % % % % % % % % % % % % % % % % % % % % % % % % % % % % % % % % % $ % % % % % % % % % % % % % % % % % % % % % 0 % % % % % % % % % % % . % % % . % ",
"% % % % % % % % % % % % % % % % % % % % % 0 % % % % % % % % % % % % % % % % % % % % % % % % % % % % % % % % % % % % % % % % % % % % % % % % % % % % % % % % 0 % ",
"% % % % % % % % % % % % % % % % % % % % % % % % % % % % % % % % % % % % % % % % % % % % % % % % % % % % % % % % % % 0 w w w e w w w w 0 - 0 . % 0 0 w w - 0 % % ",
"% % % % % % % % % % % % % % % % % % % % % % % % % % % % % % % % % % % % % % % % % % % % % % % % % % % % % % % % % % e a i a p p p p p p a y % % w i p a p p e % ",
"% % % % % % % % % % % % % % % % % % % % % % % % % % % % % % % % % % % % % % % % % % % % % % % % % % % % % % % % % % y a w w w w w - w y p s y 0 y a w w y g y w ",
"% % % % % % % % % % % % % % % % % % % % % % % % % % % % % % % % % % % % % % % % % % % % % % % % % % % % % % % % % % y i % % . % % % % % 0 u a y y s % % 0 g s a ",
"% % % % % % % % % % % % % % % % % % % % % % % % % % % % % % % % % % % % % % % % % % % % % % % % % % % % % % % % % % p y % % % 0 w w w % % . p a y s % $ q g s s ",
"% % % % % % % % % % % % % % % % % % % % % % % % % % % % % % % % % % % % % % % % $ % % % % % % % % % % % % % % % % % p y % % - a s a a w % % y g s a % % - g h s ",
"% % % % % % % % % % % % % % % % % % % % % % % % % % % % % % % % % % % % % % % % % % % % % % % % % % % % % % % % % % i i % $ % g s w s p $ % w g g g $ % - g j s ",
"% % % % % % = % % = = % = % % = = % = % % % = % % % % % % % % % % % % = = % % % % = % % % = % % % % % % % % & % $ % i u $ $ - h a - p a % % w g p y $ $ - s j s ",
"% % % % = = = = = = = = = = = = = = = = = = = = % % % % % = % % = = = = = = = = = = = = = = = = % % % % = = = = $ % i p $ $ - g a - p p - $ w g g p $ $ ; s j p ",
"= % % % = = = = = = = = = % = = = = = = = = = = % % % % = = % - = = = = = = = = = = = = = = = = % % % % = = = $ - & i i $ $ - g s 0 y p - . - g p y - $ ; g j s ",
"= = = = = = % = % = = = = = = = = = = = = = = = = = % = = = = = = = % = = = = = = = = = = = = = % % = % = = = % % % i i $ $ - g s - p p % . - h p p & $ - g j s ",
"= = = = = % = = = = = % = = = = % = = = = = = % = = = = = = = = = = = = = = = % = = = = % = = = % % = = = = = = $ % u p $ $ - g s - p a % % w h g p & % - g j s ",
"= = = = = = = = = = = = = = % = = % = = = = % = = = = = = = = = = = = = = = = = = = % = = = = = = = = = = = = % & & i i $ $ - g g y s u % . e h p p . $ - g j s ",
"= % = = = = = = = = = = = = = = = = = = = = = = = = = = = = = % = = = % = = = = = = = = = = = = = = = = = = = % % % i p $ $ - a s p p w % % y h p p & $ ; s j p "
};
