/* XPM */
static char *_53630a919fa4faeef53a97b40a01ea5x28BepusHHWXDOgs[] = {
/* columns rows colors chars-per-pixel */
"80 80 242 2 ",
"   c #2B2C3B",
".  c #2B2B3D",
"X  c #302E3C",
"o  c #353737",
"O  c #3C3B37",
"+  c #35353C",
"@  c #363A3E",
"#  c #3D3D3D",
"$  c #403B3B",
"%  c #1D2B4F",
"&  c #1A2457",
"*  c #262946",
"=  c #302F40",
"-  c #2D3747",
";  c #2E3A4C",
":  c #343A43",
">  c #353B47",
",  c #393B41",
"<  c #333C4A",
"1  c #232B52",
"2  c #273853",
"3  c #2B3B53",
"4  c #243A5C",
"5  c #2B3C5A",
"6  c #313D53",
"7  c #313F58",
"8  c #172764",
"9  c #1A326F",
"0  c #263B64",
"q  c #36404D",
"w  c #2D425A",
"e  c #344255",
"r  c #33455C",
"t  c #38465A",
"y  c #2C4365",
"u  c #2F4865",
"i  c #2B446B",
"p  c #2D4A6B",
"a  c #364964",
"s  c #344D6C",
"d  c #394D6B",
"f  c #3C536D",
"g  c #2A4A77",
"h  c #344E73",
"j  c #2F5279",
"k  c #2E527B",
"l  c #345174",
"z  c #3B5473",
"x  c #38597C",
"c  c #44566C",
"v  c #435A77",
"b  c #505E7B",
"n  c #49637F",
"m  c #19388D",
"M  c #1B3D9C",
"N  c #2C5085",
"B  c #365986",
"V  c #3A628A",
"C  c #386798",
"Z  c #1E45A3",
"A  c #2251AC",
"S  c #2658BA",
"D  c #3768A7",
"F  c #3D73A6",
"G  c #2C62BA",
"H  c #356BB9",
"J  c #3874B9",
"K  c #425D83",
"L  c #486588",
"P  c #536D87",
"I  c #56728E",
"U  c #486D96",
"Y  c #4A7398",
"T  c #557597",
"R  c #697F9C",
"E  c #4777AA",
"W  c #557DA7",
"Q  c #457CB7",
"!  c #547FBD",
"~  c #2355C5",
"^  c #265AC5",
"/  c #275BC9",
"(  c #265BCB",
")  c #275DD1",
"_  c #2C65C5",
"`  c #2B63CC",
"'  c #316ACC",
"]  c #3875C6",
"[  c #2A63D3",
"{  c #2C66D7",
"}  c #2E6BDA",
"|  c #316DD8",
" . c #3979D7",
".. c #3373DD",
"X. c #3476E3",
"o. c #3679E3",
"O. c #397EE5",
"+. c #427CC5",
"@. c #437FD6",
"#. c #6C829D",
"$. c #4D87AE",
"%. c #5B83A6",
"&. c #4683B9",
"*. c #5789B7",
"=. c #6286A6",
"-. c #6484AB",
";. c #668DAD",
":. c #6988A9",
">. c #6494B9",
",. c #799AB7",
"<. c #7BA2B9",
"1. c #3E83D9",
"2. c #3C83E7",
"3. c #3F8BED",
"4. c #4788C7",
"5. c #528BC5",
"6. c #4D94CB",
"7. c #5799CD",
"8. c #4888D5",
"9. c #4E97D6",
"0. c #549BD8",
"q. c #6899C4",
"w. c #769BC5",
"e. c #5FA2CF",
"r. c #59A3DC",
"t. c #76A6CB",
"y. c #73ACCF",
"u. c #66A8DA",
"i. c #74AFDC",
"p. c #77B5DA",
"a. c #438BE7",
"s. c #4A94E9",
"d. c #539EE8",
"f. c #4A98F1",
"g. c #5BABE4",
"h. c #57A4E9",
"j. c #5BACEC",
"k. c #5EB2ED",
"l. c #53A3F1",
"z. c #57ADF1",
"x. c #5BADF2",
"c. c #5CB3F3",
"v. c #5FB8F4",
"b. c #65A9E4",
"n. c #62AEEB",
"m. c #74AEE4",
"M. c #7BAEE5",
"N. c #6CB2E4",
"B. c #64B2EC",
"V. c #6AB6EB",
"C. c #65B9EE",
"Z. c #6CBAEE",
"A. c #75B4E4",
"S. c #78B9E7",
"D. c #61AFF3",
"F. c #62B3F3",
"G. c #6AB7F2",
"H. c #64BBF4",
"J. c #6BBDF3",
"K. c #62B4F8",
"L. c #64BCF8",
"P. c #73BDF3",
"I. c #6DC0EE",
"U. c #74C1EE",
"Y. c #7BC3ED",
"T. c #6DC1F4",
"R. c #6EC1F8",
"E. c #73C3F4",
"W. c #7BC4F3",
"Q. c #76C9F4",
"!. c #7CCAF4",
"~. c #77C9F8",
"^. c #879FBA",
"/. c #85A3BC",
"(. c #85A9C7",
"). c #89B3CD",
"_. c #97B6CA",
"`. c #88BAD9",
"'. c #9AB9D2",
"]. c #A8BED0",
"[. c #86B9E5",
"{. c #92BEE8",
"}. c #94C0D8",
"|. c #ABC3D3",
" X c #88C7EA",
".X c #97C7E7",
"XX c #94CBED",
"oX c #82C6F5",
"OX c #83CCF4",
"+X c #8BCDF4",
"@X c #86D1F5",
"#X c #8CD3F5",
"$X c #8AD5F8",
"%X c #8CD4F8",
"&X c #94D4F4",
"*X c #98D0F1",
"=X c #9BD5F4",
"-X c #94D9F6",
";X c #9CDAF5",
":X c #92D6F9",
">X c #97D9F9",
",X c #A6CDE5",
"<X c #B5CFE1",
"1X c #A7D5EA",
"2X c #A5D3EC",
"3X c #B8DAEB",
"4X c #A3D5F3",
"5X c #A5DCF5",
"6X c #ABDCF5",
"7X c #A4DDF9",
"8X c #B4DDF3",
"9X c #9EE2F8",
"0X c #B5E0EF",
"qX c #ABE1F5",
"wX c #A8E4F6",
"eX c #ADE1F9",
"rX c #B4E3F4",
"tX c #BCE4F5",
"yX c #B3E4F9",
"uX c #BDE7F8",
"iX c #BCE9F9",
"pX c #C1DFEB",
"aX c #CCE4ED",
"sX c #C2E5F4",
"dX c #C7E6F6",
"fX c #C4EBF6",
"gX c #CCECF5",
"hX c #C4EBF9",
"jX c #CBECFA",
"kX c #D4EDF5",
"lX c #DAEEF6",
"zX c #D1EDF9",
"xX c #DCF2F6",
"cX c #D5F1F8",
"vX c #DCF2FA",
"bX c #E3F4F6",
"nX c #EBF6F6",
"mX c #E4F4FA",
"MX c #EBF7FA",
"NX c #ECF9FB",
"BX c #F4FAFA",
"VX c #F8FBFA",
/* pixels */
"# # # # # # # # # # # # # # # # # # # # # # # # # # # # # # # # # # # # # # # # # # # # # # # # # # # # # # # # # , # # # # # # # # # # # # # # # # # # # # # # ",
"# # # # # # # # # # # # # # # # $ $ $ # # # # # # # # # # # # # # # # # # # # # # # # # # # # # # # # # # # # # # # # # # # # # # # # # # # # # # # # # # # # # ",
"# # # # # # # # # # # # # # # # $ q # # # # # # # # # # # # # # # @ : : # @ # # # # # # # , # # # # O O # # # # # # # # # # # # # # # # # # # # # # # # # # # # ",
"$ # # # # # # # # # # # # # # # , $ # # # # # # # # # # # # # # # 4 k f @ O # # # # # # # O # @ - - : # # # # # # # # # # # # # # # # # # # # # # # # # # # # # ",
"q $ # # # # # # # $ t # # # # # # # # # # # # # # # # # # # # # # : v B - # # # $ # # # # O # c :.:.t , # # # # # # # # # # # # # # # # # # # # # # # # # # # # ",
"# $ # # # # # # # $ $ # # # # # # # # # # # O > f f > # # # # # # O > 2 - @ : @ , q e # + : > t I I e @ # # O # q a s e # # # # # # # # # # # # # # # $ # # # # ",
"# # # # # # # # # # # # # # # # # $ , # O O @ c /.<.c : - : - - - 7 n L L L L L B :.:.B L U n 3 - 2 @ # # # o z I |.(.n q # # # # # # # # # # # # # # $ # # # # ",
"# # # # # # # # # # # # # # # # # # # # @ O # > a p 0 z %.=.=.=.%.;.1XtX8XXXrXaX3X`.M.1XkXaX1X%.E C y 5 : @ p T ,.#.a q $ # # # # # # # # # # # # # t $ # # # # ",
"# # # # # # # # # # # # # # # # # # # # # O # y p R ).}.dXzXfX4X&X7XyXxX8XP.=XfXgX2X2X{.sXtX-XQ.T.U.7.4.V k H k ; ; O O , # # # # # # # # # # # # # # # # # # # ",
"# # # # # # # # # # # # # # # # # # @ # # - v ).`.1XtXjXmXbX8Xn.W.3XgXbXlX4XP.+X>X>XS.A.S.#XT.k. X9XQ.H.g.r.k.F k ; @ O # # # # # # # # # # # # # # # # # # # # ",
"# # # # # # # # # # # # # # # # # # > ; d R '.XXF.+XsXmXVXkX.Xi.A.[.2XcXMXvX6X X6XwX Xj.Z.F.Z. XuX;Xv.c.T.R.H.v.g.F k 2 @ # # # # # # # # # # # # # # # # # # # ",
"# # # # # # # # # # $ # # # # # > 5 T (.].bX=XG.%XsXvXBXnX.X X.XA.A.*XjXlXmXMXMXBXMX3XG.z.S.tXzXtXQ.I.!.>X$XQ.T.v.g.r.&.h , # # @ # O # # # # # # # # # # # # # ",
"# # # # # # # # # # # @ # # # q L ).1XNXMX4XF.OX6XjXkXBXxX5XA.g.j.!.>XrXhXjXjXyXeXjXmXsX8XhXvXhX;XE.B.qXXX#X&XQ.g.N.g.L.6.l , O O O # # # # # # # # # # # # # # ",
"# # # # # # # # # # # @ $ # f %.'.yXxXVXcX=XF.!.6XjXgXnXcXjXpX*XF.H.E.%XeX6X>X$X:X5XiXxXMXmXhX;X@XG.Y.fX XN.S.Z.Y.p.Q.T.L.6.l ; , # , # # # # # # # # # # # # # ",
"# # # # # # # # # # # # O s _.*X=XtXlXlXfXhXP.G.7XjXcXNXNXmXzXgX4XF.z.G.~.W.E.G.#X=X@X6XwX6X=X#XJ.W.sXmX6XB.0.m.n.OX:XE.v.R.9.F s # # # # # # # # # # # # # # # ",
"# # # # # # # # # # # # q I XXI.+X.XM.b.`.fXP.c.%XhXjXmXBXBXMXmXxXtX5XoXK.K.K.+XuX5XH.G.E.OXJ.G.W.sXnXlX7X@Xb.[. XN.@XOXR.v.R.L.&.f # # # # # # # # # # # # # # ",
"# # # # # # # # # # # o a |.XXx.m.m.[.A.sXkXP.c.Q.6XiXjXjXiXuXfXcXnXBXcXtXtXrXfXtX6X+XW.4XoX4XsXzXnXbXrX-XOXc.S.,XS.S.-XT.L.L.L.v.&.u : O @ # # # # # # # # # # ",
"# # # # # # # # # # # : R kXXXm.2XA.[.3XBXnX4XD.J.#X>XwX:X!.&X;XqXhXvXMXNXmXmXgX[.[.2XmXBXmXjXzXvXlXrX&X%XE.F.k.s.V.#X%XT.L.L.c.z.v.C q O @ # # # # # # # # # # ",
"# # # # # # # # # # # 3 _.gX[.XXN. XfXgXvXMXjXG.c.T.Q.J.H.W.Y.S.:X9XeXjXvXBXNXfXm.N..XmXvX8X>X;X7X7X:X$X!.H.v.v.+X;X-X!.T.v.c.z.v.T.e.k q O O O @ # # # # # # # ",
"# # # # # # # # # @ : 5 (.jX[.r.Y.#X&XrXgXkXvX8XB.c.c.c.+XXXu.P.C.~.@X>XyXjXzXhX4X[.sXzX6X!.Q.~.J.@X!.F.T.J.G.XXsX8X$XE.v.v.z.z.T.Q.!.0.k - @ O # # # # # # # # ",
"# # # # # # # # # t L N p.fX6XP.P.Z.W.>XyXjXbXbX6X[.[.*X2Xm.b.;XoX+XOXE.@XwXyXrXtXhXjX6X!.c.&X6XP.x.F.oX6XfXrXeXeX>XOXT.v.z.z.R.T.H.Q.T.&.V f @ # # # # # # # # ",
"# # # # # # # # , 0 v l u.eXhX6X=X=X-X%X;XjXNXVXmXzXzX7X{..Xi.dXzXkXiXY.k.Q.$X%X:X7X5X@XH.j.4XgXyX=X4XgXvXjX7X&X:X:X!.T.v.c.R.$XQ.L.R.g.N x p @ O # # # # # # # ",
"# # # # # # # # O : @ @ f y.wXgXmXzX&X@X7XjXmXVXVXVXzX[.3Xm.2XMXBXNXkXrXU.F.R.!.@X$XT.V.G.+XdXlXBXBXBXNXvXdX>X:X:X$XT.L.L.W.>X>X@XT.H.0.u @ @ # # # # # # # # # ",
"# # # # # # # # # @ # # @ f y.yXcXMX;X~.>XiXzXmXMXMXdX[.S.S.tXcXBXVXnXjXtXE.c.c.x.c.Z.wXfXgXaX3XbXbXnXvXjXyX>X:X:X~.H.L.T.&XwX>XQ.H.C.&.w @ # # @ # # # # # # # ",
"# # # # # # # # # # $ # O e $.eXjXbX=XH.@XwXhXjXjXjXjXrXXX0XgXjXzXMXNXvXjXtX*X4X8X8XsXlXlXhX.X{..XgXhXhXrX>X:X:X~.R.L.L.T.wX>XQ.L.L.H.$.w @ # # # # # # # # # # ",
"# # $ t # # # # # # # q o k e.-XuXkX4Xc.Q.:XyXhXjXjXjXjXfXsXuXhXjXjXvXmXjXzXmXBXVXVXMXvXzXsXm..X[.rXwX;X%X@X@X!.L.R.L.L.L.;XQ.H.L.T.Q.g.a @ # # # # # # # # # # ",
"# $ $ # # # # # O e P r : N k.Q.>XhXzXG.T.:X>XeXuXjXuXyX5X-X&X5XyXhXjXlXzXjXmXMXMXvXgXjXjXtXS..X{.V. XE.F.T.H.H.v.T.v.z.G.E.H.H.L.Q.I.6.x @ # # # # # # # # # # ",
"# # # # # # # # q #.%.q @ k 6.6.OX7XdXP.H.OX-X>X>X6X=XoXU.#X!.Q.@X6XjXjXjXjXjXjXiXrXiXjXiX;XU.b.S.A.Q.E.Z.c.F.C.v.z.z.z.E.7.6.F.I.I.$.k $.P @ # # # # # # # # # ",
"# # # # # # # # r ,.d O # w p k u.7XfX4Xc.J.!.!.!.:X#XN.m.Y.5X XH.%XwXfXjXjXhXeX;X#X&X;X&X!.J.u.N.*XfXaXtXP.F.c.z.I.v.T.g.x p C e.$.w @ P ).P # # # # # # # # # ",
"# # # # # # # # # r q @ # # q x g.:XwXuXP.c.v.F.v.W.#XY. XgXlX6XF.!.-XeXjXhXeX>X#XZ.c.Q.H.E.qXXXS.rXtXfXgXfXrX=XQ.I.H.k.&.r @ ; y a @ @ q c # $ # # # # # # # # ",
"# $ # # # # # # # # O # # @ w &.R.T.U.>X=XZ.Z.Y.z.H.U.OXrXlXBXBX4XJ.!.&X7XwX:X!.Y.OXV.z.j.+XqX#XQ.Q.#X>XwXwXwX@XT.r.J F p @ O # # # O # O O # # # # # # # # # # ",
"# # # # # # # # # # # # O : B g.T.6.V 7.7.C U y.J.j.G.4X.X2XlXBXzXZ.H.OX%X$XQ.T.%XtX>XQ.E.OXQ.r.J J b.Q.!.$X!.T.k.C q - 2 @ # # # # # # # O # # # # # # # # # # ",
"# # # # # # # # # # # @ O ; F E.g.k @ y y : 6 E p.2XqX.X,Xm.1XmXxXY.k.H.R.H.c.J.4X7X%X!.r.n.r.G ~ _ ] 0.L.T.L.v.g.k O > i v < # # # # # # # # # # # # # # # # # ",
"# # # # # # # # # # O # O ; C H.&.w # @ # : I T x p.1XM.rXu.OXfXbXrXU.z.z.c.Z.&X XG.Z.8.G ] H ~ } { S ] v.L.c.8.F w O # K ].K > # # # # # # # # # # # # # # # # ",
"# # # # # # # # # # # # # @ f V e O # # q #.<Xx : x  X Xu.B.Z.5XkXjXtX*X!.!.!.Z.d.J ] _ [ ( ^ X.o.( ~ _ ] 0.6.p < q r , x ,X%.- # # # # # # # # # # # # # # # # ",
"# # # # # # # # # # # # # # # t # @ # > #.3X`.l # r >. XY.+XJ.+XyXuX8X;X#XV.8.4._ A _ } [ { ^ 2.o.~ [ ^ 9 i p , > n /.t < W $.: # # # # # # # # # # # # # # # # ",
"# # # # # # # # # # # # # # # # O # @ s <X5XY < # @ 0 &.N.@X!.Z.E.$X>X:XT.0.G / ~ Q @.o.{ ) ..a...^ { Z * + @ # : L 1XT - x L @ # # # # # # # # # # # # c $ # # ",
"# # # # # # # # # # # # # # # # # # @ r U U a @ # o & Z ] g.Q.Y.U.$X:X!.J.9.G [ J }.>. .o./ d.s.` [ ~ 9 + O @ # O t Y s : : > O # # # # # # # # # # # # O $ # # ",
"# # # # # # # # # # # # # # # # $ # # # : = , O @ # - N J 9.b.b.S.OX!.H.k.J [ [ ! ,X5.a.O./ s.@.[ ..Z % @ @ $ # # # : @ O @ O # # # # # # # # # # # # # $ $ # # ",
"# # # # # # # # # # # # # # # # # # # # # # # # # # X 0 J 4.*.1Xb.k.L.v.9.S [ / _ 4.8.D. .| a.| | [ 8 = O # > < # # # # # # # # # # # # # # # # # # # # $ $ # # ",
"# # # # # # # # # # # # # # # # # # # # # # # # # # # * C 8.G *.9.k.k.9. .{ [ ~ )  .l.l.) 8.f.` o./ & o O , c L : # # # # # # # # # c $ $ $ # # # # # # # # # # ",
"# # # # # # # # # # # # # # # # # # # # # # # # # # O t W n._ ( H H H  .a.o.{ ~ } f.J.s.) 8.@.[ o.m * # O O t f @ # # # # # # # # # O $ # # # # # # # # # # # # ",
"# # # # # $ # # # # # # # # # # # # $ # $ $ # # # # : c T F  .` } [ ^ r.x.a.} ( 2.x.H.a.| @.` O._ 8 o : > # # # # # # # # # # # # # # # # # # # # # $ $ # c # # ",
"# # # # # t # # # # # # # # # # # # # # # < $ # # # # q - 1 +.| 2.O.` 8.J.f.o.~ a.E.l.2.a.a.~ o.M . # 2 r < # # # # # # < # # # # # # # # # # # # # $ O $ $ # # ",
"# # # # $ # # # # # # # # # # # # # # # # # # $ # # $ $ $ = B 8.8.f.} ' n.x.o.~ a.Q.d.X.a.a.( ..m . # - Y z $ # # # # # $ # # $ # # # # # # # # # # # # # # # # ",
"# # # # # # # # # # # # # # # # # # # # # # # # # # q $ # = 0 8.0.H.O./ g.G.o./ d.E.l.X.2.[ ..S % # # # t < , # # # # # $ # # # # # # # # # # # # # # # # # # # ",
"# # # # # # # # # # # # # # # # # # # # # # # # # # $ , $ , 0 b.8.n.a.[ @.n.O./ n.E.l.X.O./ ..S * # O # # # # # # # # # # # # # # # # # # # # # # # # # # # # # ",
"# # # # # # # # # # # # # # # # # # # # # # # # # $ , $ $ , X E 8.d.a.} _ h.O./ n.F.f.} } ~ [ Z * # # @ # # # # # # # # # # # # # # # # # # # # # # # # # # # # ",
"# # # # # # # # # # # # # # # # # # # # # # # # # # # # # #   B @.d.f.o./ h.O.^ D.D.3.X.( { ) 8   O # # # # # # # # # # # # # # # # # # # # # # # # # # # # # # ",
"# # # # # # # # # # # # # # # # # # # # # # # # # # # # # # o 0 Q 0.x...` j.2./ B.x.3.} ( ) ( & @ # # # # # # # # # # # # # # # # # # # # # # # # # # # # # # # ",
"# # # # # # # # # # # # # # # # # # # # # # # # # # # # # # $ * E @.h.X.` b.2.[ B.D.a.X.( ) ) & @ # # # # # # # # # # # # # # # # # # # # # # # $ c # # # # # # ",
"# # # # # # # # # # # # # # # # # # # # # @ # # # # # # # O # * E @.D.a.' j.f.' n.D.a.{ ( | ~ & O # # # # # # # # # # # # # # # # # # # # # # # $ # # # # # # # ",
"# # $ $ $ # # # $ $ $ c # # # # # # # # # b c q O o # # # O @ X B @.P.h.' V.x.' n.D.3.} ~ [ Z * # # # # # # , # # # # # # # # # # # # # # # # # $ $ # # # # # # ",
"# # $ $ # # # # $ $ $ # # # # # # # # # : #.}.c : # , # # # # O & e.W.h.' B.x.2.V.F.O.) ~ ) 9 = # # # # # # # # # # # # # # # # # # # # # # # # # $ # # # # # # ",
"# # # $ # # # # $ # # # # # # # # # # # @ a <.y.z : # O # # O @ 1 7.~.D.O.@.x.f.J.D.X.[ ^ ) 9 + # # # # # # # # # # # # # # # # # # # # # # # # # # # # # # # # ",
"# # # c # # # # # # # # # # # # # # # # # # r ,.).v @ O o # , # * E E.J.a. .J.l.J.x.X.^ ) A 8 + # # # # # # # # # # # # # # # # # # # # # # # # # $ # # # # # # ",
"# # # # # # # # # # # # # # # # # # # # # o > r >.).z : O @ : # + 0 V.W.s.] P.l.H.c...~ [ m . O # # O # # # # # # # # # # # # # # # # # # # # # # # # # # # # # ",
"# # # # # # # # # # # # # # # # # # # # # # # o r ;.U > O # # O + 0 G.R.a. .E.l.G.F.2.^ [ m . # O # # # @ # # # # # # # # # # # # # # # $ c # # # # # # # # # # ",
"# # # # # # # # # # # # # # # # # # # # # # # # : t E 0 # # # # = 0 J.~.d. .R.x.F.c.a.` ~ 9 . # O : < o O @ # # # # # # # # # # # # # # $ $ $ # # # # # # # $ # ",
"# # # # # # # # # # # # # # # # # # # # # # # # # : 3 3 ; O # # $ * W E.B.] E.R.l.L.s.[ A & # # > s I r O O # # # # # # # # # # # # # # $ $ # # # # # # # # $ $ ",
"# # # # # # # # # # # # # # # # q c t @ # # # # O q a < : # # # $ X k P.V.8.E.J.l.E.l.d.G * # < #._.P > # # # o # O O d L c @ O # # # # # # # # # # # # # # c $ ",
"# # # # # # # # # # # # # # # # v <X/.t # O @ # O < T t O # O O # = N E.Q.P.Q.J.l.T.l.c.H * > L |.I > # # # # O @ > f (.].R < # # # # # # # # # # # # # # # $ $ ",
"# # # # # # # # # # # # # # # # t t.1X>.p < # # O q q # < w > O , X B oXZ.u.E.E.G.!.G.J.Q * a -.P < # # # # # # t =.;.-.h < # # # # # # # # # # # # # # # # # # ",
"# # # # # # # # # # # # # # # # @ r L V B C < O O # # + 5 =.d O # X K +X7.t.0.%X$X&X%XS.h + l q.y O O O # @ @ 3 W y.v > @ # O # # # # # # # # # # # # # # # # # ",
"# # # $ # # # # # # # # # # # # # # # # c f @ @ # # # # e ;.k O # X d `.*.).6.=X#X;X9X`.1 @ p W 5 O # O , < 4 0 g s : $ # # $ # # # # # # # # # # # # # # # # # ",
"# # # # # # # # # # # # # # # # # # # # # # @ @ # # @ # # < w @ @ # * -.u.w.7. X;XwXwX}.1 3 C g : # # # ; 2 > # # @ : # # # # # # # # # , $ # # # # # # # # # # ",
"# # c $ # # # # # # # # # # # # # # # # # # # # @ @ @ # @ @ @ O # # . -. X>.t.y.wXwXwXp.g U Y e # # # < 2 : O # # # # # # # # # # # # $ # # # # # # # # # # # # ",
"# # $ $ # # # # # # # # # # # # # # # # # # # # < k t # @ w x : @ # . W #X`.y. X9X-X-XI.E T < # o : # : @ # # # # # O # # O @ O # # # # # # # # # # # # # # # # ",
"# # # # # # # # # # # # # # # # # # # # # # # # q L l @ O u %.n : # * E ~.&X>XOXY.u.OX*.N ; # > 3 < - # # # # # # # # ; 3 3 ; # # # $ # # # # # # # # # # $ t # ",
"# # # # # # # # # # # # # # # # # # # # # # # # o - q : O @ p k ; , i &.c. X%XF.g.&.I.J % @ @ 4 : e T r # # # @ > y s Y >.^./.c q # # $ # # # # # # # # # $ $ # ",
"# # # # # # # # # # # # # # # # # # # # # # # # O O O # @ w l < # f T D 1.H.~.l.1.&.C.] & @ 4 4 @ < z q # # : 4 g $.w.Y B L L t O O < $ # # # # $ # # # # # # # ",
"# # # # # # # # # # # # # # # # # # # # # # # # O @ q @ O a %.x : < w 4 A d.J.l.] 1.z._ & L k - v z @ O - 5 2 4 4 a y < o + # # O O # # # # # # # # # # # # # # ",
"# # # # # # # # # # # # # # # # # # # # # # # O ; w w 2 ; @ a B - # @ 5 ;.8.F.1.A Q l.[ U |.I - v f , O ; ; , # O @ # # # # # # # # # # # # # # # # # # # # # # ",
"# # # # # # # # # # # # # # # # # # # # # # # # ; Y l 2 0 p q ; > z a s '.Q a.' D H  .*.3X/.r # O @ O # O : > , # # # # # # # # # # # # # # # # # # # # # # # # ",
"# # # # # # # # # # # # $ $ c # # # # # # , # # # w w > w T P 3 B `.].t.1XQ o.H '.Q Q ,X,XL @ @ - - - 5 q ; 2 < # # # # # # # # # # # # # # # # # # # # # # # # ",
"# # # # # # # # # # # # $ $ O # # # # # # # # # # # o # : r T ;.e.OXsX0X XJ ' w.pXS.S.wXA.B w v ,.,.W g 9 4 @ # # # # # # # # # # # # # # # # # # # # # # # # # ",
"# # c $ $ $ # # # # # # # # # # # # # # # # # # o # O < w - t $.E.Q.%X;XQ.0.q.aX8X#X;X#XQ.}.}._. Xu.U < : : O # # # # # # # # # # # # # # # # # # # # # # # # # ",
"# # # # $ $ # # # # # # # # # # # # # # # # # # # # - < 5 4 3 0 F r.H.T.Q.C. XuX#X X@XU.E.OX).L g 0 3 > - # # # # # # # # # # # # # # # # # # # # # # # # # # # ",
"# # # # $ # # # # # # # # # # # # # # # # # # : 3 4 3 2 5 3 5 < ; p F 9.C.J.@X-XT.e.&.E &.&.f > # + 3 5 5 : # # # # # # # # # # # # # # # # q # # # # # # # # # ",
"# # # # # # # # # # # # # # # # # # # # # # # # 3 ; , # # # # $ # @ 3 g C C C e.E k 2 - 3 4 4 y 0 4 > # # # # # # # # # # # # # # # # # # # $ $ # # # # # # # # "
};
