/* XPM */
static char *_2fffdb1d61f4a1bc5b22af5cc0495a0x0jwYATNCzGIgE52[] = {
/* columns rows colors chars-per-pixel */
"80 80 207 2 ",
"   c #0D040D",
".  c #130407",
"X  c #1D0B06",
"o  c #12040D",
"O  c #19050D",
"+  c #130A0C",
"@  c #1C0B0B",
"#  c #1D100C",
"$  c #0D0215",
"%  c #0E021A",
"&  c #110314",
"*  c #170A13",
"=  c #1B0D12",
"-  c #10021A",
";  c #15091D",
":  c #190D1E",
">  c #1E161D",
",  c #210C06",
"<  c #271309",
"1  c #2E1B0D",
"2  c #321D0D",
"3  c #210D10",
"4  c #261916",
"5  c #351B14",
"6  c #36230E",
"7  c #3A2611",
"8  c #3D2A13",
"9  c #382C1F",
"0  c #0E0220",
"q  c #100120",
"w  c #160B21",
"e  c #1A0D24",
"r  c #1C1126",
"t  c #1E1329",
"y  c #21152B",
"u  c #24192E",
"i  c #261B31",
"p  c #291E32",
"a  c #2E2728",
"s  c #342A23",
"d  c #2C2135",
"f  c #2E2339",
"g  c #31263A",
"h  c #33283C",
"j  c #452C15",
"k  c #442B1B",
"l  c #4A3318",
"z  c #543A16",
"x  c #53381B",
"c  c #4C3827",
"v  c #583E23",
"b  c #473B31",
"n  c #5C4417",
"m  c #5C441B",
"M  c #63441B",
"N  c #654B1A",
"B  c #6B4D1A",
"V  c #73531B",
"C  c #79561B",
"Z  c #7D5A1D",
"A  c #4E473A",
"S  c #564A36",
"D  c #684A27",
"F  c #6C532D",
"G  c #725726",
"H  c #7C5C22",
"J  c #77572A",
"K  c #795931",
"L  c #372D42",
"P  c #574B41",
"I  c #6E5F47",
"U  c #635C4E",
"Y  c #776444",
"T  c #756958",
"R  c #835D1E",
"E  c #89611F",
"W  c #835B21",
"Q  c #8D6522",
"!  c #8D6925",
"~  c #8B632C",
"^  c #84692D",
"/  c #956C25",
"(  c #986B27",
")  c #926C2A",
"_  c #957427",
"`  c #9B7226",
"'  c #96732C",
"]  c #9C742C",
"[  c #9B792B",
"{  c #83653A",
"}  c #8F7434",
"|  c #A47B33",
" . c #AA7E35",
".. c #8C6F46",
"X. c #887A55",
"o. c #877A67",
"O. c #A98537",
"+. c #B18D3D",
"@. c #8E845E",
"#. c #998152",
"$. c #A08943",
"%. c #B68F44",
"&. c #BB9B4C",
"*. c #BFA456",
"=. c #89826E",
"-. c #908369",
";. c #8B8271",
":. c #9E917F",
">. c #B4A96F",
",. c #BEA978",
"<. c #C99E47",
"1. c #CAA34A",
"2. c #D3AC4D",
"3. c #C5A556",
"4. c #C9A553",
"5. c #C8A957",
"6. c #C6AB5D",
"7. c #CCAD5A",
"8. c #D4AD51",
"9. c #DAAF52",
"0. c #D2AE5B",
"q. c #DAB355",
"w. c #D4B25B",
"e. c #D8B458",
"r. c #DDBA5D",
"t. c #CCB366",
"y. c #D5B563",
"u. c #D8B765",
"i. c #DCBB63",
"p. c #D5B76B",
"a. c #DDBD6B",
"s. c #C2AC76",
"d. c #D7B974",
"f. c #D2BC7C",
"g. c #E0BF65",
"h. c #E0BE6A",
"j. c #DEC16B",
"k. c #D7C276",
"l. c #DEC575",
"z. c #DAC37B",
"x. c #DDC878",
"c. c #E5C46B",
"v. c #E4C36D",
"b. c #E3C573",
"n. c #E8C773",
"m. c #E5CA74",
"M. c #EACB76",
"N. c #E4C77D",
"B. c #E6CB7B",
"V. c #EACD7C",
"C. c #EBD677",
"Z. c #E2D47F",
"A. c #EBD17D",
"S. c #EFDA7F",
"D. c #988E85",
"F. c #A09589",
"G. c #A9A086",
"H. c #BFB180",
"J. c #B6B092",
"K. c #CBBA84",
"L. c #D0BE8B",
"P. c #C4B699",
"I. c #D6C387",
"U. c #DBC383",
"Y. c #D8C994",
"T. c #E4CC85",
"R. c #E9CC81",
"E. c #E4D183",
"W. c #EDD384",
"Q. c #EFD987",
"!. c #E5D38B",
"~. c #ECD58C",
"^. c #EDD98B",
"/. c #F0D583",
"(. c #F2DB86",
"). c #F0D68A",
"_. c #F2DB8D",
"`. c #EAD491",
"'. c #EDDC92",
"]. c #E4D69E",
"[. c #ECD99A",
"{. c #F3DD92",
"}. c #F4DE99",
"|. c #F4E387",
" X c #F5E28C",
".X c #EEE299",
"XX c #F5E294",
"oX c #F8E496",
"OX c #F6E49B",
"+X c #F9E59D",
"@X c #F5EA99",
"#X c #F6E99B",
"$X c #CFCAA0",
"%X c #D7CAA2",
"&X c #DDD7A7",
"*X c #E8D5A6",
"=X c #F2DEA9",
"-X c #E4D8B2",
";X c #EBE1A9",
":X c #F5E4A3",
">X c #FAE6A1",
",X c #F5EAA6",
"<X c #F6E5AB",
"1X c #F1E6AD",
"2X c #F7E8A9",
"3X c #F3E5B3",
"4X c #F4E8B1",
/* pixels */
"% % % % % % % % % % % % % % % % % % % % % % % % % % % % % % % % % % % % % % % % % % % % % % % % % % % % % % % % % % % % % % % % % % % % % % % % % % % % % % % % ",
"% % % % % % % % % % % % % % % % % % % % % % % % % % % % % % % % % % % % % % % % % % % % % % % % % % % % % % % % % % % % % % % % % % % % % % % % % % % % % % % % ",
"% % % % % % % % % % % % % % % % % % % % % % % % % % % % % % % % % % % % % % % 0 % % % % % % % % % % % % % % % % % % % % % % % % % % % % % % % % % % % % % % % % ",
"% % % % % % % % % % % % % % % % % % % % % % % % % % % % % % % % % % % % % % % % % % % % % % % % % % % % % % % % % % % % % 0 % % % % % % % % % % % % % % % % % % ",
"% % % % % % % % % % % % % % % % % % % % % % % % % % % % % % % % % % % % % % % % % % % % % % % % % % % % % % % % % % % % % % % % % % % % % % % % % % % % % % % % ",
"% % % % % % % % % % % % % % % % % % % % % % % % % % % % % % % % % % % % % % % % % % % % % % % % % % % % % % % % % % % % % % % % % % % % % % % % % % % % % % % % ",
"% % % % % % % % % 0 % % % % % % % % % % % % % % % % % % % % % % % % % % % % % % % % % % % % % % % % % % % % % % % % % % % % % % % % % % % % % % % % % % % % % % ",
"% % % % % % % % % % % % % % % % % % % $ $ % % % % % % % % % % % % % % % % % % % % % % $ % % % % % % % % % % % % % % % % % % % % % % $ % % % % % % % % % % % % % ",
"- % - % - % - % % % % % - % % - % % % - % - % - % - % % % - % % % % % % % % - % - % % - % % - % % - % % % - % % % % % - % - % % % - % % - % % % - % - % - % % - ",
"- - - - - - - % % % - - - - - - - - - - - - - - - - - - - - - - % % % % - - - - - - - - - - - - - - - - - - - - % % % % - - - - - - - - - - - - - - - - - - - % ",
"- - % - - - - - % % % - - - - - - - - - - - - - - - - - - - - - % % % % - - - % - - - - - - - % - - - - - - - - % % % % - - - - - - - - - - - - - - - % - - - - ",
"- - - - - - - - % % % - - - - - - - - - - - % - - - - - - - - - - % % % - - - - % - - - - - - & - - - - - - - - % % % % - - - - % - - - - - - - - - - - - - - - ",
"- - - - - - - - % - - - % - - - - - - - - - - - - - - - - - % - - - - - - - - - - - - - - - - - - - - - - - - - - - - - - - - - - - - - - - - - - - - - - - - - ",
"% - - - - - - - - - - - - - - - - - % - - - - - - - - % - - - - - - - - - - - - - - - - - - - - - - % - - - % - - - - % - - % - - % - - % - - - - % - - - % - - ",
"% - - - - % - - - - - - - % - - - - - - - - - % - - - - - - % % - - % - % - - - - - - % - - % - - - - - - - - % - - - - - - - - - - - - - - - - % - - - - - - - ",
"- - - - - - - - - - - - - - - - - - - % - - - - - - - - - - - % - - - - - - - - - - - - - - - - - - - - - - - - - - - - - - - - - - - - - - - - - - - - - - - - ",
"- - % % - - - - % % % % % - % % % - % % - - - - % % % % % % % % - - - % - - - % % - - & $ % % % - % - $ % - % - % - - - - % - - % % % % % - % % - - - % % % % % ",
"% % % % % % % % % % % % % % % % % % % % % % % % % % % % % % 0 % % % % % % - $ % - % $ $     % % % - - - - - - - - % % % % % % % % % % % % % % % % % % % % % % % ",
"% % % % $ % % % % % % % % % % % % % % % % % % % % % % % % % % % % $ & ; % $ $ & & & $   + $ $ % % % - - - - & $ $ % % $ % % % % % % % % % % % % % % % % % % % % ",
"% % % % % % % % % % % % % % % % % % % % % % % % % % % % % % % $     & & & O @ # # @ : > > $ + $ $ % % % % % % % % % % % % % % % % % % % % % % % % % % % % % % % ",
"% % % % % % % % % % % % % % % % % % % 0 % % % % % % % % % % % % $ + + < 8 m D F Y -.D.F.D.T P r o   % % % 0 % % % % % % % % % % % % % % % % % % % % % % % % % % ",
"% % % % % % % % % % % % % % % % % % % % % % % % % $ % % % % % % - @ j G ^ } #.s.].1X1X<X1X1X-XG.A + $ $ 0 0 % % % % % % % % % % % % % % % % % % % % % % % % % % ",
"% % % % % % % % % % % % % % % % % % % % % % % % % % % % % %     3 v ~ ) ' $.I.<X<X>X@X@XXX@X.X1X%XT * $ % 0 % % % - % % % % % % 0 % % % % % % % % % % % % % % % ",
"% % % % % % % % % % % % % % % % % % % % % % % % % % % % % % % @ x ~ ` ` O.z.2X2X2X<X:X:X@XXXXXXX=X*XT + % % % % - % % $ % % % % % % % % % % % % % % % % % % % 0 ",
"% % % % % % % % % % % % % % % % % % % % % % % % % % % % - - * k ^ ) ` | a.{.|.@X,X,X=X*X`.)._.XX{.:X%XP   $ % % % % % $ % % % % % % % % % % % % % % % % % % % % ",
"% % % % % % % % % % % % % % % % % % % % % % % % $ % % $ - & 5 K ) _ [ 3.^.{.|. X.X'.z.t.6.3.6.l._.XX<XJ.s     % % - % % % % % % % % % % % % % % % % % % % % % % ",
"% % % % % % % % % % % % % % % % % % % % % % % % % $ $ % - @ M / / ' O.E.XX'. XXXE.k.l.v.i.w.5.&.t.(.OX=X=.#   % % - % % % % % % % % % % % % % % % % % % % % % % ",
"% % % % % % % % % % % % % % % % % % % % % - - % & $ $ % - 7 W / ` [ 6.|. X XXX!.T.~.R.m.b.h.i.0.&.t.'..XY.A $ $ o - % % % % % % % % % % % % % % % % % % % % % % ",
"% % % % % % % % % % % % % % 0 % % % % % % % % % -   & - = m Q / _ O.m.|._. X^.~._.~.W.R.M.n.i.i.8.&.k.@X;X;.:   $ % % % % % % % % % % % % % % % % % % % % % % % ",
"% % % % % % % % % % % % % % % % % % 0 % 0 % $ $ - % & & 5 G ! ` ` &.S.(. X_.~.{.}._.)./.V.M.v.c.i.5.*.!.2XP.a     % % % % % % % % % % % % % % % % % % % % % % % ",
"% % % % % % % % % % % % % % % % % % % % % % $ $ % % - O j H ! _ [ w.(.(. X{.'.XXXX{._.)./.V.m.v.j.i.3.p.;X-XU     % % % % % % % % % % % % % % % % % % % % % % % ",
"% % % % % % % % % % % % % % 0 % % 0 % % % % $ $ % % - X z R E / O.m.(.).XX'.OXOX}.}.{._.)./.C.m.m.j.w.6.[.3X=.+   $ % % % % % % % % % % % % % % % % % % % % % % ",
"% % % % % % % % % % % % % % % % % % % % % % - o $ 0 % < N H E E +.C.Q.Q.XX.X@XOXXXXX}._._.).W.V.m.m.j.7.!.1XJ.> $ $ % $ % % % % % % % % % % % % % % % % % % % % ",
"% % % % % % % % % % % % % % % % % % % % % - - & & % % 1 B Z E ! &.A.Q.^.^.OX:X:X+X@XOX}.XX).).).R.M.m.p.I.1XY.a     $ % % % % % % % % % % % % % % % % % % % % % ",
"% % % % % % % % % % % % % % % % 0 % % % % q - O + % % 6 B Z E E 3.W.W.^.'.#X:X@X:X+X+XXX{._._.).W.E.m.x.k.1X&XA     % $ % % % % % $ % % % % % % % % % % % % % % ",
"% % % % % % % % % % % % % % % % % % % % - q q & o - + 7 B C E ! 7.V.A.Q.'.>X,X:XOX+X+X+XoXXXXX_.~.W.A.N.k.;X;XU   $ % % % % % % % % % % % % % % % % % % % % % % ",
"% % % % % % - % % % % % % - % % % % - % - - - - - & o j B C Z ! 0.C.V.^.'.#X:X:X+X+X+XoXOXXXXX}.'.^.W.T.U.[.3XT   $ $ - % % % % % - % - % - % % % % - % % - % - ",
"% % - - - - - - % % - - % - - & % % - - - - - - o o o 7 B V Z ! 0.M.M.).'.OX>X>X>X+X+X@XOXXXXXXX{._.W.~.U.[.3Xo.  $ % $ % % % % % - - - - - - - % % % - - - - % ",
"- - - - - - % - - - - - - - - - - - - - - - - - o o . 8 N V Z ! 0.M.m.W.!.}.XX>X>X+X+X+XOXOXXXOXXX}._._.U.`.4Xo.    $ - % - % % - - - - - - - - % - - - - - - - ",
"- - - - - - - - - - - - - - - - - - - - - - - - & o . 8 N V C Q 8.c.n.W.T.).{.OX+X+X>X>X>X>X+X+XOXXX_._.T.~.1Xo.  $ % - % - - - - - - - - - - - % % - - - - - - ",
"% - - - - - - - - - - - - - - - - - - - % % - - o   o 7 M V C E 4.c.b.V.N.W.~.{.}.+X+X+X+X>X+X>XOXXX_.{.T.`.1XT +   $ - % - - - - - - - - - - - - - - % - - - - ",
"- - % - - - - - - % - - - - - % - - - - % % - - & o o 6 N B V R 1.h.c.B.z.R.W.).}.}.+X+X+X+X>X+X:XoXoX_.T.~.].I + $ % - - - - - - - % - - - - - - - - - - % - - ",
"- - - - - - - - - - - - - - - - - - - - - - q q o $   1 n B C R %.g.i.m.b.b.V.W.).{.}.oX+X+X>X+X>X@XoX_.T.}.Y.S   $ - - % - - - - - - - - - - - - - - - - - - - ",
"- - - - - - - % - - - - % - & - % - - - % - q q % - o < n B V Z O.i.i.b.m.d.h.V./.(.{.oX+X+X+X>X>XXXoX{.~.}.I.s $ - - - - - - - - - - % - - - $ - - - - - - - % ",
"- - - - - - - - - % - - - - - - % - - - - % q q - & & , x B V C ) 0.i.h.b.u.c.b.M.W.(._.oX+X+X>X:X#X#X_..XXX,.4 - % - - - - - - - - - - - - % & - - - - - - - & ",
"- - - - - - - % - - - - - - - % - - - - - - % % $ - & @ l N V H Q 1.r.i.v.u.u.a.b.V.R.).{.oX+X+X+X@X:X`.^..X@.= & o & % - - - - - - - - - - - - - % - - - - - - ",
"- - - % - - - - - - - - - - - & - - - - - - & $ & - & O 7 M V C Z +.w.w.c.h.7.u.g.h.M.W.(.{.oXoX#X+X}.`.^.!.U   & & - $ & - - - - - - - - - - - - - - - - - - - ",
"- - - - - - - - - - - - - % - - - - - % - % & $ - - - O 1 m V Z Z ] 0.w.u.v.0.0.i.g.b.M.A.)._.oXoX}.~.).XX,.9 % & & & % - - % - - - % - - - - - % - - - - - - - ",
"% % % - - - - - - - - - - - - - % - - - - - & $ % % - * @ l V C W W <.0.0.i.h.5.w.i.i.b.M.W.).{.oX{.W./.[.o.@ $ % % - - - - - - - - - & % - - - - - - - - - - % ",
"- - - - - - - - - - - - - - - - - - - % % & $ $ % % - - . 2 M C W W | 1.9.e.g.w.4.w.u.h.m.V.W.).~.W.C./.K.b & & $ ; $ % & % - - - % - - - - % - - - - - - - % - ",
"- - - - - - - - - - - - - - - - & - - - - & & % % q - - o X z V W W / <.8.8.w.c.w.4.0.p.a.N.V.R.R.V.C.Z.X.@ o     % % % % - - - - - - - - - - - - - - % - - - - ",
"& - - % - - - - - - - - - % - - - - % - - $ % % % - - - & o 1 D J W W ] <.8.8.w.i.i.0.0.y.p.a.V.V.V.E.>.9 o $   $ % % % - - - % - - - - - - - - - - - - - - - - ",
"- - - - - - - - - - - - - - - - - - - - % & $ % % % % $ % $ O k J W Q Q  .<.8.8.w.r.i.j.h.v.v.n.V.R.f.S + % $ + % % % % % - - - - % - - - - - - - - - - - - - - ",
"y - - - - - - - % - - - - - - - - - - - - $ % % q % % $ % % - 3 z Z Q W (  .1.2.9.q.e.q.g.g.c.v.m.f.I * % % $ $ % % % % - - - - - - - - - - - - $ % - - - - - - ",
"y y w - - - - - - $ % - - - % - % - - - % - % % - % % - % % - O < z W ~ Q (  .<.9.9.q.q.r.i.j.z.,.I @ o % % $ ; % % % % - - % - - - - - - - - - - - - - % - r y ",
"- r y e - - - - - - % - - - - - - - - - - - - - - - - - - - - - O , k F ~ ) ( | %.4.0.w.y.d.s.#.c @ o o $ $ % % 0 0 - - - - - - - - - - % - - - - - - - - y y : ",
"- - w y y - - - - - - - - - - - - - - - - % - - - - - - - % % % & o . 1 l D D D F K { ....Y A < + o * & o & % - - q - - - - - - - - - - - - - - - - - e y t : - ",
"- - - ; r y e - % - - - - - - - - - - - & - - - - - - % - % % % $ o * & * O = 3 @ X X , X O     $ o o o & - % - 0 - % - - - - - - - - % % % - - - - r y r % % % ",
"- - - - - e u r - - - - $ - $ % % - - - - - % - - - - - - % q - % % % % $ $ % $ $       o $ % % $ $ o & - & - - - - - - - - % % - - - - - - - - e y y ; % % % % ",
"- - - - - - - e y ; - - - % - - - - % - - - - - - - - - - - - - % % % % $ $ $ $ $ $ $ $ $ $ $ % $ $ & $ & - $ - - - - - - - - - - - - - - - - e y r - - - % % % ",
"& - - - - - - - e y e - % - - - - - - - - - - - - - - - - - - - & - & $ $ $ % $ % $   &   $ & $ & $ $ & $ - - - - - - - - - - - - - - - - w y y w - - - $ % % % ",
"- - - - - - % - - w y y - - - - - $ - - - - - - % - - - % - - - - - - % $     $ $ - & & & & o o & & % - - - - - - - - - - % % - - - - - w y e ; - - - - ; % % % ",
"- - - - - - - - - - - e y e - - - - % - - - - - & - - - - - - - - - % % % % $ % - - - - - - & & & & - - & - - - - - % - - - - - - - - r y e - - - - - - % % % % ",
"% - - - - - - - - - - - ; y y - % - - % % $ % % % % % % % % % % % - 0 % % 0 0 % - % - % % % % - % % % $ % % % - % % - % % % - - - w y y - - - - - - - - % % % % ",
"% % % % $ % % % % % % 0 0 ; t t w ; % % ; % % % % % % % % % 0 % % % % % % 0 % % % % % % % % % % % % % $ % $ % % 0 % % % % % % ; r t e % % % % % % % % % % % % % ",
"% % % % % $ % % % % % % % % % r u e ; % % % % % % % % % % % % % % % % % % % % % % % % % % % % % % % % % % % % % % % % % % % 0 r t 0 % % % % % % % % % % % % % % ",
"% % $ % w w w ; 0 % % % % ; ; e t p u w ; % % % % % % ; w w w w 0 ; % % % % % % % % % ; 0 ; % % % % % % 0 ; ; % % % 0 % ; r t r ; 0 % % ; % ; % % % % % % % ; % ",
"r % % w i i i t i w % e i i u i p p f L i e % % % w t i i i p i i t e w y i i i i i i i i i i i t r r t u i i i i i t e t t w ; w t u u y i y r w w % % w t t t ",
"p t % t i w w t f t w i i r w w 0 w e i L h > % w i i t r ; ; w e t d d d t r r t t r r t r > t p f f i t t t r e t d L d ; % t p i u t t t y u i t 0 % i i i t ",
"y i t t u % % 0 f i i i 0 % % % % % % % w L f w i i w % $ % % $ $ ; t g i % $ $ $ % $ % % $ % % i f i ; % % % % % ; t d d e r d t ; % % % % % ; t d u w i e % % ",
"0 i i t i % % ; f i i w % $ % w e w % % % r f u d r % $ % 0 ; % $ $ ; i u $ $ $ % % $ $ $ $ $ % i i e % % % % ; ; % % ; t d i u ; $ $ % ; % % % % t f t i w $ % ",
"% t d i u % % 0 f f i ; % % t i i i t % % ; p g a ; $ % > a p i ; $   t g i u u > ; $ % r u t u p u % % % t u i t w $   r d d e   $ w t u t w % % 0 i i i e $ % ",
"% w f i u $ $ w d g t % % w d t w i d %   ; p h u % $ ; i u > i y $ $ r d t t u i : $ ; i i t t f t % % r d t t d t % $ w d d : $ % u p u u u % $ ; d d d w $ % ",
"% w d i u $ $ : d g u ; $ w d e % t d ; $ ; p f i % $ ; p w % u y % $ r d : % w i - $ ; i t % w p t $ $ t i ; $ t d % $ : d d ; $ % i u % r d : $ $ u d d : $ $ ",
"$ e d i u $   ; d g u % $ w d r $ t d ; % % i h i ;   w p w % u y $ $ r d w % r i : $ ; i r % ; p r $ $ t i ; % t u % $ * g d ;   % i u $ : p ; + $ u d i : $ $ ",
"$ e d i u % $ ; d g i $ $ ; d e % t d ; $ ; d h i % % ; p > $ u t $ $ r d w % w i * $ * i r % % p r $ $ t u $ $ t i % $ - d d ; $ % a u $ : p ; % $ u i d : $ $ ",
"$ e d i u $ $ ; d g u & $ r d e $ t d t e t d f d % $ ; p w ; u u & $ r d w % w i ;   - i r $ ; p t $ $ t u % $ t i - $ : d d ; $ ; i u + w i ; $ % i d p ;   % ",
"$ e d a u $ $ ; a g u & $ : d e % w u i u u u d u % $ ; p u ; u u - - t f w % w d ; $ ; i r $ ; p t $ $ t u ; % t u % $ : d d w   ; i u % w d e $ % u d d : $ % ",
"$ r f i u $ $ ; d g u - $ w d r $ % ; ; ; ; ; t d % $ $ r i t u d u u d d w % r u ; $ ; i r % ; p t $ $ t u $ $ t i % $ : d d * $ % d u % : d u u t d d i :   $ ",
"% u d u u $   w d g u & $ w d u t r r r r t e : d t ; $ $ r i d u t t r w $ % w d ; $ ; i r % ; d t $ $ t u % % t i % $ ; d d ; $ % i u % ; e u u u t t i : $ $ "
};
