/* XPM */
static char *_1672937690[] = {
/* columns rows colors chars-per-pixel */
"80 80 255 2 ",
"   c #3D3B2D",
".  c #36392D",
"X  c #2E3B38",
"o  c #3C3534",
"O  c #363C34",
"+  c #3C3C34",
"@  c #3C363C",
"#  c #353C3C",
"$  c #3D3D3D",
"%  c #363638",
"&  c #3F331B",
"*  c #43352D",
"=  c #433C2C",
"-  c #483627",
";  c #492F34",
":  c #433534",
">  c #423C34",
",  c #42373C",
"<  c #433B3C",
"1  c #493739",
"2  c #503431",
"3  c #38422A",
"4  c #334235",
"5  c #3B4235",
"6  c #35423C",
"7  c #3C413B",
"8  c #3B4C39",
"9  c #2F4137",
"0  c #41402B",
"q  c #434135",
"w  c #42413C",
"e  c #48413B",
"r  c #3C3642",
"t  c #353C43",
"y  c #3C3C43",
"u  c #353D4D",
"i  c #3C3C4A",
"p  c #383647",
"a  c #2C3D5A",
"s  c #343C5C",
"d  c #363D53",
"f  c #332B42",
"g  c #263C6B",
"h  c #323D65",
"j  c #293D75",
"k  c #35387D",
"l  c #423C43",
"z  c #433B4B",
"x  c #443646",
"c  c #503B40",
"v  c #354143",
"b  c #3B4243",
"n  c #35434A",
"m  c #3A434B",
"M  c #2C4255",
"N  c #344556",
"B  c #2F4249",
"V  c #1C4C7C",
"C  c #294568",
"Z  c #364768",
"A  c #2C4C73",
"S  c #2A447B",
"D  c #344972",
"F  c #295679",
"G  c #2E566B",
"H  c #414242",
"J  c #42474B",
"K  c #404354",
"L  c #233C8B",
"P  c #1C5797",
"I  c #1D4B94",
"U  c #254986",
"Y  c #26568C",
"T  c #284A95",
"R  c #275598",
"E  c #345C95",
"W  c #276398",
"Q  c #25698E",
"!  c #1A58A9",
"~  c #1C53B4",
"^  c #134DB0",
"/  c #2C58A4",
"(  c #2752B1",
")  c #176EB7",
"_  c #2469A8",
"`  c #2666B9",
"'  c #2574AD",
"]  c #16739E",
"[  c #1859C5",
"{  c #1152D1",
"}  c #1867CB",
"|  c #1667D8",
" . c #0876DB",
".. c #1277DB",
"X. c #1270CD",
"o. c #217AD9",
"O. c #2367D0",
"+. c #1A5AE7",
"@. c #0B6BE9",
"#. c #1A68E5",
"$. c #0C78E6",
"%. c #1777E8",
"&. c #0B7AF4",
"*. c #167DF4",
"=. c #146BF7",
"-. c #206AE5",
";. c #2078E8",
":. c #1E82BD",
">. c #1885CB",
",. c #1887D7",
"<. c #1096D6",
"1. c #2585CC",
"2. c #0D84E7",
"3. c #1A83E6",
"4. c #1887E9",
"5. c #0F92EE",
"6. c #0C9EEC",
"7. c #079EEF",
"8. c #1698E9",
"9. c #0D87F5",
"0. c #1687F7",
"q. c #0B98F9",
"w. c #1593F5",
"e. c #129AF3",
"r. c #1295FD",
"t. c #1C93FB",
"y. c #169BFC",
"u. c #1C9BFE",
"i. c #1998F3",
"p. c #2286E9",
"a. c #2589F7",
"s. c #2398FC",
"d. c #2192E2",
"f. c #07A5EB",
"g. c #16AAEA",
"h. c #0AB8ED",
"j. c #17BBED",
"k. c #0DACFC",
"l. c #0CA7F7",
"z. c #13ADF4",
"x. c #14A3FC",
"c. c #1BA2FE",
"v. c #13ADFD",
"b. c #1BACFB",
"n. c #19A8F4",
"m. c #0DBDF5",
"M. c #0CB3FE",
"N. c #0DBDFD",
"B. c #0AB4F4",
"V. c #13B4F4",
"C. c #11BAF6",
"Z. c #1ABBF4",
"A. c #14B4FD",
"S. c #1AB3FD",
"D. c #14BCFE",
"F. c #1BBCFE",
"G. c #19B6F1",
"H. c #22BCF8",
"J. c #32ACEF",
"K. c #14A3DF",
"L. c #14C6EC",
"P. c #0EDAEE",
"I. c #13D3EF",
"U. c #0DC5F5",
"Y. c #0CCBF6",
"T. c #0DC4FC",
"R. c #0DCBFD",
"E. c #07C9FC",
"W. c #13C3F4",
"Q. c #13CBF5",
"!. c #1CCDF4",
"~. c #14C3FD",
"^. c #1AC3FD",
"/. c #13CBFE",
"(. c #1ACAFF",
"). c #1AC3F4",
"_. c #0CD3F3",
"`. c #0DD3FE",
"'. c #0DDBFB",
"]. c #09D9FB",
"[. c #13DCF4",
"{. c #13D3FD",
"}. c #1AD4FE",
"|. c #14DBFD",
" X c #1ADCFE",
".X c #1AD4F3",
"XX c #0BC7EF",
"oX c #25CAFA",
"OX c #26D8FB",
"+X c #37D9F8",
"@X c #2FCEF1",
"#X c #0BE3F9",
"$X c #15E3FF",
"%X c #1CE4FC",
"&X c #16E8F8",
"*X c #0BF8FB",
"=X c #14F7FB",
"-X c #26E6F8",
";X c #36E6F9",
":X c #3BF4FB",
">X c #29F0F1",
",X c #47C9EA",
"<X c #44D9ED",
"1X c #66DBF5",
"2X c #7EDBEC",
"3X c #44EBF9",
"4X c #5CE9FA",
"5X c #43FDFB",
"6X c #4EFEFE",
"7X c #4AF7F6",
"8X c #5CFEF2",
"9X c #52FDFE",
"0X c #5CFEFD",
"qX c #53F7FB",
"wX c #64FEFD",
"eX c #6CFDFD",
"rX c #66F7FA",
"tX c #72FEFE",
"yX c #7BFDFE",
"uX c #78F9F8",
"iX c #6FE6F2",
"pX c #8CDCFD",
"aX c #87E8FE",
"sX c #94EBFB",
"dX c #83FDFD",
"fX c #8CFCFE",
"gX c #88FCF4",
"hX c #94FDFD",
"jX c #9CFDFD",
"kX c #96FAF8",
"lX c #94F5EE",
"zX c #A4FEFD",
"xX c #ABFDFD",
"cX c #A6FAF5",
"vX c #B4FDFD",
"bX c #BBFDFD",
"nX c #B9F9F8",
"mX c #ABEAF6",
"MX c #B3EDD7",
"NX c #C3FDFD",
"BX c #CBFEFC",
"VX c #C4F5F9",
"CX c #D3FDFD",
"ZX c #DCFDFD",
"AX c #D7F8F5",
"SX c #C2ECFC",
"DX c #E3FDFC",
"FX c #EBFDFE",
"GX c #EBF8FA",
"HX c #FDFEF5",
"JX c #FFF6FE",
"KX c #F5FEFD",
"LX c #FCFDFD",
"PX c #F6FFF6",
"IX c #F8FAED",
/* pixels */
"$ $ $ $ $ $ $ $ $ $ $ $ $ $ $ $ $ $ $ $ $ $ $ $ $ $ $ $ $ $ $ $ $ $ $ $ $ $ $ $ > J 4 5 z b 5 @ $ b $ l # i 4 z $ $ $ $ $ $ $ $ $ $ $ $ $ $ $ $ $ $ $ $ $ $ $ $ ",
"$ $ $ $ $ $ $ $ y $ $ $ $ $ $ $ $ $ $ $ $ $ $ $ $ $ $ $ $ $ $ $ $ $ $ $ $ $ $ $ i o r z $ 5 = z > * < 6 , 5 q O $ $ $ $ $ $ $ $ $ $ $ $ $ $ $ $ $ $ $ $ $ $ $ $ ",
"$ $ $ $ $ $ $ $ $ $ $ $ $ $ $ $ y $ $ $ $ $ < $ $ $ $ $ $ $ $ $ $ $ $ $ $ $ $ y 7 v c 2 O y N a g A f 0 l o $ $ $ $ $ $ $ $ $ $ $ $ $ $ $ $ $ $ $ $ $ $ $ $ < $ ",
"$ $ $ $ $ $ $ $ $ $ $ $ $ $ $ $ 7 $ $ $ $ $ $ $ $ $ $ $ $ $ $ $ $ $ $ $ $ $ $ < o $ % F ' <.n.8.@.4.' q + x 6 + $ $ $ $ $ $ $ $ $ $ $ $ $ $ $ $ $ $ $ $ $ $ 7 $ ",
"$ $ $ $ $ $ $ $ y 7 $ $ $ $ $ $ $ $ $ $ $ $ $ $ $ $ $ $ $ $ $ $ $ $ $ $ $ $ $ $ l @ E q.N.Z.D.~.!.8.D.Y . m b x $ $ $ $ $ $ $ $ $ $ $ $ $ $ $ $ $ $ $ $ $ $ $ $ ",
"$ $ $ $ $ $ $ $ $ < $ $ $ $ $ $ $ $ $ $ $ $ $ $ $ $ $ $ $ $ $ $ $ $ $ $ $ $ $ $ , G x.v.,.p.o.5.~.G.M.,.u # 5 5 $ $ $ $ $ $ $ $ $ $ $ $ $ $ $ $ $ $ $ $ $ $ $ $ ",
"$ $ $ $ $ $ $ $ $ $ $ $ $ $ $ $ $ $ $ $ $ $ $ $ $ $ $ $ y $ $ $ $ $ $ $ $ $ $ $ 5 X.5.E d p i ( $.H.V.x.S 1 b # $ $ $ $ $ $ $ $ $ $ 7 $ $ $ $ $ $ $ $ y $ $ $ $ ",
"$ $ $ $ $ $ $ $ $ $ $ $ $ $ $ $ $ $ $ $ $ $ $ $ $ $ $ $ 7 $ $ $ $ y $ $ $ 7 $ $ d *.R & 5 # b + ^ 9.R.A.! 0 v l $ $ $ $ $ $ $ $ $ $ l $ $ $ $ $ $ $ $ $ $ $ $ $ ",
"$ $ $ $ $ $ $ $ $ $ $ $ $ $ $ $ < $ $ $ y $ $ $ $ $ $ $ $ $ $ $ l $ 5 5 $ $ l < B | u = b 1 e O T @.Z.OXX.z 7 $ $ $ $ $ $ $ $ $ $ $ $ $ $ $ $ $ $ $ $ $ $ $ $ $ ",
"$ $ $ $ $ $ $ $ $ $ $ $ $ $ $ $ $ $ $ $ $ $ $ $ $ $ $ $ $ $ $ $ + $ < y $ y $ + , T Y $ t y 6 > Y *.C.}. .p 5 y $ $ $ $ $ $ $ $ $ $ $ $ $ $ $ $ $ $ $ $ $ $ $ $ ",
"$ $ $ $ y $ $ $ $ $ $ $ $ $ $ $ $ $ $ $ $ $ $ $ $ $ $ $ $ $ $ $ y y i y $ 5 6 b 1 - n + H y % > T *.k.|.8.g q y $ $ $ $ $ $ $ $ $ $ $ $ $ $ $ $ $ $ $ $ $ $ $ $ ",
"$ $ $ $ $ $ $ $ $ $ $ $ $ $ $ $ $ $ $ $ $ $ $ $ $ $ $ $ $ $ $ $ 3 3 < $ r i h k P G @ t b y @ , R 0.l.%Xw.I + $ $ $ $ $ $ $ $ $ $ $ $ $ $ $ $ $ $ $ $ $ $ $ $ $ ",
"$ $ $ $ $ $ $ $ $ $ $ $ $ $ $ $ $ $ $ $ y $ $ $ $ $ $ $ $ $ $ $ y i i $ + $ n s R w./ m O # t O [ 9.A.%Xq.~ , $ $ $ $ $ $ $ $ $ $ $ $ $ $ $ $ $ $ y < 7 $ $ $ $ ",
"$ $ $ $ $ $ $ $ $ $ y $ $ $ $ $ $ $ $ $ $ $ $ $ $ $ $ $ $ $ $ $ 7 r y y + 5 5 6 ; X.` - < y h u ;.2.W..X9.O., 5 $ $ $ $ $ $ $ $ $ y $ $ $ $ $ $ $ $ $ $ $ $ $ $ ",
"$ $ $ $ < 7 $ $ $ $ $ $ $ $ $ $ $ $ 7 $ $ $ $ $ $ $ $ $ $ $ $ $ 5 5 $ $ $ $ $ 5 - V Y = m N L F t.5./.^.l.` : 7 $ $ $ $ $ $ $ $ $ $ $ $ $ $ $ $ $ $ $ $ $ $ $ $ ",
"$ $ $ $ $ $ $ $ $ $ $ $ $ $ $ $ $ $ $ $ $ $ $ $ $ $ $ $ $ $ $ $ x y < 5 y y l , < C d 3 : Z [ ..c.e.}.F.z.' o b $ $ $ $ $ $ $ $ $ $ $ $ $ $ $ $ $ $ $ $ $ $ $ $ ",
"$ $ $ $ $ $ $ $ $ $ $ $ $ $ $ $ $ $ $ $ $ $ $ $ x l $ # < w y v + $ $ $ $ $ $ y < 7 1 l 6 W r.s.8.b.}.Q.^.Y @ 6 6 $ $ $ $ $ $ $ $ $ $ $ $ $ y $ $ $ $ $ $ $ $ $ ",
"$ $ $ $ $ $ $ $ $ $ $ $ $ $ $ $ $ $ $ $ $ $ $ $ 4 $   n Y / h 1 $ $ $ $ $ $ y $ 5 p y 3 M i.k.G.x.E.R.].b.Z q $ $ $ $ $ $ $ $ $ $ $ $ $ $ $ $ $ $ $ $ $ $ $ $ $ ",
"$ $ $ $ $ $ $ $ $ $ $ $ $ $ $ $ $ $ $ $ $ $ $ $ $ 5 # u Z N 5 O $ $ $ $ $ $ $ $ 5 y J > ' F.m.A.V.]./.].>.O 7 1 $ $ $ $ $ $ $ $ $ $ $ $ $ $ $ $ $ $ $ $ $ $ $ $ ",
"$ $ $ $ $ $ $ $ $ $ $ $ $ $ y $ $ $ $ $ $ $ $ $ y w y , * : # 5 $ $ $ $ $ $ $ $ o b y N n.H.D.v.XX{.oXN.P . t l $ $ $ $ $ $ $ $ $ $ $ $ $ $ $ $ $ $ $ $ $ $ $ $ ",
"$ $ $ $ $ $ $ $ $ $ $ $ $ $ $ $ $ $ $ $ $ $ $ $ $ + < $ 6 i l < $ $ $ $ $ $ y w l e X X.T.T.D.D./.~.oX6.S l y y $ $ $ $ $ $ $ $ $ $ $ $ $ $ $ $ $ $ $ $ $ < $ $ ",
"$ $ $ $ $ $ $ $ $ 7 $ $ $ $ $ $ $ $ $ $ $ $ $ $ , # 5 4 b 5 5 r # @ $ $ $ $ $ $ w : Y x./.R./.~./.{.~.*.S * 0 b $ $ $ $ $ $ $ $ $ $ $ $ $ $ $ $ $ $ $ $ $ 7 $ $ ",
"$ $ $ $ $ $ $ $ $ < $ $ $ $ $ $ < b $ $ $ $ $ $ 6 z l > # r l z $ $ $ w < 7 $ + % S 4.D.(.U.{./.U.`.D.=.P M + $ $ $ $ $ $ $ $ $ $ $ $ $ $ $ $ $ $ $ $ $ y $ $ $ ",
"$ $ $ $ $ 7 l $ $ y $ $ $ $ $ $ $ $ $ $ $ $ $ $ $ O v i > > 5 O y y $ $ y 7 o $ D <.~._.^._.R.T./.~.l.#.@.[ h < $ $ y < $ $ $ $ $ $ $ $ $ $ $ $ $ $ $ $ $ $ $ $ ",
"$ $ $ $ $ $ $ $ $ $ $ $ $ $ $ $ $ $ $ $ $ $ $ $ $ l b 7 l 1 $ t 4 7 7 $ * > G ' z.^.W.R.T.(.~.R.U.M.*.-.*.r.o.# $ $ $ $ $ $ $ 7 $ $ $ w y $ $ $ $ $ $ $ $ $ $ $ ",
"$ $ $ $ $ $ $ $ $ $ $ $ $ $ $ $ $ $ $ $ $ $ $ $ q i * > 4 O z b < : r Z _ ,.g.C.D.T./.~.N.(.L./.F.y.#.[ O.x.o.p $ $ $ $ $ $ $ $ $ $ $ $ $ $ $ $ $ $ y $ $ $ $ $ ",
"$ $ $ $ $ $ $ $ $ $ < 7 $ $ $ $ $ $ $ $ $ $ $ $ # @ 7 H @ 6 b - y E ..5.q.v.D.D.T.~.T.T.(.D.~.~.y.` a v d $./   $ $ $ $ $ $ $ $ $ $ $ $ $ $ $ $ $ $ $ $ $ $ $ $ ",
"$ $ $ $ $ $ $ $ $ $ $ y $ $ $ $ $ $ $ $ $ $ $ $ v H # t m 1 i F ;.0.4.i.G.m.U.~.^.F.W.D.F.L.~.u.~ b 3 i ; V i + $ $ $ $ $ $ $ y $ $ $ $ $ $ $ $ $ $ $ $ $ $ $ $ ",
"$ $ $ y $ $ $ $ $ $ $ $ $ $ $ $ $ $ $ $ $ $ $ $ > , e b . t ( *.%.5.z.D.F.D.~.^.n.f./.^.m.~.8.Y $ O v > x b $ < $ $ $ $ $ $ $ $ $ $ $ $ $ $ $ $ $ $ $ $ 7 $ $ $ ",
"$ $ $ $ $ $ $ $ $ $ $ $ $ $ $ $ $ $ $ $ $ $ $ $ H . O 1 $ / &.&.f.Z.^.D.D.~.A.r.9.C.~.U.~.4.j 3 + i 2 Z D 0 O z $ $ $ $ $ $ $ $ $ $ $ $ $ $ $ $ $ $ $ $ < $ $ $ ",
"$ $ $ $ $ $ $ $ $ $ $ $ $ $ $ $ $ $ $ $ $ $ $ $ p 8 x o A { $.n.D.F.F.D.~.B.f.e.F.D.D.F.$.C - x l 4 v +.V > t y $ $ $ $ $ $ $ $ $ $ $ $ $ $ $ $ $ $ $ $ $ $ $ y ",
"$ $ $ $ $ $ $ $ $ $ $ $ $ $ $ $ $ $ $ $ $ $ $ $ q r y 5 T @.z.D.D.A.D.D.V.x.b.D.N.j.N.4.S o b l 7 @ p ! d O e 5 $ < $ $ $ $ $ $ $ $ $ $ $ $ $ $ $ $ $ $ $ $ $ $ ",
"$ y $ $ $ $ $ $ $ $ $ $ $ $ $ $ $ $ $ $ $ $ $ $ @ l O t } x.F.A.A.^.C.x.c.x.A.V.A.A.f.~ t 4 l $ $ $ $ $ r $ $ $ $ $ $ $ $ $ $ $ $ $ $ $ $ $ $ $ $ $ $ $ $ $ $ $ ",
"$ 7 < $ $ $ $ $ $ $ $ $ $ $ $ $ $ $ $ $ $ $ $ $ y H > I e.C.S.A.~.x.e.y.c.c.x.v.A.V.=.S + i 7 $ $ $ $ $ $ $ $ $ $ $ $ $ $ $ $ $ $ $ $ $ $ $ y 7 $ $ $ $ $ $ $ $ ",
"$ $ $ $ $ $ $ $ $ $ $ $ $ $ $ $ $ $ $ $ $ $ $ $ 6 q N 0.M.D.V.F.S.2.%.4.w.c.x.b.S.e.+.h + r y $ $ $ $ $ $ $ $ $ $ $ $ $ $ $ $ $ $ $ $ $ $ $ $ < $ $ $ $ $ $ $ $ ",
"$ $ $ $ $ $ $ $ $ $ $ $ $ $ $ $ $ $ $ $ $ $ $ $ 5 X ( b.A.A.A.b.%.| #.#.%.r.v.C.v.*.%.A o 8 $ $ $ $ $ $ $ $ $ $ $ $ $ $ $ $ $ $ $ $ $ $ $ $ $ $ $ $ $ $ $ $ $ $ ",
"$ $ $ $ $ $ $ $ $ $ $ $ $ $ $ 7 $ $ $ $ $ $ $ $ < a r.D.S.A.M.w.| | o.-.| y.A.C.v.*.*.I O b , > $ $ $ $ $ $ $ $ $ $ $ $ $ $ $ $ $ $ $ $ $ $ $ $ $ $ $ $ $ $ $ $ ",
"$ $ $ $ $ $ $ $ $ y $ $ $ $ y < $ $ $ $ $ $ $ $ : / M.g.A.D.f.-.-.%.3.O.-.u.F.Z.b.u.r.} s : H $ $ $ $ $ $ $ $ $ y $ $ $ $ $ $ $ $ $ $ $ $ $ $ $ $ $ $ $ $ $ $ $ ",
"$ $ $ $ $ $ $ $ $ $ $ $ $ $ $ $ $ $ $ $ $ $ $ $ % o.M.B.A.b.2.#.p.4.;.| $.c.A.D.b.A.l.*.` i w t $ $ $ $ $ $ $ $ 7 < $ $ $ $ $ $ $ $ $ $ $ y $ $ $ $ $ $ $ $ $ $ ",
"$ $ $ $ $ $ $ $ $ $ $ $ $ $ $ $ $ $ $ $ $ $ $ $ y 5.A.h.b.0...i.d.3.p.| 2.F.N.N.N.m.M.8.u.] @ > $ $ $ $ $ $ $ $ $ $ $ $ $ $ $ $ $ $ $ $ $ $ $ $ $ $ $ $ $ $ $ $ ",
"$ $ $ $ $ $ $ $ $ $ $ $ $ $ $ $ $ $ $ $ $ $ $ $ C s.n.y.k.@.a.p.p.a.;. .b.D.A.~.A.D.A.n.q.k.1.s = 4 w < r $ w > $ $ $ $ $ $ $ $ $ $ $ $ $ $ $ $ $ $ $ $ $ $ $ $ ",
"$ $ $ $ $ $ $ $ $ $ $ $ $ $ $ $ $ $ $ $ $ $ $ $ d i.M.w.2.;.s.a.t.p. .b.D.^.^.D.D.m.C.n.y.v.x.4.T ,   b J O O b $ $ $ $ $ $ $ $ $ $ $ $ $ $ $ $ $ $ $ $ $ $ $ $ ",
"$ $ $ $ $ $ $ $ $ $ $ $ $ $ $ $ $ $ $ $ $ $ $ y % ) r.*...a.s.s.s.3.6.~.~.T.D.~.D.m.m.A.b.z.k.l.w.( l 1 O t v y $ $ $ $ $ $ $ $ $ $ $ $ $ $ $ $ $ $ $ $ $ $ $ $ ",
"$ $ $ $ $ $ $ $ $ $ $ $ $ $ $ $ $ $ $ $ $ $ $ $ # A #.| 2.s.s.c.9.5.^.N.~.N.~.^.~.(.~.D.D.A.n.x.i.r.} n @ $ , l $ $ $ $ $ $ $ $ $ $ $ $ $ $ $ $ $ $ $ $ $ $ $ $ ",
"$ $ < $ $ $ $ $ $ $ $ $ $ $ $ $ $ $ $ $ $ $ $ $ l $ [ { s.u.u.4.5.D.~.~.D.^.~.D.U.~.D.~.T.~.D.D.b.i.9.| N 1 e # $ $ $ 7 y $ $ $ $ $ $ $ $ $ $ w $ $ $ $ $ $ $ $ ",
"$ $ 7 $ $ $ y $ 7 y $ $ $ $ $ $ $ $ $ < $ $ $ $ O   ^ =.s.t.0.4.F.(.W.^.m.~.~.`./././.Q.Y.~.~.~.~.D.w.&.[ N # < $ $ $ $ $ $ $ $ $ $ $ $ $ $ $ y $ $ $ $ $ $ $ $ ",
"$ $ $ $ $ $ $ $ $ $ $ $ $ $ $ $ $ $ $ $ $ $ $ $ y < ^ 0.0.4.6.S.^.m.~.T.R.|.$X%X%X&X=X&X$X}./.~.D.T.Q.G.&.[ i > $ $ $ $ $ $ $ $ $ $ $ $ $ $ $ $ $ $ $ $ $ $ $ $ ",
"$ $ $ $ $ $ $ $ $ $ $ $ $ $ $ $ $ $ $ $ $ $ $ $ l y ~ #.0.i.Y.(.W./.E.{.-X*X*X=X*X*X=X=X=X=X&X_./.W.D.(.V.%.~ 7 $ $ $ $ $ $ $ $ $ $ $ $ $ $ $ $ $ $ $ $ $ $ $ $ ",
"$ $ $ $ $ $ $ $ $ $ $ $ $ $ $ $ 7 y l @ 5 z = n , N { $.j.D.U.R.R.{.Y.#X>X*X-X3X3X3X3X:X:X=X*X=X{.~.T.~.).D.9.U > 5 y 5 b # l + $ $ $ $ $ $ $ $ $ $ $ $ $ $ $ $ ",
"$ $ $ $ $ $ $ $ $ $ $ $ $ $ $ $ 5 l y 7 $ w x > > I $.A.(.T.U.^.&X%XOX=X>XlXCXGXDXAXVXNXzXrX-X*X&X_.U.~.W.~.S.X.N , l + i $ l + $ $ $ $ $ $ $ $ $ $ $ $ $ $ $ $ ",
"$ $ $ $ $ $ $ $ $ $ $ $ $ $ $ $ + x # w y 7 l   A 4.D.`.D.R.Q. X*X.X&X&XnXHXJXHXKXFXZXCXBXnXhXiX-XP.R.D.^.T.~.A.Y @ , $ $ $ < 6 $ $ $ $ $ $ $ $ $ $ $ $ $ $ $ $ ",
"$ y $ $ $ $ $ $ $ $ $ $ $ 7 l $ O z $ $ O b   C d.)./.~.^.R.`.*X+XpX_.sXHXJXLXKXJXFXCXBXNXbXvXcX<XW./.^./.U.T.~.,.v > 7 , y $ $ $ $ $ $ $ $ $ $ $ $ $ $ y $ $ $ ",
"$ $ $ $ $ $ $ $ $ $ $ $ $ $ $ $ $ y $ 5 5 $ n 1./.U./.W.Q.(.P.[.VXsX,XGXHXKXHXHXLXKXDXZXBXnXcXxXuXV./.~.~.U.(.~.k.N + v < b $ $ $ $ $ $ $ $ $ $ y $ $ $ $ $ $ $ ",
"$ $ $ $ $ $ $ $ $ $ $ $ $ $ $ $ l O $ l , $ W H.Y./.{.#X_.OX#X2XPX1XVXHXLXJXHXKXPXKXKXDXBXbXxXjXhX^.{././.Q.~.R.A.A 5 y @ 5 $ , $ $ $ $ $ $ $ $ $ $ $ $ $ $ $ $ ",
"$ $ $ $ $ $ $ $ $ $ $ $ $ $ $ $ l 4 l y > N 8./.(.~.&X%X}.#X+XDXGXsXJXPXKXHXLXJXLXKXGXDXCXVXvXvXfX+X.X/./.Q.T./.A.Y O y < o $ $ 7 y $ $ $ $ $ $ $ $ $ $ < $ $ $ ",
"$ $ $ $ $ $ $ $ $ $ $ $ $ $ $ $ , 5 b 4 , E /.E.!.R.=XoXW.*XiXJXZXMXFXLXKXHXLXLXHXKXFXCXCXNXvXzXjX3XI.`././.R.~.n.T > b l + b $ < $ $ $ $ $ $ $ $ $ $ $ 7 $ $ $ ",
"$ $ $ $ $ $ $ $ $ $ $ y $ $ $ $ $ + l y @ >.R./.Q.U.<XmXB.+XAXKXAXGXKXHXPXLXJXLXLXKXFXDXBXNXvXzXjXuX^.E.}. XU./.y.! > O l # 6 , $ $ $ $ $ $ $ $ $ $ $ $ $ $ $ $ ",
"$ $ $ $ $ $ $ $ $ $ $ $ $ $ $ $ $ $ l $ b 8.{.~./.~.1XnXg.aXJXHXDXKXLXLXLXLXJXPXLXKXFXZXBXbXvXzXkXyX@XY.j./.Q.Q.v.! < 4 l $ 6 < $ $ $ $ $ $ $ $ $ $ $ $ $ $ $ $ ",
"$ $ $ $ $ $ $ $ $ $ $ $ $ $ $ $ $ $ y + Z V.{.~.E.T.mXmXg.VXJXPXAXLXLXLXLXKXLXLXLXKXDXCXBXbXxXjXfXdX+XZ.j.~.{.R.F.} t e , l $ , $ $ $ $ $ $ $ $ $ $ $ $ $ $ $ $ ",
"$ $ $ $ $ $ $ $ $ $ $ $ $ $ $ $ $ $ y 0 D E.R./._.N.nXpXh.VXKXCXnXKXHXJXLXLXHXLXKXFXZXCXBXvXzXjXfXdX<XU.oXoX}.R.(. .a > o 6 $ l $ $ $ $ $ $ $ $ $ $ $ $ $ $ $ $ ",
"$ $ $ $ $ $ $ $ y 7 $ $ $ $ $ $ $ $ y   D T././.Q.H.pX,XY.SXLXbXnXLXHXKXLXHXLXKXFXDXCXBXbXvXzXjXfXuX+XR.-XOXW./.!.w.a > 5 6 $ y $ $ y $ $ $ $ $ $ $ $ $ $ $ $ $ ",
"$ $ $ $ $ $ $ $ $ < $ $ $ $ $ $ $ H l . Z n./././.).J.j.oXVXLXAXAXLXLXLXLXKXLXFXDXCXBXNXvXzXjXfXdXyX+X].-X;Xf./.{.i.a > 5 i $ $ $ $ $ $ $ $ $ $ $ $ < y $ $ $ $ ",
"$ $ $ $ $ $ $ $ $ $ $ $ $ $ $ $ 6 < $ # m d.C.R.{.Q.B.{.+XBXFXDXFXDXAXKXKXDXDXZXCXBXNXbXxXzXhXfXtXtXOX#X-X-Xk.!./...u $ 7 y y O $ $ $ $ $ $ $ $ $ $ 7 $ $ $ $ $ ",
"$ $ $ $ $ $ $ $ $ $ $ $ $ $ $ $ $ o l v @ ` h.{./.Q. X{.,XBXZXZXDXbXcXGXFXNXBXCXBXNXbXxXzXhXfXdXtXrX@X#X;XOXA.I.~.) i $ + x x 5 $ $ $ $ $ $ $ $ $ $ $ $ $ $ $ $ ",
"$ $ $ $ $ $ $ $ $ $ $ $ $ $ $ $ < $ b v 0 j w.{.(.{.{.W.1XbXBXAXbXjXaXZXCXcXbXBXbXbXxXkXjXfXyXyXeX4X^.[.:XD.C. Xe.T $ $ r 5 v < $ $ $ $ $ $ $ $ $ 7 y $ $ $ $ $ ",
"$ $ $ $ $ $ $ $ $ $ $ $ $ $ $ $ > i $ 7 $ t X././.I.{.z.aXVXcXzXcXgX4XNXBXvXbXvXvXcXzXzXfXdXyXtXeX7XN.%X>XC.OXD.@.C + H < 5 6 , $ $ $ $ $ $ $ $ $ $ $ $ $ $ $ $ ",
"y 7 $ $ $ $ $ $ $ $ $ $ $ $ $ $ 5 y + < i 1 U M.I.}.].H.sXxXlXhXkXuX3XxXcXNXvXzXzXjXhXfXyXyXtX8X8X+Xh.;XoXD.}.l.{ n > y > y $ l $ $ $ $ $ $ $ $ $ $ < $ $ $ $ $ ",
"$ < $ $ $ $ $ $ $ $ y $ $ $ $ $ b O $ l O 1 # >.}./.].Z.iXgXzXfXkXfXuXkXcXxXxXkXjXhXdXyXyXtX0X0X6XoXh.!.V.`._.r.T 5 w t + r $ 7 $ $ $ $ $ $ $ $ $ $ $ $ $ $ $ $ ",
"$ $ $ $ $ $ $ $ $ $ $ $ $ $ $ $ y > y l 6 i > A N.!.{.Q.@XkXhXgXyXfXhXgXhXyXhXgXfXdXyXtXtXwXqX0X+XW.(.B./.|.C.} i > $ $ $ < # < $ $ $ $ $ $ $ $ $ $ $ $ $ $ $ $ ",
"$ $ $ $ $ $ $ $ $ $ $ $ $ $ $ $ y $ l $ b 6 l O _ {.|.{.^.4XdXdXwXuXfXtXyX7XuXfXuXtXtXwX8X0X6X3X^./..X{. XV.| M 3 @ + y y w @ # $ $ $ $ $ $ $ $ $ $ $ $ $ $ $ $ ",
"$ $ $ $ $ $ $ y $ $ $ $ < 7 $ $ $ y y 3 y r z = i 8.I.I.$X~.rXdXwXrXtXrXeX:X8XyXeXwX0X9X7X9X:X.X/.&X_.oX6.| j q w y 5 $ y + w $ $ $ $ $ $ $ $ y $ $ $ $ $ $ y $ ",
"$ $ $ $ $ $ $ $ $ $ $ $ $ $ $ $ + v < + O z + b   A g. X{.{.oX8XtXeXeXqXeX7X7XwX0X0X9X6X9X:X!.~..X].(.6.@.L = 7 t $ + < i $ w y $ $ $ $ < $ $ $ $ $ $ $ $ $ $ $ ",
"$ $ $ $ $ $ $ $ $ $ $ $ $ $ $ $ $ $ $ $ $ $ $ $ z o G K.{.|.!.@XqX8XwXqX@XwX8X6X8X5X:X5X3X!.XX X[.~.l.$.Y 1 : i $ $ $ $ $ $ $ $ $ $ $ $ $ $ $ $ $ $ $ $ $ $ $ $ ",
"$ $ $ $ $ $ $ $ $ $ $ $ $ $ y $ r $ $ $ $ $ $ $ + 6 : Z 8.{.&XR.j.;X9X@XG.;X5X9X6X5X5X-XI.Q.|.'.}.`.y.Q + x 7 6 $ $ $ $ $ $ $ $ $ $ $ $ $ $ $ $ $ $ $ $ $ $ $ $ ",
"$ $ $ $ $ $ $ $ $ $ $ $ $ $ $ $ $ $ $ $ $ $ $ $ 5 l 6 . m :.E.#XP.L.).B. X.X.XOX%XOX).~.'.#XP.$X(.e.Y   # 6 q O $ $ $ $ $ $ $ $ $ $ $ $ $ $ $ $ $ $ $ $ $ $ $ $ ",
"$ $ $ $ $ $ $ $ $ $ $ $ $ $ $ $ $ $ $ $ $ $ $ $ y < H i   q F >.D. X&X'.$X|.P.P.[.P.%X%X$X X~.6.] Z % # l $ t q $ $ $ $ $ $ $ $ $ $ $ $ $ $ $ $ $ $ $ $ $ $ $ $ ",
"$ $ $ $ $ $ $ $ $ $ $ $ $ $ $ $ $ $ $ $ $ $ $ $ x O 7 H l $ , r C _ >.g.A.D.}. X].$X'.N.<.>.W g p O l < H x + z $ $ $ $ $ $ $ $ $ $ $ $ $ $ $ $ $ $ $ $ $ $ $ $ ",
"$ $ $ $ $ $ $ b $ $ $ $ $ $ $ $ $ $ $ $ $ $ $ $ + 7 y X 6 l , 5 9 + 1 i C F Q P W W Y D K o . 5 e w $ @ 5 4 v > $ $ $ $ $ $ $ $ $ $ $ $ 7 $ $ $ $ $ $ $ $ $ $ $ ",
"$ $ $ $ $ $ $ < $ $ $ $ $ $ $ $ $ $ $ $ $ $ $ $ 5 x < q , y $ + 1 , y O = . q > 1 o . + r z l @ i 4 5 y 6 $ 1 6 $ y $ $ $ $ $ $ $ $ $ $ y $ $ $ < $ 7 $ $ $ $ $ ",
"$ $ $ $ $ $ $ $ $ $ $ $ $ $ $ $ $ $ $ $ $ $ $ $ $ v b @ $ y i 5 b O $ y l H r i O b y $ y w 5 7 + x i 7 < , 6 y $ $ $ $ $ $ $ $ $ $ $ $ $ $ $ $ y $ $ $ $ $ $ $ "
};
