/* XPM */
static char *de8695381ad74750f3b8b92fa9ca5e2bHC3Cc3WBK92xdKw3[] = {
/* columns rows colors chars-per-pixel */
"80 80 179 2 ",
"   c #0D0506",
".  c #0C030D",
"X  c #0D090D",
"o  c #150506",
"O  c #1C0A06",
"+  c #13030D",
"@  c #19050D",
"#  c #130A0D",
"$  c #1D0B0A",
"%  c #0D0314",
"&  c #0F0915",
"*  c #0E021A",
"=  c #110314",
"-  c #190313",
";  c #130915",
":  c #10021A",
">  c #150A1D",
",  c #1A0D1F",
"<  c #1D1116",
"1  c #1D1A15",
"2  c #210C06",
"3  c #230C09",
"4  c #28150A",
"5  c #351D0D",
"6  c #220E11",
"7  c #291412",
"8  c #241519",
"9  c #2C1D1B",
"0  c #351E15",
"q  c #3F220E",
"w  c #3B2918",
"e  c #0D0221",
"r  c #0F0920",
"t  c #110222",
"y  c #160A21",
"u  c #1A0D24",
"i  c #1D1126",
"p  c #1E1229",
"a  c #211424",
"s  c #21142B",
"d  c #251A2E",
"f  c #261B31",
"g  c #291D33",
"h  c #2A2522",
"j  c #362924",
"k  c #2C2135",
"l  c #2F2138",
"z  c #32283A",
"x  c #432B14",
"c  c #492A14",
"v  c #473017",
"b  c #4D3515",
"n  c #4F321A",
"m  c #553B17",
"M  c #54371C",
"N  c #563B1A",
"B  c #5B3E1C",
"V  c #483A2B",
"C  c #593E21",
"Z  c #5C4119",
"A  c #654C1D",
"S  c #6C501E",
"D  c #71541F",
"F  c #5A4C3A",
"G  c #614625",
"H  c #634526",
"J  c #684725",
"K  c #6B4C24",
"L  c #6E512C",
"P  c #775727",
"I  c #7C5C21",
"U  c #63533C",
"Y  c #775935",
"T  c #3A3242",
"R  c #685B45",
"E  c #715A42",
"W  c #76664D",
"Q  c #7C694A",
"!  c #766750",
"~  c #76715B",
"^  c #865F1F",
"/  c #89601F",
"(  c #825E21",
")  c #815F2A",
"_  c #856223",
"`  c #8B6423",
"'  c #8D6A24",
"]  c #8D6629",
"[  c #926623",
"{  c #956C24",
"}  c #9A6C25",
"|  c #936B2C",
" . c #9A6C2B",
".. c #9B7126",
"X. c #96712E",
"o. c #9E7428",
"O. c #9F782B",
"+. c #886336",
"@. c #977130",
"#. c #9E7D3D",
"$. c #A26E26",
"%. c #A17427",
"&. c #A37529",
"*. c #A5792A",
"=. c #AA7C2B",
"-. c #857354",
";. c #AD812D",
":. c #B2842E",
">. c #AB8333",
",. c #A98637",
"<. c #B28531",
"1. c #B48A34",
"2. c #B48A3D",
"3. c #B3923A",
"4. c #BA9844",
"5. c #A58B5F",
"6. c #898169",
"7. c #9D8E69",
"8. c #AA9571",
"9. c #B19C73",
"0. c #B6A170",
"q. c #BFA971",
"w. c #BBA978",
"e. c #C4984A",
"r. c #C1A147",
"t. c #C6A550",
"y. c #CAA452",
"u. c #CDAA56",
"i. c #C1A35B",
"p. c #C5A85F",
"a. c #D4AE5C",
"s. c #D6B35C",
"d. c #C6A867",
"f. c #D4B262",
"g. c #DAB664",
"h. c #D4B863",
"j. c #DEBA65",
"k. c #D5B56B",
"l. c #DCBB6E",
"z. c #C2AC71",
"x. c #C6B77B",
"c. c #D2B67A",
"v. c #E1B966",
"b. c #E1BD65",
"n. c #E1BF73",
"m. c #DDC06D",
"M. c #DDC278",
"N. c #E2C165",
"B. c #E3C46D",
"V. c #E4C275",
"C. c #E4CA74",
"Z. c #E6CA7A",
"A. c #EACC7C",
"S. c #EAD27D",
"D. c #B1A883",
"F. c #DAC583",
"G. c #DAC487",
"H. c #D4C794",
"J. c #E1C483",
"K. c #EACC82",
"L. c #E5C98C",
"P. c #ECD583",
"I. c #E7D68D",
"U. c #EFD289",
"Y. c #EFDA8A",
"T. c #F1D682",
"R. c #F4DB84",
"E. c #F2D58E",
"W. c #F2DD8D",
"Q. c #EFD494",
"!. c #EDDC91",
"~. c #ECD599",
"^. c #F3DE94",
"/. c #F4DC9C",
"(. c #F7E085",
"). c #F9E284",
"_. c #F4E091",
"`. c #F3E29D",
"'. c #ECE1AE",
/* pixels */
"* * * * * * * * * * * * * * * * * * * * * * * * * * * * * * * * * e * * * * * * * * * * * * * * * * * * * * * * e * * * * * * * * * * * * * * * * * * . % . * T ",
"* * * * * * * * * * * * * * * * * * * * * * * * * * * * * * * * * * * * * * * * * * * * * * * * * e * * * * * * * * * * * * * * * * * * * * * * * * * % . % % p ",
"* * * * * * * * * * * * * * * * * * * * * * * * * * * * * * * * * * * * * * * * * * * * * * * * * * * * * * * * * * * * * * * * * * * * * * * * * * * . . . X & ",
"* * * * * * * * * * * * * * * * * * * * * * * * * * * * * * * * * * * * * * * * * * * * * * * * * * * * * * * * * * * * * * * * * * * * * * * * * * * % . % & r ",
"* * * * * * * * * * * * * * * * * * * * * * * * * * * * * * * * * * * * * * * * * * * * * * * * * * * * * * * * * * * * * * * * * * * * * * * * * * * & % & r & ",
"* * * * * * * * * * * * e * * * * * * * * * * * * * * * * * * * * * * * * * * * * * * * * * * * * * * * * * * * * * * * * * * * * * * * * * * * * * * & r r % % ",
"* * * * * * * * * * * * * * * * * * * * * * * * * * * * * * * * * * * * * * * * * * * * * * * * * * * * * * * * * * * * * * * * * * * * * % * * * * r u & % . & ",
"* * * * * * * * * * * * * * * * * * * % * * * * * * * * * * * * * * * * * * * * * * * * * * * * * * * * * * * * e * * * * * * * * * * * * % * : * u p * X % % z ",
"* * : * * * : * * * * * : * : * * * : * * : * : * : * * * * : * e * * * * * : * : * * : * : * * % : * * * : * * * * * : * * : * : : : : : * : u p u * % . . % k ",
": : : : : : : : * * : : : : : : : : : : : : * : : : : : : : : : * * * * : : : : t : : : : : : : : : : : : : : : * * * * : : : : : : > : : > p s y * * . % . % % ",
": : : : : : : : * * * * : : : : : : : : : : : : : : : : : : : : : : * e : : : : : : : : : : : : : : : : : : : : * * * > : : : : : : : : y p p y * * * % . % % . ",
": : : : : : : : * * > * : : : : : : : : : : : : : : : : : : : : : : * * * t : : : : * : * : : : : : : : : : : : * * * * : : : * : : : p s u : : t * * % % . . % ",
": : : : : : : : : : : : : : : * : : : : : * : : : : : : : : : : : : : : * : : : : : : : : : : : : : : : : : * : : * * : * * * : : y s s , : : : : : : * * % % . ",
": : : : : : : * : : : : : : : : : : : : : : : : : : : : : : : * : : t : : : * t : : : : : : : : : : : : : : * : * * : : : : : > u s p : * : : : * * : * * * * * ",
": : : : : : : : : : : * : : : : : % : : : : : : : : : : : : : : : : * : : : : : : : : : : * : : : : : : : : * = : : : : : : > u s y : : : : : * * : : : : : : : ",
": * : : : : : * : : : : : : : : : : : : : : : : : : * : : : : * : : : : : : : : : : * : : : : : * : : : : : : * : : * : > y s p > : : : : * : : : : : : : : : : ",
": : * * : : : : * * * * : : * * : : * * * > * * * * * * : : * * * * * * : : : : * : : * : : : : * : : : * : : : : * * > u s u : * * * : : : * * : : : : * * * * ",
"* * * * * * * * * * * * * * * * * * * * * * * * * * * * * * * * : : * % * * : : : : : * : : : : : = * * * * * * * : > p p y : : * * * * * : * * * * * * * * * * ",
"* * * * * * * * * * * * * * * * * * * * * * * * * e * e * * * * t : % . * * : - ; : ; ; * * : t : & % * * * * * : u p u * * * * * * * * * * * * * * * * * * * * ",
"* * * * * * * * * * * * * * * * * * * * * * * * * * * * * * * * t : +   . = @ 3 3 3 2 O # & * r : % % % * * * : i p > * * * * * * * * * * * * * * * * * * * * * ",
"* * * * * * * * * * * * * * * * * * * * * * * * * e * * * * * * : %     o 0 H J K L L -.6.h & & * * & * * * y p u * * * * * * * r * * * * * * * * * * * * * * * ",
"* * * * * * * * * * * * * * * * * * * * * * * * * * * * * e * * * * . o 3 H +.| X.@.#.F.'.~ X & * % . * % u p u * * * * * * * * * * * * * * * * * * * * * * * * ",
"* * * * * * * * * * e * * * * * * r * * * * * * * * * * * * * * * * % o 5 P ) } o...2.P.`.D.1 % * * ; > i p y * * * * * * * * * * * * * * * * * * * * * * * * * ",
"* * * * * * * * * * * * * * * * * * * * * * * * * e * * * e e * * * * + c ) } } %.o.t.R.`.H.j % * * , s u : * * * * * * * * * * * * * * * * * * * * * * * * * * ",
"* * * * * * * * * * * * * * * * * * * * * * * * * * r * * * * * * e t # N ` { $.&.&.h.R.P.~.R . * i a > * * * * * * * * * * * * * * * * * * * * * * * * * * * * ",
"* * * * * * * * * * * * * * * * * * * * * * * * * * * * * * * * * e * 3 A ' { %.&.,.m.T.f.c.-.< p i ; * * * * * * * * * * * * * * * * * * * * * * * * * * * * * ",
"* * * * * * * * * * * * * * * * * * * * * * * * * * * * * * * * % : : 4 D ' ..*.*.2.S.T.u.d.8.h u * & % * * * * * * * * * * * * * * r * * * * * * * * * * * * * ",
"* * * * * * * * * * * * * * * * * * * * e * * * * * * * * * * * * : - 5 D { %.*.*.4.Y.R.f.d.9.9 r & % % * * * * * * * * * * * * * * * * * * * * * * * * * * * * ",
"* * * * * * * * * * * * * * * * * * * * * * * * * * * * * * * % * : - q / { O.;.=.4.(.S.h.i.8.9 * * % % * * * * * * * * * * * * * * * * * * * * * * * * * * * * ",
"* * * * * * * * * * * * * * * * * * * * * * * * * * * * * e * % % ; - c _ ....;.;.t.Y.M.p.i.0.w % * % % * * * * * * * * * * * * * * * * * * * * * * * * * * * * ",
"* * * * * * * * * * * * * * * * * * * * * * * * * * * * * * * * % + - n _ ..*.;.1.s.S.m.g.k.w.F % * % % * * * * * * * * * * * * * * * * * * * * * * * * * * * * ",
"* * * * * * * * * * * r * * * * * * * * * * * * * * * * * * * * % . # M ' ..;.1.1.u.S.Z.l.k.q.F % & * * * * * * * * * * * * * * * * * * * * * * * * * * * * * * ",
"* * * * * * * * * * * * * * * * * * * * * * * * * * * * * * * * & . $ M | *.>.1.;.s.).S.n.k.z.R . * * * * * * * * * * * * * * * * * * * * * * * * * * * * * * * ",
"* * * * * * * * * * * * * * * * * * * * * * * * * * % * * * * * &   $ C  .=.=.=.1.N.).S.n.l.x.R . * : * * * * * * * * * * * * * * * * * * * * * * * * * * * * * ",
"* * * * * * * * * * % * * * * * * * * % * * * * * * * * * * * * %   6 H  .&.=.1.3.N.).A.V.n.c.! o : : * * * * * * * * * * * * * * * * * * % * * * * * * * * * * ",
"* * * * * * * * * * * * * * * * * * * * * * * * * * * * * * * * & = 9 J ] &.=.1.1.N.R.S.V.V.M.!   : : * * * * * * * * * * * * * * * * * * * * * * * * * * * * * ",
"* * * * * * : * * * * : * * : * * * * : * : * : * * * : : : : > y a 4 A ' o.=.:.<.N.R.P.C.V.M.W . * - : : : * * * : * * * * * * * : * * : * : * * * * * : * * * ",
"* * : : : : : : * * : : : : : : * * : : * : = * * * : : : : y p i > O Z ' o.=.=.;.m.R.R.Z.Z.J.W   * : : : : : : : : : : * * * * : : : : : : : * * * : : : : : : ",
": : : : : : : : : * : : * : : : : : : : : : : * : : * : > y s u > = 2 Z / } *.=.;.j.R.P.Z.A.J.W . * : : : : : : : : : : : : : * : : : : : : : : * : : : : : : : ",
": : : : : : : : : : : : = : : : * : : : : : : : : : * > a s y : : . O Z / } &.=.;.j.R.P.S.K.L.! . % : : : * : : : : : : : : : : : * : : : : : : * : : : : : : : ",
"* : * : : : : : : : : : : : : : : : : * * : * : : : y s i : : * * . O B ( [ %.=.=.v.R.Y.S.K.L.! . * - : : * : : : : : : : : : * : : : : : : : : : : : : : : : : ",
": : : : : : : : * : : : : : : : : * : : : * % : : u s u : : * * % . O m ( [ o.*.*.s.T.Y.S.U.L.! . % : : * : : : : : : : : : : : : * : : : : : : = : : : : : : : ",
": : : : : : : : : : : : : * : : : * : : : : : > p p > : : : : : % . O m ( [ } &.*.s.S.W.P.U.H.W . % : : : : : : : * : : : : : : : : : * : : : : * : : : : : : * ",
": : : : : * : : : : : : : : * : : : : : : : u s u > : : : : : : * . o b I [ } $.&.u.S.Y.Y.E.L.R % % : : * : : : : : : : : : : : : = : : : * : : : : * : : : : : ",
": : : : : : : : : : : : : : : : : : : : > p p u : : : : : : : * . + o v I ( [ $.o.y.S.Y.W.E.G.U . % % * * : : : : : : : : * : : : : : : : : : * : : : : : : : : ",
": * : : : : : : : : : : : : : : : : : u s u : : : : : % * : : % * % + v D [ [ $.o.r.Z.!.^.W.M.F % % * * : : : : : : : : : : : : : : : : : : : : : : * : : : : : ",
": : : : : : : : : : : : : : : : : > u s u : : : : * % : : : : : * % o x D ^ [ } ..4.C.Q./.W.M.F = % % * : : : : : : : : : : : : : : : : : : : : : : : : * : : : ",
": : : : : : : * : : : : : : : : > s s u : : : : : : : : : : : * * = o q D [ [ $...3.B.Q./.^.w.j . % * * * : : : * : * : : : : : : : * : : : : : : : : : : : : : ",
": : : : * : : : = : : : : * : u s u > : : : : : * : : : : : : : * *   q S ^ [ }  .,.b.U./._.w.9 = : : * : : : * : : : : : : : * : : : : : * : : : : : : : : : : ",
": : : * : : * : : * : : : > p s , : : : : : : : * : : : : * : * * % + 4 A ^ ` { { =.j.K._._.w.8 . * % : : : : : : : : : : : : : : : : : : : : * : : : * : * : : ",
": : : * : : : : : : : : y p p > : : : : : : : : * : : : = : : * % = & 2 H / / } { O.a.A.^.!.7.< % % % : : : : : : = * : : : : : : : : : : : : = : : : : : : : : ",
": : : : : : : : * : > y s u : : : : : : : : : : : : : : : : : * % . % $ Z I / { X.o.y.V.R.I.Q @ = & * : * : : : : : : : : : : : : : * : : : : : : : : : : = : * ",
": : : * : : : : : > p s , : : : : * % : : * : : : : : : : : : = = . * $ b I _ [ { { e.b.B.F.U + = & ; * * : : : : : : : : * : : : : : : : : : : : : : : : : : : ",
": * : : : : : : u s u > : : : : : : : : : : : : : : : : = : : * % = : + x P _ [ { { 2.j.l.z.V + : % % : : : : : : : : : : : : : : : : : : : * : : : : : : * : : ",
": : : : % : > p p y : : : : : : : : : % : : : : : * : : * : : : = = : @ 5 D _ [ [  .*.a.n.5.7 : : * : * : : : : : : : : : : : : : : : : : : : : * : : : : : : : ",
"* : : : : y s p : : : : : : : : : * : : : : : : : : : : : : : % = : : - 3 C _ ] | |  .e.c.E $ t t : + : * : : : : % : * : : : : * : : : : : : : : : : : : : : : ",
": : : : u s u : : : : : : : : : : : : : : : : : : * : : : : : = = & t > - 0 C H J J J Y Q 0 % * * % . = = : : : : : : : : * : : : * : : : : : : : : : : * : : : ",
": : > s s > : : : : : : : : : : : : : * : : : : : : : : * : : : % & * e * = $ O $ O 3 2 $ . % * e * = * * : : : : : : : : : : : : : : : : : : : : * : : : : : : ",
"> i s p : : % : : : : : : : : : : : : : : : : * : : : : : : : * % % * * * * % . % * : + . . % * * * * * % : : : : : : : : : : : : : : : : : : : : : : : : : : : ",
"p s u : : : : * : : : : : : : : * = : : : : : : : : : : : : : = * % : * * * & & & % * % & % : : : t - : : : : * : : : : : : : : : : : : : : * : : : : : : : : : ",
"p > : : : * : : : : : : : : : : : : : : : : : : : : : : : : : * : = = = % = . . . % % = + = = : : t - t : : : : : : : * : : : : : : : : * : : : : : : : * t * : ",
": : : : : : : : : : : : : * : : : * : : : : : * = * : : : : : * = = = = . * : = % % = % * : : : : : : : % : : : : : : : * : : : : : : * : : : : : : : * * * : : ",
": : : : : : : * : * : = : : : : : : : : : : : : : : : : : : : : : : % . * * * * * * * * * * * * : : : - : : : : : : : : : : : : : : : : : : : : : : : : * * * * ",
": : : : : % * : * * * * * * * * * * * * * * * * * * * * * * * * * * * * * * * * * * * * e * * * * : : : * * * * * * * * * * * * * * * * * * * * * * * * * * * * ",
": * * * r * * * r * * * * * * * * * % * * * * * * * * * * * * * * * * * * * * * * * * * * * * * * * * * * * * * * * * * * * * * * e * * * * * * * * * * * * * * ",
"* * % * * * * % * & * * * * * * * * * * * * * * * * * * * * * * * * * * * * * * * * * * * * * * * * * * * * * * * * * * * * * * * * * * * * * * * * * * * * * * ",
"* * % * % * r * * * * * * & * r * * * * * * * * * * * * * * * * * * * * * * * * * * * * * * * * * * * * * * * * * * * * * * * * * * * * * * * * * * * * * * * * ",
"i y * * r p p p p u * * * r p u p y r * % * * * * * * * * * * * * * * * * * * * * * * * * * * * * * * * * * * * * * * * * * * * * * * * * * * * * * * * * * * * ",
"f f u * y f p d f f y * u g f s d d s t * * * * * * * * * * * * * * * * * * * * * * * * * * * * * * * * * * * * * * * * * * * * * * * * * * * * * * * * * * * * ",
"r p k u p f r * y f y * s g y : r p f r * * * * * * * * * * * * * * * * * * * * * * * * * * * * * * * * * * * * * % * * * * * * * * * * * * * * * * % * * * * * ",
"% r f f p f r * r g y e g s * % y g f e * % * * * * * * * * * * * * * * * * * * * * * * * * * * * * * * * * * * * * * * * * * * * * * * * * * * * * * * * * * * ",
"* * p k f f * * r k u p g u % * p g u * * * * * * * * * * * * * * * * * % * * * * * * * * * * * * * * * * * * * * * * * * * * * * * * * * * * * * * * * * * * * ",
"* * y k g d : * > g u d d : * > f d : * * * * * * * * * * * * * * * * * * * * * * * * * * * * * * * * * * * * * * * * * * * * * e * * * * * * * * * * * * * * * ",
"& % y k g d ; * > g a k i = * u l u : * * * : * * * * * * * * * * * : * * : : * : * : * : * : * * * * * : * * : * : : * * * : * * * * * : * * : * : : * * * : * ",
"% % > k g d : % > k k g > * : d g > : : : : : : * * * * : : * : : : : : : : : : : : * : : : : : * * * * : * : : : : : : : : : : * * * * : : : : : : : : : : : : ",
"* % > k f d ; % > k z a * - y l s : : : * : : : * * * * : : * : : : : : : : : : : : : : : : : : * * * e : : : : : : : : : : : : * * * * * : : : * : : : : : : : ",
"* % y k k d ; % > k k u % : s l u : : : * : : : : : * : : : : : : : : * : : : : : : : : : : : : * * : : : : : : : * : * : : : : * * : : : : : : : : : : : : : : ",
"> * > k k d * % > k d ; % > g g : : : : : : : : : : : : : : : : : : : : : : : * : : : * : : : : : * : : : : : : : : : : : : * : > * : : : : : : : : * : : : : : ",
"p p d k d d & % > g , % % u g u : : : : * : : : : : : : : : * : : : : * : : : : : : : : : : : : : : : * : : : : : : : : : : : : * : : : : * : : : : : : : : : * ",
"d d d i s d : & > d > = ; d d : : : : : : * : : : : : : : : : : : : : : : : : : : : : : : : : : : : : : : : * : : : : : : : : : * : * : : : : : : : : : : : : : "
};
