/* XPM */
static char *_1672937704[] = {
/* columns rows colors chars-per-pixel */
"80 80 253 2 ",
"   c #3C3C2D",
".  c #3B3929",
"X  c #2F3C38",
"o  c #353D33",
"O  c #3C3D34",
"+  c #3D353C",
"@  c #353C3C",
"#  c #3D3D3D",
"$  c #3B3535",
"%  c #323530",
"&  c #423B2E",
"*  c #423828",
"=  c #433433",
"-  c #433C34",
";  c #43363B",
":  c #423C3B",
">  c #4A3939",
",  c #3B412C",
"<  c #364323",
"1  c #354134",
"2  c #3B4134",
"3  c #35413C",
"4  c #3C413B",
"5  c #2F4336",
"6  c #424233",
"7  c #44413D",
"8  c #41402E",
"9  c #353C43",
"0  c #3C3C42",
"q  c #353B4C",
"w  c #3C3B4A",
"e  c #3A3444",
"r  c #2A3B59",
"t  c #333D53",
"y  c #363C57",
"u  c #2E3C4D",
"i  c #1F3E74",
"p  c #2C3E65",
"a  c #333C63",
"s  c #383D67",
"d  c #283D79",
"f  c #14345B",
"g  c #433B43",
"h  c #4A3B42",
"j  c #423A49",
"k  c #463947",
"l  c #433952",
"z  c #344243",
"x  c #3B4243",
"c  c #34424B",
"v  c #3A424B",
"b  c #3A4946",
"n  c #2D4159",
"m  c #354357",
"M  c #2C4245",
"N  c #284467",
"B  c #324369",
"V  c #2B4274",
"C  c #234678",
"Z  c #374572",
"A  c #2E5777",
"S  c #194477",
"D  c #414245",
"F  c #454248",
"G  c #42465F",
"H  c #1C4A89",
"J  c #1A5597",
"K  c #135199",
"L  c #274687",
"P  c #265483",
"I  c #274797",
"U  c #23569A",
"Y  c #364985",
"T  c #306D94",
"R  c #1B49A8",
"E  c #1957A9",
"W  c #194ABB",
"Q  c #1956B5",
"!  c #2255A7",
"~  c #2249AB",
"^  c #1867B9",
"/  c #1D71B7",
"(  c #2066BA",
")  c #246DA7",
"_  c #0B59C7",
"`  c #1858C9",
"'  c #095CD6",
"]  c #155AD7",
"[  c #164BCD",
"{  c #1867CA",
"}  c #1778C7",
"|  c #0C69D6",
" . c #1865D9",
".. c #0A77DB",
"X. c #1777D9",
"o. c #226CD1",
"O. c #1759E5",
"+. c #0B5FE5",
"@. c #1365E3",
"#. c #176AE9",
"$. c #0C75E9",
"%. c #1677E7",
"&. c #0E63F0",
"*. c #166CF2",
"=. c #0F78F4",
"-. c #187AF6",
";. c #0E66E6",
":. c #2368E2",
">. c #2377FB",
",. c #2571EF",
"<. c #1E89B8",
"1. c #178EDA",
"2. c #158BD1",
"3. c #0AA0DF",
"4. c #0B87E8",
"5. c #1589EB",
"6. c #0B97EA",
"7. c #1697EB",
"8. c #0D87F6",
"9. c #138BF4",
"0. c #1C8DFE",
"q. c #1785F7",
"w. c #0D9CFB",
"e. c #0C99F5",
"r. c #1392F3",
"t. c #129DF3",
"y. c #1393FC",
"u. c #1B94FD",
"i. c #149CFE",
"p. c #1C9BFA",
"a. c #1C99F3",
"s. c #2288F9",
"d. c #2297FF",
"f. c #208FE9",
"g. c #0BAAE9",
"h. c #14A8EA",
"j. c #0DB9EB",
"k. c #19B8ED",
"l. c #0CA8FA",
"z. c #14A3F5",
"x. c #14ADF4",
"c. c #1AAAF5",
"v. c #14A4FC",
"b. c #1AA3FC",
"n. c #14ABFE",
"m. c #1CACFD",
"M. c #1BA2F5",
"N. c #0BBEF5",
"B. c #0BB9FA",
"V. c #13B1F5",
"C. c #12BBF5",
"Z. c #1ABEF6",
"A. c #13B4FC",
"S. c #1CB4FD",
"D. c #14BCFD",
"F. c #1BBCFE",
"G. c #19B1F2",
"H. c #23AAFC",
"J. c #24B8FD",
"K. c #39BAF1",
"L. c #34B8DF",
"P. c #4BBDEF",
"I. c #0BC7EC",
"U. c #15C6EC",
"Y. c #0BCCF5",
"T. c #0DC4FC",
"R. c #0CCAFE",
"E. c #07C6F9",
"W. c #13C4F5",
"Q. c #14CCF5",
"!. c #14C3FD",
"~. c #1AC4FE",
"^. c #13CBFD",
"/. c #1ACAFD",
"(. c #1AC7F6",
"). c #0DD3F5",
"_. c #0DD4FD",
"`. c #0EDBF9",
"'. c #14D3F4",
"]. c #19D4F4",
"[. c #14DBF5",
"{. c #14D3FD",
"}. c #1AD4FD",
"|. c #13DBFD",
" X c #1BDCFE",
".X c #1BDCF4",
"XX c #13D4ED",
"oX c #24C4ED",
"OX c #36CAEA",
"+X c #35D7EE",
"@X c #23C9FA",
"#X c #26D7F8",
"$X c #35DAF9",
"%X c #34C3F7",
"&X c #0CE7FC",
"*X c #13E4FD",
"=X c #1DE2FC",
"-X c #1BECFD",
";X c #16E8F7",
":X c #0BF5F9",
">X c #13F1FB",
",X c #1DF2FE",
"<X c #13E2E9",
"1X c #22E4EC",
"2X c #25E5F9",
"3X c #38EBFC",
"4X c #3CF5FE",
"5X c #30CED7",
"6X c #44DAF9",
"7X c #50D4F9",
"8X c #64CCF7",
"9X c #4AE8FB",
"0X c #4CFEFC",
"qX c #46FAFB",
"wX c #54FCFE",
"eX c #5BFEFE",
"rX c #57F5FA",
"tX c #4CE7F1",
"yX c #77E8F8",
"uX c #6BFDFC",
"iX c #68FBFB",
"pX c #75FDFE",
"aX c #7AFEFD",
"sX c #71EDEE",
"dX c #8BEEF8",
"fX c #84FEFD",
"gX c #8CFEFD",
"hX c #8AF4F3",
"jX c #95FDFE",
"kX c #9CFEFF",
"lX c #9DF8F5",
"zX c #97EDEF",
"xX c #A4EAF8",
"cX c #A3FDFE",
"vX c #ABFEFE",
"bX c #A1F2F5",
"nX c #B3FEFE",
"mX c #BBFEFD",
"MX c #B6F7F7",
"NX c #B3F1F0",
"BX c #C3FEFE",
"VX c #CCFEFE",
"CX c #CAF7F7",
"ZX c #D4FEFD",
"AX c #DBFDFD",
"SX c #E1FFEE",
"DX c #E2FEFE",
"FX c #ECFEFE",
"GX c #E8FBF7",
"HX c #FDFDF4",
"JX c #F4FEFE",
"KX c #FDFDFE",
"LX c #FAFAF6",
/* pixels */
"# # # # # # # # : # # # # # # # # # # # # # # # # # # # # # # # x @ O : 7 # # 4 v o > , 0 : @ ; * % $ z 9 $ k x # # # # # # # # # # # # # 0 # # # # # # # # # # ",
"# # # # # # # # # # # # # # # # # # # # # # # # # # # # # # # # # # # : # @ # # 1 q # e g j # z Y T v = 6 D @ & # # # # # # # # # # # # # : # # # # # # # # # # ",
"# # # # 0 # # # # # # # # # # # # # # # # # # # # # # # : # # # # 4 0 0 0 0 : g O > b Q | d m 7.l.m.<.o : @ 3 - # # # # # # # # # # # # # # # # # # # # # # # # ",
"# # # # # # # # # # # # # # # # # # # # # # # # # # # # # # # # O : 0 x 0 # : # l , f V n r L 2.7.y.c.T - # 7 j # # # # # # # # # # # # # # # # # # # # 0 # # # ",
"# # # # # # # # # # # # 0 # # # 0 7 # # # # # # # # # # # # # # : # 0 0 # : O # - w q # : - 0 e s ! -.G.M > @ 0 # # # # # # # # # # # # # # # # # # # # # # # # ",
"# # # # # # # # # # # # # # # # # # # # # # # # # # # # # # # # : 0 @ # - O O @ m r = k o   j x   w Q T.A = g 1 # # # # # # # # # # # # # # # # # # # # # # # # ",
"# # # # # # # # # # # # # # # # # # # # # # # # # # # # # # # # 7 @ 0 4 : O 0 m J m 8 n # > 0 @ , > N A.T $ g 5 # # # # # # # # # # # # # # # # # # # 0 # # # # ",
"# # # # # # # # # # # # # # # # # # # # # # # # # # 0 # # # # # - # @ 4 : # v Z E ; > , h @ O : j $ r Z.<.g g g # # # # # # # 0 # # # # # # # # # # # # # # : 4 ",
"# # # # # # # # # # # # # # # # # # # # # # # # # # # # # # # # 0 # O 0 g . 3 Y ^ # . m v h 0 @ : O v j.7.g v 0 # # # # # # : 0 # # # # # # : x # # # # # # # # ",
"# # # # # # # # # # # # # # # # # # # # # # # # # # # # # # # # g # O 0 g O 3 B *.Y P X.b : O g   # t J.b.C . 4 # # # # # # # # # # # # # # # # # # # # # # # # ",
": 4 # # # # # # # # # 4 # # # # # # : # # # # # # # # # # # # # g # # @ j - @ q :.d.m.t.2 9 - x 0 O N }.v.E . : # # # # # # # # # # # # # # # # # # # # 0 # # # ",
"# # # 0 # # # # : # # 0 # # # # # # 0 # # # # # # # # # # # # # # # 4 O # g # O N X.} A $ w g 0 j $ ) `.w.Q : w # # # # # # # # # # # # # # # # # # # # # # # # ",
"# # # # # # # # # # 0 # # # # # # # # # # # # # # 0 # # # # # # # # # # # g # - O j q . D g 0 4 * C b.|.u.^ ; x # # # # # # # # # # # # # # # # # # # # # # # # ",
"# # # # # # # # # # : # # # # # # # # # # # # # # # # # # # # # # 7 # # # # g 6 h - 6 4 0 # & * u } }.C.s.{ * 0 # # # # # # # # # # # # # # 0 # # # # # # 4 # # ",
"# # # # # # # # # # # # # # # # # # # # # # # # # # # # # # # # @ 2 g 0 # # @ : + c > 0 $ 3 D a } !.<X7.y.) * v # # # # # # # # # # # # # # # # # # # : # : 0 # ",
"# # 0 # # # # # # # # # # # # # # # # # # # # # # # # # # # # # 0 O # j - 2 0 0 2 3 + z 7 O C $.T. X!.r.w.A = 4 # # # # # # # # # # # # # # # # # # # # # # # # ",
"# # # # # # # # # # # # # # # # # # # # # # # # 0 O : D # $ : 6 3 0 : g 0 0 0 g x @ : : r Q r.Q.]._.j.4.0.G . : # # # # # 0 : 4 # # # # # # # # # # # # # # # # ",
"# # # # # # # # # # # # # # # # # # # # # # # # j 0 1 O j v w 9 h 0 3 4 O - O 1 4 - t R =.n.}.^.{.].f.$.5.o D 3 # # # # # # # # # # # # # # # # # # # # # # # # ",
"# # # # : # # # # # # # # : x # # # # # # # # # o @ 0 k # 1 1 > O O   2 3 9 0 w r R | w.!.|.).{./.!.=.M.U & O : # # # # # # # # # # # # # # # # # # # # # # # # ",
"# # # # # # # # # # # # # # # # # # # # # # # # 3 g > O O 2 O 9 a B L ~ W W [ _ #.6.!.^.Q.^.W.].}.6.4.e.C D 3 ; # # # # # # # # # # # # # # # # # # # # # # # # ",
"# # # # # # # 0 # # # # 0 # # # # # # # # # # # 0 6 0 w # 9 L ` | 4.r.u.q.4.7.c.@X{.{.!.Y.R.^.}.h.} i.{ - o 4 j # # # # # # # # # : x # # # # # # # # # # # # # ",
"# # # # # # # # # # # # # # # # # # # # # # # # 0 0 # @ V [ 8.V.!.D.D.D.!.^.!.R.R.R.E.^.^._.{.n.| q.q.Z + . 8 : # # : # # # # # # # # # # # # # 0 : # # # # # # ",
"# # # # # # # # # # # # # # # # # # # # : # # # @ D 3 d #.v.U.!.!.R.T.D.V.g.A.!.R.R.{.Q.g.A.H.' &.X.A u Q B 7 o # # # # # 0 # # # # # # # # # # # # # # # # # # ",
"# # # # # # # # # # # # # # # # # # # # 0 # # # g & N  .b.W.T.D.!.A.x.z.A.D.^.^.Z.Q.D.t.S.M._ R Y u = $ J Y * b # # # # # # # # # # # # # # # # # # # # # # # # ",
"# # # # # # # # # # # # # # # # # # # # # # # : 0 # _ i.A.I.J.D.n.z.n.D.!.~.F.D.S.g.l.S.t.Q q 4 - # x w q 0 0 @ # # # # # # # # # # # # # # # # # # # # # # # # ",
"# # # # # # # # # # # # # # # # # # # # # # # # h S 5.H.n.R.S.6.h.A.^.E.N.!.^.!.x.!.B.5.~ q : q O # # 0 x 0 # # # # # # # # 0 # # # # 0 # # # # # # # # # # # # ",
"# # # # # # # # # # # # # # : # # # # # # # O # j _ i.m.D.x.5.z.A.!.!.Z.!.R.R.D.S.6.' L @ O 4 h # # # @ 0 @ # # # # # # # # # # # # # # # # # # # # # # # # # # ",
"# # # # # # # # # # # # # # # # O # # # # # # # N -.b.l.!.X.-.A.A.C.D.!.!.D.z.a.| ' I h x 3 o # # # # 4 # # # : # # # # # # # # # # # # # # # # # # # # # # # # ",
"# # # # # 0 # # # # # # 0 # # # # # # # # # O # U 0.c.n.7.%.u.l.T.F.F.n.r.$.| | *.Q @ . w 7 7 # 0 0 # 7 2 : # g # # # # # # # # # # # # # # # # # # # # # # # # ",
"# # # # # 7 # # # # # # # # # # # # 0 4 # # # 4 Q 0.c.m...-.p.m.A.r. ._ '  .*.d.;.B : # # q @ 4 # # # O # # # # # # # # # # # # # # # # # # # 0 # # # # # # # # ",
"# # # # # # # # # # # # # # # # # # # : # # O # R s.H.5.;.q.p.p.X.] ] ] %.q.8.q.R @ > @ # h 3 z @ # # # # # 0 # : 4 # # # # # # # : # # # # # # # # # # 7 # # # ",
"# # # # # # # # # # # # # # # # # # # 0 # # 4 - E 0.i.%.-.5.d.| [ { o.] #.q.$.%.V   g @ o g = : # # # # # 0 # # # 0 # # # # # # # # # # # # # # # # # # 0 # # # ",
"0 # # # # # # # # # # # # # # # # # # # # # # # L =.y.=.-.1.>.`  . . .:.#.8.-.;.a @ j g 1 z 0 # 0 0 $ 0 # - @ 1 4 # # # # # # # # # # # # # # # # # # # # # # # ",
"# # # # # # # # # # # # # # # 4 # # # # # # # # p X.s. .-.a.O.O.:.,.:.:.$.9.%.@.C < * k - : h @ o O g 3 9 0 6 l # # # # # # # # # # # # # # # # # : # # # # # # ",
"# # # # # # # # # # # # # # # 0 # # # # # # # # w Q ,. .*.q.@.] :.,.>.:.=.y.%.#.O.C q y 9 - - h w 2 2 @ # O 0 : # # # # # # # # # # # # # # # # # # # 0 # # # # ",
"# # # # # # # # # # # # # # # # # # # # # # # # > d O.O.[ ] =.@.&.-.>.#.=.y.%.%.-. .| ` R C b . h x 1 - h : 3 o # # # # : # # # # # # # # # # # # # # # # # # # ",
": # # # # # # # # # # # # # # # # # # # # # # 0 + 3 L I z N ` ] ] ] >.| q.e.9.5.q.5.r.y.q.*.` V + 4 g : e j 2 0 # # # # # # # # # # # # # # # # # # # # # # # # ",
"4 # # # # # # # # # # # : # # # # # # # # # # : . 2 o # > O c B s Y O.%.9.x.a.-.7.s.p.b.i.u.q.%.J n ; # 3 # # x # # # # # # # # # # # 0 # # # 0 # # # # # # # # ",
"# # # # # # # # # # # # # # # # # # # # # # # 0 l O : j @ : h * . v ] 8.i.B.m.-.q.d.a.7.i.a.7.u.q.` N 2 4 O O : # # # # # # # # # # # 4 # # # # # # # # # # # # ",
"# # # # # # # # # 0 : # # # # # # # # # # # # # o j # 1 # O 9 v z y @.r.b.j.A.q.0.i.i.d.d.t.8.q.b.q.` B * : w 0 # # # # # # # # # # # : # # # # # # # # # # # # ",
"# # # # # # # # # # # # # # # # # # # # # # # # X : g : 6 # q ; 4 K -.B.l.n.Y.t.-.s.d.w.b.b.i.8.9.H.8.W 1 h 0 7 # # # # # # # # # # # # # # # # # # x : # # # # ",
"# # # # # # # # 0 # # # # # # # # # # # # : # # j $ o 0 w 2 4 - t ] i.S.t.S.C.F.l.6.p.b.v.l.n.9.5.i.J.| d O w o 0 # # # # # # # # # # # # # # # # # # # # # # # ",
"0 # # # # # # # # # # # # # # # # # # # # # # # h O @ w + 0 4   K 9.@X6.l.^.~.!.~.h.l.n.b.v.n.e.%.y.J.e.W 2 D 2 # # # # # # # # # # # # # # # # # # # # # # # # ",
"# # # # # # # # # # # # # # # # # # # # # # # # # 4 j : 3 # : N -.V.F.e.D.N.[.;X{.T.!.A.m.6.6.b.-.s.V.B.#.n $ g # # # # # # # # # # # # # # # # # # # # # # # # ",
"# # # # # # # # # # # # # # # : # # # # # # # # # x O - j * u ` i.Z.w.n.Z.!.*X&X_.R.T.B.!.D.z.6.$.s.c.^.9.L $ 0 # # # # # # : # 0 : # # # # # # # # # # # # # # ",
"# # # # # : # # # # # # # # # # # # # # # # # # # 0 o 0 - O J y.Y.H.l.j.j.T.%X7XK.x.~.Z.T.!.F.B.9.$.M./.b.E + # # # # # # # # # # # # # # # # # # # # # # # # # ",
"# # # # 0 # # # # # # # # # # # # # # # # # # # # 0 x D # P q.D.C.9.n.C.}.I.8XnX7Xk.Z.~.!.D.~.R.J.6.z.!.D.` 9 O # # # # 4 0 # # # # # # # # # # # # # # # # # # ",
"# # # # # # # # # # # # # # 0 4 # # # # # # # # : : 0 . a X.D.^.S.N.|.).-X-X1X3X=X*X XE.E.^.F.Z.T.Z.l.W.D.{ q 6 # # # # # # # # # # # # # # # # # # # # # # # # ",
"# # # # # # # # # # # # # # # # j O 1 w h @ 0 = 4 k , a ..F.E.~.`.>X;X:X:X=X=X&X>X-X>X`.^.!.T.D.D.(.Z.!.Y.%.t 4 8 : j # : : 0 2 # # 0 4 # # # # # # # # # # # # ",
"# # # # # # # # # # # # # # # # 0 0 - # 1 # g @ # . N %.S.T.{.[.:X;X:X-XtXxXnXbXlXyX$X>X-X.X}.R.!.!.~.D.^.5.a o 4 0 3 O # 0 # # # # # : # # # # # # # 0 # # # # ",
"# # # # # # # # # # # # # # 0 : o 0 g # 1 , g z h c  .t.C.^.<X:X1XpXsXzXJXKXLXJXSXDXyX1X:X>X-X_.!.I.Q.D.T.m.L 7 v w 1   0 g O g # # # # # # # # # # # # # # # # ",
"# # # # # # # # # # # # # # # # 2 : w + # # 4 : q [ 8.k.-X=X-X#XxXKXKXLXKXKXGXLXAXGXZXhXtX;X;X;X^.|.E.~.T.V./ + - w 0 2 3 @ # g # # # # # # # # # # # # # # # 0 ",
"# # # # # # # # # # # # # # # # # : 9 , : l $ w E 8.W.;X:X:X].xXLXLXLXKXKXKXJXLXFXDXAXZXmXgX9X#X}.{.*XR.!.T.7.a . g j # # x # : # # # # # # # # # # # # : # # # ",
"# # # # # # # # # # # # # # # # 0 0 g 2 4 ; 3 J y.U.|.:X6XOXyXLXJXJXKXKXHXLXKXKXLXDXAXVXNXMXkX+XW.U. X).!.^.A.E   # k : 2 @ 0 # # # # # # # # # # # # # # # # # ",
"# # # # # : x # # # # # # # # # # 0 g 0 # o A r.@XE.|.$XZXNXAXLXKXKXKXKXKXKXKXKXJXFXZXBXmXnXcXsXU.#X@X X^.I.~.X.y 3 : g # 4 0 # # # # # # # # # # # # # # # # # ",
"# # # # # # # # # # # # # # # # O # # g * B %.^.R._.U.xXKXSXLXKXKXHXJXKXKXKXKXKXKXFXAXZXBXMXvXjX6XOX9X].{.Q.~.i.I b , 0 + 4 0 - # # # # # # # # # # # # # # # # ",
"# # # # # # # # # # # # # 4 # # 0 > 4 j 9 } D.T.T.B.K.GXDXCXLXKXKXKXKXKXKXKXKXKXKXFXAXZXBXnXcXjXsX~.qX.X'./.R.x.+.C   # g 3 j : # # # # # # # # # # # # # # # # ",
"# # # # # # # # # 0 # # # : # # @ : o g V 1./.R.{.B.8XKXNXMXKXKXKXKXKXKXKXKXKXKXKXFXAXVXBXnXcXjXfX$X3X3X~.!._.v.-./ j # $ # # O # # # # # # # # # # # # # 0 # # ",
"# # # # # # # # # # # # # # # # : x @ O ! c.{.R.Y.N.8XLXlXmXKXKXKXKXKXKXKXKXKXKXJXFXAXVXmXnXkXjXgX6X$XwXoXR.{.h.M.e.y 4   g 0 2 # # # # # # # # # # # # # # # # ",
"# # # # # # # # # # # # # 0 # # : 3 # 0 { D.Q.R.{.I.K.sXMXJXLXJXKXKXKXKXKXKXKXKXJXFXZXBXmXnXkXjXfX9X#XeX@XT.Q.6.W.e.w 0 o 0 g @ # # # # # # : 0 # # # # # # # # ",
"# # # # # # # # # # # # # # # # h 1 7 w | R.R.^./.Y.,X<XCXKXKXLXKXKXKXKXKXKXKXJXFXDXZXBXnXvXjXgXaX6X@X0X@XT.Q.V.^.} e @ # 9 h 0 # # # # # # # # # # # # # # # # ",
"# # # # # # # # # # # # # # # # k O - q X.^.^.Q.T.*X:X9XFXHXKXKXKXKXKXKXKXKXJXJXDXZXBXmXnXcXjXfXfX6X$X0X#XI.).~.n.U - 0 # 0 - - # # # # # # # x # # # # # # # # ",
"# # # # # 0 # # # # # # # # # # x @ : w { /.R.!._. X5XxXZXFXFXJXKXJXKXKXJXFXDXDXZXVXmXnXvXkXgXfXpX#X$XqX#X!.{.n.| y # 0 4 # O # # # # # # # # : # # # # # # # # ",
"# # # # # : # # # # # # # # # # 2 w 2 w ^ (._.^.{.C.xXVXlXGXDXJXJXJXJXJXFXDXAXZXZXBXnXvXcXjXfXfXrX`.1XqX#X!.{.4.R 4 O # , : 9 x # # # # # # # # # # # # # # # # ",
"# # # # # # # # # # # # # # # # w h 3 - J D.W.'.^.oXMXcXdXAXAXZXDXDXDXAXAXAXZXVXmXnXvXcXjXhXfXiXOX}.2X4XQ.Q.Z.$.N x : : # # 0 # # # # # # # # # # # # # # # : # ",
"0 # # # # # # # # # # # # # # # 0 O # - n z.{.(.W.J.nXdXsXZXCXZXZXZXZXZXVXVXBXBXnXvXbXjXgXfXpXtX_.`. X#XQ.'.!.8.B x : g # O # # # # # # # # # # # # 0 # # # # # ",
"7 # # # # # # # # # # # # # # # O 2 j : + / ^.{.}.V.dXfXsXmXVXMXBXBXBXBXmXnXnXvXvXkXjXgXaXpXiXoX`.`.^.Y.{._.!.%.q @ : g @ 0 # : # # # # # # # # # # # # # # # # ",
"# # # # # # # # # # # # # # # # O D # o : m 2.{.}.N.8XyXP.vXnXnXnXnXmXnXnXvXcXcXkXjXfXfXpXiXrXD. X}.{.{.].).~.^ 0 O # : 4 @ 0 : # # # # # # # # # # # # # # # # ",
"# # # # # # # # # # # # # # # # # k # 1 0 = P h.{.Y.%XL.M.jXlXcXcXcXvXcXcXkXjXjXjXfXaXpXuXiX9XT.).}. X^.^.{.n.H : # # 4 0 + # : # # # # # # # # # # # # # # # # ",
"# # # # # # # # # # # # # # # # 0 0 # # O # # ^ ~.`.I.V.Z.7XjXjXjXjXkXjXjXjXgXfXfXpXpXuXeXeX$XC.[.{.}.Y..X^...b O g # 4 @ 0 O # # # # # # # # # # # # # # # # # ",
"# # # # # # # # # # # # # # # # 0 # 0 : : c * L t.}.XX}.|.k.uXgXfXfXfXgXfXaXaXpXpXiXeXrXwXqXoXQ.=X_.{.[.(.7.S 6 - 0 0 2 : 0 # # # # # # # # # 4 # # # # # # # # ",
"# # # # # # # # 0 : # # # # # # 2 : x - w 4 2 Z y.{.).{.`.^.OXiXpXpXaXpXpXpXuXuXiXrXeXwX0X3Xj.}.{.{.^.{.u.H < l 2 w 0 , : j # # # # # # # # : 0 4 : 0 # # # # # ",
"# # # # # # # # # # # # # # # # # # # # # # # # _ m.|.).{.|.{.oXuXuXuXuXtX9XeXeXwX0XqXqX3XXXY. X^.}.Q.2.V + D # # # # # # # # # # # # # # # # # # # # # # # # # ",
"# 0 # # # # # # # # # # # # # # # # # # # # # # m J r.^.{. X XXX+XwXwX$XW.}.3X0XqXqXqX3X].R. X'.|._.X.r , v # 3 # # # # # # # # # # # # # # 0 4 # # # # # # # # ",
"# # # # # # # # # # # # # # # # # # # # # # # # O + B Q 4.D. X_.I.'.^.).;X;X[.#X1X3X#XI.{.[.`.[.W.^ 0 7 9   : 4 # # # # : # # # # # # # # # # # # # # # # # # # ",
"# # # # # # # # # # # # # # # # # # # # # # # # 0 #   - p ^ z.^.{.2X2X&X`.&X;X[.|.Y.Y.*X*X|.~.g.J # ; b 2 @ + : # # # # # # # # # # # # # # # # # # # # # # # # ",
"# # # # # # # # # # x # # # # # # # # # # # # # @ h # 1 6 ; d $.i.l.W.[.=X|.|.&X*X-X;X_.D.5.U c . D 0 $ : 4 9 g # # # # # # # # # # # # # # # # # # # # # # # # ",
"# # # # # # # 0 # # : # # # # # # # # # # # # # D # + 0 0 @ z q J } 5.$.6.5.6.e.e.5.{ U N @   > F % O h @ 0 g # # # # # # # # # # 0 # # # # # # # # # # # # # # ",
"# # # # # # # # # # # # # # # # # # # # # # # # O 0 j D 4   6 > $ v y r w q t a y q 0 > - & - # 6 0 0 2 g 0 2 : # # # # # # # # # # # # # # # # # : 0 # # # # # ",
"# # : # # # # # # # # # # # # # # # # # # # # # x - 2 @ 0 g 7 @ : O # 7 O O - O # # 2 # w w x 3 0 O 4 0 # : 0 3 # # # # # # # # # # # # : # # # # # # # # # # # "
};
