/* XPM */
static char *_e868f5a464a4278af6baf8d0a18584dQUJ5e0RvMYBbXq35[] = {
/* columns rows colors chars-per-pixel */
"80 80 250 2 ",
"   c #26263E",
".  c #2B2D3B",
"X  c #3B3B37",
"o  c #31303D",
"O  c #35343C",
"+  c #363A3D",
"@  c #39383A",
"#  c #3D3D3D",
"$  c #1F2F53",
"%  c #1D2759",
"&  c #252847",
"*  c #282C4F",
"=  c #2E3945",
"-  c #2C3449",
";  c #2E3A4C",
":  c #333543",
">  c #343B43",
",  c #393B41",
"<  c #333C4A",
"1  c #3B3E49",
"2  c #273556",
"3  c #2C3B52",
"4  c #243A5B",
"5  c #293E5C",
"6  c #323E53",
"7  c #122168",
"8  c #1D3468",
"9  c #1B347B",
"0  c #263867",
"q  c #283F74",
"w  c #35414D",
"e  c #38434F",
"r  c #2D4155",
"t  c #2C425D",
"y  c #344354",
"u  c #33455B",
"i  c #38495E",
"p  c #2C4364",
"a  c #2A466C",
"s  c #334562",
"d  c #354B64",
"f  c #394C66",
"g  c #3C5268",
"h  c #3C516D",
"j  c #2A4B77",
"k  c #354A73",
"l  c #2D5279",
"z  c #385576",
"x  c #3D5C7D",
"c  c #444E66",
"v  c #44556B",
"b  c #435B74",
"n  c #485D78",
"m  c #46617B",
"M  c #53667F",
"N  c #1C3C8B",
"B  c #1D4194",
"V  c #295589",
"C  c #2E508D",
"Z  c #365B87",
"A  c #254C97",
"S  c #38628B",
"D  c #386696",
"F  c #3C739F",
"G  c #1F47A8",
"H  c #2655AA",
"J  c #2D58AA",
"K  c #2759B9",
"L  c #3767A4",
"P  c #3E75A7",
"I  c #2D61BC",
"U  c #3568B8",
"Y  c #3976BC",
"T  c #475E88",
"R  c #476687",
"E  c #4C6684",
"W  c #556A88",
"Q  c #52708E",
"!  c #466A92",
"~  c #4C7398",
"^  c #567798",
"/  c #637B99",
"(  c #4777A7",
")  c #4975AF",
"_  c #537EA7",
"`  c #4879B6",
"'  c #265AC7",
"]  c #295FD1",
"[  c #2C64C3",
"{  c #2A62CC",
"}  c #336CC9",
"|  c #3A77C8",
" . c #2B64D3",
".. c #2E6AD3",
"X. c #2C66D9",
"o. c #316DD2",
"O. c #306EDB",
"+. c #3473D3",
"@. c #3677DB",
"#. c #2E6BE0",
"$. c #367AE4",
"%. c #377CE5",
"&. c #447CCD",
"*. c #5C83A7",
"=. c #4984B9",
"-. c #5687B9",
";. c #5E93BD",
":. c #6283A3",
">. c #6B8BAB",
",. c #728BA6",
"<. c #7B90A7",
"1. c #668DB7",
"2. c #6C95BB",
"3. c #7895B5",
"4. c #3E80C5",
"5. c #3D84D8",
"6. c #3C83E5",
"7. c #3C85EA",
"8. c #4888C9",
"9. c #548AC7",
"0. c #4C92CC",
"q. c #5895C9",
"w. c #488AD7",
"e. c #588BD1",
"r. c #4C93D9",
"t. c #549ADA",
"y. c #6B9BC5",
"u. c #6899D1",
"i. c #5DA1CE",
"p. c #55A2DB",
"a. c #58A4DA",
"s. c #67A6D8",
"d. c #70ABD2",
"f. c #75ADD8",
"g. c #78B2DC",
"h. c #418AE9",
"j. c #4A95E8",
"k. c #559CE5",
"l. c #4B99F1",
"z. c #4DA0E9",
"x. c #54A2ED",
"c. c #58A8E8",
"v. c #5DADEC",
"b. c #5DB2ED",
"n. c #55A8F2",
"m. c #5BAEF3",
"M. c #5DB3F3",
"N. c #5FB8F7",
"B. c #60A6E4",
"V. c #62ACE5",
"C. c #6CACE5",
"Z. c #64ADEA",
"A. c #73AFE3",
"S. c #6BB2E4",
"D. c #66B5E9",
"F. c #63B4EC",
"G. c #6CB5EB",
"H. c #6BBBED",
"J. c #74B3E3",
"K. c #7BB5E5",
"L. c #77B8E9",
"P. c #74BDED",
"I. c #63B5F1",
"U. c #64BBF4",
"Y. c #6BBDF3",
"T. c #68B9F4",
"R. c #74BDF2",
"E. c #6FC1EF",
"W. c #78C2ED",
"Q. c #6CC1F5",
"!. c #6FC3F8",
"~. c #72C4F4",
"^. c #7BC5F2",
"/. c #76C8F7",
"(. c #7DCBF5",
"). c #8197B0",
"_. c #89A9C7",
"`. c #8DB5CE",
"'. c #98B5CC",
"]. c #85ACD2",
"[. c #89B6D8",
"{. c #97BAD6",
"}. c #A1B7C9",
"|. c #87BDE6",
" X c #92BFE7",
".X c #99C1D9",
"XX c #A6C6D8",
"oX c #B4C8D7",
"OX c #83C4EB",
"+X c #87C5EB",
"@X c #8DCCEE",
"#X c #96C7E8",
"$X c #85D0EF",
"%X c #98D4EE",
"&X c #82C6F1",
"*X c #86CAF5",
"=X c #84CDF4",
"-X c #8BCDF3",
";X c #92CDF2",
":X c #85D1F6",
">X c #8CD4F6",
",X c #8BD4F8",
"<X c #93D5F5",
"1X c #9AD5F4",
"2X c #94D8F5",
"3X c #9BDAF5",
"4X c #94D6F8",
"5X c #98D9F9",
"6X c #A0CCEA",
"7X c #A5D5EB",
"8X c #ACD5EB",
"9X c #B4D8EB",
"0X c #A4D5F4",
"qX c #A3DCF5",
"wX c #ABDCF3",
"eX c #ACD9F7",
"rX c #A3DDF8",
"tX c #B5DEF5",
"yX c #ACE1F5",
"uX c #A4E2F8",
"iX c #ADE2F9",
"pX c #B5E3F5",
"aX c #BAE4F5",
"sX c #B4E4F9",
"dX c #BAE5F9",
"fX c #BDE8F8",
"gX c #C0DEEE",
"hX c #C2E1EE",
"jX c #C4E4F4",
"kX c #C5E7F7",
"lX c #C4EAF6",
"zX c #CBECF5",
"xX c #C4EAF9",
"cX c #CBEDFA",
"vX c #D3EDF6",
"bX c #D9EDF7",
"nX c #D4EFF9",
"mX c #D3F0F7",
"MX c #DBF1F6",
"NX c #D3F1F9",
"BX c #DBF2FA",
"VX c #E3F3F6",
"CX c #EBF6F6",
"ZX c #E3F5FA",
"AX c #ECF6F9",
"SX c #EAF8F8",
"DX c #EDF9FB",
"FX c #F3FAF6",
"GX c #F4FAFB",
"HX c #FAFCFB",
/* pixels */
"# # # # # # # # # # # # # # # # # # # # # # # # # # # # # # # # # # # # # # # # # # # # # # # # # # # # # # # # # # # # # # # # # # # # # # # # # # # # # # # # ",
"# # # # # # # # # # # # 1 # # # # # # # # # # # # # # # # # # # # # # + # # # # # # # # > # , X # # # # # # # # # # + # # # # # # # # # # # # # # # # # # # # # ",
"# # # # # # # # # # # # # # # # # # # # # # # e # # # # # # # # # X # # # # # # # X # 1 W v + # # X X # X + # # # @ X # @ + X # # # # # # # # # # # # # # # # # ",
"# # # # # # # # # # # # # # # # # # # # # # # # # # # # # # # # # , # # # # # # # + , W oXE @ # # + e < + + # # # # X X e d < , # # # # # # # # # # # # # # # # ",
"# # # # # # # # # # # # # # # # # # # # # # # # # # X # # # # # y v , : > = < : < ; Z [.:.y , # @ + R m = X # # # # : u ,.d.h + # # # # # # # # # 1 # # # # # # ",
"# # # # # # # # # # # # # # # # # # # # # # # + # # @ # # + X < <._.k Q :.:.:._ :.*.q.s.j 3 3 3 3 ; w w @ X # X + > 8 j 2.R 1 # # # # # # # # # # # # # # # # # ",
"# # # # # # 1 # # # # # # # # # # # # # # # # # # X # + t p p F #X|.].9XcXBXbXcXxXlX+XJ.].y.q.=.8.P a t > + + X # > 3 3 3 > X # # # # # # 1 # # # # # # # # # 1 ",
"# # # # # # # # # 1 # # # # # # # X # # # # , : # e b T _.XX.XW.|.gXxX-XdXVXDXBXzXyXpXwXuX>X2X>X~.F.p.t.D l t # # + + # # # # # # # # # # # # # # # # # # # # # ",
"# # # # # # # # # # # # # # # # # # # # X < d Q ^ ,.9XjXkX3XuXfXhXFX;X(.sXlXzXNXCX9XpXpX;X&X3X2X(.Q.U.Y.F.M.=.a < , # # # # # # # # # # # # # # # # # # # 1 # # ",
"# # # # # # # # # # # # # # # # # # X < t :.`.jXlXVXFXbX;X~.4XqXvXFXtXP.>X1X4X<XfXMXMXbXxXiX5X=X/.b.H.-X~.U.U.0.P 6 + + X # # # # # # # # # # # # # # # # # # # ",
"# # # # # # # # # # # # # # # # X : f Q f.8XNXBXAXGXnXtXZ.T.(.<XxXZXAX8XH.G.Y.=X<XdXdX3X1X<X*XF.;X9XqX3X(.T.~.~.F.( j a > # # # # # # # # # # # # # # # # # # # ",
"# # # # # # # # # # # # # # # # + b XX8XOXwXNXGXFXjX#X|.A.k.t.+XkXcXVXDXvXkX-X~.Q.=X(.H.T.(.T.T.pXMXyX>XQ.I.&X>XY.b.b.t.D a + # X # # # # # # # # # # # # # # # ",
"# # # # e X # # # # # # # # # # n XXVX7XR.aXMXFXbX|.#X9XwXS.G.2XyXxXcXZXGXHXZXlX@XF.m.R.L.m.H.tXMXyXOXs.v.R.yX>XQ.U.U.U.n.4.l r + X w # # # # # # # # # # # # # ",
"# # # # # # # # # # # # # # # M .XVXCXaX^.<XvXFXvXf.8X|.B.l.Y.=X4XiXkXxXbXZXFXFXZXjX1XwXhXtXzXMXyX^.g.g.a.wXpX:XQ.U.U.N.m.m.p.P u # X X # # # # # # # # # # # # ",
"# # # # # # # # # # # # + X e ^ jXAXCX;XP.<XcXAXVXwXf.#X8XG.m.T.(.>X5XrXdXcXNXVXAXzXqX5XyXxXfXqX~.U.F.p.L.bXyX!.U.Q.Q.M.b.U.Q.N.=.u X X # # # c # # # # # # # # ",
"# # # # # # # # # # # X X w Q 6XbXFXvXI./.1XyXaXnXnXzXbXVXpX+XT.m.I.Y.R.1XiXiXyX<X=X&X4X2X2X>X/.M.m.m.m.:XlX3XQ.Q./.E.n.N.~./.Q.Q.*.c # # # # # # # # # # # # # ",
"# # # # # # # # , # # X < Q  XtXvXFXjXI.T.&X,X>X3XkXnXDXHXVXcXwX0XeX0X0X1XH.Q.Q.U.-XeXtX;XY.T.I.*X0XeX0XpXqX4XQ.~.-XC.k.T.>X4X>X~.I.=.r X X # # # # # # # # # # ",
"# # # # # # # # , X X y ~ #XK.k.#XFXbX1XG.T.R.,X>XqXxXBXGXSXcXZXGXGXGXGXvX-XI.G.+X8XlXVXbX&XR.0XSXGXBXlX3X4X>XQ.Q.P.|.+XZ.$X3X3X(.Q.p.l X e # # # # # # # # # # ",
"# # # # # # # # , X < ^ s.|.J.L.jXGXVXcXlXaX5X(.(.3XaXcXBXNXxXsXdXcXBXHXFXBXlXlX9X[.#XCXFXFXDXSXnXfXsX3X<X4X(.U.~.>XZ.L.S.G.pXxX3XQ.N.=.; # # # # # # # # # # # ",
"# # # 1 # # # # X X 4 9.+XK.J.wXzXZXHXAXBXzXqXU.Y.,X1XsXsX3X5X,X5XeXcXNXFXHXCXvX X#Xg.tXMXMXcXsX3X>X>X<X>X=XQ.U.^.H.&XL.V.*XlXZXuXU.N.=.3 X # # # # # # # # # # ",
"# # # # # # # # X + h `.>Xs.@XfXNXBXHXHXGXBXxX-XM.Y.-X<X=XY.^.(.:X<XtXrXpXcXmXzX|.;X|.K.cXdX3X2X>X^.Y.Q.Q.Y.F.>XdXeXlXsX-X>X<XeXQ.b.U.b.S + # # # # # # # # # # ",
"# # # # # # # # + c }.aXL.G.:XyXcXcXZXHXHXZXNXlX;XM.m.M.M.+XfX;XY.5X5X:X4XrXsXlX6X|.6XL.0X3X,X(.-XqXT.b.N.U.H.yXcXnXZXxX>X~.U.N.n.N.U.N.L w # # # # # # 1 # # # ",
"# # # # # # # # @ / vXL.c.=X(.2XxXcXcXBXBXBXcXcXcX1X;X*XC.wXzXlXqXdXrX(.Y.:X2XwXjXL.8XP.S.,XY.m.qXnXtX-XF.F.wXzXnXDXBXrX=XU.U.m.N.Q.Q.b.D = # # # # # # # # # # ",
"# # # # # # # # g oX8X~ 0.b.(.2XiXfXfXrXiXcXcXBXDXBXcX#X X[.lXzXzXcXxXwXV.U.Y.>X3X-XK.C.G.R.R.8XMXGXGXAXjXdXNXAXDXBXsX5X>X/.U.U.Q.(.(.8.d + # # # # # # # # # # ",
"# # # # # # # # M aX3.r p S v.(.:X>X5X4X5XsXnXDXHXFXBXK.L.C.jXzXcXcXcXcXqXP.H.T.-X:X~.V.Y.~.aXVXHXGXZXDXDXHXGXDXZXlXdXfXqX/.U.U.E.(.Q.=.r + # # # # # # # # # # ",
"# # # # # # # # c :.x + # < S P 8.Q.,X4X4XsXcXBXHXHXSX6XC. XNXVXAXZXNXcXcXxXlX&XI.Y.I.M.P.pXVXCXBXcXcXzXcXBXZXNXBXBXnXxXrX/.N.N.b.U.a.S w + # X # # # # # # # # ",
"# # # # # # # # , = w X # + : = a q.:X:X4XrXfXnXBXZXmXBXnXAXHXHXHXHXGXNXcXcXcXfX0XR.b.~.aXvXnXcXiX4XqXsXxXjXfXfXrXsXxXqX(.Q.U.m.Y S l + X X # X # # # # # # # # ",
"# # # # # # # # y z > X i v > 6 P b.L.S.&X5XsXcXcXcXcXNXAXDXAXHXHXHXHXZXNXcXxXcXcXkXzXMXDXBXnXdXOXg.^.5X5X5X5X2X-X:X,XY.b.E.H.Y r + w X X X + + # # # # # # # # ",
"1 # # # # # # # i E ; y :.W ; l b./.G.J.W.<X3XpXxXcXcXcXcXcXcXBXZXZXGXGXFXBXBXZXZXGXDXBXMXBXGXNXJ.%XC.L.>X2X(.E.Q.M.m.b.E.E.a.a + u S w + X v M # # # # # # # c ",
"# # # # # # # # X w + t Z < # l p.E.>X$XyX3X<X<X3XxXlXsXfXxXcXxXfXcXcXDXGXGXGXHXHXGXBXfXpXcXBXNXf.OXS.c.Q.Q.U.N.N.Q.~.Q.Q.N.F r + d g.*.y X g m # # # # # # # # ",
"# # # # # # # # # # # , + X X < a P W.uXmXsX2X/.Q.(.>X2X>XaXxXqX^.fXcXNXNXBXDXGXBXnXpX-X>XpXcXlX,Xp.p.U.N.Q.N.U.Q.U.Q.Y.Q.p.l + X w *.XX*.= # # # # # # # # # # ",
"# # # # # # # # # # # # # # X # X p d.3XpX3X(.p.8.z.Y.=X~.&X3X<X>XwXcXcXcXcXcXxXsXeX&XM.U.4XyXuX1X(.Q.c.t.b.N.0.0.N.N.N.p.S = X X X i '.*.= # # # # # # # # # # ",
"# # # # # # # # # # # + # X # u # 5 0./.=XY.t.Z 8 U b.E.&X/.,X,X(.<XsXlXxXiXqX3X>X/.Y.c.5.V./.:X>X~.F.8.U L D u p =.F.p.Z : 1 u # # # M v X # # # # # # # # # # ",
"# # # # # # # # # # # # X + m :.u 1 l q.p.D d >   B 4.b.Q.Q.Y.Y.Q.F.W.=X-XW.(.:XQ.U.N.w.I Y c.Q.Q.N.0.H 8 : = + + t l a : @ i ^ # # # # X X X # # # # # # # # # ",
"# # # 1 # # # # # # # X , b '.W + # , 5 t < , # O % B | r.I.I.F.p.M.M.N.U.^.>XY.b.m.w.[  .{ I 0.0.4.[ N : @ @ # # @ @ + X # w w # # # # X # # # # # # # # # # # ",
"# # # # # # # # # # X @ ; ^ 3.i @ # , 1 6 + X X X o 7 U 8.Y &.Y U 0.U.!.>X>X(.Q.F.5.{  .X.]  .K K { G % : 1 y X # # X , w X , y # # # # # # # # # # # # # # # # ",
"# # # # # # # # # # # # 1 c i # # # + n :.y + + + + & A r.Y K ' [ | b.U.Y.Y.U.N.w.} $.#.] ..$.]  .#.N . + Q <.y @ X w 0 i > d ^ # # # # # # # # # # # # # # # # ",
"# # # # # # # # # # # # # # # # # # # < ! ( a + X X & B | 9.{ ' ..o.4.b.U.U.F.w.[ 7.l.$.' k.h.' @.} % + , E {.R + X X Z 1.; > y # # # # # # # # # # # # # # # # ",
"# # # # # # # # # # # # # # 1 # # # X < E *.u X @ # @ 8 ' } ] ] { %.} Y 4.4.4.K &.Z.n.h.{ t.@.] 7.Y $ X @ 6 *.! > @ X d x > X # # # # # # # # # # # # # # # # # ",
"# # # # # # # # # # # # # # # # # X @ < k y # # # # # o 8 @.&.&.O...6...I ' ' ' j.u.a.h.| k.o.O.6.9 . + X > d u # X X + w @ # # # # # # # # c # # # # # # # # # ",
"# # # # 1 # # # # # # # # # # # # + # # > + , # # # # # * L y.9.+.Y 8.@.O. . .{ +.u.=.+.e.v.{ &.j.% @ # X X + + X # X # @ @ + # # # # # # # # # # # # # # # # # ",
"# # # # # # # # # # # # # # # # # # # # # + X X # # X # : 0 q.8.+.2.2.r.6.X.'  .w.q.| +.w.h...c.L * @ # , # X # # + # # # # X # # # # # # # # # # # # # # # # # ",
"# # # # # # # # # # # # # # # # # # # # # # # # # # # # o 0 u.w.&.9Xy.a.h.$.' O.n.F.h.l.k.O.} v.q O # # # # # # # # # # # # # # # # # # # # # # # # # # # # # # ",
"# # # # # # # # 1 # # # # # # # # # # # # # # # # # # , # & ( c.*.#Xq.V.l.$.K O.x.!.l.x.n...w.e.0 @ # # # # # # # # # # # # # # # # # # # # # # # # # c # # # # ",
"# # # # # # # # # # # # # # # # # # # # # # # # # # # # # . S Y.8.8.w.S.M.$.' $.n.R.l.n.n.o.Z.L & X , # 1 < , # # # # # # # # # # # # # # # # # # # # # # # # # ",
"# 1 # # # # # # # # # # # # # # # 1 # # # # # # # # # # # @ 0 q.v.5.o.B.I.$.' 6.M.Y.l.m.h.+.v.C   X # @ f Q < X # # # # # # # # # # # # # # # # # # # # # # # # ",
"# # # # # # # # # # # # # # # # # # # # # # # # # # # # # X   ` Q.l.o.B.I.7. .h.Y.Y.m.m.+.t.c.N . X X # e i > X # # # # # # # # # # # # # # # # # # # # # # # # ",
"# # # # # # # # # # # # # # # # # # # # # # # # # # # # # # - Z H.m.@.r.Z.7. .j././.!.x.o.k.} & # # # # # # , # # # # # # # # # # # # # # # # # # # # # # # # # ",
"# # # # # # # # # # # # # # # # # # # # # # # # # # # , # @ @ * s.Y.l.} G.l. .j.R./.T.h.} c.} & # # # # # # # # # # # # # # # # # # # # # # # # # # # # # # # # ",
"# # # # # # # # # # # # # # # # # # # # # # # X # # # # # # X & -.W.x.o.H.n.{ j.~.(.T.$.w.l.[ & # # # # # # # # # # # # # # # # # # # # # # # # # # # # # # # # ",
"# # # # # # # # # # # # # # # # X # # # # , # # , # # # # # X : j G.v.| S.I.o.h.Y.~.R.w.r.j.A & # # # # # # # # # # # # # # # # # # # # # # # # # # # # # # # # ",
"# # # # # # # # # # # # # # # # # # + > p d 1 X X X # # # # # O 0 S.^.k.r.Y.| j./.~.~.t.j.w.% @ # # # # # # # # # # # # # # # # # # # # # # # # # # c # # # # # ",
"# # # # # # # # # # # # # # # # # # X ; W `.R w X # # # # + , # & ( =XS.&.Y.w.v././.W.w.U.w.% @ # # # # # # # # # # # # # # # # # # # # # # # # # # # # # # # # ",
"# # # c # # # # # # # # # # # # # # # + y *._ 0 , X # # # X , X . T 3X+X8.~.I.R.~.(.|.e.:Xs.4 , # # # # # # # # # # # # # # # # # # # # # # # # # # # # # # # # ",
"# # # # # # # # # # # # # # # # # # # # X ; 3 < X + X @ # # X , > q `.@X9.&X2X:X(.>XOXe.1X^ - X # # # # # # # # # # # # # 1 # # # # # # # # # # # # # # # # # # ",
"# # # # # # # # # # # # # # # # # # # # # # # X > f 1 X @ + X s ,.9 y.%Xt.qX3X>X2X5X|.u.7Xk O # # # # # # # # # # # # # # # # # # # # # # # # # # # # # # # # # ",
"# # # # # # # # # # # # # # # # # # # X # # # # y ^ u , @ # + s <.) f.qX&XyX<X3XiX3Xe.@X%Xk O X # # # X # # # # # # # # # # # # # # # # # # # # # # # # # # # # ",
"# # # # # # # # # # # # # # # # , # # # # # , X , < , # # X # + W _.d.<X:XuX:XuXqX<Xe.%X1.3 + # @ X # + X # + X # # # # # # # # # # # # # # # # # # # # # # # # ",
"# # # # # # # # # # # c X # X X > # # # # # # # X , X # # # # + T d.s.^.Y.>XF.:X4X&X9.&XS & # # # X + > k f , @ # # # # # # # # X # # # # # # # # # # # # # # # ",
"# # # # # # # # # # # # # X X / b > X # # # # # X # # # # @ # : Z y.u.H.c.S.j.~.,XG.@.Z.B . # # , @ g / '.,.< # # # # # # # 1 e # # # # # # # # # # # # # # # # ",
"# # # # # # # # # # # # # # 1 ).[.n : X # # # # # # # # # + X , i -.0.F.j.q.8.H.~.x.@.k.B . # # , f >.3.*.u X @ X # X # 1 d ^ >.M X # # # # # # # # # # # # # # ",
"# # # # # # # # # # # # # # X c ! *.z + # # # # , # # # # # X X = ( q.t.k.q.w.v.x.h.$.h.9 . # , d _ b ; < X # X + : @ > m 2._ ^ M # # # # # # # # # # # # # # # ",
"# # # # # # # # # # # # # # X X + s p , # # # # # # # # # # # X : S ` k.l.V.r.o.7.$.%.K & + X 3 ( Z > @ # X @ # i E d + u b 6 : # # # # # # # # # # # # # # # # ",
"# 1 # # # # # # # # # # # # # X # # , # # # # # # # # # # # # # # 3 V @.@.r.j.' o.o.%.G & @ @ 3 Z ~ w # + < 1 > v >.z + # + # X # # # # # c # # # # # # # # # # ",
"# # # # # # # # # # # # # # # # # # # # # # # # # # # # # # # # X > q K O.r.l.' H [ %.G & @ X X y n < X + b R > , < > # , # # # # # # # # # # # # # # # # # # # ",
"# # # # # # # # # # # # # # # # # # # # # # # # # # # # # # # # # X = N  .w.h.K A ' ..K s + X + @ : = > + i f > # X + X # # # # # # # # # # # # # # c # # # # # ",
"# # # # # # # # # # # # # # # # # # # # # # # # # # # # X X # # @ 1 W J ' +.$.U ) K } 3.W > # X # d / x < @ X # # # # # # # # # # # # # # # # # # # # # # # # # ",
"# # # # # # # # # # c # # # # # # # # # # # # # # # # # <.M # # @ ; _.{.J ..O.L `  .` ).2 # # , d *.:.v , # # # # # # X # # # # # # # # # # # # # # # # # # # # ",
"# # # # # # # # # # # # # # # # # # # # # # # # # X X w M ,.i X : x u.[.U X...L K K y.C & X # 5 ~ R < : @ # # # # X , : , # > : < : X # # # # # # # # # # # # 1 ",
"# # # # c # # # # # # # # # # # # # # # # # # X ; < # X X v S w @ n y.0.w.' ` '.U | =.H & # < 8 p , # # # X + < # @ 1 R < + 3 Z / ~ e # # # # # # # # # # # # # ",
"# # # # # # # # # # # # # # # # # # # # # # # c / ,.i + + + w w : / y.&.h.' ) `.| I.l.G & ; ; > + X X , > ; 6 Q i # y E 6 X X v ,._ y , # # # # # # # # # # # # ",
"# # # # # # # # # # # # # # # # # # # # # # # # m '.>.l r r + # : v y.e.} H `.#XY k.@.' C 0 + X > : @ i q > < v e # , > + # # e = : # # # # # # # # # # # # # # ",
"# # # # # # # # # # # c # # # # # # # # # # # # + d ! ;.z 3 z c r 1.OX[.L H .XXXI ' } K _ h ; , n C v ,.h + # ; = # @ X # # # # X # # # # # # # # # # # # # # # ",
"# # # # # # # # # # # # # # # # # # # # # # X # X X < y > : E ).1.v.%X9X9.` [.{.U 1.-.` L Z Q E [.[.1.b < > 5 ~ ^ < + X # # # # # # # # # # # # # # # # # # # # ",
"# # # # # # # # # # # # # # # # # # # # # # # # # , # , X X < ) f.g.D.@X|.#XC.f.2.].8X`.f.{.s.s.#XXXn + # , ; x m > X # # # # # # # # # # # 1 # # # # # # # # # ",
"# # # # # # # # # # # # # # # # # # # # # # # # # # # X < ; 3 R OXJ.C.L.C.K.|.<X;X[.|.|.7X1Xf.+X`.n , # # # X , , # # , # # # # # # # # # # # # # # # # # # # # ",
"# # # # # # # # # # # # # # # # # # # # # # , # # # # # ; 4 V d.d.L.W.1XL.J.2X5X|.B.J.+XZ.J.7Xg.Z 4 = X + X # # # # # # # # # # # # # # # # # # # # # # # 1 # # ",
"# # # # # # # # # # # # # # # # # # # # # # # # , , ; 4 4 0 l D g D q.W.@X$X$X,XeXL.C.c.k.p.i.z - 3 3 2 4 ; # # # # # # # # # # # # # # # # # # # # # # # # # # ",
"# # # # # # # # # # # # # # # # # # # # # # X X ; 4 3 < > < > : # > a Z q.s.t.s.+Xi.Z j j l j w > < ; < > > # # # # , # # # # # # # # # # # # # # # # # # # # # ",
"# # # # # # # # # # # # # # # # 1 # # # # # # X + w + X X # # # + # X < 5 p a z D p = , : > 4 t 4 4 - # # # # # # # # # # # # # # # # # # # # # # # # # # # # # "
};
