/* XPM */
static char *_3be171a313140c2e9ff2727e2ee1d6eKirPuxJAhVoY22Ov[] = {
/* columns rows colors chars-per-pixel */
"80 80 246 2 ",
"   c #28283D",
".  c #322E3D",
"X  c #3C3C37",
"o  c #34343C",
"O  c #3A353C",
"+  c #363B3D",
"@  c #3D3D3D",
"#  c #1D234E",
"$  c #1A265A",
"%  c #262A46",
"&  c #2E3B46",
"*  c #2B364C",
"=  c #2D3A4C",
"-  c #343746",
";  c #343B44",
":  c #3A3B41",
">  c #333C4A",
",  c #232D58",
"<  c #2C3B53",
"1  c #243558",
"2  c #25395A",
"3  c #2B3C5B",
"4  c #323E53",
"5  c #303A5E",
"6  c #162C76",
"7  c #1B3372",
"8  c #253B64",
"9  c #203A75",
"0  c #34404D",
"q  c #2C415B",
"w  c #344354",
"e  c #33445B",
"r  c #38485B",
"t  c #2D4363",
"y  c #2B476A",
"u  c #2C466B",
"i  c #354A62",
"p  c #334866",
"a  c #3A4E63",
"s  c #334C6B",
"d  c #3A5168",
"f  c #3D536C",
"g  c #2D4A74",
"h  c #334D75",
"j  c #2D517C",
"k  c #3C5472",
"l  c #385779",
"z  c #435268",
"x  c #435A74",
"c  c #425879",
"v  c #47627D",
"b  c #50637B",
"n  c #1A3A8A",
"m  c #203E88",
"M  c #1D439F",
"N  c #274C8E",
"B  c #2D5382",
"V  c #365B88",
"C  c #396897",
"Z  c #3D6C95",
"A  c #2B59A9",
"S  c #224FB6",
"D  c #275ABA",
"F  c #3969A8",
"G  c #396DAA",
"H  c #2D65B3",
"J  c #2C64BC",
"K  c #3569BB",
"L  c #3D77B8",
"P  c #415F81",
"I  c #4A6886",
"U  c #536C8A",
"Y  c #476B96",
"T  c #526F90",
"R  c #4C7496",
"E  c #567697",
"W  c #617187",
"Q  c #647A97",
"!  c #4672AF",
"~  c #4877AA",
"^  c #5C7CA1",
"/  c #437AB8",
"(  c #637DA2",
")  c #2558C5",
"_  c #265BC6",
"`  c #265BCB",
"'  c #295ECC",
"]  c #2659D1",
"[  c #2B63C4",
"{  c #2F69C3",
"}  c #2C64CC",
"|  c #326CC9",
" . c #3A78CA",
".. c #2B63D3",
"X. c #2D68D7",
"o. c #306ED7",
"O. c #3473D5",
"+. c #3776D8",
"@. c #397CDC",
"#. c #316FE2",
"$. c #3577E2",
"%. c #3A7DE2",
"&. c #417CCA",
"*. c #417ED0",
"=. c #68849D",
"-. c #4882AE",
";. c #4684BA",
":. c #5789BC",
">. c #6488AA",
",. c #6E8FAF",
"<. c #769AB9",
"1. c #3E81C8",
"2. c #3D84DD",
"3. c #3C83E7",
"4. c #4786C7",
"5. c #538AC6",
"6. c #4D93CB",
"7. c #5794CA",
"8. c #4788D8",
"9. c #568AD2",
"0. c #4B93D7",
"q. c #569AD6",
"w. c #549BDB",
"e. c #6D8FC4",
"r. c #669BC8",
"t. c #6197D8",
"y. c #59A4DD",
"u. c #7BA5C6",
"i. c #6EABD4",
"p. c #67A8DB",
"a. c #7BB4DA",
"s. c #438AE5",
"d. c #448EEB",
"f. c #4A95E9",
"g. c #549DE3",
"h. c #529DEB",
"j. c #418EF2",
"k. c #4795F0",
"l. c #519EF0",
"z. c #57A6E7",
"x. c #5AA5E4",
"c. c #5BACE5",
"v. c #5BADEC",
"b. c #5EB1E7",
"n. c #5DB2ED",
"m. c #55A4F2",
"M. c #55ABF3",
"N. c #5CAEF3",
"B. c #5DB3F3",
"V. c #5FB8F4",
"C. c #62ACE3",
"Z. c #67ACE5",
"A. c #74AEE4",
"S. c #61B4ED",
"D. c #69B6EA",
"F. c #78B7E6",
"G. c #72BCEC",
"H. c #62B5F2",
"J. c #64BBF5",
"K. c #67BBF7",
"L. c #6BBDF3",
"P. c #74BDF2",
"I. c #79BDF2",
"U. c #6DC1EF",
"Y. c #76C7EF",
"T. c #7CC3ED",
"R. c #6DC2F4",
"E. c #6AC0F8",
"W. c #73C3F4",
"Q. c #7BC5F3",
"!. c #7BCAF5",
"~. c #78C9F7",
"^. c #86A5BD",
"/. c #86A8C6",
"(. c #94B2CA",
"). c #87B7D9",
"_. c #98BCD5",
"`. c #A3BBCD",
"'. c #85BBE7",
"]. c #8EC3DD",
"[. c #A5C7DB",
"{. c #B7CADB",
"}. c #88C5EA",
"|. c #96C7E7",
" X c #99D3ED",
".X c #82C9F5",
"XX c #83CDF4",
"oX c #8BCDF2",
"OX c #91C7F2",
"+X c #93CDF3",
"@X c #86D0F5",
"#X c #8CD3F5",
"$X c #88D5F7",
"%X c #8BD3F9",
"&X c #93D5F5",
"*X c #9AD4F4",
"=X c #95D9F5",
"-X c #9DDBF6",
";X c #92D6F8",
":X c #96D7F9",
">X c #9BDBF9",
",X c #A4CBE3",
"<X c #A7D4ED",
"1X c #B6D9EC",
"2X c #A2D5F3",
"3X c #A3DDF5",
"4X c #AADCF5",
"5X c #A5DEF9",
"6X c #AADCF9",
"7X c #B4DCF3",
"8X c #9DE2F9",
"9X c #B7E1EF",
"0X c #ACE1F6",
"qX c #A8E4F7",
"wX c #ABE2F9",
"eX c #B5E4F6",
"rX c #BBE4F5",
"tX c #BDE9F7",
"yX c #B3E4F9",
"uX c #BBE6F9",
"iX c #BDE9F9",
"pX c #C6DFEE",
"aX c #C8E6EE",
"sX c #D9E8EB",
"dX c #C2E6F5",
"fX c #C7E7F6",
"gX c #C3EAF6",
"hX c #CBECF6",
"jX c #C4EBF9",
"kX c #CBEDF9",
"lX c #D3EEF5",
"zX c #DBEDF5",
"xX c #D3EEF9",
"cX c #CEF1FB",
"vX c #D5F1F6",
"bX c #DCF2F6",
"nX c #D4F0F9",
"mX c #DDF2FA",
"MX c #E6F5F6",
"NX c #EBF5F6",
"BX c #E4F5FA",
"VX c #EAF6FA",
"CX c #ECF9FA",
"ZX c #F2F7F7",
"AX c #F4FAFA",
"SX c #FAFCFB",
/* pixels */
"@ @ @ @ @ @ @ @ @ @ @ @ @ @ @ @ @ @ @ @ @ @ @ @ @ @ @ @ @ @ @ > c w + @ @ @ @ @ @ @ @ + - d r : @ X @ @ @ @ @ @ @ @ @ X @ @ @ @ @ @ @ @ @ @ X @ @ @ @ @ @ @ @ @ ",
"@ @ @ @ @ @ @ @ @ @ @ @ @ @ @ @ @ @ @ @ @ @ @ @ @ @ @ @ @ @ ; W {.Q ; X @ @ @ @ @ @ @ - v `.E = @ @ @ @ @ @ @ @ @ @ @ @ @ @ @ @ @ @ @ @ @ @ 0 @ @ @ @ @ @ @ @ @ ",
"@ @ @ @ @ @ @ @ @ @ @ @ @ @ @ @ @ @ @ @ @ @ @ @ @ @ @ @ @ @ i {.BX>.& X @ @ @ @ @ @ : v _.>.w @ @ @ @ @ @ X @ @ @ @ @ @ O @ @ : @ X @ @ @ @ @ @ @ @ @ @ @ @ @ @ ",
"@ @ @ @ @ @ @ @ @ @ @ @ @ @ @ @ @ @ @ @ @ @ @ @ @ @ @ @ @ O p [.yX~ & X X @ @ @ @ @ > V Y e : @ @ @ @ @ @ @ @ @ @ @ X + : i s w @ X X @ @ @ @ @ @ @ @ @ @ @ @ @ ",
"@ @ @ @ @ @ @ @ @ @ @ @ @ @ @ @ @ @ @ @ @ @ @ @ @ @ @ X @ @ t _.a.s @ O @ @ @ X X @ @ > o @ @ @ @ @ X @ @ @ @ @ @ @ O @ w ,./.R w @ @ @ @ @ @ @ @ @ @ @ @ @ @ @ ",
"@ @ @ @ @ @ @ @ @ @ @ @ @ @ @ @ @ @ @ @ @ @ @ @ @ @ : : ; = B F.i.P * = < < < < < 4 < < < = < ; X @ @ X @ @ + @ @ @ @ @ : e u 0 @ @ @ @ @ @ @ @ @ @ @ @ @ @ @ @ ",
"@ @ @ @ @ @ @ @ @ @ @ @ @ @ @ @ @ @ X @ @ @ @ @ @ O > i c <.).D.|.[.u.u./././.(.(././.u.r.:.4.V t < - + + X @ @ @ @ @ @ @ : + @ @ @ @ @ @ @ @ @ @ @ @ @ @ @ @ @ ",
"@ @ @ @ @ @ @ @ @ @ @ @ @ @ @ r @ @ @ : X ; ; > x P >.].].4XiX1XdXrXwX7XhXdXhXVXBXcXjXwX&X$X~.c.w.;.j j > X @ @ @ @ @ @ @ X @ X @ @ @ @ @ @ @ @ @ @ @ @ @ @ @ @ ",
"@ @ @ @ @ @ @ @ @ @ @ @ @ @ @ @ X @ 0 0 0 T ^ ^ [.<X+X-XwXkXMXzX.XQ.4XkXbX X*XrXkXyX;X&X3X>XU.B.~.R.n.x.C < < = ; @ @ X + @ @ @ @ @ @ @ @ @ @ @ @ @ @ @ @ @ @ @ ",
"@ @ @ @ @ @ @ : @ @ @ @ @ @ @ @ X X + b u.,XF.,X9XQ.XXwXjXmXVXeXv.!.yXzXNXgXL.&XwX&XP..XfX3XT.XX=X~.K.B.c.;.;.;.C ; @ X + @ @ @ @ @ @ @ @ @ @ @ @ @ @ @ @ @ @ @ ",
"@ @ @ @ @ @ @ @ @ @ @ @ @ @ @ @ + 0 U ,XgX'.F.A.2XG.=XeXkXbXzX7XH.J.#XjXmXMX2XL.L.J.P.fXjX=X*X;X@XJ.n.W.@X!.R.n.c.Z < + @ @ @ @ @ @ @ @ @ @ @ @ @ @ @ @ @ @ @ @ ",
"@ @ @ @ @ @ @ @ @ @ @ @ @ @ @ @ + I [.kXlX1XF.|.aX<XF.oXdXmXMXhX2XS.B.oXrXfXhX6XI.I.eXkX5X=X&X$XJ.B.!.=X=X&X#XXXE.v.Z 3 = - @ X @ @ @ @ @ @ @ @ @ @ @ @ @ @ @ @ ",
"@ @ @ @ @ @ @ @ @ @ @ @ @ X @ w I |.3XvXAXZXfXkXrX'.p.F.wXlXCXCXBX7X+XoX*X5XjXMXBXfX5X$X!.W.~.L.H.z.A.}.&X=XW.!.R.K.n.;./ G p X + @ X @ @ @ @ @ r @ @ @ @ @ @ @ ",
"@ @ @ @ @ @ @ @ @ @ @ @ @ z I /.,XwXrXvXAXMXhXeX}.'.Z.XX3XgXvXCXAXSXNXmX0X%X3XjXfXwXXXU.T.K.B.H.XX'.A.a.Z..XL.W.~.J.J.J.J.B.;.t : @ @ @ @ @ @ @ @ @ @ @ @ @ @ @ ",
"@ @ @ @ @ @ @ @ @ + X + r /.1X+X.X0XkXkXVXZXlX'.}.a.x.!.&XtXkXdXdXjXkXVXBX+XT.#X#XW.H..XdX3XL.P.rXaX'.|.}.y.oXqX;X~.J.J.J.B.V.;.d X @ @ @ @ @ @ @ @ @ @ @ @ @ @ ",
"@ @ @ @ @ @ @ @ @ @ @ i ^.zXzXI.%X>XiXkXmXAXCX<XA.D.M.n.R.-X-XXX&X;XwXkXBXhX.Xn.v.B.#XvXbXeX4XdXlXeX XD.}.}.a.1X3X&X~.J.J.V.M.J.:.z @ @ @ @ @ @ @ @ @ @ @ @ @ @ ",
"@ @ @ @ @ @ @ @ @ + + l 9XNXZX2XI..XwXjXkXNXSXZXaXrXQ.m.H.W.J.J.R.!.oX-XyXdXrX+X+X3XmXmX0X#X+X-X-X#XXXU.c.'.}.'.4X=X$XJ.J.B.R.E.K.;.q @ @ @ @ @ @ @ @ @ @ @ @ @ ",
"@ @ @ @ @ @ @ @ @ @ 0 R lXSXAX6XJ.%X>XiXkXzXVXZXCXAXmX.XP.*XT.B.B.Q. XT.$X#XW.oX>XuXjX4XY.K.Y.oXU.R.V.b.N.Z.A.1XeX*X@XJ.N.K.R.J.!.b.B @ @ @ @ @ @ @ @ @ @ @ @ @ ",
"@ @ @ @ @ @ @ @ + X q ).xXAXVX*XN.!.;X5XyXyXyXjXkXVXSXbXjXdXtXoXOXdXeXI.n.B.Q.3X>XXXXX&XoXG.N.N.Q.*XoXOX+XgXhXjX3X&XR.K.V.M.V.E.$X~.;.= @ @ @ @ @ @ @ @ @ @ @ @ ",
"@ @ @ @ @ @ @ @ + X y T.yXbXCX6XB.J.W.W.W.XX;X>XiXcXCXSXVXxXlXMXMXsX|.7X*X+XiXjXtX4X4XgXlXgX4X2XrXhXmXNXVXBXhX5X#X!.L.K.V.M.V.J.!.$X;.q @ : @ @ @ @ @ @ @ @ @ @ ",
"@ @ @ @ @ @ @ @ @ X q r.&XiXCXxXoXv.B.B.S.L.;X;X-XjXmXSXSXAXAXZXvX'.t.aXVXnXkXkXlXlXaXNXMXBXvXtX5X>XyXkXlXkXqX%XQ.J.W.R.V.V.J.V.R.~.;.= @ : : X @ @ @ @ @ @ @ @ ",
"@ @ @ @ @ @ @ @ @ X : k i.qXkXlXkXoXI.I.*X~..X;X:XyXkXmXVXVXBXvX Xp.).hXSXAXBXVXNX1X_.<XkXtXqX*X%X.X#XqXyXqX=X~.n.y.C.&X=X~.J.V.v.K.4.q @ X @ @ @ @ @ @ @ @ @ @ ",
"@ @ @ @ @ @ @ @ : 0 X = R +X4XxXCXNXbXhXgXQ.L.XX:X>XyXjXjXiX4XwX<X}.7XlXVXSXSXAXzX'.|.'.eX=X=X#X~.J.R.!.#X&X~.R.b.x.}.wX-X#XE.J.c.L V > w ; @ @ @ @ @ @ @ @ @ @ ",
"@ @ @ @ @ @ @ r Q >.> X s i.=XwXBXSXSXVXgXW.B.!.%X:X-X-X:X=X=X=X=X-XrXrXxXxXzXzXaXA.'.A.#X&X$X~.K.V.J.V.R.W.J.J.B.}.dXwX&X$XE.J.L > - e E r @ @ @ @ @ @ @ @ @ @ ",
"@ @ @ @ @ @ @ z [.( - e -.T.=X-XfXBXVXBXlX3XN.L.Q.@X!.!.J.~.Q..X>X@X&X3XiXkXhXjXwXZ.<XA.P.XXR.H.S.W..XP.n.B.H.J.B.2XxX6X;X.XJ.x.j @ X + r ; @ @ @ @ X z @ @ @ @ ",
"@ @ @ @ @ @ @ z b 0 + j U.@X~.#X5X6XuXmXMXeXN.J.J.J.K.H.}.oXW.2XrXoXW.#X>XwXwX3X;XF.}.F.n.L.B.Q. XhXMXnX XR.B.B.*XmXZXiX;XW.J.;.2 : 2 0 @ @ @ @ @ @ @ @ @ @ @ @ ",
"@ @ @ @ @ @ @ @ : + @ j y.c.J.~.;X;X*X6XfXbX2XS.B.J.B.oXfXtXhXCXvX.Xn.L.$X;X;X;X&X%XG.x.v.n.I.fXVXCXAXAXVXrX6X7XbXSXCXeX$XR.J.1.= > V I - X : @ @ @ @ @ @ @ @ @ ",
"@ @ @ @ @ @ @ @ + @ @ > y g ;.S.!.&X;X;XqXhXrXQ.M.M.T.yXuXiXxXVXCX Xc.p.S.~.@XXXXX~.L.m.H..XgXNXVXxXdXdXkXkXkXBXVXVXjX:XW.J.R.L = @ w t > X @ @ @ @ @ @ @ @ @ @ ",
"@ @ @ @ @ @ @ @ @ @ 4 @ + 4 L n.L.!.&X;X=X3X$XY.J.J.$X=X&X-XuXxXSXNX|.Z.M.K.K.K.J.H.N.L.wXkXVXVXgX3X@X$X=X3XwXjXtXqX8X!.J.R.V.;.0 @ + @ @ @ @ @ @ @ @ @ @ @ @ @ ",
"@ @ @ @ @ @ @ @ + > E d < Z n.J.;.q.R.!.$XY.K.c.4.4.b.F.7.D.-XiXbXSXlX|.S.B.V.H.B.S.&XuXxXVXVXkX4X@XD.W.%X&X;X>X>X=X%XR.S.c.6.g ; X X : @ X @ @ @ @ @ @ @ @ @ @ ",
"@ @ @ @ @ @ @ @ X ; r > > F q.-.t s 6.K.R.V.-.B D [ J J J 4..X3XjXBXmXjXoXD.K.L.*XrXvXVXAXVXnXiX-XT.4.0.R.$X@XR.W.!.R.b.Z g y 0 @ + + 0 @ @ @ @ @ @ @ @ @ @ @ @ ",
"@ @ @ @ @ @ @ @ @ @ @ @ @ < q < : : s L ;.G q % n ` X...X.D p.-XjXkXVXBXkXkXkXgXjXcXBXBXBXxXjXwXT.4._ { n.R.J.J.E.E.K.6.q + X X X X 0 I z X @ @ @ @ @ @ @ @ @ @ ",
"@ @ @ @ @ @ @ @ @ @ X @ @ @ @ O + r u = < - 4 w * m @.$.#.J 7.&X0XkXnXCXVXzXjX5XeXjXkXkXjXjXeX&XC.H ..J x.J.g.L b.V.E.6.2 X X + @ @ z b z X @ @ @ @ @ @ @ @ @ @ ",
"@ @ @ @ @ @ @ @ @ @ @ @ @ @ @ @ z `./.e X : E E ; % A l.@.O. .Z.-XjXkXxXxX6X#X%X>XyXiX5X;X>X*X!.H.1.A 7 V q.C < Z b.V.;.0 + @ X @ @ X @ @ X X @ @ @ @ @ @ @ @ @ ",
"@ @ : @ @ @ @ @ @ @ @ @ + @ @ & ,.1X>.w @ : I I : o g :.:.K o.L oX6XjXjXqX~.H.R.#X*X#XL.J.!.#XR.8.{ n   > t > @ 0 C -.q : @ @ @ @ @ @ @ @ @ @ @ @ @ @ @ @ @ @ @ ",
"@ @ @ @ @ @ @ @ @ @ X > w @ @ > ,.].h O @ + : - + @ * ,._. .| 6.oX;X5X5XXXD. .0.E.~.R.0.g.L.R.n.{ S $ O X : @ @ X = < + @ @ @ @ @ @ @ @ @ @ @ @ @ @ @ @ @ @ @ @ ",
"@ @ @ @ @ @ @ @ @ X @ a Q : X X a l 4 @ @ @ @ + @ @ a (.7.O.J y.W.$X%X@XD. .[ J 4.c.0.J { w.y. .J n % @ @ @ @ @ @ @ @ @ @ @ @ @ @ @ @ @ @ @ @ @ @ @ @ @ @ @ @ @ ",
"@ @ @ @ @ @ @ @ @ o @ > r @ @ @ + : : @ @ @ @ @ + - ,.2X .8.D y.J.~.R.S.1.[ X.` D J { ..} K D D S $ O X @ @ X @ @ @ @ @ @ @ @ @ @ @ @ @ @ @ @ @ @ @ @ @ @ @ @ @ ",
"@ @ @ @ @ @ @ @ @ @ @ @ @ @ @ @ @ @ @ @ @ @ @ @ + = Q <.V g.} 4.H.E.n. .} o.X.` ] %.%.X.` X._ ` S # @ + @ > > : @ @ @ @ @ @ @ @ @ @ @ @ @ @ @ @ @ @ @ @ @ @ @ @ ",
"@ @ @ @ @ @ @ @ @ @ @ @ @ @ @ @ @ @ @ @ X @ @ @ X : a w % F s.K y.c. .[ {  .X...s.M.3.` O...} X.6 ; @ @ + U x : X X @ @ @ @ @ @ @ @ @ @ @ @ @ @ @ @ @ @ @ @ @ @ ",
"@ @ @ @ @ @ @ @ @ @ @ @ @ @ @ @ @ @ @ @ @ @ @ @ O @ + O O u 0.@.H A } o.5.4.` ..g.S.s._ 8.X.X.o.$ O @ @ : r r @ @ X @ @ @ @ @ @ @ @ @ @ @ @ @ @ @ @ @ @ @ @ @ @ ",
"@ @ @ @ @ @ @ @ @ @ @ @ @ @ @ @ @ @ @ @ @ @ @ @ @ @ @ X @ % ~ N.$...o.3.f.8.X.D 5.7.+.O.s.o.@.o.$ O @ @ @ @ @ @ @ : @ @ @ @ @ @ @ @ @ @ @ @ @ @ @ @ @ @ @ @ @ @ ",
"@ @ @ @ @ @ @ @ @ @ @ @ @ @ @ r @ @ @ @ @ @ @ @ @ @ @ @ @ % Y G.h.#...2.H.m.#.| 7.&...8.l.%.l.M % - X : @ @ @ @ @ @ @ @ @ @ @ @ @ @ @ @ @ @ @ @ @ @ @ @ @ @ @ @ ",
"@ @ @ @ @ @ @ @ @ @ @ @ @ @ @ @ @ @ @ @ @ @ @ @ @ @ @ @ @ O , ;.6.2.X. .P.m.%.*.G.f.} g.l.k.3.6 . O X @ @ @ @ @ @ @ @ @ @ @ @ @ @ @ @ @ @ @ @ @ @ @ @ @ @ @ @ @ ",
"@ @ @ @ @ @ @ @ @ @ @ @ @ @ @ @ @ @ @ @ @ @ @ @ @ @ @ @ @ X # ! 7.0.@.| L.H.%.*.P.f. .L.m.N.$.6 . @ X @ @ @ @ @ @ @ @ @ @ @ @ @ @ @ @ @ @ @ @ @ @ @ @ @ @ @ @ @ ",
"@ @ @ @ @ @ @ @ @ @ @ @ @ @ @ @ @ @ @ @ @ @ @ @ @ @ @ @ @ O , :.D.L.d. .W.W.s.*.W.s.+.L.m.N.J # O @ @ @ @ @ @ @ @ @ @ @ @ @ @ @ @ @ @ @ @ @ @ @ @ @ @ @ @ @ @ @ ",
"@ @ @ @ @ @ @ @ @ @ @ @ @ @ @ @ @ @ @ @ @ @ @ @ @ @ @ @ @ @ o s }.Y.m.+.Z.~.Z.*.Q.f.O.W.N.H.A   @ @ @ @ @ @ @ @ @ @ @ @ @ @ @ @ @ @ @ @ @ @ @ @ @ @ @ @ @ @ @ @ ",
"@ @ @ @ @ @ @ @ @ @ @ @ @ @ @ @ @ @ @ @ @ @ @ @ @ @ @ @ O @ O 3 |.!.U.@.8.!.I.4.%Xp.t.XX.XW.!   X : @ @ @ @ @ @ @ @ @ @ @ @ @ @ @ @ @ @ @ @ @ @ @ @ X z @ @ @ @ ",
"@ @ @ @ @ @ @ @ @ @ @ @ @ @ @ @ @ @ @ @ @ @ @ @ @ @ @ X X X X * =.#X~.8.9.#X'.9. X9.oX%XXXXXE   @ @ @ @ @ @ @ @ @ @ @ @ @ @ @ @ @ @ @ @ @ @ @ @ @ @ @ @ @ @ @ @ ",
"r @ @ @ @ @ @ @ @ @ @ @ @ @ @ @ @ @ @ @ @ @ @ @ @ @ @ @ X + - . k  X8XA.q.qX}.9.-X9. X=X@Xa.5 - @ @ @ @ @ @ @ @ @ @ @ @ @ @ @ @ @ @ @ @ @ @ @ @ @ @ @ @ @ @ @ @ ",
"@ @ @ @ @ @ @ @ @ @ @ @ @ @ @ @ @ @ > ; @ @ @ @ @ @ @ @ o x v   l 4XwX'.t.eX*XF.-X9. XqX>Xu.% @ @ @ @ @ @ @ X 0 @ @ @ @ @ @ @ @ @ @ @ @ @ @ @ @ @ @ @ @ @ @ @ @ ",
"@ @ @ @ @ @ @ @ @ @ @ @ @ @ z @ @ - l T > @ @ @ @ @ @ + ; >.=.- < u.-X).q.-XqXqX-X5.oXqXqX).% X @ @ @ @ @ @ @ @ @ @ @ @ @ @ @ @ @ @ @ @ @ @ @ @ @ @ z @ @ @ @ @ ",
"@ @ @ @ @ @ @ @ @ @ @ @ @ @ @ @ @ @ r k r @ @ @ @ @ @ @ ; Y -.0   ^ @XF.9.%X8X&XoX4.P.*X X>.% + @ @ @ @ @ @ @ @ @ @ @ @ @ @ @ @ @ @ @ @ @ @ @ @ @ @ @ @ @ @ @ @ ",
"@ @ @ @ @ @ @ @ @ @ @ @ @ @ @ @ @ @ @ @ @ @ @ @ @ @ @ @ @ 3 :.V % Y .XF.9.Q.;X!.H.4.K.;X}.9 + @ @ @ @ @ @ @ @ @ @ @ @ @ @ @ @ @ @ @ @ @ @ @ @ @ @ @ @ @ @ @ @ @ ",
"@ @ @ @ @ @ @ @ @ @ @ @ @ @ @ @ @ @ @ @ @ @ @ @ : @ @ @ @ ; l a   Y Q.Z.8.Q..XL.f.f.h.L.A.1 o @ @ @ @ @ @ @ @ @ @ @ @ @ @ @ @ @ @ @ @ @ @ @ @ @ @ @ @ @ @ @ @ @ ",
"@ @ @ @ @ @ @ @ @ @ @ @ @ @ @ @ @ @ @ @ @ @ @ @ @ @ @ X X + : @ O 8 q.K.+.C.W.N.j.N.s.s.z.$ X X @ @ @ @ @ @ @ @ @ @ @ @ @ @ @ @ @ @ @ @ @ @ @ @ @ @ @ @ @ @ @ @ ",
"@ @ @ @ @ @ @ @ @ @ @ @ @ @ @ @ @ @ @ @ @ @ @ @ @ @ @ @ @ @ @ : ; # :.K.O.w.K.k.k.V.%.O.K $ + @ @ @ @ + @ @ @ @ @ @ @ @ @ @ @ @ @ @ @ @ @ @ @ @ @ @ @ @ @ @ @ @ ",
"@ @ @ @ @ @ @ @ @ @ @ @ @ @ @ @ @ @ @ @ @ @ @ @ @ @ @ @ @ @ @ r I 1 7.K.+.g.K.d.3.l.o.X.7 o @ @ @ X @ @ @ X + X @ @ @ @ @ @ @ @ @ @ @ @ @ @ @ @ @ @ @ @ @ @ @ @ ",
"@ @ @ @ @ @ @ @ @ @ @ @ @ @ @ @ @ @ @ @ @ @ @ @ @ @ @ @ @ + O w k , 9.L.+.g.K.d.3.3.' _ 6 o @ @ @ + : + : r w X @ @ @ @ @ @ @ @ @ @ @ @ @ @ @ @ @ @ @ @ @ @ @ @ ",
"@ @ @ @ @ @ @ @ @ @ @ @ @ @ @ @ @ @ @ @ @ @ @ @ @ @ @ @ @ @ @ @ @ % 5.K.s.x.J.k.2.[ _ ) 6 o @ : X + x r ; I v - @ @ @ @ @ @ @ @ @ X @ @ @ @ @ @ @ @ @ @ @ @ @ @ ",
"@ @ @ @ @ @ @ @ @ @ X X b b X X @ @ @ @ @ @ @ @ @ @ @ @ @ @ @ @ + % :.~.N.N.K.s.:.F ) ) 6 o @ @ @ > I d @ > > @ X X + X @ @ : v b X X @ @ @ @ @ @ @ @ @ @ @ @ @ ",
"@ @ @ @ @ @ @ @ @ @ @ > b z X X @ @ @ @ @ @ @ @ @ @ @ @ @ @ @ @ + - j D.N.H.L. .~  ._ ` 6 o @ @ X : ; @ X @ : X X + + X @ @ + f b @ X X @ @ @ @ @ @ @ @ @ @ @ @ ",
"@ @ @ @ @ @ @ @ @ @ @ X @ @ @ @ @ @ @ @ @ @ @ @ @ @ @ @ @ @ @ @ @ + , p.N.N.Z./ :.+._ } 6 o @ @ @ a a @ @ O @ + : f r + + X X : @ @ @ @ @ @ @ @ @ @ @ @ @ @ @ @ ",
"@ @ @ @ @ @ @ @ @ @ @ @ @ @ @ @ @ @ @ @ @ @ @ @ @ @ @ @ @ @ @ @ X O , A.N.%.q.H q.d.D _ 6 o X @ : x c - + O @ X ; I d : X @ @ @ @ @ @ @ @ @ @ @ @ @ @ @ @ @ @ @ ",
"@ @ @ @ @ @ r @ @ @ @ @ @ @ @ @ @ @ @ @ @ @ @ @ @ @ @ @ @ @ @ + @ @ , C.M.O.g.+.g.f.A m , X @ : @ ; > + X @ X + @ ; + @ @ @ @ @ @ @ @ @ @ @ @ @ @ @ @ @ @ @ @ @ ",
"@ @ @ @ @ @ @ @ @ @ @ @ @ @ @ @ @ @ @ @ @ @ @ @ @ @ ; O @ : @ 3 > o , y.k.| x.@.9.4.:.9   @ @ @ X + a u ; + @ @ @ @ + + X @ @ @ @ @ @ X @ @ @ @ @ @ @ @ @ @ @ @ ",
"@ @ @ @ @ @ @ @ @ @ @ @ @ @ @ @ @ @ @ @ @ @ @ @ @ > V f + + + g P > 5 w.j.| g.O.2. .&.Y % = @ @ X > U k + + @ O @ @ @ @ @ @ @ @ @ @ @ @ @ @ @ @ @ @ @ @ @ @ @ @ ",
"@ @ @ @ @ @ @ @ @ @ @ @ @ @ @ @ @ @ @ @ @ @ @ @ @ : x h ; + o l ,.< , w.j.X.s.' O.3.o.L ~ u + X @ : > @ @ @ : @ X @ @ @ @ @ @ @ @ @ @ @ @ @ @ @ @ @ @ @ @ @ @ @ ",
"@ @ @ @ @ @ @ @ X @ @ @ @ @ @ @ @ @ @ @ @ @ ; : @ @ > = @ = h i s - , g.%.] *.' o.+.' / T > @ @ : X @ O @ : s t @ @ @ @ @ @ @ @ + + @ @ @ @ @ X @ @ @ @ @ @ @ @ ",
"@ @ @ @ @ @ @ @ z @ @ @ @ @ @ @ @ @ @ @ X z j x o + < V w = Q Q > O , 0.%.] | _ X.o.O.N > @ @ @ @ X @ @ + 2 T s X @ @ @ @ @ @ @ 0 I 0 : @ @ @ @ @ @ @ z @ @ @ @ ",
"@ @ @ @ @ @ @ @ @ @ @ @ @ @ @ @ @ @ @ @ @ @ b I & X ; I g ; p /.z : , +.#.K ,.M [ H %.M 2 > > : X > < ; ; = 3 0 @ @ @ @ @ @ @ @ w E I > @ + @ @ @ @ @ @ @ @ @ @ ",
"@ @ @ @ @ @ @ @ @ @ @ @ @ @ @ @ @ @ @ @ @ @ X @ : @ @ ; ; @ : U ,.5 $ +.[ :./ D ~ / X.K ,.I T & ; Y ~ 3 k y 2 + @ @ @ @ @ @ @ @ X e s : X @ @ @ @ @ @ @ @ @ @ @ ",
"@ @ @ @ @ @ @ @ @ @ @ @ @ @ @ @ @ @ @ @ @ @ @ @ @ @ @ @ + ; + l (.x 7 | ' F ] ! ~ [ _ u.>.< e & Y 9.A.>.<.T = @ @ @ @ @ @ @ @ @ @ @ @ @ @ @ @ @ @ @ @ @ @ @ @ @ ",
"@ @ @ @ @ @ @ @ @ @ @ @ @ @ @ @ @ @ @ @ X @ @ @ @ @ @ + + < 3 u u.(.! :.} S K `.e.) / {.E & q W ,X7XeX<.i > @ @ @ @ @ @ @ @ @ @ @ @ @ @ @ @ @ @ @ @ @ @ @ @ @ @ ",
"@ @ @ @ @ @ @ @ @ @ @ @ @ @ @ @ @ @ @ @ @ @ @ @ @ @ @ O O < Q T r.9X<XaXe.D / _.K / {.4X7.T `.sXaX X,.t + X @ @ @ @ @ @ @ @ @ @ @ @ @ @ @ @ @ @ @ @ @ @ @ @ @ @ ",
"@ @ @ @ @ @ @ @ @ @ @ @ @ @ @ @ @ @ @ : @ @ @ @ @ @ O @ - - z ^.3XqXrXjX/./ <X)./ _.4XQ.F.<XhXiXu.l q + : @ + @ @ @ @ @ @ @ @ @ @ @ @ @ @ @ @ @ @ @ @ @ @ @ @ @ ",
"@ @ @ @ @ @ @ @ @ @ @ @ @ @ @ @ @ @ @ @ @ @ @ @ + X X + < 2 * s r.T.;XqXp.[.qXU.+X>X*X XwX3XXXr.j 2 ; @ @ : @ @ @ @ @ @ @ 0 @ @ @ @ X @ @ @ @ @ @ @ @ @ @ @ @ @ ",
"@ @ @ @ @ @ @ @ @ @ @ @ @ @ @ @ @ @ @ @ @ @ @ @ + : < 3 3 8 8 < y C q.D.R.#X~.Y.5X>X XoXG.D.6.t = < < 2 2 = X @ @ @ @ @ @ X @ @ @ @ 0 @ @ @ @ @ @ @ @ @ @ @ @ @ ",
"@ @ @ @ @ @ @ @ @ @ @ @ @ @ @ @ @ @ @ @ @ @ @ + < 8 4 ; > ; ; ; @ > t C 6.y.w.b.F.u.l l j B u 0 ; = = > ; : @ @ @ @ @ @ @ @ @ @ @ @ @ @ @ @ @ @ @ @ @ @ @ @ @ @ ",
"@ @ @ @ @ @ z @ @ @ @ @ @ @ @ @ @ @ @ @ @ @ @ @ : : : @ X @ @ @ X + + = t t 8 V C 8 : + + & 2 t 2 2 = X @ @ @ @ @ @ @ @ @ @ @ @ @ @ @ @ @ @ @ @ @ @ @ @ @ @ @ @ "
};
