/* XPM */
static char *result[] = {
/* columns rows colors chars-per-pixel */
"80 80 186 2 ",
"   c #0D040E",
".  c #140606",
"X  c #11040D",
"o  c #1A040B",
"O  c #15090D",
"+  c #1E0A0C",
"@  c #0E0215",
"#  c #0E021A",
"$  c #110314",
"%  c #190410",
"&  c #160A15",
"*  c #190D16",
"=  c #10021A",
"-  c #15091D",
";  c #1B0E1D",
":  c #1D1215",
">  c #230E0D",
",  c #25130C",
"<  c #2B140D",
"1  c #2D190D",
"2  c #311B0E",
"3  c #210610",
"4  c #220B13",
"5  c #231314",
"6  c #2B1513",
"7  c #241A1D",
"8  c #351E10",
"9  c #3A1F10",
"0  c #3C2414",
"q  c #0E0121",
"w  c #120422",
"e  c #160921",
"r  c #1A0D24",
"t  c #13052C",
"y  c #1D1126",
"u  c #1E1229",
"i  c #211325",
"p  c #21142A",
"a  c #251A2E",
"s  c #271B31",
"d  c #281D31",
"f  c #2D2426",
"g  c #372C27",
"h  c #38302E",
"j  c #2D2135",
"k  c #2F2438",
"l  c #302539",
"z  c #3A3331",
"x  c #4E3116",
"c  c #603D17",
"v  c #412D2A",
"b  c #48382A",
"n  c #413B36",
"m  c #483D36",
"M  c #5E431D",
"N  c #6D481B",
"B  c #76531F",
"V  c #594226",
"C  c #47413B",
"Z  c #634A21",
"A  c #745524",
"S  c #785526",
"D  c #735A37",
"F  c #796332",
"G  c #4C4540",
"H  c #584D45",
"J  c #5E5241",
"K  c #6B5846",
"L  c #7A6456",
"P  c #7B6C5B",
"I  c #7F715A",
"U  c #815C23",
"Y  c #866224",
"T  c #8B6628",
"R  c #936E29",
"E  c #95712A",
"W  c #9C752E",
"Q  c #896933",
"!  c #866B38",
"~  c #956E37",
"^  c #977232",
"/  c #9C7A32",
"(  c #A26F27",
")  c #A57427",
"_  c #A67529",
"`  c #AA762C",
"'  c #A5792C",
"]  c #AC7B2D",
"[  c #B27D2D",
"{  c #A37B32",
"}  c #AC7C31",
"|  c #B27E30",
" . c #856B49",
".. c #897456",
"X. c #957F66",
"o. c #AE812E",
"O. c #B2812E",
"+. c #AB8533",
"@. c #AD853C",
"#. c #AE8C3B",
"$. c #B48332",
"%. c #B98734",
"&. c #BD8A31",
"*. c #B2873D",
"=. c #B28D3A",
"-. c #BD8D38",
";. c #B69039",
":. c #BB913A",
">. c #C0943E",
",. c #AB8D4E",
"<. c #B18F48",
"1. c #B99345",
"2. c #BB964B",
"3. c #BB9E51",
"4. c #B89A56",
"5. c #BDA257",
"6. c #BEA25A",
"7. c #998C72",
"8. c #A48C62",
"9. c #AC986E",
"0. c #B69968",
"q. c #A38D78",
"w. c #A19578",
"e. c #AA9D7E",
"r. c #BEA362",
"t. c #BFA66A",
"y. c #BBA776",
"u. c #C79A46",
"i. c #C79A47",
"p. c #C39951",
"a. c #C5A65E",
"s. c #D4A554",
"d. c #D7AD59",
"f. c #D8B259",
"g. c #C4A661",
"h. c #CFAD67",
"j. c #C8AB69",
"k. c #D3AD67",
"l. c #D7AE68",
"z. c #D5B365",
"x. c #DCB563",
"c. c #D2B069",
"v. c #DCB369",
"b. c #C5AC76",
"n. c #CCB275",
"m. c #CFB679",
"M. c #D2B87A",
"N. c #E1BB65",
"B. c #E4BC6C",
"V. c #E6C06D",
"C. c #E5C374",
"Z. c #E7C87C",
"A. c #EACC7F",
"S. c #B2A584",
"D. c #B8AA87",
"F. c #BBB28D",
"G. c #BFAB90",
"H. c #C1A681",
"J. c #C7B388",
"K. c #D3BD81",
"L. c #D4B987",
"P. c #C7B993",
"I. c #D5BF9B",
"U. c #D5C185",
"Y. c #D4C38B",
"T. c #DDC588",
"R. c #CBC199",
"E. c #D9C693",
"W. c #DBCD94",
"Q. c #D5C99E",
"!. c #DED097",
"~. c #EBCB81",
"^. c #E4CA8F",
"/. c #E8CE8F",
"(. c #EBD084",
"). c #E6D68E",
"_. c #EBD28C",
"`. c #E9D88E",
"'. c #E4CD92",
"]. c #E5D296",
"[. c #EAD593",
"{. c #E9D795",
"}. c #EDD799",
"|. c #E5D99D",
" X c #EED89B",
".X c #D0CAA0",
/* pixels */
"# # # # # # # # # # - # # = = = = = # # # # # # # # # # # # = = = = = = = = # = = = = = = = = = = = = = = = = = = = # # $ a i @ @ - k s # d a @ @ y j d u # @ # ",
"# # # # # # # # # # # # # = = = = = # # # # # # # # # # # = = = = = = = = = = = = = = = = = = # = = = = = = = = # $ $ # # a y @ @ - k u # d s # # u j d f # @ - ",
"# # # # # # # # # # # # = = = = = = # # # # # # # # # # # # = = = = = = = = = = = # = = = = = = = = = = = = # = = = # @ # s y @   e l a - s a @   y j s u -   - ",
"# # # # # # # # # # # # = = = = = = = # # # # # # # # # # # = = = = = = = = = = = = = = = = = = = = = = = = = = = = # # # f u @ @ - k u @ d a # # r j s u @ @ - ",
"# # # # # # # # # # # = = = = = = # # # # # # # # # # # # # = = = = = = = = = = = = = = = = = = = # = = = = = = = = # @ # a u @ @ - l j # s f # @ r j a a   @ - ",
"# # # # # # # # # # = = = = # = = = = # # # # # # # # # # # = # = = = = = = = = = = = = = = = = = = = # = = = = = # # @ # a u @ @ e l u # s a - # r j a a @   - ",
"# # # # # # # # # # # = = = = = = = # # # # # # # # # # # # # # = = = = = = = # = = # = = = = = = = = = = = = = = = # # # s u @ @ # k s y j u @ @ y j a i @ @ - ",
"# # # # # # # # # # = = = = = = = = = # # # = # # # # # # # - # # = = = = = = = = = = = = = = = = = $ = = = = = = = # # # f a @ @ - s s f u - @ @ y j a a   @ - ",
"= = = = = = = = = = = = = = = = = = = = = = = = = = = = = = = = = = = = = = = = = = = = = = = = # = = = = = = # = = = = = a i $ @ @ - - ; - @ @ @ a a a a # # - ",
"= = = = = = = = = = = = = = = = = = = = = = = # = = = = = = = = = = = = = = = = = = = = = = # = = = = = = = = = = = = # = a p = @ # @ # @ @ # q u j y a u # @ - ",
"= = = # = = = = = = = # = = = = = # = = = = = = = = = = = = = = = = = = = # = = = = = = = = = = = = = = = = $ = = = = = = p a r e r r y e y y f k a # u a y e y ",
"= = = = = = = = = = = = = = = = = = = = = = = = = = = @ = = = = = = = = = = = = = # = = = = = = = = = = = = = = = # = # = r a a f a a u s u a u y - # - a s s s ",
"= = = = = = = = = = = = # = = = = = = = = = = = = = = = = # = = = = = = = = = = = = = = = = = = = = = = = = = = = = = = $ = - - - e - - - - # # @ @ # # q - e e ",
"= = = = = = = = = = = = = = = = = = = = = = = = = = = = = = = = = = = = = = = = = = = $ = = $ = = = = = = = = = = = = = = = $ $ @ @ # @ # @ # @ @ # # # # # # # ",
"= = # = = = = = = = = = = = = = = = = = = = = = = = = # # # # # # # # = # # = # # $ # # # # $ = = = = = = = = = = = = = # # # $ @ # # # # # @ # # # # # # # # # ",
"= # = # # # = # = # # = # # = # = # # = # # = # = # # = - # # # = $ = = = = $ = = = $ # $ $ # # # = # # # = # = # # # # $ $ # # @ @ # # @ # # # # # # # # # # # ",
"# # # # # # # # # # # # # # # # # # # # # # q # # # # # # # @ @ = $ = = = = = = # # # # @ @ @ # # # # # # # # # # # # # # # # # # # # # # # # # @ # # # # # # # ",
"# # # # # # # # # # # # # # # # # # # # # # # # # # # # # # # # = # = = = # = = # # # # q q # # # # # # # # # # # # # # # # # # # # # @ # # # # # # # # # # # # ",
"# # # # # # # # # # # # # # # # # # # # # # # # # # # # @ # @ # # = = = = # # # # # q q q q q # # # # # # # # # # # # # # # # # # # # # # # # # # # # # # # # # ",
"# # # # # # # # # # # # # # # # # # # # # # # # # # # # # @ # # = = # # # # # @ @ # @ @ # # # # # # # # # # # # # # # # # # # # # # # # # # # # # # # # # # # # ",
"# # # # # # # # # # # # # # # # # # # # # # # # # # # # # # # # = = = w = # # # @ @   @ @   @ # # # # # # # # # # # # # # # # # # # # # # # # # # # # # # # q r ",
"# # # # # # # # # # # # # # # # # # # # # # # # # # # # @ @ # # = = = = $ = # q # # # & @ # - # # # # # # # # # # # # # # # # # # # # # # # # # @ # # # # e y y ",
"# # # # # # # # # # # # # # # # # # # # # # # # # # # # @ @ @ # = = $ $ O $ = = # # & - - - # # @ # # # # # # # # # # # # # # # # # # # # # # # # # # # e u y e ",
"# # # # # # # # # # # # # # # # # # # # # # # # # # # # # # # # # # % X . o o + . . O & # - # # # # # # # # # # # # # # # # # # # # # # # # # # # # # e u e q # ",
"# # # # # # # # # # # # # # # # # # # # # # # # # # # # # @ # @ # = X + x K ..........J O @ @ # # # # # # # # # # # # # # # # # # # # # # # # = # e u u = # # # ",
"# # # # # # # # # # # # # # # = # # # # # # # # # # # # # @ @   @ @ $ 9 ~ } p.l.c.z.M.H.v   @ @ # = # = # # = # # # # # # # # # = = # = # $ = = r p r = = $ # # ",
"# # # # # # # # # # # # = = = = # # # # # # # # # # # # @ q #     # + V } | %.s.d.f.l.L.L X   @ $ = = = = = = = # # # # = = # # = = = = = = e u p e = # = = = = ",
"# # # # # # # # # # # # = = = = # # # # # # # # # # # # # q #     @ + S } | | s.f.x.x.L.q.5   # # = = = = = = = # # # # = = = = $ = = = = e p r = = = = = = = = ",
"# # # # # # # # # # # # # # = = # e # # # # # # # # # # # # #     $ < Q { | | s.N.x.V.K.G.g   # # # = = = # = = = = = = # # = = = = = w r p e = = = = = = = = = ",
"# # # # # # # # # # # - # # = = # # # # # # # # # # # # # q q @ # @ x ^ ` | $.i.B.V.C.Z.I.m   @ $ = = = = = = = = = = # = = = # = = e u p e = = = = = = = = = = ",
"# # # # # # # # # # # # # # - # # # # # # # # # # # # # # q # @ @ o x / | ` $.i.V.C.C.Z.E.D X $ $ # = = = = = = = = = = = = = - = r p r = = = = = = # = = = # = ",
"# # # # # q # # # # # # - # # # # # - # # # # # # # # # # # # @ = o c +.] ` | i.B.Z.Z.T.W.P = $ # = = = = = = = = = = # = = = e y u e = = = # = # = = = = = = = ",
"# # # # # # # # # # # = = = = = = = = # # # # # # # # # = # @   = 3 N o.o._ $.u.V.~.~.A.).7.* # # = = # = = = = = = = = # - r p y - # # = = = $ = = = = = = = = ",
"# # # # # # # # # # = = = = = = = = # # # # # # # # # # @ # @ @ = 3 B $.O._ $.:.V.~.(.(.`.e.* # # $ = = = = = # = = # = = r p e = = = = # = = # = # = = = = = = ",
"# = = # # # # = # # # = = = # = = = # # # # # # # # # # # @ # @ = > U %.[ ) O.>.B.~.(._.}.S.: # = # # = = = = = = = = - p u e = = = = = $ # = = = = = = = = = = ",
"= = = = = = = = = = = = = = = = = = = = = = w = # # # # # # @ @ $ > Y &.O.) [ >.B._.`._. XD.: # # # = $ = = = = = = y a e = = = = # = @ # = = = = = = = = = = = ",
"= = = = = # = = = = = = = = = = = = = = # = = = = = q # # @ @ @ # < T &.O.) o.-.B./._.`. XJ.f @ # # = = = = = = e u p - = = = = = = = = = = = = = = = = = = = = ",
"= = = = = = = = = = = # = = = = = = = = w = = # = = = # @ # #   @ 1 E &.[ ) O.-.B._.`.`. XP.f @ # = = = # # = e p p = # = = = = = = = = = = = = = = = = = = # = ",
"= = = = = = = = = = = = = = = = = = = = = = # w = = # # # # $ $ @ 1 E &.O.) O.-.v._.`.[. XR.z # # = $ = = - r p r = = = = = = = # = = = = # = = = = # = = = = = ",
"= = = = = = = = = = = = = = = = = = = = = = = = = = = q # # $ X X 2 W &.[ ) [ -.v.[.`.{. XR.z   # # # = e p u e = = = = = = = = = # = = = = = = = = = = = = = = ",
"# = = = = = = = # # # # # # = = = # = = = = = w = = # # # # $ X @ 8 W &.[ ) O.>.d./.`.[. XQ.n @ # # = r p r = = = = = # # $ # # # # = = = = = = = = = = = = = = ",
"= = = = = = = = # # q - = = = = = = = = = = = # = = # q # = $ X X 8 E >.O.) O.>.l.~.`.[. XQ.m # = e p p e - = = = = = = = = = = # - = = = = = = = = = = = # = = ",
"# = # = = # # # # # # # # # = # # = # = # = # # # q # q # # $ X X 9 ) >.[ ) [ >.l./.).[.{..XC   r p u e = = # # = = = = = = = = # # # # # # # = # = = = = = = = ",
"# # # # # # # # # # # # # # # # # # # # # q # # # # # # # # $ X   9 ) [ [ ) O.;.k./.[.].]..XG r p e = = = = # # = = = = = = = = # # # # # # # # # # # = = = = = ",
"# # # # # # # # # # # # # # # # # # # # # q # # # q # # = = $ X X 2 W &.[ ) O.-.k.^.].].|..XH r = # # # # @ # # # = = = = = = = # # # # # # # # # # # # = = = = ",
"# # # # # # # # # # # # # # # # # # # # # # # # # # # # = $ $ X X 2 W &.[ ) O.;.k.^.'.].|.R.n @ # # # # # # # # # = = = = = = = # # # # # # # # # # # # = = = = ",
"# # # # # # # # # # # # # # # # # # # # # # # q # # # # # = X $   2 E &.[ ) O.-.h.^.'.].W.F.z @ # # # # # # # # = = = = = = = = # # # # # # # # # # # # = = # # ",
"# # # # # # # # # # # # # # # # # # # # q # # # q # # # # = $ $ X < R &.[ ) O.;.h.^.T.U.Y.F.z @ # # # # # # # # # = = = = # = = # # # # # # # # # # # # = = # - ",
"# # # # # # # # # # # # # # # # # # # # # # # # # # # # # @ $ #   , T %.] ) o.;.c.U.m.U.!.F.f @ # # # # # # # # # # = = = = = = # # # # # # # # # # # # # # # # ",
"# # # # # # # # # # # # # # # # # # # # # # # q # q # # # @ $ $ @ , Y %.O.' $.:.a.m.U.Y.W.D.7 @ # # # # # # # # # # # # = = = = # # # # # e # # # # # # # - # # ",
"# # # # # # # # # # # # # # # # # # # # # # # # q # q # # @ @ # # > U %.[ ] $.+.6.M.U.U.E.e.: # # # # # # # # # # # # # = = # = # # # # # # # # # # # # # # # # ",
"# # # # # # # # e # # # # # # # # # # # # q # # # # # # # @ @ # # o A %.$.` ] +.g.m.m.K.Y.w.& @ @ # # # # # # # # # # # = = = = # # # # # # # # # # # # # # # # ",
"# # # # # # # # # # # # # # # # # # # # # # # # # # # # # # @   $ + A +.] ( $.=.g.n.n.n.K.7.- # # # # # # # # # # # # # # # # = # # # # # # # # # # # # # # # q ",
"# # # # # # # # # # # # # # # # # # # # # # # # # # # # # # & O % 5 Z { ` ` O.=.r.b.j.h.K.I   @ # # # # # # # # # # # # # # # # # # # # # # # # # # # # # # # # ",
"# # # # # # # # # # # # # # # # # # # # # # # # # # # # # @ - & i 5 x ^ ] ` +.@.r.t.r.j.y.J   @ @ # # # # # # # # # # # # # # # # # # # # # # # # # # # # # # # ",
"# # # # # # # # # # # # # # # # # # # # # # # # # # # # # # r y r $ 0 ^ ` [ O.@.6.6.5.6.y.n   @ # # # # # # # # # # # # # # # # # # # # # # # # # # # # # # # # ",
"# # # # # # # # # # # # # # # # # # # # # # # # # # # # - y u ; @   2 Q ' [ | @.3.3.3.4.9.h @ @ # # # # # # # # # # # # # # # # # # # # # # # # # # # # # # # # ",
"# # # # # # # # # q # # # # # # # # # # # # # # # # # e i y e #     , A ' O.] *.2.2.2.0.X.7 # # # # # # # # # # # # # # # # # # # # # # # # # # # # # # # # # # ",
"# # # # # # # # # # # # # # # # # # # # # # # # q e y u - = # @     O M / o.' *.1.1.<.0.L + # # # # # # # # # # # # # # # # # # # # # # # # # # # # # # # # # # ",
"# # # # # # # # # # # # # # # # # # # # # # # # r u y e # = q       @ 0 Q / / #.*.<.,.8.b X   @ # # # # # # # # # # # # # # # # # # # # q # # # # # # # # # # # ",
"# # # # # # # # # # # # # # # # # # # # # # w r u y # # @ # # @ X w w 4 V D F Q Q !  .K :   @ # # # # # # # # # # # # # # # # # # # # # # # # # # # # # # # # # ",
"# # # # # # # # # # # # # # # # # # # # # e y u r # # # # # # @   w t - : , 6 1 < < 6 ; - e # # # # # # # # # # # # # # # # # # # # # # # # # # # # # # # # # # ",
"# # # # # # # # # # # # # @ # # = = = = e p y - # = # # # $ # = # = = = $ X @ @ $ $ $ # # # # = # # # @ = # # # # # # # # # # # # = = # # # # # # # # # # = = # ",
"e # # # # - # # - # # # # # # # = = e u p e = = = # # # = = = = = # # # # # # # # # = = # # # # # # # # = = = = = # # # - # # # = = = = = # = = = # # # = = = = ",
"# # = = = = = = = = = # = = = = = e p p - = = = # = = = = = = = = = = = = # # # # # $ = = = = = = = = = = = = = = = = = = = = = = = = = = # = = = = $ = = = = = ",
"# # = = = # # = = = = = # # = = u a u = = # # = = $ = = = = = = = = $ # = = $ # # # # # = $ = = # = = = = = = = = = = = # = = = = = $ = = = = = = = # = = = # = ",
"# # - # # = = = = = = = $ = e u p e = = = = = = = # = = = = = = = = # $ = = $ = $ = # = = = = = # = = = # = = = = = = = = = = = = = # = = = = = = = = = = = = = ",
"# # # # = = = = = = = = = r p r w = = = # $ # # # = = = # = = = = = = = = = # = = = = = = # # = = = = = = = = = = = = = = = = = = = = = = = = = = = = = = = = = ",
"= = = = = = = = = = = e u p e = = # # = = = = = = = = = = = = = = = = = = = = = = = = = = = = = = = = = = = = = = = = = = = = = = = = = = = = = = = = = = = = = ",
"= = = # = # = = = = e p u - = = = # # = # = = = = = $ # = = = = = = = = = = = = = # = = = = = = = = = = = = = = = = # = = # = = = = = = = = = = = = # = = = # = ",
"# = # = = = = = = u p r = = = = = = = = = = = = = = = = = = = = = = = = = = = = = = = = = # = = = = = = = = = = = = = = = = = = = # = = = = # = = = = = = = = = ",
"= = $ = = = = - p p e = = = # = = = = $ = = = = # = = = = = = = = # = = = = = = = = = = = = = = = # = = = # $ = = = = = = = = = = = = = = = = = = = = = = = = = ",
"= = = = = = r p u = = = = # = = = # # $ = = = = = = = = = = = # # = = = = = = # = = = = = = = = = = = = = = = = = = = = = = = = = = = = = $ # = = = = = = = = = ",
"# # = = = p p r = = = = = = = = = = = = = = = # = = = = = = = = = = = = = = = = = = = = = = = = = = = = = = = # = = = = = = = = = = = = = = = = = = = = = = = = ",
"$ = = e p u - = = = = = = = = = = = = = = = = = = = = = = = = = = = = = = = = = = = = = = = = = = = = = = = = = = = = = = = = = = = = = = = = = = = # = = = # = ",
"= - r p r = # $ = = = = = = = = = = = = = = = = = = = = = = = = = = = = = = = = = = = = # = = = = = = = = = = = = = = = = = # = = = = = = = = = = = = = = = = = ",
"e u p e = = # # = = = = = = = = = = = # = = = = = = = = = = = = = = = = = = = = = $ # = # = = = = = = = = = = = = = # = = = = = = = = = = = = = = = = = = = = = ",
"p r = # # = = = = = = = = = # = = = = = = = = = = = = = = = = = = = = = = = = = = = = = = = = = # = = = = = = = # = = $ = = = = = # = = = = = = = = # = = = = = ",
"e = = = = = = = = = = = = = = = = = = = = = = = = = = = = = = = = = = = = = = = = = = = = = = = = = = = = = # = = = = = = = = = = = = = = = # = = = = = = = = = ",
"= = = = = = = = = = = = = = = = = = = = = = = = # = = = = = = # # = = = = = = # = = = = = = = = = = = = = = = = = = = = = = = = = = = = = = = = = = = = = = = = "
};
