/* XPM */
static char *_1672937715[] = {
/* columns rows colors chars-per-pixel */
"80 80 253 2 ",
"   c #3C3C2D",
".  c #39392A",
"X  c #363D34",
"o  c #3C3C34",
"O  c #3C363B",
"+  c #353D3B",
"@  c #3D3D3D",
"#  c #393634",
"$  c #3A2E3C",
"%  c #433C2D",
"&  c #443928",
"*  c #423533",
"=  c #433C35",
"-  c #43353B",
";  c #423C3B",
":  c #493939",
">  c #462D2F",
",  c #3D412F",
"<  c #354327",
"1  c #2F4238",
"2  c #354134",
"3  c #3A4234",
"4  c #35413B",
"5  c #3B413B",
"6  c #2F412B",
"7  c #424134",
"8  c #41413C",
"9  c #494039",
"0  c #444227",
"q  c #2C3F48",
"w  c #3D3643",
"e  c #353D44",
"r  c #3C3C43",
"t  c #3C364B",
"y  c #343C4B",
"u  c #3C3C4A",
"i  c #313745",
"p  c #2D3D55",
"a  c #343E53",
"s  c #383A58",
"d  c #1A3A78",
"f  c #153A67",
"g  c #2E3B64",
"h  c #353A65",
"j  c #263E7C",
"k  c #443543",
"l  c #423C43",
"z  c #423C4B",
"x  c #473849",
"c  c #423B52",
"v  c #2C4245",
"b  c #354242",
"n  c #3B4243",
"m  c #35424C",
"M  c #3B424B",
"N  c #354842",
"B  c #2B455B",
"V  c #354357",
"C  c #19476D",
"Z  c #1F4976",
"A  c #294468",
"S  c #354568",
"D  c #284475",
"F  c #2D4B78",
"G  c #1E495A",
"H  c #434142",
"J  c #41434C",
"K  c #2D3E86",
"L  c #1B4687",
"P  c #194C9B",
"I  c #1A5497",
"U  c #1C5B86",
"Y  c #254786",
"T  c #265287",
"R  c #224793",
"E  c #245399",
"W  c #335484",
"Q  c #1948A6",
"!  c #1855AA",
"~  c #154BB5",
"^  c #1957B9",
"/  c #2358B3",
"(  c #254EA4",
")  c #1A66B5",
"_  c #1B67AB",
"`  c #2368A8",
"'  c #2863B3",
"]  c #206791",
"[  c #0B56C9",
"{  c #1A58CD",
"}  c #0B59D8",
"|  c #1656D4",
" . c #164DD1",
".. c #265FDB",
"X. c #1767C8",
"o. c #1975CA",
"O. c #0B65D9",
"+. c #1665D9",
"@. c #0B76DA",
"#. c #1676D7",
"$. c #0D63CA",
"%. c #236FCB",
"&. c #185AE7",
"*. c #1057E3",
"=. c #0C6CE7",
"-. c #1569E8",
";. c #0B78E7",
":. c #127CEC",
">. c #1777E5",
",. c #186BF7",
"<. c #0C79F8",
"1. c #1473F3",
"2. c #167CF5",
"3. c #0F6FF9",
"4. c #227FFA",
"5. c #2471EC",
"6. c #258FB9",
"7. c #1884D6",
"8. c #1087D9",
"9. c #2185DD",
"0. c #0AA3DF",
"q. c #0986E7",
"w. c #1588E8",
"e. c #0C93EA",
"r. c #1497E8",
"t. c #0D86F4",
"y. c #1384F3",
"u. c #158BF4",
"i. c #148BFC",
"p. c #1987FA",
"a. c #0D97F8",
"s. c #1493F3",
"d. c #149CF4",
"f. c #1A9AF4",
"g. c #1594FB",
"h. c #1B94FE",
"j. c #139EFD",
"k. c #1B9CFD",
"l. c #1B94F2",
"z. c #2285ED",
"x. c #2385F9",
"c. c #2196FC",
"v. c #2096E0",
"b. c #0BA1EC",
"n. c #18A7EE",
"m. c #15B8EB",
"M. c #0EA2FE",
"N. c #0EADFE",
"B. c #0DA9F4",
"V. c #13A4FC",
"C. c #1AA4FD",
"Z. c #14ACFD",
"A. c #1BACFE",
"S. c #17A7F4",
"D. c #0DB8FA",
"F. c #15B3F3",
"G. c #14BCF4",
"H. c #13B3FC",
"J. c #1AB3FD",
"K. c #14BCFD",
"L. c #1ABCFD",
"P. c #1BBBF4",
"I. c #24AAFC",
"U. c #2DB8F5",
"Y. c #15C6EC",
"T. c #0ED3EE",
"R. c #16D4EB",
"E. c #0BC5F4",
"W. c #0CCAF5",
"Q. c #0CC4FD",
"!. c #0CCCFD",
"~. c #05C6FA",
"^. c #14C4F5",
"/. c #13C4FE",
"(. c #1BC2FE",
"). c #13CBFD",
"_. c #1BCBFE",
"`. c #17CBF4",
"'. c #0DD3FD",
"]. c #0DDBFD",
"[. c #0AD3F6",
"{. c #14D3F3",
"}. c #14DBF5",
"|. c #13D3FD",
" X c #1BD4FD",
".X c #14DCFE",
"XX c #1CDAFE",
"oX c #1CD6F5",
"OX c #0FC4EC",
"+X c #29C8F7",
"@X c #25D6F8",
"#X c #36D9F9",
"$X c #30CDEF",
"%X c #0EE1FD",
"&X c #0DEBFA",
"*X c #15E4FD",
"=X c #11ECFC",
"-X c #19EDFD",
";X c #19E4F9",
":X c #0AF8FC",
">X c #14F3FE",
",X c #16F9FF",
"<X c #19EBEB",
"1X c #26EAF8",
"2X c #3BE3F8",
"3X c #36FCFB",
"4X c #2AECF0",
"5X c #53D0F2",
"6X c #69D7F7",
"7X c #4AE8EA",
"8X c #56E5FB",
"9X c #49FAF8",
"0X c #54FEFD",
"qX c #5BFBFF",
"wX c #57F8F7",
"eX c #53E6F3",
"rX c #6BE7F9",
"tX c #77E8F2",
"yX c #63FDFE",
"uX c #6CFEFE",
"iX c #66F7F9",
"pX c #73FCFD",
"aX c #7CFDFC",
"sX c #79F7FA",
"dX c #6EECE1",
"fX c #8BE7FA",
"gX c #82FDFC",
"hX c #8CFDFD",
"jX c #85F2FF",
"kX c #95FCFE",
"lX c #9CFDFD",
"zX c #98FBF5",
"xX c #93E6F1",
"cX c #A4FFFD",
"vX c #ACFEFD",
"bX c #A6F3FA",
"nX c #B5FDFD",
"mX c #BCFDFC",
"MX c #B8F8F9",
"NX c #B3EBF0",
"BX c #80D3F1",
"VX c #C4FDFC",
"CX c #CCFBFC",
"ZX c #C8F9F6",
"AX c #D4FDFD",
"SX c #DBFEFD",
"DX c #CCE6E5",
"FX c #E4FEFD",
"GX c #ECFEFD",
"HX c #EBF9F7",
"JX c #F5FEFD",
"KX c #FDFEFD",
"LX c #F9FDF6",
/* pixels */
"@ @ @ @ @ @ @ @ @ @ @ @ @ @ @ @ @ @ @ @ @ @ @ @ @ @ @ @ @ @ @ @ @ @ @ @ @ @ @ @ : 4 b r ; : r n r 0 z u 7 @ n X @ @ @ @ @ @ @ @ @ @ @ @ @ @ @ @ @ @ @ @ @ @ @ @ ",
"@ @ @ @ @ @ @ @ @ @ @ @ @ r @ @ @ @ r @ 5 ; @ @ @ @ @ @ @ @ @ r @ @ @ @ @ @ @ @ o r 7 o r @ 3 r 5 v O = + r = l @ @ @ @ @ @ @ @ @ ; @ @ r @ @ @ @ @ @ @ @ @ @ @ ",
"@ @ @ @ @ @ @ @ @ @ @ @ ; @ @ @ @ @ @ @ @ @ @ @ @ @ @ @ @ @ @ @ @ @ @ @ @ @ @ @ @ = + @ n ; ; 7 > : J 5 @ u 5 o @ @ @ @ @ @ @ @ @ @ @ @ @ @ @ @ @ @ @ @ @ @ ; 5 ",
"@ @ @ @ @ @ @ @ @ @ @ @ @ @ @ @ @ @ @ @ @ @ @ @ @ @ @ @ @ 5 @ @ @ @ @ @ @ @ @ @ y r ; 8 @ O A _ X.F .   l 5 r r @ @ @ @ @ @ @ @ @ @ @ @ @ @ @ @ @ @ @ @ @ @ r @ ",
"@ @ @ @ @ @ @ @ r @ @ @ @ @ @ @ @ @ @ @ @ @ @ @ @ @ @ @ @ @ ; @ @ @ @ @ @ @ @ @ l n p @ . A +.j.l.+.B ; J 2 u ; r @ @ @ @ @ @ @ @ @ @ @ r @ @ @ @ @ @ @ @ @ @ @ ",
"@ @ @ @ @ @ @ @ @ @ @ @ @ @ @ @ @ @ @ @ @ @ @ @ @ @ @ @ @ @ @ @ @ @ @ @ @ @ @ @ 5 d d o ; V B A d L A @ # l 5 7 @ @ @ @ @ @ @ @ @ @ @ @ @ @ @ @ @ @ @ @ @ @ @ @ ",
"@ @ @ @ @ @ @ @ @ @ @ @ @ @ @ @ @ @ @ @ @ @ @ @ @ @ @ @ @ @ @ @ @ @ @ @ @ @ @ @ 1 z x + o % ; a d & % 3 : x # + @ @ @ @ @ @ @ @ @ 5 @ @ @ @ @ @ @ @ @ @ @ @ @ @ ",
"@ @ @ @ @ @ @ @ @ @ @ 5 @ @ @ @ @ @ @ @ @ @ @ @ @ r @ @ @ @ @ @ r @ @ @ @ @ @ ; = @ r 5 5 u u % w i e @ 5 4 u ; @ @ @ @ @ @ @ @ @ @ @ @ @ @ @ @ @ @ @ @ @ @ @ @ ",
"@ @ @ @ @ @ ; @ @ @ @ @ @ @ @ @ @ @ @ @ @ @ @ @ @ @ @ @ @ @ @ @ l + 5 r @   b V @ w r o @ = M - r * D i ; + u 8 @ @ @ @ @ @ @ @ @ @ ; @ @ @ @ @ @ @ @ @ @ @ @ @ ",
"@ @ @ r @ @ @ @ @ @ @ @ @ @ @ @ @ @ @ @ @ @ @ @ @ @ @ @ @ @ @ @ ; 3 5 n l - u S M 3 m V ; 5 : r o - ` T & e o @ @ @ @ ; @ @ @ @ @ @ @ @ @ @ @ @ @ @ @ @ @ @ @ @ ",
"@ @ @ @ @ @ @ @ @ @ @ @ @ @ @ @ @ @ @ @ @ @ @ @ @ @ @ @ @ @ @ @ @ o + l @ @ u V n & W _ 5 X o N + O 6.o.. n l r @ @ @ @ @ @ @ @ @ @ @ @ @ @ @ @ @ @ @ @ @ @ @ @ ",
"@ @ @ @ @ @ @ @ @ @ @ @ @ @ @ ; @ @ @ @ @ @ @ @ @ @ @ @ @ @ @ @ r r r @ - @ @ r n V 7.%.k @ 5 - m . 6.w.p   k 4 @ @ @ @ @ @ @ @ @ @ @ @ @ @ @ @ @ @ r @ @ @ @ @ ",
"@ @ @ @ @ @ @ @ @ @ @ @ @ @ @ @ @ @ @ @ @ @ @ @ @ @ @ @ @ @ @ @ l @ n @ @ = @ 5 V ( %.S l l e ; l 4 R.r.g = X 5 @ @ @ @ @ @ @ @ @ @ @ @ @ @ @ @ ; @ @ @ @ @ @ @ ",
"@ @ @ @ @ @ @ @ @ @ @ @ @ @ @ @ @ @ r 8 @ @ @ @ @ @ @ @ @ @ @ @ o @ ; o @ r r @ 3 . 3 * b & o n - E =Xv.a : + l r @ @ @ @ @ @ @ @ @ 5 r @ @ @ @ @ @ @ @ @ @ @ @ ",
"@ @ @ @ @ @ @ @ r 5 @ @ @ @ @ @ @ @ @ @ @ @ @ @ @ @ @ @ @ @ @ @ , @ @ 5 5 r r @ n = z r X n H & A r.&X8.p % r @ @ @ @ @ @ @ @ @ @ @ @ @ @ @ @ @ @ @ @ @ @ @ @ @ ",
"@ @ @ @ @ @ @ @ @ @ @ @ @ @ @ @ @ @ @ @ @ @ @ @ @ @ @ @ @ @ @ @ @ u r @ 5 r n o n ; o 5 @ b & g o.XXoX@.g = ; n @ @ @ @ @ @ @ @ @ @ @ @ @ @ @ @ @ @ @ @ @ @ 5 @ ",
"@ @ @ @ @ r @ @ @ @ @ @ @ @ @ @ @ @ @ @ @ @ @ @ o ; l 3 o l r = : - o o * # o + . 8 @ X = t L >.[.*X*X8.p & n - @ @ @ @ @ @ @ @ @ @ @ @ @ @ @ @ @ @ @ @ ; @ @ @ ",
"@ @ @ @ @ ; @ @ @ @ @ @ @ @ @ @ @ @ @ @ @ @ @ @ 5 t 5 m w   s D Q ! ^ ^ / E D h u k - a Y { e.]..X*Xm.F * H @ 5 @ @ @ @ @ @ @ @ @ @ @ @ ; @ @ @ @ @ @ @ r @ @ @ ",
"5 @ @ @ @ @ @ @ @ @ @ @ @ @ @ @ @ @ @ 5 @ @ @ @ O 4 z * q T +.u.M.C.j.j.M.j.u.>. .! ) #.<.C._.;X.Xb.W 7 X n o r @ @ @ @ @ @ @ @ @ @ @ @ n @ @ @ @ @ @ @ @ @ @ @ ",
"@ @ @ @ @ @ @ @ @ @ @ @ @ @ @ @ @ @ r ; @ @ @ @ @ z * p o.V.OX/.Q.^.F.S.S.j.u.:.u.i.p.c.S.Q.]. XB.Z * H 2 3 x + @ @ @ @ @ @ @ @ @ @ @ @ @ @ @ @ @ @ @ @ @ @ @ @ ",
"@ @ @ @ @ @ @ @ @ @ @ @ @ @ @ @ @ @ @ @ @ @ @ @ n   F w.K.)./.D.L.H.Z.Z.A.C.C.g.h.i.a.m.`.|.Z.;.I o o u @ - @ @ @ @ @ @ @ @ @ @ @ @ @ @ @ @ @ @ @ @ @ @ @ @ @ @ ",
"@ @ @ @ @ @ @ @ @ @ @ @ @ @ @ @ @ @ @ @ @ @ @ @ % A :./.OXZ.K.J.Z.Z.V.A.k.l.u.a.0.P.(.H.e.^ L g r l l @ @ ; 5 + @ @ @ @ @ @ @ @ @ @ @ @ @ @ @ @ @ @ @ @ @ @ @ @ ",
"@ @ @ @ @ @ @ @ @ @ @ @ @ @ @ @ @ @ r @ @ @ @ @ y +.V./.A.J.P.n.I.f.d.s.d.M.F.G.J.V.#.Y x @ 5 - 3 l w k 3 4 c X @ @ @ @ @ @ @ @ @ @ @ @ @ @ @ @ @ @ @ @ @ @ @ @ ",
"@ @ @ @ @ @ @ @ @ @ @ @ @ @ @ @ @ @ @ @ @ @ @ @ D p.K.m.H.H.j.g.a.d.Z.K./.(.S.w.,.P y o 3 + 5 l w 3 3 3 5 r r ; r 5 @ @ @ @ @ @ @ @ @ @ @ @ @ @ @ @ @ @ @ @ @ @ ",
"@ @ @ @ @ @ @ @ @ @ @ @ 8 @ @ @ 5 l + l = n @ @ ! M.J.Z.f.:.q.f.G.Q.).`.G./.B.u.I u = 4 4 ; O 5 @ @ @ @ @ @ @ @ ; @ @ @ @ @ @ @ @ @ @ @ @ @ @ @ @ @ @ @ @ @ @ @ ",
"@ @ @ @ @ @ @ @ @ @ @ @ r @ @ @ @ ; + r @ r ; y -.A.S.y.#.a.H.`.K.n.e.t.l.H.C.) w   = @ r 5 + n @ @ @ @ @ @ @ @ @ @ @ @ @ @ @ @ @ @ @ @ @ @ @ @ @ @ @ @ @ @ @ @ ",
"@ @ @ @ @ @ @ @ @ @ @ @ @ @ @ @ @ ; ; @ 3 r = j :.C.<.=.f.P.J.a.q.p.2.2.;.e.p.G ; n n r l = % ; @ @ @ @ @ @ r @ @ @ @ @ @ @ @ @ ; r @ @ @ @ @ @ @ @ @ @ @ @ @ @ ",
"@ @ @ @ @ @ @ @ @ @ @ @ @ @ @ @ ; 5 @ @ 4 k % L <.k.} e./.m.:.;.>.y.g.g.<.l.=.s X r # 7 m u O b @ @ @ @ @ @ @ @ @ @ @ @ @ @ @ @ 5 @ @ @ @ @ @ @ r @ @ @ @ @ @ @ ",
"@ @ 5 l @ @ @ @ @ @ @ @ @ @ @ @ ; o r @ 4 l = L 1.z.O.G.A.;.-.1.<.y.u.f.u.u.[ h = r = o b r l r @ @ @ @ @ @ @ @ @ ; @ @ @ @ @ @ @ @ @ @ @ @ @ @ @ @ @ @ @ 5 ; @ ",
"@ @ @ @ @ @ @ @ @ @ @ @ @ @ @ @ @ @ @ @ + @ : D -.>.@.L.>.-.} ( Q ! +.y.h.w.} Y = @ H O + 5 = - @ @ @ @ @ @ @ @ @ 5 @ @ @ @ @ @ @ @ @ @ @ @ @ @ @ @ @ @ @ @ @ @ ",
"@ @ @ @ @ @ @ @ @ @ @ @ @ @ @ @ @ @ + r = r @ y &.&.s.w.} } R & k 4 Y  .2.u.2.-.S + ; r @ 5 5 r @ @ @ @ @ @ @ @ @ @ @ @ @ @ @ @ @ @ @ @ @ @ @ @ @ @ @ @ @ r @ @ ",
"@ @ @ @ @ @ @ @ @ @ @ @ @ @ @ @ 5 l o l 7 n r @ Y } g.>. .-.S X 5 . : Y } u.:.c.8.F u r O - @ 8 @ @ @ @ @ @ @ @ @ @ @ @ @ @ @ r @ @ @ @ @ @ @ @ @ @ @ @ @ @ @ @ ",
"@ @ @ @ @ @ @ @ @ @ @ @ @ @ @ @ @ @ @ @ @ @ @ @ a ~ s.#.*.,.U & x < r V | y.u.2.L.d.=...` Z e * : n 3 ; 3 2 o m @ @ @ @ @ @ @ ; @ @ @ @ @ @ @ @ @ @ @ @ @ @ @ @ ",
"5 @ @ @ @ @ @ @ @ @ @ @ @ 5 ; @ @ @ @ @ @ @ @ @ o D 1.;..... .h = X l # Q 2.h.5.a.H.G.Z.Z.A.9.Q v . c u @ ; r o @ @ @ @ @ @ @ @ @ @ @ @ @ @ @ @ @ @ @ @ @ @ @ @ ",
"r @ @ @ @ @ @ ; @ r @ @ @ @ @ @ @ @ @ @ @ @ @ @ = l ( 1.5.-.3.,.E s 5 b Q >.c.x.4.s.D.K.L.J.A.F.) b : l w l r @ @ @ @ @ @ @ @ @ @ @ @ @ @ @ @ @ @ @ @ @ @ @ @ @ ",
"@ @ @ @ @ @ @ @ @ @ @ @ @ @ @ @ @ @ @ @ @ @ @ @ e l o Y P Q T E ^ D v C Q =.k.p.z.:.2.j.Z.F.F.B.h.! 4 5 ; ; o r @ @ @ @ @ @ @ @ @ @ @ @ @ @ @ @ @ @ @ @ @ @ @ @ ",
"@ @ @ @ @ @ @ @ @ @ @ @ @ @ @ @ @ @ @ @ @ @ @ @ 2 r x ; 4 o   & m V s P Q O.Z.u.c.h.y.>.2.k.I.A.A.2.L O 7 4 5 ; @ @ @ @ @ @ @ @ @ @ @ @ @ @ @ @ @ 5 @ @ @ @ @ @ ",
"@ @ @ @ @ @ @ @ @ @ @ @ @ @ @ @ @ @ @ @ @ @ @ @ u   3 5 x @ + 8 = 5 n o. .} S.h.i.g.l.z.5...y.d.C.V.+.y = e r ; @ @ @ r @ @ @ @ @ @ r ; @ @ @ @ ; r @ @ @ @ @ @ ",
"@ @ @ @ @ @ @ @ @ @ @ @ @ @ @ @ @ @ @ @ @ @ @ @ ; @ 4 @ : @ 4 H r O r o.} *.s.Z.j.c.k.V.g.:.-.,.2.n.-.D - r 5 r @ @ @ @ @ @ @ @ @ @ @ @ @ @ @ @ @ @ @ @ @ @ @ @ ",
"@ @ @ @ @ @ @ @ @ @ @ @ r @ @ @ @ @ @ @ @ @ @ r ; 4 e l 5 4 l O ; @ M X.*.t.S.F.k.k.g.k.C.u.w.z.-.y.1.R % l 2 l @ @ @ @ @ @ @ @ @ @ @ @ @ @ @ @ @ @ @ @ @ @ @ @ ",
"@ @ @ ; @ @ @ @ @ @ @ @ @ @ @ @ @ ; @ @ @ @ @ @ x 5 4 @ O 5 @ k 3 = F | =.j.P.D.H.d.j.C.V.j.w.h.u.+.1.L @ ; o 5 @ @ @ @ @ @ @ @ r @ @ @ @ @ @ @ @ @ @ @ @ @ @ @ ",
"@ @ @ @ @ @ r @ @ @ @ @ @ @ @ @ @ r @ @ @ @ @ @ 2 @ @ @ @ @ ; 5 = m Q ,.w.J.m.(./.S.f.C.N.N.;.x.c.:.{ D = = @ r @ @ @ @ @ @ @ @ ; @ @ @ @ @ @ @ @ @ @ @ @ @ @ @ ",
"@ @ @ @ @ @ @ @ @ @ @ @ @ @ @ @ @ @ @ @ @ @ @ @ 4 r @ o r w @ < i P >.:.e.L.^.K.D.K.D.r.s.A.;.x.C.i.[ B o e u @ @ @ @ @ @ @ @ @ @ @ @ @ @ @ @ @ @ ; @ @ @ @ @ @ ",
"@ @ @ @ @ @ @ @ @ @ @ @ @ @ @ @ @ @ @ @ @ @ @ @ l 7 r @ @ u o y Q -.u.u.Z.!.XXD.Q.(./.B.q.>.O.u.H.V.[ r - n r 2 @ @ @ @ @ @ @ @ @ @ @ @ @ 5 @ @ r @ @ @ @ @ @ @ ",
"@ @ @ @ @ @ @ 5 @ @ @ 5 @ @ @ @ @ @ @ @ @ @ @ @ 5 k - b n   S ~ 1.h.t.d./.W.#XP.K.J.D.Q.(.C.>.@.s.w.{ b ; 5 * @ @ @ @ @ @ @ @ @ @ @ @ @ @ @ @ @ 5 @ @ @ @ @ @ @ ",
"@ @ @ @ @ @ @ @ @ @ r ; @ @ @ @ @ @ @ @ @ @ @ @ 5 o r l < B &.y.g.k.V.G._.L.jXU.H./.!.K./.~.L.S.;.>.| v 3 r ; ; @ @ @ @ @ @ @ @ @ @ @ @ @ @ @ @ @ @ @ @ @ @ @ @ ",
"@ @ @ @ @ @ @ @ @ @ @ @ @ @ @ @ @ @ @ @ @ @ @ @ + 5 z ; A O.t.k.e.B.(.K.~.P.dXU.)./.Q./.(././.~.K.i.O.Y z l u 2 @ @ ; r @ @ @ @ @ @ @ @ @ @ @ @ @ @ @ @ @ @ @ @ ",
"@ @ @ @ @ @ @ @ @ @ @ @ @ @ @ @ @ @ @ @ @ @ @ @ r : o j +.h.V.e.V.K.Y._.|.XX+X{.!./.G.(././.L.K.Q.(.F.2.R 6 H l @ @ 5 @ @ @ @ @ @ @ @ @ @ @ @ @ @ @ @ @ @ @ @ @ ",
"@ @ @ @ @ @ @ 5 @ @ @ @ @ @ @ @ n + O r 4 + l O z = A -.C.w.:.e.{.%X&X>X,X:X,X,X-XXX_.[.~.^.(././.E.P.G.2.P ; @ t 5 . l r 5 l o @ @ @ @ @ @ @ @ @ @ @ r @ @ @ @ ",
"@ @ @ @ @ @ @ @ @ @ @ @ @ @ @ @ + 9 x o n = o m o m { <.;.;.Z.}.1X>X:X:X1X1X1X}.:X:X,X>X;X X).Q././././.I.+.B 0 o l r @ + @ ; @ @ @ @ @ @ @ @ @ @ @ @ @ @ @ @ @ ",
"@ @ @ @ @ @ @ @ @ @ @ @ @ @ @ @ o : : u - 3 n % e Q &.7.V._.%X1X&X-X7XxXZXFXAXbXrX2X=X=X>X:X&X;X^./.(.Q./.t.~ A n = n 4 o @ ; e @ @ @ @ @ @ @ @ @ @ @ @ @ @ 5 ; ",
"@ r ; @ @ @ @ @ r ; @ @ @ @ @ @ ; u X r l r 3 s ! w.n.Q.oX-X:X;XtXMXKXLXLXLXHXFXSXNXtXrX2X=X&X-X*X|.K.^.`.r.-.>.E +   y @ k ; 4 @ @ @ @ ; 5 @ @ @ @ @ @ @ @ r @ ",
"@ @ @ @ @ @ @ @ @ @ @ @ @ @ @ @ w 5 r 3 5 % S X.k.OX(.|.<X:X<XxXLXKXKXJXKXKXKXFXFXAXAXmXzXrX2X@X.X%XW.(._.r.;.+Xy.F % u @ r ; + @ @ @ @ @ @ @ @ @ @ @ @ @ @ @ @ ",
"@ @ @ @ @ @ @ @ @ @ @ @ @ @ @ @ @ = 5 b # S >.N.^./.Q.>X1XrXMXLXKXKXKXKXKXKXKXJXFXSXZXMXnXvXaX7X#X].[.K./.e.r.^.N./ w ; 5 r @ ; @ @ r @ @ @ @ @ @ @ @ @ @ @ @ @ ",
"@ @ @ @ @ @ @ @ @ @ @ @ @ @ @ @ = # 5 @ s >./._.Q. X].}.fXHXLXKXKXKXLXLXKXLXKXKXHXFXAXVXmXnXgXwXqX@X}.).^.q.B./.).#.l ; 4 @ 5 r @ @ @ @ @ @ @ @ @ @ @ @ @ @ @ @ ",
"@ @ @ @ @ @ @ @ @ @ @ @ @ @ @ @ u m = O _ B.).G.).E.^.5XJXKXKXKXKXKXKXKXKXKXJXKXJXFXSXVXMXcXkXaXuX7X|.!./.f.N.)./.o.+ u 1 = r ; @ @ @ @ @ @ @ @ @ @ @ @ @ @ @ @ ",
"@ @ @ @ @ @ @ @ @ @ @ @ @ @ @ @ ; r r B w._.Q.).W.).N.DXKXLXLXKXKXKXKXKXKXKXKXKXKXSXAXZXVXvXkXgXyXwXoX)./.OXK.).N./ @ 3 l ; y 7 @ @ @ @ @ @ @ @ @ @ @ @ @ @ @ @ ",
"@ @ @ @ @ @ r ; @ @ @ @ @ @ @ @ 5 r o S n.)./.).!._.Z.DXKXLXLXKXKXKXKXKXKXKXKXKXKXFXAXZXMXvXkXhXeX9X#XK.!.).Q.L.#.B @ r @ @ + = @ @ @ @ @ @ @ @ 5 @ @ @ @ @ @ @ ",
"@ @ @ @ @ @ @ 5 @ 5 ; @ @ @ @ @ @ r % F A.!./.).'.`.D.6XKXKXLXJXKXKXKXKXKXKXKXKXJXSXAXCXnXcXkXhX9X9X8XH.!.|.W.l.P < ; r o n 3 x @ @ @ @ @ ; @ @ ; r @ @ @ @ @ @ ",
"@ @ @ @ @ @ @ @ @ r @ @ @ @ @ @ @ H = Y Z.'.Q.|.!.XX'.5XKXKXKXKXKXKXKXKXKXKXKXKXFXSXAXVXnXlXzXhX0X7XwXJ.Q.|.L.$.s = l + o r + l @ @ @ @ r 5 @ @ @ @ @ @ @ @ @ @ ",
"@ @ @ @ @ @ @ @ @ @ @ @ @ @ @ @ @ @ ; A j.|.Q.{.|.=X:XoXHXKXKXKXKXKXKXKXKXKXKXJXGXAXCXVXvXcXkXhXwX2XwXG.Q.).g.~ o z r o ; @ + l @ @ @ @ @ @ @ @ @ @ @ @ @ @ @ @ ",
"@ @ @ @ @ @ @ @ @ @ @ @ @ @ @ @ r o ; m w._.!.).|.1X4X4XSXKXKXLXKXKXKXKXKXKXJXGXSXAXVXnXcXlXhXqX2X+X9X^.!._.;.^ @ @ r r : ; @ 5 @ @ @ @ @ @ @ @ @ @ @ @ @ @ @ @ ",
"@ @ @ @ @ @ @ @ @ @ @ @ r @ @ @ r @ O @ ) J.'.`.(.6XzXhXSXLXKXKXKXKXKXKXJXJXFXFXAXVXnXnXlXzXsX#XoX_.+Xm.|.^.t.X.r o @ u ; @ r + @ @ @ @ @ @ @ @ @ @ @ @ @ @ @ @ ",
"@ @ @ @ @ @ @ @ @ @ @ @ @ @ @ @ @ n o - I s.W._.E.xXSXMXmXFXFXGXJXKXJXJXJXFXSXSXAXmXvXcXzXkXpX<X].).u.F..X^.V.X.@ @ @ r X o z 3 @ @ @ @ @ @ @ @ @ @ @ @ @ @ @ @ ",
"@ @ @ @ @ @ @ @ @ @ @ @ @ @ @ @ r n r o ( <.Y.W.OX6XZXtXbXFXSXAXFXGXFXAXSXFXSXZXVXnXcXlXkXgXuX$X*XW./._.'.).L.! @ @ @ @ @ @ @ @ @ @ @ @ @ @ @ @ @ @ @ @ @ @ @ @ ",
"@ @ @ @ @ @ @ @ @ @ @ @ @ @ @ @ ; @ , ; R s.{._.`.$XVX5XxXAXCXFXSXSXSXAXCXCXVXnXnXvXkXkXhXaXuX#XE.@X_.).T.).S.L @ @ @ @ @ @ @ @ @ @ @ @ @ @ @ @ @ @ r @ @ @ @ @ ",
"@ @ @ @ @ @ @ ; @ @ @ @ @ @ @ @ @ @ o 7 D y.W.).).L.jXU.tXMXmXAXVXVXCXCXmXMXnXvXvXlXhXhXaXsXuX#X~.@X X`.{./.>.V @ @ @ @ @ @ @ @ @ @ @ @ @ @ @ @ @ @ @ @ @ @ @ @ ",
"@ @ @ @ @ @ @ n @ @ @ @ @ @ @ @ @ l r   m [ K.{._.).$XF.5XnXcXMXcXnXMXmXnXcXcXlXkXhXgXaXpXuXqX+X'.{.|.`.oXH.! , @ @ @ @ @ @ @ @ @ @ @ @ @ @ @ @ @ ; @ @ @ @ @ @ ",
"@ @ @ @ @ @ @ @ @ @ @ @ @ @ @ @ @ r r r ; C p.{. X{.Q.|.+XlXlXcXhXhXcXMXlXkXlXzXkXgXaXpXyXyX9X^.'.[.|.).|.t.B   @ @ @ @ @ @ @ @ @ @ @ @ @ @ @ @ @ @ @ @ @ @ @ r ",
"@ @ @ @ @ @ @ @ @ @ @ @ 5 @ @ @ + @ @ ; = @ ^ V.).T.XX.XOXeXjXlXsX6XzXzXkXgXzXgXgXaXuXqXqX0X2X^. XXX'.XXK.! = = @ @ @ @ @ @ @ @ @ @ @ ; @ @ @ @ @ @ @ @ @ @ @ @ ",
"@ @ @ @ @ @ @ @ @ @ @ ; r @ @ @ ; X @ = O ; v { J._.{.|.].+XsXhXaX$XrXhXaXaXsXpXuXyXyX0X9X9X@X).XX|._.`.7.p - ; @ r @ @ @ @ @ @ 5 @ @ r @ @ @ @ @ @ @ @ @ @ @ @ ",
"@ @ @ @ @ @ @ @ @ @ @ @ @ @ @ @ : 4 5 z e ; = D } Z.R._..XH.7XaXgX+X$XgXuXuXpXyXyXqX0X9X9X3XR.). X[.oXj.C : u 4 @ @ @ @ @ @ @ @ @ @ @ @ @ @ @ @ @ @ @ 5 @ @ @ @ ",
"@ @ @ @ @ @ @ @ @ @ @ @ @ @ @ @ @ @ @ @ @ @ @ @ s [ M.{.}./.+XyXyX8XD.$XqXuXqX0X0X0X9X3X3X1XoX|. X).w.Y = @ u = @ @ @ @ @ @ @ @ @ @ @ @ @ @ @ @ @ @ @ @ @ @ @ @ ",
"@ @ @ @ @ @ @ @ @ @ @ @ @ @ @ @ @ @ @ @ @ @ @ @ 3 v ^ a.XX*XOX#XqX$X'.|.Y.#X9X9X9X3X3X3X1X{.|..XQ.:.Z . r n 5 @ @ @ @ @ @ @ @ @ @ @ @ @ @ @ @ @ @ @ @ @ @ @ @ @ ",
"@ @ @ @ @ @ @ 5 @ @ @ @ @ @ @ @ @ @ @ @ @ @ @ @ u k # P a.).[.@X`.OX{.*X;X}.T.4X3X4X1X@X!.].XXG.$.A # H n O o o @ @ @ @ @ @ @ @ @ @ @ @ @ @ @ @ @ @ @ @ @ @ @ @ ",
"@ @ @ @ @ @ @ @ @ @ @ @ @ @ @ @ @ @ @ @ @ @ @ @   n x ; L =.d.r..X-X.X}.&X]..XT.%X}.}.}.]._.r.P s o H n + l l @ @ @ @ @ @ @ @ @ @ @ @ @ @ @ @ @ @ @ @ @ @ @ @ @ ",
"@ @ @ @ @ @ ; r @ @ @ @ @ r @ @ @ @ @ @ @ @ @ @ 3 + @ 8 O A ^ *.=.C._.}..XoX;X-X=X;X{.G.8.! D o = r o @ o o r u @ @ @ @ @ @ @ @ @ @ @ @ @ @ @ @ @ @ @ @ @ @ @ @ ",
"@ @ @ @ @ @ @ @ @ @ @ @ @ ; @ @ @ @ @ @ @ @ @ @ r @ O e 5 ; s g S f I o.o.9.w.q.8.#.^ R h - * 4 + 5 @ r 7   X r @ @ @ @ @ @ @ @ @ @ @ r @ @ @ ; @ @ @ @ @ @ @ @ ",
"@ @ @ @ @ @ @ @ @ @ @ @ @ @ @ @ @ @ @ @ @ @ @ @ @ 8 l o 2 ; - 2   % : O w u i s s u # & 0 ; l 3 5 n e X r J 7 o @ @ @ @ @ @ @ @ @ @ @ @ @ @ @ @ @ 5 r @ @ @ ; @ ",
"@ @ @ @ @ @ @ @ @ @ @ @ @ @ @ @ @ @ @ @ @ @ @ @ 3 w n l - r @ ; u n X n b X 3 ; = 5 5 J e + n k r o = x l X @ l @ @ @ @ @ @ @ @ @ @ @ @ @ @ @ @ @ @ @ @ @ @ @ @ "
};
