/* XPM */
static char *result[] = {
/* columns rows colors chars-per-pixel */
"80 80 205 2 ",
"   c #0D060B",
".  c #0D040D",
"X  c #150407",
"o  c #12040C",
"O  c #19080B",
"+  c #1E0B0B",
"@  c #0E0215",
"#  c #0F0810",
"$  c #0E021A",
"%  c #110315",
"&  c #1A0616",
"*  c #120912",
"=  c #1B0D13",
"-  c #10021A",
";  c #15091E",
":  c #190C1D",
">  c #1E1215",
",  c #220D0C",
"<  c #25110D",
"1  c #2D130B",
"2  c #30180E",
"3  c #220C11",
"4  c #2A1612",
"5  c #291F1C",
"6  c #361E16",
"7  c #3E2414",
"8  c #372318",
"9  c #0E0321",
"0  c #120321",
"q  c #170A21",
"w  c #1A0D23",
"e  c #1D1125",
"r  c #1F1329",
"t  c #201327",
"y  c #2A1B22",
"u  c #21152A",
"i  c #251A2D",
"p  c #291B2F",
"a  c #261B30",
"s  c #291E32",
"d  c #322024",
"f  c #3B2D2B",
"g  c #2C2135",
"h  c #2F2438",
"j  c #302537",
"k  c #302539",
"l  c #33283D",
"z  c #3E3230",
"x  c #432616",
"c  c #452A17",
"v  c #492E1B",
"b  c #4B331C",
"n  c #54361B",
"m  c #563A1B",
"M  c #4B3222",
"N  c #4A3626",
"B  c #46332B",
"V  c #46382C",
"C  c #523924",
"Z  c #56421F",
"A  c #4E423A",
"S  c #504539",
"D  c #664826",
"F  c #6C4B25",
"G  c #785929",
"H  c #6C5D3F",
"J  c #755D39",
"K  c #7F622A",
"L  c #685B45",
"P  c #725F41",
"I  c #7A6E56",
"U  c #7F735D",
"Y  c #815F2A",
"T  c #83642C",
"R  c #8A6929",
"E  c #8C6735",
"W  c #936E36",
"Q  c #927134",
"!  c #9A7838",
"~  c #9C7B38",
"^  c #A17836",
"/  c #A37E3A",
"(  c #876A45",
")  c #89724B",
"_  c #88765C",
"`  c #A67F40",
"'  c #887762",
"]  c #AD8535",
"[  c #A1863F",
"{  c #AC843B",
"}  c #B48633",
"|  c #BD8534",
" . c #B38A35",
".. c #BC8D34",
"X. c #B0853A",
"o. c #B58B3B",
"O. c #BC8C3B",
"+. c #BE9037",
"@. c #BF943C",
"#. c #C28D36",
"$. c #C08639",
"%. c #C38E3C",
"&. c #C49337",
"*. c #C5943A",
"=. c #C8973A",
"-. c #CC9B3C",
";. c #D19E3C",
":. c #D5A13E",
">. c #D9A43F",
",. c #AC8844",
"<. c #B18C43",
"1. c #BD8E43",
"2. c #B48B4D",
"3. c #BE9142",
"4. c #BF9944",
"5. c #A78552",
"6. c #B08751",
"7. c #B48D53",
"8. c #B89656",
"9. c #BFA559",
"0. c #9B8C6E",
"q. c #B69965",
"w. c #B4A56C",
"e. c #BEAB77",
"r. c #C88C45",
"t. c #C49442",
"y. c #C59944",
"u. c #CC9C43",
"i. c #C59648",
"p. c #CC9B4A",
"a. c #D39F42",
"s. c #C79C54",
"d. c #CFA040",
"f. c #D4A344",
"g. c #DDA740",
"h. c #D7A845",
"j. c #DCAA44",
"k. c #D4A44A",
"l. c #D9A74B",
"z. c #DBAA4B",
"x. c #DEB24C",
"c. c #CCA453",
"v. c #CDA757",
"b. c #D4A552",
"n. c #DBA655",
"m. c #DCAE52",
"M. c #D3A758",
"N. c #DAAF5C",
"B. c #CDB055",
"V. c #DEB252",
"C. c #D3B55E",
"Z. c #DDB25B",
"A. c #E3AC42",
"S. c #EAAE46",
"D. c #E6AF49",
"F. c #EDAF49",
"G. c #E5B045",
"H. c #EAB146",
"J. c #E3B34D",
"K. c #EAB54A",
"L. c #E7B94D",
"P. c #EAB94D",
"I. c #E0AF55",
"U. c #E4B452",
"Y. c #E7B757",
"T. c #E9B754",
"R. c #E9B952",
"E. c #E3B559",
"W. c #E8B959",
"Q. c #C6A967",
"!. c #D5AB63",
"~. c #DDB365",
"^. c #DAB36C",
"/. c #D4B968",
"(. c #C4B17D",
"). c #D9B875",
"_. c #DCBB7B",
"`. c #E0B56A",
"'. c #E4BC72",
"]. c #D9C06B",
"[. c #DCC47A",
"{. c #E4C377",
"}. c #E4C57A",
"|. c #E8C37D",
" X c #E3C87E",
".X c #B5A786",
"XX c #BAAD88",
"oX c #C8B78C",
"OX c #D2BD8C",
"+X c #DDC98F",
"@X c #CFC19A",
"#X c #D6C799",
"$X c #E7CA87",
"%X c #ECCE8C",
"&X c #EED18D",
"*X c #E2CF95",
"=X c #EBCE93",
"-X c #E6D395",
";X c #EDD493",
":X c #ECDA95",
">X c #EADA9A",
",X c #F0D290",
"<X c #D6C9A2",
"1X c #DBCBA2",
"2X c #E4D6A2",
/* pixels */
"g s s a ; @ ; s p g r @ @ e h h r @ @ e h h e ; ; $ @ w g q ; q e g h r ; # @ $ e g q $ $ r i * $ w g ; $ 9 g q @ @ i r $ ; a r $ @ q h u ; @ ; g r $ $ $ $ $ ; ",
"k a r g e $ @ r g i r # @ e j h e @ @ w h h s g r $ @ ; g i g r r g g g i ; # $ ; g r $ - r g $ @ w g q $ q g q @ @ i r @ $ a r @ @ e h i @ @ : g r @ ; r r r u ",
"l e - g r @ $ u g a r @ @ e j j e @ @ e h r r g g - @ q g k i e e i g e i r 9 @ - i i @ $ r a * @ q g ; @ q g ; @ $ i r $ $ a e @ @ e h i - @ ; g r $ e s u u u ",
"h r ; s r ; @ u g a r # @ e j k r @ @ e g 0 ; p i $ @ q h k r $ @ r a $ : g w $ - r g $ $ r i $ @ q g ; $ w g q @ @ i r $ $ a r @ @ e l i # @ ; g e @ e g ; ; ; ",
"k r ; s r @ @ r g p t @ @ e h h r @ @ e g ; # a a - $ q g k r @ @ e g # ; s > $ - i g ; $ r i ; @ w g 9 @ w h ; # - u r $ - p r @ . q h i $ # ; g e $ e g ; @ $ ",
"k r - s r $ @ r g i t @ @ : j h e @ $ e g ; $ a g - @ q h k r @ $ w g ; $ s e @ $ u g $ $ u i % $ q a ; $ q g : @ $ a e @ ; a r @ @ w h i $ @ ; g e @ q g - @ ; ",
"k r ; g r $ @ t g p e @ @ e j j r @ $ e g q - a i $ # q h k r $ @ w a $ $ i e @ @ i g - $ e i - @ w g q $ q h q @ $ a r - $ a e @ @ e k i * @ ; g e # e s % @ @ ",
"l r ; s r @ $ r g p e @ @ e j j r @ @ e g ; $ u i $ $ q g k r @ @ r g ; $ g w @ $ u g - $ u p % # w a q $ q h 0 @ @ a r # $ a r @ # e k i - @ ; g e @ e g ; @ @ ",
"h g u s e $ # r g a e # @ e h h r @ @ w g r e g i - @ q h k r @ # w g w 5 a w @ @ i p - - t p % @ w s q @ e g ; @ @ r i ; : a e @ @ w j i $ @ ; g r ; e g ; # * ",
"i u u r # @ - r s p r @ @ e h h a # @ ; r g g p : @ @ e g g u @ $ ; r g s p % % % i p - % t i % @ w s ; $ q g : @ @ w g g g g : @ # r j a ; @ ; u g s g r - $ $ ",
"* - ; # @ @ ; g u i r $ @ e h s g $ @ @ * ; ; ; # $ # u a i p ; @ # ; w : % % % ; s t % % t p - @ : s ; @ $ g e @ # $ w e e : # @ $ i j s : # @ ; e e w ; # @ w ",
"; - $ $ $ q a g : i r # @ e g r g r ; $ $ @ @ @ @ ; : j a e g r $ $ $ # . % @ % u s ; % % e i % % q g w $ $ r i q $ @ @ # $ $ ; $ e g r s r @ # @ # @ @ @ # q r ",
"e u r r r g g e ; u u r r a s q e g r r w w ; w e r h l u ; u g r e ; ; ; : e i g e % - - t p w q u s 0 ; $ 0 i a w q $ ; 9 q u g k r ; e g r ; - - $ ; @ q r g ",
"r u u i r e ; $ $ q r s a r e $ $ w r i i i g g p g h r - @ ; e r a i g g g p i r & $ - - q p a a s u & $ - $ q r a a a a a s s k l r ; $ e g g s i g i g i g r ",
"; - ; @ @ $ @ $ $ $ $ 0 0 $ $ $ $ @ $ ; ; ; q w i r q $ @ - @ $ $ ; ; ; ; ; - - - - - - - - % ; q q 0 - $ $ $ $ ; ; w w w w w w ; q r r ; $ q q w r w w w q ; $ ",
"@ @ $ $ $ $ @ $ $ $ $ $ $ $ 9 $ $ $ $ @ $ $ w r e - @ $ $ $ - - $ $ $ $ # @ @ $ - - - - $ $ - - - $ - - $ $ $ $ $ @ @ $ $ $ @ # $ @ - e r q $ * $ $ - @ $ $ @ @ ",
"$ $ $ $ $ $ $ $ $ $ $ $ $ $ $ $ $ 9 $ $ 9 w r q $ $ $ $ $ $ $ $ $ $ $ $ $ - % $ - - - $ - @ @ - - $ $ $ $ $ 9 $ $ - $ $ $ $ - $ $ $ $ $ 9 r w 9 $ - $ $ $ $ $ $ ",
"$ $ $ $ $ @ $ $ $ $ $ $ $ $ $ $ $ $ $ q r e 0 9 $ $ $ $ - - - @ @ $ @ $ % @ @ $ @ $ @ - % % % % @ - $ $ $ $ $ $ $ $ $ $ $ $ $ $ $ $ $ $ $ 9 r r q $ $ $ $ $ $ $ ",
"$ $ $ $ $ $ $ $ $ $ $ $ $ $ $ $ $ $ w r e $ - - $ $ $ - - - @ $ $ @ - % $ % - - $ $ - % - % % $ - $ 9 $ $ $ $ $ $ $ $ $ $ $ $ $ $ $ $ $ $ - $ w r w ; $ $ $ $ $ ",
"$ $ $ $ $ $ $ $ $ $ $ $ $ $ $ $ 9 e r 9 $ $ $ $ $ $ $ $ - $ - - - - - - - - - - - - - - - - 0 0 0 0 - - - % @ $ $ $ $ $ $ $ $ $ $ $ $ $ $ $ - - w r e ; $ $ $ $ ",
"$ $ $ $ $ $ $ $ $ $ $ $ $ $ - w r r $ $ ; $ $ $ $ $ $ $ $ - - $ $ - - - $ - - - - % % - $ - - $ 0 - - - - & $ $ $ $ $ $ $ $ $ $ $ $ $ $ $ $ $ $ $ $ r r w 9 $ $ ",
"$ $ $ $ $ $ $ $ $ $ $ $ $ - w r w $ $ $ $ $ $ $ $ $ $ $ $ $ - - - - - - $ $ % % % % o % @ # @ % @ @ # @ % - $ $ $ $ $ $ $ $ $ $ $ $ $ $ $ $ $ $ $ $ $ q r e $ $ ",
"$ $ $ $ $ $ $ $ $ $ $ 9 q r e 0 $ $ $ $ $ $ $ $ $ $ $ $ $ $ - 0 - % % $ $ $ @ @ @ . . @ # @ # % % @ $ $ - - - $ $ $ $ $ $ $ $ $ $ $ $ $ $ $ $ $ $ $ $ $ 9 r r 9 ",
"$ $ $ $ $ $ @ $ $ $ $ w r w - $ $ $ $ $ $ $ $ $ $ $ $ $ $ $ $ - - % % o . @ . . X X X   o ; 0 0 - 9 $ 9 - - % $ $ $ $ $ $ $ $ $ $ $ $ $ $ $ $ $ $ $ $ $ $ $ w r ",
"$ $ $ $ $ $ $ $ $ 0 r r ; $ $ $ $ $ $ $ $ $ $ $ $ $ $ @ @ $ $ $ & . o X X < 6 x c v M N V B p : - 0 9 $ $ @ @ $ $ $ $ $ $ $ $ $ $ $ $ $ $ $ $ $ $ $ $ $ $ $ $ ; ",
"$ $ $ $ $ - $ $ q r e 0 $ $ $ $ $ $ $ $ $ $ $ $ $ $ $ $ $ $ $ $ % X X 2 D ( ` 6.6.7.7.7.q.Q.q.( V * @ $ @ # @ $ 9 $ $ $ $ $ $ $ $ $ $ $ $ $ $ $ $ $ $ $ $ $ $ @ ",
"$ $ $ $ - - - w u q $ $ $ @ $ - $ $ $ $ $ $ $ $ $ $ $ $ $ % - - @ X b ) 2.1.i.i.y.u.y.y.t.4.c./.Q.P < % $ @ @ $ $ $ $ $ $ $ $ $ $ $ $ $ $ $ $ $ $ $ $ $ $ $ $ $ ",
"$ $ $ $ - q u r ; $ $ $ $ - $ $ $ $ $ $ $ - $ $ $ $ 9 9 % & % - = Z { 1.O.@.*.r.u.y.d.k.a.i.i.v./.)._ t $   # - $ $ @ $ @ $ $ $ $ - $ $ $ $ $ $ $ $ $ $ $ $ - $ ",
"$ $ - 0 w u w ; $ $ - - - - - - $ $ - - - 0 - 0 $ $ $ $ @ # % & b ,.o.O.O.+.+.*.=.u.d.f.f.k.p.c./.).OX' > # * $ $ $ $ $ $ $ $ $ - - - - - - - - $ $ - - - $ - - ",
"$ $ 0 e u q - - - - - - - - - $ $ $ - - - $ - $ $ $ $ @ # # & 7 Q  .o.o.&.=.u.u.-.u.u.d.f.l.l.p.!.)._.OXL * $ $ $ $ $ $ $ $ $ $ $ - - - - - - - - - - - - - - - ",
"$ q r e 0 - - - - $ - - - - - - $ $ - - - $ 0 - $ 9 $ ; # # < Y o. . .@.l.z.l.f.f.-.-.a.f.l.l.n.M.'._.[.e.z @ $ $ 9 $ $ $ $ @ $ - - - - - - $ - - - - - - - - - ",
"w r w 0 - - - - - $ - - - - - - $ $ - - - - - - $ $ $ $ $ # b / | O.y.x.J.j.f.:.-.-.*.*.f.l.l.m.b.!.}.[.+X' = $ $ $ 9 $ $ $ @ $ $ - - $ - - - - - - - - - - - - ",
"w ; - - - - $ - @ - - - - - - $ - - 0 - - - - $ $ $ $ 9 % < K } | r.I.J.j.g.g.:.;.-.=.#.=.l.z.J.m.n.'. X$XoXz % * $ $ $ $ $ $ $ - - - - - - - - - $ - - - - - - ",
"- - @ $ - - - - - - - - - - - - - - $ - 0 - - - $ $ $ 0 % c [ } $.n.W.A.A.g.g.;.;.=.=.&...-.z.z.J.m.`.$X*X*XI * * * - $ $ $ @ $ @ - - - - - - - - - - - - - $ - ",
"- - - - - @ $ - - - - $ - - - - - - - - $ - - - - $ $ - , F { } u.T.D.A.A.g.>.:.;.;.=.&.....l.U.U.D.Z.$X=X-XXXy   % @ $ $ $ $ @ - - $ - - - - - - - - - - - - - ",
"- - $ - - - - - - - - - - - - - - $ - - - - - - $ $ - o 1 R  .o.x.L.S.A.A.g.>.:.;.;.=.&.#...u.I.U.U.m.|.=X-X<XA   . # $ @ $ $ $ $ - - - $ - - - - - - - - - - - ",
"- - - $ $ - - - - - - - - - - - - - - - $ - - - - $ $ o 7 ^ } t.K.H.H.A.A.g.>.;.;.-.=.&.....*.m.U.U.m.'.,X;X2X' o $ @ @ @ - $ % - - - - - - - - - - - - $ - $ - ",
"- - - - - - - - - - - - - - - - - - - - % - - - - - @ o C { } a.P.F.S.A.A.>.>.>.;.-.=.&...} O.l.U.T.U.'.%X:X2X0.= @ @ . % - - $ $ - - - $ - - - - $ - - - - - - ",
"- - - - - - - - - - - - - $ - - - - - - - - - - - - @ X D {  .z.P.F.F.A.A.g.>.;.;.-.&.&.&...| f.T.T.E.^.%X:X>X.Xy - # . % 0 - $ $ - - - - - - - - - - - - - - - ",
"- - - - - - - - - $ - - - - - - - $ - - - - - $ - % @ O G } @.V.P.F.F.A.g.g.>.>.;.-.=.&.....} u.T.T.E.~.,X:X:XOXf @ @ @ @ - 9 $ $ % - - - - - - - - - - - - - - ",
"- - - - - - - - $ - - - - - - - - - - - - - - - - - @ + T ] *.L.K.F.F.A.>.>.>.>.:.-.&.&.&...} *.U.R.Y.~.%X:X>X1Xz . @   @ $ 9 $ $ - - - - - - - - - - - - - - - ",
"- - - - - - - $ - - - - - - - - - - - - - - - - - - @ < T } *.P.K.F.F.A.A.A.>.>.;.-.=.&.....} &.U.T.Y.~.%X:X>X1Xz . @   $ $ $ $ $ - - - - - - $ - - - - - - - - ",
"- $ - - - - - - - - - - - - $ - - - - $ - - - $ - - % < R } t.R.H.F.S.A.A.>.>.:.;.-.=.&.....} +.J.R.W.`.%X:X>X2XA . @ @ $ - $ $ - - - - - - - - - - - - - - - - ",
"- - - - - - - - - - - - - - - - - - - - - - - - - - % < R o.t.P.K.F.S.G.A.>.>.:.;.-.=.&.#...} &.J.R.Y.~.%X>X>X1XA @ $ @ - $ $ $ @ - - - - - - - - $ - - $ - $ - ",
"$ $ $ $ $ $ - $ $ - - - - - - - - - - - - $ - - - - $ < R } t.L.K.H.G.A.A.g.>.:.;.-.=.&..... .&.U.R.W.~.&X:X:X1Xz @ $ # @ - % @ $ - - - - - - - - - - - - - - - ",
"$ $ $ $ $ $ $ $ - - - - $ - - - - - - - - % $ % - $ - , G X.%.K.K.H.H.A.A.g.>.:.;.-.=.&..... .*.J.P.Y.^.,X:X:X#Xz $ $ @ @ - % - - - - - $ - - - - - - - - - - - ",
"$ $ $ $ $ $ $ $ $ - - - - - - - $ - - - $ - - - - $ % + G ] $.D.K.H.H.A.A.>.>.:.;.-.&.&.......-.L.R.E.^.;X:X:X@Xf $ $ $ @ @ - - $ - - - - - - - - - - - - - $ - ",
"$ $ $ $ $ $ $ $ $ - - - - - - - - - - - - - - % - $ % X F ] | A.K.K.H.G.A.>.>.>.;.-.=.&.......;.L.R.E.^.;X:X:XXXd - $ @ @ $ $ % $ - - - - - - - - $ - - - - - - ",
"$ 9 $ $ $ $ $ $ $ $ - - $ - - - - - - $ - - $ - - $ % X n / } a.K.H.H.A.A.>.>.:.:.-.=.&.+...+.z.T.Y.Z.'.;X:X>X0.> $ $ # $ $ $ $ $ - - - - - $ - - - - - - - - - ",
"$ $ $ $ $ 9 $ $ $ $ - - - - - - - - - - - - - - $ - % X 7 ! } *.H.H.H.S.A.>.>.:.;.-.=.&... .@.J.U.E.N.{.&X:X2XU # 9 $ # $ $ - % $ - - - - - - - - - - - - - - - ",
"$ $ $ $ $ $ $ $ $ - - - $ - - - - - - - - - - - $ @ % X 4 E ] ..z.K.G.A.A.>.>.:.:.=.=.&.&. .;.x.E.E.!.}.&X-X@XS # - - @ $ $ $ % % $ - - - - - - - $ - - - - - - ",
"$ $ $ $ $ $ $ $ $ $ - - - - - - - - - - - - - - $ $ @ @ 3 D { } u.G.H.A.A.A.>.:.:.-.=.&...#.h.x.U.E.!. X$X*X.X5 $ $ $ @ $ $ $ @ - - - - - - - - - - - - - $ - - ",
"$ $ 9 $ $ $ $ $ - - $ $ - - - - $ $ $ - $ $ $ $ $ $ $ @ . c ~ } O.:.G.A.A.>.>.:.:.;.&.&.+.u.z.x.V.M.^.}.[.+XU * $ $ % @ $ 9 $ @ $ $ $ $ $ $ $ $ - - $ - - - - - ",
"$ $ $ $ $ $ $ $ $ $ $ 9 $ - - $ $ $ $ $ $ $ $ $ $ $ $ $ % 1 T ] } &.g.A.A.A.>.:.;.-.=...=.l.z.x.m.v.^.{.[.(.V # - $ % @ 9 9 $ @ $ $ $ $ $ $ $ $ - $ $ $ $ $ $ $ ",
"$ $ $ $ $ $ $ $ $ $ $ $ $ $ $ $ $ $ $ $ $ $ $ $ $ $ @ @ - + n ^ ] O.%.g.>.>.>.:.:.-.&.=.d.l.j.z.b.Q.).].[._ > @ $ $ $ @ $ $ $ $ $ $ $ $ $ $ $ $ $ $ $ $ $ $ $ $ ",
"$ $ $ $ $ $ $ $ $ $ $ $ $ $ $ $ $ $ $ $ $ $ $ $ $ @ % # # % 1 G ] } | $.;.:.:.;.-.&.=.;.h.h.z.n.s.!.^./.w.V * $ $ $ $ $ $ $ $ $ $ $ $ $ $ $ $ $ $ $ $ $ $ $ $ $ ",
"$ $ $ $ $ $ $ $ $ $ $ $ $ $ $ $ $ $ $ $ $ $ $ $ $ $ - . % ; ; 7 Q  .+...&.&.&.&.&.=.;.:.f.h.n.s.c.C./.Q.H = - $ $ $ $ $ $ $ $ $ $ $ $ $ $ $ $ $ $ $ $ $ $ $ $ $ ",
"$ $ $ $ $ $ $ $ $ $ $ $ 9 $ $ $ $ $ $ $ $ $ $ $ $ $ - - @ @ 0 ; C ~  .....#.&.&.*.-.d.f.f.h.i.4.c.B.Q.) 4 @ @ $ $ $ $ $ $ $ $ $ $ $ $ $ $ $ $ 9 $ $ $ $ $ $ $ $ ",
"$ $ $ $ $ $ $ $ $ $ $ $ $ $ $ $ $ $ $ $ $ $ $ $ $ @ 9 0 % . $ $ = Z ~  .O.%.&.*.u.u.p.a.f.y.1.s.B.9.) d - # # @ $ $ $ $ $ $ $ $ $ $ $ 9 $ $ $ $ 9 $ $ $ $ $ $ $ ",
"$ $ 9 $ $ $ $ $ $ $ $ $ $ $ $ $ $ $ $ $ $ $ $ $ $ $ - - - # # # % 3 m Q o.1.1.3.y.y.u.u.O.<.8.c.7.J 6 - - @ @ $ $ $ $ $ $ $ $ $ $ $ $ $ $ $ $ $ $ $ $ $ $ $ $ $ ",
"$ $ $ $ $ $ $ $ $ $ $ $ $ $ $ $ $ $ $ $ $ $ $ $ $ $ $ @ 0 $ #   # & + 7 F W ,.<.<.<.,./ [ 5.5.( V 3 & % % # $ $ $ $ $ $ $ $ $ $ $ $ $ $ $ $ $ $ $ $ $ $ $ $ $ $ ",
"$ $ $ $ $ $ $ $ $ $ $ $ $ $ $ $ $ $ 9 $ $ $ $ $ $ $ @ % $ 9 @   . @ * * + 2 7 v b v c b b M 8 < * - % o % 0 $ $ $ $ $ $ $ $ $ 9 $ $ $ $ $ $ 9 $ $ $ $ $ $ $ $ $ ",
"$ $ $ $ 9 $ $ $ $ $ $ $ $ $ $ $ $ $ $ $ $ $ $ $ $ $ $ $ - # - $ $ @ @ @ @ @ @ X . X o o % & % % @ $ @ * $ - $ $ $ $ $ $ $ $ $ $ $ $ $ $ $ $ $ $ $ $ $ $ $ $ $ $ ",
"$ $ 9 $ $ $ $ $ $ $ $ $ $ 9 $ $ $ $ $ $ $ $ $ $ $ $ $ $ @ - $ 9 $ @ @ $ @ @ @ @ # @ @ @ @ $ - $ $ $ @ @ $ 9 $ $ $ $ $ $ $ $ $ $ $ $ $ $ $ $ $ $ $ $ $ $ $ $ $ $ ",
"$ $ $ $ - $ - $ $ $ - $ - $ $ $ - $ $ - $ $ - $ - $ $ - - - - - - $ - % $ @ @ @ % $ % $ @ - $ $ - $ $ $ - - - % $ - $ - $ - $ - $ - $ - $ - $ $ $ - $ - $ $ $ - ",
"$ $ - $ - - - - - - - - - - - - - - - - - - - - - - - - - % - $ $ - - $ - $ $ $ $ - - - $ % - - - - - - - $ - $ $ % - - - - - - - - - - - - - - - - - - - - - - ",
"$ $ $ $ - - - - - - - $ - - - - - - - - - - - - - - % - - $ - - - - - $ - - - - $ - - - - - - - - - - - - - - - - - - - - - - - - - - - - - - - - - - - - - - - ",
"$ $ ; $ - - - - - - - - - - - - - - - - - - - - - - $ - - - % - - - - - - - - - - - - - - - - - - - - - - - - - - - - $ - - $ - - - $ - - - - - $ - - - - - - - ",
"- - - - - - - $ - - - - - - - - - - - - - $ - $ - - $ % - - - - $ - - - - - - - - - - - - - - - - - - - - - - $ - - - - - - - - - - - - - - - - - - - - - - - - ",
"- - - - - - - - - - - - - - - $ - $ - - - - - - - - - - - - - - - - - % - - - - - - - $ - - - - - - - - - - - - - - - - - - - - - $ - - - - - - - - - - - $ - - ",
"- - - $ - - - - - - $ - - - - - - - - - - - - - - - - - - - - - - - - - $ - - - - - - - - - - $ - - - $ - - - - - - $ - - - - $ - - - - - - - $ - $ - - - - - - ",
"- - - - - - - - - - - - - - - - - - - - - - - - - - - - - $ - - - - - - - - - - - - - - - - - - - - - - - - - - - - - - - - - - - - - - - - - - - - - - - - - - ",
"- - - - - $ - - - - - - - - - - - - $ - - - - - - $ - $ - - - - - - - $ - - $ - - - - - - - - - - - - - - $ - - - - - - - - - - - - - - - - - - $ - - - $ - - - ",
"- $ - - - - - - - - - - - - - - - - - - - $ - - - - - - - - - - - - - - - - - - - - - - - - - - $ - - - - - - - - - - - - - - - - - - $ - - - - - - - - - - - - ",
"- - - - - - - - - - - - - - - - - - - - - - - - - - - - $ - - - - - - $ - - - - % $ - - - - - - - - - - - - - - - - - - - - - - - - - - - - $ - - - - - - - - - ",
"- - - - - - - - - - - $ $ - - - - - - - - - - - - - - - - - - - - - - - - - - - - - - $ - - $ - - - - - - - - - - - - $ $ - - - - - - - - - - - $ - - - - - - - ",
"$ - - $ - - - - - - - - - - - - - - - $ - - - - - - - - - - - - - - - - - - - - - - - $ - - - - $ - $ - - - - - - - - - - - - - - - - - - - - - - - - - - - - - ",
"- - - - - - $ - - - - - - - - - - - - - $ - - - $ - - - - - - - - - - - - - - $ - - - - - - - - - - - - - - $ - - - - - - - - - - - - - $ - - - - - $ - - - - $ ",
"- - - - - - - - - - $ - - $ - - - - - - - - - - - - - - - - - - - - $ - - - - - - - - - - - - - - - - - - - - - - - $ - - $ - - - - - - - - - - - - - - - - - - ",
"- - - - - - - - - - - - - - - - - - - - - - - - - - - - - $ - - - - - - - - - - - - - - - - $ - - - - - - - - - - - - - - - - - $ - - - - - - - - - - - - - - - "
};
