/* XPM */
static char *b094cc11c78c4097e9e4127ffd5d94b3gy80uWZLBvEQSAiN[] = {
/* columns rows colors chars-per-pixel */
"80 80 248 2 ",
"   c #2A2A3C",
".  c #322F3B",
"X  c #2F333B",
"o  c #3B3B37",
"O  c #35343B",
"+  c #39373D",
"@  c #363B3D",
"#  c #3D3D3D",
"$  c #403B39",
"%  c #1E2346",
"&  c #142259",
"*  c #232746",
"=  c #2A2F4C",
"-  c #2F3B45",
";  c #293649",
":  c #2E3B4C",
">  c #313647",
",  c #353B43",
"<  c #3A3B41",
"1  c #323C4A",
"2  c #253357",
"3  c #263A55",
"4  c #2B3B53",
"5  c #243A5B",
"6  c #2B3D5A",
"7  c #323E54",
"8  c #1B2A63",
"9  c #1D3866",
"0  c #183878",
"q  c #222D63",
"w  c #273B65",
"e  c #213B73",
"r  c #34404D",
"t  c #2D4159",
"y  c #344354",
"u  c #33445A",
"i  c #39495B",
"p  c #2B4668",
"a  c #334663",
"s  c #3A4D63",
"d  c #334C6C",
"f  c #3C5064",
"g  c #3C536C",
"h  c #2C4878",
"j  c #334C74",
"k  c #2F567A",
"l  c #385577",
"z  c #424C66",
"x  c #43556C",
"c  c #435B77",
"v  c #4F637D",
"b  c #1A3789",
"n  c #1F4590",
"m  c #345B85",
"M  c #345A88",
"N  c #295292",
"B  c #38618A",
"V  c #376697",
"C  c #3A6D9C",
"Z  c #214CA5",
"A  c #2C5DA6",
"S  c #214EB1",
"D  c #2658BA",
"F  c #2D61AA",
"G  c #386AA7",
"H  c #3C72A8",
"J  c #2D64BC",
"K  c #356BB9",
"L  c #3974B9",
"P  c #455D87",
"I  c #496586",
"U  c #42658B",
"Y  c #536D8B",
"T  c #59748D",
"R  c #486B94",
"E  c #4A7298",
"W  c #597898",
"Q  c #647C9A",
"!  c #4377A8",
"~  c #567BA4",
"^  c #467CB6",
"/  c #265BC7",
"(  c #285FD3",
")  c #2C64C4",
"_  c #2F68C2",
"`  c #2A63CD",
"'  c #326DC6",
"]  c #3A77C8",
"[  c #2B65D3",
"{  c #2E6AD5",
"}  c #316DD6",
"|  c #3473D3",
" . c #3878D9",
".. c #3476E2",
"X. c #3A7EE2",
"o. c #427DCB",
"O. c #427ED3",
"+. c #4985BA",
"@. c #568BB4",
"#. c #598AB8",
"$. c #6888A7",
"%. c #748BA5",
"&. c #778FAE",
"*. c #628BBA",
"=. c #6894B9",
"-. c #7999B9",
";. c #3D82D2",
":. c #3C85E9",
">. c #3F8BF1",
",. c #4285CC",
"<. c #498AC8",
"1. c #558AC7",
"2. c #4C90C5",
"3. c #4C92CC",
"4. c #5995C7",
"5. c #488AD5",
"6. c #548BD4",
"7. c #4D94D8",
"8. c #5393D4",
"9. c #5798D9",
"0. c #698FC0",
"q. c #6999C4",
"w. c #779CC2",
"e. c #6599D7",
"r. c #56A3DB",
"t. c #59A8DE",
"y. c #68A5CD",
"u. c #77A8C8",
"i. c #68A5DB",
"p. c #75AEDB",
"a. c #7BB4DD",
"s. c #428AE7",
"d. c #4893E8",
"f. c #559CE7",
"g. c #4592F2",
"h. c #59A7E9",
"j. c #5CACEC",
"k. c #5FB4EB",
"l. c #5DB2ED",
"z. c #55A7F2",
"x. c #5AADF2",
"c. c #5CB3F3",
"v. c #5FB8F7",
"b. c #65A8E3",
"n. c #77ACE2",
"m. c #67B4E6",
"M. c #61B5EE",
"N. c #6AB5EC",
"B. c #66B9EF",
"V. c #6CBBED",
"C. c #7BB4E4",
"Z. c #78B9E7",
"A. c #62B5F2",
"S. c #6AB7F2",
"D. c #64BBF4",
"F. c #6CBDF3",
"G. c #64BCF8",
"H. c #73BEF3",
"J. c #7CBFF2",
"K. c #74C4EE",
"L. c #7CC3ED",
"P. c #6CC1F4",
"I. c #65C1F9",
"U. c #73C4F4",
"Y. c #7BC5F4",
"T. c #7AC9F6",
"R. c #7CCAF5",
"E. c #879CB5",
"W. c #88A2BE",
"Q. c #87A9C8",
"!. c #91B1C9",
"~. c #82ADD2",
"^. c #88B9D8",
"/. c #94BAD6",
"(. c #ACBFD2",
"). c #84BBE3",
"_. c #89BBE6",
"`. c #92BEE4",
"'. c #9AC3DE",
"]. c #A9C6DA",
"[. c #84C5ED",
"{. c #89C7EA",
"}. c #97CAE8",
"|. c #99D3EE",
" X c #84C5F4",
".X c #8BC6F3",
"XX c #83CDF4",
"oX c #8ACBF3",
"OX c #82CDF8",
"+X c #95CEF4",
"@X c #85D1F6",
"#X c #8CD3F5",
"$X c #85D1F8",
"%X c #8BD3F8",
"&X c #93D5F5",
"*X c #9BD5F4",
"=X c #95D9F6",
"-X c #9BD9F5",
";X c #93D6F9",
":X c #9DD6F8",
">X c #94D8F9",
",X c #9CDAF9",
"<X c #A7CAE6",
"1X c #B2CFE4",
"2X c #A8D3E9",
"3X c #B5D6E7",
"4X c #A4D7F3",
"5X c #A3DCF5",
"6X c #ABDDF5",
"7X c #A4DDF9",
"8X c #B3DEF4",
"9X c #BBDDF6",
"0X c #BEE7EF",
"qX c #A4E1F6",
"wX c #ACE2F6",
"eX c #A4E3F9",
"rX c #ABE4F9",
"tX c #ADE8F8",
"yX c #B3E2F5",
"uX c #BBE5F5",
"iX c #BEE9F6",
"pX c #B2E4F9",
"aX c #BAE6FA",
"sX c #BCE9F9",
"dX c #C3DBEA",
"fX c #C3E4EF",
"gX c #C3E5F3",
"hX c #C7E5F6",
"jX c #C4EAF6",
"kX c #CBECF6",
"lX c #C4EBFA",
"zX c #CBEDFA",
"xX c #D2EEF6",
"cX c #D9ECF6",
"vX c #D3EEF9",
"bX c #CFF0F2",
"nX c #D4F1F6",
"mX c #DCF2F6",
"MX c #D5F1FA",
"NX c #DCF2FA",
"BX c #E5F4F5",
"VX c #E9F6F7",
"CX c #E3F4FA",
"ZX c #EAF6FA",
"AX c #ECF8FA",
"SX c #F4F9F6",
"DX c #F4FBFB",
"FX c #FBFCFC",
/* pixels */
"# # # # # # # # # # # # # # # # # # # # # # # # # # # # # # # # # # f Q i @ # # # # # # # # # < : c s , # # # # # # # # # # # # # # # # # # # # # # # # # # # # ",
"# # # # # # # # # # # # # # # # # # # # # # # # # # # # # # # # # u w.Q.g # # # # # # # # # @ 5 0 U s # # # # # # # # # # # # # # # # # # # # # # # # # # # # # ",
"# # # # # # # # # # # # # # # # # # # # # # # # # # # # # # # # , j q.g , # # # # # # # # # @ 1 : 1 @ # # # # # # # # # # # # # # # # # # # # # # # # # # # # # ",
"# # # # # # # # # # # # # # # # # # # # # # # # # # # # # # # # # 3 p @ # o # # # # # o # # # # # # # # # # # # # # # # # # # # # # # # # # # # # # # # # # # # ",
"# # # # # # # # # # # # # # i $ # # # # # # # # # # # # # # # # # # # o # # # # # # o # # # # # # # # # # # # # # # # # # # # # # # # # # # # # i $ # # # # # # ",
"# # # # # # # # # # # # # # $ $ # # # # < # # # # # # # # $ + > , a d d d d d u @ @ # # @ , @ # + # # + # o # # $ # # # # # # # # # # # # # # # $ $ # # # # # # ",
"# # # # # # # # # # # # # # # # # # # # # # # # # # # $ # 4 c I R !.3X2X1X3X1X&.I l : 4 c B M M p 1 1 - , # # o # # # # # # # # # # # # # # # # $ # # # # # # # ",
"# # # # # # # # # # # # # # # # # # # # # # # o # # # r c &.1XfXuXyXsXMXCXCXzX6XyX^.E @.3XyX+XU.8.H H H m 3 4 1 # # # # # # # # # # # # # # < # # # # # # # # # ",
"# # # # # # # # # # # # # # # # # # < # # @ O @ y d d c ].VXVXuX5XpXjXAXCX8X X6XiX;XB.oXxXxX5X%XT.D.D.D.r.<.2.C 7 < # # < # # + # # # # # # # # # # # # # # # # ",
"# # # # # # # # # # # # # # # # # # o # y c I P $.'.].dXSXSX6XL.-XjXAXAXhXS.#XuXsXwX*XlXCXiX>XXXP.c.B.XXI.v.D.k.! j : 1 # # # # # # # # # # # # # # # # # # # # ",
"# # # # # # # # # # # # # # # # # # o 4 V C.<X9X0XkXzXDXSX6XV.XXrXzXNXDXcXJ.S.R.>XaXvXNXzX*XY.XXoX{.6X5XR.c.c.v.A.h.G V p > o # # # # # # # # # # # # # # # # # ",
"# # # # # # # # # # # # # # # # , u a &.`._.C.C.`.yXlXCXCXZ.A.R.8XlXvXAXFXvX*XF.U.,X6X6X=XF.L.gXVXAXzX#XU.D.j.T.P.D.D.l.3.H 6 o # # < # # # # # # # # # # # # # ",
"# # # # # # r # # # # # # # # # v (.].2X+XC._.{.oXwXkXMXCX[.c.U.;X7XpXlXvXZXDXgXS.D.D.F.S.Y.hXDXFXCX6XU.M.c.Y.;X%XF.G.v.c.l.H y o # # # # # # # # # # # # # # # ",
"# # # # # # $ # # # # # # # # i %.`.).C.`.fX6XXX#XqXlXzXCXvXL.c.D.T.*X=X,XaXmXAXjXZ.H.H.[.kXAXAXNXjX%XM.&X6X7X*X$XG.v.G.v.D.k.H t 1 o # # # # # # # # # # # # # ",
"# # # # # # # # # # # # # o # y $.`.<XkXcXkXuXa.b.L.qXlXvXDXMXY.c.x.A.Y.;X,XlXmXNXlXjXyXgXMXNXjXrX-XR.D.N.gXkX=XF.D.D.c.D.D.I.k.2.B r $ i $ # # # # # # # # # # ",
"# # # # # # # # # # # @ o r g &.cXDXFXZXzXkX}.`._.b.L.wXlXVXFXcX6X+Xz.U.%X%XpXlXiX7X-X4XyXjXsX5XR.P.D.M.A.fXlX>XA.z.c.F.T.P.D.D.I.b.C i # $ # # # # # # # # # # ",
"# # # # # # # # # # # # 1 T 1XjXVXFXFXDXNXkX2Xb.i.V.&XwXzXvXCXFXZXsXH.c.G.G.XX%XXXY.>XlXzX5XOXU.l.c.x.v.4XgX=XR.F.c.Y.&X;X$XP.G.P.P.j.C r o # # # # # # # # # # ",
"# # # # # # # # # o # r E 3XzXzXCXFXFXFXDXNXL.c.R.%X-XqXsXlXvXCXCXzX8XoX+X.Xc.j.A.4XNXNXMX9X XoX4X4X.X+XaX-X%XF.x.D.Y.iX6X-XT.D.K.@XP.r.p o # # # # # # # # # # ",
"# # # # # # # # o o < B {.sXjXzXkXNXCXDXFXZX6XV.D.R.%X%X*X6XaXlXlXrX6XlXvXhX6X9XhXBXCXzXzXNXAXAXCXvXpX7X:X>XOXF.v.G.6XkXlXwX$XF.P.U.D.l.H 7 o # # # # # # # # # ",
"# # # # # # # # $ r t @.=X=X,XjXjXzXzXmXVXFXmX6XN.c.A.v.A.P.$X-X7X#X;X,X,X7XhXBXSXzXaX7X7XlXCXVXzX7X>X#XOXOXU.v.x.H.cXzXuX4X%XF.c.x.c.I.7.t # # # # # # # # # # ",
"# # # # # # # # # , m B.#X#XP.-XzXlXlXzXxXCXCXkXrX X_. X X XA.V.U.R.#XU.&X&X&XwX8X5X&X$X&X5XwXiX6X>XY.F.D.c.x.S. XuXzX5X>X#XU.c.v.c.l.<.V 1 # # # r # # # # # # ",
"# # # # # # # # o < M l.@X%XA. X6XeXwXsXzXzXVXmXzXzXlXzXzXkX+XA.Y.L.F.Z.iXwXOXXXU.U.#X#XK.R.R.L.R.T.N.|.4X*X:X8XVXvXpX;X%XP.v.z.D.D.+.p > o # # $ $ # # # # # # ",
"# # # # # # # # o @ j r.T.@XR.c.c.OX%X,XlXzXCXDXZXNXMXMXvXMXvX9XuXJ.L.uXzXlX#XD.l.XXuX8XS.A.M.l.l.B.4XCXDXFXSXAXZXkX-X#XU.I.c.c.D.G.G , o , # # $ # # # # # # # ",
"# # # # # # # # @ o r B t.P.R.U.D.D.U.%XpXzXNXDXFXFXDXFXFXDXDXDXmXkXiXkXgX2XyXoX XiXkXkX8XY.:XoXL.4XxXSXFXAXZXNXkXrX&XT.l.P.@XU.D.t.k > x x , # # # # # # # # # ",
"# # # # # # # # # # # r m r.I.U.F.D.U.%X&X6XkXSXFXFXFXDXNXNXNXNXNXmXxXjX).e.lXkXzXcXZXnXkXcXCXVXVXAXAXDXVXxXjXaX7X,X@XD.D.#X%XU.v.t.B : f g > # # # # # # # # i ",
"# # # # # # # # @ # o o , m 7.I.G.U.%X-XU.F.pXMXAXDXAXvXzXiXsXsXkXMXCX}.).n.CXNXvXAXFXdX^.hXVXDXAXVXAXkXuXiXqX=X;X;XT.l.Y.&XXXD.I.I.r.k @ < o o # # # # # # # # ",
"$ $ # # # # o r g f @ o , : m 2.m.#XwXkX*XB.&XyXzXzXzXzXjXqX>X>X7XlXbXZ.n.p.VXFXVXFXVX).).a.kXaXpX-X6X^.Z.|.@X&X$XR.D.B.XX%XU.M.7.D.k.m 1 , o o o # # # # # # # ",
"$ $ i # $ # o i l f o r Y f , 3 C [.,XvXcX#XU.#X7X6X6XqX XXX>X;X*X5XlX2Xn.}.BXSXFXFXBX}.n.+XqX&X@X,X6X_.Z.oXB.U.G.D.B.K.U.V.k.+.k C H t c I , # # # # # # # # # ",
"# # # # # # # # r @ # r f i # < k Z.&X-XjXuX-XK.R.XXR.N.V.#X>X>X&X>XeXjX6XyXkXnXMXNXkXkX*X*XU.U.#XpXzXjXuX0XXXj.x.l.U.P.r.V k u o r @ @ f f # o o # # # # # # # ",
"# # # # # # # # # @ # o @ o $ 6 2.P.@X&X=X=X#XB.S.S.D.oX5X,X=X>X>X>XoX#X-X*X-XqXaXzXlXyX*XU.c.XXqXzXCXDXMXlX6X#X#X#XU.A.B : < , - - o @ o @ # # # # # # # # # # ",
"# # # # # # # # # # # # o o 1 3 C k.P.@X&X@XK.D.T.&X*XaXxXpX%XR.$X>XXXV.F.H.#X*X-X:XXXR.U.x.D.%X:XaXvXcXzXpX&XXX&XR.D.M.M O o , k E - # # # # # # # # # # # # # ",
"# # # # # # # # # # # @ # r d 3 y C j.P.m.P.D.k.M.R.#X-X5XXXI.D.P.@X;XXXU.T.T.%X$XF.M.&X*XY.#X&X%X,XaXlXrX,XR.F.P.D.l.^ t # , O v @.r o # # # # # # # # # # # # ",
"# # # # # # # # # # # o @ d W y # 1 C <.V 3.3.m B t.I.P.U.D.h.c.D.F.R.T.R.#XT.k.S.S.|.xXiX*X#XF.F.T.>X*X=X@XP.c.h.r.H u r i x < f i o o $ # @ # # # # # # # # # ",
"# # # # # # # # # # # # @ w t o o # : 6 : 6 6 # r B h.G.D.7.K 7.D.D.c.c.P.@XR.P.oXxXVXMXrXXXI.v.v.D.Y.R.R.I.I.D.,.p r # @ g I r # # o o @ T g o @ # # # # # # # ",
"# # # # # # # # # # # @ @ - r $ o < # < # o o r o r k V K _ | K 7.t.] 5.l.c.XXwXCXDXCXsX%XB.,.L 5.l.D.D.c.h.l.D.C - @ 3 a 1 @ # # # # # @ g f @ @ # # # # # # # ",
"# # # # # # # # # # # # o # # # o < 3 4 o # # @ # # @ * n  .} 5.] K / J K 5.K.wXMXMXjX*XF.,.) ` J 5.D.I.h.V M 3.N @ o t W.Y , # # # # # # @ o # # # # # # # # # ",
"# # # # # # # # # # # # # # # # @ x I 4 # o # # # # # X w  .} o.f.X...( ` K l.T.7XrX7XF.,.) ..| { D L +.B r 1 t : o @ r $.u.4 # # # # # # $ # # o # # # # # # # ",
"# # # # # # # # # # # # # # # # - Y &.7 # # # # # # # # * G g. .d.g.:...[ ) 3.v.U.U.U.j.J } ] q.] Z 2 4 , o o o o < o # y l r $ # # # # # # # # # # # # # # # # ",
"# # # # # # $ r # # # # # # # # # y i < # o # # # # @ : 2 w 9...5.8.,.O.] ) ) 3.M.D.h.] | g.L ~.G e O # o # @ # # # o o # @ # # # # # # # # # # # # # # # # # # ",
"# # # # # o $ # # # # # # # # # # # # # # # # o o # y U w = 4.s.9.4.!.A y.L { ) ,.2.,./ d.x.;.6.n % # o o # # # # # # # # # # # # # # # # # # # # # # # # # # # ",
"# # # # # # # # # # # # # # # # # # # # # # # $ o , l =.t ; U S.8.!./.J <.8.:.{ } ] 7. .j.K.5.| N * # # # # # # # # # # # # # # # # x $ $ $ # # # # # # # # # # ",
"# # # # # # # # # # # # # # # # # # < # # # # o @ r E m , + 6 p.1.].~.,.s.j.j.X.:.z.8.f.oX XO.' q # # # # # # # # # # # # # # # # # $ $ # # # # # # # $ # # # # ",
"# # # # # # # # # # # # # # # # # # # # # # # r o < u > # # X I q.u.<.H.b.O.F.f.z.XXe.e.eXb.e.1.% < # # # # # # # # < # # # # # # # # # # # # # # # $ $ # # # # ",
"# # # # # # # # # # # # # # # # # # # # # o $ $ o o @ o o o   P ^.1.7.U.{.o.Y.U.U.=X9.C.eXi.n.u.* < # # # # # # # # # # # # # # # # # # # # # # # # $ $ f # # # ",
"# # # # # $ $ $ # # # # # # # # # # # # # # # # + # # + o # < = -.m.6.XX X6.L.#XXXa.8.-XeX8.e.P , # # # # # # # # # # # # # # # # # # # # # # # # # # # # # # # ",
"# # # # # i # # # # # # # # # # # # # # # # # # # # # # # # #   $.+X1.>XR.n.e.-XqXn.e.rXoX8.p.w + # # o # # # # # # # # # # # # # # # # # # # # # # # # # # # # ",
"# # # # # # # # # # # # # # # # # # # # # # # # # o # # # # #   E *Xe.^.>XC.e.wXtXp.e.eXb.e.{.w O # # # # # # # # # # # # # # # # # # # # # # # # # # # # # # # ",
"# # # # # # # # # # # # # # # # # # # # # # # # # # # # # # # O a ^.).e.eX[.e.wXtXZ.n.eXb.9.p.2 + # # # # # # # # # # # # # # # # # # # # # # # # # # # # # # # ",
"# # # # $ $ $ # # # # # # # # # # # # # # # o # # # # + # # o # * Q.).e.rX_.e.tXtX&XXXeXb.O.M   # # # # # # # # # # # # # # # # # # # $ $ $ # # # # # # # # # # ",
"# # # # i # $ # # # # # # # # # # # < 1 , o @ # # # # o o @ 4 < * u._.e.tX).e.tXtX>XY.>Xb.} 0 . # # # # # # # # # # # # # # # # # # # x $ $ # # # # # # # # # # ",
"# # # # # # # # # # # # # # # # # o 1 W f @ o @ # # @ o @ u W u % q.|.L.eX[.9.rXrX=XY.=XN.X.b . # # # # # # # # # # # # # # # # # # # # $ # # # # # # # # # $ # ",
"# # # # # # # # # # # # # # # # # # < x y # # # # # # # o r s 1 O j }.U.%X_.e.rX;X=XF.$XF.X.b O o # # # # # # # # # # # # # # # # # # # $ # # # # # # # # # # # ",
"# # $ $ # # # # # # $ $ # # # # # # # # # # # # # # # # # # o # @ 2 C.N.F.Z.6.,X$X@Xx.A.c.' 8 O $ # # # # # # # # # # # # # # # # # # # # # # # # # # # # # # # ",
"# # $ $ # # # # $ $ $ i # # # # # # # # # # # # # # # # # # # # O 2 Z.OXc.C.6.;XR.U.x.c.g.Z   # # # # # # # # # # # # # # # # # # # # # # # # # # # # # # # # # ",
"# # # i # $ # # # # # # # # # # # # # # # # # # # # < # # # # # + 2 4.U.j.n.6.oXOXU.z.x.>.b   # # # # # # # # # # # # # # # # # # # # # # # # # # # # # # $ $ # ",
"# # # # # # # # # # # # # # # # # # # # # # # # # # # # # # # # +   m U.z.F.7.i.T.U.j.x.>.b   # # # # # # # # # # # # # # # # # # # # # # # # # # # # # i $ # # ",
"# # # # # # $ $ # # # # # # # # # # # # # # # # # # # # # # # # $ . h F.z.z.s.9.T.U.z.g.| q O o # # # # # # # # # # # # # # $ # # # # # # # $ # # # # # # # # # ",
"# # # # # # # $ # # # # # # # # # # # # # # # # # # # # # # # # o . h m.d.s.f.f.F.N.s.s.D % # o # # # # # # # # # # # # # # # # # # # # # # $ $ # # # # # # # # ",
"# # # # # # i $ # # # # i # # # # # # # # # # # # # # # # # # # # O e 4.o.X.f.f.x.h.<.] S % o # # # # # # # # # # # i $ # # # # # # # # # # # $ # # # $ i $ # # ",
"# # # # # # # # # # # # $ # # # # # # # # # # # # # # # # # # # # O & -.0.O.f.s.d.m.4.o.S % o o # # # # # # # # # # $ $ # # # # # # # # # # # i # # # $ $ $ # # ",
"# # # # # # # # # # # # $ # # # # # # # # # # # # # # # # # # # # o = -.<X+.S.O.:.j.s.X.Z * # o # # # # # # # # # # # # # # # # # # # # i # # # # # # # # # # # ",
"# # # # # # # # # # # # $ # # # # # # # # # # # # # # # # # # # # # 1 &.3X+.H.O.X.g.s.[ & > o # # # # # # $ # # # # # # # # # # # # # # $ # # # # # # # # # # # ",
"# # # # # # # # # # # # # # # # # # # # # # # # # # # # # < # # # @ 1 =.}.+.F.O.X.g.:./ & o o # # # # # $ $ # # # # # # # # # # # # # # $ $ # # # # # # # # # # ",
"# # # # # # # # # # # # # # # # # # # # # # # # # # # # o 6 a < @ o < c y.<.b.} ..g...( h + # o r i # # $ $ i # # # # # # # # # # # # # # $ # # # # # # # # # # ",
"# # # # # # # # # # # # # # # # # f $ $ # # # @ # o o - @ f -.f @ # # 3 4.+.h.( } >.}  .~ 4 $ : 5 @ o # < , # o o # # # # # # # # # # # # # # # # # # # # # # # ",
"# # # $ # # # # # # # # # # # # # # $ $ # @ # # o o y E r p u.p # # # 2 G ^ z.[ [ ..( / A 7 + q 4 o + # : I i @ + # # o # # # # # # # # # # # # # # # # # # # # ",
"# $ $ $ # # # # # # # # # # # # # # $ # # o # # # @ f c - - E $.: o # % 0 H f.[ [ } / / 1.Q p w , # o # r c u , o o # < @ # # # # # # # # # # # # # # # # i $ $ ",
"x $ $ $ # # # # # # # # # # # # # # # # # # # o # # o @ o o p @.4 o o % n H d./ [ [ / K ].^.q.d @ < # # o @ 4 : # + + # # # # # # # # # # # # # # # # # # # $ $ ",
"# # # # # # # # # # # # # # # # # # # # # # @ @ # # # o o o r p 3 # # * ^ 7. ./ ( ( D 1.^.<X~ < , v f @ # 4 5 , # # @ 3 r # # # # # # # # # # # # # # # # # # # ",
"# # # # # # # # # # # # # # # # # # # # o i T x r o # # @ o o - < @ o * +.S.X./ D ` A ^ n.q.g 1 T ].v , r e 4 o < u Y Y r # # # # # # # # # # # # # # # i # # # ",
"# i # # # # # # # # # # # # # # # # # # $ # x f o o @ # # # o o < w x d 1.d.[ K F ' A V q.*.: x /.%.y i ~ l @ @ l -.&.z # # # # # # # # # # # # # # # # $ $ # # ",
"$ $ # # # # # # # # # # # # # # # # # # $ # # o o o # # # @ r @ + c W.E.0.} o.w.o.O.9.+./.W 3 ! W 1 u E.&.y , 5 R l u # $ # # # # # # # # # # # # # $ # $ $ # # ",
"$ # # # $ $ $ # # # # # $ $ $ # # < # # o # # # t @ < @ o y T u @ i R w.*.D -.w.` d.y.!.}.V R E t i E.].c < < 4 4 , # # # # # # # # # # # # # # # # # # # # # # ",
"$ # # # $ $ # # # # # # $ $ $ # # # # # # # # # r 3 p f 1 1 l w 4 = 5 q.0.! 1X-.) 2.Q.fX).F m r y E.1XI , # # , , , < + # # # # # # # # # # # # # # # # # # # # ",
"# # # # # f # # # # # # # x # # # # # # # # # # @ - u %.W s 2 4 6 R ~ N.2Xu.wX~.K !.uX*XL u X i E.fX}.I ; : 5 9 9 5 = # # # # # # # # # # # # # # # # # # # # # ",
"# # # # # # # # # # # # # # # # # # # # # # # # @ o @ g %.&.$.a R }.rX|.7XyXwXgX<XgX&XL.H a Q !.fX=X#X].#.m 9 3 , # # # # # # # # # # # # # $ # # # # # # # # # ",
"# # # # # # # # # # # # # # # # # # # # # # # # # # o @ 1 x W Q.2XL.5XtXXX>X-XpXhX;XF.H.}./.3XrX@Xi.K.u.U p - # # o # # # # # # # # $ $ # # # # # # # # i $ # # ",
"# # # # # # # # # # # # # # # # # # # # # # # # # # # # : 3 5 R u.C @.{.@XU.U.&X,XG.F.*X8X=X@XB.! d p p : - 1 o < # # # # # # # # # $ i # # # # # # # # # $ # # ",
"# # # # # # # # # # # # # # # # # # # # # # # # # 1 4 3 4 4 : 3 6 : r B #.m.c.P.K.B.V.q.@.+.+.G t @ @ r 4 5 : @ o r o # # # # # # # # # # # # # # # # # # # # # ",
"# # # # # # # # # # # # # # # # # # # # # # # # # > 6 : # # # # # o o r y B C G H 3.V p ; - 3 w 5 5 t : @ o # # # # o # # # # # # # # # # # # # # # # # $ # # # "
};
