/* XPM */
static char *result[] = {
/* columns rows colors chars-per-pixel */
"80 80 214 2 ",
"   c #0D0305",
".  c #0D050E",
"X  c #12050D",
"o  c #16070C",
"O  c #1C0B0C",
"+  c #1E100E",
"@  c #0E0315",
"#  c #0E0811",
"$  c #0E021A",
"%  c #110314",
"&  c #1C0511",
"*  c #140915",
"=  c #1B0B13",
"-  c #10021A",
";  c #18061E",
":  c #14091C",
">  c #190B1D",
",  c #1C1218",
"<  c #230D0E",
"1  c #22120D",
"2  c #200C13",
"3  c #231313",
"4  c #271514",
"5  c #2C1A14",
"6  c #2B1918",
"7  c #311A13",
"8  c #2E2117",
"9  c #3A2619",
"0  c #120521",
"q  c #160921",
"w  c #1A0D24",
"e  c #170B2B",
"r  c #1C0F2A",
"t  c #1D1125",
"y  c #1E1229",
"u  c #221425",
"i  c #21142B",
"p  c #261A2E",
"a  c #271B30",
"s  c #2A1E32",
"d  c #342522",
"f  c #3C2926",
"g  c #2F2631",
"h  c #2C2135",
"j  c #2F2138",
"k  c #432B1B",
"l  c #482F1D",
"z  c #493729",
"x  c #533D27",
"c  c #423830",
"v  c #4A3C34",
"b  c #5A452B",
"n  c #524336",
"m  c #5C4C3B",
"M  c #674A2B",
"N  c #665339",
"B  c #775934",
"V  c #76612D",
"C  c #7E663C",
"Z  c #494041",
"A  c #635344",
"S  c #635957",
"D  c #7A6946",
"F  c #74665A",
"G  c #6F6360",
"H  c #7B7262",
"J  c #876A3B",
"K  c #8C763D",
"L  c #9E7B3F",
"P  c #826D4C",
"I  c #96794A",
"U  c #8A7858",
"Y  c #897A64",
"T  c #A78647",
"R  c #AC8C4A",
"E  c #B69546",
"W  c #BB954D",
"Q  c #BC9B4D",
"!  c #AC945E",
"~  c #B69350",
"^  c #B99452",
"/  c #BD9B54",
"(  c #9B8C66",
")  c #9A886E",
"_  c #988D78",
"`  c #A38E60",
"'  c #A89468",
"]  c #B19761",
"[  c #A99878",
"{  c #BBA36A",
"}  c #B6A17E",
"|  c #BEAE7C",
" . c #C19E4E",
".. c #C29E56",
"X. c #CEA446",
"o. c #CCA44C",
"O. c #CDAB4E",
"+. c #D2A54C",
"@. c #D1A849",
"#. c #D1B14D",
"$. c #C5A353",
"%. c #CAA353",
"&. c #CEA954",
"*. c #C4A75B",
"=. c #CEAB5B",
"-. c #D2A555",
";. c #D3AB55",
":. c #D4AB5B",
">. c #D8AA58",
",. c #CFB151",
"<. c #D4B354",
"1. c #DBB257",
"2. c #D4B35B",
"3. c #DBB55B",
"4. c #DEBA5F",
"5. c #E2BB5E",
"6. c #C2A766",
"7. c #D6AB61",
"8. c #CFB469",
"9. c #D4B463",
"0. c #DCB364",
"q. c #D6B863",
"w. c #DDBA63",
"e. c #D4B56A",
"r. c #DCB168",
"t. c #D2B96B",
"y. c #DCBD6C",
"u. c #C2AF7D",
"i. c #C9B274",
"p. c #D5BA72",
"a. c #D7BC77",
"s. c #E1BD62",
"d. c #E0BB6C",
"f. c #DDC067",
"g. c #DFC16F",
"h. c #D4C275",
"j. c #DEC373",
"k. c #DCC47A",
"l. c #DBCB7B",
"z. c #E4C265",
"x. c #EAC666",
"c. c #E3C36A",
"v. c #E8C66C",
"b. c #E7C86D",
"n. c #E9C96D",
"m. c #E3C473",
"M. c #E5C973",
"N. c #EBCD73",
"B. c #E1C47A",
"V. c #E4CB7C",
"C. c #EBCD7B",
"Z. c #F0CF76",
"A. c #EDD176",
"S. c #ECD37B",
"D. c #F1D67C",
"F. c #F2D97F",
"G. c #AFA68F",
"H. c #B5A585",
"J. c #BEB289",
"K. c #C2AE8C",
"L. c #CABA89",
"P. c #CFC185",
"I. c #CFC08A",
"U. c #D1C281",
"Y. c #D9C787",
"T. c #D8C798",
"R. c #E5CB86",
"E. c #E5CC84",
"W. c #E9CB83",
"Q. c #E5D184",
"!. c #EBD484",
"~. c #EED985",
"^. c #E6D38A",
"/. c #EBD48D",
"(. c #ECD98E",
"). c #F3D781",
"_. c #F5DC84",
"`. c #F8DF86",
"'. c #F1D78B",
"]. c #F5DD8B",
"[. c #F8DF8A",
"{. c #E2CE9A",
"}. c #E4D493",
"|. c #EBD693",
" X c #EDDA93",
".X c #EAD699",
"XX c #EDDB9C",
"oX c #F5DA91",
"OX c #F3DD94",
"+X c #F2DE9B",
"@X c #F5E186",
"#X c #F5E18C",
"$X c #F8E18C",
"%X c #F5E294",
"&X c #F8E394",
"*X c #F5E39B",
"=X c #F8E49A",
"-X c #CFC7AD",
";X c #D8CDA8",
":X c #DED4B6",
">X c #EDDDA6",
",X c #E7D6A8",
"<X c #EBDDB8",
"1X c #EFE1A6",
"2X c #F5E3A4",
"3X c #F8E5A3",
"4X c #F7E9A4",
"5X c #F8E9A4",
"6X c #F6E4AB",
"7X c #F8E9AB",
"8X c #F7E2B5",
"9X c #F9E7B0",
"0X c #F6E9B4",
"qX c #F0E4BE",
/* pixels */
"$ - $ : $ w p : # $ : @ @ t p : - $ - - - - - - - - $ - - - - - - - - - - - - - - - - - - - - - - - - - - - - - - - - - - - - - - - - - - - - - $ - - - - - - - ",
"t i y y t t a : @ : y @ @ : p t - $ - @ - - - - - - - - - - - - - - - - - - $ - - - - - - - - - - - - - - - - - - - - - - - $ - - - $ - - - - - - - - - - $ - - ",
"h p p p h p p : @ : p > @ @ p p q $ - - - - - - - - - - - - $ - - - - - - - - - - $ - - - - - - - - - - - - $ - $ - - - - - - - - - - - - - - - - - - - - - - - ",
"h w $ : h h p : @ : p y - @ > a i - - - $ - - - - - - - - - - - $ - - - - - - - - - - - - - - $ - $ - - - - - - - - - - - - - - - - - - - - - - - - - - - - - - ",
"a : @ : a h a : @ - a h : @ @ a s q - - $ - - - - - - - $ - - - - - - - - - - - - - - - - - - - - - - $ - - - - - - - - - - - - - $ - - - - - - - - - - - - - - ",
"h : @ : h a p @ @ : h g t @ @ t j r - $ - - - - - - - - - - - - - - - - - - - - - - - - - - - - - - - - - - - - - - - - - - - - - - - - - $ - - - $ - - - - - - ",
"h : . $ h h p : @ * s j i @ @ : s p - $ - - - - - - - - - - - - - - - - - - - - - - - - - - - - - - - - - - - - - - - - - - - @ - - - - - - - - - - - - - - - - ",
"h : @ $ a h p : @ - a h a : @ $ p s q - - @ $ $ $ - - - - - - - - $ - - - - - @ - - @ - - - - $ - - - - - - - - - $ - - - - - - - - - - - - - - - - - - $ - - - ",
"a : @ @ a a p : @ - a p h , @ - > j w - - $ - - $ - - - - - - - - - - - - - - - - - - - - - - - - - - - - - - - - - - - $ - - - - - - - - - - - - - - - - $ - - ",
"y : @ : g h a @ @ : p u p p - @ ; p p ; @ - - - - @ - - $ - - - - - - - - - - - - - - - - - - - - - - - $ - - - - - - - - - - - - - - - - - - - $ - - - - - - - ",
": # # w h y p : @ : p t t h > @ - u h w - $ $ - - - - - - - - - - - - - $ - - - - - - $ - - - - - $ - - - - - - - - - - - - - - - - - - - - - - - - - - - - - - ",
". @ : p a y h : @ - a y : a y * % ; h p ; $ $ $ - $ - - - - - - - - - - - - - - - - - - - - - - - - - - - - - - - - - - - - - - - - $ - - $ - - - - - - - - - - ",
"$ w y h w w h q : q h t $ p p > % ; i s q - @ $ - - - - - - - - - $ - - - - - - - - - - - - $ - - - - - - - - - - - - $ - $ - - - - - - - - - - - - - - : $ $ - ",
"a a h y : : y a p p p : $ t p p p p a p ; - $ $ $ - - - - $ - - - - - - $ - - - - - - - - - - - - - - - - $ - - - - - - - - - - - - - - - - - - - - - - $ $ - - ",
"w q : @ @ $ : w w w > : $ $ > t u w w q - $ $ - $ - - - - - - - - - - - - - - - - - - $ - - - - - - - - - - - - - - - - - - - - - - - - - - - - $ - - - $ $ : $ ",
"$ $ @ $ $ @ $ : $ $ $ $ @ $ $ @ - - - - - - - - - $ - - - - - - - - - - - - - - - - - - - - - - - - - - - - - - - - - - - - - - - - - $ - - - - - - - - $ $ $ $ ",
"@ $ $ $ $ $ $ $ $ $ $ $ $ $ $ $ . $ @ $ $ $ $ $ - $ - - - - - - - - - - $ - $ - $ - $ $ - $ $ - $ $ $ - $ $ $ $ - - $ $ $ - - - $ $ $ 0 $ $ $ 0 $ $ $ $ $ $ $ $ ",
"$ $ $ $ $ @ $ $ $ $ $ $ $ $ $ $ @ $ $ $ $ $ $ $ - $ - - - - - - - - $ $ $ $ - $ - @ - - - - - - @ - @ - $ $ $ $ $ $ $ $ $ $ $ $ $ $ $ $ $ $ $ $ $ $ $ $ $ $ $ $ ",
"$ $ $ $ $ $ $ $ $ $ $ $ $ $ $ $ $ $ $ $ $ $ $ $ $ - - - % - - - - $ - $ - $ $ $ $ - - - - - - $ @ $ @ @ $ $ $ $ $ $ $ $ $ $ $ $ $ $ $ $ $ $ $ $ $ $ $ $ $ $ $ $ ",
"$ $ $ $ $ $ $ $ $ $ $ $ $ $ $ $ $ $ $ $ $ $ $ $ @ @ % - @ - - - $ - - 0 0 - - ; - - - @ - @ @ $ $ $ $ $ $ $ $ $ $ $ $ $ $ $ $ $ $ $ $ $ $ $ $ $ $ $ $ $ $ $ $ $ ",
"q $ $ $ $ $ $ $ $ $ $ $ $ $ $ $ $ $ $ $ $ $ $ $ @ @ - - - - $ $ - - - ; - - - - - ; - @ $ @ $ $ $ $ - - $ $ $ $ $ $ $ $ $ $ $ $ $ $ $ $ $ $ $ $ $ $ $ $ $ $ $ $ ",
"y r $ $ $ $ $ $ $ $ $ $ $ $ $ $ $ $ $ $ $ $ $ $ @ % - - $ - - - $ - % @ % % % % - % - $ $ $ $ $ $ $ - - $ $ $ $ $ $ $ $ $ $ $ $ $ $ $ $ $ $ $ $ $ $ $ $ $ $ $ $ ",
"q y r : $ $ $ $ $ $ $ $ $ $ $ $ $ $ $ $ $ $ $ $ @ % - - $ 0 $ @ - # @ @ . # X @ . X % $ 0 0 - ; - - - - $ $ $ $ $ $ $ $ $ $ $ $ $ $ $ $ $ $ $ $ $ $ $ $ $ $ $ 0 ",
"$ $ w r q $ $ $ $ $ $ $ $ $ $ $ $ $ $ $ $ $ $ @ @ % % - - - * % X . @ . @ . % X X X X - % % - % - - * - $ $ $ $ $ $ $ $ $ $ $ $ $ $ $ $ $ $ $ $ $ $ $ $ $ $ $ $ ",
"$ $ $ : r r : $ $ $ $ $ $ $ $ $ $ $ $ $ $ $ $ $ @ @ % @ $ - % X   X , d Z S G G F A n f 6 = o o * % - - $ $ $ $ $ $ $ $ $ $ $ $ $ $ $ $ $ $ $ $ $ $ $ $ $ $ $ $ ",
"$ $ $ $ : w y q $ $ $ $ $ $ $ $ $ $ $ $ $ $ $ $ @ @ @ - @ # . + c H G.-X:X<XqX<X<X,X;XT.H.U v 4 o X % - $ $ $ $ $ $ $ $ $ $ $ $ $ $ $ $ $ $ $ $ $ $ $ $ $ $ $ $ ",
"$ $ $ $ $ $ q y y $ $ $ $ $ $ $ $ $ $ $ @ @ - @ % . % % # * n _ -XqX0X0X0X9X6X1X+XXXXXXX>X>XT.[ N 4 % - : $ @ $ $ $ $ $ $ $ $ $ $ $ $ $ $ $ $ $ $ $ $ $ $ $ $ $ ",
"$ $ $ $ $ $ $ : y t q $ 0 $ $ $ $ $ $ $ % @ % - . . . * d Y T.1X2X2X2X4X4X6X6X2X1X+XXX.X}.}.XX>XT.) c O : * * @ $ $ $ $ $ $ $ $ $ - $ $ $ $ $ $ $ $ $ $ $ $ $ $ ",
"$ $ - - - $ $ $ $ w y w : $ $ $ $ $ @ - - % - $ @ * # c H.>X*X X+X+X+X*X2X3X2X3X=X2X+X+XoX|././..X,XK.A 1 # * @ $ $ $ 0 $ $ $ $ - - - - - - - - $ - - - - - - - ",
"$ $ - - - $ $ @ $ $ 0 y y : : $ $ $ - - - - - $ $ : v J.*X%X#X XOXoX]./.l.k.p.p.t.a.B.'..XoX(././.}.+XL.D 1 * : $ $ $ $ $ $ $ $ - - - - - - - - $ - - - - - - - ",
": $ $ $ - $ $ $ $ $ $ $ r p q $ $ $ @ $ - - 0 ; : v K.*X@X@X@X@X].M.y.r.e.r.9.9.=.$. ...e.W.(.(.(.Q.R./.P.D 3 - $ $ $ $ $ $ $ $ - - - $ - - - - $ - - - - - - - ",
"$ $ $ $ - - $ $ $ $ $ $ $ q y r $ @ @ @ - - ; % d } +X].@X@X(.Q.j.m.N.C.Z.N.v.v.s.s.3.-.W ^ e./.(./.^.^.(.P.N , 0 $ $ $ $ 0 - - - - - - - - - - - - - - - - - - ",
"- - - - - $ $ $ $ $ $ $ $ $ : r y * @ $ $ - * < U |.~._.@X].E.l.S.).).D.Z.Z.n.x.x.z.4.3.2.$.E *.^.|..X/./.|.| c & - # - $ $ - - - - - - @ - - - - - - $ - - - $ ",
"- - - - - $ $ $ $ $ $ $ $ $ $ - , y w 0 - & o b a.S.S.~.].Q.Q.~._._.).F.D.Z.Z.n.b.c.z.4.3.1.%.E / ^.|.|././.}.( 4 % @ @ @ - - - - - - - - - - - - - - - - - - - ",
"- - - - - $ $ $ $ $ $ $ $ $ $ @ @ > y y q % 4 ` l.N.S./.Q.E.#X].]._._.).D.A.Z.N.b.b.c.z.4.1.1.;.E *./.|.|./. XL.m o : 0 - @ - - - - - - - - - - - - - - - - - - ",
"- - - - - $ $ $ $ $ $ $ $ $ @ @ @ $ 0 e i 2 b a.m.M.V.^.^.].@X@X].].]._.F.D.D.A.A.N.b.c.z.5.1.1.;.E t.'.(.|./.|.` 4 $ 0 . % - $ - - - - - - - - - - - - - - - - ",
"- - - $ - $ $ $ $ $ - $ - @ $ % $ $ $ $ > 7 I B.c.b.V.^.%X%X#X@X[.].[.`.F.F.F.D.A.N.N.n.z.z.5.3.1.o.Q S. X(.(..XL.x - : % % @ $ - - @ - - $ - - - - - - - - - - ",
"- - - - - - - - $ $ - - - - - - $ $ $ $ X 8 ] y.f.c.V.(.*X&X#X#X[.[.`.`.F.@XF.D.S.A.N.n.x.x.z.5.1.2.Q t.%X X(..X{.D * : . # $ $ - - - - - - - - - - - - - - - $ ",
"- - - - - - - - - - - - - - - - $ $ # # X x { 7.q.c.^.%X=X&X&X#X$X@X[.`.`.`.F.F.S.A.A.N.N.b.c.z.f.3.=.*.(.OX X X.X' , - @ @ $ $ - - - - - - - - - - @ - - - - - ",
"- - - - - - - - - - - - - - - - $ $ $ # o N 8.2.=.a./.*X*X=X&X#X$X[.[.`.`.$X@XF.F.F.F.A.A.N.b.c.z.4.3.$.Q.*XOX XXX| 9 - $ $ @ - - - - - - - - - - - - - - - - - ",
"- - - - - - - - - - - - - $ - - $ $ @ . o C 8.2.:.r.R.+X*X*X&X&X&X$X$X].[.`._._.).F.F.F.S.A.M.b.c.s.s.=.k.*X*X X XU.v @ - - @ - - - - - - - - - - - - - - - - - ",
"- - - - - - - - - - - - - $ - - $ $ @ @ = K 2.<.9.B.^.}. X=X=X&X&X%X$X$X$X[.[.`.`._.).S.S.A.A.b.n.c.z.2.h.2X*X+X*XY.m % - @ @ - - - - - - - - - $ - - - - $ - - ",
"- $ - - - - - - $ - - - - - - - $ $ @ . + I ,.<.9.m.#X X X(.%X&X=X%X&X$X$X$X[.`.]._.).).F.S.A.A.N.n.c.w.h.4X2X2X+X}.A # @ - - - - - @ - - $ - - - - - - - - - - ",
"- - - - - - - $ - - - $ - - - - $ $ @ $ 1 K ,.;.7.g.].%X*X(.}. X*X=X&X&X$X$X[.[.`._.`.`.F.F.S.A.N.N.N.f.h.6X2X6X2X{.A # X @ - - - - - - - - - - - - - - - - - - ",
"- - - - - - $ - $ $ $ $ $ - $ $ - @ % - O J O.O.:.d.).%X%X&XOX|. X*X*X&X&X#X[.$X[.@X`._.F.F.F.D.S.N.N.c.l.5X9X8X4XT.m X % @ - - - - - - - - - - - - - - - - - - ",
"- $ - - - $ $ $ $ $ $ $ $ $ $ $ % X @ - O V O.-.7.y.!.#X X%X*XoX|.|.*X*X=X%XOX].@X`.`.`.`.`.F.F.S.S.C.j.Q.4X9X0X6XL.z . . . - - - - - - - - - - - - - - - - - - ",
"- - - - - $ $ $ $ $ $ $ $ $ $ $ @ X % $ * b $.-.:.r.S.@X#X&X%X=X*X X}.XX*X*X&X&X@X@X`.`.`._.F.F.D.F.S.j. X4X7X9X2X| 5 . . @ - @ - - - - - - - - - $ - - $ - - - ",
"- - - - - $ $ $ $ $ $ $ $ $ $ $ @ @ X - X l ^ @.+.2.M. X%X#X$X&X=X*X*X|. X*X=X&X$X[.`.[.`.).F.@X).!.S.V.%X=X2X=X2X[ 3 . % @ - - - - - $ - - - - - - - - - - - - ",
"- - - - - $ $ $ $ $ $ $ $ $ $ $ $ $ @ @ X 7 L +.+.+.d.'.+X[.$X$X%X*X=X=X|.|.OX&X&X$X[.[.[.`.[._.].).E.!.%X*X=X#XXXF = . @ $ - - - - - - - - - - - - - - - - - - ",
"- - - - $ $ $ $ $ $ $ $ $ $ $ $ 0 - X X % & B  .X. .7.W.oX[.$X$X$X&X=X=X*XOX/.|.OX=XOX[.[.[.$X[.].~.Q.#X%X%X#X#XP.n % * * $ $ - - - - - - - - - - - - - - - - - ",
"- - - - $ $ $ $ $ $ $ $ $ $ $ $ $ - @ @ % & k R X.o.&.a.W.].@X#X%X%X%X=X=X=X*X|.oXoX&XOX[.].[.OX$XQ.~.#XOX X@X(.( + * # $ - $ - - $ - - - - - - - - - - - - - - ",
"- - $ - $ $ $ $ $ 0 $ $ $ $ $ $ $ $ @ @ % % < B $.-. .>.v.!.@X$X].$X$X&X&X=X*X*XOX|.oXoXOXOXoXoX~.~.#X#X#XOX(.T.n . @ @ $ - - - - - - - - - $ - - $ - - - - $ - ",
"- - $ - $ $ $ $ $ $ $ $ $ $ $ $ @ $ $ $ . . * 9 T ..+. .1.v.!.$X].$X$X#X%X%X=X=X+XOX(.(.oX&XoX'.!.].$X@X].]..X) , @ @ # $ $ : $ - - - - - - - - - - - @ - - - - ",
"- $ $ $ $ - $ $ $ $ $ $ $ $ $ $ @ @ $ $ . . % X M ^ o.X.@.2.k.Q._.@X#X$X#X&X%X=X=X=X*X|./.|. X(.].].].].].~.u.f $ # # $ $ $ - $ - - - - - - - - - - - - - - - - ",
"$ $ $ $ $ $ $ $ $ $ $ $ $ $ $ $ @ $ $ $ @ @ @ # 2 B / %.o.o.:.j.S.~.].].#X#X#X&X&X%X&X%X/.B.R./.|.].]._./.I.m * : @ . @ $ $ - - - - - - - - $ - - - - - - - - - ",
"$ $ $ $ $ $ $ $ $ $ $ $ $ $ $ $ $ $ $ $ $ $ $ @ & 5 J ^ o.X.o.&.q.M.V.Q.~.#X#X#X%XOX(./.!.V.a.B.W.'.'./.h.D 1 * $ @ @ # $ $ - - - $ - - - - - - - - - - - - - - ",
"$ $ $ $ $ $ $ $ $ $ $ $ $ $ $ $ $ $ $ $ $ $ $ $ - % 7 J ^ X.X.X.o.&.9.f.B.C.W.W.W.V.V.B.m.v.v.z.f.M.R.i.B < * 0 0 $ @ . @ - - - - - - $ - - - - $ - - - - - - - ",
"$ $ $ $ $ $ $ $ $ $ $ $ $ $ $ $ $ $ $ $ $ $ $ @ @ @ % 4 M T o.X.X.o.@.+.>.7.r.r.0.0.0.d.d.s.x.n.j.i.' N , * 0 e 0 @ @ @ $ $ - - - - - - - - - - - - - - - - $ - ",
"$ $ $ $ $ $ $ $ $ $ $ $ $ $ $ $ $ $ $ $ $ @ $ $ - @ - * 2 z J W %.o.X.&.&.-.;.:.1.<.1.4.5.s.f.e.{ P d = p t q 0 $ $ @ * - - $ - - - - - - - - - - - - - - - - - ",
"$ $ $ $ $ $ $ $ $ $ $ $ $ $ $ $ $ $ $ $ $ $ $ $ - - @ * % X 1 b P E ..%.O.O.#.#.<.<.2.9.e.6.! P z + . # : y t : # # @ - - - @ - - - - - - - - - - - - - - - - - ",
"$ $ $ $ $ $ $ $ $ $ $ $ $ $ $ $ $ $ $ $ $ $ $ $ $ 0 @ . . @ $ * 1 l M J L T E  ./ ~ R I C m 9 , X # # . # * > u > * - - 0 - - - - - - - - - - - - - - - - - - - ",
"$ $ $ $ $ $ $ $ $ $ $ $ $ $ $ $ $ $ $ $ $ $ $ $ $ - - . . . @ $ - ; 2 2 4 8 9 k k 9 9 3 + o * @ - @ @ # . - @ = u u q $ $ $ - - - - - - - - - - - - - - - - - - ",
"$ $ $ $ $ $ $ $ $ $ $ $ $ $ $ $ $ $ $ $ $ $ $ $ $ - $ - - % % * : : $ @ @ @ . % % . # X . # @ : # : @ : - - % - ; y y q * - $ $ - @ $ $ $ - - - - - - - - - - - ",
"$ $ $ 0 $ $ $ $ $ $ $ $ $ $ $ 0 $ $ $ $ $ $ $ $ @ @ - - - - % % * @ X @ @ @ % - - % - # % @ $ $ $ $ $ $ - - - - - ; w y t - - - - - - - - - @ - - $ - - - $ - - ",
"$ $ $ $ $ $ $ $ $ $ - $ - $ $ $ - $ - $ @ $ - $ $ - - @ - - - - @ - @ - - - - $ - - - @ @ - @ - - $ $ - - - - - - - - q i i q - - ; - $ - - - @ - - - - - - - - ",
"0 $ $ $ : $ $ $ - - - - - - - - - - - - - - - - - - - - $ - $ @ - - - - % - - - - - - - - - - - - - - - - @ - - - - - - : w i w - $ - - - - - $ - - - - - $ - - ",
"$ $ $ $ - - $ $ - - - - - - - - - - - - - - - - - - - - - - - - - - - - - - @ - - - - - - - - - - - - - - - - $ - - - - - - q i i ; $ - - - - - - - - - - - - - ",
"$ $ 0 $ - $ $ : - - - - - - - - - - - - - - - - - - - - - - - - - - - @ - - - - - - - - - - - - - - - - - - - $ - - - - - - - q r i q - - - - $ - @ - $ - - - - ",
"- - $ - - - $ - - - - - - - - - - - - - - - - - - - - - - - - - - - - - - - - - - - - - - - - - - - - - - - - @ - - - - - - - @ - w i r : ; - $ - $ - - $ - - - ",
"- - - - - - - - - - $ - $ - - - - - - - - - - - - - - - - - - - - - - - - - - - - - - - - - - - - - - - - - - - - @ $ - - $ - - - - q y y q - - - $ - - - - - - ",
"- - - - - - - - - - - - - - - - - - - - - - - - - - - - - - - - - - - - - $ - - - - $ - - - - @ - - - - - - - - $ - - - - - - - - - - : w i q - - - - - - - - - ",
"- - - - - - - - - - - - - - - - - $ - - - - $ - - - @ - - - - - - - - - - - - - - - - - - - - - $ - - - - - - - - - - - - - $ - - - - ; - q i y : - - - $ $ - - ",
"- - - - - - - - $ - - - - - - - - - - - - - - - - - - - - - - - - - - - - - - - - - - - - - - - - - - - - - - - - - - - - - - - - - - - - - : w i w - - - - - - ",
"- - - - - - - - - - - - - $ - - - - - $ - - - - - - - - - - - - - $ - - - - - - - - - - - - - - - - - - - - - - - - - - - - - - - @ - - - $ - - w y w ; - - - - ",
"- - - $ - - - - - - - - - - - - - - - - - - $ - - - - - - - - - - - - - - - - $ - - - - - - - - - - - - - $ - - - - - - - - - - - - - $ @ - $ - - w y i q - - - ",
"- - - - - - - - - - - - - - - - - - - - - - - - @ - - - - - - $ - - - - - - - - - - - - - $ - - - - - - - - - - - - - $ - - - - - - - - - - - - $ - - w i w : - ",
"- - - - - - $ - - - - - - - - - - - - - - - - - - - - - - - - - - - - - - - - - $ - - - - $ - - - - - - - - - - - - - - - - - $ - - - - $ - - $ - - - - q i i : ",
"- - - - - - - - $ - - - - - - - - - @ - - - - - - - - - - - - - - - - - - - - - - - - - - - - - - $ - - - - - - - - - $ - - - - - - - - - $ @ - - - - - $ : r i ",
"- - - $ - - - - - - - - - - - - - - - - - - - - - - - - - - - - - - - - - - - $ - - - - - - - - - - - - - - - - - - - - - - - - - - - - - - - - - $ - - - - ; w ",
"- - - - - - - - - - - - - $ - - - - - - - - - - $ - - - - $ - - $ - - - - - - - - - - - - - - - - - - - $ - - - - - - - - - - - - - - - - - - - - - - - - - - $ "
};
