/* XPM */
static char *_420d2650bb94620a1ce3492d7ccafc5UQMpIlfybjGpXzo2[] = {
/* columns rows colors chars-per-pixel */
"80 80 246 2 ",
"   c #2C2D3C",
".  c #2F333E",
"X  c #3B3B37",
"o  c #34353C",
"O  c #38373C",
"+  c #363B3D",
"@  c #3D3D3D",
"#  c #403B3A",
"$  c #1D2248",
"%  c #192458",
"&  c #262B47",
"*  c #312F44",
"=  c #2E3A44",
"-  c #2B3649",
";  c #2D3B4D",
":  c #333443",
">  c #343B43",
",  c #393B42",
"<  c #33384A",
"1  c #323D4B",
"2  c #273A55",
"3  c #2B3C54",
"4  c #27395B",
"5  c #2B3D5A",
"6  c #303D53",
"7  c #303F59",
"8  c #1C3467",
"9  c #1D3672",
"0  c #253B65",
"q  c #2D3D68",
"w  c #35414C",
"e  c #394049",
"r  c #2E4155",
"t  c #2D425B",
"y  c #344353",
"u  c #32445A",
"i  c #384759",
"p  c #2D4463",
"a  c #2B4668",
"s  c #2F4B6D",
"d  c #344966",
"f  c #3C4E64",
"g  c #334B6B",
"h  c #3B516B",
"j  c #2B4A75",
"k  c #354E75",
"l  c #2E527A",
"z  c #365578",
"x  c #43546B",
"c  c #455776",
"v  c #445B7A",
"b  c #47637E",
"n  c #1C3987",
"m  c #1A3992",
"M  c #1E4594",
"N  c #284F8E",
"B  c #325A83",
"V  c #395B85",
"C  c #315B8A",
"Z  c #38618B",
"A  c #376697",
"S  c #3C729F",
"D  c #214AAB",
"F  c #2759BA",
"G  c #376AA4",
"H  c #3D75AB",
"J  c #2E65BB",
"K  c #3569B9",
"L  c #3D72B4",
"P  c #445D86",
"I  c #476788",
"U  c #536C8A",
"Y  c #57728D",
"T  c #4A6C94",
"R  c #526C90",
"E  c #4C7398",
"W  c #557596",
"Q  c #637D9A",
"!  c #416CA3",
"~  c #4879A9",
"^  c #547BA7",
"/  c #447AB6",
"(  c #647EA0",
")  c #2558C8",
"_  c #275DD2",
"`  c #2D66CA",
"'  c #326BCA",
"]  c #3876C5",
"[  c #3B7ACB",
"{  c #2C66D6",
"}  c #316DD4",
"|  c #3677D6",
" . c #3678E1",
".. c #417CC4",
"X. c #6B8499",
"o. c #5B87AF",
"O. c #4783B7",
"+. c #568AB8",
"@. c #6688A8",
"#. c #718CA6",
"$. c #688BB5",
"%. c #6898BD",
"&. c #7798B8",
"*. c #78A3BF",
"=. c #3E80C9",
"-. c #3F85D6",
";. c #3B82E7",
":. c #4B8DC3",
">. c #4987CA",
",. c #568AC7",
"<. c #4C90C6",
"1. c #4D93CC",
"2. c #5895C8",
"3. c #4787D5",
"4. c #538CD5",
"5. c #4C93D5",
"6. c #5697D8",
"7. c #529BDC",
"8. c #628FC2",
"9. c #6898C5",
"0. c #739CC6",
"q. c #659BD9",
"w. c #56A3DC",
"e. c #59A1DA",
"r. c #6BA5C8",
"t. c #78A3C9",
"y. c #68A6DC",
"u. c #76ADDC",
"i. c #7AB4DB",
"p. c #4389E4",
"a. c #418BEC",
"s. c #4C95E4",
"d. c #4B97EB",
"f. c #549AE1",
"g. c #4896F1",
"h. c #5DA5E5",
"j. c #5BABE5",
"k. c #56A5E8",
"l. c #5BADEB",
"z. c #5DB2ED",
"x. c #5FB8EF",
"c. c #55AAF2",
"v. c #5AADF3",
"b. c #5CB3F2",
"n. c #5FB9F6",
"m. c #63A5E3",
"M. c #69A6E4",
"N. c #63ACE3",
"B. c #6BACE4",
"V. c #63ACE9",
"C. c #76AEE2",
"Z. c #68B2E5",
"A. c #64B5EE",
"S. c #6BB4EB",
"D. c #62B9EE",
"F. c #6CBBEE",
"G. c #75B3E4",
"H. c #78B9E7",
"J. c #60AEF1",
"K. c #63B5F3",
"L. c #6AB6F1",
"P. c #64BBF4",
"I. c #6ABCF3",
"U. c #65BDF8",
"Y. c #75BCF3",
"T. c #78C3ED",
"R. c #6DC1F4",
"E. c #69C0F9",
"W. c #73C3F4",
"Q. c #7BC4F2",
"!. c #78C9F6",
"~. c #7CCAF4",
"^. c #91A4B7",
"/. c #85A7C6",
"(. c #91AAC7",
"). c #91B3CE",
"_. c #89BBD7",
"`. c #87BAE5",
"'. c #AFCADE",
"]. c #84C4EC",
"[. c #88C6E9",
"{. c #96CAEB",
"}. c #8AD1EE",
"|. c #99D1ED",
" X c #83C4F4",
".X c #87C9F6",
"XX c #84CDF4",
"oX c #8ACDF4",
"OX c #93CDF4",
"+X c #99CEF3",
"@X c #86D1F5",
"#X c #8BD3F5",
"$X c #86D2F9",
"%X c #8CD5F8",
"&X c #93D5F5",
"*X c #9BD5F4",
"=X c #94D9F6",
"-X c #9BDAF6",
";X c #92D6F9",
":X c #99D7F9",
">X c #94D9F8",
",X c #9BDBF9",
"<X c #A4CDEB",
"1X c #A9D5E8",
"2X c #ACD5ED",
"3X c #B7D8E8",
"4X c #A3D6F3",
"5X c #A3DCF5",
"6X c #ABDCF5",
"7X c #ABDDF7",
"8X c #A4DDF8",
"9X c #B4DDF5",
"0X c #BEE1EF",
"qX c #ACE1F6",
"wX c #A6E2F8",
"eX c #ABE2F9",
"rX c #B4E3F6",
"tX c #BCE5F5",
"yX c #BAE8F7",
"uX c #B3E4F9",
"iX c #BBE7F9",
"pX c #BDE9F9",
"aX c #C6DAE7",
"sX c #D0DBE6",
"dX c #C2E6F4",
"fX c #C8E6F3",
"gX c #C6E9F2",
"hX c #C5EAF6",
"jX c #CBECF5",
"kX c #C3EAF9",
"lX c #CBECF9",
"zX c #D3EDF6",
"xX c #D2EEF9",
"cX c #D9EEF9",
"vX c #D5F1F7",
"bX c #DCF1F6",
"nX c #D4F1FA",
"mX c #DCF2FA",
"MX c #E5F4F6",
"NX c #EBF6F6",
"BX c #E3F5FA",
"VX c #EAF6FA",
"CX c #EEF9FB",
"ZX c #F7FAF5",
"AX c #F3FAFB",
"SX c #FAFCFB",
/* pixels */
"@ @ @ @ @ @ @ @ @ @ @ @ @ e # # @ @ @ @ @ @ # @ @ @ @ @ @ @ @ @ @ @ @ 6 2 1 @ @ @ @ @ @ @ @ @ @ @ @ @ @ @ @ @ @ @ @ @ @ @ @ @ @ @ @ @ @ @ @ @ @ @ @ @ @ # e # @ ",
"@ @ @ @ @ @ @ @ @ @ @ @ @ @ @ @ @ @ @ @ @ @ # e @ @ @ @ @ @ + @ @ @ @ @ @ @ @ @ @ @ @ @ @ @ @ @ , @ @ @ @ @ @ @ @ @ @ @ @ @ @ @ @ @ @ @ @ @ @ @ @ @ @ @ # e # @ ",
"@ @ @ @ @ @ @ @ @ @ @ # @ @ @ @ @ @ @ @ @ @ @ @ @ @ @ @ @ @ @ @ @ @ @ @ @ @ @ @ @ @ @ @ @ @ @ @ @ @ @ @ @ @ @ @ @ @ @ @ @ @ @ @ @ @ @ @ @ @ @ @ @ @ @ @ @ @ @ @ ",
"@ @ @ @ @ @ @ @ @ @ e # @ @ @ @ @ @ @ @ @ @ @ @ @ @ @ @ @ @ @ @ @ @ @ @ @ @ @ @ @ @ @ @ @ @ @ @ @ @ @ @ @ @ @ @ @ @ @ @ @ @ @ @ @ @ @ @ @ @ e # @ @ @ @ @ @ @ @ ",
"@ @ @ @ @ @ @ @ @ @ @ @ @ @ @ @ @ @ @ @ @ @ @ @ @ @ @ @ O @ @ X @ @ @ @ X @ @ O @ O , @ @ o @ @ @ @ @ @ @ @ @ @ @ @ @ # @ @ @ @ @ @ @ @ @ @ @ @ @ @ @ @ @ e @ @ ",
"@ @ @ @ @ @ @ @ @ @ @ @ @ @ @ @ @ @ @ @ @ @ @ @ @ @ @ @ @ @ @ @ , X O + + 1 s h h h g g s t , @ @ , + @ @ O @ @ @ @ @ @ @ @ @ @ @ @ @ @ @ @ @ @ @ @ @ @ # # @ @ ",
"@ @ @ @ @ @ @ @ @ @ # @ @ @ @ @ @ @ @ @ @ @ @ X # @ , = = - < @ @ 1 = u Z W '.aXsXsX3X{.[.%.Z C C C C j = = > , @ X X + @ @ @ @ @ @ @ @ @ @ @ @ @ @ @ @ @ @ @ @ ",
"@ @ @ @ @ @ @ @ @ @ # e @ @ @ @ X @ @ @ @ @ @ @ e t U @.@.@.W u r R ^ r.}.6XnXBXjXlXcXvXhX-XoXQ.I.A.K.w.H H A 5 ; > @ @ @ @ @ @ @ @ @ @ @ @ @ @ @ @ @ @ @ @ @ @ ",
"@ @ @ @ @ @ @ @ @ @ @ @ @ @ @ @ @ O @ @ @ @ + r b /.'.yXqXpXfX).).3X5X}.&XuXxXcX6X=X9XrX6X8X6X-X}.@XR.P.P.P.j.:.O.l 1 @ @ @ @ @ @ @ @ @ @ @ @ @ @ @ @ @ @ @ X @ ",
"@ @ @ @ @ @ @ @ @ @ @ @ @ @ @ @ @ X X O + i I (.aXyXXX&XqXxXVXBXBX6XT.@X:XpXBXMXrXI.K.Q.-X[.q.m.N. X@XW.z.z.m.m.j.6.Z p + @ o @ @ @ @ @ @ @ @ @ @ @ @ @ @ @ @ e ",
"@ @ @ @ @ @ @ @ @ @ @ @ @ @ @ @ @ @ @ w u &.gXMXgXT.Q.qXhXMXAXcXhXH.I.;X=XuXnXCXBX9XQ. XdXdX`.G.V.S.-XXXl.7.H.H.k.z.P.O.a @ @ @ @ @ @ @ @ @ @ @ @ @ @ @ @ @ @ @ ",
"@ @ @ @ @ @ @ @ @ @ @ @ @ @ # e > O ; W ).fXNXMX5Xj.@XyXjXBXSXmXhX&XL.S.T.-XuXnXAXAXVXMXcXzXzX{.[.wXpX>XR.P.w.k.z.P.P.P.:.g + X @ @ @ + @ @ @ @ @ @ @ @ @ @ @ @ ",
"@ @ @ @ @ @ @ @ @ @ + X # @ + f v j @.3XuXvXSXzXhX].!.5XhXmXSXCXzXhX[.f.B.%X:XiXvXAXAXmXiXrXkXrX|.fXnXuX%XW.n.v.U.P.U.P.P.:.p + X @ @ @ @ @ @ @ @ @ @ @ @ @ @ @ ",
"@ @ @ @ @ @ @ @ @ @ + X @ i Y /._.u.9X6XpXnXAXnXhXhXY.}.eXlXBXSXBX0Xu._.S.Q.XXwXlXlXlXuX,X%X&X-XfXvXMXkX:X~.U.v.I.!.I.P.P.P.<.s @ @ @ @ @ @ @ @ @ @ @ @ @ @ @ @ ",
"@ @ @ e @ @ @ @ @ @ @ X w #.1X[.`.9X#XXXpXlXnXnXlX4XL.XXwXjXvXmXBXzX[.H.9X-XF.Q.*XwX#XW.!.I. XrXVXZXBXpX>X%XI.K.oX>X$XW.P.z.z.<.g @ # e @ @ @ @ # e @ @ @ @ @ @ ",
"@ # @ @ @ @ @ @ @ @ @ @ r %.N.i.zX9XK.XXpXlXlXmXvXOXz.W.&XqXpXhXjXnXdXtXzXdX Xz.P.F.A.K.K.].tXMXAXBXkX5X>X$XI.K.&X,X=X~.P.h.N.l.1.z i @ @ @ @ @ # @ @ @ @ @ @ @ ",
"@ @ @ @ @ @ @ @ @ @ + X 1 E ].yXMXOXz.XXuXlXlXBXNXfX].b.K.I.=X,XpXlXxXCXCXMXzX+XY.H.OXtXlXlXcXMXxXuX8X;X%XW.n.A.-X5X=X%XI.z.l.P.D.l.O.t X + @ @ @ @ @ @ @ @ @ @ ",
"@ @ @ @ @ @ @ @ @ @ @ > I ].yXbXcXA.K.~.,XkXlXnXAXAXlXOX[.&XQ.&X5XkXlXcXBXAXAXZXAXvXyXqX6X>X,X6XwX>X>X$XR.D.K.4X{.B.H.#XD.v.P.P.R.W.x.O.u + @ @ @ @ @ @ @ @ @ @ ",
"@ @ @ @ @ @ @ @ @ @ @ ; 2.,XpXBXcXL.K.R.#XqXkXkXmXAXAXCXBXOXY.#X>X:X8X,X5XlXvXcXxXiX=X=X&X XoX@X#X@XW.E.z.S.9XgXG.B.m.S.W.v.b.P.R.$XT.D.O.; X + @ @ @ @ @ @ @ @ ",
"@ @ @ @ @ @ @ @ @ @ @ ; +.>X5XhXVX9XF.b.K.@X-X=X8XlXBXSXAX.XA.oX=X$X$XI.I.#X8X&X=X@X!.-XtX*XK.P.K.P.A.F.+XzXbXrXoXN.7.Z.U.b.W.!.I.~.#XR.O.; X + @ @ @ @ @ @ @ @ ",
"@ @ @ @ @ @ @ e @ @ O > I T.>XwXcXVX5X XQ.I.Q.@X&X-XlXnXcX9XK.I.~.U.K.`.D.I.XXW.I.L. XpXmXcX*X X X.XtXmXmXzXqX=X#XoXD.P.b.oX7X%XR.R.@XN.j + X + @ @ @ @ @ @ @ @ ",
"@ @ @ @ @ @ # # X @ w y 1 T }.>XiXmXBXjXpX Xv.L.@X=X,XyX8XtX*XV.l.oXtXhXtXqX9X6XL.F.9XMXZXAXVXBXxXlXnXlX8X=XR.T.#X!.K. X*XfXuX%XR.n.R.D.O.r @ @ @ @ @ @ @ @ @ @ ",
"@ @ @ @ @ @ @ @ X O x W 3 I |.uXiXzXAXAXbXfX6XF.R.XX#XoX#X-XtXtXfXzXfXyXvXBXBXNXtXdXBXZXSXBXnXnXlXlXiX,X#XXX&XF.P.z.Q.fXjXiX=X!.n.E.D.E.D.G = @ @ @ @ @ @ @ @ @ ",
"@ @ @ @ @ @ @ @ O 1 1 p V _.kXlXlXlXmXVXbXvXvX Xz.z.I.Y.R.#XqXhXtX5X#X=XqXhXhXuXuXlXzXvXvXkXuXuXrXuX4X$XY.-XfX6XY.oXlXmXpX-XoXI.v.b.P.E.l.V = @ @ @ @ @ @ @ @ @ ",
"@ @ @ @ @ @ @ @ e X.h r +.%XeXuX8XuXkXlXlXvXAXjX+X+X*X4XK.R.#X:X~.S.~.!.W.5X=X}..X:XuXuXwX,X;X;X;X~.Q.Y.l.*XcXcXlXlXnXpX*X>X~.P.x.1.S G l r @ X @ @ @ @ @ @ @ @ ",
"@ @ @ @ @ @ @ @ @ x r t <.~.>X>X%X=X-XuXlXvXAXAXAXBXvXxXOXL.L.U.L.*XhX{.S.5X*X6XQ.K.!.%X@X!.E.I.P.b.b.b..XcXAXBXkX6X:X8XeX%XR.P.1.l 2 - + + X + @ @ @ @ @ @ @ @ ",
"e @ @ @ @ @ @ @ @ + + A x.R.~.@X;X%X@X:XqXpXmXSXSXSXNXBXzXrX XV.T.cXAXMXhXkXjXjXuXQ. X,X&XQ.K.v.W.Q. X4XNXAXVXlX8X>X:XiX-XR.P.z.B 3 b X.r + X X @ @ @ @ @ @ @ @ ",
"# @ @ @ @ @ @ @ @ + = A E.P.P.W.!.W.I.W.XX-XtXnXBXmXzXkX9XtXdXm.`.BXSXSXCXnXlXhXxXBXBXxXlXlX4X&XkXcXmXmXBXmXlX8X>X>XuXkXQ.c.P.j.l = b _.o.r X + @ @ @ @ @ @ @ @ ",
"@ @ @ @ @ @ @ @ @ @ + C w.1.H j.U.U.P.n.z.K.=XuXpXkXpX8X=X:X|.6.`.nXCXSXSXVXnXBXAXAXBXxXlXpXhXfXdXpXlXlXkXkXuX;X%X@X=X!.v.b.P.L w + w b %.f X e @ @ @ @ @ @ @ @ ",
"# @ @ @ @ @ @ @ @ @ X r s s w A <.<.w.P.P.E.@X,X*X:X>X@XXXXXB.`.G.uXnXAXSXSXSXAXVXxXlXiXqX-X=X=X,X&XqXiX6X#X$X$X!.P.K.x.P.P.P.A = @ X w y @ @ @ @ @ @ @ @ @ @ @ ",
"e @ @ @ @ @ @ @ @ @ @ @ + + @ w 5 3 B w.n.R.,XyX6X~.W.I.U.W.S.G.Y.=XuXnXmXBXBXnXlXkX6X*X@X!.!.!.&X,X,X#X!.I.U.@X#XY.R.n.U.P.U.G = X X X X X @ @ @ @ @ @ @ @ @ @ ",
"# @ @ @ @ @ @ @ @ @ @ @ + @ @ # @ 1 R ^ >.R.=XwX,XT.z.z.z.D.W.T.Q.I.%XeXkXkXkXkXpX5X@X!.I.v.W.&XuXlXiX=XW.U.U.E.R.R.R.P.w.H w.Z w i i w X X @ @ @ @ @ @ @ @ @ @ ",
"@ @ @ @ @ @ @ @ @ @ @ @ @ @ @ @ 1 X.&.p C z.~.@X!.E.k.K =.j.P.W.XXI.R.XX;X-X-X*X=X!.R.P.W.@X,XpXjXlXyX=XW.c.7.1.b.P.E.x.A t s r @ Y b X X X @ @ @ @ @ @ e @ @ @ ",
"@ @ @ @ @ @ @ @ @ @ @ @ @ @ @ @ h 3X%.; p :.P.E.E.7.=.} ` ] z.P.R.Q.U.P.W.!.!.!.!.I.z.D.#X>XeXkXlXuX,X@XR.O.j 3 Z j.P.1.s + + @ X e e X X @ @ @ @ @ @ @ @ @ @ @ ",
"@ @ @ @ @ @ @ @ @ @ @ @ @ # @ e d 9.z , + p O.z.1.l L g.| J w.E.U.P.U.n.b.K.b.b.I.XX&X6X-X@X@X,X5X,X>XXXU.A > , r B A s , @ @ @ X X X X w X @ @ @ @ @ @ @ @ @ @ ",
"@ @ @ # # e @ @ @ @ @ @ @ @ @ @ 1 d + @ @ + p j a - 0 6.g.J w.P.I.n.w.k.v.b.b.Y.oX&XpXhXqX#XQ.!.@X;X@XE.w.B 1 f i > + @ X @ @ O @ @ @ @ X X @ @ @ @ X e @ @ @ @ ",
"@ @ @ @ e # # @ @ @ @ @ @ @ @ @ X O X @ @ @ @ @ X @ & ~ F.3.>.P.K.6.] ] c.W.~.#X!.R.=X-X=XW.w.j.W.!.R.P.O.; = Q /.h @ X + 1 @ @ @ @ @ @ @ @ X # @ @ @ @ @ @ @ @ ",
"@ @ @ @ @ @ @ @ @ @ @ @ @ @ @ @ @ 1 y @ @ @ @ @ @ + o g }.j.' ] O.1.k.' 5.P.R.!.l.5.D.!.R.w.K [ l.P.I.7.l = X h *.V O , d W y O @ @ @ @ @ @ # # @ @ @ @ @ @ @ @ ",
"@ @ @ @ @ @ @ @ @ @ @ @ @ @ @ @ + h U = @ @ @ @ # , o q _.XXd.[ y.5.l.k.] j.P.k.=.J =.x.n.>.' ` J >.5.l > @ X , d w @ @ w f , @ @ @ @ @ @ @ # X @ @ @ @ @ @ @ @ ",
"@ # # e @ @ @ @ @ @ @ @ @ @ @ @ @ w y + @ @ @ @ @ # o o c _.@Xe.q.[.[ n.=.5.n.:.[ | [ -.>.] >.K ' G p , X @ @ @ @ @ @ @ @ @ @ @ @ @ @ # @ @ x @ @ @ @ @ @ @ @ @ ",
"@ @ @ @ @ @ @ @ @ @ @ @ @ @ @ @ @ @ X > @ @ @ @ @ @ @ O & X.-Xi.q.-X6.f.k.| >.[ [ 2.3.| ` 5.2.] >.T   X @ @ @ @ @ @ @ @ @ @ @ @ @ @ @ @ @ @ @ @ @ @ @ @ @ @ @ @ ",
"@ @ @ @ @ @ e @ @ @ @ @ @ @ @ @ @ @ @ @ @ @ @ @ @ @ , @ O q _.@Xu.[.G.4.!.d.>.>.N.2.Z.s.| Q.H.3.4.I . @ @ @ @ @ @ @ @ @ @ @ @ @ @ @ @ @ @ @ @ @ @ @ @ @ @ @ @ @ ",
"@ @ @ @ @ @ # # @ @ @ @ @ @ @ @ @ @ @ @ @ @ @ X O > v i O & u.@XH.}.`.q.XXI.M.6.!.T.=X4.B.=X X>.$.& @ @ @ @ @ @ @ @ @ @ @ @ @ @ @ @ @ @ @ @ @ @ @ @ @ @ @ @ @ @ ",
"@ @ @ @ @ # # e @ @ @ @ @ @ @ @ @ @ @ @ @ @ + X X > I i O : U u.0.t.u.9.=X@Xu.6.!.@X=X3.[.,XY.4.^ & @ @ @ @ @ # @ @ @ @ @ @ @ @ @ @ @ @ @ @ @ @ @ @ @ @ @ @ @ @ ",
"@ @ @ @ @ @ @ @ @ @ @ @ # 1 @ @ @ @ @ @ @ @ @ @ X , > , # O 2 0.r.$.[.q.H.=Xu.q.}.-X@Xk.*XeXq.>.q : @ @ @ @ @ # @ @ @ @ @ @ @ @ @ @ @ @ @ @ @ @ @ @ x # @ @ @ @ ",
"@ @ @ @ @ @ @ @ @ @ @ @ # @ @ @ @ @ @ @ @ @ @ @ @ @ @ @ # o 3 o.9.1.[.M.u.uXC.q.}.-XY.Q.-X*X>.,.& O X @ @ @ @ e @ @ @ @ @ @ @ @ @ @ @ @ @ @ @ @ @ @ # # @ @ @ @ ",
"@ @ @ @ @ @ @ @ @ @ @ @ # @ @ @ @ @ @ @ @ @ @ @ @ @ @ @ O X o I i.Z.@XM.G.eXi.q.$X=Xl. X}.K.} / & O @ @ @ @ @ @ @ @ @ @ @ @ @ @ @ @ @ @ @ @ @ @ @ @ # # @ @ @ @ ",
"@ @ @ @ @ @ @ @ @ @ @ @ @ @ @ @ @ @ @ @ @ @ @ @ @ @ @ @ # O o z ].R.~.q.C.=X|.4.F.=Xv.L.!.f.>.C * o @ @ @ @ @ @ @ @ @ @ @ @ @ @ @ @ @ @ @ @ @ @ @ @ @ # @ @ @ @ ",
"@ @ @ @ @ @ @ @ @ @ @ @ @ @ @ @ @ @ @ @ @ @ e # # @ @ @ # @ X - ~ Y.v.f.6.Q.%Xq.h.W.c.g.K.| 3.q o X @ @ @ @ @ @ @ @ @ @ @ @ @ @ @ @ @ @ @ @ @ @ @ @ @ @ @ @ @ @ ",
"@ @ @ @ @ # @ @ @ @ @ @ @ @ @ @ @ @ @ @ @ @ @ @ @ @ @ @ @ # @ . A Y.v.s.} V.~.4.h.K.a.a.p.| 3.0 o @ X @ @ @ @ @ @ @ @ @ @ @ @ @ @ @ @ @ @ @ @ @ @ @ @ @ @ @ @ @ ",
"# # @ @ # e @ # @ @ @ @ @ @ @ @ @ @ # e @ @ @ @ @ @ @ @ @ # @ @ q r.I. ._ M.L.| M.K.g.;.} } ' 0 o @ + @ @ @ @ @ @ @ @ @ @ @ @ @ @ @ @ @ @ @ @ @ @ @ @ @ @ @ @ @ ",
"@ e @ @ @ @ @ # @ @ @ @ @ @ @ @ @ @ # @ @ @ @ @ @ @ @ @ @ @ @ @ $ ,.I.g.' N.K.} V.K.a.} 4.} m * @ @ @ @ @ @ @ @ @ @ @ @ @ @ @ @ @ @ @ @ @ @ @ @ x @ @ @ @ @ @ @ ",
"@ @ @ @ @ @ e # # # # x @ @ @ @ @ @ @ @ @ @ @ @ @ @ # # e # @ @ - T S.v.' V.v.} h.U.;.{ s.' n   @ @ @ @ @ @ @ @ @ @ # # @ @ @ @ @ @ @ @ @ @ @ @ # # @ @ @ @ @ @ ",
"@ @ @ @ @ @ # # # # # @ @ @ @ @ @ @ @ @ @ @ @ @ @ @ e @ @ # @ @ + % O.A.| V.K.} h.K. .{ 6.` n   @ @ @ @ @ @ @ @ @ # # 1 @ @ @ @ @ @ @ @ @ @ @ @ # # @ @ @ @ @ @ ",
"@ @ @ @ @ @ @ e @ @ @ @ @ @ @ @ @ @ @ @ @ @ @ @ @ @ @ @ @ @ @ @ O d /.1.s.[ c. .V.K. .' f.{ 8 * @ @ @ @ @ @ @ @ @ @ @ @ @ @ @ @ @ @ @ @ @ @ @ @ # @ @ @ @ @ @ @ ",
"@ @ @ @ @ @ @ @ @ @ @ @ @ @ @ @ @ @ @ @ @ @ @ @ @ @ @ @ @ @ @ @ @ j _.9.f.} k.a.L.L. .` 6.D & @ @ @ @ @ @ @ @ @ @ @ @ @ @ @ @ @ @ @ @ @ @ @ @ @ # @ @ @ @ @ @ @ ",
"@ @ @ @ @ @ @ @ @ @ @ @ @ @ @ @ @ @ @ @ @ @ @ @ @ @ @ @ X @ @ @ @ 3 #./.5.[ l.g.L.K. .[ d.D   # @ @ @ @ @ @ @ @ @ @ @ @ @ # @ @ @ @ @ @ @ x @ @ @ @ @ @ @ @ @ @ ",
"@ @ @ @ @ @ @ @ @ @ @ @ @ @ @ @ @ @ @ @ @ @ @ @ @ @ @ O + @ @ X X > V 2.1.5.V.d.J.g.} f.3.m   # @ @ @ @ @ @ @ @ @ @ @ @ e # @ @ @ @ @ @ # # @ @ @ @ @ @ @ @ @ @ ",
"@ @ @ @ @ @ @ @ @ @ @ @ @ @ @ @ @ @ @ @ @ @ @ @ @ @ @ X X X O @ @ < j N 6.I.9.4.l.a._ 3.) $ O , @ @ @ @ @ @ @ @ @ @ @ @ @ @ @ @ @ @ @ @ # @ @ @ @ @ @ @ @ @ @ @ ",
"@ @ @ @ @ @ @ @ @ @ @ @ @ @ @ @ @ @ @ @ @ @ @ @ @ @ O + w y @ @ @ @ 4 M e.V.&./.7.p.) | F $ # , @ @ @ @ @ @ @ @ @ @ @ @ @ @ @ @ @ @ @ @ # # @ @ @ @ @ @ @ @ @ @ ",
"@ @ @ @ @ @ @ @ @ @ @ @ @ @ @ @ @ @ @ @ @ @ @ @ @ O X + I E + + @ X & 9 6.Z.%.t.h.a.) { D $ @ X @ @ 3 + @ @ @ @ # @ @ @ @ @ @ @ @ @ @ @ @ @ @ @ @ e # # @ @ @ @ ",
"@ @ @ @ @ @ @ @ @ @ @ @ @ @ @ @ @ # @ @ @ @ @ @ @ @ X = E o.o + X @   9 e.Z.%.t.6.a.) _ F $ O @ e v j > @ @ @ @ @ @ @ @ @ @ @ @ @ @ @ @ # @ @ @ @ @ @ @ @ @ @ @ ",
"@ @ @ @ # @ # # @ @ @ @ @ @ @ @ @ e @ @ @ @ @ @ @ @ O @ z C 1 @ @ @   N U.s.%.0.f.a.) ) m & X @ ; &.R > @ @ @ @ @ @ @ @ @ @ @ @ @ @ @ @ @ @ # @ @ # @ @ @ @ @ @ ",
"@ @ @ @ # # # # x @ @ @ @ @ @ @ @ @ @ @ @ @ @ @ @ @ @ @ > 4 > O X X   M b.3.8.0.7. .) F D d @ 1 Y $.i + @ @ @ @ @ @ # e @ @ # @ @ @ @ @ @ @ # e @ # # e @ @ @ @ ",
"@ @ @ @ @ @ @ @ @ @ @ @ @ @ @ @ @ @ @ @ @ @ @ @ @ @ @ @ @ e w X X @   9 s.p.8.0.3. ._ ) K ^ = z '.T > @ @ @ @ @ @ + # @ X X + @ @ @ @ @ @ @ @ @ # # @ @ @ @ @ @ ",
"@ @ @ @ @ @ @ @ @ @ @ @ @ @ @ @ @ @ @ @ @ @ @ @ @ @ @ @ @ X t w @ , @ & F | 8.9.|  .) ) M t 3 #.t.t @ @ @ @ @ @ + + e r 1 X + @ @ @ @ @ @ @ @ @ e @ @ @ @ @ @ @ ",
"@ @ @ @ x @ @ @ @ @ @ @ @ @ @ @ @ @ @ @ @ @ X e @ @ @ @ X X g O.1 , - & F ` 9.9.} { ) F % > p t.Z @ O @ @ , @ @ + t U U = @ @ @ @ @ @ @ @ @ @ @ @ @ @ @ @ # @ @ ",
"@ @ @ @ # @ @ @ @ @ @ @ @ @ @ @ @ @ @ @ @ @ X X @ @ e @ + X w s 0 < q ! ` / 1X9.| { ) ) % . 5 a 1 X # O h V 1 + s %.$.f > ; , @ @ @ @ @ @ @ @ @ @ @ @ @ e # @ @ ",
"@ @ @ @ # # # @ @ @ @ @ @ @ @ @ @ @ X @ @ @ X X @ @ @ @ X @ e l c o R (.F / qXy.| { ..K % o > @ , @ + 3 T $.E a ~ H u 1 I T 3 @ @ @ @ @ @ @ @ @ @ @ e @ @ @ @ @ ",
"@ @ @ @ # # @ @ @ @ @ @ x @ @ @ @ @ X X @ @ + X X @ @ @ + + + h &.c I '.,./.*XH./ F t.2.0 O @ e u X 3 8 3 3 Z 0 b @.u 1 I T w @ @ @ @ @ @ @ @ @ @ @ # # @ @ @ @ ",
"@ @ @ @ @ @ @ @ @ @ # # # # @ @ @ @ @ X Y b b y O @ X @ + X w S `.#.a /.u.|.].K.y.0.aXB.+.3 > g W 1 > > : 3 = > w f ; @ + . @ @ @ @ @ @ @ @ @ @ @ @ @ @ @ @ @ @ ",
"@ @ @ @ @ @ @ @ @ @ @ # X # @ @ @ @ @ x #.*.<.E y @ @ + h b W u.`.3X$.y.B.Y.T.H.K.fXjX`.4.b 2 w u , X , ; 1 @ @ @ O @ @ @ @ @ @ @ @ @ @ @ @ @ @ @ @ @ @ @ @ # # ",
"@ @ @ @ @ @ @ x # X X # @ @ @ @ @ @ @ , 1 6 7 Z a + @ : c ^.aX2X X2X2XV.m.`.`.i.<X2X{.4XY.%.; @ @ O @ 1 1 X @ @ @ 1 t a p p w + # @ @ @ @ @ @ @ @ @ @ @ @ @ @ e ",
"@ @ @ @ @ @ @ @ # # @ @ @ @ @ @ @ @ @ @ @ @ X = 2 + @ > U 1XMXMXOX.X|.M.V.2X<X[.2Xy.G. X4X/.p g 3 + - p i d y , - a O.9.t./.Q , @ @ @ @ @ @ @ @ @ @ @ @ @ @ @ @ ",
"@ @ @ @ @ @ @ @ @ @ @ @ @ @ @ @ @ @ @ @ @ @ @ @ ; = @ , B y.&X4X4XY.`.N.7.[.dXfXC.`.M.XX6X[.$.9.B c j z T E f O 1 1 a s g k i , O @ @ @ @ @ @ @ @ @ @ @ @ @ @ @ ",
"@ @ @ @ @ @ @ @ @ @ @ @ @ @ @ @ @ @ @ @ @ @ @ X @ @ O 1 t T B.OXOXoXoXG.N.S.8XdXy.C. X*XT.B.`.`.u.o.h = 3 u , X X @ @ @ @ @ o @ X @ @ @ @ @ @ @ @ @ @ @ @ @ @ @ ",
"@ @ @ @ @ @ @ @ @ @ @ @ @ @ @ @ @ @ @ @ @ @ @ @ @ @ > h ^ G S.6XtX3XtX5XB.5.#XrX2XOX#X!.k.5.[.5Xi.s = > X @ # @ @ @ @ @ @ @ @ @ @ @ @ @ @ @ @ @ @ @ @ @ @ @ @ @ ",
"@ @ @ @ @ @ @ @ @ @ @ @ @ @ @ @ @ @ @ @ @ @ @ @ @ @ X 1 E /.0.+.r.W *.i.T.k.!.5XkX*X!.U.h.G.*XQ.H 0 4 2 1 ; 1 O @ @ @ @ @ @ @ @ @ @ @ @ @ @ @ @ @ @ @ @ e @ @ @ ",
"@ @ @ @ @ @ @ @ @ @ @ @ @ @ @ @ @ @ @ @ @ @ @ @ @ < 3 2 5 t p 4 t 1 t l O.j.b.E.-X@XD.:.O.o.O.S r + + = 3 3 3 @ @ @ @ @ @ @ @ @ @ @ @ @ @ @ @ @ @ @ @ # # @ @ @ ",
"@ @ @ @ @ @ @ @ @ @ @ @ @ @ @ @ @ @ @ @ @ @ @ + @ > ; 1 X @ @ @ @ @ + > 4 B A A ~ 2.A p - - ; 0 4 4 8 r , @ @ @ X @ @ @ @ @ @ @ @ @ @ @ @ @ @ @ @ @ e # # @ @ @ "
};
