/* XPM */
static char *close1672849495[] = {
/* columns rows colors chars-per-pixel */
"80 80 249 2 ",
"   c #3B3E06",
".  c #36291B",
"X  c #3A3717",
"o  c #2B192A",
"O  c #35192A",
"+  c #361736",
"@  c #311232",
"#  c #362727",
"$  c #3B3C36",
"%  c #363B3C",
"&  c #3D3D3D",
"*  c #393736",
"=  c #35322B",
"-  c #291A17",
";  c #473A17",
":  c #493817",
">  c #481B38",
",  c #571D39",
"<  c #4D1C2C",
"1  c #473626",
"2  c #59263A",
"3  c #423C3D",
"4  c #413A38",
"5  c #4B282D",
"6  c #652A37",
"7  c #793B36",
"8  c #3D4B0B",
"9  c #3E4508",
"0  c #3C4713",
"q  c #3E5209",
"w  c #3E413D",
"e  c #3D4137",
"r  c #3E412A",
"t  c #434C02",
"y  c #444D0B",
"u  c #45480C",
"i  c #44530C",
"p  c #4B530C",
"a  c #495707",
"s  c #555B09",
"d  c #454816",
"f  c #5B4A1B",
"g  c #4B5414",
"h  c #475218",
"j  c #555816",
"k  c #645319",
"l  c #5A6409",
"z  c #5C6514",
"x  c #5F7207",
"c  c #656A0A",
"v  c #6C730C",
"b  c #6D7B0B",
"n  c #697606",
"m  c #747C04",
"M  c #757C0C",
"N  c #797D0D",
"B  c #797B06",
"V  c #656A16",
"C  c #6C7515",
"Z  c #767D12",
"A  c #767B15",
"S  c #716E0C",
"D  c #474D28",
"F  c #4B5124",
"G  c #4A5228",
"H  c #555827",
"J  c #42433D",
"K  c #464A3A",
"L  c #4B4C3C",
"P  c #474737",
"I  c #4D5339",
"U  c #554E33",
"Y  c #794635",
"T  c #70482B",
"R  c #6C6E30",
"E  c #5B6439",
"W  c #3D3D42",
"Q  c #393846",
"!  c #521C45",
"~  c #491941",
"^  c #413D44",
"/  c #463545",
"(  c #562242",
")  c #3E4142",
"_  c #3D4751",
"`  c #307068",
"'  c #38615B",
"]  c #434343",
"[  c #464A44",
"{  c #4B4C45",
"}  c #4C4E4A",
"|  c #464547",
" . c #514E4B",
".. c #534C45",
"X. c #4E5144",
"o. c #4E514B",
"O. c #445647",
"+. c #525346",
"@. c #53544C",
"#. c #5A554A",
"$. c #56594C",
"%. c #5B5A4D",
"&. c #585A45",
"*. c #4B4D52",
"=. c #514E56",
"-. c #4E5251",
";. c #535352",
":. c #565952",
">. c #5B5B53",
",. c #5C5D5A",
"<. c #595458",
"1. c #635E54",
"2. c #645F59",
"3. c #685549",
"4. c #5C6257",
"5. c #556150",
"6. c #65644B",
"7. c #646355",
"8. c #696553",
"9. c #6B6A55",
"0. c #64645A",
"q. c #69655A",
"w. c #66695A",
"e. c #6B6A5C",
"r. c #666956",
"t. c #726E5D",
"y. c #756C57",
"u. c #6D705C",
"i. c #73725D",
"p. c #7A735D",
"a. c #7B775B",
"s. c #777849",
"d. c #557767",
"f. c #6C6C62",
"g. c #686762",
"h. c #716D62",
"j. c #766D68",
"k. c #6E7065",
"l. c #747363",
"z. c #7B7563",
"x. c #7C7A65",
"c. c #74746A",
"v. c #7C7C6C",
"b. c #787769",
"n. c #7D7D72",
"m. c #767C72",
"M. c #445A65",
"N. c #827F12",
"B. c #854936",
"V. c #827D6C",
"C. c #837B67",
"Z. c #837E72",
"A. c #806251",
"S. c #758004",
"D. c #75820D",
"F. c #7C840B",
"G. c #7C8704",
"H. c #7A8311",
"J. c #788214",
"K. c #6D810E",
"L. c #7F8420",
"P. c #209177",
"I. c #558F70",
"U. c #7D826C",
"Y. c #7F8172",
"T. c #7F8054",
"R. c #838403",
"E. c #888A08",
"W. c #938D0C",
"Q. c #8D9202",
"!. c #8D930A",
"~. c #93920B",
"^. c #999607",
"/. c #868714",
"(. c #938D14",
"). c #8C9313",
"_. c #999813",
"`. c #A29E09",
"'. c #A49E04",
"]. c #A29D13",
"[. c #98A10E",
"{. c #A5A109",
"}. c #AAA805",
"|. c #B4A909",
" X c #B8B506",
".X c #A9A413",
"XX c #B9AF15",
"oX c #B8B414",
"OX c #AFB204",
"+X c #C4BB02",
"@X c #CCBC05",
"#X c #C5BD0C",
"$X c #CABD0C",
"%X c #C5B509",
"&X c #D2BE09",
"*X c #CBBE11",
"=X c #C9BD17",
"-X c #CFBA14",
";X c #CCC304",
":X c #CCC30C",
">X c #C6C407",
",X c #D3C40C",
"<X c #D5C704",
"1X c #CBC211",
"2X c #CAC516",
"3X c #D3C413",
"4X c #D8C814",
"5X c #D9D413",
"6X c #83826D",
"7X c #8B856B",
"8X c #8D896C",
"9X c #888467",
"0X c #928B6E",
"qX c #838373",
"wX c #8A8573",
"eX c #8E8973",
"rX c #878879",
"tX c #928C74",
"yX c #928876",
"uX c #9A957A",
"iX c #8A986F",
"pX c #A19C7C",
"aX c #A19D77",
"sX c #A08F7F",
"dX c #A5A37D",
"fX c #A8A47F",
"gX c #8EA974",
"hX c #AACE76",
"jX c #158A86",
"kX c #318283",
"lX c #659A8A",
"zX c #55B092",
"xX c #65AE8F",
"cX c #43938A",
"vX c #75CA9A",
"bX c #66C9A3",
"nX c #55C59B",
"mX c #9B9783",
"MX c #A49D83",
"NX c #A69E84",
"BX c #A6A182",
"VX c #A9A485",
"CX c #AAA48A",
"ZX c #A9A687",
"AX c #ADA992",
"SX c #92C88B",
"DX c #A5DD93",
"FX c #C6F998",
"GX c #C5FAA1",
/* pixels */
"& & & & & & & & & & w & & & W & w & & & & & & & & & & & & & & & 4 J Q W ^ * =.;.;.} % & ) & & % & & & & & & & & & & & & & & & W & W & & & & & W & & & & & & & W ",
"& & & & & & & W & & & & & & & & & & & & & & & & & w & & & & & & % & % $ 4 L +.X.-.o.& & * 3 w & & & & & & & & & & & & & & & & & & & & & & & & & & & & & & & & & ",
"& & & & & & & & & & & & & & & & & & & & & & & W & & & W & & & & ^ 3 w & L :.gXSXxXd..._ ) * & 3 & & & & & & & & & & & & & & & & & & 3 & & & & & & & & & & & & & ",
"& & & & & & & & & & & & & & & & W 3 & & & & & & & & & 3 & & & & 3 4 $ W =.} DXGXbXI.>.[ & & 3 & W & & & & & & & & & & & & & & & w & & & & & & & & & & w & & & & ",
"& & & & & & & & & & & & & & & & & & & & & & & & & & & & & & & & e ) e Q =.] hXFXvXI.[ { 4 ] & w & & & & & & & & & & & & & & & & & & & & & & & & & & & & & & & & ",
"& & & & & & w 3 & & & & & & & & & & & & & & & & ) & & & & & & & Q ) w [ e.iXSXDXbXI.d.:.| % $ & & & & & & & W & & & & & & & & & & & & & & & & & & & & & & & & & ",
"W & & & & & W & & & & & & & W & & & & & & w & & & & & & & % & 3 W % K o.pXGXvXzXnXbXbXd. .& ] % ) & & & & & & & & W & & & & & W & & & & & & & & & & & & & w & W ",
"& & & & & & & & & W & w 3 & & & & & & & & & & & % & & & & * & ] @.[ :.) iXFXvXbXvXzXP.M.;.o. .o.J & & & & & & * & & & & & & & & W & & & & & & & W & & & & 3 & & ",
"& & & & & W & & w & & & & & & & $ 3 & & ] & & ] [ ] w & & [ J <.5.,.:.[ iXFXvXnXbXcXjXM.+.$.#.>.o.] | ) & ] [ ] & ) % ] & % 4 3 3 3 & & & & & & & & & & & & & W ",
"& & & w & & & & & & & & & & % % $ & & & * % 3 } } ;.@.% ;.-.{ c.pXNXeXL I.vXzXbXbXzXP.' @.v.V.n.>.} :.} w o.@.o.} w * & & 3 & & % % & & & & & & W & & & & & w & ",
"& & & 3 & & & & & & & & & 3 3 ] ] & ) ) & | { f.l.t.7.K l.l.9.9XaX0XmX7.d.lXxXxXzXcX` M.e.qX6XU.f.>.g.4.} 0.0.7.>.{ ] % % ] & & & ] & 3 & & & & & & & & & & & & ",
"& & & & & & & & & & & & & % & & % * & W & @.:.rXZXVXx.{ mXCXVX0Xz.C.m.7Xh.*.xXzXjX` +.k.n.v.Y.v.b.rXqXe.@.b.qXqXg.;.o.& & 3 % & & & & % & & & ) & & & & & & & & ",
"W & & & & & & & & & & & & & & ^ & & W W $ | L v.eXwXZ.h.0.q.yX6Xn.w.4.U.y.*.xXnXjX` ..v.n.>.u.wXqXv.>.7.f.v.U.6Xe.+.] $ & 3 & & 3 W & & & & & & & & & & & & & & ",
"& & & & & & & & & & & & & & & & J W & & J #.%.i.6Xx.v.qX7.+.b.6X6X$.$.U.9.O.lXzXkX` %.l.j...0.U.6Xl.L e.rXv.v.wXw.$.o.] & & & & & & & ] & & & & & & & & 3 & & & ",
"& & & & W & & & & & & & & & & % * $ % ] @.c.mXeX6XU.wXY.+.&.6XU.V.Z.z.X.0.n.4.O.' 0.b.1.1.V.n.V.Y.b.+.1.Y.qX6Xv.l.e.>.@.^ & & & & % & & & & & 3 & & & & & & & W ",
"& & & & & & & & & & & & W |  .@.} ;.;. .{ c.CX7Xb.f.c.n.w.4.e.b.V.qXl.-.g.Y.q.6.,.h.qX>.O.rXx.Z.k.e.7.k.n.l.e.x.i.w.$.;.} -.o.o.-.} ] 3 & % & & ) & & & & & & & ",
"& & & & & & & & W & & & J o.$.$. .+.%.+.L i.CX7Xk.+.0.qXqXn.{ 0.wX6Xz.#.1.rX6XqX6XqXqX%.#.n.qX6X@.@.rXY.U.:. .f.e.f.$.{ o.@.+.@.o.$.o.w & & & & & & & & & & & & ",
"W & & & & & & & ) & * | } 0.2.,.7.0.4.4.4.7.e.b.qXc.7.4.>.>.} 0.U.l.f.7.q.b.u.p.l.h.l.0.7.l.z.6X4.o.,.5.7.0.7.e.0.+.6.4.4.w.4.0.0.0.:.} { & & & & & & & & & & w ",
"w & & & & & & W $ 3 | @.%.7.e.b.f.c.e.k.k.7.} f.b.qXe.+.#.+.} w.v.e.0.0.0.w.7.7.7.7.0.e.0.7.e.6X>.{ @.o.X.w.e.r.>.$.e.k.i.k.f.f.f.h.e.;.} 3 * 3 & & & & & & & & ",
"& & & & & & & & $ ] <.c.BX9XC.b.z.v.x.6Xv.h.0.1.%.n.qXx.qXc.{ >.k.%.@.@.$.+.;.@.$.$.@.$.@.+.4.f.;.%.n.qXv.u.9.} z.mXwXx.x.z.6Xv.C.v.t.w.:.;.] % & & & & & & & & ",
"& & & & & & & & W |  .h.CX8XtXtXyX7X0X0X8XeXqX#.&.v.qXv.b.l.{ >.4.$.{ } } } ;.} }  .} } { } ,.0.=.@.z.x.qXu.e.} y.AXtX8XtXeXtX0X8X0X7X6X%.$.] W & & & & & & & & ",
"& & & & & & 3 & W ] { p.CXBXBXMXVXBXNXMXVXNXMXt.@.n.v.wXk.q.+. .;.| & W 3 & W & & W W W & & {  .;.$.e.l.6Xi.0.} a.NXNXVXBXCXNXMXNXVXBXmX7.} W W & & & & & & & & ",
"& & & & & & w & =.>.7X7Xz.C.x.x.z.x.z.C.x.C.l.7.>.0.0.l.%.$.} | } ] & & & % % & & & & & & % ] } [ } :.7.u.7.7.wX7Xz.C.x.z.x.x.V.x.x.a.x.9.4.} [ & & & & & & & W ",
"& & & & W & & & ;.%.BX8X1.g.h.9.e.q.e.e.q.t.e.t.g.{ >.e.;.+.W & * & 3 % & 3 & & & & & & & & % & $ ) =.>.f...%.BXwX9.e.8.t.q.q.q.q.t.k.e.e.7.@.} & & & & & & & & ",
"& W w & & W J W ;.%.NX7X8.v.U.6X6X6X6XwXx.8XCXa.0.X.;.,.} & & W & & & & & W & & & & & & & & & & & 3 & =.,.{ %.BXwX8.v.6X6X6X6X6XqXx.8XBXi.7.@.-.& & & & & W & & ",
"& & & & & & & & } %.NX0Xr.b.n.w.e.k.e.k.U.tXCXp.r.o.} } J $ & & & & & & & & & & & & & & & & & & & & & | -.$.%.NXwX9.b.U.e.e.l.w.f.U.uXNXp.0.o.} & & & w & & & & ",
"& & & & & & J & $.&.uX7X8.U.m.X.{ } { :.l.tXMXC.0.@.} W & & & & & & & & & & & & & & & & & & & & w % & % & } %.CXwX9.v.b.{ { } } <.b.yXMXl.r.o.X.& & & & & & & & ",
"& & & & & & W & o.>.AXeX8.v.v.i.h.c.f.l.v.tXMXz.7.@.} * & & J & & & & & & & & & W & & & & & W w W & ^ | W  .>.NXeX6.v.b.h.l.h.c.l.6XtXNXx.7.X.} & % & & 3 & & & ",
"& & & & & & w & { >.mXV.i.C.x.7X6X7X7X7X7XtXNXz.7.;.} % W & & & W & & & & & & & & & & & & & & & & W * W w } 7.mXV.z.6X6XwXeX9X6X7X9X0XpXz.0.+. .% & & & & & & & ",
"& & & & W & & ^ 3 J %.z.pXNXBXBXBXpXNXNXpXMXNXC.0.:.} & & & $ & & & & & & & & W & & & & & & & & & ] & & W W J +.z.NXmXNXpXuXNXBXBXpXpXCXz.q.;. .& & & & & & & & ",
"W & & & & & & & & ] [ w.yX7XyXwXeX8XeXeXeXeXeXt.>.o.| & & & & & & & & & & & & & & & & & & & & & & & % * & & ] ..e.mX7XyXeXtXeX8X7XyX8XeX0.,.} | & & & & & w & & ",
"J & & & & & & & & ] o.>.q.8.q.e.q.q.q.q.q.8.7.@.X.w $ & & 3 & & & & & & & & & & & & & & & & & & w & 3 3 ] % ]  .#.q.9.8.9.8.7.e.q.e.7.q.$.o.$ % & & & & & & W & ",
"& & & & & & & & % | +.9.uXz.g.$.0.n.1.%.uXC.f.$.o.& & W & & & $ & & & & W & & & & & & & & & & & w & & & & & J O.h.0Xz.0.+.2.$.;.2.tX7Xq.@.@.) w & & & & & & & & ",
"& & & & & & & & $ ] } l.VXz.8.} g.v.>.%.BXyX0.%.} & & & & J & & & & & & & & & & & & & & & & & & & & & & & & ] o.i.VXz.0.%. .+.} 7.pX8Xf.>.} 3 % & & & & & & & & ",
"& & & W & 3 & & & ]  .a.VXz.0.+.o.@.c.rXdX7Xe.$.o.& & & & & & 3 & 3 w & & & & & & w & & W & & & w & & & & & ] } V.VXa.e.v.qXn.%.#.BX7Xq.;.} ) & & & & & & & & & ",
"& & & & & & & & $ ] } t.NXz.q.+.@.L q.v.pX7Xq.$.X.3 & & & & & & & & & & & & & & & & & & & & & & & & & & & & ] } j.aXp.e.qXv.e.7.e.BX7Xq.%.} W & & & & & & & & & ",
"& & & & & & & W & ] } i.CXx.2.X.o.} L #.uX8X7.$.} & & & & & & $ W & & & & & W w & & & & W & & & & & & & & & ] O.z.VXC.e.6X7.P l.eXBX7Xe.;.o.W J & & & & & & & W ",
"& & W & & & & & $ ] } z.VXz.h.h.k.c.k.v.VX8Xh.%.o.& & & & & & 3 & & & & & & & & & & & W & & & & & & & & & & ] } z.fXt.q.rXv.e.n.rXpX9Xq.$.o.W & & & & & & w & & ",
"& w & & & & & & % | } i.VXp.l.b.n.Z.m.V.VX7X7.@.} w & & & & & & & & & & & & & & & & & & & & & w w & & & & & ] } j.fXz.e.l.n.qXc.v.BX8Xe.%.} W & & & & 3 & & & & ",
"& & & & & & & & $ | } i.ZXp.1.$.} L  .1.pXyXq.%.o.& & & & & & & & & & & & & & & & & & & & & & & $ & & & & & ] O.l.dXz.0.+.X.X.o.1.dX9Xq.$.} J $ & & & & & & & & ",
"& & & & & & & & % J  .h.VXC.1.7.0.0.+.>.NX7Xh.+.} & & & & & & 3 & & & & W & & & & & & & & & 3 & w & & & & & ] { l.BXC.7.+.;.7.$.%.ZX8X7.#.} ] % & & & & & & & & ",
"& & W & & & & 3 & J -.h.dXa.h.qXY.qX%.%.uX7X8.4.} w & w & & & $ & & & & & & & & & & & & & & & & & & & & % w ] o.z.NXV.7.[ g.yXo.%.uX8Xy.>.} & & & & & & & & & w ",
"& & & & & & & & & ^ } l.BXp.q.>.u.U.l.b.NXeXq.%.} & & 3 & & $ & & & & & & & & & J W & & & & & & w & & & & & ] o.l.fXz.7.o.:.%.c.qXpX8Xq.@.o.& w & & & & & W & & ",
"& & & & & & & w & ] } l.VXp.0.{ 4.b.n.Z.BX0Xq.@.} w & & & & & & & & w 3 & & & & & & & & & W & & & % & & & & ] { l.VXp.q.:.:.L k.Z.BX9Xq.;.@.W & & & & & & & & 3 ",
"& & & & & W & & & ] } t.VXz.g.+. .@.@.#.uXtXq.%.} & & w & & & & W & & & & & & & & & & & W & & & w & & & & & w } z.VXa.e.m.n.rX>.7.dX7Xq.>.o.& $ & & & & & & & & ",
"& & W & & & & & & w } l.ZXz.0.7.,.{ ,.e.CX8Xq.&.} & & & & & & $ & & & & & & & & & & & & & & & & & $ & & & & ] O.l.BXz.e.k.g.i.-.%.VX7Xq.$.{ ] & W & & & & & & & ",
"& & & & & & & & % 3  .l.VXp.f.qXg.+.z.rXpX9Xe.>.} 3 & & & & & & & & & & W & & & & & & & & & & & & & & w & & ] } i.NXC.7.[ o.L { 1.pX9Xq.;.@.) & & & w & & W & & ",
"w & & & & & & & & ] o.y.dXC.f.U.n.u.v.6XpXyX0.>.{ & & & & & & 4 & & & & & w & & & & & & & & & & w & & & & & ] } a.VXi.w.c.c.i.c.b.BX8Xe.;.o.W & & & & & & & & & ",
"& & & & & & & & w )  .i.BXa.t.b.b.6Xn.V.NX9Xe.%.} 3 & w & & & & & & W & & & & & & & & & & & & & & & & & & & J } l.dXp.q.wXv.v.n.Z.pX7Xq.%.o.& & & & & & & & & & ",
"& & & & & & & & w W } i.CXz.7.@.+.K l.rXpX7X7.@.} & & & & & & & & & & & & & & & & & W & & & & & 3 & & w & & ] } j.dXC.e.rXe.L } q.pX7Xq.$.o.& 3 & & & & & & & & ",
"& W & & & W & & $ ] } t.VXz.7...$.0.0.l.BX7Xh.%.} & & & % & & 4 & & & & & & & W w & & & & & & W & & & & & & ] } z.fXp.e.w.0.q.+.#.BX7X0.$.} ) & & & & & & w & W ",
"& & & & & & & & $ ] } l.NXz.g.+.0.rX,.#.pX7Xq.$.X.& & w & & & $ & w & & & & & & & & & & & & & & & & & & & & J } b.pXz.q.X.4.qX%.7.dX7Xq.$.o.W % & & & W & & & & ",
"& & & & & & & & & | } i.VXz.7.{ ;.>.+.%.dXuXq.$.} & & & & & & & & & & & w & & & & & & & & & & & J & & & & & ]  .z.aXV.7.{ :.4.f.v.pX7Xq.$.o.] & & & & & & & & & ",
"& & & w W & & & $ ] | t.CXz.q.>.$.+.@.q.uX7Xq.@.o.3 & w & & & & & & & & 3 & & & & & & & & w & & 3 % & w & & J } b.fXz.1.%.@.+.l.yXpX9Xe.;.o.W 3 & & W & & & & & ",
"& & & & & & & & $ ] } i.ZXp.t.v.Y.qXc.Z.VX9Xh.$.} w & & & & & & & & & & & & & & & & & & 3 & & & & & & & % & J } j.fXi.l.Y.Y.rXZ.wXBX9Xf.:.} & % & & & & & & & & ",
"& & & 3 & & & & & |  .i.CXi.q.qXb.e.v.wXdX7Xq.%.{ & & & & & & & & W & & & & & & & W & & & & & & 3 & & & & & ] } l.fXz.q.k.e.e.e.l.fX9Xq.:.} ] & & & & & & & & & ",
"& & W & W & & & Q | *.u.fXx.q.qXg.L c.qXdXyX7.:.} & W W & & & & & & & & & & & & & w & & & & & & & & & & & & J } p.CXa.6...-.} { %.VXV.9.:.I W Q & & & & & & & & ",
"& & & & & & 3 & & w } k.fXa.e.U.v.c.$.e.VXC.e.@...& & & & & & & & & w 3 & W & & & & & & & & W & & W & & * % [ o.z.NXp.q.@.-.@.7.x.VXyX8.;.@.W ^ & & & & & & & & ",
"& & & & w & & $ e e [ z.VXp.h.v.U.U.:.$.NX7Xq.%.o.& & & $ & & W & & & & & & & & & W & & & & & & & & & J 3 % ] [ a.CXz.q. .O.$.i.9XdXwX8.,.-.* J & & W & & & & & ",
"W & J & & & & $ & ] o.k.CXC.g.X.o.L } 7.BX8Xq.>.} ] W & J w & & & & & & & & & & & & & & & & & & W & $ & & W [ o.p.CXj.7.} f.qXG H BXrX0.;.;.W r & & & & & & & & ",
"& & $ 3 W W W & Q | *.l.BXp.2.q.4.4.X.I T.a.c.;.} ^ W & & & & & & & & & & & & & & & & & & & & & W & & & W W ] K 9.ZXa.e.0.7.R z z s.a.w.;.-.W & & & 3 w & & & & ",
"& & w & W W & J & J | z.BXp.b.C.rXwXH 9 9 G 9.%.{ J & & & & $ & & & & & & & & W & & & & & & & & & & & & & w r d s.VXa.8.rX6.  L.D.t H f.&...& W & & & & & & & W ",
"& & & & W w P D D G +.l.fXuX7XH G j C c g h h G D D P $ & ^ & & W & & & & & & & & & & & & & & & & $ & & ] P j C V H a.x.F z C B m 9 E k.G H G ] & & W & & & & & ",
"W & & & W J D h a h G i.uXuX8Xg p p D.G.9 h a y i h D P J | W & & & & w & & & & & & W & & & & & W & W W ] G l F.c p 9.a.y n ).E.Z t I g.j t i D & & & & & & & & ",
"e J & $ J h l E.F.C d 0 a d g b ^.:XW.M 9 g S.E.m 9 d h g d ) W & & & & W & & & W & W W W W W ^ ^ 3 & J h C F.m m H.g a m {.+X_.m D u 9 C A 8 D ^ W % & & & & & ",
"& & ] & e P H c F.F.l z l s c !.|.>X_.F.B (.}.b l V l z s l P | & % & $ $ % $ & & & $ $ $ % & $ & W W D p v E.`.'.`.V c ].XX4XB z l s c F.D.y K W $ J * ^ & $ J ",
"W Q W 4 % W I t v R.R.F.R./.).2X<X<XE./.:X<X:XV d G.E.H.G.J.p F & & 3 & 3 & & & & & & 3 & & & & w & & D g v ^.>X&X,XW.~.,X@X2Xl g F./.R.E.N t P & $ 3 W ^ w $ % ",
"& & & $ & Q K 8 v E.XX XoXG.R.:X=X@X+XXX:X|.(.'.[.j c N l j J ^ & W W W W W Q & Q % W & & & W W & $ $ W J H l ).|.:X XOX;X|.~.A M OXOX X/.S.S.j D & Q ^ = % ) J ",
"& e $ & ) & G s M ~.$X;X1X^.^.@X:X#X&X3X;X}./.@X Xf S Q.z F K J L K K K K K K K P P K J K K K K | L L | { F a F.{.>X3X3X:X{.R.E.^.*X4X&X_.G.H.A a I } ] w Q W $ ",
"& 3 & W ] D z M XX1X<X+X*X2X#X;X$X;X*X;X1X:X#X:X2X1X>X2X!.N S.A D.J.Z Z D.A D.Z Z Z Z Z Z Z J.A F.D.N N Z N Q.=X;X;X@X$X<X>X:X*X$X$X@X@X1X XG.m J.A C u D ^ & 3 ",
"& W W J D z B {.+X;X@X$X*X:X@X:X,X+X4X;X@X&X;X>X@X2X+X:X{.'.{..X`.`.`.`.`.`.{.`.`.`.'.`.`.'.`.{._._.`.].'.'.}.$X@X$X,X-X-X-X3X@X3X$X1X2X+X+X`..X`.'.^.R.V L ) $ ",
"$ W ) F a F.{.<X@X*X:X:X,X@X3X*X-X;X;X#X3X*X$X*X;X-X<X@X3X:X3X;X3X,X,X,X,X,X,X,X,X,X,X,X,X,X,X,X<X<X;X,X:X>X,X$X,X:X>X;X&X:X+X1X@X,X;X,X&X3X<X#X;X3X<X5XE.h } % ",
"* { D z F.OXoX:X3X@X).{.4X<X*XQ.Q.^.^.Q.2X,X#X:X:X@X;X:X,X#X~.Q.~.~.W.!.}.,X;X X~.~.~.Q.~.(.~.!.~.^.$X@X>X{.Q.!.).~.Q._.<X&X>X,X*XQ.~.(.Q.[.>X@X;X`.Q._./.b j U ",
"| F p b _.%X;X$X#X Xm ^.<X XXXJ.B n N.E. X+X*X<X@X-X#X X#XOXm C b m S.b ~.#X$X%XG.N C b S.v N G.F.E.$X1XoXW.M Z M m S.E.XX-X+X3XOXM D.R.B W.=X*X#X/.B M N F.j h ",
"d l G.G.E.-X3X:X_.R.J..X<X~.B Q.v 0 C E.F.}.<X#X;X4XOXR.~.B p h p u y u V Q.+X%XG.V 9 q i h V G.H.(.<X}.R.F.D.t i a b /.R.'.<X:XOXd z E.N.(.<X}.E.N.M t l E.j h ",
"0 s !.V S *X%X}.E.b n A W.Q.m U g q l v H.F.E.>X$X|./.z c c 1 : k 1 1 f H l ^..Xb k f f f : f n c b OX^.M n x 8 d = l C S.Q.XX>XXX9 z E.V k ).F.l F.M d s v D L ",
"8 l G.h s >X}.m R.b t 9 d b A @ . g 0 p E.z 0 {.#XR.x 8 0 ; > 6 Y ( 6 Y T 8 C M q : B.B.7 ! 2 u 9 p N J.H.s 8 h . @ X a /./.D.oX Xu x E.. - t d t M A i 8 F L Q ",
"i p l h a v c g Z S.# X d X ; O . O 0 i j p 8 f f g a q X 5 7 Y B.2 , 6 2 5 g s # 1 B.6 6 ! 2 4 0 g s s s g 9 . # > d a g c G.k : g X 1 # o O = i g p a X # 4 % ",
"F h t 9   1 0 0 V v O 5 h # @ O o o ; i 0 u d o o g d ; - > T 3.Y 2 ~ ! > < 1 0 + 2 Y 6 ! 5 < ! d u ; 0 i 0 ; @ < ( : 9 d j D.5 + g # @ @ O O 1 y 0 0 9 # * | & ",
"Q I h # o o X g # O , > o ! < + + O X i i X @ o # t : @ o O O > ! , 2 ! > O O o - > , 7 B.B.6 , d d o . a # + ! ! > + # p X O > > o > 2 O o @ X p i 0 # / ] & 3 "
};
