/* XPM */
static char *cbc06b4e8f334c3ec41540ac4a94a54c0XK4kvFBHLIiR0Qk[] = {
/* columns rows colors chars-per-pixel */
"80 80 212 2 ",
"   c #172434",
".  c #192734",
"X  c #1C2934",
"o  c #1F2C38",
"O  c #262D2F",
"+  c #2A2E2E",
"@  c #2E302C",
"#  c #3E3827",
"$  c #34332B",
"%  c #3C3728",
"&  c #222C34",
"*  c #2B2F31",
"=  c #222E3B",
"-  c #233034",
";  c #2C3A34",
":  c #25323D",
">  c #293438",
",  c #363932",
"<  c #433925",
"1  c #4B3D22",
"2  c #463C2C",
"3  c #503F20",
"4  c #374535",
"5  c #3D4C34",
"6  c #55421E",
"7  c #5C451C",
"8  c #664A1E",
"9  c #674A1E",
"0  c #714F1F",
"q  c #4E402E",
"w  c #5B4625",
"e  c #5E4822",
"r  c #53422D",
"t  c #4F4936",
"y  c #475637",
"u  c #505E3A",
"i  c #674C28",
"p  c #654B2C",
"a  c #714F20",
"s  c #68502D",
"d  c #795426",
"f  c #75532A",
"g  c #685635",
"h  c #715D3C",
"j  c #536436",
"k  c #586737",
"l  c #5C6B3B",
"z  c #74623F",
"x  c #657638",
"c  c #6E7D3D",
"v  c #2B3742",
"b  c #2D3944",
"n  c #323D47",
"m  c #39444C",
"M  c #3A4852",
"N  c #43494D",
"B  c #545447",
"V  c #414C53",
"C  c #4A555A",
"Z  c #565A5D",
"A  c #665B42",
"S  c #576451",
"D  c #75684B",
"F  c #71684E",
"G  c #6B6857",
"H  c #766E59",
"J  c #4A5862",
"K  c #535C61",
"L  c #5B6568",
"P  c #5C6C79",
"I  c #5E707D",
"U  c #676B6A",
"Y  c #777465",
"T  c #646E71",
"R  c #6C7677",
"E  c #787A75",
"W  c #757E7E",
"Q  c #855922",
"!  c #895C27",
"~  c #925E22",
"^  c #8E602A",
"/  c #996426",
"(  c #92612A",
")  c #A66A27",
"_  c #A66B28",
"`  c #AC6E29",
"'  c #B16F28",
"]  c #B37027",
"[  c #B3712A",
"{  c #BC762C",
"}  c #A66F34",
"|  c #A87337",
" . c #B37A3A",
".. c #C67D2F",
"X. c #95774C",
"o. c #867352",
"O. c #8A7D6B",
"+. c #6F8237",
"@. c #71813D",
"#. c #778A39",
"$. c #7A8B3B",
"%. c #7E913A",
"&. c #7B817D",
"*. c #81943A",
"=. c #87993E",
"-. c #8A9D3D",
";. c #BB803D",
":. c #8EA03E",
">. c #92A73E",
",. c #95AA3D",
"<. c #99AF3D",
"1. c #9BB03D",
"2. c #A0B73E",
"3. c #A3BA3F",
"4. c #CB8336",
"5. c #D48533",
"6. c #D98A37",
"7. c #E58F37",
"8. c #E69037",
"9. c #EC9337",
"0. c #ED9439",
"q. c #A6BC40",
"w. c #91836D",
"e. c #888577",
"r. c #968B79",
"t. c #AE8E69",
"y. c #AE946C",
"u. c #B49B6C",
"i. c #C18B4D",
"p. c #D3954B",
"a. c #ED9C43",
"s. c #EDA44E",
"d. c #EDAA57",
"f. c #C79A65",
"g. c #D3AB6B",
"h. c #C2AA76",
"j. c #D9B677",
"k. c #EDB568",
"l. c #ADC441",
"z. c #B4CB42",
"x. c #B6CD43",
"c. c #B9D144",
"v. c #757F80",
"b. c #768080",
"n. c #7B8483",
"m. c #7E898A",
"M. c #7E919C",
"N. c #828683",
"B. c #868A87",
"V. c #8A8D8A",
"C. c #908E89",
"Z. c #8B918E",
"A. c #94938D",
"S. c #99958C",
"D. c #8A9494",
"F. c #979995",
"G. c #9D9A93",
"H. c #A79B8C",
"J. c #A49E94",
"K. c #A99F93",
"L. c #9DA39E",
"P. c #AAA196",
"I. c #AEA499",
"U. c #AAA89F",
"Y. c #B2A89B",
"T. c #BDB19A",
"R. c #8D9CA4",
"E. c #96A4A8",
"W. c #92A6B1",
"Q. c #A6AAA6",
"!. c #B6ADA4",
"~. c #B6B3AA",
"^. c #ADB5B4",
"/. c #B6B9B7",
"(. c #C4B9A5",
"). c #DFC19B",
"_. c #EAC88F",
"`. c #EED396",
"'. c #C8C2B4",
"]. c #E4CCAA",
"[. c #EFDBA4",
"{. c #F0DCA4",
"}. c #F0DFAA",
"|. c #F0E0AB",
" X c #A8BBC4",
".X c #B7BFC1",
"XX c #ACC1CC",
"oX c #B8C5CA",
"OX c #ACC4D2",
"+X c #B7CCD6",
"@X c #BBD1DD",
"#X c #BDD5E2",
"$X c #BFD8E7",
"%X c #CACBC4",
"&X c #D8D6CD",
"*X c #CCD4D3",
"=X c #E5DECF",
"-X c #E1DDD3",
";X c #DFE1DA",
":X c #F4E4CB",
">X c #E7E3D9",
",X c #EAE7DC",
"<X c #F3ECDD",
"1X c #C1D9E6",
"2X c #C9DCE5",
"3X c #D7E3E6",
"4X c #E7ECE8",
"5X c #F3EDE1",
"6X c #F5F4EB",
"7X c #F9F4E9",
"8X c #FEFAEE",
"9X c #FFFDF1",
/* pixels */
"c.c.c.c.c.c.c.c.c.c.c.c.c.c.c.c.c.c.z.z.x.z.z.x.c.c.c.c.c.c.c.c.c.c.c.c.c.c.c.c.c.c.c.c.c.c.c.c.c.c.c.c.c.c.c.c.c.x.x.x.z.x.x.c.c.c.c.c.c.c.c.c.c.c.c.c.c.c.c.c.",
"c.c.c.c.c.c.c.c.c.c.c.c.c.c.c.c.x.z.x j j j +.z.c.c.c.c.c.c.c.c.c.c.c.c.c.c.c.c.c.c.c.c.c.c.c.c.c.c.c.c.c.c.c.c.c.<.j j j j >.c.c.c.x.c.c.c.c.c.c.c.c.c.c.c.c.c.",
"c.c.c.c.c.c.c.c.c.c.c.c.c.c.c.c.c.l.5   .   y z.x.x.c.c.c.c.c.c.c.c.c.c.c.x.c.c.c.c.c.c.c.c.c.c.c.c.c.c.c.c.c.c.c.=.X .   X %.c.x.c.c.c.c.c.c.c.c.c.c.x.c.c.c.x.",
"c.c.c.c.c.c.c.c.c.c.x.c.c.z.q.l.l.2.5 o : = y 3.l.l.l.z.c.c.c.c.c.c.c.c.c.c.c.c.c.c.c.c.c.c.c.c.c.c.c.c.x.l.l.3.l.%.> = : - #.l.l.l.l.x.c.c.c.c.c.c.c.c.c.c.c.c.",
"c.c.c.c.c.x.c.c.c.c.c.c.c.#.5 5 5 5 L T T T L 5 5 5 5 %.c.c.c.c.c.c.c.x.c.c.c.c.c.c.c.c.c.c.c.c.c.c.c.c.q.j 5 5 5 M T P T L B 5 5 5 y q.c.c.c.c.c.c.c.c.c.c.c.c.",
"c.c.c.c.c.c.c.c.c.c.c.c.c.x     . o T &.v.n.L .     . +.c.c.c.c.c.c.c.c.c.c.c.c.c.c.c.c.c.c.c.c.c.c.c.c.3.4   .   m &.b.&.W M   .   4 1.c.c.c.c.c.c.c.c.c.c.c.c.",
"c.c.c.c.c.c.c.c.c.c.x.1.<.k . o v n T b.v.b.T n v o . x 1.1.<.<.1.1.<.<.<.<.1.1.<.<.<.<.<.<.<.<.<.<.<.<.-.; X : 4 M R b.b.&.C b ; . 4 *.1.x.c.c.c.c.c.c.c.c.c.c.",
"c.c.c.c.c.c.c.c.c.c.z.y ; - . b R R v.v.b.b.v.R T v . - ; ; ; ; ; ; ; ; ; ; ; ; ; ; ; ; ; ; > , ; ; ; ; ; & X C R R b.b.b.b.&.R C .   - 4 =.c.c.c.c.c.c.c.c.c.c.",
"c.c.c.c.c.c.c.c.c.c.l.5       m E v.v.v.v.v.v.v.v.v .     . .         . X . . . . . . . & . . = . . .     . . Z n.b.&.&.b.b.b.b.L X .   . %.c.c.c.c.c.x.c.c.c.c.",
"c.c.c.c.c.c.c.c.l.-.%.s q % @ m N.V.L.Q.Z.v.v.Z.b.t @ < q q q q q q q q 2 r q q 2 r q 2 2 2 2 2 q q q r q $ $ U B.D.R.D.n.b.m.B.U @ $ q q x %.<.c.c.c.c.c.c.c.c.",
"c.c.c.c.c.c.c.c.>.- - ^ ] d 7 g K.!.-X6X^.v.N.K.J.g 7 ! ` ` ` ` ` ` ` ` ` ` ` ` ` ` [ ` ` ` ` ' ` ` ` ` ) i 7 O.U.^.@XoXm.&.A.U.w.7 i _ ` r X k x.c.c.c.c.c.c.c.",
"c.c.c.c.c.c.c.c.>.- O ( ] Q 7 z K.!.,X8X~.v.B.K.H.g 7 ! ] [ ] ] ] [ [ [ [ [ [ [ [ [ [ [ [ [ [ [ ] ] ] ] ) 8 7 O.P.^.1X+XM.&.A.I.w.7 8 _ ] r   j x.c.c.c.c.c.c.c.",
"c.c.c.c.c.c.c.c.>.- & r i q % B ^..X/./.U.C.F..X^.B % 1 i p p p s p i p p p p p p p p p p p p p p p p p w 2 % n.oX^.W.E.Z.Z.Q.oXZ.$ # w p $   j x.c.c.c.c.c.c.c.",
"c.c.c.c.c.c.c.c.>.- . X X X   C @X@XD.v.C.I.^.@XOXM . . X X . X X   X . . . . . . . . X . X . . . . . . . . o M.1X Xn.n.P.I.oX1XR.o . X . X   j z.c.c.c.c.c.c.c.",
"c.c.c.c.c.c.c.c.>.- . X & X . C @X@XD.n.F.I./.1X+XM X & - & X O - X & & & & & & = & & & & & & & & & & & o o : D.1X^.m.N.P.Y.oX1XR.X X & & .   j x.c.c.c.c.c.c.c.",
"c.c.c.c.c.c.c.c.>.- X s Q e # G ;X4X&X%X&X=X-X4X;XX.! ( } } } | } } } } } } } } } } } } } } } } | } } } } ! d T.4X3X%X&X&X=X,X4XU.q q f d 2   j z.c.c.c.c.c.c.c.",
"c.c.c.c.c.c.c.c.>.- & ( { Q 7 o.<X7X8X8X8X8X8X8X<Xi.] 5.0.0.0.0.0.0.0.0.0.0.0.0.0.0.0.0.0.0.0.0.0.0.0.0.8.{ [ ).8X8X8X8X8X8X8X8X(.7 9 ` ] r   j x.c.c.c.c.c.c.c.",
"c.c.c.c.c.c.c.c.>.- & ( ] Q 6 o.<X7X7X7X6X6X6X8X:Xi.] 6.a.a.a.0.a.a.a.0.0.0.0.0.0.0.0.0.0.0.0.0.0.0.0.0.8.{ [ ).8X7X6X6X6X7X7X8X(.8 9 _ [ r . j x.c.c.c.c.c.x.c.",
"c.c.c.c.c.c.c.c.>.& O ( ] Q 7 o.7X7X3X2X2X2X3X7X<Xi.] g.`.`.`.`.`.`.`.`.k.a.0.0.0.0.0.0.0.0.0.0.0.0.0.0.8.{ ` ).8X4X2X2X2X2X4X8X(.7 9 ) [ q   j x.c.c.c.c.c.c.c.",
"c.c.c.c.c.c.c.c.,.& & ( [ Q 7 o.<X8X2X@X#X1X2X8X<Xi.] g.|.|.|.{.{.{.|.|._.a.0.0.0.0.0.0.0.0.0.0.0.0.0.0.8.{ [ ).8X4X1X#X#X$X4X8X(.7 9 ) [ q   j x.c.c.c.c.c.c.c.",
"c.c.c.c.c.c.c.c.>.- & ( ] Q 6 o.5X4X3X2X+XXX*X6X<Xi.] g.}.}.|.|.|.|.{.|._.s.s.s.s.a.0.0.0.0.0.0.0.0.0.9.7.{ ] ).6X4X2X2XoXOX3X8X(.7 9 ) [ r   j x.c.c.c.c.c.c.c.",
"c.c.c.c.c.c.c.c.>.- & ( ] Q 6 D @X2X4X6X/.n.E.6X<Xi.] g.|.}.}.|.|.|.|.|.|.{.`.{.`.k.0.9.0.0.0.0.0.0.0.9.7.{ ` T.$X3X6X,XD.m.%X8X(.i 9 ) ` r   j x.c.c.c.c.c.c.c.",
"c.c.c.c.c.c.c.c.>.& O ( ] Q 7 D +X1X6X8X^.W L.7X<Xi.` h.|.|.|.|.|.|.|.|.|.|.|.|.|.k.9.0.0.0.0.0.0.0.0.0.7.{ [ T.#X2X9X4XZ.&.%X8X(.7 8 ` ] r   j c.c.c.c.c.c.c.c.",
"c.c.c.c.c.c.1.=.x & & d / 0 6 D +X1X*X'.Q.N.U.4X3X;.^ ;.h.h.j.j.j.j.j.k.j.j.j.j.j.p.5.5.6.5.5.5...{ {  .[ / ( Y.$X*X%X'.D.Z.%X4X!.e e f d , . 5 %.*.z.c.c.c.c.c.",
"c.c.c.c.c.c.x X X X X 6 7 7 7 D @X@XD.b.A.P.^.#X+XD 7 8 7 d [ [ [ { ] [ [ [ [ [ ] [ [ [ [ ] ] [ Q 7 7 7 7 8 7 F.$X Xn.n.J.I.oX1XL.7 w O X X . . X 4 3.c.c.c.c.c.",
"c.c.c.c.c.c.+.. X . . 6 7 8 7 D +X@XM.&.A.I.~.#XoXA 7 7 7 0 ` ] [ [ [ ] [ [ [ [ ] ] [ [ [ [ ] [ Q 7 7 7 7 7 7 S.$X Xb.n.P.I.oX$XL.8 6 X   X o X   4 1.c.c.c.c.c.",
"c.c.c.x.#.x S C V X X a Q 0 7 D ^./.F.A.J.P.!./.^.} Q X.y.u.g.g.g.g.p.5.4.[ ` ^ d ) ] { 5.5.5.4.{ | ` ` _ ^ ! H./.Q.A.F.P.I.~./.S.7 7 s i , X > C C x x 1.c.c.c.",
"c.c.c.l.5   C b.T X - ^ ] Q 7 h P.Y.P.P.I.P.P.I.H. .] g.|.}.}.|.|.|.k.9.6.[ ` 8 7 ~ ] ;.8.0.9.9.0.9.0.9.8.{ [ t.U.P.I.I.I.I.P.I.w.7 9 _ ] r   M &.R > X *.c.c.c.",
"c.c.c.l.y   C m.T X O ( [ Q 7 g K.P.I.I.I.I.P.I.K. .' g.`.[.[.[.{.}.d.8.6.{ | a i ^ [ 4.8.8.0.0.0.0.0.0.8.{ [ t.I.I.I.I.I.I.P.I.w.e 9 ) ` r . M n.R ; X *.c.c.c.",
"c.c.c.l.5   b.&XQ.: & ( [ Q 7 h P.I.Y.P.Y.P.I.I.P. .' p.d.d.d.d.d.d.6...p.].].'.'.(.~.h.4.4.8.0.0.0.0.0.8.{ [ t.I.I.Y.I.I.I.I.I.w.7 9 ) ] r   L *X/.m X =.c.c.c.",
"c.c.c.l.5   Z.9X%X: & ( [ Q 7 h K.I.I.P.I.Y.I.Y.K. .] 5.0.9.9.9.0.0.4.] f.7X8X8X8X3X$X~.` ] 8.0.0.9.0.0.8.{ [ t.I.I.I.I.I.I.I.Y.w.7 9 ) [ r . R 7X-Xm . *.c.c.c.",
"c.c.c.l.y   V.7X/.: & ( [ ! 7 h K.I.P.K.J.J.J.J.H. .] 5.8.8.8.7.5.4.4.;.f.&X-X>X-X+XOXU.;.;.4.5.6.7.7.8.6.{ [ t.I.P.J.J.P.J.P.I.w.7 9 ) ` r   T ,X&Xm . *.c.c.c.",
"c.c.c.z.t . U ~.C.= & ( ] Q 7 h P.I.B.n.n.n.n.b.N.| [ [ { { { ` t q H.:X!.C M V N M n T .X^.B , ^ { { { { [ [ t.!.J.N.N.N.N.F.I.w.i 8 ) ] 1   Z !.J.b & *.c.c.c.",
"c.c.c.l.5 . U Y.e.= & ( ] Q 6 h H.P.m.&.b.b.b.W E | [ [ [ [ [ _ ;   E.9X/.&   .       J #XOXm . f [ [ [ [ [ ` t.K.S.v.v.v.v.S.I.w.7 8 ) [ r . C I.S.v . *.c.c.c.",
"c.c.c.l.5   L J.N.= O ( ] Q 7 h P.P.n.&.b.b.b.b.E | [ [ [ _ ^ ! % + F.6X~.; + + + + + L @XOXV + p ( / ' [ [ ` t.J.A.v.v.v.v.F.I.w.7 i _ [ r X C J.B.> & %.c.c.c.",
"c.c.c.z.5   J n.U & & / ] Q 7 h P.P.m.b.b.b.W &.&.| [ [ [ ! * O 1 6 A.2XQ.e 6 6 7 6 6 H @XOXA 6 % = 2 ' [ [ ` X.v.v.v.v.v.v.S.I.w.7 8 _ [ 2   M v.R v & %.c.c.c.",
"c.c.c.l.t   C b.L v . ( [ Q 7 h H.K.n.W &.&.b.&.E | [ [ [ ! & & 6 7 A.1XE.i 7 7 6 7 7 H #X.Xh 6 $ . 2 [ [ [ [ O.v.W v.v.v.v.F.I.w.p 8 ) [ r . M W R v   %.c.c.c.",
"c.c.c.z.c k u K C . . p d w < B P.U.E.E.E G U &.E h d d f w X = u A A.oXQ.A A A A A A Y .X^.H A , . , f f f f H v.n.V.N.H G C.!.O.< < a f % . n Z Z k k <.c.c.c.",
"c.c.c.x.z.c.x . . . . . & .   N J.I.oX#Xe.7 g W W b = X X X . : T v.A.I.F.&.&.W v.v.v.B.P.J.N.v.V . . . & & & K v.V.P.H.i 8 O.I.E = . X . . X . . , q.x.c.c.c.c.",
"c.c.c.c.c.c.c . & . & . . .   N K.Y.+X#Xe.6 g W R b . X X X . : T v.A.P.F.b.b.&.v.v.v.V.I.J.N.v.V   . & . . . K W B.K.H.s 8 O.I.E X X X . o . X . ; q.c.c.c.c.c.",
"c.c.c.c.c.c.,.#.l X O w f r # u P.P.e.e.Y G G &.&.t $ w f r X : W S.E Z U S.S.S.A.A.S.N.K U B.S.C . , s i < % G b.E H o.F G r.I.e.# < i f ,   4 @.%.l.c.c.c.c.c.",
"c.c.c.c.c.x.c.c.>.- O ^ [ ! 7 h K.K.s 7 F &.b.&.R s 7 Q [ ! X v C.I.Z   N K.I.I.I.I.U.O.o v C.I.Z X 2 ` ` 9 w G b.G 7 e R &.A.I.w.e 8 ) ] r . j c.c.c.x.c.c.c.c.",
"c.c.c.c.c.c.c.c.>.- O ! ` Q 7 h P.H.h i G &.b.b.E p 7 Q [ Q X : S.!.U = C I.!.Y.Y.Y.!.N.b n C.!.K . 2 ` _ 9 7 G n.Y e p E b.F.Y.w.7 8 ) ` 2 . j c.c.c.c.c.c.c.c.",
"c.c.c.c.c.c.c.c.>.& X i 0 8 7 h K.P.r.r.S.G.F.F.S.g 7 8 0 e X b (.-X%X(.%X=X-X-X-X-X-X&X(..XoXoXT . $ a a 8 e o.J.S.r.r.S.G.P.I.w.7 7 0 0 % . j z.c.c.c.c.c.x.c.",
"c.c.c.c.c.c.c.c.>.- X 1 6 7 7 h K.P.P.Y.I.P.Y.I.H.f 7 7 7 < X b *X9X8X8X8X8X8X8X8X8X8X8X8X6X2X#XP   + 6 7 7 7 O.Y.Y.I.I.I.I.I.I.w.7 7 7 6 @   k c.c.c.c.c.c.c.c.",
"c.c.c.c.c.c.z.3.=., $ w 8 8 6 h I.!.!.!.T.!.!.!.Y.h 7 8 9 6 X b '.4X,X,X-X4X,X,X,X,X,X,X4X;X@XOXP   $ 9 8 8 7 w.!.!.!.!.!.!.!.!.r.7 7 8 8 2 @ k 1.q.x.c.c.c.c.c.",
"c.c.c.c.c.c.#.; t ( / ) ) Q 7 D +X*X4X,X<X5X<X5X=Xz 7 Q _ Q X : v.D.Z.V.D.Z.Z.Z.D.Z.Z.V.Z.Z.B.m.C . 2 ) / 8 7 Y.5X5X<X5X5X5X*X@XL.7 8 / ) / / d ; y q.c.c.c.c.c.",
"c.c.c.c.c.c.x   % ` [ ] ] Q 6 F @X$X6X8X8X8X8X8X<XD 7 ! [ ! & = T v.v.v.v.v.v.v.v.v.v.v.v.v.v.v.V   2 ' ' 8 7 T.9X8X8X8X8X8X3X1XL.7 8 [ [ [ [ d . 4 3.c.c.c.c.c.",
"c.c.c.c.c.c.x   , ` ] ) / d 7 D  XXX&X&X&X&X&X&X%Xz 6 d / f & : P &.b.b.b.b.b.T L R b.b.b.b.b.W M . 2 ( ~ i 7 H.&X&X&X&X&X&X+XXXZ.7 8 ~ / _ [ f . , q.c.c.c.c.c.",
"c.c.c.c.c.c.+.  # ` ` 0 7 7 7 p b.n.n.n.m.m.n.m.&.g 7 7 8 1   & T b.b.b.b.b.R b o K b.b.b.b.b.v.V . + 8 8 7 7 G N.N.n.n.m.n.n.n.Y 7 7 8 8 / [ ! & ; q.c.c.c.c.c.",
"c.c.c.c.c.c.x   , ' ' 0 7 7 7 g E b.W W W W W b.R p 7 7 7 1 X = T &.b.b.b.b.R v . K b.v.b.b.b.W V . @ 7 3 7 7 G v.v.v.v.W W b.b.U 7 7 6 7 ~ [ d o ; q.c.c.c.c.c.",
"c.c.c.c.c.c.+.  , s f 2 # # % t B.V.E.E.E.E.F.Z.B.t < < < $ X : P &.b.b.b.b.R v X J b.&.b.b.b.W V   & < < < < Y C.F.E.E.E.E.F.Z.Y < < < # w f r . ; q.c.c.c.c.c.",
"c.c.c.c.c.c.+.  X X X X X . . N K.I.+X#X#X#X+XI.H.m   X X X . : T &.&.b.b.b.R v   K &.b.b.v.b.W V . X X . X & U I.^.#X#X#X#X^.P.E & X X . X X X . ; 3.c.c.c.c.c.",
"c.c.c.c.c.c.x X X X X X . . . m K.I.+X@X#X#XoXI.S.m   X X . X : T &.b.b.b.b.R b . K b.b.b.v.b.v.V . . X . . . R I.^.@X#X#X#X^.I.E X X . . X X X . 4 3.c.c.c.c.c.",
"c.c.c.c.c.c.<.#.$.$.@.; . X X : Z Z P P P I L Z C > X X . . . : &.A.n.b.b.b.n.F.E.B.&.v.W b.A.A.C   X X X . X N Z K T I I P L Z V X X . X k *.$.#.*.z.c.c.c.c.c.",
"c.c.c.c.c.x.c.c.c.c.l.5 . X X X       .   .     &   X   . . . : C.U.Z.b.b.b.B.>X8X^.W W v.n.J.I.Z X X   . . . .   &           . . . X . X %.c.c.c.c.c.c.c.c.c.c.",
"c.c.c.c.c.c.c.c.c.c.l.5 . . . X X X X X & & X & X . . X X X X : r.P.C.&.b.&.B.-X7X^.n.n.n.m.J.P.Z . X X X . X X & & & . & . & . X . . . X *.c.c.c.c.c.c.c.c.c.c.",
"c.c.c.c.c.c.c.c.c.c.z.5 . . . O 1 1 1 1 1 1 1 1 1 O . $ 3 % X : R B.A.G.J.G.P.~.~./.XXXX X XD.n.V . + 1 < O . $ 1 1 1 1 1 1 1 3 % X . . X %.c.c.c.c.c.c.c.c.c.c.",
"c.c.c.c.c.c.c.c.c.c.l.5 . X . @ w 7 7 7 7 7 7 7 6 O . < 7 1 . = T b.A.U.I.Y.U.P.P.oX#X$X1X@XD.v.V X + 7 6 O . < 7 7 7 7 7 7 7 7 < & . . X %.c.c.c.x.c.c.c.c.c.c.",
"c.c.c.c.c.c.c.c.c.c.l.5 . . . * 7 7 7 7 7 7 7 7 6 O . # 7 1 O * L R B.P.K.P.I.U.!.oX#X@X+X Xv.T m O % 6 6 O . % 7 7 7 7 7 7 7 7 < X . . X *.c.c.c.c.c.c.c.c.c.c.",
"c.c.c.c.c.c.c.c.c.c.l.5 . X . * 7 7 7 7 7 7 7 7 6 O X < 7 7 6 1 > v K m.V.P.I.+X@X@X#XXXm.v.m : < w 6 7 6 O . < 6 8 7 7 7 7 7 7 < X X . = %.c.c.c.c.c.c.c.c.c.c.",
"c.x.c.c.c.c.c.x.c.c.z.5 . . . @ 6 7 7 7 7 7 7 7 6 O . % 7 7 7 6 O X J v.V.I.!.+X$X$X1X Xn.R v . < 7 7 7 6 O . < 7 7 7 7 7 7 7 7 < . . o = %.c.c.c.c.c.c.c.c.c.c.",
"c.c.c.c.c.c.x.x.x.3.1.5 . . . * 7 7 7 7 7 7 7 7 6 O . % 7 7 7 6 $ + V L T O.e.R.W.W.W.M.P L , + < 7 7 7 6 O . < 7 7 7 7 7 7 7 7 2 . .   o @.q.l.c.c.c.c.c.c.c.c.",
"c.c.c.c.c.c.c.x.l.#.D ; . X . + 7 7 7 7 7 7 7 8 6 & . < 7 7 8 7 7 6 , o o o . v o o : & X X 3 7 7 7 7 7 6 & . < 7 7 7 7 7 7 7 8 # o .   o u @.=.x.c.c.c.c.c.c.c.",
"c.c.c.c.c.c.x.c.q.@.@.4     . + 6 7 7 7 7 7 7 7 6 - . # 7 7 7 7 7 7 $ . . . X   X X X X   X 6 7 7 7 7 7 6 O X # 7 7 7 7 7 7 7 7 q . . . X u c -.c.c.c.c.c.c.c.c.",
"c.c.c.c.c.c.l.1.%.@.@.:     X + 7 7 7 7 7 7 7 7 6 + . # 7 7 7 7 7 7 1 $ $ $ $ % $ $ $ $ $ % 6 7 7 7 7 7 6 - X < 7 7 7 7 7 7 7 7 < X . X X j c %.,.2.x.c.c.c.c.c.",
"c.c.c.c.c.c.>.@.@.@.x 4   . . - 7 7 7 7 7 7 7 7 6 * . # 7 7 7 7 7 7 7 7 7 7 7 7 7 7 7 7 7 7 7 7 7 7 7 7 6 O   < 7 7 7 7 7 7 7 7 < X . . o u @.c @.@.z.c.c.c.c.c.",
"c.c.c.c.c.x.>.@.@.@.x v o . . > 6 7 7 7 7 6 e 7 6 + . % 7 7 7 7 7 7 7 e 7 7 7 7 7 7 7 7 7 7 7 w 7 7 7 7 6 O X # 7 7 7 7 e 7 7 7 < X X . . u @.@.@.@.l.c.c.c.c.c.",
"c.c.c.c.c.c.>.@.@.@.+.u u 4   o $ $ $ @ $ $ $ $ $ & X - $ $ $ $ $ $ $ @ $ @ @ ; $ $ @ $ $ $ $ $ $ $ $ $ @ X X O @ $ $ $ $ ; @ ; -   - m u x D +.@.$.z.c.c.c.c.c.",
"c.c.c.c.c.c.,.F @.@.@.@.@.5     . . . . . . . . . . . X . X . o . . . . . . .     X . . . . . . . . . . . . X . X X . . . . .   X   4 x @.@.+.@.@.$.l.c.c.c.c.c.",
"c.c.c.c.c.c.,.+.F @.@.@.@.y = X - o - X - o - X X & - X o X X - - X o X - - o o - - X - - X - X o o - X X - X - - X X - - - o o X - 4 l F @.@.@.@.@.l.c.c.c.c.c.",
"c.c.c.c.c.c.>.+.@.@.@.@.@.x l j l l l l l l l l l l l l l l l l l l l l l l l S l l l l l l l l l l l l l l l l l l l l l j l l l l l +.+.@.@.@.@.@.l.c.c.c.c.c.",
"c.c.c.c.c.c.>.@.@.@.@.@.@.@.@.@.@.@.@.@.@.@.@.@.@.@.+.+.@.@.@.@.@.@.@.@.@.@.@.@.@.@.x @.@.@.@.@.@.@.@.@.@.@.@.@.@.@.@.@.@.@.G @.+.@.@.@.@.@.@.@.c $.z.c.c.c.c.c.",
"c.c.c.c.c.c.<.$.@.@.F @.@.@.@.@.@.+.G @.@.@.@.@.@.@.F @.@.@.@.@.@.@.@.@.@.@.c @.@.@.@.@.G @.@.@.@.@.@.@.@.@.x @.@.@.@.c @.c @.@.@.@.D @.@.@.c @.@.%.l.c.c.c.c.c.",
"c.c.c.c.c.c.x.l.2.@.+.@.@.@.@.@.@.@.@.@.@.@.@.@.D @.@.@.@.@.@.@.@.@.@.@.@.@.@.c @.c @.@.@.@.@.@.@.@.D +.@.@.@.@.+.G c @.@.@.@.@.@.@.+.+.@.@.@.%.l.z.c.c.c.c.c.c.",
"c.c.c.c.c.c.c.c.3.@.@.@.+.G @.@.@.+.@.x @.@.G @.+.+.@.@.x @.x @.G @.@.@.c c c c c c @.+.@.@.@.@.F @.@.+.@.@.@.@.@.c c c @.@.@.@.F @.@.+.@.@.@.-.c.c.c.c.c.c.c.c.",
"c.c.c.c.c.c.c.c.l.%.%.-.%.-.%.-.%.%.%.:.%.=.=.=.-.%.=.%.%.%.-.=.%.=.=.%.=.%.=.%.%.%.=.=.%.=.=.%.%.%.%.-.%.>.%.-.%.%.%.-.%.:.%.-.%.%.%.%.>.%.%.1.c.c.c.c.c.c.c.c.",
"c.c.c.c.c.c.c.c.c.c.c.c.c.c.x.c.x.x.c.c.x.c.c.c.c.c.c.x.c.c.c.c.c.c.c.c.c.c.c.c.x.x.c.c.c.x.c.c.c.c.c.c.x.c.x.x.c.c.c.c.c.c.x.x.c.c.c.c.c.c.c.c.c.c.c.c.c.c.c.c.",
"c.c.c.c.c.c.c.x.c.c.c.c.c.c.c.c.c.c.c.c.c.c.c.c.c.c.c.c.c.c.c.c.c.c.c.c.c.c.c.c.c.c.c.c.c.c.c.c.c.c.c.c.c.c.c.c.c.c.c.c.c.c.c.c.c.c.c.c.c.c.c.c.c.c.c.c.c.c.c.c.",
"c.c.c.c.c.c.c.c.c.c.c.c.c.c.c.c.c.c.c.c.c.c.c.c.c.c.c.c.c.c.c.c.c.c.c.c.c.c.c.c.c.c.c.c.c.c.c.c.c.c.c.c.c.c.c.c.c.c.c.c.c.c.c.c.c.c.c.c.c.c.c.c.c.c.c.c.c.c.x.c."
};
