/* XPM */
static char *C1672845619[] = {
/* columns rows colors chars-per-pixel */
"80 80 256 2 ",
"   c #3B361C",
".  c #282D1D",
"X  c #0B1C2B",
"o  c #081D34",
"O  c #131D2F",
"+  c #0B232B",
"@  c #13242C",
"#  c #19292C",
"$  c #0C2434",
"%  c #0D2339",
"&  c #092739",
"*  c #132534",
"=  c #1A2533",
"-  c #142A34",
";  c #1B2A33",
":  c #12253B",
">  c #1B263B",
",  c #142B3B",
"<  c #1B2B3B",
"1  c #1A3138",
"2  c #183132",
"3  c #262C2A",
"4  c #2A342B",
"5  c #33322C",
"6  c #393828",
"7  c #242B36",
"8  c #253434",
"9  c #293434",
"0  c #293738",
"q  c #3B3C35",
"w  c #343C3B",
"e  c #3D3D3C",
"r  c #353B36",
"t  c #342F2C",
"y  c #271F36",
"u  c #543C0B",
"i  c #5B3C09",
"p  c #4C3D1B",
"a  c #44391A",
"s  c #573D16",
"d  c #4A3609",
"f  c #643C0C",
"g  c #4D3E2A",
"h  c #473A24",
"j  c #563E28",
"k  c #413D3C",
"l  c #463D37",
"z  c #583C31",
"x  c #3D4236",
"c  c #3D423B",
"v  c #364437",
"b  c #384731",
"n  c #5C440E",
"m  c #5A430A",
"M  c #4D401A",
"N  c #5D4413",
"B  c #584418",
"V  c #63440D",
"C  c #6A460C",
"Z  c #624414",
"A  c #644913",
"S  c #6A4A1D",
"D  c #674618",
"F  c #754916",
"G  c #745014",
"H  c #564426",
"J  c #414A34",
"K  c #42433C",
"L  c #454738",
"P  c #505132",
"I  c #674924",
"U  c #775628",
"Y  c #745A34",
"T  c #6B552F",
"R  c #5A6B2E",
"E  c #5A6F36",
"W  c #586737",
"Q  c #597135",
"!  c #546B31",
"~  c #6A7E2E",
"^  c #64772B",
"/  c #616F32",
"(  c #637134",
")  c #697E32",
"_  c #687938",
"`  c #716F34",
"'  c #0B2842",
"]  c #162842",
"[  c #1D3242",
"{  c #273846",
"}  c #3D3C42",
"|  c #393A45",
" . c #2A354B",
".. c #111E40",
"X. c #413E43",
"o. c #3B4645",
"O. c #384755",
"+. c #344B50",
"@. c #384C65",
"#. c #414242",
"$. c #444946",
"%. c #475758",
"&. c #4F5456",
"*. c #4E6256",
"=. c #766649",
"-. c #696955",
";. c #6E704E",
":. c #4B5A65",
">. c #565964",
",. c #566669",
"<. c #5A6B77",
"1. c #546C74",
"2. c #6D7C7C",
"3. c #677676",
"4. c #727E7C",
"5. c #777A77",
"6. c #6A706B",
"7. c #635D42",
"8. c #975908",
"9. c #895617",
"0. c #965914",
"q. c #885310",
"w. c #A75E0D",
"e. c #9A6313",
"r. c #9C620A",
"t. c #AA660B",
"y. c #BD6C0B",
"u. c #B96905",
"i. c #B56E1C",
"p. c #B96B14",
"a. c #B97114",
"s. c #B06A0F",
"d. c #865726",
"f. c #AE6F25",
"g. c #8D6A35",
"h. c #C46C0B",
"j. c #C66A05",
"k. c #C5720A",
"l. c #CA720B",
"z. c #C97304",
"x. c #D67606",
"c. c #C97514",
"v. c #CB6E0F",
"b. c #C37626",
"n. c #D66C00",
"m. c #877250",
"M. c #907D6A",
"N. c #6C822C",
"B. c #6D8234",
"V. c #6D8339",
"C. c #708334",
"Z. c #728438",
"A. c #72862C",
"S. c #6C827B",
"D. c #74817C",
"F. c #7A837B",
"G. c #7D866B",
"H. c #FE8B03",
"J. c #FD8D0B",
"K. c #F78A08",
"L. c #FD920C",
"P. c #FE9304",
"I. c #E88512",
"U. c #FA8D12",
"Y. c #FC9213",
"T. c #F99217",
"R. c #E98206",
"E. c #CF892D",
"W. c #F29727",
"Q. c #F9A739",
"!. c #DF8310",
"~. c #B48E53",
"^. c #988669",
"/. c #85867A",
"(. c #938673",
"). c #AD9169",
"_. c #A4936B",
"`. c #F2AE50",
"'. c #D9B169",
"]. c #E6B56C",
"[. c #D3A156",
"{. c #FCCB79",
"}. c #6B7C83",
"|. c #737E82",
" X c #767C84",
".X c #636782",
"XX c #5B6F82",
"oX c #6E8284",
"OX c #6C868B",
"+X c #748383",
"@X c #7A8484",
"#X c #79878A",
"$X c #7A8B92",
"%X c #798D8F",
"&X c #7592A4",
"*X c #878B87",
"=X c #89928B",
"-X c #97968A",
";X c #899595",
":X c #989995",
">X c #8E8D8C",
",X c #A59889",
"<X c #A59D93",
"1X c #B29C8F",
"2X c #9AA39A",
"3X c #ACA394",
"4X c #ACA49A",
"5X c #A8A59A",
"6X c #B3A394",
"7X c #B3A59B",
"8X c #B7A999",
"9X c #ADA288",
"0X c #889CAA",
"qX c #93A7AD",
"wX c #AAA8A4",
"eX c #B6AAA3",
"rX c #B5B4A8",
"tX c #B5BAB6",
"yX c #AAB4B4",
"uX c #C9B495",
"iX c #C6B8A5",
"pX c #D0B6A5",
"aX c #B9C4BC",
"sX c #F0D392",
"dX c #CCC5B8",
"fX c #F3DDA4",
"gX c #EBDAA7",
"hX c #F6E5A8",
"jX c #F3E7B1",
"kX c #F8E79E",
"lX c #ADBEC5",
"zX c #9EB9C5",
"xX c #ABC3C9",
"cX c #B8C6C7",
"vX c #BBD2DA",
"bX c #B2CDD7",
"nX c #B7DAE8",
"mX c #B2D9EE",
"MX c #BCE4F6",
"NX c #BCE0EC",
"BX c #C5D5D8",
"VX c #DBDBD4",
"CX c #CFD0CB",
"ZX c #E7DECD",
"AX c #EAE7DA",
"SX c #F6EAD8",
"DX c #C5DCE5",
"FX c #CBE4ED",
"GX c #E8EBE5",
"HX c #FDFDEC",
"JX c #FBF7E7",
"KX c #FDFEF3",
"LX c #F9FCF8",
"PX c #EDF0EA",
"IX c #DCE3D7",
"UX c #C0BDC6",
/* pixels */
"e e e e e e e e e e e c e e X.e e q c K e #.c v } o.w X.} X.#.e } } e } } e } } } } } e } } e } X.X.X.| X.q e e q w x K K x x w } e X.} } } } } e e e } e e e e ",
"e e e e e e } c } e e e e e k e k K c b b v #.K e e l e q q e x e e e e e e e e e e e e e e e e q q q e e e e e #.L r v v v L X.q e k e K k q q e e e e c } e e ",
"e e e e e k e e e k } } e e q q e | 8 @ = @ 0 e } q X.e } } w | e e c e e c c e e e e e e K e c e } e X.e X.X.} X.e ; * * = c } o.} e e e e e e } c e e e e e e ",
"e e e } e } e e q e K } o.#.c o.J o.w - ] < w L K c K e #.X.} } q e q e e e q e q e q e q e q e } e k e q x c c K J 8 , - 8 J L c c q K K e e } e e e e k e e e ",
"e k e e e e e e k e e q q e 0 r 4 b ,.1.3.3.*.4 0 v 9 c q q q l } } } } e } } } } } } } } } } } X.e e e c x r v 4 o.6.<.<.6.o.0 9 4 x c e q } X.e e e } e c e } ",
"c } e e k e e e #.e c c } w # @ : * 6.#X|.$X<.$ o * * o.e e c K e e e e e e e e e e e e e e e e e e c c o.8 + $ & O.+X#X$X#XO.- ; @ 0 o.q e e k k e e e e e e e ",
"e e e e } e e e e q K c o.v # 1  .{ 3.F.2.+X<.0 +.= # v o.x J x J J x J J J J J J J J J J J J J K x J J $.0 @ { { +.2.5.F.S.O.{ { + 9 o.c L x q e e e e e e e e ",
"e e e } e e c } | e c q 4 2 &  .2.2.S.+X2.D.5.S.XX0 @ 7 0 8 0 0 9 7 9 9 9 9 9 7 9 9 7 9 9 7 9 9 8 9 9 9 8 ; - :.4.S.+X|.+X+XS.oX:.; ; 8 5 o.} } } e e e k } e e ",
"e e e e e c } e e l #.1 & > %  .S.+X}.3.5.D.+XD.2.0 & ' % & $ % % : % % % % % % $ : % % : % % % % o + o & , * %.F.+X2.3.F.S.S.@X,.* > ] & q l q c e e e K e e e ",
"c } e e e e e e x b v H M 6 . $.>X*X2XwX;X}.D.*X*Xl 3 6 H g g z g g g g g g g g g g g g g g g g L H j H g 5 3 6.=X%X0X0X+XS.#X;X6.. 4 g M J o.J e e e e e e e e ",
"e k e e e e e e #.{ # w.x.9.m U 7X5XAXKXtX3.%X8X<XU f 8.z.u.h.y.h.h.j.h.h.j.h.h.h.h.h.h.h.h.h.j.p.u.j.j.s.F m M.eXyXDXbX$X5.:XeXM.s A i.z.H , q q k e e e e e e ",
"} e e e e } e e e , # w.x.0.m T 3X8XAXKXyX6.*X4X7XI n e.z.l.l.z.z.h.z.l.k.z.l.k.k.z.l.z.k.k.k.z.x.z.v.l.p.F u ^.6XrXDXbX$X5.-X8X^.Z C u.x.j & 0 K e e e X.e e e ",
"e e e e e e } e x ; 8 H S s 5 7.tXlXtXtX4X(.:XcXtXL   H I I S S S S I S S S I S S S I S S S S I S S S S I h   /.aXzXqXqX:X>XwXcX=X    S U 5 $ b c q e e e e e e ",
"e e e e e e e e $.= > ' ' = + @.nXnX;X3.-X7XyXnXvXO.$ & ] & % $ % : : % , & : % : : : ] : : , : , ' % - $ # $ &XMXzXOX X<XwXxXMX0X& @ ' % @ * 0 e e e e e e e e ",
"k e e } c e e e q 2 ] , * - o @.mXvX*X5.-XwXyXnXmXO.+ = ; - ; > - - : - - $ - - - - - - = * * , * < > - 7 = * &XMXzX5.M.<X4XcXMX0X+ & : = < , v K e e e e e e e ",
"e e e e } e e c c 3 = F 0.I   7.PXGXCXCXCXZXAXGXAXg.F f.s.f.i.a.i.i.i.i.i.i.i.i.i.i.i.i.i.i.i.i.i.p.f.i.i.d.G uXPXAXCXCXVXZXAXLX8X  j q.0.q + w K k e e e e e e ",
"} e e e e k e e x < < w.x.0.u g.JXLXHXHXHXHXHXJXJXE.h.x.Y.Y.P.Y.L.L.P.P.H.P.J.L.P.Y.L.L.P.Y.L.Y.H.L.L.P.Y.l.j.uXHXJXKXHXJXKXJXKXpXm C z.x.j % r c e q e e e } e ",
"o.e e e e e } e c 1 - 8.z.0.d g.JXLXJXHXPXPXJXJXJXE.u.x.T.Y.L.L.L.Y.Y.T.T.Y.J.K.Y.L.J.P.L.P.J.J.J.L.K.P.K.h.j.sXKXJXJXJXJXPXHXKXiXB S s.p.H & b e e q e e e } e ",
"k e e e e e e } c 1 ] w.l.q.u m.JXJXDXBXBXNXFXKXJXb.j.[.sXsXsXsXsXsXsXsX].Y.H.H.J.J.J.K.J.J.H.J.U.U.U.L.U.v.n.uXKXPXDXDXDXDXPXLXuXu D u.k.g X r X.e q e l e e k ",
"e e e e } } } } c < > w.l.0.m =.JXHXBXmXnXnXDXJXJXb.u.'.hXhXhXkXkXkXhXjX{.L.H.H.H.H.L.T.U.Y.L.Y.J.L.J.L.J.j.j.sXLXGXbXmXmXmXGXHXpXn C u.z.j * r #.} e } o.} e e ",
"e e e } e } e e J ; = e.z.9.u g.PXPXFXDXvXxXvXJXSX!.j.'.hXfXfXhXfXfXsXhX{.T.Q.Q.Q.Y.H.J.Y.Y.J.J.P.L.L.L.U.y.j.uXLXGXDXDXbXzXGXKXrXm C p.y.H & v K e e } } e e e ",
"e e K e e e e e x 2 , w.l.0.u ` nXDXPXHXrX2.qXJXLXE.u.'.hXfXsXkXfXfXgXgXhXkXkXgXfX`.H.H.Y.U.J.H.H.J.U.J.J.k.u.uXmXIXHXAX=X3.CXLXiXm C y.v.H $ 0 e q q e e X.e e ",
"e e e e e e e c x 1 ] 8.k.9.u Y mXnXPXHXrX<.;XLXJXE.u.'.hXhXjXjXjXjXkXjXjXkXhXhXjX`.H.J.U.J.Y.Y.P.L.Y.Y.L.c.u.uXmXDXLXJX=X<.cXLXpXi D p.h.g * v K K c e } } e } ",
"e e e e e k K L c , , 8.t.q.M =.nXnXCXdXyX#X2XJXFXf.8.~.'.[.'.'.].].'.].].'.'.].].W.R.I.!.K.R.!.c.c.c.v.k.e.8.3XNXvXBXdX-X$XdXLX8XN B q.8.q $ 4 L K K e e e e c ",
"} q } | e J r < < # , H Z S m =.nXDX#X3.-X8XrXDXbXT M D N G j.j.z.u.j.u.y.u.j.u.u.y.j.j.a.h.y.h.G s B B Z Z s :XMXzX2. X<X3XcXMX2XV B = @ ] : - 1 4 x q k } | q ",
"q q X.e #.c 4 @ - @ - s f C u Y nXvX;X2.-X4XyXnXvXY i Z m G h.y.u.u.y.a.z.k.y.h.h.j.k.a.y.j.z.k.q.N m m f f s :XFXzX2. X5X7XcXnX2Xi M ] $ - = : - # $.c q } } l ",
"#.q X.#.#.w o.:.O.2 , G 0.G n Y lXtX:X*X:X1XeXtXyXg.8.~.).~.`.[.'.[.W.!.x.k.y.r.8.t.a.a.x.R.R.x.k.a.s.t.i.8.8._.cXwX-X-X7X7XrXcX-Xi N S U 6 :  .%.%.$.o.K e } k ",
"q q } e 4 @ %.;X3., < w.c.9.u T 1X7X4X4X8X6X6X5X6Xc.u.[.jXjXjXhXkXhX`.P.I.h.y.C M 8.k.!.Y.T.J.T.P.Y.L.L.Y.x.j.~.wX7XeXeX7X1X1XwX^.N F j.x.B o +.$XD.# @ c e | q ",
"} e } c w @ %.+X3.$ ; w.z.9.u Y 4X4X4X4X4X4X7X4X6Xb.j.[.hXkXsXfXfXhX`.x.I.i.s.G B 8.a.!.H.P.H.U.H.U.L.J.U.v.h.~.7X3X4X5X<X6X6XwX^.n S s.h.j o +.@X3.8 ; v c } o.",
"e k e x 8 X +XGXwX< @ w.z.0.m Y 7X1X7X6X3X7X8X3XwXb.j.E.Q.Q.`.Q.Q.Q.T.n.W.gXgXdXdXiXiX).x.x.K.T.J.Y.P.K.U.k.y.).4X6X6X5X4X7X8X8X^.n A i.h.H o >.IXcX{ = c q } q ",
"} e q K 0 o >XKXCX< - t.x.9.u T 6X6X8X6X6X4X7X1X7Xi.h.I.H.H.H.H.H.H.c.u.[.KXKXJXLXGXMXaXh.y.H.L.J.J.L.P.P.l.y.~.7X8X6X7X4X3X3X7XM.N V h.v.H X 3.KXGX| + o.q } e ",
"e e e c 0 o ;XHXaX@ < e.k.0.i Y 7X5XwX<X3X5XwX1X9Xc.p.!.J.U.H.U.K.I.b.h.[.AXAXAXIXbXbXrXv.i.I.I.U.K.U.J.I.c.u.~.wX8X1X5XwX3X3XeX(.i C u.h.P o 6.JXAX{ * c x X.} ",
"w e e L 0 % 6.pX;X; = w.z.0.m T 4X6X*X#X@XF.#X@X Xi.k.y.c.a.z.h.H 7 :XSXaX+.o.o.o.| { 1.bXaXo.5 d.c.k.x.v.h.j.~.eX-X#X#X@X4.,XeX^.n C u.y.j X %.pX<X{ = c q e e ",
"k e e L 0 o ,.iX*X> ] w.z.9.d Y wX4XF.|.4.+X+X4.G.i.z.u.j.v.z.y.9 X qXLXrXX ' * % ' o @.DXbX{ o 9.x.j.y.k.k.j.).eX-X XoX4.5.-XrXM.m D h.v.z o %.8X:X0 = o.c e e ",
"e X.X.x 0 $ ,.3X(.@ < e.l.0.u Y 7X1X4.4.@XoX}.D.F.i.z.a.j.a.0.e.6 3 ;XLXrXt 3 3 4 8 3 *.nXbX+.- U e.8.c.y.u.j.~.5X=X X4.+X+X-X8XM.C C t.k.z + %.wX-X[ = v q X.k ",
"w e } c 8 + %.*X6.$ < 0.l.8.u Y 7XwX*XD.D.}.OX+X}.i.u.p.h.0.7 2 M s -XFXwXH Z H D B i =.NXbXT B   $ g v.y.u.u.M.+X@X4.@XOX|.-XeX^.V S t.z.H o O.@X3.; = #.e } w ",
"k e e k 8 @ %.#X.X] 7 t.z.8.i Y 6X4X#X}.2.F.+X4.4.f.x.v.x.8.> , s i -XMXqXm C m f D i =.NXvXT f 5 & H x.z.z.z.m.}.}.5.5.4.D.:XeX(.s F k.x.I & O.#X3.8 @ c q X.k ",
"e k | e v w %.,.+.1 2 D d.D a P 7X1X0XqXM.=.6.S.G.Y q.d.d.I = < T W :XCX5X7.W T Y 7.7.6.cXtX=.7.| O h G U 9.d.m.OX#X>X>X-.-.-XeX(.  a G G 6 $ 0 ,.*.o.w #.} e q ",
"r k X.e x K v $ + * ' ; : > o +.7X8XbXNX/.d P +X}.[ O : ] 1 + < 6. X=XeX<X#X X XD.S.D./.5X5XF.D.@.$ = , - = X %.S.*XrX1XI m M.iX5.@ ] = - : ] - o 8 c c K k } c ",
"} e } e q l r < < 7 , - ' % : o.4X4XvXMX(.i U |.}.{ = * & * # [ <.}.-X8X<X3.+X}.}.|.4.*XeXwX@XoXo.$ , % : ] : :.@X*X8X9XS i M.8X5.$ : - $ , < # ] 8 L q q o.} e ",
"} e e l e e q J c ; - B d.I   P 7X5X/.^.6.-.;.D.2.L h D q.H ' ; @X<X5.>.6.,X(.:X-X-X:X/.>.-.*X:X&.% t d.F p p ,.#X6.=.m.=.-.(.eXM.a a F d.r $ 0 J x K e k k e } ",
"} e e e } } e l x - 7 t.x.q.m U eX1XS d -.D.+XOXG.I n 8.x.0.; 2 ,XrX&.X O.4X8XeXeX7XeX XX , >XuX&.+ h h.h.G s =.$X;.i s 5.+X:X8XM.s A h.l.H @ q J e e } e e e e ",
"e k e q X.| | e X.1 > 0.z.q.B T wX9XU i -.#X+X X}.I B 0.v.0.& [ (.iX>.X %.5X6X4XeX6X8X*X= { >X6X:.o l v.y.A B -.}.-.D H 5.+X;XiX^.B C t.k.g ' r k } | } e e e e ",
"k e e e } } e e k 8 ; S q.C V T 3X5X_._.,X<X,X<X:XU s D 8.D : 7 pXSXCXlXCXSXZXSXAXZXZXZXiXlXBXDX1.o h q.F Z C ;.wX-X_.,X<X-X<X7X(.n m C q.h o q k k e e c e e e ",
"k e k } e q e K o.; & a s B f d.6X4XeXeX<X6X8X4X3XS n D m   , 8 GXLXKXKXKXHXKXLXJXLXLXHXHXKXBXFX<.X t u n N C M.8X3X4XeX1X1X8X7X^.V Z B s t & v k k q e e e e e ",
"e e o.e q q c c c 6 3 N F S u Y eXwXeX8XrXeX8X8XeXI n G G H ' < CXPXAXAXGXSXSXGXPXAXAXAXGXGXbXnX1.o r D S B u ^.rX8XeXeXeXeX6XrX^.u B F C l ; v o.c x q q e } } ",
"k e } X.q q o.8 h w.f.p.h.q.B =.vXBXAXAXJXPXSXJXAXg.i 8.p.d.] ; 5.;X@X%X=X*X*X#X*X*X*X*X%X%X#X%X%.o l y.w.F u uXKXJXSXPXPXJXBXBX2XB D s.u.s.t.9.8 | c c e } } e ",
"e w } } e o.| X r z.j.y.l.8.u Y mXnXLXJXHXKXHXLXHXU M e.x.8., 1 3.|.2.oX}.}. X2.2.+X2.2.D.2.D.D.O.$ h v.j.C u iXLXJXHXHXHXKXFXMX5Xi C a.y.y.n.d.+ 0 c k e X.e q ",
"e X.k X.} q w : a p.k.t.t.G V Y xXxXCXVXVXIXVXVXZXY m q.u.U @ 7 3.+X+XD.oX+X#X<.1.2.+X+X+X+XD.D.+.$ h t.e.D f 9XGXVXVXZXVXVXcXxX-XN D 8.t.s.v.9.* 8 x e X.} e e ",
"q e e e q e v % e h.j.C N Z f P OXoXD./.F.D.F.D.3.I B m V M - - 3.+X2.+X+X@X3.8 @ :.+XD.D.2.D.@XO.% 0 Z N D s -.@X5.5.D.S.D.oX#X6.i n D C 0.v.d.: 8 L k X.} e e ",
"k X.k e } c r $ 6 h.z.F D C C I +X4.2.S.2.}.oXD.}.I V A V p ; [ 3.+XD.D.2.5.|.{ * %.+X4.D.+X2.D.$.X t D C Z f -.}.2.2.2.2.5.}.@X-.F A B C r.x.0.& 8 c q } k e } ",
"e e e e } o.v - 4 U U s 6 6 6 P =X>X;XqX0XqX0X*X*XP   M h 5 # , 3.#X2.D.@X}.}.8 * :.@XD.D.@X2.%X%.$ 8 h a a   6.=X;XqXqXqXqX;X=X6.  h a a I 9.H $ 0 c e } e e e ",
"e } q e | c r $ * - $ $ * - ' | 6X8XvXNXnXnXcX4X3X| $ & * ] $ < <.+X4.D.+X|.OX{ * :.+X2.4.+X}.+X| ' ] - $ < O 5.eXtXBXmXmXDXtX8XOX+ $ 7 - : > % * 9 K q e q e e ",
"c X.e } | e r ; 7 ; # ] ] 7 , | 8XwXvXNXmXFXvXrX6X{ & < 7 ; : 7 3.+X2.+X|.+X<.8 X %.+X#X2.2.+X5.O.% @ ; 1 ] o M.eXtXDXNXmXDXtXrXM.@ < ] ] - # = ; 4 k e | e e X.",
"q k q e | X.K o.v o.J 0 $ = * 8 >.>.<.<.<.XX,.>.*.1 < < = ; * 1 /.:X*X}.2.+X#X2X2X=X2.S.4.@X:X,X:.& = = < ; & O.>.,.<.XXXX<.,.>.$.: - , , v b J o.c K X.} e q e ",
"} X.l q } k l c l | L 4 $ 1 : > + $ @ X + $ O @ : @ = = , - < 1 -XrX*X2.|.4.*XPXLXyX4.+X+X4.<XeX>.@ ; ] ] @ 1 @ @ X X o + X @ O * , * # - K k | c q K w } e c X.",
"e } e e e e e e r | K 9 $ < , < < < < < < < < < , * > ] 2 - : [ ,X7X;X2.4. X#XAXKXyX2.+X|.@X5X8X>.* ] = < > * ; 7 > ; < < < < < 7 - , ] ; J o.e e e e e e e e } ",
"e e e k e e e e c | K 4 < - - 3 M M M M p M p M h 3 - t M a = < 5.*X>X<X6X:X:XiXpXtXxXxXxXzX%X*X$.+ 9 p a 7 = 5 M M p p p M p p 6 + - < ; 6 } X.e } e e e e e e ",
"e e e e e e e e q | e 4 - = $ 4 Z Z Z Z A Z Z Z D 3 & g C s * , <.+X:X8X6X3X8X1X,XaXDXmXMXnX#XOXO.+ t V n 2 ' h D A Z D Z Z D C p - - < < x v e e e e e e e e e ",
"e e } e e e e o.q } K 9 - > : 8 Z N N f Z Z V N N 1 & h C h 8 3 6.<.>X3X2X5X7XeXwXxXmXmXbXcXoX3.+.- 6 f D ] ' a V Z n N N N N V h , < * # o.x q k e e e } k e k ",
"e X.e e e e e e e | X.0 % ] ] 3 Z Z Z D Z Z Z Z B 7 = h Z B H M 0 < ,.F.=X4X1XcXnXbXmXxX%X2.| [ h M H f Z < : s D Z Z Z A Z Z D h , > * # o.| X.} e e e e e e e ",
"e e e e e e e e | r l { , > , 4 B D B Z B Z Z B N 3 , 6 D C V V < $ %.@X*XeXwXDXMXMXDXxX|.}.[ o a D S Z B 3 : p D Z Z B N Z N Z h # - ; 2 c w } e e e e e e } e ",
"e } c e } e e c K P P 8 - = * 3 n N n N Z N n N N 7 % 6 Z f V B t . $.<.6./.%X0XqXqXqX&X<.1.w . p Z N N B 2 ' h A n N n n N N A a # ; < - J W L e e e c e e e e ",
"e e e e e e e c P Z._ 0 - < % 0 Z Z Z Z Z Z Z Z n 9 <   Z Z D N A Z 5 : * # - ; ; + ; = = # H C Z V s S i 3 ] a A Z N Z Z f Z A h : ; > $ ! A.` e e e } e e e e ",
"e #.e e J | e r L N.B.o.& - * 8 s Z Z N N Z N N N 3 > a N B B C A B 5 * ] ] % : $ - , ] * 7 p Z B V N n N 7 : a D Z Z B D Z Z A a > $ ; @ W ;.^ e q w k q e e q ",
"q e } e q e $.P E V._ 8 $ , ; 9 Z Z Z N Z N N Z S 7 - 6 V A N A n Z M   6 5     6   6 t 6 b s n n D N A B 7 ' h n A N D N N A n g ] , [ * W B.^ W W k X.e X.} k ",
"e e e } e e / Z.^ N.B.4 : - ; 2 Z N N N N N Z N B ; % 6 V Z f N D D Z n A V V Z s D C V n N Z C C Z s A N = % a A n Z N Z N Z A a = < < $ ! N.V.C._ L o.} | X.q ",
"} e e e k | / A.V.N.B.8 : - * 7 V V Z V V V V Z B 4 ;   A A S B N N A n V Z D I D V V V N D B N N D B Z M t ; 6 V Z Z Z Z Z V V h ; - * @ J N.V.C.C.J } } } e q ",
"| e q k e | W ~ ;.N.B.! *.b * ; 5 5 5 5 t 5 t 5 t 7 > 3 5 5 t t 5 4 5 5 4 t 5 5 5 5 5 5 4 5 5 5 5 t 5 5 5 ; = 7 5 5 5 t 5 5 5 5 4 , 1 P ! Q Z.N.) _ J q k e e l ",
"| k q e q | W ) V.N.N.N.A.b : < : , , : , : , : - - ; - * , < @ , = > > = * * - $ = = : = - * * = - # : = - - ] - : : , : : , , < ' 1 ^ N.V.B.N.~ Z.L q c } X.| ",
"e k e X.e e R ) B._ ) N.N.b > ; ; = 7 = = ; 7 = > , ; , = = , , ; < < > > < ; ; < ; 7 < < ; < < - < - = , ; ; , = ; 7 ; 7 = ; ; = - 8 _ V.V.) ;.N.C.L e e e } } ",
"K e e | e e R C.N.V.~ B.V.N.Q Q E E Q Q E E Q Q E E Q Q E ^ E E Q Q R ! Q Q E E E E Q Q Q R Q Q E E / R Q E E E E Q Q Q Q Q E E / Q E B.^ N.N.A.N._ $.| e e x e ",
"} q k e | q W A.N.) B.N.N.N.B.V.B.B.B.B.B.B.B.B.B.B.B.B.B.B.B.B.B.B.C.B.B.B.B.B.B.B.C.C.C.V.B.C.C.Z.B.C.B.C.B.B.B.B.B.B.B.B.B.B.B.V.B.B.B.~ ~ B.N.;.J x #.} } q ",
"e e q } } e W ;._ V.V.) B.B.B._ B.B.B.) B.B.B.) B.) ) ) B.B.B.B.B.) B.B.B.B.B.B.B.) ) ) ) ) ) ) ) ) V.B.) ) B.B.V.B.B.B.) B.B.B.N.B.) B.B.) ) ) ) ;.L q } q #.k ",
"e e e } } r l J W _ ~ ) ) ) N._ ) ~ ~ ~ ) ~ ~ ~ ~ ) ) ~ ) ) ) ) ) ) ) ~ ) ) ) ) B.) B.) B.B.) ) ) ) ) ) ) ) ) ) ) ) ) ) ) ) ) ) B.~ ^ B.~ B.) / x L c } } e e q ",
"q e e X.} q e | P ) A.) Z.B.C.C.C.B.C.C.C.C.C.C.C.C.C.C.B.C.C.B.C.C.C.C.B.C.C.C.N.B.) B.B.B.C.B.C.C.C.B.C.C.C.C.C.C.C.B.C.C.C.C.B.N.B.B.B.Z.C.^ r e } e q e } } ",
"e X.e e q e } | L ( ^ / / R ^ / / ( ( R / / / / ( ( / / ( ( ( ( / / / E / / / / ( ( ( ( ( ( ( ( / / / / / / / / / / / / / / / / ( / / / / / / R $.} #.e q q } } ",
"e #.e e q q q e | #.q e } l r | e e e e e } e } e e } } e e } e e } } } } e } } e e e | e e e w e e e } e } } e } e } } } e } } } q } e q } } | e q e c e o.e e ",
"e k q #.e e l k e e w w e e q e e e e e e e e e e e } e e e e e e e } e e e e e e } e e e X.e X.e e e e e e e e e e e e e e e e e e e e e e e } } e e e e e e e ",
"e k q X.| | e e q e X.X.e e e } e k } e e e X.e e e e e e e e e k e e k e e e e k k e e e k e e e e } e e e X.e e e e k e e e e o.e e q e k e e e e e } } e e k "
};
