/* XPM */
static char *a426c319c30b4a5fc2f41ec795dfdac0AZjsGJQh4Q4ls1ly[] = {
/* columns rows colors chars-per-pixel */
"80 80 239 2 ",
"   c #080C07",
".  c #0B150C",
"X  c #09150C",
"o  c #171918",
"O  c #10120A",
"+  c #260B02",
"@  c #281919",
"#  c #2B1606",
"$  c #17231A",
"%  c #0D2116",
"&  c #2C221B",
"*  c #352819",
"=  c #2B1F21",
"-  c #1C2623",
";  c #1D3827",
":  c #292928",
">  c #372826",
",  c #243428",
"<  c #38332C",
"1  c #293739",
"2  c #343534",
"3  c #363936",
"4  c #3B3A36",
"5  c #353639",
"6  c #363A3B",
"7  c #3D3D3D",
"8  c #3A3636",
"9  c #282D31",
"0  c #191D20",
"q  c #452C29",
"w  c #48332B",
"e  c #4B3A35",
"r  c #413D3D",
"t  c #4A3635",
"y  c #533937",
"u  c #50352E",
"i  c #3D413E",
"p  c #35433A",
"a  c #42413E",
"s  c #49433A",
"d  c #50473E",
"f  c #333D42",
"g  c #3D3E41",
"h  c #3A3E49",
"j  c #273943",
"k  c #413E41",
"l  c #4C3F42",
"z  c #2F4345",
"x  c #3D4243",
"c  c #3D464A",
"v  c #3C4A4B",
"b  c #354647",
"n  c #3B4E55",
"m  c #3D5455",
"M  c #3D504E",
"N  c #3E6062",
"B  c #424243",
"V  c #4B4543",
"C  c #444B45",
"Z  c #4C4B44",
"A  c #444649",
"S  c #434C4C",
"D  c #4B4B4A",
"F  c #4F4649",
"G  c #564A48",
"H  c #48534A",
"J  c #54544C",
"K  c #5B534C",
"L  c #555146",
"P  c #454D54",
"I  c #554E53",
"U  c #445354",
"Y  c #4A5354",
"T  c #4B555A",
"R  c #445A5C",
"E  c #4B5B5B",
"W  c #455657",
"Q  c #5C5552",
"!  c #5B5C5B",
"~  c #555856",
"^  c #635955",
"/  c #645C5C",
"(  c #665854",
")  c #67514A",
"_  c #57615C",
"`  c #4D645C",
"'  c #686259",
"]  c #766558",
"[  c #475D63",
"{  c #535E62",
"}  c #466264",
"|  c #4C6365",
" . c #476469",
".. c #4B666A",
"X. c #4C6A6C",
"o. c #446D6C",
"O. c #546264",
"+. c #526B6D",
"@. c #5A6767",
"#. c #4E6C71",
"$. c #536E72",
"%. c #5A6B72",
"&. c #4D7376",
"*. c #547275",
"=. c #5A7375",
"-. c #557579",
";. c #5A757A",
":. c #557A7B",
">. c #5C7A7D",
",. c #517873",
"<. c #57716E",
"1. c #646463",
"2. c #686968",
"3. c #6C7B7C",
"4. c #667577",
"5. c #727D7B",
"6. c #797775",
"7. c #6D706E",
"8. c #6E5E61",
"9. c #7B837D",
"0. c #878477",
"q. c #9B8570",
"w. c #5D7D82",
"e. c #597A81",
"r. c #627D82",
"t. c #697E84",
"y. c #7E7C87",
"u. c #5D8486",
"i. c #638284",
"p. c #6B8385",
"a. c #64858A",
"s. c #6B868B",
"d. c #658B8D",
"f. c #6B898D",
"g. c #748384",
"h. c #728B8E",
"j. c #79888B",
"k. c #6D8D92",
"l. c #6B8994",
"z. c #708E93",
"x. c #7B8E95",
"c. c #6E9194",
"v. c #6D9398",
"b. c #729296",
"n. c #74949A",
"m. c #7B959B",
"M. c #76999D",
"N. c #7A9B9E",
"B. c #7A9594",
"V. c #75948F",
"C. c #7B9DA2",
"Z. c #7A9AA3",
"A. c #7DA1A5",
"S. c #7EA6AA",
"D. c #73A09B",
"F. c #868987",
"G. c #858C92",
"H. c #879899",
"J. c #929795",
"K. c #8E918B",
"L. c #AD9E90",
"P. c #83A39E",
"I. c #B3A190",
"U. c #839EA3",
"Y. c #889CA7",
"T. c #83A3A6",
"R. c #8BA3A3",
"E. c #83A5AA",
"W. c #8AA5AB",
"Q. c #84A9AD",
"!. c #8BABAE",
"~. c #97A7AA",
"^. c #85ACB1",
"/. c #8CADB2",
"(. c #8CABB4",
"). c #91AEB3",
"_. c #9CADB3",
"`. c #8CB2B4",
"'. c #8AB4B7",
"]. c #93B2B5",
"[. c #93B4BA",
"{. c #9AB6BA",
"}. c #9BBABD",
"|. c #97B9BA",
" X c #8FB1AF",
".X c #A8B4AC",
"XX c #A5BBBD",
"oX c #A7B6B7",
"OX c #AAB0B0",
"+X c #D7B79C",
"@X c #C9AB93",
"#X c #D8BAA7",
"$X c #C6B2A9",
"%X c #E4BDA7",
"&X c #E3BF9F",
"*X c #AAC2BE",
"=X c #D8C2A8",
"-X c #D2C8B7",
";X c #E3C5AE",
":X c #E9C8B7",
">X c #9DBCC1",
",X c #A3BEC3",
"<X c #ABBEC3",
"1X c #A4C2C5",
"2X c #A9C3C4",
"3X c #A5C4C9",
"4X c #ABC5CA",
"5X c #ACC9CB",
"6X c #B3CACD",
"7X c #B5C6C8",
"8X c #B3CDD2",
"9X c #BACDD2",
"0X c #B8C9D6",
"qX c #BAD1D6",
"wX c #BED6DA",
"eX c #BDD9DD",
"rX c #B7D4D6",
"tX c #ADC7D4",
"yX c #BEDAE1",
"uX c #D7CCC3",
"iX c #DCD2C6",
"pX c #C2D6DB",
"aX c #C3DADE",
"sX c #C7D5DA",
"dX c #C9D0D0",
"fX c #ECD9CA",
"gX c #E8D6C8",
"hX c #EBDBCD",
"jX c #F4E4D5",
"kX c #C4DDE2",
"lX c #CBDDE3",
"zX c #C6DBE6",
"xX c #C6E1E4",
"cX c #CBE2E5",
"vX c #CEE5EA",
"bX c #CBE8E9",
"nX c #D4E4E8",
"mX c #D1EAF1",
"MX c #E2E8E1",
/* pixels */
"7 7 7 7 7 7 7 7 7 7 7 7 7 7 7 7 8 7 g g 7 k 7 7 7 i 7 i 6 B 7 k g 7 g 7 g 7 g g g f x 7 7 7 8 7 7 g 7 7 7 7 7 7 7 7 i 7 7 7 7 7 7 7 7 7 7 g 7 r 7 7 7 7 7 7 7 7 ",
"7 7 7 7 7 7 7 i 7 7 7 r 7 7 7 7 7 7 r k 5 7 7 7 7 7 7 i 7 8 B 4 7 7 7 7 7 7 i 7 r 7 7 7 7 7 7 k 7 k 7 7 4 7 7 7 7 7 7 7 7 r 7 7 7 7 7 7 7 7 7 7 i 7 7 7 x 7 7 7 ",
"7 7 7 7 7 7 7 7 7 7 g 7 7 7 7 i 7 7 7 i 7 i r 4 7 k r r r B 4 r 8 r r r r 8 k r r r 7 x 7 k 7 g 4 4 r r 7 7 7 7 7 7 7 7 7 7 7 7 r 7 7 7 7 7 7 7 7 7 7 g 7 7 7 7 ",
"7 7 7 7 7 r 7 g 7 7 7 7 7 7 7 7 7 7 7 7 8 7 4 r k k 3 2 6 5 3 6 7 7 8 g 5 2 7 7 5 3 3 6 3 7 g 7 B 7 a 7 7 4 4 r 7 7 7 7 7 7 7 7 i 7 7 7 7 7 7 7 7 7 7 7 7 7 7 7 ",
"7 7 7 7 7 7 7 7 7 7 7 x 7 7 r 7 g 7 7 3 7 7 8 7 8 3 x ~.R.j.f.s.p.p.i.f.p.>.>.;.;.t.g.3.4.p 7 7 8 6 7 7 7 i 7 7 7 7 7 7 7 i 7 7 7 7 7 7 7 i 7 7 7 7 7 7 7 7 7 r ",
"7 7 7 r 7 i 7 7 7 7 7 7 g 7 7 7 7 7 7 7 B 7 S S S D ` qX2X_.Q.^.Q.[.3X|.(.n.v.v.n.n.U.U.B.M x x v P 7 i 7 i 7 7 7 7 7 7 7 7 7 7 7 g 7 7 7 7 7 7 7 7 x 7 7 7 7 7 ",
"7 7 g 7 7 7 7 7 r 7 7 7 7 7 7 7 7 g r 4 3 C oXsXdX8X5XW.!.A.S.Q.E.}.yX>XW.c.c.b.c.k.f.M.Q.f.z.j.s.3.c 7 8 7 7 i 7 7 7 7 7 7 7 r 7 7 7 7 7 r 7 7 7 r 7 7 7 7 7 7 ",
"7 7 7 7 7 7 7 7 7 7 7 7 7 7 7 7 7 r 7 B 7 c pXkXkXxXwX4X}.A.E.E.W.,XxX|.T.c.c.k.k.b.c.n.Q.C.Z.k.n.h.c x 7 r 7 7 7 g 7 7 7 7 g 7 7 7 7 7 7 7 7 g 7 7 7 7 7 7 7 7 ",
"7 7 7 7 7 7 7 7 7 B 7 7 3 7 a 7 7 a 7 2 5 v 9XkXaXaXkXxX3XT.E.^./.1XkX}.E.M.d.c.b.b.k.M.E.E.C.n.z.s.v 6 6 7 7 g i 7 7 7 7 x 7 7 7 7 g 7 7 7 7 7 7 7 7 7 7 7 7 7 ",
"7 7 7 7 7 7 7 7 7 7 7 g x 7 7 7 7 2 ~ OXOX_.cXeXaXwXyXkX,XC.Q.Q.!.1XxX{.Q.A.M.v.k.c.k.M.A.E.E.A.n.b.t.4.4.S 7 r r 7 7 7 g 7 7 4 7 7 7 7 7 7 7 7 7 7 7 7 7 7 7 r ",
"7 i 7 7 7 7 i 7 7 7 7 7 k 7 3 7 a 3 4.nXlXkXkXeXlXkXaXkX,XC.Q.S.Q.1XkX{./.Q.C.z.k.b.k.M.T.E.E.Q.M.k.n.n.m.O.8 r i 7 7 7 7 7 7 k 7 i 7 7 7 7 7 7 7 r 7 7 7 7 7 i ",
"r 7 7 g 7 7 7 7 i 7 r 7 7 7 7 k 7 : @.kXyXyXkXxXpXaXpXvX3XT.Q.Q.W.1XkX{.`.Q.N.k.z.k.k.C.E.T.E.Q.N.k.k.l.n.| 6 r 7 k 4 7 7 7 7 x 7 7 7 7 r 7 7 7 i 7 7 7 g 7 7 7 ",
"7 7 7 7 7 7 7 7 7 7 7 r 7 7 B 8 7 1.U.kXkXyX2X4XkXlXpXkX,XU.S.Q.`.1XkX|./.Q.N.k.z.z.k.C.E.A.S.E.T.N.v.v.v.X.c 8 7 7 7 7 7 7 7 7 7 7 7 7 7 7 7 7 7 7 7 7 7 7 7 7 ",
"7 7 7 7 7 7 7 7 7 7 7 r 4 7 3 g B 7XnXkXwX8X~.3XpXxXeXkX1XW.T.Q.!.1XkX{.`.S.M.c.b.z.k.M.E.E.E.Q.W.T.n.v.d.9.| c 3 7 7 7 r 7 7 7 7 7 r 7 x 7 7 r 7 7 g 7 7 7 7 7 ",
"7 7 g 7 7 7 7 7 x 7 7 7 7 g 6 4.oXpXpXpXwXwX`.!.{.qXkXlXwX8X/.Q.!.1XkX{.!.S.N.c.z.z.k.M.S.E.E.E.Q.U.n.l.c.d.u.N c 7 7 7 7 7 7 7 7 7 7 7 7 7 7 7 7 7 7 7 7 g 7 7 ",
"7 7 7 7 7 7 7 7 7 7 7 7 7 C C OXmXeXkXpXaXwX>X[./.8XkXaXkXkX{.E.!.1XxX{.^.Q.C.c.z.z.k.Z.T.S.E.T.S.T.Z.v.k.c.d.9.E C 6 7 k 7 7 i 7 7 7 7 7 7 7 7 7 7 7 7 7 7 7 7 ",
"7 7 7 7 g 7 7 7 4 g g 7 2 1.sXyXaXaXkXwXkXaXkX4X!.rXxXaXsXaX`.T.W.1XkX{.^.E.C.z.b.c.d.M.E.T.E.E.T.Q.^.Z.b.k.k.b.d...v 8 r g g g g 7 7 7 7 7 7 7 7 7 7 7 7 r 7 7 ",
"7 7 7 7 7 7 7 7 7 7 7 7 3 7.lXkXkXwXaXpXpXaXaXrX5X3X2XaXaXpX3X*X!.1XxX{.`.E.N.z.b.c.l.N.E.S.E.Q.Q.T.Q.U.C.n.k.b.d.X.v 7 r 8 7 7 7 7 7 7 r 7 7 7 7 g 7 7 7 7 7 7 ",
"7 7 r 7 7 7 7 7 B 7 r 7 2 4.pXyXwXkXkXkXpXkXwXwXkX{.).kXaXpXaXeX`.1XxX{./.S.N.k.z.k.k.N.E.E.E.E.Q.U.S.E.Q.Z.k.k.d.+.C g a 7 7 7 7 7 7 7 7 7 7 7 7 7 7 7 7 i 7 7 ",
"7 7 i 7 7 7 7 7 7 8 k a 2 { {.Q.{.pXwXaXaXkXpXkXaX{.].xXlXsXaX8X!.1XkX|.`.E.N.k.z.z.k.N.E.S.E.E.T.Q.E.Q.Q.Z.k.v.i.X.v 3 7 7 7 7 7 7 7 7 7 7 7 i 7 7 r 7 7 7 7 7 ",
"7 7 7 7 r 7 g 7 7 7 a 7 A %. XQ.E.kXpXaXaXsXpXaXeX{.].5XrXlXaXrX!.1XxX{.^.E.A.k.b.z.k.M.E.E.E.E.E.Q.Q.Q.S.Z.n.b.s.;.R x 3 7 i 7 7 r 7 7 7 7 7 7 7 7 7 7 7 7 g 7 ",
"7 r 7 7 7 7 7 7 i 7 2 B H.].{.A./.xXaXkXaXaXpXkXkX}.!./.1XxXwXeX!.3XxX{.`.E.N.k.k.k.k.N.E.E.T.E.E.Q.E.T.T.T.T.n.f.z.>.W g k k 7 7 7 7 i 7 7 7 7 7 7 7 7 r 7 7 7 ",
"7 g 7 7 7 7 7 7 7 a i x R./.`.E.W.>X5XaXpXaXaXkXaX5X1X`.|.4X|.].!.1XkX{./.E.C.z.b.k.k.M.E.E.E.E.Q.E.T.Q.Q.Q.Q.n.c.v.i.| g 7 4 7 7 7 7 g 7 7 i r 7 7 7 7 7 7 7 7 ",
"7 7 7 7 7 7 i 7 a 4 i c E.(.[.W.Q.N.}.aXpXaXaXwXaXaXeX{.W./.Q.E.!.1XxX{.^.E.N.z.k.k.k.Z.E.E.E.E.S.S.T.^.S.C.E.b.c.v.>.} h g g 7 7 7 7 7 7 7 7 7 i 7 7 g 7 7 7 7 ",
"7 7 7 7 7 7 7 7 7 i 7 B T.'. XE.S.S.Q.{.rXyXkXpXeXkXeXeX1X/./.`.`.,XcX|.!.W.Z.c.k.k.c.Z.].!.'./.!.`.!. XA.E.Q.v.k.b.w.} g 7 7 7 7 7 7 7 7 7 7 7 7 x 7 7 7 7 7 g ",
"7 7 i 7 7 7 7 i 7 7 7 B T.`./.Q.E.!.W.W.9XkXkXaXlXpXpXkXtX).`./.Q.,XyX|.'.E.N.f.z.b.f.N.`./.(.'.].^.`.`.E.Q.Q.n.k.b.e.| B 4 7 g 7 7 7 7 7 7 7 7 7 7 7 7 7 7 7 7 ",
"7 7 7 7 7 7 7 7 7 i 7 B W.`./.Q.A.!.[.!.qXlXsXaXaXkXkXzX3X!.(.[.(.5XeX|.S.A.N.n.b.n.z.Z.].].^.(.[.'.`.`.`.(.A.n.k.b.w.} 7 7 7 7 7 a 7 7 7 7 7 7 7 7 7 7 r 7 7 7 ",
"7 7 7 7 7 7 7 7 7 i 7 B W.'./.!.`.`.'.!.}.2XpXaXpXaXwXkXrX3XQ.C.!.>XeX}.`.!.c.,.-.;.;.e.d.a.a.a.u.i.>.d.!.`.W.N.k.b.w.| x 7 7 g 7 7 7 7 7 7 g 7 7 7 7 7 7 7 7 7 ",
"r 7 7 7 7 7 7 7 7 i 4 A W.'./././.Q.'.'.R.R.6X4X7X9X<X2X7X6Xx.s.R.*XcX{.!./.i.W [ [ [ R [ R [ T E | E %./.(.{.v.k.x.>.[ g 7 7 g 7 7 7 7 g 7 7 i 7 7 7 r 7 7 7 7 ",
"7 7 7 7 7 i g 7 7 i 7 C E.`.]./.).`.[.W.2.D I g o - : : - 9 o : 7 j.cX[.Q.(.3.C : o 0 o o o 0 o 2 B D E ).(.[.n.k.b.u.} B 4 7 7 7 7 7 g 7 7 7 7 7 7 7 7 7 7 i 7 ",
"7 7 7 7 7 7 r 7 7 i 4 B R.'.].`.!.`.^.U.! e < > : o o   O O - 9 = 5.bX|.S.M.O.: : : o .   o O : : > B ~ m.E./.N.k.b.w.[ g 7 7 g 7 7 7 7 7 r 7 7 7 7 7 7 7 7 7 7 ",
"g 7 7 7 7 7 7 7 7 i 4 B E.`.].`.].^.S.k.E < O 9 _ p ,     . D I   7.cX>XZ.#.f   C H 2 0     $ ! 4 O 8 Y m d.{.n.k.b.w.} x 7 7 7 7 7 7 7 7 7 7 7 7 7 7 7 7 r 7 7 ",
"7 7 7 7 7 7 7 7 g 4 7 c R.`.[.'.(.'.C.h.Q d 4 B H , %   O O B J @ 5.bX|.T.X.H > Z C - %   X $ ~ C i a V ..d.[.v.c.n.9.m b 7 7 7 7 7 7 7 7 7 7 7 7 7 7 7 7 7 7 7 ",
"g 7 7 7 7 g 7 7 7 7 x 6 g.T.Q.^.^.>XC.z.! F ~ ! J ; %   . % S Y e j.xX[.A.o.H r J C $ .   . $ ~ ! J G J R i.).b.k.f.;.U b 7 7 7 7 7 7 7 i 7 7 7 7 7 7 7 7 7 g 7 ",
"7 7 7 7 7 7 7 i 4 A 3 7 3 O.*X`.'.`.Z.z.1.! 7.2.1.p - X   X C I < 9.xXT.u. .H i L V $ %   $ , _ 7.2./ / ..d.!.M.s.=.U x 6 i 7 7 7 7 7 7 7 7 g r 7 7 7 7 7 7 7 i ",
"7 7 7 7 7 7 7 7 r 8 3 x 7 S 4.N.`.(.E.Z.2.! ~ ' 2.M ; $ o $ S Q < 9.bX|.Z.=.H 4 H s ; % X ; i 7.1.! / { } w.Z.a.=.M 7 4 7 3 7 r 7 7 r 7 7 7 7 7 7 g 7 7 7 7 7 7 ",
"7 7 7 i 7 7 7 7 7 7 B 7 r 4 9 9.~.{.`.!.7.K s L ' H p , , , C D < F.nXaX,X@.Y s J H p ; ; p H @.K e K ! } :.b.*.v f 7 l a 3 i 7 7 7 7 7 r 7 7 7 7 7 7 7 7 7 7 7 ",
"7 7 7 r 7 7 7 7 7 B 3 r 7 B B x | W.'. X2.) K ^ ' ` ` d Z D Z Z t ^ 6.XX2XY F r d d p d d J K ^ ^ L K / p.t.%.v 7 g k k 7 4 i 4 7 7 7 7 7 7 7 7 7 7 7 7 7 7 7 r ",
"7 7 7 7 7 7 7 7 g 8 7 7 i 6 7 r 6 3.A.`.%._ @.@.1._ _ ' 2.7.! Q ! V k ~..XD D ~ Z ~ 2.' 2.' / 1.1.2.! @.s.=.P B r x 7 3 7 r a 7 7 x 7 7 7 7 7 g r 7 7 7 g 7 7 7 ",
"7 7 7 7 7 7 7 7 7 7 l 7 6 7 7 r a 3 | ].~.P.h.s.s.,.} E G.7X<X7X5XJ.Q ' ' ^ 5.P.A.A.E.A.T.P.E.T.E.U.x.p.X.n 7 4 r 7 p 6 B 7 4 i 7 7 7 7 7 7 7 7 i 7 7 7 7 7 7 7 ",
"7 7 r 7 7 7 7 7 i 4 7 7 7 i 7 i a 3 | ].Q.'.C.M.M.f.w.$.R.pX8X9XpXJ.J Q Q ( y.Q.Q.E.E.Q.E.T.Q.Z.C.C.n.a.X.v g 7 k 7 k 7 7 7 7 r 7 g 7 7 7 7 7 7 7 r g 7 7 7 7 7 ",
"7 7 7 7 i 7 7 7 4 i a a 7 7 4 7 4 4 O.{.`.!.`.`.E.Q.A.b.].eXpX9X9XJ.K K G Q 3.^.E.E.Q.T.E.E.C.b.k.l.v.k.$.U 3 7 7 4 7 7 7 B 7 8 7 7 7 7 7 r 7 7 7 7 7 7 7 7 7 7 ",
"g 7 7 7 7 7 7 7 7 7 7 7 7 7 r r r 4 P >.Q.|.Q.!.!.Q.A.M.E.{.qXqXqXJ.Q Q ( ( 5.^.A.Q.Q.T.E.C.c.k.f.n.-.$.[ P g 7 7 k g 7 7 7 7 7 7 7 7 7 7 7 7 i 7 7 7 7 7 7 7 7 ",
"7 7 7 7 7 g 7 7 7 7 5 k 7 7 7 4 a 3 v 4.n.Q.!.].`.Q.S.S.T.N.4XsX9XJ.Q ' / ^ t./.W.A.A.C.E.n.f.B.z.z.#.#.p.U x 7 8 7 4 k g 7 7 B 7 7 7 7 7 7 7 7 7 7 i 7 7 7 r 7 ",
"7 7 7 7 7 7 7 7 7 7 7 7 7 7 i x 3 f x.vXi.-.].(././.`.'.^.T.rXkXwXJ.^ ^ ( Q J.kX/.N.k.n.n.b.c.n.r. .[ ;.kXR.A 6 g k 7 7 r 7 g g r 7 7 i 7 7 7 7 7 7 7 7 7 7 7 7 ",
"7 7 7 g 7 7 7 r 7 7 7 7 7 B 3 7 U j._.wXm.k.N.C.].(.^.`.`.E.>X3XqXK.K ( ^ Q G.kX<X].z.s.:.>.i.i.;...d.n.rX,Xx.O.x f i 7 8 g g 7 7 7 7 7 7 7 7 i 7 7 7 7 7 7 7 g ",
"7 7 7 7 7 i 7 7 7 7 B 7 k 7 5 P t.vXrX(.3X/.} s.|.].`.[.[.`.^.S.qXJ.K K K L F.lXpX8Xz.w.}  .}  ...+.W.3X>XrXvXh.T 6 6 i 7 r 8 7 7 7 7 7 7 7 r 7 7 7 7 7 i 7 7 7 ",
"7 r 7 7 7 7 7 7 a 4 r 4 6 x T ~.4X,X>X>X(.W.n.k.;.w.w.;.c./.S.Z.s.@.d G K d 0.aXqX<X%.$. .*. . .r.n.E.`.>X4X8X4X_.{ i 7 7 k 7 k 7 7 g 7 7 7 7 7 7 7 7 g 7 7 7 7 ",
"7 7 7 7 7 7 7 7 7 i 4 r 7 P $.3XaX).{.>XE.T.E.b.;.-.>.*.k.'.T.v.| W J G L D g.2X1X].;.*.*.r.:.#.a.W.U.U.(.(.[.rX1X;.P 7 7 7 r 7 7 7 i r 7 7 7 7 7 7 7 g 7 7 7 7 ",
"7 7 7 7 7 7 7 7 a 4 a 7 3 x $.{.8XXX].C.!./.W.1XbX5X,X{.`.}.9.N #.#.X.......X.#...r.eX8X{. X].M.i.} ..X. .e.;.+.=.X.P 6 x r k 3 7 7 7 7 7 g 7 7 7 7 7 7 r 7 7 7 ",
"7 7 x 7 7 7 7 7 7 7 7 7 7 x S h.T.M.k.c.x.k.n.`.4XtX0X,X1X}.Y.U.Y.Y.U.C.U.Z.Z.Y.m.W.9X2X{.{.{.i.x.H.m.j.[ m | E R | Y 8 5 r r g 7 7 7 7 7 7 7 7 i 7 7 r g 7 7 7 ",
"7 7 7 7 7 7 7 r 7 B 3 7 7 7 3 U ..X...#. .;.c.N.Y.wXyX4X4X1XxXvXlXvXcXcXvXvXnXcXmXcX).].}.}.!.} Y.lXMX<Xf b M 1 1 n f 8 A 7 7 7 7 7 7 7 7 7 7 7 7 7 7 7 7 7 7 7 ",
"7 7 7 7 7 7 7 7 7 7 7 7 a B S ~.oX[ t.U.R m -.k.W.).{.xX6X2X8X4X6X4X7X2X5X}.*X1X}.1X].}.>X!.A.$.%.4.E @.g.3.U ~.~.c g r 7 7 r 7 7 7 7 7 7 7 7 7 7 7 g 7 7 r 7 7 ",
"7 7 7 7 7 7 7 7 k 7 i 7 2 S 2.OXoX%.t.G.W j ..s.).m.Q.eX8X4XXX4X,X3X5X3X4X{.|.].{.|.|.{./.E.N.,.W h 1 v {.h.+._._.1 x B 2 7 r i g 7 7 7 7 7 7 7 7 7 7 7 7 7 7 7 ",
"7 r 7 7 7 7 7 7 7 7 7 B 8 @.~.*.@.~.=.1 P [ X.f.).N.M.N.2XnXlXkXvXpXlXmXqXR._.sX9X7X}.].(./.N.*.[ h b ..lX<XH.W h U x 7 i < B 7 7 r 7 7 7 7 7 7 7 7 7 7 7 7 7 7 ",
"7 7 7 7 x 7 7 7 g 7 r 7 7 T j.i.3.x...f b n X.:.z.i.f.T.).4X6XwX9XpX8X4X2XXXJ.3.4.t. XU.k.k.a.-.n 9 h T H.x.j.W f v x 7 i 7 r 7 7 7 7 i 7 7 g 7 7 7 7 7 7 7 7 i ",
"g r 7 7 7 7 g 7 4 6 x 7 < S ! H.D.@.W R 5 c *.#.X...-.W.E.C.>X,X3X1X1XS.'.wX6.+ + & R.f.o.o.X.&.M @ 5 j p S { W n j 7 2 8 r 7 g 7 7 7 7 7 7 7 r 7 7 7 7 7 7 7 7 ",
"7 7 7 7 7 7 7 7 V 6 7 V K.$X-XdX-X$X0.m h.z.N x.8Xn.s.>.k.(.U.>X3X4X5X(.Z.W.! O # * : 4.7X6X].&.v : g R f 3.7XW j x 6.OXV r 7 g g 7 7 7 7 7 7 7 7 7 7 g a 7 7 7 ",
"7 7 7 7 7 7 7 7 2 A g V hXjXiXfX:X:XI.' m.Z.w.~.pX).l. .a.(.Z.!.3X4X,X).C.n._ : * # + 7.nXdX9X9.R 1 P P j G.hX7.~ ~ L.MXL 2 x 7 7 r 7 7 i 7 7 7 7 7 7 7 7 7 7 7 ",
"7 7 7 7 7 7 7 7 g k 5 V uXfXfXfXgX;X%X-X3.e.zX,Xx.m.l.$.l.!.!.Q.3X4X,XY.b.n.R.H.< + # _ *X~.oXbX_. .b 2 z 6.=XfXiXhXhXiXJ 4 B 7 7 7 7 7 7 7 7 7 7 7 7 7 7 7 7 7 ",
"7 7 7 7 7 7 7 7 7 k 3 D uXjXgX:X:X=X=X%X5.w.4X Xb.s.r. .r.E.W.^.3X3X3XU.n.Z.Z.C.+.Y ) G.pXy.2.F.3.#.5.q.0.I.;X-XfXfXfXiXQ < x 7 7 7 7 7 7 7 7 7 7 7 7 7 7 7 7 7 ",
"7 7 7 7 7 7 7 7 r 7 8 D uXfXfXuX#X=X%X:Xt.o.R.D.M.*.#.$.l.!.Q.Q.3X3X3XU.b.b.v.n.Z.H.~.*XnXI @ + j *.OX;X=X;X;X=X#XfXhXgXF 7 7 7 i 7 7 7 7 7 7 7 7 7 r i g 7 7 7 ",
"g 7 7 7 7 7 7 7 4 B 7 Z iXfX=X;X%X;X#X$X5.-.v.B.n.;.X.| ..=.;.r.t.w.r.-.-.>.:.-.XX9XXXF.^ t w > 7.*X! ) @X+X:X=X;X;X:XjXI 7 g 7 7 7 7 7 7 7 7 7 7 7 7 7 7 7 7 r ",
"7 7 7 7 7 7 7 7 g g p a L.$X+X+X+X+XI.q.' } k.l.z.=.$.%.%.t.#. .[ $.w.t.%.|  .} <XsX~.8.u q u V 6..Xa * q.I.#X+X+X+X$XL.D 7 g 7 7 7 7 g r 7 7 7 7 g 7 7 7 7 7 i ",
"7 7 7 7 7 7 7 7 4 k g g < ( @X@X@X@X] < 6 f X.+.*.| 4.R.2XlX%.b 1 g.nXlX<XI b 1 XX<Xk r y q G dX0.> q @ & ] +X@X@X@X' < 7 f 7 7 7 7 7 7 r 7 7 7 7 7 7 7 7 g 7 7 ",
"r 7 7 7 7 g 7 7 r 4 7 B 7 a ] ( ( ' L 7 g 7 P P I J / y.F.Y.%.T l 8.K.0.y.F l l G.b.m V e 7.9.F.( * > * & s ) ] ] ] V 4 x 7 7 7 7 7 7 7 7 7 7 7 r 7 7 7 7 7 7 7 ",
"7 7 7 7 7 7 7 7 r 7 7 B x 3 3 3 7 2 7 7 g 6 4 r < l ) 8.@. .$.%.K l u u u y ) ( { o.,.T 8 .XOXr q q < q > = # , 8 7 3 7 g 4 r 7 7 7 7 7 7 7 7 7 7 7 7 7 7 7 7 7 ",
"7 7 7 7 7 r i 7 7 7 7 7 k g f h g 6 g k 7 a 7 4 < q y ! b.tXW.t.@.I u u w y G ~ oX,Xz.4.E ~ G e w t w > > I F.Y g f x a 7 4 7 7 7 7 7 7 7 7 i 7 7 i 7 7 7 7 7 7 ",
"7 7 7 7 7 7 7 7 f g r 4 r r 7 x 4 k 7 7 7 a 7 i i 3 M ,. XbX!.d.:.O.F 7 2 V @.u.6XwXN.a.$.c t w y t q u l 7.oXA 6 g B 4 4 i 7 7 7 7 7 7 7 7 7 7 7 7 7 7 7 7 7 7 ",
"7 7 i r 7 7 7 7 g 7 7 r 4 r 4 7 4 i 3 r 7 7 7 r 7 m u.1XpXpXR.m.Z.a.O.A g { Z.tX,X|.n.n.n.i.E @ > y t G J.7XnXE 4 4 4 r r 7 3 g 7 7 g 7 7 7 7 7 7 g 7 7 7 i 7 7 ",
"7 7 7 7 7 7 7 7 g 7 7 7 7 r r 7 i 7 7 7 r 4 7 7 7 U 9.A.XXnXH.b.H.u. .h h | n.tX8X|.c.b.v.:.m o > > 1.K.oXOXoXH 7 7 7 7 r 7 7 7 7 7 7 7 7 7 r 7 7 7 7 r 7 7 7 7 ",
"7 7 7 7 7 7 7 g 4 g g 7 g 7 x 7 g 7 r k 7 i g 7 4 E ;.k.].lXW.l.v.i...A g | b.3X>X1Xx.m.n.e.} - o o F.|.XX~.J.B 3 x 7 7 7 7 a 7 7 7 i 7 7 7 7 7 7 7 7 7 7 7 7 g ",
"7 7 7 7 7 7 r 7 7 7 7 7 7 7 7 7 7 7 g 7 7 7 7 7 7 M o.:.r.t.w.;.e.#.R b x U $.r.t.r.:.:.*.+.S 1 > 5 k B D B B g 7 7 7 7 7 7 7 7 r 7 7 7 7 g 7 7 7 7 7 7 7 7 7 7 ",
"7 g 7 7 7 7 7 7 7 7 g 7 7 7 7 7 7 7 7 7 r 7 7 i r c M R R T R R m W v x i c W R W W R R R U C 7 g 7 7 7 7 4 7 7 7 7 7 7 7 i 7 g 7 7 7 7 7 7 7 7 7 7 7 7 r 7 7 7 ",
"7 7 7 7 7 7 7 7 7 7 7 7 7 g 7 7 7 7 7 7 7 7 7 7 r r 7 6 g g 7 p g g 7 7 7 7 7 7 7 i 7 7 7 7 7 r 7 r 7 7 7 7 7 7 r 7 7 7 7 7 7 7 7 7 7 7 7 7 7 7 7 7 7 r 7 7 7 7 ",
"7 r 7 7 i 7 7 7 7 7 7 7 7 7 7 7 7 7 7 7 7 7 7 7 r 4 7 7 r 4 7 7 4 4 7 g k 7 4 r i 7 7 4 7 r r 7 7 7 7 g i B 7 7 7 7 7 7 7 7 7 7 7 7 g 7 7 7 7 r 7 7 i 7 7 7 7 7 ",
"7 7 7 7 7 7 g 7 7 i 7 g 7 7 7 7 i r 7 7 7 7 7 7 7 7 7 k k r 7 7 7 7 4 g g 7 g r i g 7 r k B g f 7 7 7 7 7 7 7 7 7 7 7 7 7 7 7 7 7 7 7 7 7 7 7 i 7 7 7 7 7 r 7 7 ",
"i 7 7 7 7 7 7 7 7 7 7 7 7 7 r i 7 7 7 7 7 7 7 7 x 7 g g g 7 7 7 7 7 7 g f g 7 7 3 7 7 g 7 7 g 6 7 7 7 7 7 7 7 7 g 7 7 7 7 7 7 7 i 7 7 7 g 7 7 7 7 7 7 7 7 7 7 g ",
"7 7 7 7 r 7 7 7 r 7 7 7 7 7 7 7 g 7 7 7 7 7 7 7 6 7 4 g 7 7 7 g 7 7 7 7 4 g 7 7 g k B 7 7 7 7 g 7 7 7 7 g k g 7 7 7 7 7 7 7 r 7 7 7 r 7 7 7 7 7 g 7 7 7 7 7 7 7 ",
"7 7 7 g 7 7 7 7 7 7 7 7 7 7 7 7 7 7 7 7 7 7 7 7 7 7 4 7 7 7 7 r 7 7 r r 4 7 r g k g 4 7 i r 7 r k 7 7 7 4 7 7 7 7 7 7 7 7 g 7 7 7 7 7 7 7 7 7 7 7 7 7 7 7 i 7 7 "
};
