/* XPM */
static char *op1672848801[] = {
/* columns rows colors chars-per-pixel */
"80 80 256 2 ",
"   c #393615",
".  c #361433",
"X  c #2F162D",
"o  c #3A3C35",
"O  c #3D3D3D",
"+  c #383839",
"@  c #362B27",
"#  c #381B1D",
"$  c #453D0E",
"%  c #501D35",
"&  c #413A3C",
"*  c #4E2B30",
"=  c #6E3633",
"-  c #3B4707",
";  c #3A4616",
":  c #3D520F",
">  c #3E413D",
",  c #3D4236",
"<  c #3C4B21",
"1  c #316828",
"2  c #444C0B",
"3  c #464907",
"4  c #485408",
"5  c #535909",
"6  c #464916",
"7  c #4B5416",
"8  c #575A17",
"9  c #554717",
"0  c #5C6506",
"q  c #5A6517",
"w  c #4A6110",
"e  c #646B0A",
"r  c #6A7608",
"t  c #787B06",
"y  c #656813",
"u  c #787913",
"i  c #6B7411",
"p  c #42423D",
"a  c #484939",
"s  c #4B532B",
"d  c #6F4730",
"f  c #51682F",
"g  c #666C2A",
"h  c #634B1E",
"j  c #3D3D42",
"k  c #3C3B47",
"l  c #2A3B43",
"z  c #551C44",
"x  c #413D43",
"c  c #532242",
"v  c #3C4242",
"b  c #2E766B",
"n  c #434343",
"m  c #4B4C45",
"M  c #4D4E4B",
"N  c #464847",
"B  c #534E4A",
"V  c #4E524B",
"C  c #4B5347",
"Z  c #53534C",
"A  c #5A5B4E",
"S  c #545748",
"D  c #4D4D51",
"F  c #4C5654",
"G  c #535552",
"H  c #5B5C54",
"J  c #565A56",
"K  c #554F59",
"L  c #625D53",
"P  c #5A6556",
"I  c #546F54",
"U  c #636455",
"Y  c #64645A",
"T  c #66695B",
"R  c #6C6B5C",
"E  c #6A6757",
"W  c #736D5B",
"Q  c #76725D",
"!  c #696E55",
"~  c #597665",
"^  c #546F68",
"/  c #6A6A62",
"(  c #736E62",
")  c #687767",
"_  c #747364",
"`  c #7C7C6C",
"'  c #787766",
"]  c #7A7D71",
"[  c #697F71",
"{  c #847D07",
"}  c #88423B",
"|  c #827D6B",
" . c #837C64",
".. c #837E72",
"X. c #817356",
"o. c #813A34",
"O. c #7A8407",
"+. c #7A8414",
"@. c #6D8301",
"#. c #7B8222",
"$. c #1E8B71",
"%. c #5D8A76",
"&. c #5B9170",
"*. c #78826C",
"=. c #678875",
"-. c #7A8675",
";. c #69967B",
":. c #77957C",
">. c #698569",
",. c #5E9665",
"<. c #878907",
"1. c #979808",
"2. c #868813",
"3. c #90900D",
"4. c #A59E0C",
"5. c #9CA209",
"6. c #A9A709",
"7. c #B3AA09",
"8. c #BAB507",
"9. c #ACA813",
"0. c #B8B113",
"q. c #CABD0B",
"w. c #C7BC05",
"e. c #C9BB14",
"r. c #D0BC0F",
"t. c #CCC303",
"y. c #CCC30C",
"u. c #C6C308",
"i. c #D3C508",
"p. c #CBC414",
"a. c #D4C414",
"s. c #D3D009",
"d. c #84826D",
"f. c #89846B",
"g. c #848473",
"h. c #898876",
"j. c #948E76",
"k. c #859378",
"l. c #959174",
"z. c #9A947A",
"x. c #999478",
"c. c #8F8F68",
"v. c #A39C7D",
"b. c #989D74",
"n. c #8FC17C",
"m. c #329C92",
"M. c #17B591",
"N. c #2AB897",
"B. c #1EAA9C",
"V. c #699B84",
"C. c #789984",
"Z. c #7A8D80",
"A. c #5CB190",
"S. c #64AD8C",
"D. c #6BA889",
"F. c #76A589",
"G. c #67B28B",
"H. c #67AC93",
"J. c #79AB93",
"K. c #69B695",
"L. c #73BC9C",
"P. c #78B796",
"I. c #79B18E",
"U. c #73BBA2",
"Y. c #4A9986",
"T. c #08C9BB",
"R. c #0BCCB9",
"E. c #2CE0BB",
"W. c #67C499",
"Q. c #78C29C",
"!. c #7EC58A",
"~. c #7AC9A8",
"^. c #6CD7AA",
"/. c #74D5AC",
"(. c #6BD9B5",
"). c #75D9B5",
"_. c #6FC8AC",
"`. c #78E5BA",
"'. c #75EAB8",
"]. c #53CD9E",
"[. c #02CCC5",
"{. c #02CCCC",
"}. c #0BCCCB",
"|. c #06C8C7",
" X c #13CCC9",
".X c #01D2CC",
"XX c #0BD3CC",
"oX c #05D3C5",
"OX c #18D7CA",
"+X c #02CDD3",
"@X c #0BCCD3",
"#X c #02CDDA",
"$X c #05C9D6",
"%X c #01D2D3",
"&X c #0AD3D4",
"*X c #02D3DB",
"=X c #07D7D8",
"-X c #18D9D5",
";X c #13CAD1",
":X c #25D8C9",
">X c #37DECB",
",X c #27D9D5",
"<X c #3BDFD6",
"1X c #3AE6CA",
"2X c #38E6D5",
"3X c #29E3D0",
"4X c #05D7E4",
"5X c #04CAE1",
"6X c #16E1DB",
"7X c #45E5CA",
"8X c #45E8D5",
"9X c #5CF6D7",
"0X c #53EDD1",
"qX c #68F5CC",
"wX c #7BFECD",
"eX c #78FACA",
"rX c #67F8D6",
"tX c #7BFED3",
"yX c #7BFEDB",
"uX c #75FBD6",
"iX c #6FE8C6",
"pX c #79FDE2",
"aX c #6AFEE4",
"sX c #57E7D7",
"dX c #13BFC1",
"fX c #849986",
"gX c #9B9783",
"hX c #8A8F81",
"jX c #A49D84",
"kX c #A49E85",
"lX c #B99F88",
"zX c #86A688",
"xX c #86AC91",
"cX c #88B899",
"vX c #97B999",
"bX c #91AE90",
"nX c #A8A386",
"mX c #A5B094",
"MX c #89BCA2",
"NX c #97C29D",
"BX c #87C699",
"VX c #B2ED96",
"CX c #8AC8A7",
"ZX c #98C5A4",
"AX c #8AD2AD",
"SX c #8BD7B2",
"DX c #93D6AD",
"FX c #9CDBA9",
"GX c #CEF19B",
"HX c #86FBCB",
"JX c #83FED3",
"KX c #82FDDB",
"LX c #8BFDD6",
"PX c #8BEBC8",
"IX c #87FEE5",
"UX c #90FFE0",
/* pixels */
"O O O O O O O O O O > O O O O O O O & O O O O O O O O O O O O O , j j > O N k + x v + x + O p + O O O O O O O O O O j O O O & > O O O O O O > O O O O O O O O O ",
"O O O O O O O O O O O O j O O O O O O O O O O O O O O O O O O O + j > o + + n J Z V N j & > + n O O O O O O O O O O O O O O O O O O O O O O & O O O O O O O O O ",
"O O O O O O > & O O O O O O O O O O O O > O j O O O O O > O O O x x p o O p S P S I v , & p + > O O O O O O O O O O O O O O O O > O O O O O O O > O O O O O O O ",
"O O O O O O O O O O O O O O O O O O O O O O O O O O O O & O O O + x o o M D U GXBXG.~ F & O O & O O O O O O O O O O > O O O O O O O O O O O O j O O O O > & O O ",
"O O O O O O O O O O O v O > O O O O O O O O O O O > v O O O O O k , O j x K / GXDX].S A v & O O O O O O O O O O O O O O O O O O O O O O & O O O O O O O O j O O ",
"O O O O O O O O O O O O O & O O O O O O O O O O O O & O O O O O O o + j a m I GXDX].S S N & + x O O O O O O O O O O O j O O O O O O O O > O O O O O O O O O O O ",
"O O O O O > O O O O O O O O O O O O O O O O O O O O O O O O O O & o v M A b.n.FXQ.W.;.=.H m O + x O p O n O O O O O O O O O O O O O O j O O O O O O O O O O O O ",
"O O O O O O O j & O O O O O O O O O j O O O O O O O O O O O O O x N j K f VXVXW.W.W.].S.Z V n n > O j O O O p j O O O > O O O O O O O O O O O O O O O O O O O > ",
"O O O O O O O O O O O O O O O O O O n + p o O O O + O o o j + p J M M K a VXVXA.W.K.B.b Z M Z F G j O O x O + O + O O j O O > O j O O O O O O > O O O O O O O O ",
"O j O O O O O O O O O O O O O O > n + x x & + v M J D n x D G C U R P A C NXVXW.W.W.B.b C J L J / B m N p n M D M n + O n + O + O O O O O O O O O O O > j O O O ",
"O O > O O O O O O O O O O O O O O O + O O O n M G m G n N K C Z z.lXnX' C A.W.K.K.W.B.b S Y ..g._ M S J p N P m G m + + O O O p O O O O O O O O O O O O O O O O ",
"O O & O O O O O O O O > O O j O O O O j O > G / g.Q  .L / d. .| k.f.c. .Y %.&.W.A.m.b F E ' ..` ` ( T ( H J ( T ( H Z n O v & O O O O O O O O O O O O O O O O O ",
"O O O > O O O O O O O O O O O O o p j O & n H Y nXv.nXL L jXjXkX-. .` ..| B I ].m.B.F J h.h.` ] ` *.h.] J H ..h.` H L n + O > + O O O O O O O O O O O O O O O > ",
"O O O O O O O > O O O O O O > O o > O + O p Z B f.d.` | ' S Q f... .B / g.A F W.B.b K B ] T m ] d.d.U S _ ` ' | g.B G n + O O > O O O O O O O O O O O O O O O & ",
"O O O O O O O j O O O O O O O O p & O j N m W W | ` *.d._ m T g..._ P ~ ` U / K.m.b ^ ) ] ~ P ` | | T B ' g.d.*.d.H H M N o O > p O O O O O O O O O O O O O O O ",
"O O O O O O O O O O > & O O O O O + x & G A hXjX| g.*.f._ m / g.` f.fX=.^ fXZ.^ I ^ C.Z./ =.fX..| -.R a ) d.d.d.' ( T J G O > O O O O O O O O v & O O O O O O O ",
"O O O O O O O O > + O n + N H J H J J J H a z.v.h./ P `  .( / ) -.C.J.;.%.C.F.;.:.;.zX:.~ Z.F.k.-.) ) R ` ` P ( _ W U S S J J H J J H N O O O O O O O O O O O O ",
"O O O O j > O O > j + x p M J B V Z G V Z Z h.gXd.U m ' h.] [ ~ k.fXxXC.%.xXxXxXJ.L.cXF.V.F.P.fX;.~ *.-.g.' m A T T R B N G Z B B A D N n + O & O O O O O O O O ",
"O O O O O O O O + n O + G S U R T T T T U U A U d.*._ A Z ^ ~ %.F.I.L.K.K.L.Q.L.L.L.P.cXK.U.P.xXD.%.~ / Z A T / ( B S U Y T Y T E T T G G & + j O p O O O > O O ",
"O O O O O > & O j + M Z T E W _ ( _ R W _ _ L A ) ' h.T P =.;.V.D.MXP.MX~.K.U.L.P.L.U.L.W.U.L.P.H.V.=.=.P P ( E P U R _ _ _ _ _ Q R _ A H Z N O O O O O j O O O ",
"O > O O O O O O v j M A gXkX' | ....| | | ' ( / C E g.hXzXxXK.K.L.Q.S.H.S.H.G.G.D.K.H.A.G.F.J.U.U.I.xXxXzX:.Y A Z gXz. .` | | X.| f.d.E U Z G + O O O O O & O O ",
"O j O O O O O O O + Z m h.jXj.z.l.j.x.l.x.j.j. .N / hXfXxXI.K.G.K.K.`.(./.`.(.'.'.(.).iX^.^.'.W.K.S.K.I.J.fX*.P a gXkXx.z.j.z.z.j.j.j.z.` B G + O O + O v > O O ",
"O O O O O O O O x p V A j.gXjXjXjXv.v.v.v.v.jXx.S ) zXF.P.P.K.K.H._.pXuXuXeXwXKXuXyXyXyXLXtXrXQ.A.K.K.L.I.F.:.I S g.v.v.jXgXgXjXkXjXv.nXh.S V p n j O O O O > O ",
"O O O O O O O O M G _ gXQ Q Q W W Q ( ( _ _ R W [ =.%.I.U.S./.LXHX9X X=X:XaXKXHX7X;X=XE.yX8XXXiXLXLX).A.P.J.=.C.kX' W Q Q _ W Q W W Q W R R H G n O O O & O O O ",
"O > v O O x O + N m  .nXW R Q ( R R ( ( W R ` *.:.;.&.K.L._.(.9XqX0X:XXX+X8X9X0X3X$X#XOX9X3X*X0XqX9X(._._.K.V.zXvX*.T W W W E W / _ R ' ' W Y M N O O x O O O O ",
"O & & O O O O O F G Q nX_ _ ' g.g.g.g.g.g.d.zXmXV.H.K.H.U.LX>X{.#XOXKX7X|.&X{.XX{.|.XX.X XR.%X@X%X|.2XHXL.H.S.P.vX:.*.*.-.h.h.` g.g. .gXx.W H G N + O O + n O O ",
"O > O O O O O O n S X.nX' R *.' U U P A ) k.vXvXJ.K.I.^.iX2X,X+X8X1X8XXX[.{.{.%X.X*X{.{.@X+X%X{.%XsX2X>XiX~.G.~.DXC.:.hX_ P P / P ( ..jXj.W Z Z n O O O O O O O ",
"O O O O O O O + V B ' nXQ R g.U m Z Z C [ fXvXvXQ.K.A.HX9XT..X|.eXuX|.$X%X%X%X{.oX{.%XoX{.%X=X{.-XUX1X{.aX'.K.Q.DXF.F.fX/ m m C m E  .v.l.E L Z n O O O O > O O ",
"O O O O O O O O m V ' mXQ E d.` ` -.k.-.Z.C.cXNXP.P.K.eXeXKX<X+XqXuX{.+X{.*X{..X%X{.+X XpX1X{.}.oX:X.X[.rXeXH.P.DXG.;.k.-.' | ' ` | | v.l.W A V N + O & O O O O ",
"O O O O O O O O N G _ j... .f.hXk.fXbXzXzXzXcXNXW.L.S.'.uXqX8X-X9X2X+X+X[.XX%X{.OX,X+X:XqX3X%XoX%X#X#X X8XiX_.CXAXcXF.zXk.k.h.j.h.h.f.v.x.T H G N O O O O O O O ",
"O O O O O p O O O O N a gXkXvXvXZXZXNXZXNXNXNXvXU.U.A.HXrX|.8XLXOX%X}.@X&X#X%X|.7XLX:X%X{.+X{.5X.X@X{.%X{.OXpX^.S.CXDXZXvXmXnXjXnXnXnXnXz.R Y Z N + O O O O O O ",
"O O O O O j O O & j B C ..h.zXxXcXxXI.cXcXcXxXI.J.~.(.8X,X+X8XwXOX#X.X|.%X}.OX8X2X>X}..X+X#XoX[.{.{.#X%X}.:XaX/.S.CXcXI.zXk.d.|  . . . .' A Z B N O O O O O > O ",
"O O O O O O O O O O D F ) :.;.P.U.H.V.MXQ.L.D.C.D.iXuX-X{.}.1XtX-X[.%X5X|.oX,XLX7X{..X{.#X|.{.{..X{..XoX{.-XKX/.S.L.P.F.=.-.T T Y E W E L Z N O O O O O O O O O ",
"O O O O O O O O O j P ~ xXcXP.).HXCX~.wX'.AXL.L.H.).wX-X#X+X}.:XoX%X{.{.%X{.#XXX|.4X#X{.XX{.*X*X%X+X7XpX&X-XwX).H.AXCX;.=.I A C G ' z.' Y V M j O O O O O > O j ",
"O O O O O O O O + + F ~ cXNXQ.).uX).`.iXSXDX~.P.H.(.HXOX{.*X%X#X{.#X|. X#X:X:X*X|.XX+X*X.XoX3XT..X+X1X9X,X1XtX(.S.SXCXF.;.) P A a  .nX .P V G + O O O O O & O O ",
"O O O O O O O O n O J ~ cXNXQ.SXwXKXPX~.vXZXBXK.A.).uX:X{.+X{..X+X4X}.|.|.yXrXoX%XoX|.oX{.sXKX-X X=XoX[.9XKXyX).S.SXCXV.F.fX-.` m ' jX_ Y Z Z + O O O O O O O O ",
"O O O O O O O O + O J ~ vXZXK.).wXyXeX'.SXCXcXL.H.`.yX0X1X+X[.[. X[.oX,X8X7X:X[.&X*X%X;X+X-X>X=XT.[.*X@XuXPXpX~.G.AXCX;.fXfX/ P T f.kXQ P V D + O O O O O O O O ",
"> O O O O O O O > j J ~ bXZXI.).JXPXuXeXPXCX~.Q.D.).tXyXrX@X%X%X[.+X+X1XKX X+X%XoX{.*X}..X*X{.oX*X*X{.|.9XuXuX/.D.AXCXD.C.hXP S ..z.jX' H Z Z O O O O O O O O O ",
"O O O O O O O O O + F F zXvX:.Q.).~.^./.ZXCXQ.K.G./.JXtXqX{.{.*X{.*X+X7XUXOX*X;X;X}.sXeXuX2X.X{.+X*X.XT.XX3XuX(.G.DXZXF.C.fX` -.| j.v.Q U Z M O & O O O O O O O ",
"O O O O O O O O O O Z F k.mX;.D.cXL.J.I.cXZXcXP.H.).yX9X8XXX[.#X.XOX,X1X9XXX[.{.oX3XqXeXKX0XOX*X.X|.%X.X{.-XKX/.D.AXCX;.:.:.' _ _ f.v.' Y V M O O O O O O O O O ",
"O O O O O O O O v o M G x.z.-.=.%.%.=.^ C.ZXL.L.J.^.tX-X$X XoX*X|.XXLX1X+X[.T.$X7XHXyXuXeXJXJX-X@X.X*X*XoX-XKX(.H.AXCXF.%.I G C B ' jX .L V m O O j O O O O > & ",
"> & O O O O O O O + D B l.z.) -.C.:.V.I :.ZXP.U.G.).yX3X%X|.{.+X@X6XIX1X{.@X+X#X2XLXyXuXHXKXuXOX{.{.{.{.}.-XyX/.S.AXCXF.>.^ / Y m ' nXQ H Z M O O O O O O O O O ",
"O O O O O O > O O + G S l.z.! ) :.fXC.~ :.ZXcXL.D.).uXOX@X;X@X{.T.OXyX2X$X*X*XoX7XpXrXwXtXyXwXOX.X+XXX}.|.-XwX/.S.AXCX;.;.~ -.] M ' jXX.T G M o O O O > O O O O ",
"O O O O O O O O O O D V l.x.E T G :.fXZ.bXNXQ.L.H.(.yX:X#X%X%X@X9XuXLX1X|.@X-XqXuXLX>X:XwXHXuXuX8X+X.X.X%X,XKX).H.AXCXF.%.I A S ` l.v.Q Y V M O O O O O O O O O ",
"O O O O O O O O O o D V l.x.R A m ] Z.:.bXvX~.K.S.(.KXOX+X2XXX}.rXeXLX2X|.[.OXLXqX0X&X&X9XuXeXLXrX.X.X%X#X-XKX^.H.AXZXF.=.[ U A ' h.v.Q Y V M O O O O O O O O O ",
"O O O > O O O O v o N F l.z.W H m N D ^ :.ZX~.L.F.).KXXXOXUX8X{.qXwXJX<X+X.XOXLX1X}.&XXX{.8XLXtXqX{.*X+X[.:XyX).S.CXDX;.F.C.-.` m ' v.' T Z V + O O O O O O O O ",
"O O O & O O O O x o M Z l.x.R R W Z P =.zXZXP.P.A./.yX-XoX7XOX{.9XtXJX2X$X%X.X3X=X%X{.[.{.2XyXJXqX%X@X{.1X0XKX/.H.AXCX;.;.=./ P m ' nXQ H G Z + O O O O O O j O ",
"O O O O O j O O & O D B l.x.R ' g.S P C.bXNXcXL.H.).yXOX{.+X+X%XrXtXHX1X{.}.@X{.}.+X}..X+X7XLXeXrX+X+XXXuXwXyX^.A.SXCXF.=.^ V B M  .nX_ Y V V O O O O O O O O O ",
"> O O O O O O O n + D B l.z.R ' g...` Z.bXZXP.L.G.(.yXtX9X%XoX@XrXeXyX7X#X%XOXKX2X+X{. X#X1XHXJXrXoX{.*X.X:XKX).H.AXCXF.:.hX-.' | l.v.Q U S V j O O O O O O O O ",
"O O O O j O O O O o D B l.z.T / ( W *.C.bXZXQ.L.H.).tXHXqX.X.X#XrXtXPX8X+X.XOX0X<XE.%X*XOX0XHX9X8X%X|.+X%XOXyX^.S.AXCX;.C.C.-.*./ h.nXQ U Z V j O O O O O O O O ",
"O O O O O O O O O + M Z l.z.R U V a P C.bXvXP.L.H.).tXtXqX.X.X.XrXKXHX7X|..X.X+X8XLXXX6XUXKXyX-XT.{.%X#X{.OXpX).D.AXCXD.C.C.) I m Q v.' U S m + O O O O O O O O ",
"O O O O O O O O O O M Z l.z.R A M Y ) =.fXZXBXU.S.(.uX8X,X+X|.{.>X1XJX9X0X;X{.#X-X>X&XXXeXLXHXXX@X+X.X*X[.-XIX_.S.AXZXC.;.=.=.>.P d.jX .L S V + O O O O O O O O ",
"O O O O O O O O O o D B l.z.Q A D ] ] I :.ZXQ.L.S./.tXOX+X+X{.#X+X&XtXuXHX-X@X@X@X+X{.:XKXuXeXOX#X@X.X%XR.:XKX/.S.AXCXC.=.^ :.C.I k.jX_ Y Z S + O O O O O j O & ",
"j O O > O O O O O O D Z l.z.R A a S F ~ C.NXP.U.H.).LXOX#X*X{.%X@X-XKXwXHX-X{.|.{. X9XqXKX7X|.@X%X%X[.XX9XuXKX^.S.AXCXF.=.^ =.=.J.bXmXR L M B x O O O O O O O O ",
"O O O O O O O > x + G B l.z.E T Y L P ) fXNXQ.Q.H.).HX-X.X{.OX>X XXX0XtXtX3X:X3X3X:XrXtX0X:X=X%X.X=X{.{.rXKXtX(.S.AXCXV.V.V.V.H.J.cXvX*.T Z M j O O O O O O O O ",
"O O O O O O O & & o D Z l.z.R _ -.f.-.fXbXZXP.U.G.iXuXOX[.{.8XKX-X@XR.2XKXKXwXyXtXtXLXrX@X.X{.@X@X{.#X.XrXLXKX).H.AXCXV.J.MX~.CXCXBXNX:.) F M j O O O O O O O O ",
"O O O > > O O O x o M S c.l.W _ | Y / C.xXvXP.Q.S.(.wXOX%X{.8XJXXX#XXX:X3XrXuXtXHXwX1X-X.XXX[.%X%X{.%X[.:X8XyX).G.DXCXJ.~.'.PX`.PXAXBX:.) Z S + O j O O O O O O ",
"O O O O O O O O x > D G j.z.( ( ..A P Z.xXZXcXP.J.).JXXX%X[.2XwX-X+X{.*X|.iXtXuXyXqXOX*X}.XX.XXX}.+X#X{.{.OXtX^.S.AXSXK.`.tXwXuXeXPXDXF.[ A m + O O O O O O O O ",
"O O O O o O O O o o M M z.z.E ` f.' ' ~ C.NXBXW.D.(.LXOX@X$X%XXXrX9XR.#X*X;X}.=X&X-XXX+X|..X#X@X.X{.%X|.+X-XtX^.H.CXAXU.).HXtXeX~.BXNXF.;.^ F + O O O O > O O O ",
"O O O j O O & O & , V V x.x.E R ' ) ) ^ C.ZXI.W.G.^.yX3X-X*X[.{.rXrX{.%XXX+XXXoX|.%X{..X,X-X|.%X%X3XOX.X%XOXIX).G.DXAXK.`.KXiXPX/.CXNXF.V.~ P & O O O O O O O O ",
"O o O O O v O + j + m Z c.l.' A m v G >.k.NXBXU.S.).LXKXrXoXoX#XeXiX%X#X|.%XXX%X$XoXoX:XyX1X{.#X,XLX7X$X%X-XIX^.G.AXAXcX`.wX/.AXuXPXAXzX;.~ H x p O O O O O O O ",
"O O O O O O O O k + F m z.z.U R ( E ! s f >.D.Q.H.).yX7X,X%X*X.X3X>X0X3X|.oX{.*X.X{.*XXX1XOX@X;X-XLX1X{.XX:XyX/.;.CXAXI._.).>.>.,.,.>.;.;.%.F l j > O O O j O O ",
"O O O j O o p p a , G C z.v.E '  .h.Q 2 : : :.P.H.(.eXOX{.}.{.{.#X-XyX8X{.{.*X+X&X#X%X[.|.+X.X{.OXIX3XoX%XOXwX].,.AXQ.;.I.cX7 - 3   - >.C.~ P v n O O O O O O O ",
"O O O & O o p a 6 s a Z x.v.lX! : 6 7 +.e 3 s 1 7 w 7 dX4X=X.X+X X+XOX|.#X+X|.oX{.XXoX@X@X*X{.qX9X X%X}.4XB.f w 8 1 f bX>.1 - 4 +.y : >.>.s 9 7 O O O O O O O O ",
", o o j O N a q 5 0 s a ' c.c.g 5 y u O.y ; : 2 3 3 - $.M.B.T.|.+X%X{.@XoX-X:X&X%X{.|.|.%X%X X8X7X%X&X{.M.$.- : 6 4 q :.f - w y <.0 : I g w 4 7 p > , o O j O , ",
"j k O k o s 8 r <.O.y 3 - - 2 e O.0.8.1.e - 7 - : 6 ; : 2 $ m..X|.[.}.#XR.uXuX%X$X$X+X%X%X+X{.+X.X+X+XXXf   2 : 2 +.r - 6 2 i +.<.y ; ; 5 +.q 6 p j k j > O O O ",
"n O O v j > m q e O.i e e r 0 <.7.e.8.{ u 0 2 7 : w u 4 - - 1 $.T.[.%X*X{.:X7X8X0X8XXX.X.X[.&X%X{..X@X|.1 4 3 q i t O.q e e 9.1.q y r e e 2.0 6 n j n + o p + n ",
"O O o O O j k s 7 +.<.<.O.1.<.5.s.w.e.<.<.+.q 2 2 0 <.5 4 2 3 - dX X|. X%X*X:XeXHXyX,X{.@X[.oX[.%X{..XoX1 7 - y <.2.O.3.<.2.u.7.- 0 <.3.3.O.e 7 a > O a , o + & ",
"O > o o O O n s 4 t 1.e.e.9.t 6.w.r.e.8.1.O.+.e ; 2 2 i i $ $.oX%X4X*X%X%X4X#X.X=X=X%X=X*X*X4X#X*X=X#X$XaXW.- 0 @.+.1.w.q.w.<.{ t 1.q.w.7.O.+.@.8 a O p O + n + ",
", p o k j n a 8 e 1.7.i.r.e.1.6.a.w.i.s.7.3.1.3.w 0 5 +.O.5 ,.N.N.M.N.N.N.N.N.N.N.N.N.N.N.N.N.N.M.M.N.N.^.!.q i +.3.4.w.e.t.4.1.1.7.i.i.0.1.<.O.0 q A a N N j o ",
"O j o k O a 7 r <.u.t.t.w.w.a.y.y.w.i.q.w.i.t.8.+.O.{ u <.+.r O.t { t t t { <.{ O.O.t t O.t t { <.{ t O.{ t { @.{ 0.a.t.e.y.a.t.p.t.y.q.r.a.6.t O.t 2.5 6 n + p ",
"O O o p s g e 5.e.w.q.q.y.t.r.w.i.i.w.e.a.w.r.q.6.7.9.7.6.9.6.6.0.7.6.7.7.7.9.9.6.7.7.7.7.7.7.6.7.7.7.9.6.0.9.9.7.w.a.q.w.p.r.q.q.w.t.i.w.w.8.9.7.7.6.5.3.g S j ",
"j , > S 4 e 3.e.r.t.u.e.y.q.y.w.q.u.0.q.p.y.w.t.t.i.a.t.t.a.r.t.y.w.y.t.e.r.a.t.t.w.y.e.y.i.r.t.y.q.t.i.i.t.p.q.r.w.p.e.q.q.y.q.t.q.e.q.t.e.u.i.p.y.r.a.u.0 8 D ",
"O j m 7 i 5.q.w.r.s.9.<.8.y.s.6.<.<.1.<.6.a.q.w.e.t.a.t.i.y.6.2.<.3.3.<.1.u.i.t.4.<.<.<.<.3.2.<.<.{ 6.e.i.8.<.<.<.3.<.{ 9.i.q.t.y.6.<.<.<.<.6.t.i.8.<.<.<.+.g 7 ",
"p C g 5 u 6.i.q.q.6.1.t 8.p.0.1.u r r t 1.8.q.a.i.t.r.7.7.8.3.r r r e r e 5.7.a.9.u r t r i e @.O.t 6.a.8.4.<.r r r i O.1.w.w.r.i.1.0 +.O.u 9.t.e.1.O.O.i O.r 3 ",
"s 4 e 3.O.6.a.t.e.2.O.2.u.8.u <.O.7 7 O.{ { 8.p.w.i.y.3.2.+.q - ; 7 ; - - @.1.u.6.u 5 - - 2 6 O.<.+.6.p.3.O.<.0 - - 4 2.t t e.t.i.<.; i <.{ 9.i.<.<.+.q 6 @.u 4 ",
"a 2 r <.4 3.i.6.<.<.e 8 r { 2.5 6 6 6 8 r 2.O.3.y.0.1.e 5 y 9 * h d * = h 8 i 4.@.0 h d d a * 0 0 w O.9.<.t q 7 7 @ $ q i +.4.4.i.<.  +.{ $ q O.0 e O.0 2 8 g a ",
"s ; +.u   <.p.2.O.O.e 6 $ 3 +.h X $ 2 ; 0 +.2 7 e.5.t 4 2 - * z d = % = d 9 2 @.w $ d } = = c * 6 2 0 @.+.y : 6 2 X # - 0 2.t 2.p.O.- t y X @ - ; 7 O.e 3 ; a x ",
"a 4 2 6 4 4 5 5 5 2.8 X 6 ; @ # X X @ 2 - 7 : 7 *   4 4 ; # * } } o.% % z c * 7 * # d d = % c % & 6 3 5 7 7 - @ X c * 7 : 5 t t @ 6 2 @ . X @ X 6 - 4 3 6 X o N ",
"B 8 4 ; - ;   ; 7 i $ .   6 . . # X # 6 2 3 ;   X @ 3 6   X * d o.= z c % % * - @ . = = c c * c * 6 6   - 2 6 @ X c *   ; 2 y q % X   @ . . X . $ 7 ; : 6 + & & "
};
