/* XPM */
static char *e41064cc95e74dcfb0d79e29db76c898lwxHoDZCW9Nxm6XE[] = {
/* columns rows colors chars-per-pixel */
"80 80 191 2 ",
"   c #171316",
".  c #171318",
"X  c #1A1418",
"o  c #1D1D1C",
"O  c #21161A",
"+  c #1F1F20",
"@  c #1E1D2F",
"#  c #1F1E31",
"$  c #201F20",
"%  c #201F2E",
"&  c #201F31",
"*  c #232224",
"=  c #24232F",
"-  c #29272E",
";  c #27282A",
":  c #2C2A2E",
">  c #322E2E",
",  c #35322D",
"<  c #3A342D",
"1  c #3E392D",
"2  c #242233",
"3  c #2A2731",
"4  c #2E2C33",
"5  c #262639",
"6  c #292739",
"7  c #2C2D3C",
"8  c #332735",
"9  c #322A33",
"0  c #3A2B35",
"q  c #322E3B",
"w  c #2E313C",
"e  c #343434",
"r  c #3B3433",
"t  c #3D3C34",
"y  c #33363D",
"u  c #39363A",
"i  c #33383F",
"p  c #39393D",
"a  c #443C2D",
"s  c #433532",
"d  c #453B31",
"f  c #4D3C32",
"g  c #423E39",
"h  c #503E33",
"j  c #523A38",
"k  c #5B3E39",
"l  c #46412A",
"z  c #4C442B",
"x  c #4F482A",
"c  c #53462D",
"v  c #51492A",
"b  c #5C4D2E",
"n  c #5E532F",
"m  c #4E4234",
"M  c #464538",
"N  c #4F4239",
"B  c #574432",
"V  c #5B4635",
"C  c #5D4934",
"Z  c #5C4239",
"A  c #5D4838",
"S  c #614E2F",
"D  c #64552F",
"F  c #624B33",
"G  c #66463B",
"H  c #664D39",
"J  c #694B38",
"K  c #734B3E",
"L  c #655132",
"P  c #6B5235",
"I  c #6B5A32",
"U  c #675038",
"Y  c #725536",
"T  c #755937",
"R  c #785C37",
"E  c #73513B",
"W  c #7D553B",
"Q  c #765939",
"!  c #7C5D3A",
"~  c #746335",
"^  c #796336",
"/  c #7C6139",
"(  c #2E2F40",
")  c #2F3042",
"_  c #333442",
"`  c #353B43",
"'  c #393D45",
"]  c #363949",
"[  c #3A3E4A",
"{  c #3C3D51",
"}  c #413F43",
"|  c #3F4047",
" . c #3D424B",
".. c #3E4351",
"X. c #42454E",
"o. c #494948",
"O. c #50514F",
"+. c #414651",
"@. c #444A55",
"#. c #494B55",
"$. c #45465B",
"%. c #464D59",
"&. c #494E5B",
"*. c #4B515E",
"=. c #5C5554",
"-. c #56565E",
";. c #5A5A5C",
":. c #685445",
">. c #7C5E43",
",. c #745A4B",
"<. c #655A5A",
"1. c #6A6355",
"2. c #7C6B5B",
"3. c #4B4E62",
"4. c #4E5462",
"5. c #4F5368",
"6. c #535663",
"7. c #535965",
"8. c #585B65",
"9. c #52566A",
"0. c #555B6A",
"q. c #595E6C",
"w. c #595F71",
"e. c #5B616E",
"r. c #5C6373",
"t. c #5E6578",
"y. c #6A6669",
"u. c #7F736A",
"i. c #616675",
"p. c #626877",
"a. c #616779",
"s. c #656B7C",
"d. c #696E7C",
"f. c #6C7076",
"g. c #6B707F",
"h. c #7B7472",
"j. c #84573E",
"k. c #845B3D",
"l. c #85633C",
"z. c #846A3A",
"x. c #875E41",
"c. c #886A46",
"v. c #816653",
"b. c #896E54",
"n. c #887251",
"m. c #817264",
"M. c #666D81",
"N. c #696F82",
"B. c #6C7284",
"V. c #6E748A",
"C. c #707585",
"Z. c #737887",
"A. c #71778C",
"S. c #747A8D",
"D. c #787E8D",
"F. c #757C92",
"G. c #797E95",
"H. c #797F98",
"J. c #7B808F",
"K. c #7C8195",
"L. c #7D839B",
"P. c #808597",
"I. c #80869D",
"U. c #848A9D",
"Y. c #898E9F",
"T. c #8187A0",
"R. c #858BA3",
"E. c #898EA5",
"W. c #898FA9",
"Q. c #8C91A5",
"!. c #8C92AC",
"~. c #9096AD",
"^. c #9499AB",
"/. c #9499AE",
"(. c #8F96B0",
"). c #9197B0",
"_. c #959AB3",
"`. c #999EB4",
"'. c #999FB8",
"]. c #9DA2B6",
"[. c #9DA2BA",
"{. c #A1A6BD",
"}. c #A4AABE",
"|. c #A2A7C0",
" X c #A5AAC2",
".X c #A9AEC5",
"XX c #ABB0C7",
"oX c #AEB3C9",
"OX c #B1B6CC",
"+X c #B3B8CE",
"@X c #B5BAD0",
/* pixels */
"9 -.-.-.6.6.8.u $ $ $ $ } 8.-.-.6.-.-.-.-.-.6.8.-.-.-.u + + + + o.8.8.-.-.-.-.-.4.6.8.-.-.8.-.4 * + + * @.;.8.8.-.-.6.-.-.-.6.;.r.0.4.; * + + * @.7.;.7.9.4.0.4.",
"8.XXXXXXXXXX XP.F.q.u 8.'.OXOX}..XOXXX.X XXX.XXXXXXX XK.F.7.y e.[.oXoX X.XOXXX.X X.XXXXXXXXX|.F.D.*.i r.[.@XXX}..XOX.X X.X.X.X.X@X@X{.J.J.*.i d.}.+XoX}..XOXXX X",
"&.!.!.!.).!.~.!.W.P.+.Q.|._.`.Q._.[.(.(._.!.(.!.!.!.Q.!.Q.K.@./.{._._.Q._.[.!._._.(.!.(.!.(.!.W.!.S.#.].[._._.Q._.[.!._.).).~.).|.L. XL.L.J.%.[.[._.^.L.[.|.(.[.",
"#.!.!.!.!.!.W.W.W.U.7.W.{.`.'.).(.!.!.!.!.!.!.!.!.!.!.!.W.L.6.~.[.].].(.(.Q.!.!.W.!.!.!.Q.!.!.!.W.K.6./.[.'.'.(.~.!.!.!.W.W.~.W.L.|.L.L.L.L.0.[.].].].].'.L.(.L.",
"#.!.!.!.!.!.E.W.Q.T.7.L.[.!.!.!.!.!.!.!.!.!.!.!.!.!.E.Q.E.L.4.E.'.!.!.!.!.!.!.!.!.W.(.!.(.(.L.!.E.L.4.^._.!.!.!.!.!.!.!.).W.).!.L.{.L. XL.L.0.{._.L.L.[.L.[.(.(.",
"#.!._.!.W.R.I.W.W.T.0.L._.!.!.!.!.!.(.!.!.!._.(.!.R.R.Q.Q.L.7.L._.!.!.!.!.!.!.!.(.W._.!.!.L.E.Q.Q.K.7.E._.!.!.!.!.!.!.!.W.!._.!.L.L.L.L.L.K.0.L._._.'.L.L.'.'.L.",
"#.!.~.W.W.H.V.P.S.B.+.F.!.!.!.!.!.!.!.!.!.!.(.!.L.H.V.L.F.d.@.L.!.!.!.!.!.!.!.!.!.(.(.W.L.L.Z.L.K.t.@.L.!.!.!.(.!.(.!.!.W.).).W.L.L.K.L.L.p.%.L.L.[.L.|.'.(.(.(.",
"#.W.R.G.G.V.U._.p.e.@.A.(.!.!.!.!.(.!.!.!.W.L.K.H.V.R.).p.0.@.F.!.!.!.(.W.L.T.T.L.L.K.N.J.V.!.Q.r.7.@.L.!.!.(.!.!.!.).!.W.W.T.F.K.J.L.L.t.0.%.L.'.L.[.L.L.'.L.'.",
"| L.!.U.K.Q._.M.*.*. .*.A.S.F.L.E.L.L.L.J.L.!.L.K.!./.s.4.&. .*.A.B.B.B.B.C.C.C.C.B.g.g.s.g.K.r.*.*. .4.S.S.S.L.W.H.I.I.S.L.~.L.L.L.L.t.4.4. .4.J.K.K.L.L.L.L.L.",
"' P.L.r.4.r.4.@.@.@.` y  .@.%.4.0.*.4.7.0.L.K.e.4.e.4.@.%.@.`  .9.B.Q.^._.oXXXXXXXXXXXXX!.E.Q.f.*.%.i ` ..%.%.7.0.3.4.9.r.U.K.7.4.0.r.*.%.+.i `  .%.%.4.0.4.0.0.",
"; %.B.B.D.S.S.D.D.D.Z.S.D.J.J.J.J.B.e. . .%.C.J.J.J.D.d.@. .&.0.{.oXXX.X'.!.!.!.Q.T.Q.!.!.[.[.XX].6.%.y r.J.K.D.Z.Z.8.y  .4.Z.C.K.K.K.L.J.J.J.K.J.J.K.K.J.J.r.` ",
"* i._.|..X X.X.X.X X_._.[. XoX_.].L.E.e. .t._.[..X].U.e.4.M.Q.4.P.XX[.!.R.T.W.!.T.R.L.R.L.L.W.L.d.*.S.r.e.Y.{._._.T.W.4.' S._. X X|.|.oX X[.L.[.L. XoX[.L.L.L.t.",
"* U._.Q.!.!.L.H.F.F.L.W.R._._.!.!.(.L.E...Q.).!.L.0.4.C._.oX[.r.e.}.'.W.T.L.R.T.W._.K.V.L.N.V.t...0.E.oXQ.t.e.B.E.Q.E.D.+./.~.!.'.L.L.L.L.L.L.L.L. X[.L.'.L.L.L.",
"* ^.{.!.!.!.!.W.Q.W.Q.(.!.!.!.!.!.W.L.L.e./.].V.e.r./.OXXX_.!.N.@.K.[.Q.!.R.L.!.W.H.K.L.K.0.r.4.%.D. XXX_.(.P.r.e.L.L.V.@.{.`.!.L.(.(.(.L.L.'.(.|.L.L.'.L.L.L.L.",
"* H.).Q.!.!.!.(._._.(.!.!.(.W.L.L.M.M.F.e.K.M.*.K..XoX X_.!.T.F.s.r.K.L.!.(._.R.F.N.F.K.t.3.%...V.].oX X!.!._._.B.*.M.0...Q.!.!.(.(.L.'.|.'.L.'.L.'.L.L.L.t.t.J.",
"* A.W.L.T.!.!.!.!.(.[.[.!.L.R.V.s.V.M.N.7.4.4.K.XX X].!.!.(.L.F.N.@.4.e.M.M.t.*.*.4.0.3.4.4.3.4.L..X.X].!.!.!.!.].B...`  .L.E.L.L.(.'.(.L.(.|.|.(.L.L.L.t.J.t.J.",
"* V.F.V.A.R.(.!.W.(.[.|.(.L.L.V.L.!.J.t.....L.oX|.(.W.!.!._.L.L.M.%.` _ ..] 7 q w q _ 7 { [ _ q.^.@X[.!.!.!.W.L.(.(.M. . .F.V.V.J.L.L.'.L.|.|.[.L.L.L.K.L.L.J.t.",
"$ 4.V.V.N.N._.!.K.A.L.L.L.K.V.V.V.B.p.4...L..X].(.L.K.L.R.L.V.M.@.) 3 - > , - - 3 : - ; 3 = 2 ] a.].[.!.W.L.L.L.W.F.L.%. .4.B.V.t.J. XL.L.L.L.L.L.L.M.J.J.J.0.%.",
"$ ' *.4.0.0.a.B.t.V.V.d.t.e.9.t.r.e.*.*.L.{.L.!.(.(.(.!.L.A.t...5 2 < v b F a c P T J J B a 1 1 t &.L.(.L.H.R.!.!.H.M.r.t.| %.4.4.r.p.J.M.J.M.M.t.0.5.w.r.4.4.*.",
"* _ y y ` ' [  . .*.*.%. .]  .........C.].!.K.K.L.Q.Q.N.w.] ( # : a S R k.! c b k.z.j.x.K f I R b e 4.F.K.K.K.L.L.M.%.3.e.&.w `  .i  . .` 4.%...] ] ..@.@.%.@.@.",
"X.Q.E.E.E.E.Y.e...| y ` g.Q.Y.Y.L.e. .0.p.K.J.K.V.V.M.0.[ & = 1 l v R z.k.l.Z B k.l.k.k.K f / k.R c r *.M.e.M.F.C.%.%.%...4...e.L.L.L.q. .` i  .K.L.L.L.L.].L.L.",
"-. X{.|.{. X[.R.E.C.` B. XoXXX].J...K._.g...*.0.w.r.4...2 2 < L h S l.l.k.l.G B W l.k.l.E h ! l.l.W c r &.4.0.t.e...%.*.S./.J. .J.}.}.L.L.e. .L.XX+XXX[.XX@X XXX",
"#.Q.!.W.!.!.!.!.E.L.*.!.[./._.s...L.+X+X+XL.w. .@.4.[ 2 @ 1 L k.k F l.l.k.z.G B j.l.x.k.E h W l.l.k.A l e %.4.&.....J.[.+X[.E.t. .s.L.'.^.J.4.{.[.L. X|.`. XL.[.",
"%.!.!.!.!.!.Q.Q.!.U.*.R.[.].Q.*.e.+X.X[.[._.L.0.[ [ 5 # > L l.k.k F l.l.k.k.G B k.l.j.l.K h W l.l.l.A c v e [  ...J.OX+X[.(.!.R.4.4.L.L.L.J.4.].L. X[.L.L.L.[.L.",
"#.W.!.~.!.!.R.!.W.E.q.L.[.W.L.%.L.XX^.Q.L.'.L.K.t.5 # 5 l R l.j.k F l.l.k.k.H B W l.j.l.K c W z.l.l.A C W b t 0.{.}.XX|.(.!.(.(.J.i J.L.L.L.0._.|.L.L.'.L.(.(.'.",
"%.~._.!.!.L.L.R.U.F.*.G.(.!.M.*.].].L.L.L.(.(.L.M.# @ w C k.l.j.k F k.l.l.k.H B k.l.j.l.K f W l.l.l.A C k.l.B p.}.OX X(.W.!._.(.t.` *.L.L.K.0.L.(.(.'.L.'.[.L.L.",
"#.!.Q.R.L.F.B.Q.B.g.@.F.!.!.e.p.}.(.(.L.L.L.L.V.r.2 ; t F x.z.k.k F k.l.l.k.U B k.l.j.l.E B W l.l.l.A F z.l.b M L.@X].L.W.!.(.L.J... .K.L.r.%.L.L.'.'.'._.L.'.(.",
"#.T.R.H.K.D./.Q.e.4.@.s.!.!.e.B.'.(.(.(.L.K.K.J...2 e l F k.z.x.k F k.l.j.k.H B k.l.j.k.E f W k.z.l.A C z.l.I t p.}.].K.L.!.(.L.J.%. .N.r.4...J.L.(.L.'.L.'.L.L.",
"' L./.P.A.T.P.0.4.*. . .r.t.%.d.(.L.(.L.L.L.N.r.) & l d F k.z.l.k F k.k.k.j.U V j.l.k.l.E h j.k.z.l.C F l.l.R 1 4.L.'._.L.L.W.L.K.*.i ..4.4. ...M.M.M.K.L.J.J.K.",
"u N.B.*.%.-.%.%.%.@. . ...@. .Z._.L.L.L.L.K.t.4.) 2 z f F k.z.k.k F j.k.l.k.H B k.l.k.l.K h W k.z.l.V F c.z.l.C  .V.L.L.(.E.J.M.t.*.`  .*... . .*.%.%.%.4.0. . .",
"; %.U.~.`.`.`.].]./.^.~.`.`.e.e.K.L.L.L.M.t.s...# > n k F k.z.k.k F j.j.k.z.H B k.l.k.l.K f W k.l.z.Z b z.l.z.n y %.B.L.L.L.M.0.r.r. .i J.(.'._.'.'.L._.L.L.t. .",
"* B.~._.[.[.`._._._.Q.!.Q.].g.....e.*.....*.4...# , C Z F k.z.k.k F k.k.k.z.G B j.z.k.l.K h W k.z.z.k F z.l.l.I M ....0.w.0.4.0.0. .w  .J./.L.'.L..X+XL.'.L.L.M.",
"; (.[.(.(.L.L.K.A.J.L.W.!.(.e. .i.B.B.N.i.r.+.( & , C k C k.l.l.k F k.l.k.z.G Z k.l.k.l.P h W j.z.b.k F z.l.k.>.s ] 6.g.g.d.s.q. .i i ..s.K.L.L.'.'.L.'.L.L.'.L.",
"; L.[.(.(.(.(.(._._.(.(.!.K...J..XXX}. X{.T.s.[ @ < b j F j.l.l.k F k.k.l.z.G B k.k.k.l.K h j.b.u.=.k F 2.>.! 1.( Z.}.OXoX X_.!.B. .i ..K.(.'.'.L.'.'.L.L.K.L.L.",
"* J.(.L.!.!.!.!.(.(.(.(.!.J.4.}.{.!.W.!.~.E.G.9.& < J :.B j.l.k.G C k.l.z.k.G B j.k.l.l.K f 2.y.$.4 8 0 y h ,.] 6 Q.OX[.!.!.Q.T.L.B. . .B.L.'.L.'.L.L.L.J.w.t.J.",
"* V.L.J.L.!.(.(.W.(.{.|.(.B.4.}._.!._.R.R.W.F.9.# r x.m._ F l.x.h._ F l.l.j.G B k.k.l.l.K B O.2 ] ( & 2 +.3 q ] 7 ^.}.!.!.R.!.T.L.K. .i B.'. X XL.L.L.M.K.L.M.M.",
"* s.A.V.J.K.(._.L.L.'.'.W.V.e.].~.!.~.I.R.T.V.9.@ #.y.f.( u h.y.q.( O.H l.j.G B j.j.k.l.K f h = & & % & & = = w 7 P.'.T.W.L._.T.L.V. . .N.W._.(.L.L.K.V.L.L.J.4.",
"+ ..M.N.N.d.L.L.K.A.F.K.K.f.r.'.W.!.W.W.T.L.B.&.& 2 6 { 5 2 ( 5 2 # 5 1 / k.G B j.k.k.l.K f W V 2 = 0 , , < l y 7 V.W.F.W.!.!.R.J.t. .) t.V.K.J.L.L.M.N.M.t.0.0.",
"+  . . ...4.4.w.5.M.M.t.4...7.`.W.T.W.W.L.L.B.3.& & & & 2 # # 2 2 # @ 1 j.x.G B k.k.j.j.K h W k.C B m c v v v l y r.F.F.L.T.T.H.M.4.w  .7.M.s.r.5.*.4.0.4.*.....",
"; %.....%..... .)  . . ... .4.L.R.H.F.F.R.Z.s.[ & > a 3 & , a a 3 # , c W j.G B k.l.j.j.K h k.k.z.k.Z F Y ^ T x y $.M.N.B.N.r.w.r.*.i w  ... . ...%.*.4.4.4.4...",
"-.}. X}.}. X[.S.r.@.y @.Y.Y.*.*.s.w.4.4.4.4.[ 7 # < R B 9 z I k.B , x Y l.j.G B k.l.j.j.K h W k.l.j.k F j.z.l.U p ` +.*.*.*.*.&.*. .w ..e. .y *.`. X}.}.}.}.}.[.",
"*.]._.).]._.).Q.!.L. .K.}.L.%...8.q.8.7.4.@.` 7 & < ! B C Q ! k.k C R k.l.j.G B k.l.j.j.K h ^ z.l.j.k F k.z.l.R g w @.e.0.8.7.e.%.` i ..!.g.../.}.}.].!.[. X_.].",
"@.!.!.!.!.!.!.!.Q.L.7.^.}.K.*.L..X.X X X!.V.r.` 2 l R Z F j.l.l.k F z.k.l.l.G B k.l.j.j.K h ^ z.z.k.k F k.z.l.! z #.^.oXXX X X{.W.4.i  .J.J.4.[.]./.].(._.!.W.(.",
"#.Q.!.!.!.!.W.W.!.L.*.L.[.J.4. X X).).~.!.E.L.9.- x ^ Z C k.z.z.k F k.l.k.l.G B j.l.j.j.K f l.z.k.z.A F k.z.l.n O.^.XX[.~.(.(.).L.J. .i d.K.4._.].(.(.W.!.!.!.!.",
"%.Q.(.(.!.W.L.).R.E.e.L.[.A.4.[.!.!.!.W.W.E.F.5.- x / k F l.l.z.k F k.z.k.l.G B k.l.k.j.K h k.z.k.z.A F j.k.l.n r.XX).!.!.!.!.!.(.L. . .J.L.e._.(.!.!.!.W.(.!.!.",
"%.(.).!.E.L.K.L.J.J...K.(.F.3.L.!.!.!.W.T.T.H.5.3 v / Z C l.k.z.k F k.z.z.l.G B k.l.j.k.K h / z.k.z.A C x.l.l.n e.|.(.!.!.!.!.!.(.L. .i J.p.%.L.!.!.!.!.(.(.!.!.",
"#.Q.E.L.L.V.A.).N.t...F.!.F.%.L.!.!.!.!.L.F.A.5.3 v ! k F z.k.l.k F k.z.z.z.G B k.l.k.k.K h k.z.k.l.k F l.k.l.n 8.[.!.R.L.R.!.!.[.L. .i t.0.%.E.(._.!.!.(.(.(._.",
"+.L.R.L.L.L.].K.7.4...e.L.V.3.H.L.W.W.L.A.V.V.3.- x ^ k F l.k.l.k F k.z.z.z.G B k.l.k.l.K h / z.j.l.k C z.z.k.n 0.Q.W.[.!.W.W.Q.L.V. . .*.*...M.L.L.L.W.(.L.W.L.",
"' R.!.Z.t.A.s.*.%.%.' ` %.4.%.L.R.R.R.H.M.r.0...2 x ^ A F l.k.k.k F j.l.l.l.G B k.l.k.k.Y h l.z.k.l.k F z.l.l.D <.S.F.W.R.L.L.H.K.V. .) ....i  ...7.4.p.d.e.a.p.",
"4 6.p.8.q.0.e.q.e.q.6.7.0.8...p.R.R.L.S.0.0.&.[ 2 v ! B C l.k.z.Z F j.l.l.z.G B k.l.j.l.K h ! z.k.l.k F z.l.l.P N q.V.F.F.V.A.F.J.t. . .e.e.7.7.e.e.r.r.e.r... .",
"; 7.~.{.XXXXXXXXXX X`.[.}.U... .7.0.&.3.4.@. .w 3 v ! B F >.H / Z F k.z.z.z.G V k.l.j.l.E f ! z.k.l.k F l.l.l.j.C o.@.t.s.s.M.M.0. .w *..X.X'.{.}.XX}.].(.L.K...",
"; K.~.!.(.(.W.R.U.U.E.W.J.t...7.p.s.d.s.s.s.e.w 3 v ! A F h.y Q k F k.z.l.l.G B j.l.j.l.E h ! l.k.l.Z F z.z.k.j.C X.q.g.B.B.B.N.a. .i  .L.L.L.(.L.].'.(.(.(.L.J.",
"* Q.|.!.!.Q.R.L.K.K.L.(.!.s.*.].OXXXXXoXXXXX|.9.; z R A :.h.7 U k F k.l.l.l.J B k.l.j.l.E h ! z.k.l.Z F l.z.k.F e G.oXOX.X}._.`.'.K. . .N.L.(.L./.(.(.(._.L.L.L.",
"; P._.!.!.!.!._.[.]._.(.!.t.*.[.[.!.(.!.(.!.W.w.3 v W :.y.S.5 4 s F k.l.l.l.G V W l.k.k.E f ! l.j.l.Z F z.z.j.S #.|.@X X~.!.!.!.L.L. . .s.(.'.(.(.(.L.L.L.K.V.K.",
"* S.!.R.W.!.!.!.W.!.).).!.s.*.[.(.!.(.(.(.!.K.5.3 x >.y.' ;.e : = B j.l.z.l.G B k.k.l.l.K h W l.k.l.Z F z.z.l.v 6.|.OX_.!.!.!.!.L.K. . .4.L._.(.L.!.L.J.B.M.a.V.",
"* V.G.V.F.!.!.!.!.(. X X!.e.4./.!.!.(.!.W.H.V.5.3 x ,.[ a P T D u r W l.k.l.G c j.k.k.l.Y f j.l.l.z.Z F l.z.T z 7._.|.W.W.!.!.!.L.J. . .0.L.oXoX(.L.L.B.L.W.J.t.",
"* 0.V.V.N.A._.!.L.L.L.!.L.4.4.L.!.!.(.E.E.K.r.4.- v :.` C k.z.~ O.r W l.k.l.J B j.k.l.l.K h W l.l.l.k F l.z.T z 8._.].I.L.W.W.R.V.V. .i *.t.L.L.L.L.V.J.J.A.t.7.",
"+  .r.r.t.t.J.J.V.V.V.V.N.7.4.L.L./.F.V.R.R.0.5.- c J 2 s ! l.1.X.l Y l.k.j.G B j.j.l.z.K h W l.z.z.k F l.l.T z 8._.`.W.G.L.R.H.J.J. . .r.M.N.B.V.a.w.d.t.e.4.*.",
"+ i i i  . . .*...e.w.7... ...L.L.L.!.!.g.F.A.5.- c W j & 0 =.%.9 b j.k.k.j.G k k.j.k.l.K h j.l.l.z.Z F l.l.k.c 3.W.W.W.W.R.L.H.J.e.` ` ..w.0.*. . ...*...3... .",
"` p.p.s.s.p.f.%.]  .` _ 4.r. .s.(.!.U.d.C.B.V.%.; x W k a , r < s F j.k.k.j.G c j.j.j.l.K h W k.z.l.k b l.l.k.F p G.R.H.W.R.A.A.e.%.` `  . . .i e.s.s.g.d.B.d.s.",
"8.XXXXXXXXXX XL.J.e. .7.[.}.e.e.L.B.t.r.r.0.4...- x W k b S b S h F k.k.l.l.J k j.j.k.l.K h W k.l.l.Z F l.l.l.T M r.B.s.a.w.0.7.....` ..J.%.` g. X+XoX}..XoXXX.X",
"#.!.!.^.(.!.(.W.W.L. .Q.}.L.*. .&.&.*.%.@. .[ 7 - c W k F k.l.l.k J j.k.k.l.J c j.j.k.l.K h ! l.l.z.k S l.l.k.l.a w X.%.9.4.*.&... .i  .J.J.%.].[._._.!.].].!.).",
"%.!.!.!.!.!.!.!.!.L.7.Q.[.s...g.].].[.].L.M.M.[ ; x W k F k.l.l.k F k.l.k.l.G B j.j.k.l.K h W k.z.n.k F z.z.k.T < 0.].].].[.[.`.Q.p.w  .M.J.0.].'.'.'.(.(.!.!.!.",
"#.!.!.!.!.!.E.!.!.L.0.L.[.g...].|._.[.[._.L.F.7.3 x W k F k.l.l.k J j.k.k.l.G B j.j.k.l.K h j.c.m.<.k F 2.>.k.1.q W.@X.X[.[._._.(.L. . .M.L.4./._.!.!.!.!.!.!.!.",
"#.Q._.!.!.T.R.Q.L.L.e.K.(.s.4.}.`.!.W.W.L.L.A.w.5 x W k C k.z.k.k F j.k.k.l.G V j.j.k.l.K h v.y.%.8 s s _ j ,.} 5 E.XX_.!.Q.!.!.!.L. .` K.K.6.Q.(.!.!.!.(.!.!.!.",
"%.!.!.W.E.H.V.L.J.C...K.!.M.4.XX_.!.L.W.K.V.A.w.w x Q k F k.z.x.k F j.k.l.l.G B j.j.l.k.K N ;.5 { ( & & } ( ( ] 7 P.[.).!.W.!.'.!.s.` w B.r.%.R.W.!.!.!.(.!.(.(.",
"#.W.T.F.K.V.U._.p.0...J.W.s.*.'._.L.L.L.L.V.J.4.4 x Q Z F k.z.k.k F j.k.k.l.G B j.j.l.k.K f f 2 & & & & & % & ) w S.!.W.W.T.(._.L.4.` ` e.4.@.L.(.(.(.(.!.(.(.(.",
"| L.!.R.K.Q./.s.4.*.....V.r...L.(.J.B.t.V.L.0. .4 x Q Z F k.z.k.k F x.l.k.l.J V j.j.l.j.K f W h 2 2 3 3 3 , a 8 7 M.E.I.H.L.!.H.7.%.` [ &.4. .7.A.A.Z.L.L.L.L.L.",
"' K.L.e.4.e.4.@.....| w  .@. .*.0. . .i  ... .i 3 < R Z F x.z.k.k F j.l.k.k.H V j.j.l.x.K h W k.m , f a z x c a w 4.p.*.#.*.%...| ` y ' ....i ` ..%.%.7.4.*.4.4.",
"; %.B.D.F.J.J.K.K.K.J.J.Z.e.D.D.J.B.J.t.p.B.J.B.] < ! A F k.z.k.k F k.l.k.k.H B j.j.l.k.K h j.k.~ Y A c Y ~ v t %.J.A.Z.C.A.p.p.C.M.e... .C.J.J.J.K.K.J.J.Z.7.` ",
"* t._.[.XX X X X X X_._.S.Z.^.s.J.M.L.K.L.L.J.L.$.< R A C l.z.k.k F k.k.j.k.H B j.j.l.k.K h W k.z.z.A F z.z.~ t s.Q.s.D.B.L.F.R.R.L.W.&. .!.(.].[.oXXX_.(.L.E.7.",
"* Y._.!.!.!.L.K.F.K.L.R.e.B.g.6.0.0.4.0.0.0.4.B.3.< Y Z F l.l.k.Z F k.z.k.k.L B j.j.l.k.K j W k.z.l.A F k.z.~ t p.s.4.e.0.4.4.7.0.4.Z.%.` B.E.L.L.].(.!.(.!.L.L.",
"* Q.{.!.!.!.W.!.!.W.Q.W.e.B.s.B.s.e.e.e.q.7.6.g.$.> F k F k.z.k.k F z.k.l.k.H B k.k.l.j.K h W k.k.k.C F k.z.T t r.s.C.s.e.e.0.r.0.4.C.%.' F.!.(.!.!.!.!.!.L.L.L.",
"* K.~.!.!.!.!.(._.).(.W.e.B.B.r.+.r.K.s.a.*.@.r.$.= c h F k.z.k.k F l.k.l.k.H B j.k.k.j.K h W l.l.k.C F l.l.Q d 0.p.r.X.t.K.s.p.*...p.*.` U._.Q.!.!.R.L.K.s.A.J.",
"; V.E.L.L.(.!.!.!.(.'._.r.B.d.M.e.P.K.R.L.a.&.7.$.% l f F k.z.k.k F l.k.k.k.J V j.k.k.j.K h W z.l.k.C C z.l.Q t 9.r.s.r.U.K.R.K.t.%.s.&.] R.[.[.!.T.L.N.N.A.s.B.",
"* B.F.V.V.E._.!.W.!.[._.r.a.t.r.%.7.*.4.7.*. .q.$.% l f F k.l.l.k F l.k.k.z.G B j.l.k.x.K h W l.l.l.A F k.z.T t 6.r.r.@.7.4.*.7.*.| p.&.` R.|.[.W.L.L.V.!.L.V.r.",
"+ &.B.V.B.M.~.Q.H.F.H.F.w.t.w.M.V.t.r.0.8.0.q.r.$.@ a a F j.k.l.k F l.k.x.l.G B j.k.l.k.K f W l.l.l.B F x.l.T t 7.0.N.V.a.w.0.7.0.q.d.&.` N.L.L.L.F.N.V.V.N.r.4.",
"+ ' *.*.7.0.t.B.a.N.V.B.0.t.0.7.7.7.*.%.+.+.[ d.%.@ - s V W Q W j V ! W K ! k j W W ! W K h W ! W ! k Z W ! E t 7.0.4.8.9.*.#.@. . .g.&._ s.V.p.w.0.0.r.r.4.*...",
"+ y y w ` ` ] ' ' &.&.%. .4.s.d.B.Q.K.U.Y.P.B.~.&.% 2 8 8 0 0 9 8 8 0 0 0 0 8 8 0 0 0 s 0 8 0 0 0 0 0 0 0 0 0 8 9.B.s.B.Q.K.R.U.P.V.!.&._ *.*.@.[ `  .........| ",
"  o o o o o o o o o o o o o 4 e ' p u ' q u u ` $ . X O O O O O O O O O O O O O . . . . .   X   . . . . . . . . ; u e ' p u ' e ` u p * O o o o o o o o + + o o "
};
