/* XPM */
static char *_ac0a8ae1c774ccec6f2f3194153697bWX7tKGKkXX4ZohdP[] = {
/* columns rows colors chars-per-pixel */
"80 80 121 2 ",
"   c #32373E",
".  c #34383E",
"X  c #343741",
"o  c #343941",
"O  c #383E46",
"+  c #393F48",
"@  c #3A4047",
"#  c #3D434C",
"$  c #3F4650",
"%  c #40464E",
"&  c #404751",
"*  c #444A54",
"=  c #484D57",
"-  c #474D59",
";  c #494F5A",
":  c #4C525D",
">  c #4C5461",
",  c #505764",
"<  c #525966",
"1  c #555C6B",
"2  c #585F6E",
"3  c #575D70",
"4  c #595E71",
"5  c #5A616D",
"6  c #5D6373",
"7  c #5F6678",
"8  c #606677",
"9  c #626976",
"0  c #616779",
"q  c #646A7B",
"w  c #696F7E",
"e  c #6B717E",
"r  c #666D80",
"t  c #696E82",
"y  c #6C7285",
"u  c #6F748B",
"i  c #717685",
"p  c #747987",
"a  c #70768C",
"s  c #73798D",
"d  c #787E8D",
"f  c #767B93",
"g  c #797E95",
"h  c #7A7F98",
"j  c #7D8296",
"k  c #7D839B",
"l  c #808595",
"z  c #81869E",
"x  c #84899D",
"c  c #888B9D",
"v  c #8287A0",
"b  c #858AA3",
"n  c #898EA5",
"m  c #878EA8",
"M  c #898FA9",
"N  c #8C91A4",
"B  c #8C92AC",
"V  c #9297A7",
"C  c #9096AD",
"Z  c #9399AE",
"A  c #8F94B0",
"S  c #9196B0",
"D  c #959AB3",
"F  c #999EB6",
"G  c #9A9FB8",
"H  c #9CA1B7",
"J  c #9BA0B9",
"K  c #9BA1BA",
"L  c #9DA2BB",
"P  c #9EA3BB",
"I  c #9FA4BA",
"U  c #9FA5BB",
"Y  c #9EA3BC",
"T  c #9EA4BC",
"R  c #9FA5BC",
"E  c #9FA5BE",
"W  c #A0A5BD",
"Q  c #A0A6BD",
"!  c #A1A6BD",
"~  c #A0A5BE",
"^  c #A1A6BE",
"/  c #A1A7BF",
"(  c #A3A9BE",
")  c #A2A7C0",
"_  c #A3A9C1",
"`  c #A5AAC1",
"'  c #A4A9C2",
"]  c #A6ABC3",
"[  c #A7ACC1",
"{  c #A6ACC4",
"}  c #A7ADC5",
"|  c #A9AFC3",
" . c #A9AEC5",
".. c #AAAFC4",
"X. c #AAAFC5",
"o. c #A9AFC6",
"O. c #ABB0C6",
"+. c #ACB2C7",
"@. c #ADB1C9",
"#. c #ADB2C8",
"$. c #AEB3CA",
"%. c #AFB3CB",
"&. c #AEB4C9",
"*. c #AEB4CA",
"=. c #AFB4CA",
"-. c #AFB4CC",
";. c #B0B5CB",
":. c #B0B6CB",
">. c #B1B6CB",
",. c #B0B6CC",
"<. c #B1B7CC",
"1. c #B1B6CD",
"2. c #B3B8CD",
"3. c #B4B9CD",
"4. c #B4B9CF",
"5. c #B5BACF",
"6. c #B5BBD1",
"7. c #B6BAD0",
"8. c #B6BBD0",
"9. c #B6BAD1",
"0. c #B6BBD1",
/* pixels */
"N N n N n n c N N N n N p O     X . X X o . % l c N N N n n n n V n n n V n n N n n N N c N n N N c N N N p o       . . . . . O j N N N N N N N m N n N m n n V ",
"5.7.5.5.7.7.7.0.5.5.7.$.N , 9 5 *   . .   % e  .7.7.5.7.7.7.7.7.5.5.7.2.2.7.:.+.7.7.5.5.5.5.7.7.5.5.5.5.$.B , 9 5 - . . . . % e | 6.5.2.5.5.5.5.5.5.7.7.7.7.7.$.",
"$.$.+.+.$.$.$.$.+.+.*.Y b g ! P p * o   # w <.:.:.5.5.:.+.| |  .:.2.:.@.@.@.P G $.$.$.$.$.$.$.$.$.$.+.$.Y b j Y W d *   . @ q $.*.:.2.2.2.+.O.R | :.7.:.$.$. .! ",
"S S S C S B S S C C C B B n h F +.V #   i  .:.D [ :.:.+.z f g k  .2.` Z S C ( ` S S B A C S C S S C C C B B b k H +.C #   i  .:.D { <.2.+.b f j x O.:.( S S S Y ",
"B B B B B B B B B B B B B N b z z p O   d $.F ] B z v D n D ) ! G D S B M B S D B B B B B B B B B B B M B B M b v z p O . p :.F _ N k v S M D _ ! F F C B B B S ",
"B B B B B B B B B B B B B B B b k g 0 # d <.! ! D V D Y S D ! Y S B B A B B C M B B B B B B B B B B B B B B B B v k g q % p :.! E D Z D E S F E ! C B B M B B B ",
"B B B B B B B B M B B B B B B B B M a % y $.<.S !  . .] S B B B B B S M B B M B B A B B B B B B B B B B B B B B B C M a * y :.:.D E  . .{ D B B M B B B B B B B ",
"B B B B B B B B B B B M M B B M B j * . q P *.S B C C B B A B B B B M S B B S B B B B B B B B B B B B B M M B B M M l *   q G $.D B A B B B B S B B B B S B B S ",
"B B B B B B B B B B B k k B B k k b w # 7 K *.S B B B B A B B B B S M B B B B B B B B B B B B B B B B B j j B B k k b r # 0 F $.S B B B B B B B B B B B B A B B ",
"B k B E A B B B B B k N E E k B D B k - 7 G <.S B B B B B B B B B B B B B B S B B B k B ) B B B B A M k B W W k M G B v ; 0 F <.D B B B B B B B A B B S B B B A ",
"B B K K B B A B M k k m H Z f H H s u & 7 F E B B B B B B B S B S B S M B A B A B B B G Y B B B B B k k n H Z j P P s a * 8 D ) C B B A B B B B B B B B B B B B ",
"B _ K B B B A A b f b k a f w F c > : O q B B B B B B A B B B B M B B A B B B B B B ! ~ B B B B B k j k j a j y D V > : + 7 A B B B B B B B A B C B B B A B B B ",
"B C B B B m A k j k j y x H = c b : : @ q B B B B B B B B B B B A B B B B S B B B B B B B B B B b f k j i k ! : c C > > O 0 B B B B B B S B B B B B B B B B B A ",
"B B B B m k b k a s 5 6 x ! * c n > : @ q B B A B B A B B B A B S B B B B B B B B B B B B B h b b s a 6 8 x ! : z V > : + 8 A B B B B B B B B B B A S B A B B B ",
"B B b k k a f f y 7 j n I ( : e t : > O q B B B B B B B B B B B M B B B B A B B B B B b k k a f j y 7 s N H +.1 q y > : + 0 A B B S B B B B B B B B B B B B B B ",
"b b b k a f j f u y ( :.( N 1 : > > : O < j B B B B B A B B B B A B B B S M B B B b b x k a g g f u i E :.( n 5 : : > > + , g B B B B A B A B B B B B B B A B B ",
"a a Z ( g b B k z  .*.F d < > > > : ; O X > b b n b n b n m B B M B m b B B n v b s a B ) f b M k k  .*.I d > > > : > : + X ; v N m b v m n m M B B M b n B B M ",
"b f S { b f f j Z O.n q < > > > : > : O   # 1 1 1 1 1 1 1 s B M f s q q M M 8 = 8 z f C ` n g s j B  .n q 1 > > > > : > + X # 1 1 1 1 5 1 1 f B M f f q 0 b M q ",
" .( I N q 5 1 6 q t 9 < > > > > > ; # X X o $ : : , : : > 2 q 0 2 1 < , 8 q , < k ( ! E B q 5 2 6 q y 6 1 > : < > > : $ X X o $ : > : : : > 2 q 7 5 1 < > 9 9 < ",
"j j p 6 & $ $ $ % % & # & & & & & $ X X     X $ % * % % : * # & $ & # $ & & * , e j l p 4 * % % $ $ $ $ # & & # & & @ o     X X # # = # & ; * $ $ $ $ $ & & * * ",
"X & : ; - : : : : : : : : : : : : : : : : : : : : : : , 6 1 : : : : : = o X o O O o % ; : * : : : : : : : : : : : : : : : : : : : : : : : 5 1 : : : : : = . X o ",
"O i G ! B ` +. .O. . .O. . . . .+.| | O.{ |  .+. . .+.+.$. . .{ | ( [ V # o . + * @ i F ( M (  .O.$.+.+.O.O. .O.O. .|  .{  .O.O.O.O.O.O.O.$. .{  .| ( | Z * . . ",
"; h _ <.$.2.5.5.5.5.2.7.7.7.7.7.5.$.F F D ! 5.5.7.5.<.<.P D D G D 9 i C s & . o @ = g ! -.$.<.5.2.2.2.2.2.5.5.5.5.5.$.G D F ! :.5.5.2.7.5.I F F F D w y V f * . ",
"a Z N x P P E I P P E Y ! ! ) ) ! H B B B B B N n ! 5.<.D M B B B j n P B y =   # t D C x P ! Y I I E E I I E I ! ! P B B B B N B N K 2.<.F B B B B j N ! B y ; ",
"G ! n a M B B M B B b v b b k k x z z M A b g g k S ] ] A B B B V ) P V F C 5   % C ( N s B B B B B B b k b k b x x v b M B b h f k S { { S B B B B E K N H A q ",
"5.! ! ` A B B B B M h f a u s u a a a n B B M B _ ) B B B B B B S B y 1 ( D 6 o * ( ! P ( B B B B B m k f a s a u a u a b B B M B _ _ B B B B B B C B t 1 ( S q ",
"<.<.! C B B B B B B m m b a u a a a a m B B B B S S B B B B A S ` F b v S B g < * ( <._ S B B B B B B M m b a a a a i a b B B B B A A B B B B B S  .H b x C B k ",
"7.7.! M B B B B B A B A S Y E E ! G m ! G B B B M B B B A B B M b B b g g M k 1 * ( 7.( B B B B B B B B B S I E ! ! F b Y G B B B B B B B B B B B b M b g j m k ",
"` ( G M B B B B B M B B S ` ' ' ! ! S ! F M M B A B B A B b b B k f u f k v g 2 & D { F B m B B B B B B B S _ { ] _ ! A Y F B B M B B B B A m k B k s a a k k g ",
"B M B B M B B B B B B B B B B B C M A B B B B B B B M m B k f b k 0 3 y g a a 3 # v B B B B B B B B B B B B B B B B B B B B M B B B B m b B k f b k 9 5 t k f u ",
"A A B B B M A B B B B B B B B B B B S M B B B B M B m f b k y y 1 q 0 , 1 t a 3 & b B B B B m B B B B B B B B B B B B A B B A B B B B m f b k u t 3 q q > 1 t u ",
"B M B b f f v A B B A B B B B B M D ] D Y ) B B k k M b g q , 1 q u y r r u a 4 $ k B A b f f b B B B A B B B B B B S  .D K _ B B k k M b k 7 < 1 q u y r r u u ",
"B k h f u u f b B B B B B B B B B D <. .%.<.! S b k k B b q 6 N D F x a u a q > # v z h h u u f v A M A B B B B B B D <. .$.<.) S b k k m v q 6 n Z F b u u u r ",
"A h u u u u u g m D A B B B B B B S { ] [ ` ) m m b g b b y y I P ! n a a q 1 & & v g u u u u u f b D S B B B B B B S { { { ] ` M M m k v b t t P E ! n u u r 5 ",
"k f u u u u y y s E G S A B M M M M M B M B M g v B b u u u u u a a a u r 1 > * $ f s a u u u u t a ! F S C B m M m M M B B M M f k m v f u u u a a a i u t < > ",
"& 0 u u u u u 2 - s E %.' M h a u f f b k h M m f u u u u u u u a u u q < > > * O @ 0 a u u u u 6 ; u ) :.( B g f u f a b k h M m g f u y u u u u a u u t < > > ",
"X 0 a a a a a y 6 a B j q n f i u u u f a f g g f a y 6 t u u u u 7 1 < > > > * X o 6 a a a u a t 8 u B j 9 b f u u u u f a a g k f u y 6 w u u u u 0 3 < > > > ",
"X ; < < 1 < 5 7 7 7 y 9 q k q t u u u u u y 7 7 7 6 6 > 6 7 6 7 6 , > > > > * $ . . ; 1 < < 1 6 0 0 7 y q q k r t u u u a u y 0 7 7 6 6 > 6 7 6 6 6 < : > > : : ",
". X X X   . $ - - - - 7 p 0 : 5 r u r r r 6 > - - - - > > : > : > > > > > ; # X . . . . .   . # * = = = 0 p 0 > 1 r u t w q 0 > - - - - > > > > : > > > > > - # ",
". . . .   . . . . . . O o O X o : q > > > : ; O X o @ - : : : : : > : > ; O X X . . . .   .   o X X o X o O o o o ; q > > > > ; O X X O - : : : : : : : > - @ X ",
". X     . . o . X X X O       X + # O O O O O X o o . @ @ @ O O O O O O @ o o . . . . . X . o       o o o o .   o + % O O O O O o o o o @ O @ @ O O O @ O @ O   ",
"l l l l l l l l l j l l w O     .   . X X . & p l j l l l j j l j j j j l j x j l l l l l l l l l l l l l e o       .   . X . O p l l l l l l j l j l l j j j x ",
"7.7.7.7.7.7.7.7.5.7.7.:.N : 5 1 * . . .   % 9  .0.0.6.7.5.5.5.0.0.0.7.7.0.6.*.*.0.0.5.7.7.7.7.7.7.7.7.7.2.C : 1 1 * X o .   # 9 ( 0.7.7.7.0.7.5.7.0.5.5.5.5.7.*.",
"<.$.$.$.<.$.$.*.;.X.;.~ b j H H i * X . % w $.+.-.7.2.<.*.O.[  .<.2.-.-.+.*.E K *.*.*.*.$.$.$.$.$.<.+.;.P b g P G d * o . # 8 +.:.*.5.5.7.O.O.[  .2.5.*.*.*.*.E ",
"S S S S C C C C B S S B B M h G :.V O   e +.:.D { 2.<.*.x f f k O.6.( A S A _ _ B Z B D A C S C B C C C S B M h G @.V #   i $.:.D ` 2.*.*.b f f x { 7.` S S S E ",
"B B M B B B M B B B B B B M n v z p O   d +.W ( B b b D n S I E J H D B B B S D B B B B B B B B B B B B M B B b x c s O   p :.F [ B v m D m A I I F K S B B B S ",
"M B B B B B B B M B B B B B S v z f 8 # p ;.~ ~ B Z S K S F _ E B B B B B B B B B B B B B B B B B M B B M S M S v k g 8 % p :.( ( F B D I D F _ ! B B B B B B B ",
"B A B B B B A B B B B B B B M M C M f * i ;.;.Z _ O.$.{ D B B B B B B B B B B B B B B B B B B B B B B B B B B B M C M f * i ;.;.A ! O.O.{ D B B B B B B B B B A ",
"B B B B B B B B B B B B M B B M B j * O 7 E *.S B C A B B B B B A B B B B B B B B B B B B B B B B B B B B m B B M B k * o 9 E *.S B Z A B B B C B B B B B B B B ",
"B B B B B B A B B B B z h B B k k b q $ 6 H <.S B B B B B B B B B B B B B B A B B B B B B B B B B B B B k j B B k k b t & 7 K *.S B B B B B B B B B B B S B B B ",
"B k C ! B B B B B B k m Y ! z B S m k * 6 K *.S B B B B B B B B B B A B B A B B B B k B Y B B B B S B k n I E k B B B k : 6 F *.S B B B B B B B B B B B B B B B ",
"B M F ! B B B B B v h B H Z f G K j s $ 7 F ( B B B B B A B B C B B B B B B B B B B M D ) B B B B B k k N H H d H E f a * 7 D ! S B B B B B B A B B A B B B S B ",
"B ` G B B A A B b f b k a g w F c : > @ q A B B B B B C B B B B B B S B B B B A B B ` ! B B B B B b f b k s j w F V > > @ 7 B B B B B B B B B B B A B B B B B A ",
"B B S M B B M v d b f y x H = x n > : @ q B B B B B B B B A A B B B B B B B B B B B S B B B B B k g b g a k ! : x V > : @ 7 A B B B B B B B B B B B B A B S B B ",
"B B B B M h b v u f 5 q x ( = c c > : O 8 B B B B B B A B S B B B B B C B A B B B B B B B M k b b u g 7 7 k | - x V > > + 0 A B B B B B B B B B C B B B B B B B ",
"B B b k k a h g y 6 d N H ( , q y > : O q A B B B B B B B B B B B B B B B B B B B B B b k k a f h y 6 a c P | 2 e y > : O 0 A B A B B B S B B B B B B B B B B A ",
"m b k k s f f f u y I <. .V 1 > : > > O 1 k B B B S B B B B B B B B B B A B B B B n b x h a f f a y e H 5.( Z 5 : : > > @ 1 k B B B B B B B B B B B B B B B B B ",
"a a S ! f v M k k | +.H j , > > > > : O X > b b n b b b b m B B B M n M B B m b v f a B ! f b M b k O.-.H g 1 > > > > > @   > z m m n m n m B B B B B N m B B m ",
"m f A  .N f f k C $.n w < > > > > > : @   # 1 5 5 1 1 1 1 d B B g a r 7 M B 6 - 6 v s V  .m g s j B -.N w 1 > : > > : : @   # 1 1 1 1 1 1 1 f B b j a q 0 m B w ",
"` ! E V t 4 5 6 w p 7 , > > > > : : # o   @ # : > > : > : 6 q q 5 5 1 , 9 q , 1 g ) ! ! B w 6 2 6 r i 9 < : > > > > : # o   O # : : : : : : 6 q q 6 5 1 , q q 1 ",
"j l p 6 * # & $ & & & & $ & & & % # o       o # & & & & : * & & & & & & $ $ $ > y l l p 6 * & & & # $ & * & & & & & # o       X % & = = $ : - % # $ % & & & & * ",
"o & & ; * * = = * = = = - - = - = = = = = = = = - = = : 5 < - = = = ; * + O o o O o % * * & = = : - = = * ; ; = ; = = = = = - ; & = & = : 1 , - - - = - * o o . ",
"o y F ! M ! [ [ [ ` ( | { { { | { { ` ` ( ( ( O.( ] (  .| ` { ( ! ( ( N #   . # = @ y D E m ! ( | ( { { ` ` [ [ [ [ { ( ( ( (  .| [ O.( { { [ ( ` ( ( ( C %     ",
"; g ( :.*.7.7.7.7.7.5.5.5.5.5.5.7.*.H F F ( 5.7.7.5.5.<.P F F D D w u Z a #   O @ & g ( 5. .5.5.5.5.5.5.5.7.7.7.5.5.*.K F F I 5.5.5.5.5.-.! F F F H e y B d %   ",
"a Z V x Y ! ) ~ E E E ! ! ) ) ! ! Y B B B B B B C ! 2.2.D B B B B g c P B w * X + t Z C c ! ! Y ! E ) Y ) ) ) Y E ! K B B B B B V B ! 2.2.F B B B B j b P B y : ",
"F | n a M B B M B M b b b v b b v b b B B b g g k Z  .{ S B B B B ) ! V F C 2   & B { N a M B B B B B b v b v b b b b b B B b k g k B  .{ S B B B B E H V D B q ",
"<.G ! ! B B M B B B h f f a a u u u u b B B M B ( _ B B B B B B S B y 1 ` D 6 o * ! P P _ B B B B B M h f f f u u u u s b B B m B _ _ B B B B B B S A y 5 ( D q ",
"<.<.) D B B B B B B M M k a u a u u a b B B B B A B B B B B B A ` F n x C B f < * ( <.! S B B B B B B M b z u u u u u a b B B B B B A B B B B B C { H b x B B j ",
"9.<.' M B B B B B B B B C F P P Y F n E K m B B B B B B B B B B m M b k g m z 4 * ( 7.` B B B B B B B B B S G Y K H F b G G B B B B B B B B B B B M B b k j m k ",
"' ' G M B B B B B B B B S ) ` ) _ Y S E K B B B B B B B B b b B x s a a h z g 3 * D ` G B B M B B B B B B S ` ` ] ] E B Y G B B B B B B B B m m B k f u u k k g ",
"B M M S B S B B A B B B B B B B B B B B B B B B B B M m B k g b v 0 3 a k a a 3 % x B B M B B B B B B B B B B B B B B B B B B B B B B B b n k f b k q 6 u k f u ",
"B B B B B M M B B B B B B B B B B B B B B B B B B M m f b k u y 3 q 0 < 2 t a 4 % x B C B B M B B B B B B B B B B B B B B B A B B M B M f b k u y 3 q 7 < < t u ",
"A B B b f f v S B B B A B B B B B D  .B K _ B B k k B b h q < 1 q y y r r u a 3 # v B A b g f b A B B B B B B B B B S  .D K ' B B k k B b g q < 1 q y y r r y s ",
"B v k h a u g v B B B B B B B B B D <.` $.$.E A b k k B v 0 5 x C Z v a u u r > $ v v k h u u g b B B B B B B B B B D <.o.o.<.Y A b k k B b 7 5 x B S b u u u r ",
"M h a u a u u g n D B B B B B M B S `  .`  .` m M b h v b y y ! P P n u y q 2 & & v f u u u u u f m D B B B B B B A S ] } ] ] ` b B b h k b y t P E ! N u u r 3 ",
"v a u u u u u y a ` F C A A M m M M B B M B m f v M b u u u u a a a a u t 1 > * & g f u u u a u y a _ G C B B B M M M M B M B B g k B b f u u u a a a u u t 1 > ",
"* 0 a u u u u 4 ; f ! :.( M h f f f f b k k m m h f f u u u u u u u u t 1 > > * o & 0 a u u u u 6 = f Y $._ B g f f f f b k k m M h f f y u u u u u u u t 1 > > ",
"X 0 a a a u a r 6 a C g w n s a u y u f f a h h f u t 6 y u u u u 0 3 1 > > > *   o 8 a u a u u t 6 u A j w b f u y u u f a a h h f u t 6 t u u u u 7 1 1 > > > ",
"X > 1 1 1 1 6 q 0 q a 0 0 j r t u a u u u y 7 7 6 7 6 > 6 0 0 0 6 , > : > > * # . X ; 2 1 1 1 6 0 0 0 y q q j r t u u u u u y 7 7 7 7 6 > 6 7 7 8 q < > > > : : ",
"X X X X X X & ; ; ; ; t k w > 6 y u y t y q > ; ; : : : > : > > > > > > > : % X .   X X   X X * : ; > ; q k r , 7 t u y t y q > ; : : : > > > > : > > : > : : # "
};
