/* XPM */
static char *L1672843841[] = {
/* columns rows colors chars-per-pixel */
"80 80 235 2 ",
"   c #0A0B08",
".  c #0B110C",
"X  c #12120E",
"o  c #161918",
"O  c #0C140E",
"+  c #2B0D06",
"@  c #261C18",
"#  c #31180E",
"$  c #13261D",
"%  c #31241B",
"&  c #1D292A",
"*  c #282925",
"=  c #352B29",
"-  c #2A372E",
";  c #35342D",
":  c #2A2E32",
">  c #2D3A3C",
",  c #283536",
"<  c #343534",
"1  c #3A3936",
"2  c #353639",
"3  c #353B3C",
"4  c #3D3D3D",
"5  c #393736",
"6  c #312F30",
"7  c #472C29",
"8  c #423A34",
"9  c #413D3D",
"0  c #473A3A",
"q  c #54383C",
"w  c #49332B",
"e  c #3D413E",
"r  c #39453B",
"t  c #2F4538",
"y  c #42413E",
"u  c #4D403A",
"i  c #454234",
"p  c #2C3C40",
"a  c #3D3E41",
"s  c #323D42",
"d  c #413D41",
"f  c #2D4145",
"g  c #334344",
"h  c #3D4243",
"j  c #3C474A",
"k  c #3C4B4B",
"l  c #33484C",
"z  c #394D53",
"x  c #3E5254",
"c  c #3F5B5F",
"v  c #424142",
"b  c #434B4C",
"n  c #4C4D4D",
"m  c #494844",
"M  c #554A47",
"N  c #4A5247",
"B  c #59534E",
"V  c #454D53",
"C  c #445354",
"Z  c #4A5452",
"A  c #445A5D",
"S  c #4A5B5D",
"D  c #485456",
"F  c #535553",
"G  c #5B5752",
"H  c #5C5B56",
"J  c #5A5C5B",
"K  c #545958",
"L  c #65574C",
"P  c #655B52",
"I  c #755D53",
"U  c #48615F",
"Y  c #5A6459",
"T  c #716358",
"R  c #445E63",
"E  c #4B5D62",
"W  c #4A5C68",
"Q  c #505E6B",
"!  c #446266",
"~  c #4C6264",
"^  c #466469",
"/  c #4B656B",
"(  c #4C6A6C",
")  c #456B6A",
"_  c #52656C",
"`  c #536B6D",
"'  c #5D696C",
"]  c #596467",
"[  c #4B706F",
"{  c #4D6C71",
"}  c #4E6271",
"|  c #526D73",
" . c #5A6D72",
".. c #4D7174",
"X. c #537175",
"o. c #5D7274",
"O. c #557479",
"+. c #5B757A",
"@. c #5B797D",
"#. c #547C76",
"$. c #56746C",
"%. c #626C6D",
"&. c #676866",
"*. c #716A67",
"=. c #68706C",
"-. c #6A6E71",
";. c #647374",
":. c #6C7374",
">. c #64757B",
",. c #647A7D",
"<. c #6C7A7E",
"1. c #73797B",
"2. c #78796B",
"3. c #8C7C74",
"4. c #7D907D",
"5. c #84897E",
"6. c #978579",
"7. c #A1857C",
"8. c #C29B7E",
"9. c #5E7C81",
"0. c #637D82",
"q. c #677D87",
"w. c #707E84",
"e. c #5E8082",
"r. c #638185",
"t. c #6D8383",
"y. c #65858A",
"u. c #6A868C",
"i. c #668A8D",
"p. c #6B8A8E",
"a. c #738A8C",
"s. c #7B8A8D",
"d. c #758486",
"f. c #6C8D92",
"g. c #698B94",
"h. c #718E94",
"j. c #788D96",
"k. c #6D9194",
"l. c #6D9399",
"z. c #669497",
"x. c #729296",
"c. c #7B9495",
"v. c #73959A",
"b. c #7A959B",
"n. c #75999D",
"m. c #7A9A9E",
"M. c #769993",
"N. c #7BA29F",
"B. c #759BA1",
"V. c #7B9CA2",
"C. c #7696A2",
"Z. c #6B9AA4",
"A. c #7DA1A5",
"S. c #7EA5A9",
"D. c #7CA8AA",
"F. c #7CA0B0",
"G. c #868988",
"H. c #829797",
"J. c #95938E",
"K. c #AF9587",
"L. c #90A29B",
"P. c #BCAF9A",
"I. c #839DA2",
"U. c #8C9DA2",
"Y. c #909FA4",
"T. c #81A3A6",
"R. c #83A5AA",
"E. c #8AA5AB",
"W. c #85A9AD",
"Q. c #8AABAE",
"!. c #8DA3A4",
"~. c #93A9AB",
"^. c #87AAB2",
"/. c #8BADB2",
"(. c #8CA7B0",
"). c #92AEB3",
"_. c #8DB1B4",
"`. c #8BB4B6",
"'. c #92B1B6",
"]. c #99B3B5",
"[. c #95B5BA",
"{. c #9AB5BD",
"}. c #9ABABE",
"|. c #96B9BC",
" X c #91B4AE",
".X c #A4A5A6",
"XX c #BAB6AA",
"oX c #A9B8B8",
"OX c #B5B3B1",
"+X c #C7A48C",
"@X c #C7AB97",
"#X c #C5B39D",
"$X c #D6AE93",
"%X c #E2BF9F",
"&X c #C6B6A5",
"*X c #DCBDA3",
"=X c #D8BCA8",
"-X c #C5AFA2",
";X c #E0BCAC",
":X c #9FC7BE",
">X c #AAC1BC",
",X c #D9C19D",
"<X c #D9C2A8",
"1X c #D9C7B5",
"2X c #C8C9B9",
"3X c #E3C2A6",
"4X c #E6C9B5",
"5X c #E9D3BB",
"6X c #F1D0BD",
"7X c #9ABBC1",
"8X c #9BB8C4",
"9X c #A2BCC2",
"0X c #9EC5C4",
"qX c #A3C3C5",
"wX c #AAC5CA",
"eX c #B6C7C7",
"rX c #ABCBD1",
"tX c #B3CDD3",
"yX c #B8CAD5",
"uX c #B9D3D8",
"iX c #BED4E1",
"pX c #C2CED3",
"aX c #C5D8DB",
"sX c #D0CCC4",
"dX c #E9D8C5",
"fX c #F3D7C7",
"gX c #EADAD4",
"hX c #C5DDE1",
"jX c #CCDDE5",
"kX c #D6DBE2",
"lX c #CAE1E4",
"zX c #C7E1E8",
"xX c #D3E4E9",
"cX c #D3EBF1",
"vX c #F8E9E2",
/* pixels */
"4 4 4 4 4 4 4 4 4 h 4 4 4 4 4 4 d a a e e 5 4 4 4 4 e 4 4 4 4 a 4 4 5 5 4 4 4 4 4 4 4 4 4 4 4 4 8 9 4 4 4 4 9 4 4 4 4 4 9 9 4 4 4 4 4 4 4 4 4 4 a 4 4 4 4 4 4 a ",
"4 4 4 4 4 4 9 4 4 4 4 4 4 4 4 4 5 h 4 4 5 v 4 d 4 9 1 4 v 1 4 a 2 4 a 4 a a 2 4 3 a 4 a 4 3 4 2 s 3 4 1 y d d 4 4 a 4 4 4 e e 4 4 4 9 4 4 e 4 4 4 4 4 4 4 4 4 4 ",
"4 4 4 4 4 4 4 4 4 4 4 4 4 4 9 4 v 5 4 9 y 4 4 4 4 4 4 4 < b ;.;.>.q.0.0.0.@.>.0.,.,.0.0.,.0.0.0.,.>.;.b 2 5 4 h 3 4 4 y 4 3 4 4 4 4 4 4 4 4 4 4 4 4 4 4 4 4 4 e ",
"4 4 4 4 4 4 4 4 4 4 4 4 4 4 4 4 4 4 d 4 e h b k j j b b b ` m.M.l.v.x.l.v.n.C.B.B.C.C.h.l.l.v.l.v.v.j.S b b h 3 9 4 1 1 1 r 4 e 4 4 4 4 4 4 4 4 4 4 9 4 4 4 4 4 ",
"4 4 4 9 4 4 4 4 4 4 9 4 4 4 4 4 e 4 8 4 & 4.~.x.a.a.a.c.U.V.g.g.h.h.f.h.V.R.R.I.T.R.V.v.f.h.f.f.g.f.v.f.a.s.K < 4 4 e 4 4 4 9 4 4 4 4 4 4 4 4 4 4 4 4 4 4 4 4 4 ",
"4 4 4 4 4 4 4 4 4 4 4 4 4 4 4 4 4 d 5 n d.T.W.f.n.k.g.p.b.V.C.C.h.f.f.k.V.W.^.W.R.R.T.V.V.B.m.m.T.v.i.g.f.M.;.] ] V 4 4 e 4 4 4 4 4 a 4 4 4 4 4 4 4 a 4 4 4 4 4 ",
"4 4 4 4 a 4 4 4 4 4 4 4 4 a 4 4 a 5 5 %.lX:X^.l.f.f.x.k.u.m.R.x.f.l.k.k.m.A.S.S.S.S.S.S.D.W.D.R.T.m.v.v.f.k.a.M.H.o.j 2 4 9 4 4 4 4 4 4 4 4 4 4 4 4 4 4 4 4 4 4 ",
"4 4 4 4 4 4 4 4 4 4 4 4 4 4 4 4 4 4 5 %.lX[.(.h.f.h.f.k.f.v.R.b.p.f.h.f.k.C.V.R.R.R.R.R.R.T.R.R.R.R.m.c.x.f.z.k.k.f.:.Z 1 4 e e 4 4 4 4 4 4 4 4 4 4 4 4 4 4 9 4 ",
"9 4 4 4 4 4 4 4 4 4 4 a 4 4 9 4 e e < %.lX|.^.C.b.f.x.k.g.m.R.m.h.b.x.v.f.f.S.V.A.A.W.R.S.W.W.R.R.Q.W.V.n.v.v.f.g.k.b.' v 4 h 4 3 h 4 d d 4 e 4 4 4 4 4 4 4 4 a ",
"4 4 4 4 4 4 4 4 4 4 4 4 4 4 4 4 4 y 6 %.lX|.^.T.m.h.f.f.i.m.W.A.W.W.V.h.x.h.f.g.i.A.R.S.R.R.W.'._._./.R.S.S.m.k.C.p.p.b.t.v 5 e 4 4 4 4 4 4 4 4 4 4 4 4 9 4 4 4 ",
"4 4 4 4 4 4 a 4 e 4 4 4 4 4 4 4 1 y < %.lX|./.^.V.f.k.f.f.m.W.R.R.R.V.p.f.h.f.f.k.b.m.S.D.R./.W._._._./././.R.V.k.j.v.f.i. .n 8 y 4 y 9 4 3 4 4 e 4 4 4 4 4 4 4 ",
"a 4 4 4 4 4 4 4 4 4 4 4 4 4 4 4 4 y < %.aX|.^.^.m.f.k.k.g.n.W.R.S.W.V.h.f.f.f.f.f.p.f.R.R.A./._././._._././.Q.W.b.f.h.f.l.v.o.d a 1 y 4 4 4 4 4 4 4 4 4 4 4 4 4 ",
"4 4 4 4 4 4 9 4 4 4 4 4 4 4 4 4 4 e ; %.jX|.^.R.m.f.f.k.k.n.R.R.W.W.A.A.x.k.x.r.^ y.f.f.x.f.A.W./._._._._./.W.W.f.g.f.b.l...( S h 2 4 4 1 e 4 4 4 4 4 4 4 4 4 4 ",
"4 4 4 4 4 4 4 4 4 4 4 4 4 4 4 4 4 9 < %.lX8X^.R.V.f.k.x.f.m.W.R.R.S.S.R.x.f.b.y.O.r.u.f.f.f.A.R.Q././._.'._.W.A.A.V.a.f.x.X./ / C h a 4 4 e e 4 4 4 4 9 4 4 4 4 ",
"4 4 4 4 4 4 4 4 4 4 4 4 4 4 4 4 4 e < -.lX7X^.^.V.k.k.k.i.m.W.R.R.R.R.S.v.i.h.f.x.{ { p.b.f.b.R.R.W.Q./._._.W.T.A.m.v.f.k.O.E ( / S v 4 e 1 4 4 4 4 4 4 4 4 4 4 ",
"4 4 4 4 4 4 e 4 4 4 9 4 4 a 4 4 4 e < %.hX|.^.W.m.f.k.k.i.n.W.R.R.T.R.W.S.n.f.f.f.g.9.O.r.k.b.b.R.Q._././././.^.(.S.z.f.x.r.q./ ( S j 4 9 4 9 h 4 4 4 a 4 4 4 4 ",
"4 e 4 4 4 4 4 4 4 4 a 4 4 4 4 4 a d < %.lX7X^.^.m.g.k.k.k.n.W.R.R.R.R.S.T.A.n.i.u.n.g.^ O.v.f.k.T.W./._./.Q._.'.W.V.z.z.k.h.p./ / ~ a 4 4 4 r 4 4 4 4 4 4 4 4 4 ",
"4 4 4 4 a 4 4 4 4 4 4 4 4 4 4 4 h 9 2 %.lX7X^.^.m.f.k.k.k.v.W.R.R.R.R.R.R.R.S.m.h.f.g.^ @.j.p.v.x.m.R.^._././._.R.R.A.m.k.x.a./ / ~ a 4 4 9 4 4 4 4 4 4 4 4 4 9 ",
"4 4 9 4 4 4 4 4 4 4 4 4 4 4 e 4 a 4 2 %.lX8X^.(.B.k.k.k.f.v.W.R.R.R.R.R.R.W.R.A.f.f.i.^ +.b.f.k.v.B.R.Q.'._._./.W.S.R.A.f.h.p.~ / ~ e 3 4 9 4 4 4 4 4 4 4 4 4 4 ",
"4 4 4 4 4 4 4 4 4 4 4 4 9 4 4 4 4 d 2 %.lX7X^.^.m.f.x.k.f.n.W.R.R.R.R.R.R.R.A.N.f.h.i.( +.h.v.g.R.S.W.Q./._._._.Q.A.S.m.g.M.p./ / ~ h 5 4 9 4 4 4 4 4 4 4 4 4 4 ",
"4 4 4 4 4 4 4 9 4 4 4 4 4 4 4 4 a d 2 %.lX7X^.^.B.k.k.k.k.v.W.R.R.R.R.R.R.R.S.A.V.v.f.y.9.{ g.v.R.R.R.R.W.W._._.R.S.W.A.f.x.p.( / ~ a 4 4 9 e 4 4 4 4 4 4 4 4 4 ",
"4 4 4 4 4 4 4 4 4 4 4 4 4 4 4 4 a a < %.zX7X^.^.B.f.x.k.f.n.W.S.R.R.T.S.R.R.R.W.T.m.g.v.r.R r.m.R.S.S.R.W.Q./._.Q.D.A.n.f.x.u./ ^ ~ a 4 4 9 e e 4 4 4 4 4 4 4 4 ",
"4 4 4 4 a 4 4 4 4 9 4 4 4 4 4 4 a 4 < %.lX8X(.^.m.f.k.k.k.v.^.R.W.R.R.R.R.R.S.R.R.M.i.v.0.! y.x.R.R.W.Q.Q./._./.`.W.l.k.f.x.u./ / ~ h 4 4 9 e 1 4 4 4 4 4 4 4 4 ",
"4 4 4 4 4 4 4 4 4 4 4 4 a 4 4 4 h 9 < %.lX8X^.^.m.f.k.k.f.n.W.R.W.W.W.W.W.W.R.R.R.k.f.v.,.^ r.x.A.R.W.Q._._._././.Q.m.k.n.v.p._ / ~ a 4 4 8 3 4 4 4 4 4 4 4 4 4 ",
"e 9 4 4 4 4 4 e 4 4 4 4 9 e 4 4 a 4 2 %.aX7X^.Q.V.f.k.k.y.I././._.'.).).'.Q.N.S.W.v.k.k.0.! u.v.A.W./._._./._._._._.R.R.R.v.i./ / ~ h 4 4 4 e 4 4 4 4 4 4 4 4 4 ",
"4 4 4 4 4 4 4 9 4 4 4 4 4 4 4 4 a 9 < %.lX7X^.Q.C.h.f.x.g.I.'.'._.'._.`.'.`.Q.Q.R.k.g.v.0.^ v.V.T.Q._.'._._._._._._.R.R.S.v.p._ / ~ d 4 4 9 4 4 4 4 4 4 4 4 4 4 ",
"4 4 4 4 4 4 4 4 4 4 4 4 4 4 4 4 4 9 < %.lX7X^.(.V.p.p.p.f.b.R.T.S.^.D.D.S.S.'./.W.l.f.l.9.^ x.W.T.W._./.'./._./._./.R.R.R.x.p.| / ~ e 4 4 9 4 4 4 4 a 4 4 4 4 4 ",
"4 4 4 4 4 4 4 4 4 4 4 4 4 4 4 4 4 9 < %.jX|.^.(.f.~ ( ( { { O.X.X.( ) [ ( 9./.)./.v.k.k.9.! k.W.T.W./._._._./._./.Q.R.S.W.x.u./ / ~ h 4 4 9 3 4 e 9 4 4 4 4 4 9 ",
"4 a 4 4 4 9 a 4 a 4 4 4 4 4 4 4 4 a < %.hX[.^./.t.k Z Z l l t g g g b F V Q E./._.n.k.k.9.^ v.^.W.Q./._._./././._.^.R.R.S.v.y.( / ~ a 4 a 8 3 4 4 4 4 4 4 4 4 4 ",
"4 4 4 4 4 4 4 4 4 4 4 9 4 4 a 4 a d < %.hX[.^.T.:.9 0 = O     X . . * 1 9 Z E.`._.v.z.x.e./ k.R.^._._.'._._././._.Q.W.R.A.n.p.( / / v 4 4 4 e 4 4 4 4 4 4 4 4 4 ",
"4 4 4 4 4 4 4 4 4 4 4 4 4 4 4 4 4 d < %.lX}.R.y.H 1 = % X O - r d v ; * @ : ;.v.'.n.f.l.9.^ p.m././._.'._././._./.R.W.V.n.h.p.} / ~ h 4 4 9 e 4 4 4 4 4 4 4 4 4 ",
"4 4 4 4 4 4 4 4 4 4 4 4 4 4 4 4 4 a < %.lX7XV.{ Z e @ X   O t r H J e X o o A y.'.m.f.x.9.R y.v././._._./._._._.W.A.W.C.f.f.p./ ~ ~ h 4 4 9 e 9 4 4 4 4 a 4 4 4 ",
"4 4 a 4 4 4 4 4 4 4 4 4 4 e 9 4 e e < &.xX{.T.| K w i ;   O O r B n B n @ o W g.[.b.k.c.r.c r.v.R.W._._._._._._.R.A.R.V.h.v.f.} / ~ h e e 4 4 4 4 4 4 4 4 4 4 4 ",
"4 4 4 4 4 4 e 4 4 4 a 4 4 4 4 4 4 h < ' hX'.b.( Z i i 8   $ $ y ] F J J 2 2 E y._.V.p.@.@.@.h.m.W.Q._._._._./._.W.T.E.V.l.9.+./ ! ~ h 4 4 4 4 4 4 4 4 4 4 4 4 4 ",
"4 4 4 4 4 4 4 4 4 4 4 4 4 4 4 4 2 v : ' xXT.9.X.C 8 u 8   $ - F -.' -.*.P H E r.I.C.i.( | x.V.Q.^._._._._._._.Q.W.R.R.V.i.O./ ( ) / h 1 4 a a 4 4 4 4 4 4 4 9 4 ",
"9 4 4 4 4 4 9 4 4 4 4 4 4 4 4 4 v v 5 &.jXtX].` C y i 8 . $ t Y &.*.P M G F S 9.V.O.X.y.k.T.V.R._._._._././.Q.Q.D.A.m.u.| { ! ( $.U h 1 8 a 9 4 4 4 4 4 4 4 4 4 ",
"4 4 4 4 4 4 4 4 4 4 9 4 4 4 4 4 e 1 1 J ].pXeX~ N i i 8 * - i Y *.*.P 0 B F ' 9.p.O.| f.C.R.T.^./././.^././.W.R.S.V.c.0.! ^ ( ( ~ x e 4 9 4 4 9 4 4 4 4 4 4 4 4 ",
"4 4 4 4 4 4 4 4 4 4 4 4 4 4 4 4 4 4 e 4 < L.eXn u y u M N F Y Y G G G F P &.a.9.R u.h.h.b.R.W.R.Q.D.W.R.W.W.W.D.W.A.h.r.^ ~ ( ~ k h 1 4 v 4 4 e 4 4 4 4 4 4 4 4 ",
"4 4 4 4 4 4 4 4 4 4 4 4 4 4 4 4 4 4 4 y 2 :.G.n H ;.;.:.t.d.1.<.d.<.t.w.;.>.0.9./ f.f.p.b.V.V.V.m.m.m.m.m.V.m.A.N.v.@.O./ / S b d 1 1 4 e 3 4 9 4 4 4 4 4 4 a 4 ",
"4 4 4 4 4 4 a 4 4 4 4 4 4 a 4 4 4 4 9 1 9 4 M P w.`.^.W.W.Q.E./.R.Q.^.(.b.p.^ ! / r.v.x.f.f.h.h.k.k.f.f.f.k.g.i.p.i.! ^ ( ( C s 9 4 y 4 3 4 4 9 4 4 4 4 4 4 4 4 ",
"4 4 4 4 4 4 4 4 4 4 4 4 4 4 4 4 4 4 4 4 4 y M L :./.D.I./.V.I.R.T.l.l.l.h.l.^ ^ W | { X.{ ..X.} | | O.r.x.f.x.x.@.` ( ^ ) ( S d 4 4 4 4 4 4 4 9 4 4 9 4 4 4 4 4 ",
"a 4 9 4 4 4 4 e 4 4 4 4 4 4 4 4 4 4 4 h 4 9 M M =.R.^.V.S.S.R.F.H.c.a.h.p.r.+.| ) [ | | { c { { | | ^ p.f.h.f.y.X.( / ( / A b 4 4 4 4 4 4 4 4 4 4 4 4 4 4 4 4 e ",
"4 4 4 4 4 4 4 4 e 4 4 4 4 4 9 4 4 4 4 4 4 4 9 0 ' W.S.!.^.R.R.Z.v.y.x.n.| ( Q.x.! m.).].l.c A.'.[.h.! y.x.v.r.! ) ! ( _ E j 4 3 4 4 4 9 4 4 4 4 4 4 4 4 4 4 4 4 ",
"4 4 4 4 4 4 4 4 4 4 4 4 4 4 4 4 4 e 4 4 4 4 4 5 +.rXR.E.B.v.H.k.l.l.i.@.| ( v.9.} q.j.f.4.! r.h.h.@.^ @.,.,.O.( ^ ( ( A b 4 4 e 4 4 4 4 4 4 4 a 4 4 4 4 4 a 4 4 ",
"4 4 4 4 4 4 4 a 4 4 4 4 4 4 4 4 4 4 4 4 a 4 4 < >.zX8XE.z.g.k.z.z.l.@.U ~ ( R W E ~ ~ U A ' W } ^ ! ^ ( ~ R ! ( ( ~ A j 9 0 4 a 4 4 4 4 4 4 4 4 4 4 4 4 4 4 4 4 ",
"4 4 4 4 4 4 4 4 4 4 9 4 4 4 4 4 4 4 4 4 4 h a < &.kX9X9XZ.y.( ..( Q G.XXP.#XP.P.#X#XP.&XP.XXd./ E.a.! ^ ^ | ! / ` A j 4 4 9 4 4 4 4 a 4 4 4 4 9 4 4 4 4 4 9 4 4 ",
"4 4 4 4 4 4 4 4 4 4 4 4 4 4 4 4 4 e 4 4 4 4 a 2 &.pXuXtXi.0.&.&.%.] 6.*X3X%X%X*X#XP.&X&X&XXXd.#.{.m.X.O.@.( / ( S b 4 4 4 4 a a 4 4 4 4 4 4 4 4 4 4 4 4 4 4 4 4 ",
"4 4 4 4 4 4 4 9 4 4 4 4 4 4 4 4 4 e 4 4 e 4 4 2  .hXuXqX) 3.@X@X@X+X+X$X8.+X#X6.^ ..( ~ _  .b./.!.].{.tX9X( ^ ~ s 4 4 9 4 4 a a 4 4 e 4 4 4 4 4 4 4 a 4 4 4 4 4 ",
"4 4 4 4 4 4 4 4 4 9 4 4 4 e 4 4 4 4 4 4 4 4 4 h n -.:.:.m G *.3.5.5.5.G.G.G.4.J.!.b.x.m.y.q.u.u.i.a.c.m.x. ._ ( v d 4 4 4 4 4 9 4 4 4 9 4 4 4 4 4 4 4 4 4 a 4 4 ",
"4 a 4 4 4 4 4 4 4 4 4 4 4 4 4 4 4 4 4 4 4 4 4 4 4 < < 3 ; ; ; Z ) ( _ / ) ) R !.cXrX}.oX'.b. ./ [ ` _ ! ( ( | ( v 4 4 4 4 4 4 4 4 4 4 4 4 4 4 a 4 4 4 4 4 4 4 4 ",
"4 4 9 4 4 4 4 4 4 4 4 4 9 4 4 4 4 4 4 4 4 4 4 4 8 4 d a 1 ] oXeXtXyXyXtXtXtXtX9X|.{.].}.Q.E.+._ N.r.c M.c.l h s h 4 4 4 4 4 4 4 4 4 4 4 4 4 4 4 4 9 4 4 4 4 4 4 ",
"4 4 4 4 4 4 4 4 a 4 4 4 4 4 4 4 4 4 a 4 4 4 4 9 d d a d < ' lXhXhXaXhXuXzXtXhXtX8X}.|.{.T.u.0.>.H.a.<.s.s.4 d 9 4 4 4 4 4 4 4 4 4 4 4 4 4 4 4 4 4 4 4 4 4 4 4 4 ",
"4 4 4 4 4 4 4 4 4 4 4 4 4 4 4 4 4 4 9 4 4 4 a 4 e 3 4 a 2 -.wXqX:XqX:X X X].'.8X{.[.[.W.9.p w.Y.C H.kXw.C 4 9 4 4 4 4 4 4 4 4 4 4 4 4 a 4 4 4 4 4 4 4 a 4 4 4 4 ",
"4 4 4 4 9 4 4 4 4 4 4 4 4 4 a 4 4 4 4 4 4 4 4 4 4 h a d 6 -.aXtXpXyXwXQ.>X>XqX8X{.).Q.).+., +.w.w.s.Y.a.o.j 5 4 4 4 4 4 4 v 4 4 4 4 4 4 4 4 4 4 4 4 4 4 4 4 4 4 ",
"4 4 4 4 4 4 a 4 9 4 4 4 4 4 4 4 4 4 4 4 4 4 4 4 4 4 2 m 2 =.cXzXkXxXwXY.>X>X>X}.|.W.m.Q.>.s A ` Q.t.z V.c.g 5 v 4 4 4 4 4 4 4 4 4 e 9 4 4 4 4 4 4 4 4 4 4 4 4 9 ",
"e 4 4 4 4 4 4 4 4 4 4 4 4 4 4 4 4 4 4 4 4 4 4 4 4 9 d 4 < %.eXtXqX).9X9XP w * &.[.i.X.l V V d.M.%.] D V x 3 d 4 4 4 4 4 4 4 4 4 4 4 4 4 4 4 4 4 e 4 4 4 4 4 4 4 ",
"4 4 a 4 4 4 4 9 4 4 4 4 4 4 4 4 4 4 4 4 4 4 9 4 4 4 4 9 5 K !.9XqXS._.eX0 + + i d.] ~ Q &.2.L..XS S j 3 < 4 d d 4 4 a 4 4 4 4 4 4 4 4 4 4 4 4 4 4 4 e 4 4 4 4 4 ",
"4 4 4 4 4 4 4 4 4 4 4 4 4 e 4 4 4 4 4 4 4 4 4 4 4 3 v 3 4 a p I.wX^.C.j.< X # # X @ k aXgX<XdXsXb s f > a 4 2 e 4 4 4 4 4 4 4 4 4 4 4 4 4 4 a 4 4 4 4 4 4 a 4 4 ",
"4 4 4 4 4 4 4 4 a 4 4 4 4 4 4 4 4 4 4 4 4 4 4 4 1 4 v 4 4 h p (.qXV.C.v.$.G + # # 3.K.2X1X*X5XsX.X1.p g 3 a y e 4 4 4 4 4 4 4 4 4 4 4 4 9 4 4 4 4 4 4 4 4 4 4 4 ",
"4 4 4 4 4 4 4 e 4 4 4 4 4 4 4 9 4 4 4 4 4 4 4 4 4 e 4 d 1 h V !.qXC.j.C.Q.M.; # % K.6X=X<X<X5XgXvX.Xv j a a 5 < 4 9 4 4 4 4 4 4 4 4 4 a 4 4 4 4 4 4 4 4 4 9 4 4 ",
"4 9 4 4 4 4 4 4 4 4 4 4 4 4 4 4 4 4 4 4 4 4 4 4 4 4 4 4 4 4 3 !.tXb.x.v.n.x.,.d.4.P.<X<X<X3X5XdX5X1X&XB < a d 9 4 4 4 4 4 4 9 4 4 4 4 4 4 4 4 4 4 4 4 4 4 4 4 4 ",
"4 4 4 4 4 4 4 4 4 9 4 4 4 4 a 4 4 4 4 4 4 4 4 4 1 4 4 e v h > s.Q.i.p.x.i.v.(.!. XXX<X4X;X*XfXgXfX5X4XP 2 j a 9 4 4 4 4 4 4 4 4 4 e 4 4 4 4 4 4 4 4 4 4 4 4 4 4 ",
"4 4 4 4 4 4 4 4 4 4 4 4 4 4 4 4 4 4 4 4 4 4 4 4 4 4 4 a 4 < : D { ( ( ~ / q.cXaXoX1X<X*X4X;X5XdXfX5X<XL = a a 4 4 e 4 4 4 4 4 4 9 4 4 4 4 4 4 4 4 a 9 4 4 4 4 4 ",
"4 4 4 4 4 4 a 4 4 4 4 4 4 4 4 4 4 4 4 4 4 4 4 4 4 4 a 4 y v j :.l.^ t.~./ A G.1.' K.$X3X1X=X4X6XgX1X1XL 5 a 4 r 4 4 4 4 4 4 a 4 4 4 4 4 4 4 4 4 4 4 4 4 4 4 4 9 ",
"4 4 9 4 4 4 4 4 4 4 4 4 a 4 e 4 4 4 4 4 4 4 e 4 4 9 e 4 4 j _ c.I.E H.kX' : b g > 6.@X*X*X3X%X<X5X4X=XP 5 e 4 4 4 4 4 4 4 e 4 4 4 4 4 4 4 4 4 4 4 4 4 4 4 4 4 4 ",
"h 4 4 4 4 4 4 4 4 4 4 4 4 4 4 4 4 4 4 4 4 4 4 4 d 4 4 4 1 K ~.,.+.H.oXaX%.z , >.2XeX2X@X+X$X@X@X=X3.w ; 5 4 2 9 4 4 4 4 4 4 a 4 4 4 4 4 4 9 4 4 4 4 4 4 4 4 4 4 ",
"4 4 4 4 4 4 4 4 4 4 4 4 4 4 4 4 4 4 4 4 4 4 4 4 v 2 4 4 2 n 1.E ~ I.U.E._ l f a.xXoXoXJ.7.7.7.7.3.I # m n 4 v 4 4 4 4 4 4 4 4 4 4 4 4 4 4 4 4 4 4 e 9 4 4 4 4 a ",
"4 4 4 4 4 4 4 4 4 4 4 4 4 4 9 4 4 4 4 4 9 4 4 4 4 4 4 y v : . & l j._ : , l W I.zXs.S _ F w w w 7 7 % G.G.3 4 1 4 4 4 4 9 4 4 4 4 4 4 4 4 4 4 a 4 4 4 4 4 4 4 4 ",
"4 4 4 4 4 4 4 4 4 4 9 4 4 4 4 4 4 4 4 4 4 4 4 a a v 5 5 9 5 & , s a.q.Q R ~ A T.jX{.m.R.a.%.M q 7 M 2.oX].a a 5 4 a 4 4 4 4 4 4 4 4 4 4 4 4 4 4 4 4 4 4 4 4 4 4 ",
"4 4 4 4 4 4 4 4 4 4 4 4 4 4 4 4 4 a 4 4 4 4 4 4 4 4 4 4 v 5 > p z j.d.+. ._ X.V.jXtXrXrX:XM.D q d -..XaXOXa a 4 4 4 4 4 4 4 4 4 4 4 4 4 4 4 4 4 4 a 4 4 4 4 4 9 ",
"4 4 a 4 4 4 4 9 4 4 4 4 4 4 4 4 4 9 4 4 4 4 4 4 4 3 4 4 v 3 >  .u.>.o.+. .@.tXuXwXqXqXm.i.b.a.s..XoX>XoXG.4 4 4 4 9 4 4 4 4 4 4 4 a 4 4 4 4 4 4 4 4 4 4 4 4 4 4 ",
"4 4 4 4 4 4 4 4 4 4 a 4 4 4 4 4 4 4 4 4 4 4 4 4 8 v 4 4 a s , +.s. .o.( ~ 0.uXtXwXoX(.b.c.c.x.B.U.U.a.d.%.9 4 4 4 4 4 4 4 4 4 4 4 4 4 9 e 4 4 4 4 4 4 4 4 4 4 4 ",
"4 4 4 4 4 4 4 4 4 9 e 4 4 4 4 e 4 4 4 4 4 4 4 4 a 4 4 1 d > p _ >.>.~ z ( q.9XrXrXT.v.b.b.b.C.h.O.g o = 5 e 3 h 4 4 4 4 4 4 4 4 4 4 4 4 4 4 a 4 4 4 4 4 4 a 4 4 ",
"4 4 9 e 4 4 4 4 4 4 4 4 4 4 4 9 4 4 4 4 4 4 4 4 h 4 4 4 4 3 , j x x l f c { b.b.h.r.,.0.9.9.r.@.( j < d 4 4 1 e 4 4 4 4 9 4 4 a 4 4 4 4 4 4 4 4 4 4 4 4 4 4 4 4 ",
"4 4 4 4 4 4 4 a 4 4 4 4 4 4 4 4 4 4 4 4 4 4 4 4 4 4 4 1 4 e , > > > > > l z E A S ~ ~ ~ ~ ~ ~ E x j a d 4 4 4 4 4 4 4 4 4 4 e 4 9 4 4 4 4 4 4 4 4 4 4 9 4 4 4 4 ",
"4 4 4 4 4 4 4 4 4 4 4 4 4 4 4 a 4 4 4 9 4 4 4 4 4 4 4 4 4 4 4 4 4 3 4 4 a a d a 4 v h 4 a a a 4 3 2 4 4 4 4 a 9 4 4 4 4 4 4 4 4 4 4 4 4 4 4 4 4 4 4 4 4 4 4 4 4 ",
"4 4 4 4 4 4 4 4 4 4 4 4 9 4 4 4 4 4 4 4 4 4 4 4 4 4 a 4 5 1 4 e 9 8 d 4 1 4 4 4 9 9 4 4 9 9 4 9 e 4 4 4 e 3 a 4 4 4 9 4 4 4 4 4 4 4 4 4 4 4 4 4 4 4 4 4 4 4 4 4 ",
"4 4 4 4 4 4 4 4 4 4 4 4 4 4 4 4 a 4 4 4 4 4 4 4 d 4 4 4 4 4 4 4 4 2 4 4 9 4 4 4 4 4 4 4 e 4 1 e 4 4 e 4 e 4 a 4 4 4 4 4 4 4 4 4 4 4 4 4 4 4 4 e 4 4 4 4 4 4 4 4 ",
"a 4 4 4 4 4 4 4 a 4 4 4 4 4 4 4 9 4 4 4 4 4 4 4 4 4 4 4 e 4 4 4 4 4 4 4 e 4 4 4 s 4 4 e 4 3 4 4 4 4 4 4 4 5 4 4 4 4 4 4 4 4 4 4 4 4 4 4 4 4 4 9 4 4 4 4 4 9 4 4 ",
"4 4 4 4 9 4 4 4 4 4 4 4 4 4 4 4 4 4 4 4 4 4 4 4 9 d 4 4 4 4 4 9 9 d 9 4 4 4 d 9 4 4 a 4 4 4 4 4 4 4 4 4 4 4 9 4 4 4 4 4 4 4 4 4 4 4 a 4 4 4 4 4 4 4 a 4 4 4 e 4 "
};
