/* XPM */
static char *result[] = {
/* columns rows colors chars-per-pixel */
"80 80 213 2 ",
"   c #0C0E0B",
".  c #0C130C",
"X  c #11130F",
"o  c #131313",
"O  c #171615",
"+  c #131B13",
"@  c #1C1C16",
"#  c #1D1D19",
"$  c #281709",
"%  c #301B0E",
"&  c #261C15",
"*  c #221E1A",
"=  c #1A251C",
"-  c #23221C",
";  c #2B261D",
":  c #32211A",
">  c #1D2222",
",  c #252521",
"<  c #2B2621",
"1  c #252C26",
"2  c #2B2B24",
"3  c #2D2E2A",
"4  c #352C27",
"5  c #2B352A",
"6  c #2E312D",
"7  c #31332E",
"8  c #39352E",
"9  c #2A2E31",
"0  c #3E2F32",
"q  c #2C3433",
"w  c #2C3739",
"e  c #2E3B3C",
"r  c #323431",
"t  c #353635",
"y  c #353A36",
"u  c #3D3A33",
"i  c #353B39",
"p  c #3C3D3C",
"a  c #412E2F",
"s  c #43322C",
"d  c #443C36",
"f  c #463E39",
"g  c #4C3B38",
"h  c #3A433C",
"j  c #464039",
"k  c #48433E",
"l  c #2F3C41",
"z  c #343E41",
"x  c #383C40",
"c  c #4F3F40",
"v  c #354143",
"b  c #3B4344",
"n  c #384548",
"m  c #3A4549",
"M  c #3D494C",
"N  c #454644",
"B  c #4B4541",
"V  c #434A46",
"C  c #4B4944",
"Z  c #424C4C",
"A  c #4D4D4D",
"S  c #554A46",
"D  c #544E49",
"F  c #455245",
"G  c #4B514E",
"H  c #57534B",
"J  c #59524C",
"K  c #414F52",
"L  c #445255",
"P  c #4A5352",
"I  c #49575A",
"U  c #4B5A5D",
"Y  c #535552",
"T  c #5B5652",
"R  c #525956",
"E  c #5D5955",
"W  c #525C5C",
"Q  c #5B5C5A",
"!  c #60574B",
"~  c #665854",
"^  c #615C59",
"/  c #56605C",
"(  c #6D655A",
")  c #74675A",
"_  c #4C5D62",
"`  c #525D61",
"'  c #4F6264",
"]  c #4F6469",
"[  c #4E6868",
"{  c #516366",
"}  c #586365",
"|  c #586864",
" . c #51656A",
".. c #5B666A",
"X. c #55696D",
"o. c #5B6A6D",
"O. c #566D71",
"+. c #5A6E72",
"@. c #5C7175",
"#. c #5D7579",
"$. c #5F787C",
"%. c #646563",
"&. c #656768",
"*. c #656B6B",
"=. c #686C6A",
"-. c #69716D",
";. c #6C706F",
":. c #637274",
">. c #6D7474",
",. c #62767B",
"<. c #69767B",
"1. c #657A7E",
"2. c #697B7E",
"3. c #767977",
"4. c #737C7D",
"5. c #8D7E72",
"6. c #86857E",
"7. c #87877F",
"8. c #998A7B",
"9. c #657C81",
"0. c #697D82",
"q. c #727F81",
"w. c #6B8185",
"e. c #6E858A",
"r. c #6E898C",
"t. c #728285",
"y. c #7A8587",
"u. c #71868B",
"i. c #748A8E",
"p. c #7C8A8C",
"a. c #758E92",
"s. c #798E93",
"d. c #7D8F98",
"f. c #779094",
"g. c #7A9296",
"h. c #7C959A",
"j. c #7F999D",
"k. c #818986",
"l. c #828986",
"z. c #8A8F8C",
"x. c #989387",
"c. c #8A9494",
"v. c #80979C",
"b. c #819A9E",
"n. c #88989B",
"m. c #AB9987",
"M. c #B69E8B",
"N. c #A59E9B",
"B. c #BCA48D",
"V. c #B9A796",
"C. c #B0AA9E",
"Z. c #B6AC9C",
"A. c #BAAD9C",
"S. c #849DA2",
"D. c #8D9EA2",
"F. c #959EA1",
"G. c #87A1A5",
"H. c #89A3A7",
"J. c #8BA5A9",
"K. c #8EA9AC",
"L. c #99A6A5",
"P. c #91A6AA",
"I. c #92AAAE",
"U. c #8FABB1",
"Y. c #93ADB2",
"T. c #9AAFB3",
"R. c #9BB2B5",
"E. c #9EB5BA",
"W. c #A1ADAE",
"Q. c #B7ACA0",
"!. c #A5B2B2",
"~. c #ACB6B7",
"^. c #A2B6BB",
"/. c #A2BABE",
"(. c #AEBBBB",
"). c #C2A895",
"_. c #CAAF96",
"`. c #C5B29D",
"'. c #C8B9A7",
"]. c #D3BCA4",
"[. c #D4BEA9",
"{. c #D9BDA8",
"}. c #C2BEBA",
"|. c #BEC3B8",
" X c #D6C2AB",
".X c #D9C2AC",
"XX c #CAC6BB",
"oX c #D8C8B7",
"OX c #E1CBB7",
"+X c #E1CFBE",
"@X c #A5BDC1",
"#X c #AABEC2",
"$X c #ACC2C5",
"%X c #AFC4C8",
"&X c #B1C2C6",
"*X c #B2C4CA",
"=X c #BDC6C9",
"-X c #B6C9CD",
";X c #BBCACD",
":X c #B7CCD0",
">X c #BDCED2",
",X c #BFD1D7",
"<X c #C9CECA",
"1X c #DCD1C2",
"2X c #C2CCD2",
"3X c #C4D3D7",
"4X c #C5D7DA",
"5X c #C5D8DC",
"6X c #C8D9DE",
"7X c #E4D3C3",
"8X c #E6D7CB",
"9X c #EADACB",
"0X c #CADBE1",
/* pixels */
"2 2 2 2 2 2 2 2 2 2 2 2 2 2 2 2 2 2 2 2 2 2 < 2 2 2 2 2 2 2 2 2 2 ; 2 2 < 2 < 2 < 2 2 < 2 < 2 < 2 < 2 2 2 2 2 2 2 2 2 2 2 2 2 2 2 2 2 2 2 2 2 2 2 2 2 2 2 2 2 2 ",
"2 2 2 2 2 2 2 2 2 2 2 2 2 2 2 2 2 2 2 2 2 2 2 2 < 2 2 < ; 7 7 7 7 r r r r r r 7 r q r 7 r r r r 6 r 7 2 2 2 2 2 2 2 2 2 2 2 2 2 2 2 2 2 2 2 2 2 2 2 2 2 2 2 2 2 ",
"2 2 2 2 2 2 2 2 2 2 3 2 2 2 2 2 2 2 2 2 2 2 ; < 2 < < 2 < V 2.2.0.9.0.0.0.2.2.2.0.0.0.0.2.0.2.0.2.2.<.h < < 2 2 2 2 2 2 2 2 2 2 2 2 2 2 2 2 2 2 2 2 2 2 2 2 2 2 ",
"2 2 2 2 3 2 2 2 2 2 2 2 2 2 2 2 , 2 2 2 2 V P V V N N N G o.a.s.s.s.a.s.g.h.h.h.h.j.f.f.s.s.a.f.f.g.i.{ V V y 2 < 2 2 2 2 2 2 2 2 2 2 2 2 2 2 2 2 2 2 2 2 2 2 2 ",
"2 2 2 2 2 2 2 2 2 2 2 2 2 2 2 2 2 < 2 2 3 q.J.a.i.i.i.s.b.b.a.a.a.a.a.a.S.H.H.H.J.J.S.g.a.a.a.a.a.f.a.i.i.p./ 2 ; 1 2 < 2 2 2 2 2 2 2 2 2 2 2 2 2 2 2 2 2 2 2 2 ",
"2 2 2 2 2 2 2 2 5 2 2 2 2 3 2 2 2 < < Y z.P.U.d.a.a.a.a.h.h.b.g.a.a.a.a.S.H.H.H.G.J.G.j.S.j.j.S.b.h.a.a.a.a.0.} | R 6 < 2 2 2 2 2 2 2 2 2 2 2 2 2 2 2 2 2 2 2 2 ",
"2 2 2 2 2 2 2 2 2 2 2 2 2 2 2 2 2 2 < >.5X@XK.a.a.s.a.a.a.j.H.h.a.a.a.a.S.H.H.J.H.H.J.H.G.J.H.H.H.b.f.f.i.a.a.f.f.9.h 6 2 2 2 < 2 2 2 2 2 2 2 2 2 2 2 2 2 2 2 5 ",
"2 2 2 2 2 2 2 2 2 2 2 2 2 2 2 ; 2 < < <.5X@XK.f.a.a.a.a.a.h.H.h.a.a.a.a.a.h.G.H.J.G.J.H.H.J.H.H.J.H.G.f.a.a.a.f.f.i.w.R , 2 < 2 2 2 2 2 2 2 2 2 2 2 2 2 2 2 2 2 ",
"2 2 2 2 2 2 2 2 2 2 2 2 2 2 2 2 2 2 < >.4X/.U.j.f.f.f.r.r.h.K.j.g.h.d.a.a.a.b.S.S.G.J.G.H.J.J.K.K.K.K.b.h.h.f.a.a.f.g.:.M 7 ; 2 2 2 2 2 2 2 2 2 2 2 2 3 2 2 2 2 ",
"2 2 2 2 2 5 2 2 2 2 2 2 2 2 2 2 2 2 < >.4X/.U.J.j.f.a.f.f.j.K.j.H.H.S.a.a.a.a.a.f.S.J.J.J.H.U.Y.I.Y.Y.K.H.H.S.f.f.f.a.a.y.M 1 2 2 2 2 2 2 2 2 2 2 2 2 2 2 2 2 2 ",
"2 2 2 2 2 2 2 2 2 2 2 2 2 2 2 2 2 2 < >.4XE.U.K.j.a.f.f.r.j.J.J.K.H.v.a.a.a.a.a.a.g.j.H.J.J.Y.Y.Y.Y.Y.Y.K.K.H.b.f.f.a.a.a.:.R 6 2 2 2 2 2 2 2 2 2 2 2 2 2 2 2 2 ",
"2 2 2 2 2 2 2 2 2 2 2 2 2 2 2 2 2 2 < >.4X/.Y.J.j.f.f.r.f.j.J.J.H.J.S.a.a.a.a.a.a.i.f.G.S.S.U.Y.Y.Y.Y.Y.Y.Y.I.H.f.f.a.a.f.a.<.y 3 < < 2 2 2 2 2 2 2 2 2 2 2 2 2 ",
"2 2 2 2 2 2 2 2 5 2 2 2 2 2 2 2 2 2 < >.,X@XU.J.j.f.f.a.f.j.J.J.J.J.G.S.g.a.a.9.O.w.a.f.f.f.S.J.Y.Y.Y.Y.Y.Y.K.H.h.a.a.a.i.#.X.U h 2 2 2 2 2 2 2 2 2 2 2 2 2 2 2 ",
"2 2 2 2 2 2 2 2 ; 2 2 2 2 2 2 2 2 2 < >.5X@XU.J.j.f.f.a.r.h.J.J.J.H.J.H.g.a.a.e.#.9.0.a.a.f.S.J.K.I.Y.Y.Y.Y.K.H.b.h.a.a.a.@. . .L p 6 2 2 2 2 2 2 2 2 2 2 2 2 2 ",
"2 2 2 2 2 2 2 2 2 2 2 2 2 2 2 2 2 2 2 >.5X@XU.U.j.a.a.a.f.j.J.J.J.J.J.H.h.a.a.a.a.@.O.a.a.f.S.J.J.K.Y.Y.Y.Y.K.H.H.S.f.a.a.@. . .' ' h 2 2 2 2 2 2 2 2 2 2 2 2 2 ",
"2 2 2 2 2 2 2 2 2 2 2 2 2 2 2 2 1 2 < >.5XE.U.J.j.a.a.a.r.j.J.J.J.J.H.J.S.j.f.a.a.w.9.#.0.f.f.j.H.K.Y.Y.I.Y.Y.I.J.S.f.a.a.w.2.X.] ' y 2 2 2 2 2 2 2 2 2 2 2 2 2 ",
"2 2 2 2 2 2 2 2 2 2 2 2 2 2 2 2 2 2 ; >.5XE.U.J.j.f.f.f.a.j.J.J.J.H.G.J.H.G.f.f.a.s.r.] #.s.a.f.G.K.K.Y.Y.Y.Y.Y.J.G.g.f.f.i.r.X. ._ i < 2 2 2 2 2 2 2 2 2 2 2 2 ",
"2 2 2 2 2 2 2 2 2 2 2 2 2 2 2 2 2 2 ; >.5X|.U.J.j.f.f.r.r.j.J.J.J.J.J.H.J.J.G.j.a.a.r.O.,.a.a.f.f.j.K.K.Y.Y.Y.Y.J.G.G.j.f.a.r.| ' ' i 2 2 2 2 2 2 2 2 2 2 2 3 2 ",
"2 2 2 2 2 2 2 2 2 2 2 2 2 2 2 2 2 2 ; >.5X/.U.U.j.f.f.a.a.h.J.J.J.J.J.J.H.H.J.j.a.a.r. .#.g.f.f.j.b.H.I.Y.Y.Y.Y.K.G.H.S.a.a.r.X. .' i < 2 2 2 2 2 2 2 2 2 2 2 2 ",
"2 2 2 3 2 2 2 2 2 2 5 2 2 2 2 2 2 2 ; 3.5X/.U.J.j.r.f.a.a.j.J.J.J.J.J.J.J.J.J.j.a.s.i. .#.a.f.f.G.G.K.K.Y.Y.Y.Y.K.G.H.j.a.a.e.X.' ' i 2 2 2 2 2 2 2 2 2 2 2 2 2 ",
"2 2 2 2 2 2 2 2 2 2 2 2 2 2 2 2 2 2 < >.5X/.U.U.j.a.f.a.a.h.J.J.J.H.J.J.J.J.J.G.S.g.a.w.1.#.u.g.G.H.H.K.K.K.Y.Y.K.H.J.j.f.a.r.X.' ' i 2 2 2 2 2 2 2 2 2 2 2 2 2 ",
"2 2 2 2 2 2 2 2 2 2 2 2 2 2 2 2 2 2 < >.,X/.U.J.j.a.a.a.a.j.H.H.H.H.H.H.J.G.J.J.D.g.a.f.1. .w.g.H.H.J.H.K.K.Y.Y.U.J.G.j.a.a.u. . .' i < 2 2 2 2 2 2 2 2 2 2 2 2 ",
"2 2 2 3 2 2 5 ; 2 2 2 2 2 2 2 2 2 < < <.5X/.U.U.j.a.f.a.i.j.J.J.J.H.H.J.J.J.J.J.G.h.a.f.1.[ w.g.H.H.K.K.K.Y.Y.Y.Y.J.h.a.a.a.r.X.{ ' y 2 2 2 2 2 2 2 2 2 2 2 2 3 ",
"2 2 2 2 2 2 2 2 2 2 2 2 2 2 2 2 2 2 < :.5X/.U.J.j.a.a.a.a.j.J.I.K.K.K.K.U.J.J.J.G.h.a.a.1.X.w.g.G.J.K.K.Y.Y.Y.Y.Y.K.j.h.h.a.e.X.] ' y 2 2 2 2 2 2 2 2 2 2 2 2 2 ",
"2 2 2 2 2 2 2 2 2 2 2 2 2 2 2 2 2 2 < >.4X@XU.K.j.a.a.a.a.b.Y.Y.Y.Y.Y.Y.Y.Y.K.H.H.h.a.a.$.[ w.h.G.K.Y.Y.Y.Y.Y.Y.Y.Y.J.H.G.h.r. . .' i < 2 2 2 2 2 2 2 2 2 2 2 2 ",
"2 2 2 2 2 2 2 2 2 2 2 2 2 2 2 2 2 2 < >.3X@XU.D.S.a.a.a.a.S.Y.Y.Y.Y.Y.Y.Y.Y.U.K.G.h.a.a.w. .i.S.J.Y.Y.Y.Y.Y.Y.Y.Y.Y.J.H.J.h.u.X.' ' y 2 2 2 2 2 2 2 2 2 3 2 2 2 ",
"2 2 2 2 2 2 2 2 2 2 2 2 2 2 2 2 2 2 < >.4X@XU.K.S.0.u.u.r.h.G.J.H.H.H.J.G.K.Y.U.J.h.a.a.$. .f.J.H.K.Y.R.Y.R.Y.Y.Y.Y.J.J.G.h.u.X.{ ' y < 2 2 2 2 2 2 2 2 2 2 2 2 ",
"2 2 2 2 2 2 2 2 2 2 2 2 2 2 2 2 < 2 2 >.4X@XU.J.a.O.X.O.O.O.O.O.@.O.O.O.O.$.K.Y.K.h.a.a.1.[ f.J.G.K.Y.Y.Y.Y.Y.Y.Y.Y.J.H.G.d.e.X.] ' y 2 2 2 2 2 2 2 2 2 2 2 2 2 ",
"2 2 2 2 2 2 2 2 2 2 2 2 2 2 2 2 2 2 < >.4X/.U.J.0.P P K b v v v v v M P P | H.Y.I.h.f.f.9. .f.J.K.I.Y.Y.T.Y.Y.Y.Y.Y.S.J.J.h.e.X.] ' y 2 2 2 2 3 2 2 2 2 2 2 2 2 ",
"2 2 2 2 2 2 2 2 2 2 2 2 2 2 2 2 2 2 < >.4X^.U.J.<.f d 0 O X o + O O , d h D H.Y.Y.j.f.a.9.[ f.K.U.Y.Y.Y.Y.Y.Y.Y.Y.U.J.K.S.h.e.X.' ' y 2 2 2 2 2 2 2 2 2 2 2 2 2 ",
"2 2 2 2 2 2 2 2 2 2 2 2 2 2 2 2 2 2 < >.4X/.H.9.` g 3 #   + 1 y b p 7 - * 7 :.g.Y.h.a.a.9.[ e.j.Y.Y.Y.Y.Y.Y.Y.Y.U.J.J.j.h.f.e.X.] ' h 2 2 2 2 2 2 2 2 2 2 2 2 2 ",
"2 2 5 2 2 2 2 2 2 3 2 2 2 2 5 ; 2 2 < <.6X/.D.O.P a < O   + 5 k Y Y p # o > U w.Y.h.a.a.9.] w.g.K.Y.Y.R.Y.Y.Y.Y.U.G.J.j.a.a.e.X.] ' y ; 2 2 2 2 2 2 2 2 5 2 2 2 ",
"2 2 2 2 2 3 2 2 2 2 2 2 2 2 2 2 2 2 2 >.4X/.G.O.G d j 4 . . = h Y A A A , > I u.Y.h.s.a.9. .0.g.H.K.Y.Y.R.Y.Y.Y.K.H.J.j.f.a.r. .{ ' y 2 2 2 2 2 2 2 2 2 2 2 2 2 ",
"2 2 2 2 2 2 2 2 2 2 2 2 2 2 2 2 2 2 ; >.4XT.h.o.G d j 8   + = F Q Q Q Q c w _ 0.U.h.a.9.1.,.a.S.K.U.Y.Y.Y.Y.Y.Y.K.H.J.j.f.w.9. .' ' i 2 2 2 2 2 2 2 2 2 2 2 2 2 ",
"3 2 2 2 2 2 2 2 2 2 2 2 2 2 2 2 2 2 ; >.3XK.u.X.P j j 8   + 5 R =.&.=.%.Q T ` 0.S.h.e.O.$.a.S.J.Y.Y.Y.Y.Y.Y.Y.K.K.J.H.j.u.@.[ [ ] ' y 2 2 2 2 2 2 2 2 2 2 2 2 2 ",
"2 2 2 2 2 2 2 2 2 2 2 2 2 2 2 2 2 2 ; >.4X-XT.+.P j j u + - h / &.&.^ D J Q _ 9.f.9.9.0.a.S.S.J.Y.Y.Y.Y.Y.Y.K.K.H.G.j.w.+. .]  .[ { y 1 2 2 2 2 2 2 2 2 2 2 2 2 ",
"2 2 2 2 2 2 2 2 2 2 2 2 2 2 2 2 2 2 2 %.~.=X(.o.F j j u , 5 F Q %.&.T B D T X.,.e.@.#.e.v.H.H.H.Y.I.Y.K.Y.U.K.H.J.G.a.9. . . .] ' P y 2 2 2 2 2 2 2 2 2 2 2 2 2 ",
"2 2 2 2 2 2 2 2 2 2 5 2 2 2 2 2 2 2 2 r C L.~.Y C N k C J E E Q ^ ^ E ~ ~ %.u.9.O.0.a.a.h.J.J.H.J.J.J.J.J.J.K.H.J.S.a.9.[ ] ]  .M 6 2 2 2 2 2 2 2 2 2 2 2 2 2 2 ",
"2 2 2 2 2 2 2 2 2 2 2 2 2 2 2 2 2 2 2 4 3 ;.l.T Q :.>.>.q.q.4.0.q.4.q.q.>.<.9.@. .0.s.a.h.b.h.S.j.j.b.j.b.j.j.j.j.f.0.@.[ ] _ M h 2 2 2 2 2 2 2 2 2 2 2 2 2 2 2 ",
"2 2 2 2 2 2 2 2 2 2 2 2 2 2 2 2 2 2 2 < < d S E 4.J.J.H.K.H.J.J.J.D.H.H.h.u. . .X.0.a.a.i.a.i.a.a.i.a.i.a.f.f.a.a.r. . . .] I 6 ; 2 2 2 2 2 2 2 2 2 2 2 2 2 2 2 ",
"2 2 2 3 2 2 2 2 2 2 2 2 2 2 2 2 < 2 2 2 < f D T 3.J.J.H.J.H.J.J.S.h.h.g.a.r. . . .O.+.@.+.+.O.+.+.+.@.e.a.a.a.a.1.X. .X.] [ U 3 2 2 ; 2 2 2 2 3 2 2 2 2 2 2 2 2 ",
"2 2 2 2 2 2 2 2 2 2 2 2 2 2 2 2 2 2 2 < 2 d B J :.H.J.H.J.H.G.S.S.a.a.a.i.w.#.O.] +.#.#.O.{ +.#.#.O.] w.s.a.i.r.+.[ ] ] ] U Z 3 2 2 2 2 2 2 2 2 2 2 2 2 2 2 2 < ",
"2 2 2 2 2 2 2 2 2 2 5 2 2 2 2 2 2 2 < 2 2 , 4 B -.H.J.H.G.G.H.h.a.a.s.a.#.@.H.i. .d.P.P.i. .v.P.I.i. .w.s.a.0. . .] {  .{ h 2 2 2 2 2 2 2 2 2 2 2 2 2 2 2 2 2 5 ",
"2 2 2 2 2 2 2 2 2 2 2 2 2 2 2 2 2 2 2 2 2 1 2 0 :.@XY.S.S.j.j.d.a.a.e.9.O.X.u.1. .0.i.a.,.X.0.i.a.,.] #.9.2.+. .] ]  .I m 7 < 2 2 2 2 2 2 2 2 2 < 5 2 2 2 2 2 2 ",
"2 2 2 2 2 2 2 2 2 2 2 2 2 2 2 2 2 2 2 2 2 2 2 , >.3XE.H.f.a.a.a.a.a.9.X...X.} X.X...X.| X.X.X. . . .] ] { [  .[ X. .{ Z 2 2 2 2 2 2 2 2 4 2 2 2 2 2 2 2 2 2 2 2 ",
"3 2 2 2 2 2 2 2 2 2 2 2 2 2 2 2 2 2 2 2 2 2 2 , ;.4X>X/.h.w.O.@.O.O.k.Q.A.Z.C.V.Z.A.A.A.A.Z.4.+.D.r.' ] ]  .] {  .U i 7 2 2 2 2 2 2 2 2 2 2 2 2 2 2 2 2 2 2 2 2 ",
"2 2 2 2 2 2 2 2 2 2 2 2 2 2 2 2 2 2 2 , 2 2 2 , -.2X2X&Xa.9.-.-.-.*.x.].].].].'.A.A.`.A.A.Q.y.w.T.b.,.2.,.X.] X.U K 2 ; 2 2 2 2 2 2 2 2 2 2 2 2 2 2 2 2 2 2 2 2 ",
"2 2 2 2 2 2 2 2 2 2 2 2 2 2 2 2 2 2 2 2 2 2 2 < -.;X>X/.@.4.m.M.M.M.M.).B.B.).8.:.+.@.@.+.:.h.H.H.I.R.@XR.X.' ] v 2 2 ; 2 2 2 2 2 2 2 2 2 2 2 2 2 2 2 2 2 2 2 2 ",
"2 2 2 2 2 2 2 2 2 2 2 2 2 2 2 2 2 2 2 2 2 2 2 2 C 3.3.-.V H ) 5.7.l.7.l.l.6.7.c.P.h.g.g.a.0.u.u.u.i.g.n.g.X. . .z 2 2 2 2 2 2 2 2 2 2 2 2 2 2 2 2 2 2 2 2 2 2 2 ",
"2 2 2 2 2 2 2 2 5 2 2 2 2 2 2 2 2 2 2 2 2 2 2 2 ; 2 1 ; < 2 r { :.@.:.#.@.#.@.D.5X$X^.^.P.d.,.X.+.X.X.o.@.X.O. .i 2 2 2 2 2 2 2 2 2 2 2 2 2 2 2 2 2 2 2 2 2 2 2 ",
"2 2 2 2 2 2 2 2 ; 2 2 2 2 2 2 3 2 2 2 2 2 2 2 2 2 2 ; 2 < %.R.|.&X&X%X#X&X&X%X#X@X^.E.^.Y.S.:.+.g.w.{ u.i.M i y 2 2 2 2 2 2 2 2 2 2 2 2 4 2 2 2 2 2 2 2 2 2 2 2 ",
"2 2 2 2 2 2 2 2 2 2 2 2 2 2 2 2 2 2 2 2 2 2 2 2 2 2 2 2 ; :.4X5X4X4X4X,X3X3X3X*X^.E.^.R.D.u.1.<.z.p.q.p.t.b q ; 2 2 2 2 2 2 2 2 2 2 2 2 2 2 2 2 2 2 2 2 2 2 2 2 ",
"2 2 2 2 2 2 2 2 2 2 2 2 2 2 2 2 2 2 2 2 2 2 2 2 2 2 2 2 ; *.*X&X&X&X|.R.^.^.^./.R.^.E.K.2.n q.v...z.=Xy.U x r 2 2 2 2 2 2 2 2 2 2 2 2 2 2 2 2 2 2 2 2 2 2 5 2 2 ",
"; 5 2 2 2 2 2 2 2 2 2 2 2 2 2 2 2 2 2 2 2 2 2 2 2 2 2 2 ; :.>X>X>X>X$XU./.#X#X/.^.T.U.K.,.x +.q.w.s.c.p.<.x 7 2 2 2 2 2 2 2 2 2 2 2 2 2 2 2 2 2 2 2 2 2 2 2 2 2 ",
"2 2 2 2 2 2 3 2 2 2 2 5 2 2 2 2 2 2 2 2 2 2 2 2 2 2 2 2 ; >.6X0X6X6X$XL.!.(.^.^.E.K.S.S.:.x I :.b.t.` s.i.m r 2 2 2 2 2 2 2 2 2 2 2 2 2 2 2 2 2 2 2 2 2 2 2 2 2 ",
"2 2 2 2 2 2 2 2 2 2 2 2 2 2 2 2 2 2 3 2 2 2 3 2 2 2 2 2 < -.-X-X%XY.@X(.( d s ..U.e.+.L K R t.s.:.} P L K i r < 2 2 2 2 2 2 2 2 2 5 2 2 2 2 2 2 2 2 2 2 2 2 2 2 ",
"2 2 2 2 2 2 2 2 2 2 2 2 2 2 2 2 2 2 2 2 2 2 2 2 2 2 2 2 < Q D.^.@XJ.Y.^.C $ $ f 2.| ` } =.3.F.L.} I M z i w 6 < 2 2 2 2 2 2 2 2 2 2 2 2 2 2 2 2 2 2 2 2 2 2 2 2 ",
"2 2 2 2 2 2 3 2 2 2 2 2 2 2 2 2 2 2 2 2 2 2 2 2 2 2 2 2 2 w m D.$XJ.S.d.p $ % & - 6 W =X<X X7X}.W m i i t 3 1 2 2 2 2 2 2 2 2 2 2 2 2 2 2 2 2 2 2 2 2 2 2 2 2 2 ",
"2 2 2 2 2 2 2 2 2 2 2 2 2 2 2 2 2 2 2 2 2 2 2 2 2 2 2 < < t M D.@XS.j.d.:.Y % $ $ ) x.XXoX.X7X1XN.>.m z e 2 2 2 2 1 2 2 2 2 2 2 2 2 5 2 2 2 2 2 2 2 2 2 2 2 2 2 ",
"2 2 2 2 2 2 2 2 2 2 2 2 2 2 2 2 2 2 2 2 2 2 2 2 2 2 2 2 < t K D.@Xj.g.h.S.s.4 : s m.OX X.X.X7X9X9XW.R b t 2 2 2 2 2 2 2 2 2 2 2 2 2 2 2 2 2 2 2 2 2 2 2 2 2 2 2 ",
"2 2 2 5 2 2 2 2 2 2 2 2 2 2 2 2 2 2 2 2 2 2 2 2 2 2 2 2 2 6 c D.@XS.g.d.h.g.2.q.z.A. X X.X.X7X9X7XoXV.D 2 2 2 2 2 2 2 2 2 2 2 2 2 2 2 2 2 2 2 2 5 2 2 2 2 2 2 2 ",
"2 2 2 ; 2 2 2 2 2 2 2 2 2 2 2 2 2 2 2 2 2 2 2 2 2 2 2 < 2 6 e y.J.u.r.r.u.a.P.L.L.'. X X.X.X7X9X9X+X[.! 2 2 2 2 2 2 2 2 2 2 2 2 2 2 2 2 2 2 2 2 2 2 2 2 2 2 2 2 ",
"2 2 2 2 2 2 2 2 2 2 2 2 2 2 2 2 2 2 2 2 2 2 2 2 2 2 2 ; < 9 3 _ +.+.O.O.O.q.3X>X!.'. X.X.X.X7X9X9X+X[.J 2 2 2 2 2 2 2 2 2 2 2 2 2 2 2 2 2 2 2 2 2 2 2 2 2 2 2 2 ",
"3 2 2 2 ; 5 2 2 2 2 2 2 3 2 2 2 2 2 2 2 2 2 2 2 2 2 2 2 < t N 9.e...q.F.X._ l.q.>.m._..X.X.XoX1X8X+X[.! 2 2 2 2 2 2 2 2 2 2 2 2 2 2 2 2 2 2 2 2 2 2 2 2 2 2 2 2 ",
"2 2 2 2 2 2 2 2 2 2 2 2 2 2 2 2 2 2 2 2 2 2 2 2 2 2 2 2 - N ..i.d.o.c.2X&.z M M K 8.V.].{.{.{.{.7XoX`.J , 3 < 2 2 2 2 2 2 2 2 2 2 2 2 3 2 2 2 2 2 2 2 2 2 2 2 2 ",
"2 2 2 2 2 2 2 2 2 2 2 2 2 2 2 2 2 2 2 2 2 2 2 2 2 2 - & = G n.2.<.d.!.2X<.m x <.~.XXXX)._._.).).`.5.g < 2 < 2 2 2 2 2 2 2 2 2 2 2 2 2 2 2 2 2 2 2 2 2 2 2 2 2 2 ",
"2 2 2 2 2 2 2 2 2 2 2 2 2 2 2 2 2 2 2 2 2 2 2 2 ; - - @ & m ,.W ` S.D.F.` M M p.3X~.T.x.8.5.5.5.5.~ 4 c C 3 2 2 1 2 2 2 2 2 2 2 2 2 2 2 2 2 2 2 2 2 2 2 2 2 2 2 ",
"2 2 2 2 2 2 2 2 5 2 2 2 2 2 2 2 2 2 2 2 2 2 2 2 - = @ @ @ O O 9 K q...l z n _ S.6Xs.+.+.^ g g g s a a 5.k.t 2 2 2 2 2 2 2 2 2 2 2 2 2 2 2 2 2 2 2 2 2 2 2 2 2 5 ",
"2 2 2 2 2 2 2 5 2 2 2 2 2 2 2 2 2 2 2 2 2 2 2 - # # # @ O * 1 9 m q.0._ _ I  .n.6XW.D.H.y.*.D g s S >.!.T.4 < 2 2 2 2 2 2 2 2 2 2 2 2 2 2 2 2 2 2 2 2 2 2 2 2 2 ",
"2 2 2 2 2 2 2 2 2 2 2 2 2 2 2 2 2 2 2 2 2 2 - - @ # # # X > w z L q.q.9.O.+.,.H.6X;X*X#XI.g.E g c ;.W.>X~.3 = < 2 2 2 2 2 2 2 2 5 2 2 2 2 2 2 2 2 2 2 2 2 2 2 2 ",
"2 2 2 2 2 2 2 2 2 2 2 2 2 2 2 2 2 2 2 2 2 - - @ # # # O o > e o.q.9.,.:.X.2.$X:X*X%X@XS.v.h.y.p.N.W.(.!.c.2 @ * , 2 2 2 2 2 2 2 2 2 2 2 2 2 2 2 2 2 2 2 2 2 2 2 ",
"2 2 2 2 2 2 2 2 2 2 2 2 2 2 2 2 2 2 2 2 2 - @ @ # # # O o > e @.q.:.+.} X.0.-X>X%X^.T.h.g.h.h.h.S.c.l.4.%., @ @ , 2 2 2 2 2 2 2 2 2 2 2 2 2 2 2 2 2 2 2 2 2 2 2 ",
"2 2 2 2 2 2 2 2 2 2 2 2 2 2 2 2 2 2 2 2 2 - @ # # # # @ o > e ` :.+.} L _ 9./.*X#XH.g.g.h.f.d.a.:.Z , # * @ @ @ - 2 2 2 2 2 2 2 2 2 2 2 2 2 2 2 2 2 2 2 2 2 5 2 ",
"2 2 2 2 2 2 2 2 2 2 2 2 2 2 3 2 2 2 2 2 2 - @ @ # # # O X > w M L K M n _ O.a.f.s.0.0.9.9.9.9.9.] m O # @ @ @ * < 2 2 2 2 2 2 2 2 2 2 2 2 2 2 2 2 2 2 2 2 2 2 2 ",
"2 2 2 2 2 2 2 2 2 2 2 2 2 2 2 2 2 2 2 2 2 - = @ # # # * O = 9 q w w t w n U ' { { { { {  . .{ ` L i * # @ = @ - - 2 2 2 2 2 2 2 2 2 2 2 2 2 3 2 2 ; 2 2 2 2 2 2 ",
"2 2 2 2 2 2 2 2 2 2 2 2 ; 5 2 2 2 2 2 2 2 , , ; 2 , 2 < , < 1 1 3 2 3 3 3 9 r 6 7 7 r 6 r 3 7 6 q 2 2 2 2 1 ; , 2 2 2 2 2 2 2 2 2 2 2 2 2 2 2 2 2 5 2 2 2 2 2 2 ",
"2 2 2 2 2 2 2 2 2 2 2 2 2 2 2 2 2 2 2 2 2 , 2 2 2 2 2 2 < 2 < 4 2 < 2 2 < < 2 2 < < < 4 2 2 < 4 2 2 2 2 2 2 2 2 2 2 2 2 2 2 2 2 2 2 2 2 2 2 2 2 2 2 2 2 2 2 2 2 ",
"2 2 2 2 5 2 2 2 2 2 2 2 2 2 2 2 2 2 2 2 2 2 2 2 2 , 2 2 2 2 < 2 2 2 2 2 2 2 2 2 2 2 2 2 2 2 2 2 2 2 2 2 2 2 2 2 2 2 2 2 2 2 2 2 2 2 2 2 2 2 2 2 2 2 2 2 2 2 2 2 ",
"2 2 2 2 2 2 2 2 2 2 2 2 2 2 2 2 2 2 2 2 2 2 2 2 2 2 2 2 2 2 2 2 2 2 2 2 2 2 2 , 2 2 2 2 2 2 2 2 2 2 2 2 2 2 2 , 2 2 2 2 2 2 2 2 2 2 2 2 2 2 2 2 2 2 2 2 2 2 2 2 ",
"2 2 2 2 2 2 2 2 3 2 2 2 2 2 2 2 2 2 2 2 2 2 2 2 2 2 2 2 2 2 2 2 2 2 2 2 2 2 2 2 2 2 2 2 2 2 2 2 2 2 2 2 2 2 2 2 2 2 2 2 2 2 2 2 2 2 2 2 2 2 2 2 2 2 2 3 2 2 2 2 "
};
