/* XPM */
static char *NM1672850337[] = {
/* columns rows colors chars-per-pixel */
"80 80 115 2 ",
"   c black",
".  c #010101",
"X  c #020202",
"o  c gray1",
"O  c #040404",
"+  c gray2",
"@  c #060606",
"#  c #070707",
"$  c gray3",
"%  c #090909",
"&  c gray4",
"*  c #0B0B0B",
"=  c #0C0C0C",
"-  c gray5",
";  c #0E0E0E",
":  c gray6",
">  c #101010",
",  c #111111",
"<  c gray7",
"1  c #131313",
"2  c gray8",
"3  c #151515",
"4  c #161616",
"5  c gray9",
"6  c #181818",
"7  c #191919",
"8  c gray10",
"9  c #1B1B1B",
"0  c gray11",
"q  c #1D1D1D",
"w  c #1E1E1E",
"e  c gray12",
"r  c #202020",
"t  c gray13",
"y  c #222222",
"u  c #232323",
"i  c gray14",
"p  c #252525",
"a  c gray15",
"s  c #272727",
"d  c #282828",
"f  c gray16",
"g  c #2A2A2A",
"h  c gray17",
"j  c #2C2C2C",
"k  c #2D2D2D",
"l  c gray18",
"z  c #2F2F2F",
"x  c gray19",
"c  c #313131",
"v  c #323232",
"b  c gray20",
"n  c #343434",
"m  c #353535",
"M  c gray21",
"N  c #373737",
"B  c gray22",
"V  c #393939",
"C  c #3A3A3A",
"Z  c gray23",
"A  c #3C3C3C",
"S  c gray24",
"D  c #3E3E3E",
"F  c #3F3F3F",
"G  c gray25",
"H  c #414141",
"J  c gray26",
"K  c #434343",
"L  c #444444",
"P  c gray27",
"I  c #464646",
"U  c gray28",
"Y  c #484848",
"T  c gray29",
"R  c #565656",
"E  c #646464",
"W  c #656565",
"Q  c gray40",
"!  c #6D6D6D",
"~  c #6F6F6F",
"^  c gray44",
"/  c #717171",
"(  c #727272",
")  c gray46",
"_  c #777777",
"`  c gray47",
"'  c gray48",
"]  c #7C7C7C",
"[  c #818181",
"{  c gray52",
"}  c #898989",
"|  c #8B8B8B",
" . c gray55",
".. c #909090",
"X. c gray79",
"o. c gray85",
"O. c gray86",
"+. c gray88",
"@. c #E1E1E1",
"#. c #E2E2E2",
"$. c #E7E7E7",
"%. c gray91",
"&. c #E9E9E9",
"*. c gray92",
"=. c #ECECEC",
"-. c gray95",
";. c gray96",
":. c #F6F6F6",
">. c gray97",
",. c #F8F8F8",
"<. c #FBFBFB",
"1. c gray99",
"2. c #FDFDFD",
"3. c #FEFEFE",
"4. c white",
/* pixels */
"S S S S S S S S S S S S S S S S S S S S S S S S S S Z S G S Z S G S O w m b G S S S S S S S S S S S S S S S S S G S S S Z Z G Z S S S S S S S S S S S S S S S S ",
"S S S S S S S S S S S S S S S S S S S S S S S S S S Z S S Z S G Z k O 1 b k g m G S S S S G S S S S S S S S S G Z S S S G S Z G S S S S S S S S S S S S S S S S ",
"S S S S S S S S S S S S S S S S S S S S S S S S S S S S Z Z G Z g o o o o o o t S S S S S S S S S S S S S S S S G Z Z S m S S Z S S S S S S S S S S S S S S S S ",
"S S S S S S S S S S S S S S S S S S S S S S S S S S S S S S S p o o o o o O o t G G S S S S S S S S S S S S G G k o m t : S Z G S S S S S S S S S S S S S S S S ",
"S S S S S S S S S S S S S S S S S S S S S S S S S Z S S S S S 9 o o o o O k m Z S S S S S S S S S S S S S S S S m o m t o 1 m Z S S S S S S S S S S S S S S S S ",
"S S S S S S S S S S S S S S S S S S S S S S S S S S S S S S G w o o o : k G S S G G S S S S S S S S S S S S G S m o w : o o k G S S S S S S S S S S S S S S S S ",
"S S S S S S S S S S S S S S S S S S S S S S S S S S S Z S Z G w o o o g G S S S S S S S S S S S S S S S S S S S b o o o o o m G S S S S S S S S S S S S S S S S ",
"S S S S S S S S S S S S S S S S S S S S S S S S S S S Z G S G w o o o p S Z S S S S S S S S S S S S S S S S S G k o o o o o b G S S S S S S S S S S S S S S S S ",
"S S S S S S S S S S S S S S S S S S S S S S S S S S Z Z G Z G w o o o p L Z S S S S S S S S S Z Z G G m S S G S b o o o o o m Z S S S S S S S S S S S S S S S S ",
"S S S S S S S S S S S S S S S S S S S S S S S S S G S Z S Z G w o o o O g G S S S S Z S S S S S S S S S G S S S b o o o o O b S S S S S S S S S S S S S S S S S ",
"S S S S S S S S S S S S S S S S S S S S S S S S Z S S S S Z G w o o o o * g S S S S S Z S S S S G S S S G Z S G b o o o o o k G S S S S S S S S S S S S S S S S ",
"S S S S S S S S S S S S S S S S S S S S S S S S S Z S S S S G w o o o o o o k S S S S S S S S S S S S S Z Z G S k O o o O o m S S S S S S S S S S S S S S S S S ",
"S S S S S S S S S S S S S S S S S S S S S S S S G S S S S S S t o o o o o o O t S S S Z Z Z Z Z S S S S S L Z p o o o o o o b S S S S S S S S S S S S S S S S S ",
"S S S S S S S S S S S S S S S S S S S S S S S S S S S S Z S G m t o o o o o o t L L G G G G G S S S S G S S p * o o o o o m Z Z S S S S S S S S S S S S S S S S ",
"S S S S S S S S S S S S S S S S S S S S S S S S Z S S S Z S G G S 9 t 2 o o o 1 p t t w t t t t k S S m t w * o o o o o * G Z Z S S S S S S S S S S S S S S S S ",
"S S S S S S S S S S S S S S S S S S S S S S S S S S S S S Z Z Z S S S w o o o o o o o o o o o o * m S t o o o o o o o O 9 Z Z S S S S S S S S S S S S S S S S S ",
"S S S S S S S S S S S S S S S S S S S S S S S S S S S S S S G S Z Z * o o o o o o o o o o o o o o o b p o o o o o o o t L Z Z S S S S S S S S S S S S S S S S S ",
"S S S S S S S S S S S S S S S S S S S S S S S S S S S S Z S Z S k * o o o o o o o o o o o o o o o o : O o o o o o o g Z S S S G S S S S S S S S S S S S S S S S ",
"S S S S S S S S S S S S S S S S S S S S S S S S S S S S S G S L m o o o o o o o o o o o o o o o o o o o o o o o O g S G Z S S S S S S S S S S S S S S S S S S S ",
"S S S S S S S S S S S S S S S S S S S S S S S S S S G S S Z S b w o o o o o o o o o o o o o o o o o o o o o o o : G Z S S S S Z S S S S S S S S S S S S S S S S ",
"S S S S S S S S S S S S S S S S S S S S S S S S S S S S S Z L t o o o o o o o o o o o o o o o o o o o o o o o o * S S G m S S S S S S S S S S S S S S S S S S S ",
"S S S S S S S S S S S S S S S S S S S S S S S S S Z S S G S L w o o o O o o o o o o o o o o o o o o o o o o o o : L Z G G S S G S S S S S S S S S S S S S S S S ",
"S S S S S S S S S S S S S S S S S S S S S S S S S S S S S Z t O o o o o o o o o o o o o o o o o o o o o o o o o : G m S G Z S S S S S S S S S S S S S S S S S S ",
"S S S S S S S S S S S S S S S S S S S S S S S S S S S G S Z O o o o o o o o o o o o o o o o o o o o o o o o o o * t S G m G S S S S S S S S S S S S S S S S S S ",
"S S S S S S S S S S S S S S S S S S S S S S S S S S S Z G S : o o o o o o o O o : k * o o o o o o o o o o o o o o o b S S S S S S S S S S S S S S S S S S S S S ",
"S S S S S S S S S S S S S S S S S S S S S S S S G S S S S b * O o o o o o O o O m &.g O o o o o o o o O o o o o o o b G Z S Z S S S S S S S S S S S S S S S S S ",
"S S S S S S S S S S S S S S S S S S S S S S S S S Z S S b : o o o o o o o o o E O.#.O.R o o o o o o O o 9 X.b o o o k G Z S S S S S S S S S S S S S S S S S S S ",
"S S S S S S S S S S S S S S S S S S S S S S S S S S G G g o o o o o o o o o o { 1.&.,._ O o o o o o O G  .&.w o o o b S Z S Z S S S S S S S S S S S S S S S S S ",
"S S S S S S S S S S S S S S S S S S S S S S S S G Z S S b o o o o o o o o O o ~ -.>.1._ o O o o o O o E >.=.` g o o b G Z S S S S S S S S S S S S S S S S S S S ",
"S S S S S S S S S S S S S S S S S S S S S S S S Z Z S S k o o o o o o o o o o ^ #.1.,.` o o o o o o o E O.>.1. .o o b G Z S Z S S S S S S S S S S S S S S S S S ",
"S S S S S S S S S S S S S S S G S S S S S S S S S S S G k o o o o o o o o o o E &.=.1.] o o o o o o o E O.>.1.} o o b S Z S S S S S S S S S S S S S S S S S S S ",
"S S S S S S S S S S S S G G G G S S S S S S S S S S S G b o o o o o o o o o o ^ ,.1.~ w o o o o o O o E >.1.~ w o o b G Z S Z S S S S S S S S S S S S S S S S S ",
"S S G S S Z G Z S S S S m p t b G S S Z S S S Z S S Z G k o o o o o o o o o o Z _ } * o o o o o o o o b ` } 1 o o o b G Z G Z S S S S S S S S S S S S S S S S S ",
"Z S S S G G S G G Z S G g o o g G S Z S S S S S Z S G S b 2 o o o o o o o o o o o o o o o o o o o o o o o o o o o 1 m S Z S S S S S S S S S S S S S S S S S S S ",
"S S S Z S S m S S Z S S g O O g G S S Z S S S Z S S S S Z m 1 O o o o o o o o o o o O o o o o o o o o o o o o o 1 m S S S Z S S S S S S S S S S S S S S S S S S ",
"S S S Z S S S S S S S S Z m b Z S S Z S S S S S G Z Z G S G Z 2 o o o o o o o o o O o o o o o o o o o o o o o 9 m G S S G Z S S S S S S S S S S S S S S S S S S ",
"S Z S S G Z G Z S S S S G G S G S S S S S S S S Z S S G Z m Y b g p O o o o o o o o o o o o o o o o O o o o 9 b G S Z S S S S S S S S S S S S S S S S S S S S S ",
"S S S S S Z G S S S S S Z S S S S S S S S S S S Z G S Z S Z S G L S t 9 1 o o o o o o o o o o o o o o * 9 1 S L S Z S S S S S S S S S S S S S S S S S S S S S S ",
"S S S S S G b G S S S S S S G Z S S S S S S S Z S G S Z G S Z S S G m S b o o o o O o o o o o o o o O p S S G m Z S G S S Z S S S S S S S S S S S S S S S S S S ",
"S S S S Z Z * g G Z S G S Z S S S S S S Z S Z S Z S Z S Z Z S S Z S : o o o o o o o o o o o o o o o b S S S S S S G m S G Z Z G S S S S S S S S S S S S S S S S ",
"S S S S G S b Z G G S G Z S S S S G S G G L G L G G G S Z S Z S G G : o o o o o o o o o o o o o o o 1 g Y m S Z S S S S S Z S S S S S S S S Z G S S S S S S S S ",
"S Z G S Z S Z S S S Z G S S S S S Z G k w t w t t t S Z G S S b t t o o o o o o o o o o o o o o o o o * g G L S G S S Z G G G S S Z S Z S S S S S S S S S S S S ",
"S Z G S Z S G S S S S S S S Z G G Z G t O * : o o o g m m b m 1 o O o o o o o o o o o o o o o o o o o o : k g Z S Z L Z S Z Z S S S S S S S S Z S S S S S S S S ",
"G S S S S S S S S G S Z Z S Z G S Z S S G G S 9 O o o o o o o O o o o o o o o o o o o o o o o o o o o o o * o w L S S Z S S S Z S S G S S Z G Z S S S S S S S S ",
"S S Z Z G S Z S S S S S S Z Z S S G S S S Z S S t o o O o o o o o o o o o o o o o o o o o o o o o o o o o o o o * O * p L S G Z S S Z S S Z S S S S S S S S S S ",
"S G S S G Z S G G S S G G S G Z S Z Z S S L Z G k o o o o o o o o o o o o o o o o o o o o o o o o o o o o o o o o o o * 9 9 Z G G G Z Z S S G Z S S S S S S S S ",
"S S S G Z S S b g g g g g g G S S S G S Z S S Z t o o o o o o o o o o o o o o o o o o o o o o o o o o o o o o o o o o o o o t b g G S Z S S G S S S S S S S S S ",
"S Z S G m S S 9 o o o o o o b Z Z S Z S Z Z S 2 o o o o o o o o o o o o o o o o o o o o o o o o o o o o o o o o o o o o o o o o : m S S S Z S S S S S S S S S S ",
"Z S S S S Z L 9 o o o o o o o O o * Z G b O o o o o o o o o o o o o o o o o o o o o o o o o o o o o o o o o o o o o o o o o o o o o k G Z G S S Z S S S G S Z S ",
"S S S G G S w O o o o o o o o o o o 1 : * o o o o o o o o o o o o o o o o o o o o o o o o o o o o o o o o o o o o o o o o o o o o o * g G S S S S S S S S S S S ",
"S Z S S b t o o o o o o o o o o o o o o o o o o o o o o o o o o o o o o o o o o o o o o o o o o o o o o o o o o o o o o o o o o o o o : g S S S S S S S Z S S Z ",
"S S G G g o o o o : 1 O o o o o o o o o o o o o o o o o o o o o o o o o o o o o o o o o o o o o o o o o o o o o o o o o o o o o o o o o O b G S Z S G S Z S S S ",
"S S S G k o o o 9 S G 9 o o o o o o o o o o o o o o o o o o o o o o o o o o o o o o o o o o o o o o o o o o o o o o o o o O o o o o o o o o b S S S S Z Z Z S S ",
"Z G Z G k O o w m Y S 9 o o o o o o o o o o o o o o o o o o o o o o o o o o o o o o o o o o o o o o o o o o o o o o o o : m : o o o o o o o * p G G S Z S S S S ",
"S S S G m p t S S Z 9 * o o o 1 g k g g g g g 1 o o o o o o o o o o o o o o o o o o o o o o o o o o o o o o o o o o o o o w p k t O o o o O o O g Z S S G S S S ",
"S Z S S S S Y Z G m 9 1 1 2 2 b G S m k k b m 1 o o o o o o o o o o o o o o o o o o o o o o o o o o o o o o o o o o o o O o p m k 2 1 : o o o o o g S S S S Z G ",
"S S S S S S S S Z G S L S G S S S b O o o o o o o o o o o o o o o o o o o o o o o o o o o o o o o o o o o o o o o o o o o o o o O S L k O * o o o o g Z Z Z G Z ",
"S S S S S S S S G m Z S S G G G b O o o o o o o o o o o o o o o o o o o o o o o o o o o o o o o o o o o o o o o o o o o o o o o o O b m S S * O o o O w G G Z S ",
"S S S S S S S S G S G g 1 1 2 2 * o o o o o o o o o o o o o o o o o o o o o o o o o o o o o o o o o o o o o o o o o o o o o o o o o : k L S m w o o o 9 G S S Z ",
"S S S S S S S S Z Z g : o o o o o o o o o o o o o o o o o o o o o o o o o o o o o o o o o o o o o o o o o o o o o o o o o o o o o o o * p G L p o O o w L S Z G ",
"S S S S S S S S G S o o o o o o o o o o o o o o o o o o o o o o o o o o o o o o o o o o o o o o o o o o o o o o o o o o o o o o o o o o * b S k * o o 2 G G S S ",
"S S S S S S S S Z Z o o o o o o o O o o o * o o o o o o o o o o o o o o o o o o o o o o o o o o o o o o o o o o o o o o o o o o o O o o o O m G b * o t S S G Z ",
"S S S S S S S S G S * o o o o o : m b Z b m o o o o o o o o o o o o o o o o o o o o o o o o o o o o o o o o o o o o o o o o o o o o o o o o k S G m * 2 L S Z G ",
"S S S S S S S Z b w o o o o t p g L Z L m 9 o o o o o o o o o o o o o o o o o o o o o o o o o o o o o o o o o o o o o o o o o o o o o o o o b G S S 1 2 G S S S ",
"S S S S S S S G g o o o * 9 Z G G S S S k o o o O 1 w * o o o o o o o o o o o o o o o o o o o o o o O o o o o o o o o o o o O o o o o o o o t m G S t p S S G S ",
"S S S S S S S G k o * O w S G S Z S G S k o o O 2 S G t o o o o o o o o o o o o o o o o o o o o o o o o o o o o o o o o o o O O * o o o o o o 9 S L S S G Z S S ",
"S S S S S S G G k o b Z Z S m S S Z S G g O O w G S L 2 o o o o o o o o o o o o o o o o o o o o o o o o o o o o o o o o o O k G Z Z 1 o o o o w S S S S S Z Z S ",
"S S S S S S S G Z k S L Z Z G S G Z S G Z g g S S Z G w o o o o o o o o o o o o o o o o o o o t p o o o o o o o o o o o o o 1 p G S m 9 o o o 9 G Z S Z S G S S ",
"S S S S S S S S S S S S S Z G Z S S S Z G L S S Z S L 9 o o o o o o o o o o o 1 w p o o o o o t m o o o o o o o o o o o o o o 9 S S G k 2 O o w G Z G G S S Z Z ",
"S S S S S S S S Z S S G G Z Z S S S S S S S G S G m Z 2 o o : o o o o o o o o t L k : o o o O t m 1 o o o o o o o o o o o o o w S L S G S o o 2 G Z G S Z S Z S ",
"S S S S S S G S S G G m Z G G S S S S S S m L S Z S * o o o S t o o o o o o o p m o o o o o o t G Z 2 o o o o o o o o o o o o 9 L Z S Z m o o t G S S S S G G S ",
"S S S S S S S S S Z Z L S m S S S S S Z G S G 9 2 G O o * Z 1 O o o o o o o o t G m * o o o o w G S b m g o o o o o o o o o o w G Z S S m o p Z Z S S S S S S S ",
"S S S S S S S S S S S S S S S S S S S S S S Z b g S * 2 b S O o o o o o o o t m S G : o o o w m S G S Z S p * o o o w 2 o o o 9 S S G S m b m S S S S S S S S S ",
"S S S S S S S S S S S S S S S S S S S S G S S Z G S o t L S * o o o o o o 1 G Z S S o o o o Z G S Z S G G G : o o o S p o * o w L S S S S S S S S S S S S S S S ",
"S S S S S S S S S S S S S S S S S S S S S S S S G Z 1 p G S * o o o O o 9 G Z G S b w o o o k S S Z Z S Z Z 2 O o o b k O o o w G S Z S S S S S S S S S S S S S ",
"S S S S S S S S S S S S S S S S S S S S Z S S S S G S m S G O o o o o w Z S Z Z b O k Z k o o p G G G S S S S p o O b G k o o w G S S S S Z S S S S S S S S S S ",
"S S S S S S S S S S S S S S S S S S S S S S S Z S Z G S S S O o o o t S S S S S S k S L Z g k Z S S Z Z S Z G t o o m S Z o o 9 L S Z S S S S S S S S S S S S S ",
"S S S S S S S S S S S S S S S S S S S S S G S S S S S S G Z : o O t S G Z S G Z G S S G S S L S G S S G Z G S w o o m G b o 9 k G S S S S S S S S S S S S S S S ",
"S S S S S S S S S S S S S S S S S Z S S S S G S Z G S S Z Z : o : G S Z S S S Z S Z S Z S S S Z Z S S S Z S G p o o g G b 1 m G Z S S G Z Z S S S S S S S S S S ",
"S S S S S S S S S S S S S S S S S S S S S S S S S Z G S Z S O o 1 G Z G S Z Z G Z G S S S Z S S S G Z Z G m L t o o m Z S G Z S S S S S S S S Z S S S S S S S S "
};
