/* XPM */
static char *ca1560c4b2f445cff8fa64b9b4b558d9kUECuUC2TytZyxVM[] = {
/* columns rows colors chars-per-pixel */
"80 80 225 2 ",
"   c #070E07",
".  c #0A0E0A",
"X  c #0C130D",
"o  c #0F1911",
"O  c #171717",
"+  c #131B14",
"@  c #1C1B16",
"#  c #1D1D1A",
"$  c #29170A",
"%  c #201817",
"&  c #211F1C",
"*  c #162217",
"=  c #1B231B",
"-  c #23221D",
";  c #2A2518",
":  c #2B251E",
">  c #29281F",
",  c #32221F",
"<  c #301F22",
"1  c #1F2C20",
"2  c #252421",
"3  c #2A2622",
"4  c #242A23",
"5  c #2B2B24",
"6  c #2C2C2A",
"7  c #332A25",
"8  c #3A2A26",
"9  c #322E2B",
"0  c #3B2B28",
"q  c #2B332B",
"w  c #2A362B",
"e  c #383127",
"r  c #32312D",
"t  c #3C332E",
"y  c #2F3332",
"u  c #333533",
"i  c #3C3735",
"p  c #343A35",
"a  c #353C3A",
"s  c #3A3D3A",
"d  c #42332E",
"f  c #453633",
"g  c #4A3633",
"h  c #493535",
"j  c #433C35",
"k  c #4A3A36",
"l  c #443E39",
"z  c #4D3D3A",
"x  c #37433C",
"c  c #3C433D",
"v  c #45423E",
"b  c #4A443D",
"n  c #524B3F",
"m  c #353E42",
"M  c #384243",
"N  c #3C4343",
"B  c #3C464A",
"V  c #3E4A4B",
"C  c #3D4B52",
"Z  c #424542",
"A  c #4B4543",
"S  c #454A44",
"D  c #4C4C46",
"F  c #474748",
"G  c #414B4B",
"H  c #4C4D4A",
"J  c #534443",
"K  c #534B45",
"L  c #534E4A",
"P  c #47524C",
"I  c #4C524C",
"U  c #53524E",
"Y  c #5B544D",
"T  c #5D584D",
"R  c #424D51",
"E  c #4C4D50",
"W  c #435354",
"Q  c #4A5453",
"!  c #485759",
"~  c #4B5659",
"^  c #47595D",
"/  c #4B5A5B",
"(  c #545553",
")  c #5B5552",
"_  c #565954",
"`  c #5E5956",
"'  c #535D5D",
"]  c #5D5C5A",
"[  c #615A56",
"{  c #695951",
"}  c #6B5E56",
"|  c #605D5A",
" . c #5E625E",
".. c #62625E",
"X. c #68625E",
"o. c #746758",
"O. c #7F715E",
"+. c #4D5D61",
"@. c #555D62",
"#. c #4E6265",
"$. c #4F6669",
"%. c #536365",
"&. c #5B6463",
"*. c #52666A",
"=. c #5B6769",
"-. c #54696D",
";. c #5B6A6C",
":. c #566B71",
">. c #5A6E72",
",. c #5B6F78",
"<. c #5C7276",
"1. c #5E7479",
"2. c #646663",
"3. c #696966",
"4. c #646B6B",
"5. c #6A706E",
"6. c #647274",
"7. c #6B7475",
"8. c #62767B",
"9. c #6D7779",
"0. c #647A7D",
"q. c #6A7B7D",
"w. c #757774",
"e. c #747D7C",
"r. c #797C7C",
"t. c #897E72",
"y. c #79817F",
"u. c #87837D",
"i. c #938273",
"p. c #657C81",
"a. c #6A7E83",
"s. c #767F82",
"d. c #6C8185",
"f. c #6E858A",
"g. c #6F888B",
"h. c #798586",
"j. c #72868A",
"k. c #738A8D",
"l. c #7C928F",
"z. c #768D92",
"x. c #798E93",
"c. c #779194",
"v. c #7A9195",
"b. c #779398",
"n. c #7C9599",
"m. c #7E989C",
"M. c #818484",
"N. c #888B8A",
"B. c #848F90",
"V. c #8C9393",
"C. c #81969A",
"Z. c #87989A",
"A. c #829A9E",
"S. c #909695",
"D. c #929A9C",
"F. c #AC9E93",
"G. c #98A19C",
"H. c #B7A28F",
"J. c #BEA58E",
"K. c #AEA499",
"L. c #B9A898",
"P. c #849DA1",
"I. c #8A9EA2",
"U. c #86A1A5",
"Y. c #8AA3A6",
"T. c #8BA5A9",
"R. c #8EA9AD",
"E. c #93A3A4",
"W. c #9BA5A5",
"Q. c #92A5AA",
"!. c #91ABAE",
"~. c #9AABAC",
"^. c #94ADB2",
"/. c #9AAEB2",
"(. c #96B0B2",
"). c #9BB2B5",
"_. c #9EB5B9",
"`. c #9FB8BA",
"'. c #A2ABAD",
"]. c #BDB3AB",
"[. c #A4ADB1",
"{. c #A8B5B7",
"}. c #A3B6BA",
"|. c #A2B9BD",
" X c #ACBABD",
".X c #C5AC94",
"XX c #CBB7A4",
"oX c #D2BAA4",
"OX c #D2BDA9",
"+X c #C3BAB4",
"@X c #D7C2AB",
"#X c #D9C2AC",
"$X c #CAC6BB",
"%X c #DBC8B5",
"&X c #A6BCC1",
"*X c #ABBEC2",
"=X c #B1BEC1",
"-X c #ACC1C5",
";X c #AEC3C8",
":X c #B3C3C6",
">X c #B2C6CA",
",X c #B8C4C9",
"<X c #B5C9CD",
"1X c #BBCBCE",
"2X c #BBCDD2",
"3X c #BED1D5",
"4X c #BFD3D8",
"5X c #C7C9C7",
"6X c #C2CBCE",
"7X c #DACDC3",
"8X c #DED1C5",
"9X c #C4CFD3",
"0X c #C2D2D6",
"qX c #C4D6DB",
"wX c #C5D7DC",
"eX c #C8D7DC",
"rX c #C7D8DC",
"tX c #C6D9DD",
"yX c #C8D9DE",
"uX c #C8DADE",
"iX c #E3D3C3",
"pX c #E6D8CB",
"aX c #E7D9CC",
"sX c #EBDDD1",
"dX c #CADCE0",
/* pixels */
"5 5 5 5 5 5 5 5 5 5 5 5 5 5 5 5 5 5 5 5 5 5 5 5 5 5 5 5 5 5 5 5 5 5 5 5 5 5 5 5 5 5 5 5 5 5 5 5 5 5 5 5 5 5 5 5 5 5 5 5 5 5 5 5 5 5 5 5 5 5 5 5 5 5 5 5 5 5 5 5 ",
"5 5 5 5 6 5 5 5 5 5 5 5 5 5 5 5 5 5 5 5 5 5 5 5 5 5 5 5 3 5 5 5 : 5 5 5 5 5 > 5 5 5 5 5 5 5 5 5 5 5 5 5 5 5 5 5 5 5 5 5 5 5 5 5 5 5 5 5 5 5 5 5 5 5 5 5 5 5 5 5 ",
"5 5 5 5 5 5 6 5 5 5 5 5 5 5 5 5 5 5 5 5 5 5 5 5 5 > 5 5 5 5 5 5 5 5 > 5 > 5 5 > 5 > 5 5 5 5 5 5 5 5 5 5 5 5 5 5 5 5 5 5 5 5 5 5 5 5 5 5 w 5 5 5 5 5 5 5 5 5 5 5 ",
"5 5 5 5 5 5 5 5 5 5 5 5 6 5 5 5 5 5 5 5 5 5 5 5 5 5 > u u u 6 w q r r u r r 9 r 9 r r r r 5 5 5 5 5 5 5 5 5 5 5 5 5 5 5 5 5 5 6 5 5 5 5 5 5 5 5 5 5 5 5 5 5 5 5 ",
"5 5 5 5 5 5 5 5 5 5 5 5 5 5 5 5 5 5 5 5 5 > > > 5 > v W.E.l.c.k.k.z.v.b.k.q.0.q.q.q.j.d.6.x 3 5 5 5 5 5 5 5 5 5 6 5 5 5 5 5 5 5 5 5 5 5 5 5 5 5 5 5 5 5 5 5 5 5 ",
"5 5 5 5 5 5 5 5 5 5 5 5 5 5 5 5 5 > 5 5 5 u I _ _ I 5.:X-X!.R.T.T.^.`._.R.c.c.c.z.n.P.m.l.~ N N N c q 5 5 5 5 5 5 5 5 5 5 5 5 5 5 5 5 5 5 5 5 5 5 5 5 5 5 5 5 5 ",
"5 5 5 5 5 5 5 5 5 5 5 5 5 5 5 5 5 5 5 5 > D :X0X3X0X<X).R.Y.Y.Y.T.|.4X|.T.c.z.z.z.z.z.m.U.v.k.j.k.d.c 5 > 5 5 5 5 5 5 5 5 5 5 5 5 5 5 5 5 5 5 5 5 5 5 5 5 5 5 5 ",
"5 5 5 5 5 5 5 5 5 5 5 5 5 5 5 5 5 5 5 5 > I 2XdXtXuX0X;X|.Y.Y.T.R.*XtX|.T.c.z.z.z.z.z.m.Y.A.n.b.c.j.Z 5 5 5 5 5 5 5 5 5 5 5 5 5 5 5 5 5 5 5 5 5 5 5 5 5 5 5 e 5 ",
"5 5 5 5 5 5 5 5 5 5 5 5 5 5 5 5 5 > r u r _ 2XuXdXeXqXwX&XY.T.R.!.;XtX|.T.b.z.z.z.z.z.m.T.Y.P.b.v.j.S q r 5 3 5 5 5 5 5 5 5 5 5 5 5 5 5 5 5 5 5 5 5 5 5 5 5 5 5 ",
"5 5 5 5 5 5 5 5 5 5 5 5 5 5 5 5 5 5 3.{.{.=XtXtXtXwXwXdX;XY.Y.R.^.-XtX`.!.Y.m.z.z.z.z.m.U.T.Y.U.n.z.a.q.q.Q 5 5 5 5 5 5 5 5 5 5 5 5 5 5 5 5 5 w 5 5 5 5 5 5 5 5 ",
"5 5 5 5 5 5 5 5 5 5 5 5 5 5 5 5 5 : e.uXuXuXuXdXdXwXwXtX&XT.Y.T.R.-XwX`.!.T.P.z.z.z.z.m.U.T.U.T.A.z.z.c.c.' 5 5 5 5 5 5 5 5 5 5 5 5 5 5 5 5 5 5 5 5 5 5 5 5 5 5 ",
"5 5 5 5 5 5 5 6 5 5 5 5 5 5 5 5 5 : e.uXtXuXtXuXdXeXdXdX&XT.Y.R.!.-XwX|.!.T.m.z.z.z.z.m.T.U.T.T.m.z.z.c.c.' 5 5 5 > 5 5 5 5 5 5 5 5 5 5 5 5 5 5 6 5 5 5 5 5 5 5 ",
"5 5 5 5 5 5 5 5 5 5 5 > 5 5 5 5 x y.'.uXtX3X*X2XdXwXtXdX*XT.T.T.(.-XwX`.^.T.m.b.z.z.z.m.P.T.T.T.U.A.b.z.z.-.V q 5 5 5 5 5 5 5 5 e 5 5 5 5 5 5 5 5 5 5 5 5 5 5 5 ",
"5 5 5 5 5 5 5 5 5 5 5 5 5 5 5 u _ 6XrXuXtX2X/.-X0XtXtXwX*XR.T.T.R.-XwX`.!.T.m.c.z.z.z.m.T.Y.U.T.T.U.b.z.z.d.-.x 5 5 5 5 5 5 5 5 5 5 5 5 5 5 5 5 5 5 5 5 5 5 5 5 ",
"5 6 5 5 5 5 5 5 5 5 5 5 5 > r V.:XqXtXqXtX3X(.(.|.2XuXuX0X1X^.T.R.-XwX`.!.T.m.z.z.z.z.m.U.T.T.T.Y.Y.b.z.k.g.f.%.P 6 > 5 5 5 5 5 5 5 5 5 5 5 5 5 5 5 5 5 5 5 5 5 ",
"5 5 5 5 5 5 5 5 5 5 5 5 5 v  .{.uXrXtXwXwX3X&X_.(.2XdXtXuX0X_.T.(.-XwX`.!.T.m.c.z.z.z.n.T.U.T.T.Y.Y.A.b.c.z.z.0.%.M p 5 5 5 5 5 5 5 5 5 5 5 5 5 5 5 5 5 5 5 5 5 ",
"5 5 5 5 5 5 5 5 5 5 5 5 : w.0XtXtXtXrXrXrXrXrX-X(.2XtXtXtX0X).T.^.;XwX|.^.T.m.z.z.z.z.m.T.T.T.T.T.T.Y.U.z.z.z.z.f.*.G 5 5 5 5 5 5 5 5 5 5 5 5 5 5 5 5 5 5 5 5 5 ",
"5 5 5 5 5 5 5 5 5 5 5 5 > e.tXtXtXtXrXrXrXtXuX2X>X-X>XtXtXqX<X&X^.&XwX`.R.T.m.b.z.z.z.m.m.U.T.T.T.Y.T.U.P.m.z.z.g.-.V 5 5 5 5 5 5 5 5 5 5 5 5 5 5 5 5 5 5 5 5 5 ",
"5 5 5 5 5 5 5 5 5 5 5 5 > w.qX4XqXtXtXrXuXeXqXqXwX|._.wXrXqXeX3X^.-XwX|.^.T.m.b.z.z.z.m.R.T.U.T.T.Y.T.T.Y.m.c.z.f.*.V 5 5 5 5 5 5 5 5 5 5 5 5 5 e 5 5 5 5 w 5 5 ",
"5 5 5 5 5 5 5 5 3 5 5 3 3 =._.(._.0XtXrXtXuXqXqX0X|._.wXrXrXqX1X(.-XwX|.R.T.m.z.z.z.z.m.U.T.T.T.Y.Y.Y.T.Y.m.z.c.f.$.V 5 3 5 3 5 w 5 5 5 5 5 5 5 5 5 5 5 5 5 5 5 ",
"5 w 5 5 5 5 5 5 5 : 3 r I q.^.T.^.0XqXeXtXqXqXqX4X|.).<X3XwX0X2X(.&XdX|.^.T.m.z.z.z.z.b.U.T.T.T.T.T.T.T.T.m.m.c.g.1./ a 6 5 5 3 5 5 5 5 5 5 5 5 5 5 5 5 5 5 5 5 ",
"5 5 5 5 5 5 5 5 5 5 3 Z Z.!.^.R.^.0XeXuXuXtXeXqXqX|.^.(.;XwXdX2X(.-XdX_.R.T.m.b.z.z.z.m.T.U.T.T.T.T.T.Y.T.T.Y.b.z.k.8.+.p 5 5 5 5 5 5 5 5 5 5 5 5 5 5 5 5 5 5 5 ",
"5 5 5 5 5 5 5 5 5 5 > Z Y.(.^.T.R.}.<XqXeXqXqXuXwX1X;X^._.&X&X_.^.-X4X|.^.T.m.z.z.z.z.m.U.T.T.T.Y.Y.Y.T.T.m.T.b.c.c.0.#.a 5 5 5 5 5 5 5 5 5 5 5 5 5 5 5 5 5 5 5 ",
"5 5 5 5 5 5 5 5 5 5 > v Y.(.^.T.T.Y.|.0XqXqXtXuXtXdX2X_.^.^.R.R.!.&XwX|.R.R.m.z.z.z.z.m.T.T.T.T.R.Y.Y.T.T.T.T.b.z.x.p.#.p 3 5 5 5 5 5 5 5 5 5 5 5 5 5 5 5 5 5 5 ",
"5 5 5 5 5 5 5 5 5 5 > v Y.(.^.R.Y.Y.!._.2XuXqXdXwXwXwX0X*X^.^.^.^.-X4X|.!.T.m.z.z.z.z.P.!.^.^.^.(.!.^.R.Y.Y.Y.n.z.z.p.#.p 5 5 5 5 5 5 5 5 5 5 5 5 5 5 5 5 5 5 5 ",
"5 5 5 5 5 5 5 5 5 5 > c Y.^.!.T.Y.T.!.^.2XuXeXeXwXeXwXdX>X^.^.^.!.-XdX|.^.T.m.c.z.z.z.P.^.^.^.^.(.!.(.!.T.T.Y.n.z.b.p.#.p 3 5 3 5 5 5 5 5 6 5 5 5 5 5 5 5 5 5 5 ",
"5 5 5 5 5 5 5 5 5 5 > v Y.^.^.T.T.^.^.^.2XqXeXeXeXeXwXdX;X^.^.^.!.-X4X`.!.T.m.c.z.z.z.m.^.^.^.^.!.!.^.^.^.!.Y.n.z.x.q.#.p 5 5 5 5 5 5 5 5 5 5 5 5 5 5 5 5 w 5 5 ",
"5 5 5 5 5 5 5 5 5 5 > v T.^.^.!.!.^.^.^.|.>X0XqXqXwXwXwX3X*XT.P.^.-XdX`.!.T.z.1.,.,.p.p.a.d.a.d.d.d.p.z.!.!.R.n.z.x.p.#.p 3 5 5 5 5 5 5 5 5 5 5 5 5 5 5 5 5 5 5 ",
"5 5 5 5 5 5 5 4 5 5 : v Y.^.^.^.^.^.^.R.Y.E.*X=X X*X&X&X X&Xz.f.A.|.4X|.^.T.f.+.+.+.+.+.+.+.+.+.+.+.+.<.R.^.^.n.z.z.p.#.p 3 5 5 5 5 5 5 5 5 5 5 5 5 5 5 5 5 5 5 ",
"5 5 5 5 5 5 5 5 5 5 : Z Y.^.(.(.^.^.^.R.4.( ( v 6 6 6 6 6 6 2 6 D B.tX|.R.R.9.N 6 # O O O O O # y Z S &.R.^.^.C.z.z.p.#.p 5 5 5 5 5 5 5 5 5 5 5 5 5 5 5 5 5 5 5 ",
"5 e 5 5 5 5 5 5 5 5 : c Y.(.(.^.^.^.R.P.] l r 6 3 = O X . X 2 6 7 r.4X|.T.n.%.9 6 4 = o . X O 4 9 9 l ( x.I.^.C.z.z.q.#.p 3 5 5 7 > 5 5 5 5 5 5 5 5 5 5 5 5 5 5 ",
"5 5 5 5 5 5 5 5 5 5 : v E.(.(.^.^.^.U.z._ s @ 9 Q p >   X O N F O 7.dX|.P.:.m O N G y = . X = H u O s H %.j.^.n.z.b.p.%.p : 5 5 w 5 5 5 5 5 5 5 5 5 5 5 5 5 5 5 ",
"5 5 5 5 5 5 5 5 5 3 3 N Y.^.^.^.^.^.P.f._ Z s Z H w *   X + N H 9 e.tX`.U.:.G r D Z 4 o   o = I D a v I +.k.^.n.z.b.q.#.a 5 5 4 5 5 5 5 5 5 5 5 5 5 5 5 5 5 5 5 ",
"5 5 5 5 5 5 5 5 5 5 3 v B.Y.(.^.^.^.P.k.] L ( _ Q w *   X + Z U v M.0X`.m.-.I v I Z = o   o 4 I _ _ H U +.f.R.n.z.f.<./ u 5 5 5 5 5 5 5 5 5 5 5 5 5 5 5 5 5 5 5 ",
"5 5 5 5 5 5 5 5 5 > 5 5 u 6.(.^.^.).I.z.2.] 2.3.&.x 4 X X + Z H j u.0XT.g.-.I v D S * o   * p  .2.2.` ] *.f.T.m.f.>.R q 5 6 5 5 5 5 5 5 5 5 5 5 5 5 5 5 5 5 5 5 ",
"5 5 5 5 5 5 5 5 5 5 5 3 : P y.U.^.^.T.C.3.` ` ..2.v w + * = N L j h.0X`.A.-.I j I b = * o w x ....] [ ] %.p.m.f.1.W a 6 3 3 5 5 5 5 5 5 5 5 5 5 5 5 w 5 5 5 5 5 ",
"5 5 5 5 5 5 5 5 5 5 5 5 5 3 r h.^.^.^.R.5.T b _ 2.P x w 6 q S H j h.0X0X|.;.Q v D D x w w x P 2.) A Y ] %.8.k.>./ 6 5 5 5 5 5 5 5 5 5 5 5 5 5 5 5 5 5 5 5 5 5 e ",
"5 5 5 5 5 5 5 5 5 5 5 5 5 3 5 F ;.R.^.!.3.T U ` .._ T D L H D A z ` r. X{.' F b D D S D n U _ 2.| U ) ] q.p.1.G u 6 5 5 5 5 5 5 5 6 5 5 5 5 5 5 5 5 5 5 5 5 5 5 ",
"5 5 5 5 5 5 5 5 5 5 5 5 5 3 3 : c x.Y.!.7......... . .] X.5.] ) ] L L D.W.U L ( U _ 3.X.2.3.2.2.3.3.| 2.d.1.^ u : 5 5 5 5 5 5 5 5 5 5 5 5 5 5 5 5 5 5 5 5 5 5 5 ",
"5 5 5 5 5 5 5 5 5 5 5 5 5 5 5 5 5 u 4.^.E.I.k.g.g.>.#.#.x.=X=X*X*XN.[ X.X.[ 9.A.Z.A.I.P.P.A.P.P.A.Z.x.a.>.P 9 5 5 5 5 5 5 5 5 5 5 5 5 5 5 5 5 5 5 5 5 5 5 5 5 5 ",
"5 5 6 5 5 5 5 5 5 5 5 5 5 5 5 5 5 : &.(.!.!.P.m.b.f.p.1.I.2X2X2X1XS.| ) T [ d.Q.T.T.T.T.T.Y.Y.m.P.m.n.f.:.Z 5 3 5 5 5 5 5 5 5 5 5 5 5 5 5 5 > 5 5 5 5 5 5 5 5 5 ",
"5 5 5 5 5 5 5 5 5 5 5 5 5 5 > 5 3 : &.!.(.!.(.R.T.T.P.z./.0X0X3X1XS.[ L K [ e.Y.T.T.T.T.Y.T.P.c.z.z.z.f.*.G 5 5 5 5 5 5 5 5 5 5 5 5 5 5 5 5 7 w 5 5 5 5 5 5 5 5 ",
"5 5 5 5 5 5 5 5 5 5 5 5 5 5 5 5 3 : P d.U.(.^.R.R.T.T.m.!._.1X3X,XS.| ) ) [ e.Y.T.Y.Y.T.Y.m.n.z.z.k.0.>.:.V 5 3 5 5 5 5 5 5 5 5 5 5 5 5 5 5 5 5 5 5 5 5 5 5 5 5 ",
"5 5 5 5 5 5 6 5 5 5 5 5 5 5 5 5 9 r Q a.m.Y.^.(.^.R.T.R.T.T.>X4X1XS.| [ ` [ h./.T.Y.U.U.I.n.z.x.z.d.>.-.a./ u 5 5 5 5 5 5 5 5 5 5 5 5 5 5 5 5 5 5 5 5 5 5 5 5 5 ",
"5 5 5 5 5 5 5 5 5 5 5 5 5 5 5 5 u +.C.1Xk.q.Q.(.^.^.^.^.T.T.1XwX1XS.[ [ [ | V.2X).U.c.c.c.c.x.z.p.:.$.p.<XA.' p 5 5 5 5 5 5 5 5 5 5 5 5 5 5 5 5 5 5 5 5 5 w 5 5 ",
"5 5 5 5 5 5 5 5 5 5 5 5 3 5 5 s ~ C.).<XA.z.c.U.^.^.^.^.^.R.&X*X1XS.[ [ ` ) V.qX&X^.x.f.p.p.p.p.<.*.d.A.2X|.C.' a 5 3 5 5 5 5 5 5 5 5 5 5 5 5 5 5 5 5 5 5 5 5 5 ",
"5 5 5 5 5 5 5 5 5 5 5 5 3 5 6 ~ j.0X1X_.|.Q.<.g.^.^.R.^.^.^.R.^.>XN.) Y Y Y N.0XqX:Xx.0.$.$.$.$.*.,.T.|.-X2X0Xz.+.q 5 5 5 5 5 5 5 5 5 5 5 5 5 w 5 5 5 5 5 5 5 5 ",
"5 5 5 5 5 5 5 5 5 5 5 5 5 s +.I.*X*X&X|.^.T.b.k.p.p.p.p.m.^.R.P.j.2.K K K K u.1X2X X8.;.*.*.*.*.p.n.T.^.|.*X2X:XQ.@.N 5 5 5 5 5 5 5 5 5 5 5 5 5 5 5 5 5 5 5 5 5 ",
"5 5 5 5 5 5 5 5 5 5 5 5 > V <.|.0X|.).).Q.Y.T.v.a.p.p.p.x.^.P.c.*.' U L U L y.|.|.!.y.0.0.0.0.<.j.A.C.I.Q.^.[.>X}.,.G 5 5 5 5 5 5 5 5 5 5 5 5 5 5 5 5 5 5 5 5 5 ",
"5 5 5 5 5 5 5 5 5 5 5 5 5 V <.(.>X|.^.R.T.T.T.|.0X*X|./._.^.d.:.:.;.-.-.*.-.>.6.<.g.>X-X/.(.Q.v.a.>.>.>.,.,.1.1.1.:.G 5 5 5 5 5 5 5 5 5 5 5 5 5 5 5 5 5 5 5 5 5 ",
"5 e 5 5 5 5 5 5 5 5 5 5 5 p Q j.Z.C.x.k.z.c.P.).*X<X1X&X&X&XQ.I.I.I.Y.I.I.I.I.A.A.Q.>X-X`.`.!.j.x.Z.Z.k.+.~ +.+.! +.Z 5 5 5 5 5 5 5 5 5 5 5 5 5 5 5 5 5 5 5 5 5 ",
"5 5 5 5 5 5 5 5 5 5 5 5 5 > 6 ' ,.:.:.,.-.,.z.n.Q.1XqX>X>X*XqXdXuXuXuXuXuXuXtXtXtXqX{.).`.`.T.>.Z.6X6X[.R m R m B R a 5 5 5 5 5 5 5 5 5 5 9 5 5 5 5 5 5 5 5 5 5 ",
"5 5 5 5 5 5 5 5 5 5 5 5 5 s ( D.W.@.a.x.+.W ,.z.T.).&X0X1X*X>X<X<X<X<X<X>X-X-X-X-X*X_.`.`.!.A.>.4.6.=.4.s.,.@.V.Z.V p 5 5 5 5 5 5 5 5 5 5 5 5 5 5 5 5 5 5 5 5 e ",
"5 5 5 5 5 5 5 w 5 5 5 3 > D 6.W.'.6.a.h.~ B -.f.T.I.^.2X2X>X>X>X>X>X:X>X:X_.}.|.|.|._.).(.R.A.<.+.B m ~ Q.C.6.W.D.C y 5 5 5 5 5 5 5 5 5 5 5 5 5 5 5 5 5 5 5 5 5 ",
"5 5 5 5 5 5 5 5 5 5 5 5 5 ' A.9.9.P.p.B B +.*.f.I.P.P.T.*XdXdXdXuXuXuXuX1X~.}.>X>X-X|.!.R.T.m.>.~ m C =.=X{.P.+.G R a 5 5 5 5 5 5 5 5 5 5 5 5 5 5 5 5 5 5 5 5 5 ",
"5 5 5 5 5 5 5 5 5 5 5 5 3 Q h.d.a.s.=.m m C -.p.z.a.f.I.).*X<X3X2X3X2X>X X|.S.w.w.e.!.P.k.k.d.<.R y m ~ V.B.s.Q m B a 5 5 5 5 5 5 5 5 5 5 5 5 5 5 5 5 5 5 5 5 5 ",
"5 5 5 5 5 5 5 5 5 5 5 7 r S =.C.Z.4.^ I B C -.:.,.,.p.m.I.T.&X*X-X-X-X^.!.;Xw.$ $ 8 l.g.<.<.<.:.R 3 a m G ~ =.Q R m u r 9 5 3 5 5 5 5 5 5 5 5 5 5 5 5 5 5 5 5 5 ",
"5 5 5 5 5 5 5 5 5 > 3 b K.].+X$X$XL.u.' a.a.=.C.&Xn.f.p.b.T.R.).-X>X;X^.I.T.@.$ $ , t w.=X-X/.<.V 6 m B N 9.[.' m B w.K.K 3 5 5 5 5 5 5 5 5 w 5 5 5 5 5 5 5 5 5 ",
"5 5 5 5 5 5 5 5 5 5 : L 7XsXaXaXiX%XF.w.l.n.j.Q.1XI.k.:.f.T.Y.!.*X;X-X^.P.n.2.e ; $ $ 3.0XqX:Xl.@.a Z B m h.5Xr.@.4.K.pXT 3 5 5 5 5 5 5 5 5 5 5 5 5 5 5 5 5 e 5 ",
"5 5 5 5 5 5 5 3 5 3 3 K 7XaXaXaXiX%XOXXXr.f.2X}.P.n.k.:.f.T.T.!.-X-X-XP.n.n.C.v.j $ $ X.{.~.'.0XT.$.G m G u.%X%X7X8X8X7XY : 5 5 5 5 5 5 5 5 5 5 5 5 5 5 5 5 5 5 ",
"5 5 5 5 5 5 5 5 5 3 5 L 7XaXaXiX%X#X#XOXh.p. X^.x.f.p.:.f.Y.T.^.-X;X*XI.x.n.C.n.=.U ` N.,XM.3.h.9.>.w.t.i.K.@X%XiXaXsX8XT : 5 5 5 5 5 5 5 5 5 w 5 5 5 5 5 5 5 5 ",
"5 5 5 5 5 5 5 5 5 5 > L 7XaXpX%X@X@X#XOXe.1.U.A.x.p.:.:.d.I.P.R.&X&X&XP.x.n.n.n.n.C.E. X6X[ 8 , F 6.K.OX#XoX@X@X%XiXaX8XT 5 5 5 5 5 5 5 5 5 5 5 5 5 5 5 5 5 5 5 ",
"5 5 5 5 5 5 5 5 5 5 3 K 7XiX#X#X@X@XoXL.e.1.b.C.x.0.:.@.;.0.p.p.d.d.p.1.<.1.1.0.}.1X{.N.} k 8 , 4./.&.{ J.XX@X@X@X#X8X8XT : 5 5 5 5 5 5 5 5 5 5 5 5 5 5 5 5 5 5 ",
"5 5 5 5 5 5 5 5 5 3 5 b K.XXoXoXoXoXH.i.2.%.f.j.k.,.:.4.8.a.:.%.+.>.h.a.p.%.*.%. X9XD.3.g d f L r.G.b d t.H.oXoXoXoXXXL.K : 5 5 5 5 5 5 5 5 5 5 5 5 5 5 5 5 5 5 ",
"5 5 5 5 w 5 5 5 5 > 5 7 r o.J.J.J.J.O.e 6 a -.>.:.%.4.P.}.=X9.G m s.=X6X[.@.m m [.&XR h g g Y {.r.g 7 < 7 o..X.XJ.J.O.r 5 5 5 5 5 5 5 5 5 5 5 5 5 5 5 5 5 5 5 5 ",
"5 5 5 5 5 5 5 5 5 5 5 5 5 b o.o.o.o.n 4 ; 5 c G H ) | M.B.Z.>.~ J X.N.N.s.J F J N.B.~ F z 5.u.t.[ 0 8 7 : k { { o.o.n 3 5 5 5 5 5 5 5 5 5 5 5 5 5 5 5 5 w 5 5 5 ",
"5 5 5 5 5 5 5 5 5 5 5 5 5 5 5 5 3 5 5 > & O O : i J Y } 4.,.,.@.) J z h h z J ) =.,.,.~ Z D.G.J d d 0 8 , 2 - : > 3 3 3 5 5 5 5 5 5 5 5 5 5 5 5 5 5 5 5 5 5 5 5 ",
"5 5 5 5 5 5 5 5 5 5 5 5 5 > 5 5 5 5 > = - @ @ & < t k @.C.*XI.s.=.) z h h z J 4.~.}.z.8.@.( L k h f d 8 8 ) y.i - 5 4 5 5 5 5 5 5 5 5 5 5 5 5 5 5 5 5 5 5 5 5 5 ",
"5 5 5 5 5 5 5 5 5 5 5 5 5 5 5 5 5 > - @ @ # & @ & i E p.~.eXQ.z.p.@.F i t F =.k.=X<XP.f.1.H j t f k d h J r.'.Z @ > 5 5 5 5 5 5 5 5 5 5 5 5 5 5 5 5 5 5 5 5 5 5 ",
"5 5 5 5 5 5 5 6 5 5 5 5 5 5 5 5 2 # # # # # @ & & W q.}.2XwXQ.x.b.a.*.9 6 %.x.*X*X&Xn.x.b.1.^ 2 8 g g K V. X0XD + @ - 5 5 5 6 5 6 5 5 5 5 5 5 5 5 5 5 5 5 5 5 5 ",
"5 5 5 5 5 5 5 5 5 5 5 5 5 5 5 4 2 & @ # & # # @ & ~ p.T.*XdXQ.x.b.a.-.6 6 *.n.;X;X&Xn.n.x.p.^ & & 0 2.N.[.{. XZ O @ ; 5 5 5 5 5 5 5 5 5 5 5 6 5 5 5 5 5 5 5 5 5 ",
"5 5 5 5 5 5 5 5 5 5 5 5 5 5 5 5 2 # @ # # # # @ & W 1.z./.0XI.x.b.p.*.y 6 +.z.&X*X).x.x.z.p.^ # % 2 h.~.{.W.V.s @ @ - > 5 6 5 5 5 5 5 5 5 5 5 5 5 5 5 5 5 5 5 6 ",
"5 5 5 5 5 5 5 5 5 5 5 5 5 5 5 5 > @ @ @ @ @ - * & C $.<.p.d.0.1.1.-.^ y y ^ >.a.d.y.1.1.<.$.W & # & 9 s s s u 2 O O > 5 5 5 5 5 5 5 5 5 5 5 5 5 5 5 5 5 5 5 5 5 ",
"5 5 5 5 5 5 5 5 5 5 5 w 5 5 5 5 5 - - = - - - ; 2 m W Q ^ ~ / / / W V u r V Q / C / / / ! W N 2 & & & # # # - & - - - 3 5 5 5 5 5 5 5 5 5 5 5 5 5 5 5 5 5 5 5 5 ",
"5 5 5 5 5 5 5 5 5 5 5 5 5 5 5 5 5 5 3 3 > 5 5 5 3 6 5 6 9 6 6 6 6 5 5 5 5 q 6 5 q q 5 5 5 6 5 5 6 3 5 3 5 3 5 2 5 3 3 4 5 5 5 5 5 5 5 5 5 5 5 5 5 5 w 5 5 5 5 5 ",
"5 5 5 5 5 5 5 5 5 5 5 5 5 5 5 5 5 5 5 5 5 5 5 5 5 5 5 3 > 5 > > 5 5 5 5 5 5 5 5 > 5 5 5 5 5 5 5 5 5 5 5 5 5 5 5 4 5 5 5 5 5 5 5 5 5 5 5 5 5 5 5 5 5 5 5 5 5 5 5 ",
"5 5 5 5 5 5 5 5 5 5 5 5 5 5 5 5 5 5 5 5 5 5 5 5 5 5 5 5 5 5 5 5 5 5 5 5 5 5 5 5 5 4 5 5 5 5 5 4 5 5 5 5 5 5 5 5 5 5 5 5 5 5 5 5 5 5 5 5 5 5 5 5 5 5 5 5 5 5 5 5 ",
"5 6 5 5 5 5 5 5 5 5 5 5 e 5 5 5 5 5 5 5 5 5 5 5 5 5 5 5 5 5 5 5 5 5 5 5 5 5 5 5 5 5 5 5 5 5 5 5 5 5 5 5 5 5 5 5 5 5 5 5 5 5 5 5 5 5 5 5 5 5 5 5 5 5 5 5 5 5 5 5 ",
"5 5 5 5 5 5 5 5 5 5 5 5 5 5 5 5 5 5 5 5 5 5 5 5 5 5 5 5 5 5 5 5 5 5 5 5 5 5 5 5 5 5 5 5 5 5 5 5 5 5 5 5 5 5 5 5 5 5 5 5 5 5 5 5 5 5 5 5 5 5 5 5 5 5 5 5 5 5 5 5 ",
"5 5 5 5 5 5 5 5 5 5 5 5 5 5 5 5 5 5 5 5 5 5 5 5 5 5 5 5 5 5 5 5 5 5 5 5 5 5 5 5 5 5 5 5 5 5 5 5 5 5 5 5 5 5 5 5 5 5 5 5 5 5 5 5 5 5 5 5 5 e 5 5 5 5 5 5 5 5 5 5 "
};
