/* XPM */
static char *_507ca90c3d34be1f262db180b20569cdMJrN6W8Mu1NXeoT[] = {
/* columns rows colors chars-per-pixel */
"80 80 202 2 ",
"   c #0A100B",
".  c #13120F",
"X  c #0F1A11",
"o  c #131512",
"O  c #161916",
"+  c #1C1B16",
"@  c #1D1D1A",
"#  c #29180B",
"$  c #211E1D",
"%  c #182318",
"&  c #23221D",
"*  c #28271F",
"=  c #312516",
"-  c #1E2123",
";  c #272621",
":  c #292622",
">  c #2B2B24",
",  c #262A28",
"<  c #2D2D29",
"1  c #312B26",
"2  c #322D29",
"3  c #3B2C28",
"4  c #253429",
"5  c #2D312C",
"6  c #31322E",
"7  c #38362E",
"8  c #242F30",
"9  c #2B3333",
"0  c #2D3939",
"q  c #333432",
"w  c #3B3732",
"e  c #353A35",
"r  c #3E3A35",
"t  c #353A39",
"y  c #3A3D3A",
"u  c #44332F",
"i  c #4A3733",
"p  c #443D36",
"a  c #453E3A",
"s  c #3C423D",
"d  c #394A38",
"f  c #45423B",
"g  c #4C433E",
"h  c #333E43",
"j  c #364144",
"k  c #3B4442",
"l  c #39464A",
"z  c #3C494B",
"x  c #3F4D51",
"c  c #434442",
"v  c #494642",
"b  c #494A46",
"n  c #414C4C",
"m  c #4D4D4C",
"M  c #544C46",
"N  c #49514B",
"B  c #54524D",
"V  c #58544D",
"C  c #424C52",
"Z  c #445354",
"A  c #4B5656",
"S  c #485659",
"D  c #4B5A5B",
"F  c #535452",
"G  c #5B5553",
"H  c #545A54",
"J  c #5B5A54",
"K  c #5A5D59",
"L  c #605049",
"P  c #615C57",
"I  c #5C615D",
"U  c #63625D",
"Y  c #756559",
"T  c #4D5E62",
"R  c #555D60",
"E  c #4E6366",
"W  c #4F6468",
"Q  c #526467",
"!  c #5C6464",
"~  c #51656A",
"^  c #596669",
"/  c #54696C",
"(  c #5C6B6D",
")  c #576C71",
"_  c #596E72",
"`  c #5C7175",
"'  c #5E7479",
"]  c #656362",
"[  c #686867",
"{  c #636C6C",
"}  c #696C6C",
"|  c #716D6A",
" . c #69716E",
".. c #77736B",
"X. c #626D72",
"o. c #617171",
"O. c #6C7474",
"+. c #64757A",
"@. c #69777B",
"#. c #647A7E",
"$. c #6B7A7D",
"%. c #767A79",
"&. c #87796C",
"*. c #7A817E",
"=. c #918477",
"-. c #677E83",
";. c #6B7E82",
":. c #7D7F80",
">. c #6B8185",
",. c #6E8589",
"<. c #738385",
"1. c #7D8383",
"2. c #72868A",
"3. c #7A8588",
"4. c #738A8D",
"5. c #7A8B8D",
"6. c #768E92",
"7. c #7A8E93",
"8. c #779094",
"9. c #7A9296",
"0. c #7C9599",
"q. c #7E989C",
"w. c #858A88",
"e. c #958E83",
"r. c #89908B",
"t. c #849394",
"y. c #8B9494",
"u. c #83969A",
"i. c #839A9E",
"p. c #949B98",
"a. c #AB9786",
"s. c #A79E92",
"d. c #96A19F",
"f. c #A9A094",
"g. c #BAA593",
"h. c #B6A898",
"j. c #849DA1",
"k. c #8A9EA2",
"l. c #87A0A4",
"z. c #89A2A6",
"x. c #8BA5A9",
"c. c #8EA9AC",
"v. c #93A2A4",
"b. c #9AA2A1",
"n. c #91A6AA",
"m. c #91ABAE",
"M. c #9AABAD",
"N. c #94ADB2",
"B. c #9BAEB3",
"V. c #96B0B3",
"C. c #9CB1B5",
"Z. c #9EB5B9",
"A. c #9FB8BA",
"S. c #A4AEAD",
"D. c #ADB2AD",
"F. c #B7B3AA",
"G. c #A1AEB3",
"H. c #A2B2B4",
"J. c #A9B4B4",
"K. c #A3B5B9",
"L. c #A9B6BA",
"P. c #A5B9BD",
"I. c #ACBBBD",
"U. c #B2BBBA",
"Y. c #C0A693",
"T. c #C7B5A3",
"R. c #C9B9A4",
"E. c #C3BBAE",
"W. c #D4BCA6",
"Q. c #D4BEA9",
"!. c #C6BDB1",
"~. c #D6C1AC",
"^. c #D9C1AC",
"/. c #CEC8BF",
"(. c #D9C8B7",
"). c #E1CFBE",
"_. c #A6BCC1",
"`. c #ACBDC2",
"'. c #B1BFC4",
"]. c #ACC0C6",
"[. c #AFC4C9",
"{. c #B2C1C5",
"}. c #BBC4C6",
"|. c #B5C5CA",
" X c #B9C7CC",
".X c #B5C9CC",
"XX c #BACACD",
"oX c #BDCDD2",
"OX c #BDD0D4",
"+X c #C4CDCF",
"@X c #DDD2C7",
"#X c #C1CFD4",
"$X c #C1D1D6",
"%X c #C5D4DA",
"&X c #C8D8DD",
"*X c #CAD9DD",
"=X c #D0DCDC",
"-X c #E3D2C1",
";X c #E7D9CD",
":X c #E9D9CB",
">X c #D1DFE1",
",X c #D5E3E5",
/* pixels */
"> > > > > > > < > > > > > > > > > > > > > > > > > > > > : < 2 < 2 2 2 > 2 1 1 1 < 2 2 2 2 1 < 1 2 1 < > > > > > > > > > > > > > > > > > > > > > > > > > > > > > ",
"> > > > > > > > > > > > > > > > > > > > > > > > > > > > : F y.$.{ _ o.o.o.o.{ ` _ _ _ X.( X.o.o.{ ` ( s * > * > * > * > > > > > > > > > > > > > > > > > > > > > ",
"> > > > > > < > > > > > > > < > > > > > > > > > > > q y c :.'.c.i.8.8.8.8.8.0.0.0.0.0.0.0.8.6.8.8.8.4.H s y y y y s s w > > > > < > > > > > > > > > > > > > > > ",
"> > > > > > > > > > > > > > > > > > > > > > : : > > ^ 6.G.'.'.'.H.8.6.6.8.8.l.l.x.x.j.j.q.6.7.6.6.6.8.0.0.2.,.,.>.4.l.o.> > > > > > > > > > > > > > > > > > > > ",
"> > > > > > > > > > > > > > > > > > > > > : q ] } } u.M.'.{.'. X`.i.q.u.q.q.x.x.x.x.z.z.q.6.6.6.6.8.q.q.q.8.8.6.6.0.m.i.O.s * * > 4 = > > > > > > 4 > > > > > > ",
"> > > > > > > > > > > > > > > > > > > > > < b J.{.{.{.{.{.{.'. X|.n.z.z.z.z.z.x.x.x.z.z.q.6.6.8.6.q.z.0.6.6.6.6.6.0.m.].$XI * > > > < > > > > > > 1 > > > > > > ",
"> > > > > > > > > > > > > > > > > > > > < O.n.'.{.{.{.'.{.{. XoXXX{.Z.z.l.z.x.x.x.x.k.0.8.8.8.8.6.q.x.0.6.6.6.6.6.8.c.].OXI > > > > > > > > > > > > > > > > > > ",
"> > > > > > > > > > > > > > > > > > > 7 m v. X'.{.{.|.|. X X XoXoXoX`.N.x.x.x.l.j.k.q.6.6.8.8.0.9.q.l.0.6.6.7.6.8.q.c.].$XI * > > > > > > > > 5 1 > > > > > > > ",
"> > > > > > > > > > > > > < > > 1 : : U J.`.|.'.'.'. XoXoX'.N. X$XOXoX.XB.l.z.q.8.8.8.6.8.8.q.k.z.z.l.0.6.6.6.6.j.z.m.].OXI * , > > > > > > > > > > > > > > > > ",
"> > > > > > > > > > > > > > > > : t { y.{.{.'.'.'. XoXOXoX X_.`.[.OXOXoXB.l.j.0.6.6.6.6.6.8.j.x.z.z.l.0.6.6.6.6.l.x.N.].%XI * * > > > > > > > > > > > > > > > > ",
"> > > > > > > > > > > > > > > > , c G.'.'.'.{.|.oXoX$X$XOX#XOX_.C.oXoX.XB.z.8.4.6.6.6.8.8.8.j.z.z.z.z.0.6.6.6.8.q.x.m.].OXI > > > > > > > > > > > > > > > > > > ",
"> > > > > > > > > < > > > > > > c ^ G.`.{.'.|.'.|.oX#X$X#X#XOXoX.XoX.X.X`.C.0.>._ ,.6.7.q.j.x.x.z.z.z.0.6.6.6.6.l.x.m.].OXI * > > > > > > > > > 4 > > > > > > > ",
"> > > 1 > > > > > > > > > > 5 e S _ j.G.'.'.|.'. XoXOX#X#X#XOX$XOXoX X{.{.`.i.>._ ,.6.6.0.z.z.x.x.z.z.0.6.8.6.8.q.z.m.].$XI * > > > > > = 4 > > 1 > > > > > > > ",
"> > > > > > > > > > > > > * d E ~ ~ ~ 7.'.'. X XOXOXOX#X$X#X#XOXoXoX X{.{.`.H.k.4.6.6.6.q.z.x.z.x.z.l.0.4.8.6.6.l.c.m.].$XI * > > > > > < > > > > > > > > > > > ",
"> > > > > > > > > > > > > : s Q ~ ~ -.j.'. X XoXOX#XOX#X$XOX#XOX.X X|.{.I.L.L.H.n.q.8.q.q.z.c.z.c.l.z.0.8.6.8.8.l.c.m.].OXI * > > > > > > > > > > > > > > > > > ",
"> > > > > > > > > > > > > > k ~ ~ _ ;.n.'.'.'.oXoX#XOX#X#X#X#XOXoX{.[.'.H.G.{.|.{.k.0.z.x.x.z.c.z.z.z.0.4.8.8.8.q.z.m.].OXI > > > > > < > > > > > > > > > > 1 > ",
"> < > > > > > > > > > > > : k Q E ) 4.9.j.`.oXoX#X#X#XOX$XOXoX X X'.|.'.7.<.`.{.'.'._.x.z.z.x.z.z.l.z.0.6.6.6.6.i.x.c.].OXI * > > > > > > > > > > > > > > > > > ",
"> > > > > > > > > > > > > 1 k Q W ) 4.6.7.L.oXoXOX#X$X$X#XOXoX X X'.'.{.7.<.`.{.|. X.XV.N.c.z.c.c.l.z.0.6.6.6.6.l.x.N.].%XI ; > > > > > > > 1 > > > > > > > > > ",
"> > > > > > > > > > > > : 1 k Q W / 6.6.8.L.oXoXOX#XOX%X$XOXoX X X'.{.'.G.G.'.{.[. XOX.X_.x.c.z.x.c.z.0.6.6.6.6.q.x.c.].$XH > > > > > > > > > > > > > > > > > > ",
"> > > > > > > > > > > : > : s Q W ) 4.6.7.n._. XOXOX#X#X#XOXoXoX X|.'.L.L.I.{.{. XoXoXOX_.k.k.x.x.q.z.0.6.6.6.8.l.x.N.].$XI * , > > > > 4 > > > > > > > > > > > ",
"> > > > > < > > > > > > > : k Q W ) 4.6.8.i.n. XoXOXOX#XOXoXoXoXoX{.L.H.I.{.{. XoXoXoXoX_.c.k.c.x.q.x.0.6.8.6.6.l.x.m.].$XI * > > > > > > > > > > > > > 1 > > > ",
"> > > > > > > > > > > > > : k Q W / 6.6.6.8.u.B.'.OX#XOX#XoXoXoXoX'.I.H.I.'.{. XoXoXoXoX.X'.N.k.x.c.z.0.6.6.6.6.q.x.m.].$XI * > > > > > > > > > = 4 > > > > > > ",
"> > > > > > > > > > > > > 1 s Q W ) 4.6.0.0.q.c._..XoX#XoX#XOXoXXX{.I.H.`.'.'. XoXoXoXoXOXOX_.N.c.c.c.0.6.6.6.8.l.c.m.].OXI * > > > > > > > > > 1 > > > > > > > ",
"> > > > > > > > > > > > > : k Q W ) 4.q.l.z.x.N.N.V. X#X#X#X#XOXXX|.I.H.`. X'.'.oXOXOXOX#X#X#X XV.N.c.q.6.6.6.6.q.z.m.].OXI > > > > > > > > > > > > 4 > > > > > ",
"> > > > > > > > > > > > > : k Q W ) 4.0.l.x.x.N.N.V.[.OX#XOX#X#XXX}.I.H.I.{.{..XoXOXoX`. X#X#XOX].P.m.0.6.6.6.7.l.c.N.].OXK , > > > > 4 1 > > > > > > > > > > > ",
"> > > > > > > > > > > > > > k Q W ) 4.0.x.z.x.N.N.V.|.OXOXOX#XOXXXoX{.H.I.{.{..XoX#XoXN._.oX XoXOX_.n.0.4.4.6.6.q.x.c.].OX! > > > > > > > > > 1 > > > > > > > > ",
"> > < > > > > < > > > > > > k Q E ) 4.q.l.x.x.N.N.V.V.P.OX%X$XOXoXXX{.H.U.{.{..X$X$XoXH.K.`.L._._.i.' ` ) _ _ _ 0.x.N.].$XK ; > > > > > > > > > > > > > 1 > > > ",
"> > > > > > > > > > > > > > s Q W ) 4.q.x.z.c.N.N.V.N.C.'..X.XOX+XoX`.H.I.{.{.}.#X$X}.y.r.r.w.:.3.{ C z x D D D 6.x.m.].$XK ; > > > > > > > > > > > > > > > > > ",
"> > > > > > > > > > > > > > k W W ) ,.q.z.z.x.N.N.V.N.N.V.V.V.[.OXXXU.H.I.{.{..X#X%XL.B a c : O @ O O O @ y a v ,.x.N.].%XI * > > > > > > > > > > 5 1 > > > > > ",
"> > > > > > > > > > > > > * s Q W ) 6.8.q.l.x.c.N.N.V.V.N.N.N.A.`..X`.H.I.{.{.XX#X{.d.q : ; q e t 5 - o . ; 2 a ( 4.c.].$XI * > > > > > > > > > 4 = > > > > > > ",
"> > > > > > > > > > > > > > f Q W / 4.6.6.j.x.x.c.V.N.N.V.V.N.N.V.{.I.H.U.U.U..X#XI.t.- o @ c F A d 4 X   o : a D ` x.[.OXI * > > > > > > > > > > > > > > 4 > > ",
"< > > > > > > > > > > > > > s Q W ) 4.6.6.q.x.x.x.N.V.N.N.N.N.c.m.{.I.H.`.{.{..X#X`.t.- , c m B B e %   . 6 p a D ` c.].$XH > > > > > > > > > > > > > > > > > > ",
"> > > > > > > > > > > > > > k Q W ) -.,.8.j.x.z.c.N.N.N.V.N.N.m.m.A.L.J.I.`.{.|.oXI.y.6 r K G R G y %   . r p p D ` j._.%XJ * > > > > > > > > > > > > > > > > > ",
"> > > > > > > > > > > > > : k W W ~ ~ ' 6.j.z.x.c.N.N.N.N.N.N.N.m.c.C.{.P.J.{.|.XXI.d.J P ] [ [ [ m 4 X X r p p D _ 2.B.$XI * > > > > > > > > > > > > > > > > > ",
"> > > > > > > > > > > > : : s W W W W _ +.6.j.z.x.m.N.N.N.V.N.N.m.x.m.V.P.I.J.`.}.L.d.P M V U [ [ H d % O r p f A +.N.|.$XK > > > 1 > 5 > > > > > > > > > > > > ",
"> > > > > > > > > > > > > 1 s E W W W W W ;.8.z.x.x.m.N.N.N.N.N.m.x.l.x.P.'.H.I.{.L.d.P M v K [ [ I d - & p p f A @..XoX'.H * > > > > = > > > > > > > > > > > > ",
"> > > > > > > > > > > > > > > q S ~ W W W -.0.k.z.c.c.c.c.c.x.c.x.x.x.x.K.{.U.I.H.`.S.U G J P P I J J B M g f f v ] {.y.M 7 > > > > > 4 1 > > > > > > > > > > > ",
"> > > > > > > > > > > > > > > > k S Q W W -.,.j.q.j.j.q.j.q.q.j.j.j.j.j.P.{.{.I.H.J.J.1.%.1.1.%.*.*.*.*.%.O.[ ! B K p.} 2 > > > > > > > > > > 4 > > > > > > > 5 ",
"> < > > > > > > > > > > > > > > > q T ~ ~ ~ ) 6.6.6.8.8.6.6.6.6.6.6.6.6.P.{.{.I.H.H.J.I.}.XXXXXXXXXXXXXXXXoXK.k. .G B r & > * > > > > > > > > > > > > > > > > > ",
"> > > > > > > > > > > > > > > > : 6 E ~ ~ ~ ~ _ -.6.6.6.8.-.' ' ' ` ' ' >.9.H.J.H.M.H.'.|.XX|. XXX#XXX$X XL.N.k.} V M p : > > > > > > > > > > > > > > > > > > > ",
"> > > > > > > > > > > > > > > > 1 2 A T ~ ~ W W ' ,.6.6.6.-.T _ ) ( / E / +.M.H.B.H.L.'.{.{.{.{.XXXXoXoX{.m.n.x.[ M v r > 1 > : > > > > > > > > > > > > > > > > ",
"> > > > > > > > > > > > < > > > > > 6 n ~ ~ ~ ~ / _ ,.8.6.-./ 9.x.x.,./ 9.n.N.B.H.{.XXL.I.{.{.{.|..XoXXXXX.X|.]...g 2 : > : > > > > > > > > > > > > > > > > > > ",
"> > > < > > > > > > > > > > > > > * > e Z T ~ ~ W W -.;.;.` ~ 2.0.q.>./ 2.0.0.z.H.U.{.H.K.U.{.{.{..XXXXXXXXX$X+X} r > * > > : > > > > > > > > > > > > > > > > > ",
"> > > > > > > > > > > > > > > > > > > : > Z Q ~ ~ W W W W ~ ~ ~ Q W / W ~ ~ Q 2.H.H.H.H.S.H.L.{.'.{.{.{.}.XX%X,XI & > > : > > > > > > > > > > > > > > > > > > > ",
"> > > > > > > > > > > > > > > > > > > > > e k Q ~ ~ W ~ ~ ~ ~ 4.9./ *.f.f.s.f.h.!.!.!.E.!.F.U.L.J.K.J.{.}.*X>X*XK * > > > > > > > > > > 1 > > > > > > > > > > > ",
"> > > > > > > < > > > > > > > > > > : : > : 5 D T ~ W ~ _ _ ' k.m.#.r.R.R.R.R.R.R.R.Q.Q.Q.Q.D.S.D.S.S.I.}.>X,X>XK * > > > > > > > > > > > > > > > > > > > > > > ",
"> > > > > > > > > > > > > > > > > > > > > > > 5 n W T ' B.C.m.n.z.i.5.+.+.+.@.+.O.a.Y.Y.Y.Y.g.g.g.g.h.D.'.*X,X=XK : > > > > > > > > > > > > > > 4 > > > > > > > ",
"> > > > > > > > > > > > > > > > > > > > > > > > h / ~ ' k.k.j.0.9.9.,.#.>.,.,.6.t.r.e.e.e.e.e.e.=.=.&.%.1.p.s.y.m > > > > > > > > > > > > > > > 1 > > > > > > > ",
"> > > > > > > > > > > > > > > > > > > > > > > * k / _ ) ) _ ) _ _ ) -.0.m.Z.Z.[.%X5._ _ _ _ ) ` ' N 2 > > > > < > 1 > > * > > > > > > > > > > > > < > < > > > > ",
"> > > > > > > > > > > > > > > > > > > > > > > > 7 d z D 4.;.^ ;.4.^ $.l.N.Z.A.P.].K.K.K.K.K.Z.Z.J.M.p.N > > * > 1 * > > > > > > > > > > > > > > 4 = > > 1 > > > ",
"> > > > > > > > > > > > > > > > > > > > > > > > > > 5 n 7.5.O.7.8.{ $.0.N.C.Z.Z.K.oX*X*X%X$X*X*X*X*X$XI * > > > > > > > > > > > > > > > > > > > > > > > 1 > > > ",
"> > > > > < > > > > > > > > > > > < > > > > > > > > q l ^ r.U.3.X.i.@.C 4.m.Z.Z.C.P._. X`.B.I.{.{.|.`.B * > > > > > > > > > > > 1 4 > > > > > > > > > > 4 > > > ",
"> < > < > > > > > > > > > > < > > > > > > > > > > > q z o.5.b.3.$.5.^ h 2.c.N.C.Z.5.%.=.p.B.{.XXXXXX|.H > > > > > > > > > < > > > > > > > > > > > > > > > > > > ",
"> > > > > > > > > > > > > > > > > > > > > > > > > , e z i.2.I 7.u.^ A h 2.x.z.m.N.v # # ] |.%X*X*X*X$XI * > > > > > > > > > > > > > > > > > > > > > > > > > > > ",
"> > > > > > > > > > > > > > > > > > > > > > > > > > q j D D D ( $.5.X.D M.`.4.! b = # # F n.C.P..XXX.XH * > > > > > > > > > > > > > > > > > > > > > > > > > > > ",
"> > > > > > > > > > > > > > > > > > > > > > > < * > 5 t t j C D { v.t.| S.L._ s # # = * F 0.j.m.].P.M.N > > > > > > > > > > > > > > > > > > > > > > > > > > > > ",
"= 4 > > > > > > > 4 > > > 1 > > > > > > > > > > > > > 6 t h y z ! /.(.T.[ z h 2 # # > 5.0.9.j.m.].9.n 6 > * > > > > > > > > > < > > > 1 > > > > > > > > > > 1 4 ",
"1 > > > > > > 1 > 1 > > > > > > > > > > > > > > > > > > q t l O.p.@X-X~.=.| ..U V b H i.j.0.i.n.].5.k 6 > > > > > > > > > > > > > > 4 = > > > > > > > > > > 1 > ",
"> > > > > > > > > > > > > > > > > > > > > > > > > > > > q l A F.:X;X).^.Q.^.^.F.d.u.t.k.j.9.9.j.].9.z q > > > > > < > > > > > > > > > > < > > > > > > > > > > > ",
"> > > > > > > > > > > > > > > > > > > > > > > > > > > > < P h.(.:X:X).Q.^.Q.Q.E.H.].].i.u.9.0.i.].5.k 6 > > > > > > > > > > > > > > > > > > > > > > > > > > > > ",
"< > > > > > > > > > > > > > > > > > > > > > > > > > > > : Y (.-X:X:X).^.^.^.^.R.D.}._.9.4.6.4.u.C.*.0 < > > > > > > > > > > > > > 4 1 > > > > > > > > > > > > > ",
"> > > > > > > > > > > > > > > > > > > > > > > > , > > > > Y ^.-X:X:X).^.^.^.^.T.h.*.+.` _ _ _ _ ' Z > > > > > > > > > > > > > > > > > > > > > > > > > > > > > > ",
"> > > > > 4 > > > > > > > > > > > > > > > > > > > > & & & M &.!.:X).).Q.Q.Q.W.a.&.! T S ' u.o._ >.^ s 2 & > > > > > > > > > > > > > > > > > > > > > > > > > > > ",
"> > > > > > > > > > > > > > > > > > > > > > > > > * & $ $ : 3 s.-XQ.Q.Q.Q.W.g.&.h z n h $.+X1.( i.3.Q q % * > > > > > > > > > > > > > > > > > > > > > > > > > > ",
"> > > > > > > > > > > > > > > > > > > > > > > > * & + <  .H 2 V Y Y Y Y a.Y.!.F.b.K h c :.#Xv.2.@.;.6.t O $ $ $ > > > > > > > > > > > > > > > > > > > > > > > > ",
"> > > > > > > > > > > > > > > > > > > > > > > > & + + q b.=.g u u u u a &.f.'.'.+XX.h x ;.K.n.t.K X.6.t + @ + + & > > > > > > > > > > > > > > > > > > > > > > > ",
"> > > > > > > > > > > > > > > > > > > > > 1 : % % + + y +X{.y.L i i m / } _ _ k.%X7.T h h l ;.;.l 8 $ @ + + @ + @ $ > > > > > > > > > > > > > > > > > > > > > > ",
"> > > > > > > > > > > > > > > > > > > > & & & $ $ + + w S.I.G.w.| U X.-.7.t.7.G.%X6.W Z C S ;.;.h 8 - O O + + @ @ @ : > > > > > > > > > > > > > > > > > > > > > ",
"> > > > 4 > > > > > > > > > > > > > * & + + @ + @ @ O q r.M.I.J.M.0.0.u.C.].].oX&X7._ ) _ o.:.;.h 0 h @ . + $ + @ @ > > > > > > > > > > > > > > > > > > > > > > ",
"> > > > 1 > > > > > > > > > > > > * & $ + $ + @ @ @ @ ; t c m X.2.8.0.9.i.c.].]. X'.B._ _ +.+.@.-.T 0 @ o + + + @ @ $ & > > > > > > > > > > > > > 1 > > > > > > ",
"> > > > > 1 > > > > > > > > > > > * % % % + $ $ @ @ @ @ @ + @ Z ' 6.9.9.0.i.Z.].[.oX[.-.) ^ X.+.;.^ 0 @ . + @ @ @ @ @ & ; : > > > > > > > > > > > 4 > > > > > > ",
"> > > > > > > > > > > > > > > > * * % & $ $ + + @ $ @ @ @ @ @ Z ' 7.0.0.0.0.i.m.'.|.Z.' T S _ +.+.T 0 @ . + + @ @ @ @ @ @ ; > , < > > > > > > > > > > > > > > > ",
"> > > > > > > > > > > > > > > > > & + @ @ @ @ @ @ @ @ @ @ + $ z / >.>.>.>.>.>.4.j.j.8.) S l Z S S l 9 @ o O @ @ @ + $ $ & > > > > > > > > > > > > > > > > > > > ",
"> > > > > > > > > > > > > > > > > > & @ + @ @ @ @ @ @ @ @ $ $ l D ^ ~ / / / / ~ ~ / W S z 0 0 0 0 9 8 - o @ $ + @ @ @ & > > > > > > > > > > > > > > < > > > > > ",
"> > > > = < > > > > > > > > > > > > ; : : ; ; ; : ; : ; : : : < q t e e t e e e t e t q q 5 < < < < , - ; ; ; ; ; : ; ; > > > > > > > > > > > > > > > > > > > > ",
"> > > > 4 > > > > > > > > > > > > > > > > > : > : > > : > > > > > > : * > > > > : > : : 1 > > > : : : 1 > > > > > > : > > > > > > > > > > > > > > > > > > > > > ",
"> > > > > > > > > 4 > > > > > > > > > > > > , > > > > > : > > > > > > > > > > > > > > > > > > * 1 : : > > > > > > > > > > > > > > > > > > > > < > > > > > > > > ",
"> > > > > > > > > > > > > > > > > > > > > > > > > > > > > > > > > > > > > > > > > > > > > > > > > > > > > > > > > > > > > > > > > > > > > > > > > > > > > > > > ",
"> > > > > > > > > 1 > > > > > > > > > > > > > > > > > > > > > > > > > > > > > > > > > > > > > > > > > > > > > > > > > > > > > > > > > > > > > > > > > > > < > > ",
"> > > > 4 1 > > 1 > > > > > > > > > > > > > > > > > > > > > > > > > > > > > > > > > > > > > > > > > > > > > > > > > > > > > > > > > < > > > > > > > > > > > > > "
};
