/* XPM */
static char *R1672843862[] = {
/* columns rows colors chars-per-pixel */
"80 80 237 2 ",
"   c #060C09",
".  c #1D0903",
"X  c #0A140B",
"o  c #12140E",
"O  c #181717",
"+  c #0E1512",
"@  c #321B08",
"#  c #2A180B",
"$  c #19241C",
"%  c #0D2115",
"&  c #31251A",
"*  c #1E312C",
"=  c #2A2927",
"-  c #2B2D31",
";  c #2D3C3E",
":  c #283537",
">  c #353535",
",  c #393636",
"<  c #353836",
"1  c #3A3936",
"2  c #3A353A",
"3  c #353B3B",
"4  c #3D3D3D",
"5  c #36363A",
"6  c #2D322E",
"7  c #423D3D",
"8  c #483B36",
"9  c #4A302D",
"0  c #3D413E",
"q  c #364639",
"w  c #42413E",
"e  c #48443A",
"r  c #353F42",
"t  c #3E3E41",
"y  c #333740",
"u  c #2D3F43",
"i  c #423F40",
"p  c #2B4144",
"a  c #344344",
"s  c #3C4242",
"d  c #3E494A",
"f  c #39484A",
"g  c #3C4D52",
"h  c #3D5557",
"j  c #3E666A",
"k  c #3D5B63",
"l  c #424242",
"z  c #414B4C",
"x  c #4B4C4C",
"c  c #494846",
"v  c #554C48",
"b  c #4B514B",
"n  c #55534C",
"m  c #494F53",
"M  c #425152",
"N  c #4C5554",
"B  c #455B5C",
"V  c #4B5B5B",
"C  c #47565A",
"Z  c #535654",
"A  c #545659",
"S  c #5C5C5B",
"D  c #575857",
"F  c #655C58",
"G  c #72544B",
"H  c #54615A",
"J  c #67625A",
"K  c #7B6059",
"L  c #435E61",
"P  c #4A5F66",
"I  c #565C64",
"U  c #456265",
"Y  c #4B6364",
"T  c #45656A",
"R  c #4A656A",
"E  c #4C696B",
"W  c #49696A",
"Q  c #546A6B",
"!  c #596C6C",
"~  c #556667",
"^  c #4D6C71",
"/  c #4B6671",
"(  c #526D72",
")  c #586C73",
"_  c #4C7375",
"`  c #547175",
"'  c #5C7274",
"]  c #5A747A",
"[  c #57767B",
"{  c #5C706F",
"}  c #696968",
"|  c #736C67",
" . c #646F74",
".. c #64767B",
"X. c #67797B",
"o. c #777879",
"O. c #6F736D",
"+. c #625D61",
"@. c #857A6E",
"#. c #806E58",
"$. c #7C827C",
"%. c #68827F",
"&. c #978679",
"*. c #96917E",
"=. c #5D7B82",
"-. c #4E7282",
";. c #667D83",
":. c #777D81",
">. c #817F82",
",. c #5F8085",
"<. c #6D8385",
"1. c #65838A",
"2. c #6B868B",
"3. c #6C8B8E",
"4. c #658488",
"5. c #72868A",
"6. c #738A8D",
"7. c #788687",
"8. c #6D8E93",
"9. c #698C94",
"0. c #718E94",
"q. c #7A8D93",
"w. c #6D9195",
"e. c #6D9397",
"r. c #729195",
"t. c #749499",
"y. c #7B959B",
"u. c #76999C",
"i. c #7A9A9D",
"p. c #7D9494",
"a. c #7A958E",
"s. c #7CA09D",
"d. c #7C9EA2",
"f. c #789BA4",
"g. c #7EA1A5",
"h. c #7FA3A9",
"j. c #858B8C",
"k. c #8D938B",
"l. c #879797",
"z. c #959894",
"x. c #918F8D",
"c. c #A79788",
"v. c #AC9589",
"b. c #95A29D",
"n. c #B8AA9A",
"m. c #B3A896",
"M. c #829DA3",
"N. c #8494A4",
"B. c #929DA1",
"V. c #83A2A6",
"C. c #83A6AA",
"Z. c #84A9AC",
"A. c #8AAAAD",
"S. c #8AA4A8",
"D. c #92ACAE",
"F. c #9AACAD",
"G. c #96A5A3",
"H. c #86ABB1",
"J. c #8BADB2",
"K. c #8CAEB8",
"L. c #92ADB2",
"P. c #9BAEB1",
"I. c #9BAFBA",
"U. c #8DB1B4",
"Y. c #8EB4B9",
"T. c #94B2B5",
"R. c #9CB2B4",
"E. c #95B4BA",
"W. c #9CB5BA",
"Q. c #9DBABD",
"!. c #99B8B9",
"~. c #95B2AA",
"^. c #A2ABAC",
"/. c #A5B1AB",
"(. c #A3B3B4",
"). c #A2B6BB",
"_. c #A5BABC",
"`. c #AABCBD",
"'. c #AAB6B9",
"]. c #B3BAB8",
"[. c #ACB1B2",
"{. c #C8A78D",
"}. c #CFAE97",
"|. c #C7B9A8",
" X c #DBBEA9",
".X c #D5BDA6",
"XX c #CABBB5",
"oX c #C7ABA0",
"OX c #E2BDA2",
"+X c #AEC1BF",
"@X c #DCC3AC",
"#X c #DAC1A6",
"$X c #D5C5B6",
"%X c #E4C6AC",
"&X c #E4CBB6",
"*X c #E8D1BB",
"=X c #F1D3B7",
"-X c #9DBBC1",
";X c #92B7C7",
":X c #A4BDC2",
">X c #ABBEC2",
",X c #B1BFC7",
"<X c #9EC1C3",
"1X c #A5C2C5",
"2X c #ACC2C5",
"3X c #A6C3C9",
"4X c #ADC4C9",
"5X c #ADCACD",
"6X c #ACC9C5",
"7X c #B1C4C6",
"8X c #B2C5CA",
"9X c #B4CACD",
"0X c #B9CBCE",
"qX c #B7C7C9",
"wX c #ACCBD1",
"eX c #B5CCD1",
"rX c #BACED3",
"tX c #B3C3D0",
"yX c #B5D2D4",
"uX c #BCD1D5",
"iX c #BDD3D9",
"pX c #BDD9D8",
"aX c #BDD0CC",
"sX c #C2D5DA",
"dX c #C6D8DB",
"fX c #C7D6D8",
"gX c #CDD3D0",
"hX c #E8D6C7",
"jX c #F2DDCD",
"kX c #EBDAD3",
"lX c #F8E2CD",
"zX c #CCDCE2",
"xX c #C3DCE1",
"cX c #CCE2E7",
"vX c #D4E5E5",
"bX c #D1EDF5",
"nX c #CEE1DF",
/* pixels */
"4 4 4 4 4 4 4 4 4 4 4 4 4 4 4 4 4 4 4 4 4 4 4 4 7 0 < 4 i 2 > 2 , 7 , , 3 , , , 1 , 1 1 1 4 > 1 1 1 1 7 i 7 t r 8 7 4 < 7 1 7 s 4 4 4 4 4 4 4 4 4 4 4 4 4 4 4 7 ",
"4 4 4 4 4 4 4 4 4 4 4 4 4 4 4 4 7 4 1 4 4 4 l 4 < l l 7 , A l. .! ~ ! Q Q ! ! ! ! Q ! ! ! ! ! ' ! ! { 0 > 7 7 2 i 5 4 4 3 l 7 3 4 4 4 4 4 4 4 4 4 4 4 4 4 4 4 4 ",
"4 4 4 4 4 4 7 4 t 4 4 4 4 4 4 4 3 w 4 7 1 1 7 7 i 4 3 l t X.uXD.M.8.u.t.u.t.u.u.u.f.u.f.t.r.r.r.u.t.3.V s s t s r s r z c 7 7 4 t 4 4 4 0 4 4 4 4 4 4 4 4 4 0 4 ",
"4 4 4 4 0 4 4 4 4 4 4 4 t 4 4 4 w 4 1 1 w l < 3 2 4 V 6.(.).7X,X!.8.r.9.9.e.g.V.h.C.h.M.u.0.e.0.e.9.0.r.p.<.<.4.8.3.B.~ - 2 7 4 4 4 4 4 4 4 4 4 4 4 4 i 4 4 4 4 ",
"4 4 4 4 4 4 4 4 4 4 4 4 4 4 4 4 4 3 l 7 > t t S } I q.T.2X2X8XtX4Xi.f.t.f.f.C.C.C.C.d.Z.M.8.8.0.0.t.u.d.V.t.t.9.w.e.!.6.} c 5 3 4 4 4 4 4 4 4 4 4 4 4 4 t 4 4 4 ",
"4 4 4 4 4 t 4 4 4 4 4 4 4 4 4 4 4 i 4 4 l > r '.rX9XeX,X0X7X>XeX5XA.S.V.C.C.Z.V.Z.Z.C.C.f.8.8.e.9.f.Z.e.9.0.0.0.9.u.C.1XzXI , 4 4 4 4 4 4 4 4 4 4 4 4 4 4 4 4 4 ",
"4 4 4 4 4 4 4 4 4 4 4 7 4 4 4 4 4 4 s 4 > } B.,X>X>X>X>X,XtXrXrXuX1XT.V.g.C.Z.C.V.h.g.t.r.e.8.8.9.e.H.u.0.0.0.0.e.w.J.1XfXm , 4 4 4 4 4 t 4 0 4 4 4 4 4 4 4 4 4 ",
"4 4 4 4 4 4 4 4 4 4 4 4 4 4 4 0 4 4 4 l s l.sX>XtX>XeX8X7XeX8XeXrXsX>XL.M.V.S.V.M.V.M.0.3.t.t.r.t.M.d.t.0.3.r.8.r.t.A.:XfXm 4 4 4 7 4 4 4 4 4 4 4 4 4 4 4 4 4 4 ",
"4 4 4 4 4 4 4 4 l 4 4 4 4 4 0 3 7 i - A `.:X4X,X2X9X9X8XiX:XA.wXiXiX9XwXT.g.C.d.e.0.8.8.r.8.d.C.Z.V.S.t.0.0.0.8.d.Z.H.3XdXN , 4 4 4 4 4 4 4 4 4 4 4 4 4 4 4 4 4 ",
"4 4 4 4 4 4 4 4 4 4 7 s 4 4 s 7 3 l I j.7X2X7X8X4X9XrXuXyXeX1X:X2XiXyXpXL.V.f.t.e.8.0.t.r.w.g.Z.h.V.C.t.8.e.0.r.g.C.A.3XdXN 3 4 t 4 4 4 4 4 4 4 4 4 4 4 4 4 4 4 ",
"4 4 4 4 4 t 4 4 3 4 7 4 4 4 4 4 3 z '.rX7X4X:X7X8XrXrXsXuXiXiX).L.eXpXyXL.M.e.8.8.t.0.0.8.8.g.Z.h.h.C.t.0.0.8.0.d.C.H.3XfXN 5 7 4 4 4 4 4 4 4 4 4 4 s 7 4 4 4 4 ",
"4 4 4 4 4 4 4 4 4 4 4 4 7 4 4 3 a I P.,X8X2X2X8X5XiXrXiXsXrXsX9X5XuXeX9X2XW.0.4.^ 1.t.8.u.d.h.C.C.h.C.t.0.8.r.0.d.Z.H.3XdXN 3 7 4 4 4 4 4 4 4 4 4 4 4 4 4 4 4 4 ",
"4 4 4 4 4 4 4 4 4 0 1 4 7 7 r d L Q S.).,X4X8X2X9XiXrXrXsXrXrXsXiXeX4X>X9X:Xi.4.E 1.0.9.f.A.C.C.C.g.Z.u.0.0.0.8.d.Z.H.3XdXN 1 4 4 4 4 4 4 4 4 4 4 4 4 4 4 4 4 4 ",
"4 4 4 4 4 4 4 4 4 4 0 4 7 4 z V T ^ h 6.9X7X9XyXrXeXiXiXrXsXrXiXeXuXrX8X8X>XR.V.3.t.8.3.t.V.V.C.h.g.C.t.8.0.8.r.d.Z.H.3XfXN 3 7 4 4 4 4 4 4 t 4 4 4 4 4 4 4 4 4 ",
"4 4 t 4 4 4 4 4 4 4 4 4 7 2 z Q T E ` N.8X,X8X9XiXrXsXrXrXiXyXyXeX9X8X2X`._.>XF.A.t.0.y.f.H.C.C.Z.g.C.t.8.0.0.0.d.Z.H.3XdXN , 4 4 4 4 4 4 4 4 4 4 4 4 4 4 t 4 4 ",
"4 4 4 4 4 4 4 4 i t 4 4 i 3 d E P [ 3.L.,X,X8XeXrXrXrXiXsXiXyXiXrX7X>XtX).R.8X8XeXf.t.C.V.Z.Z.C.h.V.S.t.0.0.0.0.d.Z.A.3XdXN 5 7 0 7 4 4 4 4 4 4 4 4 4 4 4 4 4 4 ",
"4 4 4 4 4 4 4 4 4 4 4 3 4 4 d R Y ( 3.t.y.1X9XuXiXrXrXsXuXrXrX8X5XtX7XeX2...4X,X4X2X:XV.V.Z.V.C.C.g.C.r.8.w.8.8.g.C.H.3XdXZ 3 4 4 4 4 4 4 4 4 4 4 4 4 4 4 4 4 4 ",
"4 4 4 4 7 t 4 4 4 4 7 4 1 4 z E U E 3.8.6.1XiX9XrXrXiXiXrXuXrXeX,X,X7X,X5.;.>X9X4XeXwXE.Z.h.C.C.C.g.C.t.3.w.r.0.g.C.H.3XdXN , 7 4 t 4 4 4 4 4 4 t 4 4 4 4 4 4 4 ",
"4 4 4 4 4 4 4 4 4 4 4 3 7 1 z E U ( r.0.3.:XiX9XrXsXsXuXuXuX0XeXrX4X>X9XR.P.8X2X>XuXrXrX1XZ.H.V.h.g.C.t.8.8.8.r.d.C.A.3XdXN 5 4 4 4 4 4 4 4 4 4 4 4 4 4 4 4 4 4 ",
"4 4 4 4 4 4 4 4 4 4 t 4 4 4 l E R E 8.r.8.D.2XrXrXsXrXuXsX9X9XuXeX,X`.:X_.>X2X2XeXeXeXyX:Xd.C.C.Z.h.h.t.8.8.8.0.g.C.J.3XdXZ 5 4 4 4 4 4 4 7 4 4 4 4 0 4 0 4 7 4 ",
"4 4 4 t 4 4 4 4 1 4 7 3 4 7 z E T Q 2.r.0.i.A.8XeXuXiXuXiXrXrXrXrX8X>XR._.2X2XiXrXrXrXuX-XM.C.Z.h.g.C.t.8.8.0.8.g.C.J.3XdXZ 3 4 4 4 4 4 4 4 4 4 4 4 4 4 4 4 4 4 ",
"4 4 4 4 4 4 4 4 4 4 4 4 4 1 d E W ` 3.8.r.0.y.E.4XiXsXrXrXrXrXeX9X2X_.P.2X9X>X7XrXrXiXiXeX,XL.M.h.g.C.t.8.8.0.r.g.C.H.3XdXN < 7 0 4 4 4 4 4 4 t 4 4 4 4 4 4 4 4 ",
"4 4 4 4 4 4 4 4 4 4 4 4 1 7 d E U E 3.w.t.u.t.C.Q.5XuXuXrXsXrX0X9X8X2XF.`.7X2X0XuXuX9XrXrXeX:XA.A.Z.A.u.8.8.8.w.g.C.H.3XdXN 1 4 4 4 4 4 4 4 4 4 4 4 4 4 4 4 4 4 ",
"4 4 4 4 4 4 4 0 4 4 7 3 4 4 l E W E 8.i.h.h.Z.U.A.T.2XrXsXrXuXiX9X6X`.P.`.7X+X9X9XuXeXsXxXsXeXiXU.A.~.i.w.0.8.8.g.C.H.4XdXN 5 7 4 4 4 4 4 4 4 4 4 4 4 4 t 4 4 4 ",
"4 4 4 4 4 4 4 4 0 4 7 4 1 7 l E R ^ 3.i.h.V.Z.A.U.A.5XpXiXiXiXuX0X0X7XF._.2X7X9XrXsXrX-XwXrXsXrX4XQ.D.u.0.0.r.w.d.C.Y.3XdXN 1 s 4 4 4 0 4 4 4 4 4 4 4 4 4 4 4 4 ",
"4 4 4 4 4 4 4 4 4 4 r 4 4 1 d E R E 3.i.h.C.Z.U.U.U.5XyXrXiXrXrXrXrX2XR.+X2X2X8XrXsX0XA.:XsX0XyXuX1XZ.i.6.8.8.8.d.H.h.3XdXV < s 4 4 4 4 4 4 4 4 4 4 4 t 4 4 4 4 ",
"7 4 4 4 4 4 t 4 4 4 7 4 4 7 z W T E 3.u.C.C.V.U.U.J.!.Q.yXxXiXiXuX0X2XR.>X7X2X9XyXiXrXQ.).>X'.4XwXV._ _ _ ( E _ r.Z.h.3XdXA 1 0 4 4 t 4 4 4 4 4 4 4 4 4 4 4 4 4 ",
"t 4 4 4 4 4 4 4 4 4 t 4 4 1 d E U Q 3.u.V.C.Z.U.Y.J.J.L.4XwX4XrXuXuX2XF.`.7X2X9XiXiX8Xz.x.j.j.7.j.) g g g V B N r.A.H.3XdXA , 4 4 4 4 4 4 4 7 4 4 4 4 4 4 4 4 0 ",
"4 4 4 4 4 4 4 4 4 4 i 4 4 3 z Y T ( 8.u.V.V.Z.U.H.Y.Y.J.E.L.E.5XyXiX2XF.+X2X2X9XxXsX].l 7 4 $   O o +   O e 8 8 6.Z.H.3XdXA , 4 4 4 4 4 4 4 4 4 4 4 4 4 4 4 4 4 ",
"4 4 4 0 4 4 4 4 4 3 t 3 1 7 z R U E 8.r.u.g.Z.Z.Z.U.J.T.J.J.J.-X:X9X2XP.>X2X+X9XrX7XF.= & & , 1 2 = = +   & > 8 ( 8.H.3XxXA , 4 4 4 4 4 4 4 t 4 4 4 4 4 4 4 4 4 ",
"4 4 4 4 4 4 4 4 1 4 7 4 4 1 z E R E 3.3.w.u.Z.h.J.E.J.U.J.U.J.Z.D.1X1XF.+X7X2X6XxX:Xl.O o O c D H q : %   X = e h ` Z.4XdXA 3 4 4 4 4 4 4 4 4 4 4 4 4 7 4 4 4 t ",
"4 4 4 4 4 4 4 4 0 4 4 4 4 4 l E R ( 8.w.3.g.Z.V.Z.J.J.Y.J.E.U.Z.J.4X2XF.`.7X+X9XiX:XN.O = x N x N < X   o , 8 8 N ` H.3XdXN , 0 4 4 4 4 4 4 4 4 4 4 4 0 4 4 4 4 ",
"4 4 4 4 4 4 4 4 4 0 1 1 7 4 d R T ^ %.3.3.s.Z.h.Z.T.T.J.Y.Y.J.Z.S.:X:X).>X>X>X9XiX_.b.= , F A D S 0 % X o 8 e 9 V ' h.<XdXZ 1 i 4 4 4 4 4 4 4 7 4 4 t 4 4 4 7 4 ",
"4 4 4 4 4 4 4 4 4 0 0 4 7 3 d Y R T W [ 6.M.C.Z.Z.J.J.A.U.Y.U.U.A.A.L.8X>XP.7X7XaX(.G.D F } } } } b * X X 8 e 8 V U 1.A.dXZ , t 4 4 4 4 4 4 4 4 4 4 4 4 4 4 4 4 ",
"4 4 4 4 4 4 4 4 7 4 4 4 7 4 z ~ R T U ^ [ r.u.V.H.J.U.U.U.A.J.U.U.g.Z.I.)._.).2X0X`.z.D v n F } O.H q % o e e 8 h %.Y.5XdXb 3 t 4 4 4 t 0 4 4 4 4 4 4 4 4 4 4 4 ",
"4 4 4 4 4 4 4 4 4 4 3 3 4 4 d V U ( W Y W <.r.h.C.C.Z.U.U.U.U.J.Z.h.Z.M.Q.9XR.(.+X`.b.F v e J | } H q $ o , q e V ! yXdX`.b > l 4 4 4 4 4 4 4 4 4 4 4 4 4 4 4 4 ",
"4 4 4 4 4 4 7 4 4 4 4 i 4 4 r s C Q W Y R 2.t.S.C.C.C.Z.Z.Z.C.Z.h.Z.C.A.Q.2X2X`.R.6X/.D n n D S H D D D c e 8 e z N fXl.4 l l 5 4 4 4 4 4 7 4 4 4 4 0 4 4 4 4 4 ",
"4 4 i 4 4 4 4 4 4 4 t 4 4 0 4 5 d g L W T =.2.d.d.d.d.d.u.d.d.f.g.d.u.u.-X8X7X_.F.+X_.o.@.7.7.o.o.&.o.o.o.o.O.S x D ^.o.6 4 t 7 4 4 4 4 4 4 4 4 4 4 4 4 4 4 4 4 ",
"4 4 4 4 4 4 4 4 4 4 4 4 4 0 i 4 4 0 B E T / ` 2.9.r.r.8.e.r.e.r.e.e.r.r.Q.9X7X`.(.F.(.+XsXrX0XfXyXpXpXaXiXyX1XA.| n e e l 4 4 4 4 4 4 4 4 4 4 4 4 4 4 4 4 t 4 4 ",
"4 4 4 4 4 4 4 4 4 4 4 7 4 4 4 4 7 0 Y ( T T R ' 4.0.0.8.8.1.[ _ [ ( ` [ 4.q.`.(.R.R.R.7X2X5X9X8XwX9XaX0X9X-XA.C.| n v 7 4 4 r 4 4 4 4 4 4 4 4 4 4 4 4 4 4 4 4 4 ",
"4 4 4 4 4 4 4 4 4 4 4 4 t 4 4 4 7 4 M Y Y / ( L ` 0.8.8.0.;.L T E W E Y L ) L.T.R.I.'.,X>X2X2X8X0XeXrXrX6XS.C.J.| v c 8 1 0 4 4 4 4 4 4 4 4 4 4 4 i 4 4 4 4 0 4 ",
"4 4 s 4 4 4 4 4 4 4 4 4 4 4 4 4 3 s a d Q R U / ^ E 9.0.t.;.L V.S.T.2.T h.J.T.E.P.eX9X(._.6X8X>X8X8XrX9XsX9XwXwX} e w 7 w 0 4 0 4 4 4 4 4 4 s 4 4 4 4 4 4 4 4 4 ",
"4 4 4 4 4 4 4 4 4 4 4 4 4 4 4 4 4 4 3 3 M Y E / T T ,.1.1.[ R 3.i.d.1.j 8.i.r.A.'.7X6X~.+X`.,X8X4XwXeX9X7XqXaXfX} 1 7 4 4 4 4 4 4 4 t 4 4 4 4 4 4 4 4 4 4 4 4 4 ",
"4 4 4 4 4 4 4 7 4 4 4 4 4 4 4 0 i 4 7 0 3 z Q R E T T T L R R U B L Q L U T k 1.I.!.!.~.G.^.>X9X].+X7X7X6XeXnXvXD < 0 w 4 4 4 4 4 4 4 4 4 4 4 4 4 4 4 4 4 4 4 4 ",
"4 4 4 4 4 4 4 4 4 4 4 4 4 4 4 4 4 4 7 7 4 3 d R Q U E ^ T P P 0.f.U $.n.c.m.c.n.XX|.oXXXXXXX`.!._._._.>X9XdXdXvXA > t l 3 4 4 4 4 4 4 4 4 4 4 4 4 4 4 4 4 4 4 4 ",
"4 4 4 4 4 4 4 4 4 4 4 4 4 4 4 4 4 4 4 3 0 < 4 M P ( T U ` ( R A.;X` k.$X#X#X@X X.X%XOXOXOXXXm.F.^.(.F.'.qXvXvXnXS , 4 7 7 4 4 4 4 4 4 7 4 4 4 4 4 4 4 4 4 4 4 4 ",
"4 4 t 4 4 4 4 4 4 4 4 4 4 4 4 4 4 4 4 4 4 4 s 4 f R L =.-X:XL.L.A.l.q.R ' ` [ -.~ z.oX{.{.{.{.{.{.m.n.[.8XcXbXbXS 5 4 4 4 4 4 4 4 4 4 4 4 4 4 4 4 4 4 4 4 4 4 4 ",
"4 4 4 4 4 4 4 4 4 4 4 4 4 4 4 4 4 4 t t t 4 4 4 z ~ R ( C.C.S.t.8.i.1.=.4.2.;.5.p.x.c.&.*.c.x.c.*.&.@.o.o.j.k.k.x 1 w 4 4 4 4 4 4 0 4 4 4 4 4 t 4 4 4 4 t 4 4 4 ",
"4 4 0 4 4 4 4 4 4 4 4 4 4 4 4 4 4 4 4 4 7 4 4 4 z ` ` ) W j ^ / ^ / ;.t.U.-XW.wXbX2.L T j j / P ~ g * - , > > > 3 4 4 4 4 4 4 4 4 4 4 4 4 4 4 4 4 4 4 4 4 4 4 4 ",
"4 4 4 4 4 t 4 4 4 4 4 7 t 4 4 4 4 4 4 4 4 4 4 t s s f B w.<.P 8.9.I ;.h.U.W.Q.!.>X-X:X:X:X:XW.-X].~.G.x 4 4 4 4 4 4 4 4 4 4 4 4 4 4 4 4 4 4 4 4 4 4 t 4 4 4 4 4 ",
"4 4 4 4 4 4 4 4 4 4 4 4 4 4 4 4 4 0 4 4 4 4 4 4 l i 2 a M.j.I l.s.~ X.d.J.L.Q.!.I.rXcXzXzXzXdXvXcXdXdXD , s 4 7 4 4 7 4 4 4 4 4 4 4 4 4 4 4 4 4 4 4 4 4 4 4 4 4 ",
"7 4 4 4 4 4 4 4 4 4 4 4 4 4 4 4 4 4 4 4 4 4 4 4 , i t a R j.gX%.~ S...a q.U.!.!.E.:X4XrX_.G.Q.1X3X2X8XA , s 3 4 4 4 4 4 4 4 4 4 4 4 t 4 4 0 4 4 4 4 4 4 4 4 7 4 ",
"4 4 4 4 4 4 0 4 4 4 4 t 0 4 4 4 4 4 4 4 4 4 4 4 4 4 y f [ 6.^.<. .t.! : 3.J.H.;X<X5.o.x.l.D.4XeX9XyX7XS , 4 4 4 7 4 4 4 4 4 4 4 4 4 4 4 4 4 4 4 7 4 4 4 s 4 4 4 ",
"4 4 4 4 4 4 4 4 4 4 4 4 4 4 4 4 t 4 4 4 4 4 4 4 s 4 5 f A.7.m s.V.~ g u 5.A.f.L.'.w . . } rXxXzXpXcXdXD , 0 4 4 4 4 4 4 4 4 4 4 4 4 4 4 4 4 4 4 4 4 4 4 4 4 4 4 ",
"t 4 4 4 4 4 4 4 4 4 4 4 4 4 4 4 4 4 4 4 4 4 4 4 3 0 3 r U C I E X.7...g F.rX<.) n & @ . Z P.D.:X5XeXaXN 5 4 0 7 4 4 4 4 4 4 4 4 4 4 4 4 0 4 4 4 4 4 4 4 4 4 4 4 ",
"4 4 4 4 4 4 4 4 4 4 4 4 4 4 4 4 4 4 4 4 4 4 4 4 8 3 3 4 : p z C ! A.l.I `.6X! a . @ @ @ Z q.f.H.1X1X~.x 4 3 3 4 4 4 t 4 4 4 4 4 4 4 7 4 4 4 t 4 4 4 4 4 4 4 4 4 ",
"4 4 4 4 4 4 4 t 4 4 4 4 4 4 4 4 4 4 4 4 4 4 t 4 t 4 , 0 3 ; u p I hX%X XI : y = @ . & l.e.t.M.J.wX6.a 4 4 4 4 4 4 4 4 4 4 4 4 4 4 4 4 4 4 4 4 4 4 4 4 4 4 4 4 7 ",
"4 0 4 4 4 4 4 4 4 4 4 4 4 4 t 4 4 4 4 4 4 0 4 4 4 w w < : s s  .k.hX*X$X&.| | F b c N V.g.u.M.V.wXq.; 4 4 0 4 4 4 4 4 4 4 4 4 4 4 4 4 4 4 4 4 4 4 4 4 4 4 4 4 4 ",
"4 4 4 4 4 4 4 4 4 4 4 4 4 4 4 4 4 4 4 4 4 4 4 4 4 < 4 4 s 3 c XXlXjX&X@X%X%X*X].F.M.t.V.g.a.3.M.wXi.a l 4 4 4 7 4 4 4 4 4 4 4 4 t 4 4 4 4 4 4 4 4 0 4 4 4 4 4 4 ",
"4 4 4 4 4 4 4 4 4 4 7 0 4 4 4 4 4 4 4 4 4 4 4 4 4 4 l r : J m.$XjXhXhX.XOXOXOX|.D.5X5Xu.u.u.0.s.wXp.3 l 4 t 4 5 4 4 4 t 4 4 4 4 4 4 4 4 4 4 4 4 4 4 4 t 4 4 4 4 ",
"4 4 4 4 7 4 4 4 4 4 4 4 4 4 4 4 4 t 4 4 4 4 4 4 w 7 5 4 4 | *X=XhXhX*X@X%X%X#X}.[.+XaXu.9.8.r.8.1X5.: 4 4 4 4 t 4 4 4 4 4 4 4 t 4 4 4 4 4 4 4 4 4 4 4 4 4 4 4 4 ",
"4 4 4 4 4 4 4 4 4 4 4 4 4 4 4 4 4 4 4 4 4 4 4 4 4 2 4 c - K *X=XkXjX&X XOX.X@X.Xn.$.Q _ [ / ` ) ^ h 6 w i 4 4 4 4 4 7 4 4 4 4 4 4 4 4 4 4 4 4 t 4 4 4 4 4 4 4 4 ",
"4 4 t 4 4 4 4 4 4 4 t 4 4 4 4 4 4 4 4 4 4 4 4 4 4 l 4 4 i n @. XkX*X%X%X X.X@Xv.o.J B C ..y.` ~ 3.Q s 4 7 l t 4 4 4 4 4 4 4 4 4 4 0 7 4 4 4 4 4 4 4 4 4 4 t 4 4 ",
"4 4 4 4 4 4 4 4 0 4 4 4 4 4 4 4 4 4 4 4 4 4 4 4 0 3 4 4 y = # n.jX@X#X%XOX.X}.#.- p h - o.vXo.! S.6.H 0 3 4 4 4 4 4 4 4 0 4 4 4 4 4 4 4 4 4 4 4 4 4 4 4 4 4 4 4 ",
"4 4 4 4 4 4 4 4 4 4 4 4 4 4 4 4 4 4 0 4 4 4 4 4 4 0 i 2 o.S & v G G K G v.}.$X[.^.P ; f o.cXS.6.X.<.p.x y t l 2 0 4 4 4 4 4 4 4 4 t 4 4 4 4 4 4 4 4 4 4 4 4 4 4 ",
"4 4 4 4 4 s 4 4 4 4 4 4 4 4 4 4 4 4 4 4 4 4 t 4 4 4 4 4 G.&.8 9 9 9 9 8 &.n.].uXnX} q a <.:XR.t.C Q l.m 2 i 3 l 4 4 4 4 4 4 4 4 4 4 4 4 4 4 4 0 4 4 4 4 4 4 4 4 ",
"4 7 4 4 4 4 4 4 4 4 4 4 4 t 4 4 4 4 4 4 4 4 4 4 0 7 i z gXqXx.D 9 9 z ~ ~ Y Y N.vX6.B : u u ] 5.a : % y 7 4 7 4 4 4 4 4 4 4 4 4 4 4 4 4 7 4 4 4 4 4 4 4 4 4 4 0 ",
"4 4 4 4 4 4 4 4 7 4 4 4 4 4 4 4 4 4 4 4 4 4 4 4 1 3 4 s [.,X(.:.| I  .;.3.u.w.T.xX0.R h g g :.2.y * % : w 4 0 1 4 4 4 4 4 4 4 4 4 4 4 4 4 4 4 4 4 4 t 4 4 4 4 4 ",
"4 4 t 4 4 4 4 4 4 4 4 4 4 4 4 4 4 4 4 4 4 4 0 4 4 l 4 0 7.F.'.2XI.M.y.f.Q.5X3XyXzX3.R [ ;...5.:.; : a 4 7 4 1 l 4 4 4 4 4 4 4 4 4 4 4 4 4 t 4 4 4 4 4 4 4 4 4 4 ",
"4 4 4 4 4 4 4 4 4 4 t 4 4 4 4 4 4 4 4 4 4 7 4 4 3 4 4 4 s N M Q 9.9.0.t.V.V.3X9XeXtXE.` ( ) ;. .;.B : 4 8 4 3 4 4 4 7 t 4 4 4 t 4 4 4 4 4 4 4 4 4 7 4 4 4 4 4 4 ",
"4 4 4 4 4 4 4 4 4 4 0 4 4 4 4 4 4 4 4 4 4 4 4 4 4 7 7 w 3 2 5 M _ e.y.p.0.y.-X_.:XxXeX` ) ) ) ;.q.Q u 5 7 3 0 4 4 4 4 4 4 4 4 4 4 4 4 4 4 4 4 4 4 4 4 0 4 4 4 4 ",
"4 4 4 4 4 4 4 7 4 4 4 4 4 4 4 4 4 4 4 t 4 4 4 4 t 4 1 7 7 t t C [ y.i.t.u.f.t.L.0X8X-X` L h ) ..;.Y * 4 8 l 3 4 4 4 4 4 4 4 4 4 4 t 4 4 4 4 4 4 4 4 4 4 4 4 t 4 ",
"4 4 4 4 4 4 t 4 4 4 4 4 4 4 4 4 4 4 4 4 4 4 4 4 4 4 4 4 4 3 4 z ` ;.4.4.2.1.4.2.h.d.r.( k a h C B f : 5 s 4 4 4 4 4 4 4 4 4 4 4 4 4 4 4 4 4 4 4 4 4 t 4 4 4 4 4 ",
"4 4 4 4 4 4 4 4 4 4 4 4 t 4 4 4 4 4 4 4 4 4 4 4 4 4 4 4 7 4 0 z k W W W W W W _ Y Y Q h f : : ; : - - < 4 4 4 l 4 4 4 4 4 4 4 4 4 4 4 4 4 4 4 4 4 4 4 4 4 4 4 4 ",
"4 4 4 0 4 4 4 4 4 4 4 4 4 4 4 4 4 4 4 4 4 4 4 4 4 0 4 4 4 4 3 0 0 l l 4 l l s l f s s 0 a 3 3 1 ; < 3 s 0 4 4 0 4 4 4 4 4 4 4 4 4 4 4 0 4 4 0 4 4 4 4 4 4 4 4 4 ",
"4 4 4 4 4 4 0 4 4 4 4 4 4 4 4 4 4 4 4 4 7 4 4 4 3 0 4 4 4 4 4 4 4 4 4 1 0 4 4 4 0 4 3 0 4 7 4 7 l 4 4 4 4 4 4 4 4 4 4 4 4 4 4 4 4 4 4 4 4 4 4 4 4 4 4 4 4 4 4 4 ",
"4 4 4 4 4 4 4 4 4 4 4 4 4 4 4 4 4 4 4 4 4 4 4 4 4 4 4 4 4 0 4 4 4 4 3 3 3 4 4 4 3 4 3 7 4 4 1 3 4 3 3 4 7 7 0 4 4 4 4 4 4 4 4 4 4 4 4 4 t 4 4 4 4 4 4 4 4 4 4 4 ",
"4 4 4 4 4 4 4 4 4 4 4 4 4 4 4 4 t 4 4 4 4 4 4 4 4 4 4 3 4 4 4 4 7 4 4 7 4 8 4 4 t i t i 5 4 4 w 4 7 i 4 4 4 4 4 4 4 4 4 4 4 4 4 4 4 4 4 4 4 4 4 4 4 4 0 4 4 4 4 ",
"4 4 4 4 4 7 4 4 4 t 4 4 7 4 4 4 4 4 4 4 4 4 4 4 4 7 4 4 4 4 4 4 4 4 4 0 4 4 4 4 3 4 4 i 4 s 4 4 4 4 4 4 4 4 4 7 4 4 4 4 7 4 4 4 4 4 4 7 4 4 4 4 4 4 7 4 4 4 4 4 ",
"4 4 4 t 4 4 4 4 4 4 4 4 0 4 4 4 4 4 4 4 4 4 4 4 4 4 4 4 w 4 3 4 0 4 4 4 4 4 7 3 7 4 4 4 4 4 4 0 w 4 4 t t 4 4 5 4 4 4 4 4 4 t 4 4 4 4 4 4 4 4 4 4 4 4 4 4 t 4 4 "
};
