/* XPM */
static char *ea23c7078c08433edc9ab817dc96f018fmqBvTaERVnwtcE3[] = {
/* columns rows colors chars-per-pixel */
"80 80 209 2 ",
"   c #1B1715",
".  c #1C1B16",
"X  c #1D1C19",
"o  c #201E17",
"O  c #201E1A",
"+  c #1F201B",
"@  c #24221D",
"#  c #29261E",
"$  c #2A281F",
"%  c #1F2121",
"&  c #272621",
"*  c #2A2722",
"=  c #2B2B24",
"-  c #262B29",
";  c #2D2D29",
":  c #332E25",
">  c #3C2825",
",  c #312E2A",
"<  c #2B3027",
"1  c #2E312C",
"2  c #33322C",
"3  c #38312A",
"4  c #2F3431",
"5  c #333633",
"6  c #343935",
"7  c #3A3936",
"8  c #343B3C",
"9  c #3A3E3C",
"0  c #41352D",
"q  c #443735",
"w  c #443A34",
"e  c #4B3B35",
"r  c #433E3C",
"t  c #4E3D3A",
"y  c #513F3B",
"u  c #3C413C",
"i  c #42423B",
"p  c #4E403E",
"a  c #53433E",
"s  c #584C3D",
"d  c #383D43",
"f  c #354143",
"g  c #3B4343",
"h  c #3D4946",
"j  c #3C464A",
"k  c #3E4A4B",
"l  c #3E4B50",
"z  c #424545",
"x  c #4F4140",
"c  c #494847",
"v  c #424B4C",
"b  c #534543",
"n  c #574A47",
"m  c #5B4C4B",
"M  c #47524B",
"N  c #59544C",
"B  c #454F51",
"V  c #455556",
"C  c #4A5454",
"Z  c #46555A",
"A  c #4C5659",
"S  c #49595A",
"D  c #4C5A5D",
"F  c #515555",
"G  c #5A5758",
"H  c #535E5D",
"J  c #665C4E",
"K  c #635555",
"L  c #58615F",
"P  c #6F6051",
"I  c #7A6D5F",
"U  c #4D5D61",
"Y  c #555E60",
"T  c #4E6265",
"R  c #4F6468",
"E  c #536365",
"W  c #5A6363",
"Q  c #5E6966",
"!  c #52666A",
"~  c #59666A",
"^  c #54696D",
"/  c #5A6B6E",
"(  c #566D71",
")  c #5A6E73",
"_  c #5B7175",
"`  c #5E7479",
"'  c #5E787B",
"]  c #696C67",
"[  c #606B69",
"{  c #706E6A",
"}  c #626D71",
"|  c #627275",
" . c #687374",
".. c #62767A",
"X. c #6A7779",
"o. c #647A7D",
"O. c #6A7A7D",
"+. c #727C7D",
"@. c #877B6E",
"#. c #857D76",
"$. c #78837D",
"%. c #90816F",
"&. c #8A8277",
"*. c #8A8279",
"=. c #988676",
"-. c #A5937D",
";. c #667C81",
":. c #6A7E82",
">. c #737E81",
",. c #6B8185",
"<. c #6B8588",
"1. c #6E8489",
"2. c #768184",
"3. c #7C8483",
"4. c #72868B",
"5. c #7A868A",
"6. c #73898D",
"7. c #7C8C8B",
"8. c #768D92",
"9. c #798E93",
"0. c #769094",
"q. c #7A9296",
"w. c #769198",
"e. c #7D9599",
"r. c #7F999D",
"t. c #888B86",
"y. c #828D8C",
"u. c #979086",
"i. c #848E92",
"p. c #869596",
"a. c #8B9395",
"s. c #82969C",
"d. c #829A9E",
"f. c #8B9B9E",
"g. c #969A99",
"h. c #A99583",
"j. c #B59D89",
"k. c #BBA58E",
"l. c #A9A59B",
"z. c #BBAA99",
"x. c #859EA2",
"c. c #8B9EA3",
"v. c #87A1A5",
"b. c #89A3A6",
"n. c #8BA5A9",
"m. c #8EA9AC",
"M. c #98A5A6",
"N. c #90A7AB",
"B. c #92AAAE",
"V. c #9BAAAC",
"C. c #94ADB2",
"Z. c #99AEB3",
"A. c #95B0B3",
"S. c #9BB1B5",
"D. c #9EB5BA",
"F. c #A2ACAE",
"G. c #ACACA8",
"H. c #BAAFA5",
"J. c #A3B1AE",
"K. c #AAB0AF",
"L. c #B9B0A8",
"P. c #BBB3AB",
"I. c #A4B2B3",
"U. c #A9B5B5",
"Y. c #A1B6BB",
"T. c #ADB5BA",
"R. c #A4BABD",
"E. c #ABBBBC",
"W. c #B7BCB8",
"Q. c #C5AB95",
"!. c #CDB39F",
"~. c #CBBAA7",
"^. c #D5BBA9",
"/. c #D6BFAB",
"(. c #C5BEB7",
"). c #D6C1AC",
"_. c #DAC2AD",
"`. c #CDC2B7",
"'. c #DBC5B1",
"]. c #DBC9B7",
"[. c #E1CDBA",
"{. c #E0D0BD",
"}. c #A3B7C1",
"|. c #A6BCC0",
" X c #A9BDC2",
".X c #ACC1C6",
"XX c #AEC5C9",
"oX c #B2C2C6",
"OX c #BDC4C7",
"+X c #B3C6CB",
"@X c #B5CACE",
"#X c #BBC9CD",
"$X c #B7CCD0",
"%X c #BACDD2",
"&X c #BDD1D5",
"*X c #BFD5D9",
"=X c #DBD0C2",
"-X c #C4CFD2",
";X c #C1D3D7",
":X c #C4D6DB",
">X c #C8D7DC",
",X c #C6D8DC",
"<X c #C9DADD",
"1X c #E5D3C2",
"2X c #E4D6C8",
"3X c #E7D9CC",
"4X c #E9DBCD",
"5X c #E9DCD1",
"6X c #CADBE0",
/* pixels */
"= = = = = = = = = = = = = = = = = = = = = = = = = = = = = = = = = = * * : * * : = = = = = $ = $ & = = = = = = = = = = = = = = = = = = = = = = = = = = = = = = = ",
"= = = = = = = = = ; = = < = = = = = = = = = = = = = = = = = = = $ = = = = * * * = = = = = * = = = = = = = = = = = = = = = = = = = = = = = = = = = = = = = = = = ",
"= = = = = = = = = = = = = = = = = = = = < = = = = = = = $ = = = F $. .[ Q Q Q [ [ [ W H H H H L Q L M = = = = = = = = = = = = = = = = = = = < = = = = = = = = = ",
"= = = = = = = = = = = = = = = = = = = = = = = = = = = 2 5 5 5 5 y.:XR.B.m.m.m.C.A.A.d.0.8.6.0.s.v.q.| 5 2 < 2 1 = = = = = = = = = = = = = = = = = = = = = = = = ",
"= = = = = = = = = = = = = = = = < = = = = = = = = & = ] U.U.K.J.Y.D.B.n.v.n.m..X@XC.x.8.8.8.8.8.w.6.6...X...o.E = = = = = = = = = = = = = = = = = = = = = = = = ",
"= = = = = = = < = = = = = = = = = = = = = = = < = = = $.<X<X<X<X+XD.m.n.v.n.B.$X%XA.x.9.9.8.8.8.6.0.8.0.0.0.w.| ; = = = = = = = = = = < = = = = = < = = = = = < ",
"= = = = = = = = = = = = = = = = = = = = $ = = $ = = & $.<X<X>X>X:X&XC.n.c.B.C.%X%XA.x.8.8.8.8.8.0.6.0.6.0.0.0.| 2 = = = = = = = = = = = = = = = = = = = = = = = ",
"= = = = = = = = = = = = = = < = = = = = = = $ 2 { 7.7.J.<X<X<X<X<X,XC.n.n.C.A.%X%XB.x.r.q.8.8.8.0.0.8.0.0.0.0.$.E D D 1 = = = = = = = = = = = = = = = = = = = = ",
"= = = = = = = = = = = = = = = = = = = = = = $ 5 K.6X,X,X,X,X6X,X>X:XA.n.n.m.S.$X$Xm.v.v.q.8.8.8.0.w.0.0.8.8.8.8.8.8.6.u $ = * = = = = = = = = = = = = = = = = = ",
"= = = = = = = = = = = = = = = = = = = = = = = 2 J.,X,X:X,X,X6X,X<X;XZ.v.v.B.S.$X$Xm.n.v.q.8.8.8.8.r.d.w.8.8.8.8.8.8.1.9 $ = = = = * = = = = = = = = = = < = = = ",
"= = = = = ; = = = = = = = = = = = = = = = = u L E.<X,X*X%X,X,X,X:X:XA.m.v.B.A.%X@Xm.v.v.w.8.8.8.0.v.x.8.8.8.8.8.8.8.6.V 2 = * = = = = = = = = = = = = = = = = = ",
"= = = = = = = = < = = = < = = = = = & & & = $.-X,X,X,X.XS.&X6X6X>X:XA.v.b.B.A.%X@Xm.n.v.q.8.9.8.9.x.x.8.8.8.8.8.8.8.6./ C ; * = = * = ; = = = = = = = = = = = = ",
"= = = = = = = = = = = = = = = = = = = $ i 3.I.<X<X,X,X.XC.|.@X,X6X:X+X}.n.m.A.%X@Xm.b.b.q.8.8.8.8.d.v.r.q.8.w.8.8.8.8.:./ v 5 = * * = = = = = = = = = < = = = = ",
"< = = = = = = = = = = = = = = = = = = 2 L ;X<X<X,X,X,XoXA.B.D.:X6X:X:X$Xn.m.A.%X@Xn.b.v.q.8.8.8.w.x.b.b.d.w.8.8.8.8.8.8.4.^ M 1 : = = = = = = = = = = = = = = = ",
"= = = = : = = = = = = = = = = = = = 2 a.oX>X,X<X,X,X,X;X&XS.Y.:X,X:X,X$Xm.m.A.%X@Xn.v.b.q.8.8.8.8.v.n.n.v.r.q.8.8.8.8.8.8.1._ V 2 = = = = = = = = = = = = = = < ",
"= = = = = = = = = < = = = = = = = = 5 J.<X,X,X,X,X,X,X,X:X.X|.@X*X:X,X%XD.A.A.@X@Xm.v.v.q.0.0.8.0.v.n.n.n.v.q.8.8.9.8.8.8.8.o.T 5 ; = = < = = = = = = = = = = = ",
"= = = = = = = = = = = = = = & = = = 2 J.<X,X,X,X<X:X:X:X:X:X%XA.XX,X:X:X:X.XC.%X$Xn.v.n.w.8.8.8.8.v.n.b.n.v.w.0.8.0.8.8.8.8.;.U 6 = = = = = = ; = = = = = = = = ",
"= = = = = = = = = = = = = = = = = $ 2 f..XR.+X:X:X>X,X:X<X:X;X+X%X,X,X,X:X.XC.%X$Xn.v.v.w.8.8.8.0.x.n.n.n.v.w.0.8.8.8.9.9.8.o.T 6 * = * * = = = = = = = = = = = ",
"= = = < = = = = = = = = = = = = = , 9 9.B.b.|.:X:X:X,X,X,X:X:X,X,X,X:X:X:X.XZ.%X$Xm.x.n.w.8.8.8.8.v.n.n.b.v.w.8.8.0.9.8.9.8.o.! 6 1 = = = * , = = = = = = = = = ",
"= = = = = = = = = = = = = = = = = H p.B.A.b.|.:X,X,X,X,X,X,X,X:X:X:X,X:X,X.XC.%X@Xm.n.n.w.8.8.8.8.v.n.b.n.n.w.8.8.8.8.8.8.8.6.,.E M = = * * ; * = = = = = = = = ",
"= = = = = = = < = = = = = = = = < Q A.C.m.n.D.+X:X:X:X:X,X<X,X,X,X,X,X:X,X$X|.%X@Xn.c.n.r.r.8.8.0.v.n.v.n.v.r.e.8.8.8.8.8.8.8.8._ S = = * = = = = = = = = = = = ",
"= = = = = = = = = = = = = = = = $ Q A.A.B.n.b.m.$X:X,X,X,X,X,X,X,X,X,X,X:X:X:X:X@Xn.n.n.n.r.w.8.8.x.n.n.v.n.n.r.8.8.8.8.8.8.8.8.) Z ; = = = = = = = = = = = = = ",
"= = = = = = = = = = = = = = & = $ Q A.A.C.b.b.m.Y.+X,X,X:X,X,X,X,X<X,X,X:X:X:X:X@XN.c.v.b.x.w.w.8.b.m.m.B.m.B.n.8.8.8.8.8.0.8.6.) V ; = * = = = = = = = = = = = ",
"< = = = = = = = = = = = = = = * = Q A.A.m.b.m.b.B.Y.:X:X:X,X,X,X,X,X,X,X:X6X:X:X$Xm.b.n.n.r.8.6.0.n.A.C.B.C.C.m.w.8.8.8.8.8.8.8.( V ; = * = = = = = = = = = = = ",
"= = = = = = = = = = = = = = = = = [ A.C.m.n.m.C.C.D.*X6X:X:X:X:X,X,X6X:X,X6X,X,X@XN.n.n.n.r.w.6.8.m.A.C.C.C.C.n.9.8.8.8.8.8.8.8.) Z = = = = = = = = = = = = = < ",
"= = = = = = = < = = = = = = = * $ [ A.C.C.m.m.C.C.D.XX&X:X,X:X,X,X,X,X,X,X,X,X:X@XN.n.b.m.x.r.r.e.n.B.B.B.B.n.x.q.8.8.8.8.9.8.8._ V ; = * = = = = = = = = = = = ",
"= = = = = = = = : = = = = = = = = Q A.B.C.C.B.C.C.C.A..X&X:X:X,X,X<X,X,X,X,X,X,X@XN.n.n.n.n.n.r.b.n.v.n.n.v.e.8.8.8.8.8.8.8.6.6.) Z = # * ; = = = = = = = = = = ",
"= = = = = = = = = = = = = = = * = Q A.A.A.C.C.C.C.C.m.A.R.%X:X:X,X,X6X,X,X,X,X,X@XN.n.n.n.n.n.n.b.b.n.n.v.v.w.8.8.8.8.8.4.' ` _ ^ S < = = * = = < = = = = = = = ",
"= = = = = = = = = = = = = = = = $ [ A.C.C.A.A.A.m.m.b.b.n.XX&X,X,X,X,X<X,X<X,X,X@XN.n.n.b.n.m.C.m.n.n.b.b.b.w.8.8.8.8.0.1.^ T R ! V = = = = = = = = = = = = = = ",
"= = = = = = = = = = = = = = = = * [ A.A.C.C.B.B.r.e.b.n.n.m.D.*X,X,X,X,X,X,X,X,X@Xn.c.n.n.A.@X&X$XA.b.n.c.x.w.w.8.8.8.8.1.^ R R ! S ; = ; = = = = = = = = = = = ",
"; = = = < = = = = = = = = = = = * [ C.A.C.C.B.B.r.w.b.n.n.n.m.XX@X,X,X:X,X,X,X;X@XN.b.v.b.S.*X,X*X.XA.n.x.x.w.8.8.8.8.:.;.R R R ! V = = = = = = = = = = = = = = ",
"= = = = = = = = = = = = = < = = = Q B.B.C.C.C.B.w.e.b.n.b.b.n.b.E.,X:X:X;X,X,X,X@XN.m.v.m.A.*X*X6X*X@Xm.x.8.8.8.8.8.8.( R R R R E C ; * = = = = = = = = = = = = ",
"= = < = = ; = = = = = = = = = = = u Y x.C.C.C.B.w.w.b.b.n.}.XX X@X:XE..X&X,X:X,X@XB.n.n. X@X:X:X,X,X$Xm.s.8.8.8.9.:._ ^ R R R R v 8 = * * = = = = = = = = = = = ",
"= = = = = = = = = = < = = = = = = * , >.c.C.C.B.r.r.b.n.n.$X6X6X<X;XI.S.%X&X&X;X$XN.v.n.+X;X%X*X,X:X@Xn.e.8.8.8.6.` R R R R U S 3 = = * * ; = = ; = = = = = = = ",
"= = = = = = = = = = = = = = = = = = = 2 A C.C.C.C.b.b.n.n.$X6X:X:X:X;X+XB.B.B.$X@Xm.v.v.n.C.B. X,X,X+Xe.8.8.8.1.( ! R R R R k 1 = = = = = = = = = = = = = = = = ",
"= = = = = = = = = = = = = = = = = = = * 9 X.s.Z.C.C.n.b.m.}.@X:X:X:X,X@Xn.v.m.%X$Xm.n.n.n.v.x.D..X XS.0.8.9.w.1.! ! R ! T V 6 = = = = = = = = = = = = = = = = = ",
"= = = = = = = = = = = = = = = = = = = = = ; [ C.C.C.b.b.n.n.C.*X:X;X:X$XN.n.N.$X$Xm.v.n.n.v.n.v.v.q.8.8.8.8.8.1.! ! R E C 1 = = = = = = = = = = = = = = = = = = ",
"= = = = = = = = = = = = = = = = = = = * = * 9 H r.C.m.m.n.v.m.D.D.D.D.Z.v.n.m.@X@Xm.v.m.n.n.n.x.e.9.8.8.8.8.8.,.! ! U h 5 = = = = = = = = = = = = = = = = = : = ",
"= = = = = = = < = = = = = = = = = = = = = = * ; 8.C.C.m.n.v.v.n.v.v.v.v.m.v.n.$X%XZ.m.n.v.n.x.e.8.8.8.8.8.8.6.,.( T U 8 = = = = = = = = = = = = = = = = = = = = ",
"= = = = = = = = = = = = = = = = = = = = = = = 1 9.C.C.C.B.n.n.n.v.n.n.n.v.v.N.$X:X&X|.v.n.v.w.8.8.8.9.8.8.6._ ^ R R U 5 * = = = = = = = = = = = = = = = = = = = ",
"< = = = = = = = = = = = = = = = = = = = = = = < X.x.B.Z.C.N.n.n.n.n.n.n.n.v.m.@X:X,XR.d.x.e.8.8.0.8.6.,.;.o.^ R T R Y 8 * = = = = = = = = = = = = = = = = = = = ",
"= = = = = = = = = = = = = = = = = = = = = = ; 4 U :.N.C.C.B.B.n.v.v.v.v.n.n.m.@X;X:XD.8.8.8.8.8.6.6.,.^ R ! R R R ( ) 8 ; * ; * = = = = = = = = < = = = = = = = ",
"= = = = = = = : = = = = = = = = = = & = = = 9 D N.V.:.e.B.4.;.;.` ;.;.,.x.x.e.n.N.n.x.8.8.8.w.:._ _ _ ! R R R R ! e.I./ z ; * = = = = = = = = = = = = = = = = = ",
"= = = = = = = = = = = = = = < = = = = = = 5 A 4.+X.X;.8.x.` U ! T R R ( r.8.1.1.4.1.4.1.4.1.1.` R ! R R R R R / ' B.:Xe.( 6 ; * = $ = = = = = = = = = = = = < = ",
"= = = = = = = = = = = = = = = = = = = = 5 D x.;X XY.Z.8._ ! U ! R R R ! ^ ! ^ ^ ^ ^ ( ! ^ ^ ! ^ R R ! R ! R ^ ' B.R.+X%XY./ z = = = = = = = = = = = = = = = = = ",
"= = = = = = = = = = = = = = = = = = = 9 S s.Y.@X|.D.S.x.,.) ! ^ ^ R ! R R R R R ! U R R R R R R ! ^ ! ^ ^ ^ O.0.B.Y. X%X+Xc.} u : = = = = = = = = = = = = = = = ",
"= = = = = = < = = = = = = = = = = = < S 6.;X+XY.D.C.n.c.x.;.) ( ( ( ( ~ ! ! R ! ! R R R ! R R ^ ^ ( ( ( / _ e.b.v.B.D.E.+X:Xb.E 5 = = = = = = ; = = = = = = = = ",
"= = = = = = = = = = = = = = = = = = < A 4.+X XD.C.B.c.n.n.Y.E.E.}. X}.N.( ! ! ^ ^ ^ ^ ! ^ ^ ! 9.E.R.I.v.e.<.O.O.o.,.,.1.6.8.O.^ 6 = = < = = = = = = = = = = = = ",
"= = = = = = = = = < = = = = = = = = < C | C.C.B.x.x.e.x.N.%X<X:X,X:X6X X:.:.:.:.1.:.:.o.o.o.:.C.,X:X%XR.c.6.>.;.:.) T R R R T E 6 = = = = = = = = = = = = = = = ",
"= < = = = = = = = = = = = = = = = = = = d ) _ ` ) _ ` :.s.@X:XE.}.D.D.D.S. X:X&X;X;X XZ.V.Y.*X+XR.Y.Y.D.e.| Y.#X-X5.d k k f j B 1 = = = = = = = = = = = = = = = ",
"= = = = = = = = = = = = = = = = = = = 7 F p.:.~ ;...U ~ 4.@X:XY.D.D.D.D.}. X%X$X@X$X.XY..X@X,X@XD.D.D.D.w.) i.a.i.+.~ U H +.E g 1 = = = = = = = = = = = = < = = ",
"= = = = = = = = = = = = = = < = = $ < C >.OXg.~ 9.4.d Z _ .X;XY.D.D.D.D.}.}.D.Y.D.Y.S.Y.;X6X,X@XD.D.D.D.w.^ Z l 8 } c.} +.OX2.d ; = = = = = = = = = = = = = = = ",
"= = = = = = = = = = = = = = = = = = ; X.i.>.5.7.~ Z j U _ .X:XY.D.D.D.D.D.Y.D.D.S.Y.Y.Y.;X;X.X}.}.D.Y.Y.e.! l g j 5.oXf.>.[ A z 2 * = * = = = = = = = = = = = = ",
"= = = = = = = = = = = = = = = = = = < >.9.) 4.q.V d k U _ S..XB.m.m.D.D.D.Y.D.S.Z.S.A.S.*X;XY.Z.C.n.N.N.6.! j 8 k >.T.c.:.g d v 2 = = = = = = = = = = = = ; = = ",
"= = ; = = < = = = = = = = = = = = * = A } d.:.E V v d Z ( _ ..) _ ` m.D.Y.Y.Y.B.N.n.x.d.$X;XY.e.) ) ) ) _ ! 8 4 8 v D W Y B j 8 : # ; * = = * = = = = = = = = = ",
"= = = = = = = = = = = = = = = = * n #.u.l.W.l.t.[ A ~ ( ( q.s.:.` ) 8.e.e.q.q.6.6.6.1.1.c.b.e.:.( e.x.4.o.~ 6 - g j v >.2.v j j { ] : ; = = = = = = = = = = = = ",
"= = = = = = = = = = = = = = = = $ *.5X3X3X5X{.^.@.{ x.6... X+Xx.:.( ( ( ( ( ( ( ( ( ( ( ( ( ( ( |  X$XN.6./ 8 4 v j j K.K.v v G `.L.2 * ; = = = = = = = = = = = ",
"= = = = = = = = = = = = = = = : $ *.5X3X3X3X=X).z.g.;.x.E.Z.x.e.:.( 8.e.r.e.e.w.e.e.w.6.8.1.4.;._ x.n.s.B.Y.| V d g M G.`.L.L.(.2XH.2 = * = = = = = = = = = = = ",
"= = = = = = = = = = = = = = = = $ &.5X3X2X1X]./.'.H.} x.@Xi.:.6.;._ r.n.n.n.n.n.n.n.x.e.w.e.q.:.( :.8.e.S.@X1.^ G G ] z.'.1X2X4X4XH.3 = = = = = = = = = = = = = ",
"= = = = = = = = = = < = = = = $ $ &.5X3X1X'.'._./.z.) 6.c.z 7 ^ ( _ e.c.b.n.x.n.v.c.s.e.q.q.q.:.( ) ..9.e.s._ $.~.~.~.)._.'.[.4X5XH.3 * = = = = = = = = < = = = ",
"= = = = = = = = = = = = = = = = $ &.4X1X[.).).).^.j.) / Y q 7 ~ ( ~ :.e.}. X X X X XR.Y.Y.Y.Y.q.( U U ;.,.;._ [ @.-.!._._.).].[.4XL.3 ; = = = = = = = = = = = = ",
"= = = = = = = = = = = = = = = = $ #.=X'.^.).).^.k.u.} v * > r ~ ~ ~ / 6.&X*X*X6X:X:X;X:X:X:X>Xc.R j l R / ( ! A = P j.~._./.)._.=Xl.2 * ; = = = = = = = = = = = ",
"= = = < ; = = = = = = = = = = = = i J h.Q.Q.Q.Q.J N i.L > > q Y ;.s.S.F.6.4.4.4.4.4.4.4.4.4.4.~ j l l j _ q.k = @ 3 s -.Q.Q.Q.k.I c : : = = = = = = = < = = = = ",
"= = = = = = = = = = = = = = = = = & : I =.=.=.@.0 i F.$.b q q G  .i.F.g.~ E Y U H H E H H H Y B d z c d ~ 2.4 . X @ : I =.=.=.%.w @ * * = = = = = = = = < = = = ",
"= = = = = < = = = = = < = = = = = = = 3 : 3 : @ . c ;XW.a.N q m n b b b a p x b t t x t t t t e t t b m b q O O X @ = : 3 3 : 3 = = = $ = = = = = < = = = = = = ",
"= = = = = = = = = = = = = = = = = = = = = @ . . . z U.E.J.t.{ a a n a a b a e e e e e e t y b a t y e y 3 * O o X @ & & = & = * = = = = = = = = = = = = = = = = ",
"= = = = = = = = = = : = = = = = = = = = = . . .   8 y.M.U.I.t.r b K K K K n x b t 0 w b n n K m x b x q * O o o X X . = = = = = $ = = = = = = = = = = = = = = = ",
"= = = = = = = = = = = = = = = = = = = = & + X X X & 7 9 g 9 z Y 2.F.E.I.3.2.O.Q B * 9 ~ a.M.V.p.>.>. .E d   o O X X X X @ = ; * = = = ; = = = = = = = = = = = = ",
"= = = = = = = = = = = = = = = = = = & & @ X X + X X . X     ; ^ q.R.*X$Xs.0.w.' Z % f ` A.+XXXA.e.e.6._ d X X X X X + X + $ & = = = = = = = = = = = = = = = = = ",
"= = = = = = = = = = = = = < = = = = = @ X . X X X . . X O   1 ~ ,.r.$X$Xs.e.0.` D % f _ Z.XXXXB.q.q.6.( d X o X X X X X . + @ = = = = = = = = = = = = = = = = = ",
": = = = = < = = = = = = = = = = = = = + . . . . . . . . . . - U _ $.d.s.,.$.:.( B % d T 6.e.q.6.O.,.' ! d   X X . . . . . . + = = = = = = = = = = = = < = = = = ",
"= = = = = = = = = = = = = = = = = = & @ . X X X X X . . + + - l U ! ! R R R ! Z j % 8 Z E ~ ! E E R T Z 4 X o X X X X . X X @ = & = = < = = = = = = = = = = = = ",
"= = = = = = = = = = = = = = = = = = = & & & & = & = & & & & & 4 6 6 5 5 5 5 5 4 1 = ; 1 6 6 6 6 6 5 5 1 < ; $ # & & & & & & = = = = = = = = = = = < = = = = = = ",
"= = = = = = = = = = = = = ; = = = = = = = = = = = = = = = = = = & = = $ = = $ = = = = = * $ = = $ = = = = = = * = = = = = = = = = = = = = = = = = = = = = = = = ",
"= = = = = = = = = = = < = = = = = = = = = = = = = = = = = = = = = = = = = = = = = = = = = = = - = = = = = = = = = = = = = < = = = = = = = = = = = = = = = < = = ",
"= = = = = = = = = = = = = = = = = = = = = = = = = = = = = = = = = = = = = = = = = = = = = = = = = = = = = = = = = = = = = = = = = = = = = = = = = = = = = = = = ",
"= = = = = = = < = = = = = = = = = = = = = = = = = = = = = = = = = = = = = = = = = = = = = = = = = = = = = = = = = = = = = = = = = = = = = = = = = = = = = = = = ",
"= = = = = = = = = = = = < = = = = = = = = = = = = = = = = = = = = = ; = = = = = = = = = = = = = = = = = = = = = = = = = = = = = = = = = = = = = = = < = = = = = ",
"= = = = = = = = = = = = = = = = = = = = = = = = ; = = = = = = = = = = = = = = = = = = = = = = = = = = = = = = = = = = = = = = = = = = = = = = = = = = = = = = = ",
"< = = = = = = = = = = = = = = = = = = = = = = = = = = = = = = = = = = = = = = = = = = = = = = = = = = = = = = = = = = = = = = = = = = = = = < = = = = = = = = = "
};
