/* XPM */
static char *_2aa9e0f015f4449c71901eb8aa5797cBA7f8fanUkuOJBD1[] = {
/* columns rows colors chars-per-pixel */
"80 80 221 2 ",
"   c #241813",
".  c #371718",
"X  c #1E3136",
"o  c #1F312F",
"O  c #292D2B",
"+  c #342C2D",
"@  c #32322F",
"#  c #2B3537",
"$  c #343534",
"%  c #393635",
"&  c #363A36",
"*  c #3B3A36",
"=  c #3B363A",
"-  c #353B3B",
";  c #3D3D3D",
":  c #373739",
">  c #2D2D31",
",  c #49342D",
"<  c #413D3D",
"1  c #493936",
"2  c #533D3B",
"3  c #553C36",
"4  c #472E32",
"5  c #3D413D",
"6  c #42413F",
"7  c #4C423A",
"8  c #54423D",
"9  c #55473F",
"0  c #3D3E41",
"q  c #363D42",
"w  c #2B3841",
"e  c #423E41",
"r  c #4B3F41",
"t  c #354244",
"y  c #3D4344",
"u  c #354549",
"i  c #3C4649",
"p  c #3D4B4B",
"a  c #3E4945",
"s  c #3D4D52",
"d  c #354E52",
"f  c #395759",
"g  c #2E4346",
"h  c #414142",
"j  c #44464B",
"k  c #434A4C",
"l  c #484747",
"z  c #554240",
"x  c #5C4946",
"c  c #44534F",
"v  c #434E53",
"b  c #445355",
"n  c #495355",
"m  c #43545A",
"M  c #4B555A",
"N  c #435B5E",
"B  c #4C5B5D",
"V  c #465D57",
"C  c #555A5A",
"Z  c #59504F",
"A  c #664D4A",
"S  c #67514B",
"D  c #695A54",
"F  c #54615B",
"G  c #46605F",
"H  c #6C655B",
"J  c #425E62",
"K  c #4A5E62",
"L  c #565E62",
"P  c #456266",
"I  c #4B6364",
"U  c #466469",
"Y  c #4A666A",
"T  c #46696A",
"R  c #4C696D",
"E  c #536364",
"W  c #5A6266",
"Q  c #52646A",
"!  c #526B6D",
"~  c #5A6B6D",
"^  c #5C6569",
"/  c #4E6C71",
"(  c #526D73",
")  c #5A6E72",
"_  c #4F7672",
"`  c #537275",
"'  c #5C7375",
"]  c #55747A",
"[  c #59767A",
"{  c #5C7A7D",
"}  c #55797B",
"|  c #50706E",
" . c #646668",
".. c #637375",
"X. c #667779",
"o. c #767573",
"O. c #736D69",
"+. c #987D6A",
"@. c #937D71",
"#. c #827A70",
"$. c #5E807F",
"%. c #998375",
"&. c #AA9077",
"*. c #5D7C81",
"=. c #627E82",
"-. c #6C7E84",
";. c #787D83",
":. c #5F8282",
">. c #648286",
",. c #6B8385",
"<. c #658389",
"1. c #69868B",
"2. c #6B8A8E",
"3. c #648F8D",
"4. c #738A8C",
"5. c #778789",
"6. c #6D8D93",
"7. c #678E93",
"8. c #718F94",
"9. c #7D8A92",
"0. c #6E9195",
"q. c #6B9498",
"w. c #729196",
"e. c #749499",
"r. c #7A969B",
"t. c #75999C",
"y. c #7A9A9D",
"u. c #7D9395",
"i. c #6E908F",
"p. c #7D9DA2",
"a. c #759BA4",
"s. c #7EA2A5",
"d. c #7EA5A8",
"f. c #888D8B",
"g. c #89969A",
"h. c #839C9D",
"j. c #859698",
"k. c #979A9E",
"l. c #938D8F",
"z. c #A3978A",
"x. c #82A59F",
"c. c #AAA49B",
"v. c #B7A496",
"b. c #829EA3",
"n. c #889BA4",
"m. c #81A2A6",
"M. c #83A5A9",
"N. c #8AA6AB",
"B. c #85A9AC",
"V. c #8BAAAE",
"C. c #8AA4A5",
"Z. c #94AAAD",
"A. c #9BABAB",
"S. c #95A3A3",
"D. c #86ADB1",
"F. c #8CADB2",
"G. c #8FA5B2",
"H. c #92AEB3",
"J. c #9BAEB4",
"K. c #8CB1B4",
"L. c #8AB1B5",
"P. c #93B2B6",
"I. c #95B5B9",
"U. c #9AB6BA",
"Y. c #9BBABD",
"T. c #96B6B8",
"R. c #B5ACA4",
"E. c #A3B9BE",
"W. c #A9B8B9",
"Q. c #AFB2AD",
"!. c #C1A48E",
"~. c #C7AC99",
"^. c #D3B49D",
"/. c #C6B6AA",
"(. c #DABDA4",
"). c #D7BBA6",
"_. c #E2BFAB",
"`. c #B9C2BF",
"'. c #DAC2A9",
"]. c #DAC7B7",
"[. c #E2C5AC",
"{. c #E6CAB7",
"}. c #E5D1BD",
"|. c #9CBCC1",
" X c #A1BDC2",
".X c #ABBEC3",
"XX c #A5C2C6",
"oX c #ABC5CA",
"OX c #ADCACE",
"+X c #ABC3C7",
"@X c #B3CACE",
"#X c #B1C5C8",
"$X c #ADCCD1",
"%X c #B3CDD3",
"&X c #B8CCD2",
"*X c #ADD1D2",
"=X c #B5D1D5",
"-X c #B9D2D6",
";X c #B6D4D9",
":X c #BDD6DA",
">X c #BED9DC",
",X c #BEDDE1",
"<X c #C2D6DB",
"1X c #C2DADE",
"2X c #CADBDE",
"3X c #C4D6D7",
"4X c #CECEC8",
"5X c #E9D6C8",
"6X c #ECDCD2",
"7X c #F4D9CA",
"8X c #F5E4D7",
"9X c #F5E5CE",
"0X c #C4DDE1",
"qX c #C9DEE3",
"wX c #D5D8E1",
"eX c #C6E1E5",
"rX c #CAE1E4",
"tX c #CDE5EA",
"yX c #C7E5EA",
"uX c #D5E8E9",
"iX c #D6EFF4",
/* pixels */
"; ; ; ; ; ; ; ; ; ; ; ; 5 ; ; ; ; ; ; ; ; ; ; ; 5 ; ; ; 5 y - ; 5 5 5 ; 6 * ; ; 5 y 5 5 5 5 5 5 h ; 0 h : - 5 0 ; ; y ; y ; ; ; ; ; ; ; ; ; ; ; ; < ; ; ; ; ; ; ",
"; ; ; ; ; < ; ; ; ; ; ; ; ; ; ; ; ; ; ; ; ; ; ; ; ; = e = * 5 < < + = = $ * * = $ = * = = % % ; & $ ; * 5 ; ; < ; ; * ; = ; ; 5 ; ; 0 ; ; ; ; ; ; ; ; ; ; ; ; ; ",
"; ; ; ; ; ; ; ; ; ; ; ; ; ; ; ; ; ; ; ; ; ; ; ; 5 5 ; < ; 0 h = Z ;. .L F B E ^ E W L M M M C F B C k = 6 < ; < y h ; < ; ; ; ; ; ; ; ; ; ; ; ; ; ; ; ; ; ; < ; ",
"; ; ; ; 0 ; ; ; ; ; ; ; ; ; ; ; ; ; ; 5 ; ; ; ; & h * = 0 $ $ @ -.tXE.H.N.F.L.V.T.D.s.0.0.q.0.y.C.j...- - - 5 * % = ; ; ; < ; ; ; ; ; ; ; ; ; ; ; ; ; ; ; ; ; ; ",
"; ; ; ; ; ; ; ; ; ; ; ; ; ; 0 ; ; ; ; ; ; ; ; ; ; ; $ C A.A.A.A.P.Y.d.d.d.d.s.*XoXT.b.4.8.8.8.8.q.i.1.' ..' X.B ; y ; ; ; ; ; ; ; ; ; ; ; ; ; ; ; ; ; ; ; ; ; ; ",
"; ; ; ; ; ; ; ; ; ; ; ; ; ; ; ; ; ; ; ; ; ; ; ; 6 6 = o.uXrXrXuXOXI.L.s.d.D.N.%X;XT.s.7.w.6.8.6.q.q.w.w.e.e.r.[ & * ; y ; ; ; ; ; ; ; ; ; ; ; ; 5 ; ; 0 ; ; ; ; ",
"; ; ; ; ; ; ; ; ; ; ; ; ; ; < ; ; ; ; ; ; ; ; ; $ = O ..1X1X:X1X1X:XI.s.B.G.F.<X>XV.y.2.6.6.w.8.3.2.6.w.8.0.4.' $ - ; * ; ; ; ; ; ; 5 ; ; ; ; ; ; ; ; ; ; ; ; ; ",
"; ; ; ; ; ; ; ; ; ; ; ; ; ; ; ; ; ; ; ; ; ; ; ; W #.X.S.rX1X1X2X3X0XV.d.d.L.F.;X-XN.m.t.e.0.6.6.i.w.2.8.6.0.e.>.C C c j * ; ; ; ; ; < ; ; ; ; ; ; ; ; ; ; ; ; ; ",
"; ; ; ; ; ; ; ; ; ; ; ; 0 ; ; ; * 0 * ; * 0 = = A.uX0XrX0X<XqX0X1X0XF.m.d.D.K.;X%XM.s.m.w.0.w.8.6.e.0.6.w.0.6.8.q.t.4.y = < < - ; ; ; ; ; ; 0 ; ; ; ; ; ; ; ; ; ",
"; ; ; ; ; ; ; ; ; ; ; ; ; ; < ; j : y * ; h * $ C.2X:X1X0X0X<XqX3XeXH.m.d.V.K.-X%XC.s.B.w.6.8.8.6.y.a.w.6.6.6.8.7.2.1.i 6 < ; 5 ; ; ; ; ; ; ; ; ; ; ; ; ; ; ; ; ",
"; ; ; ; ; ; ; ; ; ; ; ; ; ; ; ; * j ; h $ ; k k W.2X1X;X%X0X1X<X>XqXG.s.B.V.V.:X@XM.d.d.w.0.8.8.w.m.s.8.2.6.8.8.w.w.8.i : ; * < ; ; ; ; ; ; ; ; ; ; ; 0 ; ; ; ; ",
"; 0 ; ; ; 5 ; ; ; ; ; ; ; ; ; 5 * * ; = l O C 3X,X2X0XXXN.;X0X0X1X<XP.M.s.N.K.-X%XB.d.d.w.6.w.8.8.s.b.w.6.w.8.6.6.w.8.B i 5 = < ; < ; ; ; ; ; ; ; ; ; ; ; ; ; ; ",
"; ; ; ; ; ; ; ; ; ; ; ; ; ; ; ; 5 5 6 ; 6  .S.rX3X-X0XoXN.XXOX;X1X1X+X|.m.F.K.=X%XC.d.d.t.6.8.8.6.p.m.a.e.8.8.6.8.8.8.-.^ p : ; ; ; ; ; ; ; ; 5 ; ; ; < ; ; ; ; ",
"; ; ; < ; ; ; ; ; ; ; ; ; ; ; ; ; * ; : k 3X2X:XrX1X,XOXP.V.T.qX0XqXqX=XN.B.P.=X%XM.s.d.0.0.w.8.6.p.N.m.a.w.8.8.e.8.6.e.<.! p ; ; ; ; ; ; ; ; ; ; ; ; ; ; ; ; ; ",
"; ; ; ; ; < ; ; ; ; ; ; ; ; ; ; * h 5 o.W.1X>XeX3X>X1X-X=XP.T.>X>X>X0X%Xm.B.V.=X%XM.m.d.w.8.w.8.q.s.B.m.b.a.w.8.2.8.8.8.7.6.' b ; ; 0 ; ; ; ; ; ; ; ; ; ; ; ; ; ",
"; ; ; ; ; ; ; ; 0 ; ; ; ; ; ; ; 6 * # A.uX-X>X,X0X3X0X1XeX X X%X:X<X1X=XK.T.L.=X%XC.s.B.0.0.8.8.0.s.m.m.B.p.a.2.w.8.8.8.7.t.[ K ; ; ; ; ; ; ; ; ; ; ; ; ; ; ; ; ",
"; ; ; ; ; ; ; ; ; ; ; ; ; ; ; ; ; 6 5 g.uXeX:X>X1X1X1X:X1X>X=XN..X0X<X>X,XoXV.-X=XM.s.s.e.6.e.8.w.p.B.m.M.s.e.7.6.w.w.6.w.8.*.J e 0 ; * ; ; 5 * ; ; ; ; ; ; ; ; ",
"; ; ; ; ; ; ; ; ; ; ; ; ; ; ; ; < ; @ j.OXT.OX>X<X1X1X1X1X>X>X+X-X0X:X>X,XoXN.;X@XM.B.d.e.6.w.6.w.a.B.B.M.M.w.0.8.8.6.8.8.8.*.J ; - ; 5 ; ; ; ; ; ; ; ; e ; ; ; ",
"; ; ; ; ; ; ; ; ; ; ; ; ; ; ; ; e ; - ,.F.t.`.>X<X1X1XqX3X>X>X>X0X0X>X0X0X+XN.;X%XC.B.s.e.6.w.6.w.p.B.m.m.s.w.6.8.8.8.8.8.8.=.Q y ; - 5 ; ; ; 5 ; ; ; ; ; ; ; ; ",
"; ; ; ; ; ; ; 0 ; ; ; ; ; ; 0 < $ n 4.B.K.d. X,X>X1X<X2X1X1X1X0X<X>X<X>X>XXXV.=X%XM.s.s.e.6.6.8.w.p.B.m.B.p.e.6.e.8.8.8.8.8.6.=.I p * 5 e 0 = ; ; ; ; ; ; ; ; 5 ",
"; ; ; ; ; ; ; ; ; ; ; ; ; ; 6 ; ; E Y.K.D.M.T.*X>X1X1X1X3XqX>X1X>X:X1X<X>X%XY.;X-Xm.m.m.p.t.6.8.7.s.B.p.M.s.a.e.8.8.w.8.8.8.8.w.' n : * ; y ; ; ; ; ; ; ; ; ; ; ",
"; ; ; ; ; ; ; < ; ; ; ; ; ; ; ; $ F T.L.K.m.C.p.@X>XeX1X>XqX1X1X0X0X0X<X0X1X-XqX%Xm.m.B.m.b.w.6.6.m.N.M.M.B.M.p.7.8.8.w.8.8.8.8.` b ; = ; 0 * ; ; ; ; ; ; ; ; ; ",
"; ; ; ; ; ; 5 ; ; ; ; ; ; ; ; h * ~ T.D.D.s.B.M.Y.oX0X1X:X0X1X1X1X1X:X:X1X>X3X1X%Xm.m.B.M.m.6.6.6.M.D.D.D.D.D.M.w.8.8.8.8.w.w.7.` f ; < ; ; ; ; ; ; ; ; ; ; ; ; ",
"; ; ; ; ; ; ; ; ; ; ; ; ; ; ; h $ E T.K.V.M.M.d.N.U.:X1X<X<X1X>X<X0X1X0X0X>X1X1X%Xs.B.s.m.m.6.6.6.B.F.F.F.F.H.V.7.8.8.8.8.8.w.6.( m ; < ; 0 ; 5 ; ; ; ; ; ; ; ; ",
"; ; ; ; ; ; ; ; ; ; ; < ; ; h ; * W P.L.V.M.C.L.K.T.eX:X>X1X-X0X1X>X1X0X0X1X>X0X$XN.m.N.B.p.7.6.7.B.I.F.L.D.I.G.e.8.8.8.6.w.6.w.` n - ; - 0 ; ; ; ; ; ; ; ; < ; ",
"; ; ; ; ; 0 ; ; ; ; ; ; ; ; ; ; % W P.L.V.D.V.D.K.T.*X;X>X3X:X3X0X1X1X1X<X1X1X0X;XN.m.M.B.s.e.e.a.B.D.D.G.B.B.p.8.8.e.8.6.8.6.7.` n ; ; ; e ; ; ; ; 0 ; ; ; ; ; ",
"; ; ; 0 ; ; ; ; ; ; ; ; ; ; ; ; & ^ P.L.F.K.F.K.K.D.V.+X:X1X,X:X1X1X1X1X:X1X0X1X$XM.m.B.B.D.B.B.p.m.s.d.d.s.w.7.6.w.8.8.6.-.w.6.` n ; 5 - 0 ; ; ; ; ; ; ; ; ; ; ",
"; ; ; ; ; ; ; ; ; ; ; ; ; ; ; h & E P.L.F.K.H.D.K.K.C.P.Y.%X1X3X1X>X1X0X1X1X0X>X%XN.m.B.d.s.s.p.B.m.M.B.s.D.e.7.8.8.7.6.1.*.*.*./ m ; * ; 0 ; ; ; ; ; ; ; ; ; ; ",
"; ; ; ; ; ; ; ; ; ; ; ; ; ; ; ; $ W I.L.L.L.V.L.K.D.B.m.B.@X:X>X1X>X1X1XqX1X1X0X=XN.m.M.s.m.K.V.D.s.m.s.p.M.q.e.e.7.8.8.=.U J U / n - ; ; ; ; ; ; ; ; ; ; ; ; ; ",
"; ; ; ; ; ; ; ; ; ; ; ; ; ; ; h * W P.F.K.L.K.D.t.q.d.M.y.C.Y.,X0X0X0X1X1X>X>X0X@XM.M.M.M.P.=X=X%XP.m.m.B.N.8.8.8.6.8.w.6./ U Y R n 0 5 ; 0 ; 5 ; ; ; ; ; ; ; ; ",
"; ; ; ; ; ; ; 5 ; ; ; ; 0 ; 6 ; % W K.L.K.K.V.L.t.3.s.D.D.m.V.oX%X1X1X>X1X1X:X0X=XM.M.s.s.P.>X0X>XXXH.s.p.p.8.6.8.8.e.=.*.Y U U R n 0 5 - 0 < ; ; ; ; ; ; ; 5 ; ",
"< ; ; ; ; ; ; ; ; ; ; ; ; ; ; ; $ F K.F.F.V.Z.K.w.t.B.s.s.s.s.p. X>XqX:X1X1X:X0X*XC.B.M.s.Z.>X1X,X>X%XN.a.w.8.6.8.8.8.( J U Y U U n ; ; : ; ; ; ; ; ; ; ; ; ; ; ",
"; ; ; ; ; ; ; ; ; ; ; ; ; ; ; ; 5 ; j g.|.d.D.P.e.q.M.B.N. XoX+X@X2XU. X<X0X1X0X%XM.N.N.|.%X0X<X1X>X=XN.r.6.0.8.q.>.( ( K U / Y h ; ; ; ; ; ; ; ; ; ; ; ; ; ; ; ",
"< ; ; ; ; ; ; ; ; ; ; ; ; ; ; ; & h = ^ s.I.D.L.e.w.p.d.m.;X0X0X2X>XZ.P.%X<X-X;X$XB.m.N.$X0X%X:X1X1XOXp.e.0.w.6.2.*./ Y Y Y K s ; h 6 ; ; ; ; ; ; ; ; ; ; ; ; ; ",
"; ; ; ; ; ; 0 ; ; ; ; 0 ; ; ; ; 0 ; 5 ; s C.Y.D.B.B.B.N.p.=X0X1X3XeX:XOXZ.M.N.-X=XN.d.m.M.V.N.XX1XeX%Xe.7.6.6.1.( Y J T T I v 0 6 ; 0 ; ; ; ; ; ; ; ; ; ; 0 ; ; ",
"; ; ; ; ; ; ; ; ; ; ; ; ; ; ; ; < = 5 5 * ^ 9.T.K.F.B.D.p.|.OX1X-X>XqX%XM.b.b.-X=Xm.B.D.p.M.b.I.+XXXP.w.2.w.w.2.I Y Y / G s 0 = ; ; ; ; ; ; ; ; ; 0 ; ; ; ; ; ; ",
"; ; ; ; ; ; ; ; ; ; ; ; ; ; < ; ; y 5 5 * + M Z.F.G.s.B.m.m.I.>X0X0XyX;XM.N.b.;XOXM.m.d.B.F.s.s.M.4.6.w.w.8.6.1.R R Y B k ; : 5 ; ; ; ; ; ; ; ; ; ; ; ; ; ; ; ; ",
"; ; 5 ; ; ; ; ; ; ; ; 5 ; ; ; ; ; - & * r < j j e.P.V.s.B.a.m.U.U.L.P.G.p.V.m.$X:XM.N.d.m.m.m.s.e.2.w.w.2.6.w.2.T R N i = < * 5 ; ; ; ; ; ; ; ; ; ; ; ; ; ; ; ; ",
"; ; ; ; ; ; ; ; ; ; ; ; ; ; ; ; = h 5 ; ; = * % >.T.P.B.B.N.s.s.p.p.B.M.m.m.N.=X-XN.b.B.N.s.m.e.6.0.e.6.2.w.6.>.T T I y e e y & ; ; ; ; ; ; ; ; ; ; ; ; ; < ; ; ",
"; ; ; ; ; ; ; ; ; ; < ; ; ; ; ; ; ; ; h ; y ; * 4.T.N.K.D.D.s.B.d.B.d.s.B.s.m.=X0X>X|.M.B.s.e.7.0.6.6.w.r.6.] Y Y U I t ; = ; 6 ; ; ; ; ; ; ; ; ; ; ; ; ; ; ; ; ",
"; ; ; ; ; ; ; ; ; ; ; ; ; ; ; ; * = 5 y = < ; < X.b.D.L.L.D.B.s.b.B.M.d.D.M.p.=X0X0X|.r.b.y.8.6.4.w.2.=.{ <.R P U R E y 0 = h * ; ; ; ; ; ; ; ; ; ; ; < ; ; ; ; ",
"; 0 ; ; ; ; ; ; 5 ; ; ; ; ; ; ; < 6 : 5 ; < ; & s { H.P.G.H.P.F.B.M.B.B.m.b.G.$X,XeXU.<.8.2.6.w.8.e.1.R P P Y R Y Y Q t y ; ; ; ; ; < ; ; ; ; ; ; ; ; ; ; ; ; ; ",
"; ; ; ; ; ; ; ; ; ; ; ; ; 0 ; ; < = 5 & < e 0 k J.J.*.p.U.1.*.[ *.*.*.*.b.p.e.M.m.V.b.8.8.e.e.<.( ` ` P R R U P Y r.+XF - y = ; ; ; ; ; ; ; ; ; ; ; ; ; ; ; ; ; ",
"; ; ; ; ; ; ; < ; ; ; ; ; ; ; ; ; ; ; 6 < # k ..%X&X( 6.N.( J Y J U J ( b.e.1.1.,.<.,.2.2.1.1.` K Y Y R Y Y Y ` ( G.tX9.E - < h 0 5 ; ; ; ; ; ; ; ; 5 ; ; ; ; ; ",
"; ; ; ; ; ; ; ; ; ; < ; ; ; ; ; 0 j & = : t j.rX XY.I.6./ R P U U U / R / J R R R ( Y R R U R R R R Y R U P U } T. XOX>X#XB y $ ; ; ; ; ; ; ; ; ; ; ; ; 0 ; ; ; ",
"; ; ; ; ; ; ; ; ; ; ; ; ; ; ; ; = 6 ; - n u.U.:XU.I.I.t.<.( R | / Y Y U U K Y Y J Y Y Y Y Y P Y R U R R | R $.4.V.T.Y.-XoXh.~ k h ; ; ; ; ; ; ; ; ; ; ; ; ; ; ; ",
"; ; ; ; ; 0 ; ; ; ; ; ; ; ; ; ; 5 * y j 4.yXOXH.T.U.a.N.G.` Y R R Y R U U ( Y Y / Y R R P R P Y Y R ! R R ` r.P.C.P.Y. X%XiXZ.K 0 < ; ; ; ; ; ; ; ; ; ; ; ; ; ; ",
"; ; ; ; ; ; ; ; ; ; ; ; ; ; ; 5 * y - B ,.OXOXU.H.V.m.N.n.E.+X.X.X|.oXV./ U Y Y Y R R U R R U w.XX+XT.N.w.1.>.] [ { =.1.<.2.<.U h ; ; ; ; 6 ; ; ; ; ; 0 ; ; ; ; ",
"; ; 5 ; ; ; ; ; ; ; ; ; ; ; ; ; < * 5 h ..|.K.G.m.a.r.m.m.-XrXqX0XqXqXoX=.*.=.*.-.*.[ *.{ ' =.H.tXqX;XU.b.e.=...' ! K J U Y I Y 6 ; ; ; ; * ; ; ; ; ; ; ; ; ; ; ",
"; ; ; ; < ; ; ; ; ; ; 0 ; ; ; ; < = * - i J ` ` / / ` <.t.&XqXU.U.T.|.U.H.oX0X0X0XqXoXP.I. X>XOXU.U.U. Xa.R .X2XwX9.X s s X u v ; = = 5 h y ; = ; ; ; ; ; ; ; ; ",
"; ; ; ; ; ; ; ; ; ; ; ; ; ; ; ; ; ; < 5 n h.-.I >.{ N ( <.&X,X|.I.I.T.T.|..X%X@X%X;XXXU..X@XtX$XY.P.J.Y.a.K h.g.j.X.Q J M ;.W 0 5 y ; ; = * ; y ; ; ; ; ; ; ; ; ",
"; ; ; < ; ; ; ; 5 ; ; ; ; ; ; ; 5 < * y ;.wXk.n y.n.# d ( @X-XI.Y.|.|.P.U.P. XU.|.H.U.U.:XqXqXOXI.U.|.Y.w.Y m y X ' J.! X.uXf.X = ; ; ; ; ; ; ; ; ; ; ; < ; ; ; ",
"; ; ; ; ; ; ; ; ; ; ; ; ; ; ; ; 5 5 * ..j.-.9.h.I b s K ( oX0X|.Y.I.|.I.|.U.|.I.|.J.|.I.>X0X.X|.I.|.T.|.a.) s i u 4.-Xh.,.K n p h 5 ; ; 5 6 ; ; ; ; 5 ; ; ; ; ; ",
"; ; ; 0 ; ; ; ; ; ; 0 ; ; ; ; ; = e 5 4.r.U *.s.m # v N (  X%XM.D.N.P.|.I.|.I.I.G.|.H.P.<X-XJ.G.H.H.V.P.6.P u - y 5.@XC.f.- y i ; ; ; ; ; = ; y ; ; ; ; ; ; ; ; ",
"; ; ; ; ; ; ; ; ; ; ; ; ; ; ; < e e O j ) h.<.V v k X J ( Y Y ( ! ] N.|. X XU.G.M.F.p.r.%X0X Xt.Y ! / R ( ) - O $ p M B M n q q = : = y ; = = ; ; ; ; ; ; ; ; ; ",
"; ; ; ; ; ; ; ; ; ; ; ; ; ; ; ; = l o.l.c..Xc.@.^ K ) / R r.j.=.[ / r.a.w.r.t.6.6.2.1.*.V.V.e.*.R y.y.1.*.! # O k t i ,.5.u p u O.C h * ; 5 ; ; ; ; ; ; ; ; ; ; ",
"; ; ; ; ; ; ; 5 ; ; ; ; ; ; e ; q O.8X8X6X8X5X[.O.W F.7.T *X3Xn.=.( / J Y Y R Y / Y / R U U / / / *X,XG.2.I 5 o m y 5 `.`.5 u n ].Q.% y ; ; ; ; ; ; ; ; ; ; ; ; ",
"; ; ; ; ; ; ; ; ; ; ; ; ; 5 5 ; > #.6X7X5X5X5X).~.c.] n.+XK.x.a.1.Y 7.G.e.a.e.a.r.r.t.2.8.w.2.*.` r.G.2.H.@X| c w u a R.].R./.R.5XR.$ 5 y = ; y ; ; ; ; ; ; 5 ; ",
"; ; ; ; ; ; ; ; ; ; ; ; ; ; e ; $ o.8X5X5X6X'.'.{./.Y C.2X5.X.q.*./ p.B.F.B.M.B.B.D.b.w.e.a.r.<./ 1.4.8.I.0X4.I Z C F R.{.}.7X9X8Xc.@ ; h y ; * < ; ; ; ; ; ; ; ",
"; ; 0 ; ; ; ; ; ; ; ; ; ; ; ; ; $ o.8X5X5X).'.[.[.~.R 3.A.e + ` / / p.b.p.p.b.p.p.m.e.w.8.6.r.=./ ( *.e.a.r.Y ,.].].'.'._.[.}.5X8XR.* ; = * 5 h ; ; ; ; 0 ; ; ; ",
"; ; ; ; ; ; ; ; ; ; ; ; ; ; h ; @ #.8X}.[.'.[.(._.v.F _ W 4 4 R ! ( -.e.oX|. XoXXX XY.Y.Y.U. X8./ f J 2.:.>.] ! %.&.(.^.(.[.'.5X6Xc.$ 6 ; 5 0 - ; ; ; ; ; ; ; ; ",
"< ; ; ; ; ; ; ; ; ; ; ; ; ; 0 ; @ O.6X].'.(.(.(.!.z.' 5   + * | K K K -.0XqXqX0XeXeXeXeXqXtXtXH.Y g u Y P R ! B   D !.'.(.[.(.[.6Xc.& y = < ; * ; ; ; ; ; ; ; ; ",
"; ; ; ; ; ; ; ; ; ; ; ; ; ; < 5 - 5 S z.^.~.~./.S 7 h.O.. 4 4 L -.n.E.E.4.1.1.-.,.,.,.,.>.,.5.I u i v q X.C.a 5 5 7 9 &.^.~.~.!.D l $ y ; * ; h ; ; ; ; ; ; ; ; ",
"; ; ; ; ; ; ; ; ; ; ; ; ; ; e ; 5 5 @ H %.%.%.%.1 & E.o.3 , , L X.n..XZ.K K K I K K B K I B I m w j v - E u.a * & 5 7 D %.%.%.#.* $ j 0 * 6 ; ; ; ; ; ; ; ; ; ; ",
"; ; ; ; ; ; ; ; ; ; ; ; ; ; ; ; e ; ; ; ; = = = * n 1X#Xg.9 , S A 3 2 3 1 2 2 8 8 2 8 8 8 3 2 2 3 3 3 A 8 % % e 6 ; ; ; ; = = * 5 ; ; ; ; ; ; ; ; ; ; 0 ; ; ; ; ",
"; ; ; 0 ; ; ; ; ; ; ; ; ; ; ; ; ; ; 5 0 5 ; 5 ; < l W.`.A.f.O.7 8 z 2 x A 9 1 3 7 , , 3 3 7 7 8 2 3 2 z 2 < ; ; ; ; ; ; ; 5 ; ; ; ; ; ; ; ; ; ; ; ; ; ; ; ; ; < ",
"; ; ; ; ; ; ; ; ; ; ; ; ; 5 ; ; ; ; ; ; ; ; 0 ; * y 5.S.W.Q.f.6 9 D A Z x 8 2 2 3 4 , 8 z x Z A 2 r < < = * h = ; ; ; ; 0 ; ; ; ; ; ; ; ; ; ; ; ; ; ; ; ; ; ; ; ",
"; ; ; ; ; ; ; ; < ; ; ; ; ; ; ; ; ; ; ; ; ; ; ; ; h y h l h c M 5.J..XW.9.5.-.~ M = p ^ g.A.A.h.-.5.X.C p * y * ; ; ; ; ; ; ; ; ; ; ; 0 ; ; ; ; ; ; ; ; ; ; ; ; ",
"; ; ; ; ; ; ; ; ; ; ; ; ; ; ; ; ; ; ; ; ; ; ; ; < < $ = * & t ^ p.|.yX;Xq.t.q.*.V w m ] T.$XOXK.w.t.i.' p - h 6 6 ; ; ; ; ; ; ; ; ; 0 ; ; ; ; ; ; ; ; ; ; ; ; ; ",
"; ; ; ; < 5 ; ; ; ; ; ; ; ; ; ; ; ; ; ; ; ; ; ; = < h h 6 5 y Q >.y.=X;Xr.r.t.} F = k | U.&X@XV.w.t.3.` s * = ; ; ; ; ; ; ; ; ; ; ; ; ; ; ; ; ; ; ; ; ; ; ; ; ; ",
"0 ; ; ; ; ; ; ; ; ; ; ; ; ; ; ; ; ; ; ; ; ; ; ; 6 ; h ; % ; i B _ $.y.y.=.{ *.| s * k P 2.u.r.2.$.>.] I k ; 6 ; = ; ; ; ; ; ; ; ; ; ; ; ; ; ; ; ; ; ; ; ; < ; ; ",
"; ; ; ; ; ; ; ; ; 0 ; ; ; ; ; ; ; < ; ; ; ; ; ; 5 = ; ; 6 ; - s P ! Y K Q Y I N p < j d P Q K U I ! P v 0 ; < - y ; ; ; ; ; ; ; ; < ; ; ; ; ; ; ; 5 ; ; ; ; ; 0 ",
"; ; ; ; ; ; ; ; < ; ; ; ; ; ; ; 0 ; ; ; ; ; ; ; ; ; ; ; ; ; ; ; y < h 6 y < < 5 ; ; ; ; ; 6 h h 6 ; 6 ; 0 < ; ; ; ; ; ; ; ; ; ; ; ; ; ; ; ; ; ; ; ; ; ; ; ; ; ; ",
"; ; ; ; ; ; ; ; ; ; ; ; ; ; ; ; ; ; ; ; 5 ; ; ; ; ; ; ; ; ; ; ; ; ; ; ; ; ; ; ; ; ; ; ; ; ; ; ; 5 5 ; ; ; ; ; ; ; ; ; ; ; ; ; ; ; ; ; 5 ; ; ; ; ; ; ; ; ; ; ; ; ",
"; ; ; ; ; ; ; ; ; ; ; ; ; ; ; ; ; ; ; ; ; ; ; < ; ; ; ; ; ; ; ; ; ; ; ; ; ; ; ; ; ; ; ; ; ; ; ; ; ; ; ; ; ; ; ; ; ; ; ; ; ; ; ; ; ; ; ; ; ; ; ; ; ; ; 5 ; ; ; ; ",
"; ; ; ; ; ; ; ; ; ; ; ; ; ; ; 6 ; ; ; ; ; ; ; ; ; ; ; ; ; ; ; ; ; ; ; ; ; ; ; ; ; ; ; ; ; ; ; ; ; ; ; ; ; ; ; ; ; ; ; ; ; ; ; < ; ; ; ; ; ; ; ; ; ; ; ; ; ; ; ; ",
"< ; ; ; ; ; ; ; ; ; ; ; ; ; ; ; ; ; ; ; ; ; ; ; ; ; ; ; ; ; ; ; ; ; ; ; ; ; ; ; ; ; ; ; 5 ; < 0 ; ; ; ; ; ; ; 6 ; ; ; ; ; ; ; ; ; ; ; ; ; ; < ; ; ; ; ; ; ; ; ; ",
"; ; ; ; ; 5 ; ; ; ; ; ; ; ; ; ; ; ; ; ; ; ; ; ; ; ; ; ; 5 ; ; ; ; ; ; ; ; ; ; ; ; ; ; ; ; ; ; ; ; ; ; ; ; < ; 5 ; ; ; ; ; ; ; ; ; ; ; ; ; ; ; ; ; ; < ; ; ; ; ; ",
"; ; ; ; ; ; ; 0 ; 0 ; ; ; ; ; ; ; ; ; ; ; ; ; ; ; ; ; ; ; ; ; ; ; ; ; ; ; ; 0 < ; ; ; ; ; ; ; ; ; ; ; ; ; ; ; ; ; ; ; ; ; ; 0 ; ; ; ; ; ; ; ; ; ; ; ; ; ; ; ; ; ",
"; ; ; ; ; ; ; ; ; ; ; ; ; ; ; ; ; ; ; ; ; ; ; ; ; ; ; ; ; ; ; ; ; ; ; ; ; ; ; ; ; ; ; ; ; ; ; e ; ; ; ; ; ; ; ; ; 5 ; ; ; ; ; ; ; ; ; ; 0 ; ; ; 0 ; ; ; ; ; ; ; "
};
