/* XPM */
static char *_7f8ebb13c1b41b0ac8eaa346012284aJeCqVinR4D6b4kTD[] = {
/* columns rows colors chars-per-pixel */
"80 80 229 2 ",
"   c #12170E",
".  c #14190F",
"X  c #0E1B13",
"o  c #121D13",
"O  c #181E11",
"+  c #0F2015",
"@  c #122216",
"#  c #1B2314",
"$  c #1A2717",
"%  c #132519",
"&  c #162B1C",
"*  c #192C1B",
"=  c #17301C",
"-  c #1A331D",
";  c #1B391F",
":  c #27281B",
">  c #242C19",
",  c #312B1F",
"<  c #23331D",
"1  c #2A361E",
"2  c #263A1E",
"3  c #192F20",
"4  c #173121",
"5  c #1B3322",
"6  c #1D3C23",
"7  c #342A22",
"8  c #253A25",
"9  c #213D25",
"0  c #2B3E23",
"q  c #3D3526",
"w  c #393826",
"e  c #47392B",
"r  c #4D3E32",
"t  c #27421E",
"y  c #1F4123",
"u  c #224426",
"i  c #2B4223",
"p  c #244A27",
"a  c #2A4C26",
"s  c #234529",
"d  c #2B452A",
"f  c #254C29",
"g  c #2A4C29",
"h  c #364828",
"j  c #2F5326",
"k  c #275129",
"l  c #2A542B",
"z  c #2C5B2D",
"x  c #335425",
"c  c #32542A",
"v  c #395728",
"b  c #325C2C",
"n  c #3B5D2A",
"m  c #244D31",
"M  c #295635",
"N  c #2D5C33",
"B  c #315A34",
"V  c #3C5C31",
"C  c #2F612F",
"Z  c #35632D",
"A  c #3B642C",
"S  c #37682E",
"D  c #3B6B2F",
"F  c #2F6231",
"G  c #2E623B",
"H  c #326532",
"J  c #3A6531",
"K  c #356B34",
"L  c #3B6D32",
"P  c #33673B",
"I  c #346B3B",
"U  c #377236",
"Y  c #3B7334",
"T  c #397438",
"R  c #397539",
"E  c #3C7C3A",
"W  c #4D492E",
"Q  c #594836",
"!  c #634D38",
"~  c #6A5339",
"^  c #75593D",
"/  c #42652C",
"(  c #456A2D",
")  c #49692F",
"_  c #4A712F",
"`  c #486433",
"'  c #446C32",
"]  c #4B6D34",
"[  c #586834",
"{  c #427432",
"}  c #4D7431",
"|  c #467B34",
" . c #4C7B33",
".. c #477539",
"X. c #427E3A",
"o. c #4C7C39",
"O. c #537533",
"+. c #537C34",
"@. c #587739",
"#. c #5C7A39",
"$. c #62633A",
"%. c #627E3B",
"&. c #356F42",
"*. c #3C7B42",
"=. c #81603F",
"-. c #856240",
";. c #3E823C",
":. c #478036",
">. c #4C8335",
",. c #42843D",
"<. c #4B833A",
"1. c #44893F",
"2. c #4C8B3B",
"3. c #578135",
"4. c #5A8436",
"5. c #598937",
"6. c #54843C",
"7. c #5C8439",
"8. c #528E3B",
"9. c #5D8A39",
"0. c #4D903E",
"q. c #52943E",
"w. c #59943D",
"e. c #63843C",
"r. c #628D3A",
"t. c #698A3E",
"y. c #66923B",
"u. c #6A953D",
"i. c #609B3F",
"p. c #6D9A3E",
"a. c #709E3F",
"s. c #73A23F",
"d. c #448D42",
"f. c #458A45",
"g. c #598D42",
"h. c #479246",
"j. c #4B9342",
"k. c #4F9A44",
"l. c #4A9949",
"z. c #519741",
"x. c #5E9341",
"c. c #539C43",
"v. c #5C9C43",
"b. c #4C9C52",
"n. c #668841",
"m. c #6C8B41",
"M. c #639443",
"N. c #6E9442",
"B. c #649D43",
"V. c #6D9A42",
"C. c #739544",
"Z. c #729D42",
"A. c #789C47",
"S. c #55A146",
"D. c #59A446",
"F. c #55A449",
"G. c #57A94C",
"H. c #5AA848",
"J. c #5BAC4A",
"K. c #5EB24D",
"L. c #4FA252",
"P. c #53AB55",
"I. c #5BB658",
"U. c #68A747",
"Y. c #6BAB4A",
"T. c #75A341",
"R. c #7AA545",
"E. c #7CAB44",
"W. c #74A749",
"Q. c #7DA449",
"!. c #7DAA4A",
"~. c #61B54E",
"^. c #6CB54D",
"/. c #61B84F",
"(. c #6ABA4E",
"). c #74B24B",
"_. c #7AB34B",
"`. c #7ABA4E",
"'. c #63BC51",
"]. c #72BE52",
"[. c #5DBE64",
"{. c #65B465",
"}. c #65C254",
"|. c #6AC455",
" X c #74CB57",
".X c #78CA56",
"XX c #7DD259",
"oX c #5FC166",
"OX c #62C568",
"+X c #81AF46",
"@X c #82A44B",
"#X c #83AB4B",
"$X c #89AD4E",
"%X c #82B245",
"&X c #86B349",
"*X c #8AB54C",
"=X c #82BD4F",
"-X c #8DBA4C",
";X c #91BD4F",
":X c #8BAF50",
">X c #8DB551",
",X c #8FB950",
"<X c #91B652",
"1X c #93BD52",
"2X c #98BF56",
"3X c #86C653",
"4X c #8BCB54",
"5X c #96C152",
"6X c #9BC555",
"7X c #93CF56",
"8X c #9FC857",
"9X c #9EC658",
"0X c #9FC958",
"qX c #84D65A",
"wX c #8CD85A",
"eX c #97DA5A",
"rX c #A0C759",
"tX c #A6CE5C",
"yX c #A8D15D",
"uX c #A0DE5B",
"iX c #97E05D",
"pX c #9BE25E",
"aX c #A2E35E",
"sX c #B1D470",
"dX c #A6E960",
"fX c #ABEB61",
"gX c #C0DC8B",
"hX c #E4F0CD",
"jX c #F7FBF0",
/* pixels */
"jXhXsXtXtXtXtXtXyXtXtXtXtXtXtXtXtXtXtXtXtXtXyXtXtXtXyXtXtXtXtXtXtXtXtXtXtXyXtXtXtXtXtXtXtXtXtXyXtXtXtXtXtXtXtXyXtXtXtXtXtXtXtXtXtXtXtXyXtXtXtXtXtXyXtXtXtXtXyXtX",
"jXsXtXtXtXtXtXtXtXtXtXtXtXtXtXyXtXtXtXtXtXyXtXtXtXtXtXtXtXtXtXtXtXtXrXtX5X#X=X>XA.1XtXtX!.!.0XtXtXtXyXtXtXtXtXtXtXtXtXtXtXtXtXyXyXtXtXtXtXtXtXtXtXtXtXtXtXtXtXtX",
"gXtXtXtXtXtXtXtXtXtXtXyXtXtXtXtXyXtXtXtXtXtXyXtXtXtXtXtXtXtX9XtXtXW.7.#XY.H.v.o.{ 7.*XW.E E W.tXyXtXtXtXtXtXtXtXtXtXtXtXtXtXtXtXtXtXtXtXtXtXtXyXtXtXtXtXtXtXtXyX",
"tXtXtXtXtXyXtXtXtXtXtXtXtXtXtXtXtXtXtXtXtXtXtXtXtXtXtXyXtX2Xx.V.!.B f T K.'.U.B.8.| J T d.K ..A.@XrXtXtXtXyXtXtXtXtXtXyXtXtXtXtXtXtXtXyXyXtXtXtXyXtXtXtXtXtXtXtX",
"tXtXtXtXtXtXtXtXtXyXtXtXtXtXtXtXtXyXtXtXtXtXtXtXtX9X9XtXtXQ.T ,.M.W.B.E c.).eX7Xw.S.0.1.E z f p c C.tXtXtXtXtXtXtXtXyXtXtXtXtXtXtXtXtXtXtXtXyXtXtXtXtXtXtXtXtXtX",
"tXtXtXtXtXtXtXtXtXtXtXyXtXyXtXtXtXtXtXtXtXtXtXyX>Xg.x.$XQ.o.,.j.|.eXXXD.c.|.wX(.q.~.J.>.2.F.,.l s ` $X9XtXtXtXtXtXtXtXtXyXtXtXtXtXtXtXtXtXtXtXtXtXtXtXtXtXtXtXtX",
"tXtXtXtXtXtXtXtXtXtXtXtXtXyXtXtXtXtXtXtXtXtX1Xm.` R *.N 9 M ;.j.]..XXX}.K.}.|.}.^.w.>. .2.J.F.H s 9 d @.m.:XtXtXyXtXtXtXtXtXtXtXtXyXtXtXtXtXtXtXtXtXtXtXtXtXtXtX",
"tXtXtXtXtXtXyXtXyXtXtXtXtXtXtXtXtXtXtXtXtX9X] 5 5 P ,.F 6 f C ^.aXaXpXqX|.|.|. XiX4Xw.q.J.H.{ p B n 9 5 5 c :XyXtXtXtXyXtXtXtXyXtXtXtXtXyXtXtXtXtXtXtXyXyXtXtXtX",
"tXtXyXtXtXtXtXtXtXtXtXtXtXyXtXtXtXtXtXtX<Xm.d 6 U ;.U C f f l `.aXaXfXqXwXwXiXpXwXeX_.c.J.'.,.c | D j i 5 8 #.C.:XtXtXtXtXtXyXtXtXtXyXtXtXtXtXtXtXtXtXtXtXtXtXtX",
"tXtXtXtXtXyXtXtXtXtXtXtXtXtXtXtXtXtXyX<X` s u P ;.;.H j k f u { U.aXwXwXaXeXpXaXY.3.2.'.J.1.Y z Z Y :.| a 5 6 u V :XtXtXtXtXtXtXtXtXtXtXtXtXyXtXtXyXtXtXtXtXtXtX",
"yXtXtXtXtXtXtXtXtXtXtXyXtXtXtXtXtXtXtXQ.s s g g z z Z Y b k 6 5 { _.U.eXaXY.U.7Xw.u l q.(.{ { Y b Z { D p 5 u f 8 n.rXtXtXtXtXtXtXtXtXtXyXtXtXtXtXtXtXtXyXtXyXtX",
"tXtXtXyXtXtXtXtXyXtXtXtXyXtXtXtXtXtXyX>XV 5 H A 6 u | >.{ D k K v.2.4.3XY.v.| o.' u 9 9  .>.>. .Y :.,.b z i u u 5 0 m.tXtXtXtXtXtXtXyXtXtXtXtXtXtXtXtXtXtXtXtXtX",
"tXtXtXtXtXtXyXtXtXtXyXtXtXtXtXtXtXtXtX#Xb y z L z l | D Y { z c.K.c.H.:.2.}.S.z Z b f f ,.H.q.>.>.D./.k.L L a u z s V >XrXyXtXtXyXtXtXtXtXtXtXtXtXyXtXtXtXtXtXtX",
"tXyXtXtXtXtXtXtXtXtXtXtXtXtXtXtXtXtX!.<.U k C k.J.,.S z Z z l :.q./.S.Y ,.K.j.Z { | Z ,.'.H.c.q.K.K.H.G.z b z k L I 8 d %.9XtXtXtXtXtXtXtXtXtXtXtXtXtXtXyXtXtXtX",
"yXtXyXtXtXtXtXyXtXtXtXtXtXtXtXtXtX9X6.E ;.,.j.S.K.G.Z z z C Y k U k.K { S z z S D { D ,.c.H.K.1.~..X0.Y K N k b T I B s d :XyXtXtXtXtXtXtXtXtXtXyXtXtXtXtXtXtXtX",
"tXtXtXtXtXtXtXtXtXtXtXtXtXtXtXyXtX>XV l E K.|./.q.c.w.Y.c.0.K.E z Z l Z a 6 9 | :.j p l H J.c.F ' 3X8.K G.S.c.S.T H X.I M m.$X2XtXtXtXtXtXtXtXtXtXtXtXtXtXtXtXyX",
"tXtXtXtXtXtXtXyXtXtXtXyXtXtXtX9XA.` 5 5 f ,.D.c.U.).U.Y.|.K.K.J.K D k 6 y y k S 2.z l T :.q.2.L b { o.c./.K.'.1.z z H F 9 9 8 m.tXtXtXtXtXtXtXtXtXtXtXtXtXtXtXtX",
"tXtXtXtXtXtXtXtXyXtXtXtXtXtX5Xg.E R k 6 5 b  .B.eXpX^.w.H.H.q.0.S J g y f Z D l K H 2.K.S.8.>.>.| Z z k.q.8.q.k.k.Y k f 6 5 3 h :XyXtXtXtXyXyXtXtXtXtXtXtXyXtXtX",
"tXtXtXtXtXtXtXtXtXtXtXtXtXtXM.E f.;.H 6 l E 2.).iXqX X'.(.D.D.0.c.H Z S.H.2.>.>.j.,.C ,.K.H.2.q.W.U.Y 2.>.>.8.D.K.K.U k f 5 & * @XyXtXtXtXtXtXtXtXtXyXtXtXtXtXtX",
"tXtXyXtXtXtXtXtXtXyXtXtXtXtXg.T d.;.z f z F.K.U.3XdXwXXXeX(.'.K.'.1.E K.q.>.2.D.I.K.E 0./.H.K.|.pX4X'.'.v.8.H.'.c.1.E Y *.l + o ` 2XtXtXtXtXtXtXtXtXtXtXtXtXtXtX",
"tXtXtXtXyXtXtXtXtXtXtXtXtXtX@.N 1.1.E k.2.:.k.<.=XfXpXdX4XK.|.'.c.1.k.K.q.2.D.q.w.S.E ;.q.~.|.(.3XwXXXqXeX).~.|.j.I L H H f o X o ` <XtXtXtXtXtXtXtXtXtXtXtXtXyX",
"tXtXyXtXtXtXtXtXtXyXtXyXtXtXC.l F z 1.'.K.2.D D _.).).=XY <.wXB.z 1.'.J.D.q.K.K.D.K.H.D S .X.X6.`.aXqXXXpXeXx.B.o.g T M & % o X X o %.tXtXtXtXtXtXtXyXtXyXtXtXtX",
"tXtXtXtXtXtXtXtXtXtXtXtXtX9Xn.l y 6 f q.H.q.>.2.>.b J L z o.U.g 6 E j.H.|./.}. X4X). X2.N W.' l 3X3X`.pX3X_.V i h 5 M l 3 4 3 % X X %.tXtXtXtXtXyXtXtXtXtXtXyXtX",
"tXtXtXtXtXtXyXtXtXtXtXtXtXA.g f k p Z J.}./.q.D.:.L | 2.c.T g z K L K ].wX|. XqXaX4X6.S 5 g f f 9.{ J _.W.g 9 5 5 5 5 5 5 6 5 & X X %.tXtXyXtXtXtXtXtXtXtXtXtXtX",
"tXtXtXtXtXtXtXyXtXtXtXtXtXC.u z U F D.XX|.|./.}.H.2.q.D.K.k.T G.J.2. .7XaXqXiXaX3X_.b k F H E K 6 f U H J k y y y 5 5 6 y y p = X o %.tXtXtXtXtXtXtXtXtXtXtXyXtX",
"tXyXtXtXtXtXtXtXtXtXtXtXtXA.i K d.K ).wXwXpXqX}.'.c.K.~.H.1.H 0.q.8.8.3XaX).4XaXU.H z d.l.d.U F f y U K N ;.F C f 5 6 p k y ; & X h <XtXtXtXtXtXtXtXtXtXtXtXtXtX",
"tXtXtXtXtXtXtXtXtXtXtXtX2Xm.h z F 6 ] M.pXeXwX.X}.^.~.}.G.N K J./.D.q.:.w.3.w.3Xx.f F L.oXl.E ;.;.F k z ;.;.K F 6 5 p f k y + X X 0 @XtXtXtXtXtXtXtXtXtXtXtXtXtX",
"tXyXtXtXtXtXtXtXtXtXtX1X..u - 5 & X & V _.3XaXwXXXaXW.v.Y.f X.J.0.K.K.T | >.>.5...k T [.I.l.d.d.h.;.N z U z C F T k f M ; & & % % * i A.tXtXtXtXtXtXtXtXyXtXtXtX",
"tXtXtXtXtXtXtXtXtXtXtX@.f s 5 3 s f ; 5 a !.eXU._.fX!.b 6.g H K K '.H.:.2.8.8.D.J.X.T [.oXP.L.l.d.E l l K z y G d.E f F - X & 4 3 3 3 h <XyXtXtXtXtXtXtXtXtXtXtX",
"yXtXtXtXtXtXtXtXtXtXtX` y 6 6 F ;.T k ; 5 B.B.Z 9.4XM.z z k l f J U.V :.J.q.c.K.}.J.f.[.L.[.OXL.l.d.H H ;.E k y U ;.4 - = X + 3 5 3 3 0 <XyXtXtXtXtXtXtXtXtXyXtX",
"tXtXtX2X1XtXtXtXyXtXtX#.5 5 f T T z k y 9 c ' z i ,.P.d.Y l F E X.B y S.K.:.c.|.D.d.*.h.I [.OXP.[.P.d.;.d.d.p 6 f z & X + 6 6 & 3 3 : %.tXtXtXtXtXtXtXtXtXtXtXtX",
"2X2X2X*X&X6XtXtXtXtXtX<Xi % & l H l k p f p j 6 6 l.I.G.d.H z U l.H u k.;.l S Y.f.y p T I {.f.L.[.l.d.E N f.y % 6 = % + & 5 y & % % h :XtXtXyXtXtXtXtXtXyXtXtXtX",
"5X%X&X%X&X1XrXtXtXtXyX5Xv X f ;.E z k k l D D D x K I.'.h.X.E z f.T 5 g 6 z A Z a & p F s B 9 *.&.s H l & 6 & + & @ 4 & 5 6 5 % X X 0 #XtXtXtXyXtXtXtXtXtXtXyXtX",
"5X-X-X5X1X-X&X9XtXtXtX9X#.& k ;.;.U R Z d.q.>.| H N P.;.z ,.f.g 9 5 o @ 5 f A b & % 6 6 3 3 3 8 & & & @ @ X & y y % & - 6 f 6 X o   0 $XtXtXtXtXtXtXtXtXtXtXtXtX",
"%X-X5XtXrX5X5XyXtXtXtXm.8 * 6 K U ;.d.S.}.w.>.| b l N s 9 K T Z l a j a j S i i - 6 u y 5 5 3 & X @ % 6 6 + 6 s y 6 y ; @ - ; X X 8 A.rXtXtXtXtXtXtXyXtXtXtXtXtX",
"8X9XtXtXtXtXtXtXtXtXtX@.* 5 & = k ;.1.|..X'.K.q.| z z T H 9 b { S b { | { { f 6 6 u x S B u u M s 4 5 u p s y 6 6 y k y % X + + o * m.tXtXtXtXtXtXtXtXtXtXtXyXtX",
"tXtXtXtXtXtXtXtXtXtXrXm.2 6 6 = 6 T z x.K.'.H.:.D U c.F.K.K j X.q.8.D { L b f f u y D Z Z Z Y J.G.H u y k E ;.k 6 p u - + X % = 3 % %.tXtXtXtXtXyXtXtXtXtXtXtXtX",
"tXtXtXtXtXtXtXtXrX2X-X/ y k y y y y 6 ,.J.S.J.2.Z :.K.J.K.k.E K.K.w.>.D Z l f k l a b Z | | o.c.K.c.U F N F ;.U y f y + X + & 4 3 0 @XtXyXtXtXtXtXtXtXtXtXyXtXtX",
"yXtXtXtXtXtXtXyXyX5X+Xv y p k p 5 3 5 s p j..XH.0.q.q.q.8.2.1.K.J./.D.>.| E U l C D { Y >.>.q.~.d.l T d.;.;.U k % ; 6 @ X % 3 3 % # n.tXtXtXyXtXtXtXtXtXtXtXtXyX",
"tXtXtXtXtXtXtXyX5X;X$X/ & ; p u 6 5 5 % & U.3Xq.K.H.H.q.| Y { X.}. XS.>.0.H.:.l j S | { 2.D.D.~.S.l K d.;.E E = X + & 3 3 & 3 4 3 o %.tXtXtXtXtXtXtXyXtXtXtXtXtX",
"tXtXtXtXyXtXtXtX6X-X-X@X2 o % u f 6 5 4 5 4.n b X.F.}.c.Z { | D 3XB.{ 2.q.2.z l z Z D Z K H.'.1.T = 6 F y y N 6 6 & % & 5 5 5 5 3 * %.tXtXtXtXtXtXtXtXtXtXyXtXtX",
"tXtXtXtXtXtXtXtXtXtXtX;X0 X X 6 k s 5 y f p & 5 s H.(.H p D { c _ u | K.J.K.D D Z Y | Z b | ^.J & % % % & y N z k y & & 5 5 u u & 0 A.tXtXtXtXtXyXtXtXtXtXtXtXtX",
"yXtXtXtXtXtXtXtXtXtXyX6Xv o X & 6 & & u u 6 f I H v.K 6 5 u p 5 5 5 ,. X X,.{ | x l >.Z a D ' u % 5 y y 6 l E ;.z y % & 3 4 u u $ ) rXtXtXtXtXtXtXtXyXtXtXtXtXtX",
"tXtXyXtXyXtXtXtXtXtXrX5Xu.# X X @ X X & y k E ,.F z f y 9 p l N f * a `.@.- Z b 6 - x l 6 k a 4 5 F ;.z k N K ;.k + X + % % = & 1 $XtXtXtXtXtXtXtXtXtXtXtXtXyXtX",
"tXtXyXtXtXtXtXtXtXyX6X-Xs.v $ X X X X & N k U T U I z f y k F ;.;.u % x $ % p g H N u y k f y - f ;.;.K F U d.K - X X X X X X $ %.rXtXtXtXtXtXyXtXtXyXtXtXtXtXtX",
"tXtXtXtXtXtXtXtXtXtXtX5X-X+XC.1 X X X = k & y ;.d.l.T k F F E U E z X & y y 6 E ;.U ;.T z k z z U U H E d.;.h.K @ X & % X % i %.rXtXrXtXtXtXtXtXtXtXtXtXtXyXtXtX",
"tXtXtXtXtXtXtXtXtXtX6X-X;X6X9X#.# X $ X % + ; E l.oXb.H ;.U d.d.p ; X 6 u 6 6 F U ;.d.H k C E U ;.C = E E k &.E + X % 3 * [ <XrXtXtXtXtXtXtXtXtXtXtXtXtXtXtXtXtX",
"tXtXtXtXtXtXtXyXtXyXtXrX6XtXtX6XA.C.e.- & & & ; f.[.U U d.K l ;.& X X 5 u y y y K h.M l K C ;.;.K k + z u 6 s 6 X X X @ * #XyXyXtXtXtXtXtXyXtXtXtXyXtXtXtXtXtXtX",
"tXtXtXtXtXtXyXyXtXtX8X8XtXtXtXtXtXyX<X1 & o X o N K f C ;.F X & + X + y p p F k N k 6 U K - u R y % + @ = f y + + @ X @ h <XtXtXtXtXtXtXtXtXyXtXtXtXtXtXtXtXtXyX",
"yXtXtXtXtXtXtXrXtXrX-X-X8XyXtXtXtXtXrX@.< * % o X 6 & & y & X X X X + y = k U y X X ; F 6 * % 5 & = & + % 6 ; X % & i #.*XtXtXtXtXtXtXtXtXyXtXtXtXtXtXtXtXtXtXtX",
"tXyXtXtXtXtXrX-X&X5X%X%X8XtXtXtXtXtXtXrX#X#Xe.O X + X X   X X X X @ % + X p 6 X X X @ % % * % X & 4 4 X X X X $ i W R.tXtXtXtXtXtXtXtXtXtXtXtXtXtXtXtXyXyXtXtXtX",
"tXtXtXtXtXtXtX6X&X&X-X-X5X5X8XtXtXtXtXtXtXyX<X@.2 X @ h ` $ X o @ - & + X + X X X o X X X + X X % 5 % X X X $ O.1X-XrXtXtX6X6XtXtXtXtXtXtXtXtXtXtXtXtXtXtXtXtXtX",
"tXtXtXtXtXtXrX;X-X5X8X5X%X5X8XtXtXtXtXtXtXtXtXtX#Xp.p.$X<X%.u 2 @ % # X   O @       O X o X X X X % X X - t v s.5X-X5XrX;X%X&X6XtXtXtXtXtXtXtXtXtXtXtXtXyXtXtXtX",
"tXtXtXtXtXyXtX5X5X8X8XtX8XtXtXtXtXtXtXtXtXtXtXtX1X6XtX>Xu.O.c j - @       > 1 # o O O X     X X & & 4 i j v } E.%X-X%X%X%X%X%X5XtXtXtXtXtXtXtXtXtXtXtXtXtXtXtXtX",
"tXtXyXtXtXtXtXtX8XtXtXtXtXtXtXtXtXtXtXtXtXtXtX;X%XE.p.r.O.+.n 6 5 * O   O : , 1 # > > @   o & & 4 m N f j b u.%X-X6X5X%X%X%X&X&X5XtXtXtXtXtXyXtXyXtXtXtXtXtXtXyX",
"tXtXtXtXtXtXtXtXtXtXtXtXtXtXtXtXtXtXtXtXtX5X;Xs.e.9.( ( ( n j 5 5 > 1 $ O : 7 q , w w > O O & m m m &.s 6 H o.!.5X8X6X-X&X5X5X-X6XtXtXtXtXyXtXtXtXtXtXtXtXtXtXtX",
"tXtXtXtXtXtXtXyXtX8X6X5XyXyXtXtXtXtXtXtXtX5Xs.+X4.n 9.T.} 9 8 8 < 0 0 q q e q r q w w 8 O O # B f.&.M m m I +.<X&X%X%X%X5X6XrXtXtXtXtXtXtXtXtXtXtXyXtXtXtXtXtXtX",
"tXtXtXyXtXyX6X5X8X5Xs.5X8XtXtXtXtXtXtXtX$X4.} y.} A T.u.v 9 8 d 8 7 W ! Q r W Q Q Q W : : O # * M &.N P I | e.;X8X-X%X%X5X&X5XtXtXtXtXtXtXtXtXyXtXtXtXtXtXtXtXtX",
"tXyXtXtXtXtX6X&X5X%Xs.s.5X8XtXtXtXtXtX1X#XO.v ( / / r.y.u.' M M 0 w e Q r e Q ^ ! ~ W : > # O # 3 s g.f.*.4.u.%X6X%X%X5X5X%X-X5X8XtXtXtXtXtXtXtXtXtXtXtXtXyXyXtX",
"tXtXtXtX5X5X&X%X5X%X%X-X-X5X8XtXtX6X;X+Xp.9.( A ( e.} +.' g N h Q Q Q ! e 7 Q ~ =.^ q O > > O $ > 8 +.E.9.) t.;X%Xp.-XrX3X%Xs.5X5XtXyXtXtXyXtXtXtXtXtXtXtXtXtXtX",
"tXtXtXtXrX-Xs.p.-X5X8X5X-X5X6XtXtX2X!.E.-X-X#.( Z.*X( _ n s h ^ -.^ ! e r ! ~ ^ ^ r 7 o # $ > > @.C.r.p.y./ _ t.Z.r.;X*X%X&X-X-X&X5XtXtXtXtXtXtXtXtXyXtXtXtXtXtX",
"tXtXrX&X@Xa.9.4.s.s.5XrX8XtXtXtX9XZ.9.9.R.rX$Xp.9X#Xy.!.t.b ! =.~ e 7 e ^ ^ ! r e q ,   O $ $ 2 O.Z.p.3.r.a.a.+.( +.C.+X6X;X%X%X%X5XtXtXyXtXtXtXtXtXtXtXtXyXtXtX",
"tXtXtX+X9.+. .5.a.p.a.%X-X6XtXtXrX#Xr.Q.1X6X-XQ.Q.y.R.p.y.' 2 e , , , ~ =.r e e r 7 # O # % 3 2 / ( 3.9.y.s.+.A v _ r.s.-X%X-X-X&X6XtXtXtXtXtXtXtXtXtXtXtXtXyXtX",
"tXtXrX*Xa.r.p.a.y.5.s.s.%X5X8XtXtX#X' O.#X-X&Xs.u.r.4.4.#.g 5 < 1 : 7 ~ ^ $.$.Q q : 3 % p 9 = & 6 i ( p.y.4.+.+.( t.5X5X%X;X8X5XrXtXtXtXtXtXtXtXyXtXtXtXtXtXtXtX",
"tXtXrX#Xu.T.E.%Xs.s.%X%X%X5X8XtXtXR./ x ( 4.y.T.1X#X3.y.} 6 9 x a v ` W C.;Xt.e : B B m M G 6 9 p a g ' e./ ( A O.#XrX;X&X;X5X6XyXtXtXtXtXtXtXtXtXyXtXtXtXyXtXtX",
"tXtXtXrX1X5X-X%X%X%Xs.%X-X8XtX8X%Xr./ v O.Z.Z.Q.rX;Xy.p.' g g ( n A +._ +XA.p.e.h d *.&.M B ..C.e.v e.@.x x ( n ( A.rX;X+X+X&XrXtXtXyXtXtXtXtXtXtXtXtXtXtXtXtXyX",
"tXtXtXtXtXtX6X-X%X%X%X%X5X6X8X5Xp.4._ ( _ u.+X%X-XR.} ( }  .( t.+Xp.} O.p.s.s.} 9 6 B B Z ( E.!._ n Q.*Xn O.Q.+._ / A.;X%X%X%X5XyXtXtXtXtXtXtXyXyXtXtXtXtXtXtXtX",
"tXtXtXtXtXrX;X&X%X&X5X%X%X8X8X%Xs.4.A / } } r.E.&X;XQ.#._ _ r.y.T.&Xr.3.9.r.s.C.V V } o.p.+.a.y.C.+X*X#Xe.;X;X>Xu.x / T.5X&X%X5XtXtXtXtXtXtXtXtXtXtXtXtXtXtXtXtX",
"tXtXtXtXtXtX6X-X-X6XtXrXrXtXtX6X%Xp.( / 4.9.4.y.1X9X#X+.( ( 9.a.r.r.9.+.4.p.R.y.B ' 9.s.p.O.+.4.V.1X6XV.N.-X6X6XV.} 3.E.8X6X-X8XtXtXtXyXtXtXtXtXtXtX8X6X8XtXtXtX",
"tXtXtXtXtXtXtXtX6XtXtXtXtXtX1X-Xs.r.3.3.#X6X#Xu.&X1X*XZ.O. .+.O.4.} _ ( / 3.V.Z.+._ +.y.( / +.y.p.R.*Xp.y.%X5XQ.s.T.u.p.-X6XtXtXtXtXtXtXtXyXtX5X8X5X%X%X8XtXtXtX",
"yXtXtXyXtXtXtXtXtXtXtXtXtX1Xa.s.s.p.4.9.p.-X5X+X+X$X*X%.s x } ( p.t./ ( A n #X<X#X*Xt.} O.u.s.y.p.E.s.p.E.%XT.r.y.u.p.E.5X6XtXtXtXtXtXtXtXtXrX&X5X-Xs.s.-X8XtXtX",
"tXtXtXtXtXtXtXtXtXtXtXtX5X5Xs.a.s.a.4.p.s.R.+X+Xs.r.O.b i a ( r.2XR.4.9._ / *X6XrX*X7.4.9.s.s.r.} T.&XE.E.E.p.r.s.%X5X5X8XtXtXtXtXyXtXtXrX5X5X%X-X-X%X%X5X5X8XtX",
"tXtXtXyXtXyXtXtXtXtXtXrX5X%X%Xs.r.9.} / } 4.u.a.p.p.( x n _ 3.&X1X#X1XQ.#X#X&X-X5X,X*XV.#X>XV.#XQ.+X6X*X-X-XE.E.-X6XtXtXtXtXtXtXtXtXtXtXrX;XE.p.%X5X6X6X-X-X8XtX",
"tXtXtXtXtXtXtXtXtXtXtX6X-X-X%Xy.r.s.9./ ( r.&Xp.u.r.#.) ( Q.u.!.y.R.tX9X0X-XE.p.&XrX#Xu.,X*Xr.#X6XrXrX*X6X*XT.-X6X6XtXtXtXtXtXtXtXtXtX;X*X!.y.4.p.-X-X8X8X8X8XtX",
"tXyXtXtXtXtXyXtXyXtXtX5X;X8X5Xa.*X-X!.#XN.*XtX&XR.6X>X9.9.6X*XR.y.&X6X8X!.T.T.Z.*X!.y.R.&X+X#X&X5X6X5XR.>XV.E.-X%X5XrXtXtXtXtXtXtXtXtX*Xy.+.} 3.y.T.p.%X5X7XrXtX",
"tXtXtXtXtXtXtXrX6XrX5X%X-XtX8X-X6XR.Z.1X9X6X8X5X1X>XV.+X*X-X5X1X%X%X-X-XV.&X6X-X%XV.T.-X!.y.Q.9X6X&X+XT.%X-X0X8X8XtXtXtXyXtXtXtXtXtXtX;XR.9.y.p.p.5.y.R.s.5X8XtX",
"tXtXtXyXtXtXtX8X-X&X-Xs.3X8X8X5X+XV.R.+X6X-X-X%X-XR.!.1X-X;X6XrX-X&X5X6X*XtXtX;X%XE.&X6X6X!.!.-X-X%XE.%X5XtXtXyXtXtXtXtXtXtXtXtXtXtXtX&Xu.p.E.E.T.p.s.&X%X&X5XtX",
"tXtXtXtXtXtXtXrX5X%X&X5X-X5X-X5X*X6X1X6X5X%XE.%XE.s.u.Z.;X0XtX6X;X;X6XtXtXtXtXrX-X&X-XtXtXtXtX6X&X-X-X&XrXtXtXtXtXtXtXtXtXtXtXtXtXyXyXrX1X1X-X%XE.%X%X%X%X5XtXtX",
"tXtXtXtXtXtXyX6X5X5X5X8X5X-X5XtXtXtXtX0X5X%Xs.s.s.p.r.*XrXtXtX8X5XrXtXtXtXtXtXtXtX5X0XtXtXtXtXtX8X6X8X6XtXtXtXtXtXtXtXtXtXtXtXyXtXtXtXtXrXtXrX-X%X%X%X%X5X5XtXtX",
"tXyXtXtXtXtXtXtX5X5XtXtXtXtXtXtXtXtXtXrX5X%Xs.y.s.y.R.;XtXtXtXtXtXtXtXtXtXtXtXtXtXtXtXtXtXtXtXtXtXtXtXtXtXtXtXtXtXtXtXtXtXtXtXtXtXtXtXtXtXtX6X-X%X%X-X%X%X5XtXtX"
};
